<?xml version="1.0" encoding="UTF-8"?>
<!DOCTYPE svg PUBLIC "-//W3C//DTD SVG 1.1//EN" "http://www.w3.org/Graphics/SVG/1.1/DTD/svg11.dtd">
<!-- Creator: CorelDRAW -->
<svg xmlns="http://www.w3.org/2000/svg" xml:space="preserve" width="172.423mm" height="80.0536mm" version="1.1" style="shape-rendering:geometricPrecision; text-rendering:geometricPrecision; image-rendering:optimizeQuality; fill-rule:evenodd; clip-rule:evenodd"
viewBox="0 0 1185.51 550.41"
 xmlns:xlink="http://www.w3.org/1999/xlink"
 xmlns:xodm="http://www.corel.com/coreldraw/odm/2003">
 <defs>
  <style type="text/css">
   <![CDATA[
    .fil0 {fill:#FBF3F3}
   ]]>
  </style>
 </defs>
 <g id="Camada_x0020_1">
  <metadata id="CorelCorpID_0Corel-Layer"/>
  <g id="_2508797621920">
   <ellipse class="fil0" cx="73.06" cy="35.85" rx="43.04" ry="35.84"/>
   <ellipse class="fil0" cx="147.42" cy="35.85" rx="43.04" ry="35.85"/>
   <ellipse class="fil0" cx="227.68" cy="35.85" rx="43.04" ry="35.85"/>
   <ellipse class="fil0" cx="307.95" cy="35.85" rx="43.04" ry="35.85"/>
   <ellipse class="fil0" cx="388.21" cy="35.85" rx="43.04" ry="35.85"/>
   <ellipse class="fil0" cx="468.48" cy="35.85" rx="43.04" ry="35.85"/>
   <ellipse class="fil0" cx="548.74" cy="35.85" rx="43.04" ry="35.85"/>
   <ellipse class="fil0" cx="629.01" cy="35.85" rx="43.04" ry="35.85"/>
   <ellipse class="fil0" cx="709.27" cy="35.85" rx="43.04" ry="35.85"/>
   <ellipse class="fil0" cx="789.54" cy="35.85" rx="43.04" ry="35.85"/>
   <ellipse class="fil0" cx="869.8" cy="35.85" rx="43.04" ry="35.85"/>
   <ellipse class="fil0" cx="950.07" cy="35.85" rx="43.04" ry="35.85"/>
   <ellipse class="fil0" cx="1030.33" cy="35.85" rx="43.04" ry="35.85"/>
   <ellipse class="fil0" cx="1110.51" cy="35.85" rx="43.04" ry="35.84"/>
  </g>
  <g id="_2508797625088">
   <ellipse class="fil0" cx="73.07" cy="514.56" rx="43.04" ry="35.84"/>
   <ellipse class="fil0" cx="147.42" cy="514.56" rx="43.04" ry="35.85"/>
   <ellipse class="fil0" cx="227.68" cy="514.56" rx="43.04" ry="35.85"/>
   <ellipse class="fil0" cx="307.95" cy="514.56" rx="43.04" ry="35.85"/>
   <ellipse class="fil0" cx="388.21" cy="514.56" rx="43.04" ry="35.85"/>
   <ellipse class="fil0" cx="468.48" cy="514.56" rx="43.04" ry="35.85"/>
   <ellipse class="fil0" cx="548.74" cy="514.56" rx="43.04" ry="35.85"/>
   <ellipse class="fil0" cx="629.01" cy="514.56" rx="43.04" ry="35.85"/>
   <ellipse class="fil0" cx="709.27" cy="514.56" rx="43.04" ry="35.85"/>
   <ellipse class="fil0" cx="789.54" cy="514.56" rx="43.04" ry="35.85"/>
   <ellipse class="fil0" cx="869.8" cy="514.56" rx="43.04" ry="35.85"/>
   <ellipse class="fil0" cx="950.07" cy="514.56" rx="43.04" ry="35.85"/>
   <ellipse class="fil0" cx="1030.33" cy="514.56" rx="43.04" ry="35.85"/>
   <ellipse class="fil0" cx="1110.51" cy="514.56" rx="43.04" ry="35.84"/>
  </g>
  <g id="_2508797626432">
   <circle class="fil0" transform="matrix(2.64845E-14 -1.03683 0.832891 2.28711E-14 35.8502 481.578)" r="43.04"/>
   <circle class="fil0" transform="matrix(2.64845E-14 -1.03683 0.832891 2.28711E-14 35.8502 398.357)" r="43.04"/>
   <circle class="fil0" transform="matrix(2.64845E-14 -1.03683 0.832891 2.28711E-14 35.8502 315.136)" r="43.04"/>
   <circle class="fil0" transform="matrix(2.64845E-14 -1.03683 0.832891 2.28711E-14 35.8502 231.916)" r="43.04"/>
   <circle class="fil0" transform="matrix(2.64845E-14 -1.03683 0.832891 2.28711E-14 35.8502 148.695)" r="43.04"/>
   <circle class="fil0" transform="matrix(2.648E-14 -1.03665 0.832752 2.28673E-14 35.8502 65.5665)" r="43.04"/>
  </g>
  <g id="_2508797628352">
   <circle class="fil0" transform="matrix(2.64845E-14 -1.03683 0.832891 2.28711E-14 1149.66 481.578)" r="43.04"/>
   <circle class="fil0" transform="matrix(2.64845E-14 -1.03683 0.832891 2.28711E-14 1149.66 398.357)" r="43.04"/>
   <circle class="fil0" transform="matrix(2.64845E-14 -1.03683 0.832891 2.28711E-14 1149.66 315.136)" r="43.04"/>
   <circle class="fil0" transform="matrix(2.64845E-14 -1.03683 0.832891 2.28711E-14 1149.66 231.916)" r="43.04"/>
   <circle class="fil0" transform="matrix(2.64845E-14 -1.03683 0.832891 2.28711E-14 1149.66 148.695)" r="43.04"/>
   <circle class="fil0" transform="matrix(2.648E-14 -1.03665 0.832752 2.28673E-14 1149.66 65.5665)" r="43.04"/>
  </g>
  <rect class="fil0" x="41.76" y="26.22" width="1100.05" height="494.71"/>
 </g>
</svg>
