<?xml version="1.0" encoding="UTF-8"?>
<!DOCTYPE svg PUBLIC "-//W3C//DTD SVG 1.1//EN" "http://www.w3.org/Graphics/SVG/1.1/DTD/svg11.dtd">
<!-- Creator: CorelDRAW -->
<svg xmlns="http://www.w3.org/2000/svg" xml:space="preserve" width="258.523mm" height="183.974mm" version="1.1" style="shape-rendering:geometricPrecision; text-rendering:geometricPrecision; image-rendering:optimizeQuality; fill-rule:evenodd; clip-rule:evenodd"
viewBox="0 0 980.09 697.47"
 xmlns:xlink="http://www.w3.org/1999/xlink"
 xmlns:xodm="http://www.corel.com/coreldraw/odm/2003">
 <defs>
  <style type="text/css">
   <![CDATA[
    .fil0 {fill:#FBF3F3}
   ]]>
  </style>
 </defs>
 <g id="Camada_x0020_1">
  <metadata id="CorelCorpID_0Corel-Layer"/>
  <path class="fil0" d="M110.45 30.47c19.51,0 37.32,7.25 50.89,19.2 14.13,-23.7 41.28,-39.75 72.47,-39.75 24.5,0 46.51,9.9 61.67,25.64 14.98,-18.8 38.9,-30.97 65.84,-30.97 24.87,0 47.15,10.36 62.22,26.74 14.96,-19 39.01,-31.33 66.13,-31.33 27.11,0 51.16,12.32 66.12,31.32 15.06,-16.18 37.21,-26.41 61.91,-26.41 27.14,0 51.21,12.35 66.17,31.38 15.17,-15.97 37.35,-26.04 62.05,-26.04 31.09,0 58.17,15.95 72.34,39.53 13.48,-11.54 30.98,-18.51 50.11,-18.51 42.57,0 77.08,34.51 77.08,77.08 0,16.51 -5.19,31.81 -14.04,44.36 25.64,12.92 43.31,40.09 43.31,71.53 0,23.21 -9.63,44.09 -24.99,58.63 18.45,14.8 30.35,38.14 30.35,64.41 0,26.08 -11.73,49.27 -29.95,64.09 14.6,14.74 23.68,35.46 23.68,58.41 0,31.43 -17.03,58.67 -41.92,72.1 10.93,13.17 17.47,29.85 17.47,47.99 0,42.57 -35.96,77.08 -80.33,77.08 -19.03,0 -36.51,-6.35 -50.27,-16.96 -14.6,22.31 -41.09,37.21 -71.35,37.21 -24.86,0 -47.18,-10.07 -62.45,-26.04 -15.06,19.03 -39.27,31.38 -66.59,31.38 -24.86,0 -47.15,-10.23 -62.31,-26.41 -15.06,19 -39.26,31.32 -66.55,31.32 -27.29,0 -51.49,-12.33 -66.55,-31.33 -15.16,16.37 -37.59,26.74 -62.62,26.74 -27.12,0 -51.19,-12.17 -66.26,-30.97 -15.26,15.74 -37.41,25.64 -62.07,25.64 -30.4,0 -56.99,-15.05 -71.55,-37.53 -13.8,10.49 -31.27,16.77 -50.29,16.77 -44.6,0 -80.76,-34.51 -80.76,-77.08 0,-18.18 6.6,-34.89 17.63,-48.07 -24.27,-13.64 -40.79,-40.53 -40.79,-71.48 0,-22.95 9.09,-43.67 23.68,-58.41 -18.22,-14.81 -29.95,-38.01 -29.95,-64.09 0,-26.27 11.91,-49.62 30.35,-64.41 -15.36,-14.54 -24.99,-35.43 -24.99,-58.63 0,-31.31 17.53,-58.39 43.01,-71.37 -9.43,-12.79 -15,-28.59 -15,-45.69 0,-42.57 34.51,-77.08 77.08,-77.08z"/>
 </g>
</svg>
