<?xml version="1.0" encoding="UTF-8"?>
<!DOCTYPE svg PUBLIC "-//W3C//DTD SVG 1.1//EN" "http://www.w3.org/Graphics/SVG/1.1/DTD/svg11.dtd">
<!-- Creator: CorelDRAW -->
<svg xmlns="http://www.w3.org/2000/svg" xml:space="preserve" width="104.239mm" height="67.9818mm" version="1.1" style="shape-rendering:geometricPrecision; text-rendering:geometricPrecision; image-rendering:optimizeQuality; fill-rule:evenodd; clip-rule:evenodd"
viewBox="0 0 319.06 208.08"
 xmlns:xlink="http://www.w3.org/1999/xlink"
 xmlns:xodm="http://www.corel.com/coreldraw/odm/2003">
 <defs>
  <style type="text/css">
   <![CDATA[
    .str0 {stroke:#FBF3F3;stroke-width:3.24;stroke-miterlimit:22.9256}
    .fil2 {fill:none}
    .fil0 {fill:#1E3A8A}
    .fil1 {fill:#FBF3F3}
    .fil3 {fill:#FBF3F3;fill-rule:nonzero}
   ]]>
  </style>
   <clipPath id="id0">
    <path d="M284.89 1.62c-17.98,0 -32.55,45.79 -32.55,102.28 0,56.49 14.58,102.28 32.55,102.28 17.98,0 32.55,-45.79 32.55,-102.28 0,-56.49 -14.58,-102.28 -32.55,-102.28z"/>
   </clipPath>
   <clipPath id="id1">
    <path d="M34.17 1.91c17.98,0 32.55,45.79 32.55,102.28 0,56.49 -14.58,102.28 -32.55,102.28 -17.98,0 -32.55,-45.79 -32.55,-102.28 0,-56.49 14.58,-102.28 32.55,-102.28z"/>
   </clipPath>
 </defs>
 <g id="Camada_x0020_1">
  <metadata id="CorelCorpID_0Corel-Layer"/>
  <path class="fil0" d="M284.89 1.62c-17.98,0 -32.55,45.79 -32.55,102.28 0,56.49 14.58,102.28 32.55,102.28 17.98,0 32.55,-45.79 32.55,-102.28 0,-56.49 -14.58,-102.28 -32.55,-102.28z"/>
  <g style="clip-path:url(#id0)">
   <g id="_2508554310544">
    <ellipse class="fil1" cx="298.64" cy="103.6" rx="32.55" ry="100.34"/>
    <ellipse class="fil0" cx="327.44" cy="103.51" rx="49.62" ry="48.83"/>
   </g>
  </g>
  <path class="fil2 str0" d="M284.89 1.62c-17.98,0 -32.55,45.79 -32.55,102.28 0,56.49 14.58,102.28 32.55,102.28 17.98,0 32.55,-45.79 32.55,-102.28 0,-56.49 -14.58,-102.28 -32.55,-102.28z"/>
  <path class="fil0" d="M34.17 1.91c17.98,0 32.55,45.79 32.55,102.28 0,56.49 -14.58,102.28 -32.55,102.28 -17.98,0 -32.55,-45.79 -32.55,-102.28 0,-56.49 14.58,-102.28 32.55,-102.28z"/>
  <g style="clip-path:url(#id1)">
   <g id="_2508554312848">
    <ellipse class="fil1" cx="20.42" cy="103.89" rx="32.55" ry="100.34"/>
    <ellipse class="fil0 str0" cx="33.71" cy="103.6" rx="49.62" ry="48.83"/>
   </g>
  </g>
  <path class="fil2 str0" d="M34.17 1.91c17.98,0 32.55,45.79 32.55,102.28 0,56.49 -14.58,102.28 -32.55,102.28 -17.98,0 -32.55,-45.79 -32.55,-102.28 0,-56.49 14.58,-102.28 32.55,-102.28z"/>
  <circle class="fil0 str0" cx="179.25" cy="103.82" r="50.53"/>
  <path class="fil0" d="M33.71 54.77c27.4,0 49.62,21.86 49.62,48.83 0,26.97 -22.22,48.83 -49.62,48.83 -5.74,0 -11.25,-0.96 -16.38,-2.73l0 -92.21c5.13,-1.76 10.64,-2.73 16.38,-2.73z"/>
  <path class="fil3" d="M33.71 53.15c14.14,0 26.95,5.64 36.22,14.77 9.28,9.13 15.02,21.75 15.02,35.68 0,13.93 -5.74,26.55 -15.02,35.68 -9.27,9.13 -22.08,14.77 -36.22,14.77 -5.73,0 -11.24,-0.93 -16.38,-2.63l0 -3.42c5.11,1.82 10.63,2.82 16.38,2.82 13.26,0 25.27,-5.29 33.95,-13.83 8.68,-8.54 14.05,-20.34 14.05,-33.38 0,-13.04 -5.37,-24.84 -14.05,-33.38 -8.69,-8.55 -20.69,-13.83 -33.95,-13.83 -5.75,0 -11.27,0.99 -16.38,2.82l0 -3.42c5.14,-1.71 10.65,-2.63 16.38,-2.63z"/>
 </g>
</svg>
