<?xml version="1.0" encoding="UTF-8"?>
<!DOCTYPE svg PUBLIC "-//W3C//DTD SVG 1.1//EN" "http://www.w3.org/Graphics/SVG/1.1/DTD/svg11.dtd">
<!-- Creator: CorelDRAW -->
<svg xmlns="http://www.w3.org/2000/svg" xml:space="preserve" width="71.5037mm" height="92.6162mm" version="1.1" style="shape-rendering:geometricPrecision; text-rendering:geometricPrecision; image-rendering:optimizeQuality; fill-rule:evenodd; clip-rule:evenodd"
viewBox="0 0 1072.08 1388.63"
 xmlns:xlink="http://www.w3.org/1999/xlink"
 xmlns:xodm="http://www.corel.com/coreldraw/odm/2003">
 <defs>
  <style type="text/css">
   <![CDATA[
    .str0 {stroke:#1E3A8A;stroke-width:15.87;stroke-miterlimit:22.9256}
    .str1 {stroke:#1E3A8A;stroke-width:10.58;stroke-miterlimit:22.9256}
    .str2 {stroke:#1E3A8A;stroke-width:7.93;stroke-miterlimit:22.9256}
    .fil3 {fill:none}
    .fil1 {fill:#1E3A8A}
    .fil2 {fill:#FBF3F3}
    .fil0 {fill:#FBF3F3}
   ]]>
  </style>
 </defs>
 <g id="Camada_x0020_1">
  <metadata id="CorelCorpID_0Corel-Layer"/>
  <g id="_3050008480992">
   <ellipse class="fil0 str0" cx="536.04" cy="1210.08" rx="528.11" ry="170.62"/>
   <path class="fil1 str1" d="M1045.86 1258.13c-28.49,-175.07 -983.39,-179.96 -1019.55,-0.17 124.97,131.33 782.41,193.88 1019.55,0.17z"/>
  </g>
  <g id="_3050008487952">
   <polygon class="fil0 str2" points="395.02,1360.52 329.84,1356.05 329.84,473.1 395.02,473.1 "/>
   <rect class="fil0 str2" x="395.02" y="460.56" width="86.03" height="908.04"/>
   <polygon class="fil0 str2" points="672.85,1361.02 738.04,1353.29 738.04,470.34 672.85,470.34 "/>
   <rect class="fil0 str2" x="586.82" y="459.85" width="86.03" height="908.81"/>
   <rect class="fil2 str2" x="481.05" y="457.6" width="105.77" height="915.44"/>
   <polygon class="fil0 str2" points="329.84,470.12 278.86,470.12 278.86,1343.6 329.84,1347.04 "/>
   <polygon class="fil0 str2" points="793.51,470.62 738.04,470.62 738.04,1351.29 793.51,1344.1 "/>
  </g>
  <ellipse class="fil0" cx="538.08" cy="269.9" rx="355.95" ry="66.59"/>
  <polygon class="fil0" points="108.39,112.93 954.08,112.93 861.25,7.93 208.05,7.93 "/>
  <path class="fil0 str2" d="M254.64 424.39c188.45,45.61 376.1,42.94 563.09,0 19.73,21.28 14.5,39.7 -24.22,59.86 -170.08,37.44 -341.53,40.11 -514.65,-0.1 -34.03,-16.89 -45.75,-34.9 -24.22,-59.76z"/>
  <path class="fil0 str2" d="M225.1 304.1c204.21,44.11 411.75,42.25 622.2,0.18 -1.13,25.71 -8.99,53.99 -26.29,81.5 -193.97,50.92 -383.95,52.12 -569.63,0 -17.79,-24.93 -26.23,-53.54 -26.27,-81.68z"/>
  <rect class="fil0 str2" x="108.39" y="114.43" width="855.58" height="144.66"/>
  <path class="fil3 str0" d="M175.84 263.45c0.58,19.4 18.26,34.58 49.23,44.16 -3.05,21.17 9.25,49.35 26.29,79.68 -17.69,13.06 -14.58,25.39 3.27,37.11 -22.01,25.2 -8.55,44.24 24.22,62.25l0 849.89c85.12,25.45 171.19,37.18 258.1,36.54m350.09 -1109.62l71.07 0c3.22,0 5.86,-2.63 5.86,-5.86l0 -138.67c0,-0.92 -0.22,-5.67 -0.53,-5.99l-102.2 -105 -653.2 0 -99.66 105c-0.64,0.67 0,4.13 0,5.99l0 138.67c0,3.22 2.63,5.86 5.86,5.86l71.2 0m711.23 0c-0.58,19.4 -18.42,34.58 -49.39,44.16 3.05,21.17 -9.24,49.35 -26.29,79.68 17.69,13.06 14.58,25.39 -3.27,37.11 22.01,25.2 8.55,44.24 -24.22,62.25l0 849.89c-85.12,25.45 -171.19,37.18 -258.1,36.54"/>
  <path class="fil0 str2" d="M254.64 424.39c185.57,45.46 373.36,43.7 563.09,0 20.61,-13.75 18.28,-25.88 3.27,-37.11 -191.35,48.66 -381.33,51.8 -569.63,0 -16.14,13.52 -14.96,25.88 3.27,37.11z"/>
 </g>
</svg>
