<?xml version="1.0" encoding="UTF-8"?>
<!DOCTYPE svg PUBLIC "-//W3C//DTD SVG 1.1//EN" "http://www.w3.org/Graphics/SVG/1.1/DTD/svg11.dtd">
<!-- Creator: CorelDRAW -->
<svg xmlns="http://www.w3.org/2000/svg" xml:space="preserve" width="170.232mm" height="145.942mm" version="1.1" style="shape-rendering:geometricPrecision; text-rendering:geometricPrecision; image-rendering:optimizeQuality; fill-rule:evenodd; clip-rule:evenodd"
viewBox="0 0 965.85 828.03"
 xmlns:xlink="http://www.w3.org/1999/xlink"
 xmlns:xodm="http://www.corel.com/coreldraw/odm/2003">
 <defs>
  <style type="text/css">
   <![CDATA[
    .str0 {stroke:#1E3A8A;stroke-width:6;stroke-miterlimit:22.9256}
    .str1 {stroke:#FBF3F3;stroke-width:4;stroke-miterlimit:22.9256}
    .fil2 {fill:none}
    .fil1 {fill:#1E3A8A}
    .fil0 {fill:#FBF3F3}
   ]]>
  </style>
   <clipPath id="id0">
    <path d="M3.62 535.52l-1.62 -386.6c0.43,-117.46 133.31,-219.59 146.96,-78.1l0 388.22 -145.34 76.48z"/>
   </clipPath>
 </defs>
 <g id="Camada_x0020_1">
  <metadata id="CorelCorpID_0Corel-Layer"/>
  <path class="fil0 str0" d="M572.13 194.31c-5.24,3.04 -10.12,7.45 -14.38,11.81 -4.48,4.58 -8.79,8.95 -11.18,12.45 -5.49,-17.29 -34.09,-25.41 -49.71,-12.95 -9.25,7.38 -17.45,21.24 -7.54,42.73 -9.99,7.2 -14.57,13.17 -18.52,19.47 -3.1,4.95 -5.97,10.56 -7.61,18.18 -24.71,-2.69 -41.78,4.76 -42.52,30.63l498.9 -0.09c57.7,0.39 50.38,-52.98 20.57,-62.75 -14.79,-4.85 -25.85,-0.28 -32.6,6.83 -0.14,-13.53 -5.89,-23.91 -18.8,-30.29 16.88,-25.39 3.45,-50.7 -24.21,-54.97 -3.07,-67.03 -91.05,-68.52 -104.3,-16.72 -1.65,-1.7 -9.15,-7.02 -17.78,-10.46 -8.72,-3.48 -19.05,-4.22 -19.16,-4.41 -10.13,-18.13 -25.51,-28.42 -51.94,-16.51 -11.2,-11.42 -13.92,-18.63 -35.94,-25.03 -18.47,-5.37 -34.81,-0.44 -48.02,8.08 -27.19,17.56 -36.19,57.84 -15.26,84z"/>
  <polygon class="fil0" points="1.59,534.99 375.75,540.86 379.48,828.01 3.62,776.79 "/>
  <path class="fil1 str1" d="M520.34 701.22l-140.51 76.81c-0.82,0.45 -1.72,0.77 -1.71,1.7l0.22 44.5c0,0.93 0.89,2.15 1.71,1.7l139.91 -76.9c0.82,-0.45 1.7,-0.77 1.71,-1.7l0.39 -44.42c0.01,-0.94 -0.89,-2.15 -1.71,-1.7z"/>
  <path class="fil1 str1" d="M476.29 695.38l-138.19 75.09c-0.82,0.45 -2.63,1.57 -1.7,1.7l41.72 5.86c1,0.14 120.69,-64.14 140.52,-75.11 0.82,-0.45 2.63,-1.57 1.7,-1.7l-40.43 -5.74c-0.92,-0.13 -2.8,-0.55 -3.62,-0.1z"/>
  <path class="fil1 str1" d="M476.69 647.45l-140.51 76.81c-0.82,0.45 -1.72,0.77 -1.71,1.7l0.22 44.5c0,0.93 0.89,2.15 1.71,1.7l139.91 -76.9c0.82,-0.45 1.7,-0.77 1.71,-1.7l0.39 -44.42c0.01,-0.94 -0.89,-2.15 -1.71,-1.7z"/>
  <path class="fil1 str1" d="M432.64 641.61l-138.19 75.09c-0.82,0.45 -2.63,1.57 -1.7,1.7l41.72 5.86c1,0.14 120.69,-64.14 140.52,-75.11 0.82,-0.45 2.63,-1.57 1.7,-1.7l-40.43 -5.74c-0.92,-0.13 -2.8,-0.55 -3.62,-0.1z"/>
  <path class="fil1 str1" d="M433.04 593.68l-140.51 76.81c-0.82,0.45 -1.72,0.77 -1.71,1.7l0.22 44.5c0,0.93 0.89,2.15 1.71,1.7l139.91 -76.9c0.82,-0.45 1.7,-0.77 1.71,-1.7l0.39 -44.42c0.01,-0.94 -0.89,-2.15 -1.71,-1.7z"/>
  <path class="fil1 str1" d="M388.99 587.84l-138.19 75.09c-0.82,0.45 -2.63,1.57 -1.7,1.7l41.72 5.86c1,0.14 120.69,-64.14 140.52,-75.11 0.82,-0.45 2.63,-1.57 1.7,-1.7l-40.43 -5.74c-0.92,-0.13 -2.8,-0.55 -3.62,-0.1z"/>
  <path class="fil1 str1" d="M389.39 539.92l-140.51 76.81c-0.82,0.45 -1.72,0.77 -1.71,1.7l0.22 44.5c0,0.93 0.89,2.15 1.71,1.7l139.91 -76.9c0.82,-0.45 1.7,-0.77 1.71,-1.7l0.39 -44.42c0.01,-0.94 -0.89,-2.15 -1.71,-1.7z"/>
  <path class="fil1 str1" d="M345.34 534.08l-138.19 75.09c-0.82,0.45 -2.63,1.57 -1.7,1.7l41.72 5.86c1,0.14 120.69,-64.14 140.52,-75.11 0.82,-0.45 2.63,-1.57 1.7,-1.7l-40.43 -5.74c-0.92,-0.13 -2.8,-0.55 -3.62,-0.1z"/>
  <path class="fil1 str1" d="M345.74 486.15l-140.51 76.81c-0.82,0.45 -1.72,0.77 -1.71,1.7l0.22 44.5c0,0.93 0.89,2.15 1.71,1.7l139.91 -76.9c0.82,-0.45 1.7,-0.77 1.71,-1.7l0.39 -44.42c0.01,-0.94 -0.89,-2.15 -1.71,-1.7z"/>
  <path class="fil1 str1" d="M301.69 480.31l-138.19 75.09c-0.82,0.45 -2.63,1.57 -1.7,1.7l41.72 5.86c1,0.14 120.69,-64.14 140.52,-75.11 0.82,-0.45 2.63,-1.57 1.7,-1.7l-40.43 -5.74c-0.92,-0.13 -2.8,-0.55 -3.62,-0.1z"/>
  <g style="clip-path:url(#id0)">
   <g id="_2544802410752">
    <rect class="fil1" x="-69.7" y="-14.9" width="227.66" height="499.56"/>
    <path class="fil0" d="M112.55 452.86l-145.34 76.48 -1.62 -386.6c0.43,-117.46 133.31,-219.59 146.96,-78.1l0 388.22z"/>
   </g>
  </g>
  <path class="fil2 str1" d="M3.62 535.52l-1.62 -386.6c0.43,-117.46 133.31,-219.59 146.96,-78.1l0 388.22"/>
  <path class="fil1 str1" d="M202.95 564.1l-199.37 -29.02 -0.06 -22.76 109.76 -58.11 231.89 31.37c0.93,0.12 2.53,1.27 1.7,1.7 -12.99,6.86 -143.34,76.9 -143.92,76.81z"/>
  <path class="fil0 str0" d="M229.05 138.16c-39.17,-19.2 -78.08,-6.12 -83.18,40.77 -20.15,5.75 -26.25,19 -29.7,35.94 -43.3,-1.44 -42.12,44.82 -22.79,53.38l343.03 0.28c4.93,-0.27 2.03,-4.04 11.37,-6.54 36.5,-16.21 25.41,-55.52 -7.38,-57.98 -6.35,-41.69 -42.89,-65.76 -81.86,-63.31 -17.42,-55.11 -109.87,-58.93 -129.48,-2.53z"/>
  <path class="fil1" d="M82.87 47.05c1.32,0 2.42,4.01 2.75,9.47 5.76,0.28 10.07,1.42 10.07,2.78 0,1.36 -4.28,2.5 -10.01,2.78 -0.23,6.03 -1.4,10.61 -2.81,10.61 -1.41,0 -2.57,-4.58 -2.81,-10.61 -5.73,-0.28 -10.01,-1.42 -10.01,-2.78 0,-1.36 4.31,-2.5 10.07,-2.78 0.33,-5.45 1.43,-9.47 2.75,-9.47z"/>
  <path class="fil1" d="M29.96 234.64c1.32,0 2.42,4.01 2.75,9.47 5.76,0.28 10.07,1.42 10.07,2.78 0,1.36 -4.28,2.5 -10.01,2.78 -0.23,6.03 -1.4,10.61 -2.81,10.61 -1.41,0 -2.57,-4.58 -2.81,-10.61 -5.73,-0.28 -10.01,-1.42 -10.01,-2.78 0,-1.36 4.31,-2.5 10.07,-2.78 0.33,-5.45 1.43,-9.47 2.75,-9.47z"/>
  <path class="fil1" d="M77.52 329.63c1.32,0 2.42,4.01 2.75,9.47 5.76,0.28 10.07,1.42 10.07,2.78 0,1.36 -4.28,2.5 -10.01,2.78 -0.23,6.03 -1.4,10.61 -2.81,10.61 -1.41,0 -2.57,-4.58 -2.81,-10.61 -5.73,-0.28 -10.01,-1.42 -10.01,-2.78 0,-1.36 4.31,-2.5 10.07,-2.78 0.33,-5.45 1.43,-9.47 2.75,-9.47z"/>
  <path class="fil1" d="M53.98 117.88c0.9,0.96 -1.29,4.51 -5.06,8.47 3.72,4.4 5.82,8.34 4.82,9.27 -0.99,0.93 -4.75,-1.43 -8.86,-5.43 -4.57,3.94 -8.72,6.2 -9.68,5.17 -0.96,-1.03 1.6,-5.01 5.85,-9.28 -3.7,-4.39 -5.78,-8.3 -4.79,-9.22 1,-0.93 4.77,1.45 8.9,5.47 4.22,-3.48 7.91,-5.4 8.81,-4.44z"/>
  <path class="fil1" d="M91.63 171.42c0.9,0.96 -1.29,4.51 -5.06,8.47 3.72,4.4 5.82,8.34 4.82,9.27 -0.99,0.93 -4.75,-1.43 -8.86,-5.43 -4.57,3.94 -8.72,6.2 -9.68,5.17 -0.96,-1.03 1.6,-5.01 5.85,-9.28 -3.7,-4.39 -5.78,-8.3 -4.79,-9.22 1,-0.93 4.77,1.45 8.9,5.47 4.22,-3.48 7.91,-5.4 8.81,-4.44z"/>
  <path class="fil1" d="M49.48 433.25c0.9,0.96 -1.29,4.51 -5.06,8.47 3.72,4.4 5.82,8.34 4.82,9.27 -0.99,0.93 -4.75,-1.43 -8.86,-5.43 -4.57,3.94 -8.72,6.2 -9.68,5.17 -0.96,-1.03 1.6,-5.01 5.85,-9.28 -3.7,-4.39 -5.78,-8.3 -4.79,-9.22 1,-0.93 4.77,1.45 8.9,5.47 4.22,-3.48 7.91,-5.4 8.81,-4.44z"/>
 </g>
</svg>
