<?xml version="1.0" encoding="UTF-8"?>
<!DOCTYPE svg PUBLIC "-//W3C//DTD SVG 1.1//EN" "http://www.w3.org/Graphics/SVG/1.1/DTD/svg11.dtd">
<!-- Creator: CorelDRAW -->
<svg xmlns="http://www.w3.org/2000/svg" xml:space="preserve" width="99.7718mm" height="110.712mm" version="1.1" style="shape-rendering:geometricPrecision; text-rendering:geometricPrecision; image-rendering:optimizeQuality; fill-rule:evenodd; clip-rule:evenodd"
viewBox="0 0 318.91 353.88"
 xmlns:xlink="http://www.w3.org/1999/xlink"
 xmlns:xodm="http://www.corel.com/coreldraw/odm/2003">
 <defs>
  <style type="text/css">
   <![CDATA[
    .str0 {stroke:#FBF3F3;stroke-width:2.26;stroke-miterlimit:22.9256}
    .fil2 {fill:none}
    .fil1 {fill:#1E3A8A}
    .fil0 {fill:#FBF3F3}
    .fil3 {fill:#FBF3F3;fill-rule:nonzero}
   ]]>
  </style>
    <clipPath id="id0">
     <path d="M159.45 1.13c87.44,0 158.33,22.03 158.33,49.2 0,27.17 -70.88,49.2 -158.33,49.2 -87.44,0 -158.33,-22.03 -158.33,-49.2 0,-27.17 70.88,-49.2 158.33,-49.2z"/>
    </clipPath>
 </defs>
 <g id="Camada_x0020_1">
  <metadata id="CorelCorpID_0Corel-Layer"/>
  <g id="_2508798544992">
   <path class="fil0" d="M159.45 1.13c87.44,0 158.33,22.03 158.33,49.2 0,27.17 -70.88,49.2 -158.33,49.2 -87.44,0 -158.33,-22.03 -158.33,-49.2 0,-27.17 70.88,-49.2 158.33,-49.2z"/>
   <g style="clip-path:url(#id0)">
    <g>
     <g>
      <path id="_1" class="fil1 str0" d="M120.2 0.49l-10.23 0c-0.88,0 -1.37,0.75 -1.6,1.6l-94.5 348.9c-0.23,0.85 0.94,0.77 1.82,0.77l13.91 0c0.88,0 1.38,-0.75 1.6,-1.6l90.59 -348.07c0.22,-0.85 -0.72,-1.6 -1.6,-1.6z"/>
      <path class="fil1 str0" d="M211.71 30.09c-33,0 -65.99,0 -98.99,0 -8.36,1.46 -10.42,14.27 -4.27,14.25l99.06 0 4.2 -14.25z"/>
      <path class="fil1 str0" d="M197.16 83.87c-33,0 -65.99,0 -98.99,0 -8.36,1.46 -10.42,14.27 -4.27,14.25l99.06 0 4.2 -14.25z"/>
      <path class="fil1 str0" d="M184.87 137.01c-33.6,0 -67.19,0 -100.79,0 -8.51,1.46 -10.61,14.27 -4.35,14.25l100.86 0 4.27 -14.25z"/>
      <path class="fil1 str0" d="M172.82 191.12c-34.47,0 -68.93,0 -103.4,0 -8.73,1.46 -10.88,14.27 -4.46,14.25l103.48 0 4.38 -14.25z"/>
      <path class="fil1 str0" d="M158.99 245.22c-34.69,0 -69.38,0 -104.07,0 -8.79,1.46 -10.95,14.27 -4.49,14.25l104.15 0 4.41 -14.25z"/>
      <path class="fil1 str0" d="M142.04 298.68c-33.95,0 -67.9,0 -101.84,0 -8.6,1.46 -10.72,14.27 -4.39,14.25l101.92 0 4.32 -14.25z"/>
      <path class="fil1 str0" d="M227.33 -0.5l-10.23 0.2c-0.88,0.02 -1.35,0.78 -1.57,1.63l-87.53 350.56c-0.21,0.85 0.83,0.88 1.71,0.86l13.91 -0.27c0.88,-0.02 1.36,-0.77 1.57,-1.63l83.77 -349.78c0.2,-0.85 -0.75,-1.58 -1.63,-1.57z"/>
     </g>
    </g>
   </g>
   <path class="fil2 str0" d="M159.45 1.13c87.44,0 158.33,22.03 158.33,49.2 0,27.17 -70.88,49.2 -158.33,49.2 -87.44,0 -158.33,-22.03 -158.33,-49.2 0,-27.17 70.88,-49.2 158.33,-49.2z"/>
   <g>
    <path class="fil1" d="M93.91 55.47l-80.04 295.52c-0.23,0.85 0.94,0.77 1.82,0.77l13.91 0c0.88,0 1.38,-0.75 1.6,-1.6l76.7 -294.7 -13.99 0z"/>
    <path class="fil3" d="M95.08 55.47l-79.94 295.17 0.56 -0 0 -0 13.91 0c0.07,0 0.14,-0.03 0.18,-0.08 0.14,-0.15 0.25,-0.39 0.33,-0.67l76.63 -294.42 2.32 0 -76.77 294.98c-0.17,0.64 -0.46,1.25 -0.91,1.7l-0 0c-0.46,0.46 -1.04,0.74 -1.77,0.74l-13.91 0 0 -0 -0.19 0c-0.49,0 -1.02,0.01 -1.48,-0.12 -0.98,-0.27 -1.57,-0.84 -1.24,-2.07l79.96 -295.23 2.33 0z"/>
    <path class="fil1 str0" d="M197.16 83.87c-33,0 -65.99,0 -98.99,0 -8.36,1.46 -10.42,14.27 -4.27,14.25l99.06 0 4.2 -14.25z"/>
    <path class="fil1 str0" d="M184.87 137.01c-33.6,0 -67.19,0 -100.79,0 -8.51,1.46 -10.61,14.27 -4.35,14.25l100.86 0 4.27 -14.25z"/>
    <path class="fil1 str0" d="M172.82 191.12c-34.47,0 -68.93,0 -103.4,0 -8.73,1.46 -10.88,14.27 -4.46,14.25l103.48 0 4.38 -14.25z"/>
    <path class="fil1 str0" d="M158.99 245.22c-34.69,0 -69.38,0 -104.07,0 -8.79,1.46 -10.95,14.27 -4.49,14.25l104.15 0 4.41 -14.25z"/>
    <path class="fil1 str0" d="M142.04 298.68c-33.95,0 -67.9,0 -101.84,0 -8.6,1.46 -10.72,14.27 -4.39,14.25l101.92 0 4.32 -14.25z"/>
    <path class="fil1" d="M202.01 55.47l-74.02 296.42c-0.21,0.85 0.83,0.88 1.71,0.86l13.91 -0.27c0.88,-0.02 1.36,-0.77 1.57,-1.63l70.74 -295.38 -13.92 0z"/>
    <path class="fil3" d="M203.17 55.47l-73.95 296.16c0.15,0 0.31,0 0.46,-0l13.92 -0.27c0.07,-0 0.13,-0.03 0.18,-0.09 0.14,-0.15 0.25,-0.4 0.31,-0.68l70.68 -295.12 2.31 0 -70.81 295.64c-0.15,0.64 -0.44,1.26 -0.88,1.72 -0.44,0.46 -1.03,0.76 -1.76,0.77l-13.91 0.27c-0.53,0.01 -1.13,0 -1.63,-0.16 -0.93,-0.3 -1.49,-0.91 -1.2,-2.1l73.95 -296.15 2.32 0z"/>
   </g>
  </g>
 </g>
</svg>
