<?xml version="1.0" encoding="UTF-8"?>
<!DOCTYPE svg PUBLIC "-//W3C//DTD SVG 1.1//EN" "http://www.w3.org/Graphics/SVG/1.1/DTD/svg11.dtd">
<!-- Creator: CorelDRAW -->
<svg xmlns="http://www.w3.org/2000/svg" xml:space="preserve" width="9.8138mm" height="54.784mm" version="1.1" style="shape-rendering:geometricPrecision; text-rendering:geometricPrecision; image-rendering:optimizeQuality; fill-rule:evenodd; clip-rule:evenodd"
viewBox="0 0 36.05 201.26"
 xmlns:xlink="http://www.w3.org/1999/xlink"
 xmlns:xodm="http://www.corel.com/coreldraw/odm/2003">
 <defs>
  <style type="text/css">
   <![CDATA[
    .fil0 {fill:#1E3A8A}
    .fil2 {fill:#FBF3F3}
    .fil1 {fill:#FBF3F3;fill-rule:nonzero}
   ]]>
  </style>
 </defs>
 <g id="Layer_x0020_1">
  <metadata id="CorelCorpID_0Corel-Layer"/>
  <g id="_2665408644944">
   <polygon class="fil0" points="0.93,0 2.52,192.02 16.23,199.71 17.45,0 "/>
   <path class="fil1" d="M18.49 0l-0.43 197.94 0.01 0.48c0.02,0.74 0.04,1.57 -0.25,2.12 -0.36,0.69 -0.93,0.96 -1.79,0.51l-12.38 -6.51c-1.05,-0.53 -2.04,-1.04 -2.05,-2.5 -0.53,-63.94 -1.59,-128.11 -1.6,-192.03l1.84 0c0.14,15.91 1.46,176.41 1.59,192.02 0,0.34 0.51,0.6 1.05,0.88 0.66,0.66 10.15,5.34 11.77,6.19l-0.02 -1.15 0.43 -197.94 1.83 0z"/>
   <polygon class="fil0" points="35.12,0 33.54,192.02 19.83,199.71 18.61,0 "/>
   <path class="fil1" d="M19.39 0l0.43 197.94 -0.02 1.15c1.62,-0.85 11.11,-5.53 11.77,-6.19 0.54,-0.28 1.05,-0.54 1.05,-0.88l1.59 -192.02 1.84 0c-0.01,63.92 -1.07,128.09 -1.6,192.03 -0.01,1.46 -1,1.96 -2.05,2.5l-0.28 0.14 -12.09 6.36c-0.87,0.46 -1.43,0.19 -1.79,-0.51 -0.29,-0.55 -0.27,-1.38 -0.25,-2.12l0.01 -0.48 -0.43 -197.94 1.83 0z"/>
   <polygon class="fil2" points="19.35,0 19.35,201.21 18.02,201.21 16.7,201.21 16.7,0 "/>
  </g>
 </g>
</svg>
