<?xml version="1.0" encoding="UTF-8"?>
<!DOCTYPE svg PUBLIC "-//W3C//DTD SVG 1.1//EN" "http://www.w3.org/Graphics/SVG/1.1/DTD/svg11.dtd">
<!-- Creator: CorelDRAW -->
<svg xmlns="http://www.w3.org/2000/svg" xml:space="preserve" width="58.8618mm" height="109.536mm" version="1.1" style="shape-rendering:geometricPrecision; text-rendering:geometricPrecision; image-rendering:optimizeQuality; fill-rule:evenodd; clip-rule:evenodd"
viewBox="0 0 969.91 1804.91"
 xmlns:xlink="http://www.w3.org/1999/xlink"
 xmlns:xodm="http://www.corel.com/coreldraw/odm/2003">
 <defs>
  <style type="text/css">
   <![CDATA[
    .str0 {stroke:#FBF3F3;stroke-width:8.24;stroke-miterlimit:22.9256}
    .fil3 {fill:none}
    .fil2 {fill:#1E3A8A}
    .fil0 {fill:#1E3A8A}
    .fil1 {fill:#FBF3F3}
    .fil4 {fill:#FBF3F3}
   ]]>
  </style>
 </defs>
 <g id="Layer_x0020_1">
  <metadata id="CorelCorpID_0Corel-Layer"/>
  <polygon class="fil0" points="94.56,1286.62 490.93,1080.35 883.59,1286.62 883.59,1315.75 484.54,1520.89 94.56,1315.75 "/>
  <path class="fil0 str0" d="M242.47 1283.04l62.68 -39.34c3.84,-2.41 8.26,-3.71 8.24,-8.24l-4.01 -835.48c-0.02,-4.53 -3.71,-8.24 -8.24,-8.24l-58.67 0c-4.53,0 -8.24,3.71 -8.24,8.24l0 874.82c0,4.53 4.4,10.65 8.24,8.24z"/>
  <path class="fil0" d="M167.76 1249.81l63.18 32.24 3.08 -800.89c4.49,-31.1 41.79,-47.55 61.63,-46.76 36.03,1.43 81.37,14.65 112.56,87.86l7.17 866.99 61.48 34.46 6.41 -1048.19 -305.19 -182.07 -10.33 1056.36z"/>
  <path class="fil1 str0" d="M12.36 1423.71l464.78 268.58c3.92,2.27 8.24,3.71 8.24,8.24l0 89.66c0,4.52 0.62,12.48 -3.29,10.19l-469.73 -274.71c-3.91,-2.29 -8.24,-3.71 -8.24,-8.24l0 -85.48c0,-4.53 4.32,-10.5 8.24,-8.24z"/>
  <path class="fil2 str0" d="M92.69 1375.59l384.44 218.29c3.94,2.23 8.24,3.72 8.24,8.24l0 89.66c0,4.52 0.81,12.75 -3.1,10.47l-464.97 -270.3c-3.91,-2.27 -12.04,-6.38 -8.03,-8.49l75.19 -39.63c4.01,-2.11 4.3,-10.47 8.24,-8.24z"/>
  <path class="fil1 str0" d="M94.56 1286.62l382.58 217.61c3.94,2.24 8.24,3.71 8.24,8.24l0 89.66c0,4.52 0.62,13.38 -3.29,11.12l-387.53 -224.66c-3.91,-2.27 -8.24,-3.71 -8.24,-8.24l0 -85.48c0,-4.53 4.3,-10.48 8.24,-8.24z"/>
  <path class="fil3 str0" d="M408.19 521.33c-12.14,-40 -62.49,-86.56 -107.84,-87.02 -30.93,-0.31 -66.05,16.44 -66.05,56.13l-0.07 784.35c0,4.51 0.57,11.78 -3.5,9.81l-54.74 -26.57c-4.07,-1.97 -8.28,-3.71 -8.24,-8.22l10.33 -1056.36c0.04,-4.52 3.79,-9.08 8.24,-8.22"/>
  <path class="fil3 str0" d="M483.29 372.2l-2.29 1043.57c-0.01,4.52 0.9,12.38 -3.1,10.28l-54.27 -28.56c-4,-2.11 -8.2,-3.71 -8.24,-8.24l-7.17 -866.99c-0,-0.65 -0,-1.15 -0.22,-1.56"/>
  <line class="fil3 str0" x1="165.7" y1="1247.13" x2="91.18" y2= "1286.49" />
  <path class="fil0 str0" d="M727.44 1283.04l-62.68 -39.34c-3.84,-2.41 -8.26,-3.71 -8.24,-8.24l4.01 -835.48c0.02,-4.53 3.71,-8.24 8.24,-8.24l58.67 0c4.53,0 8.24,3.71 8.24,8.24l0 874.82c0,4.53 -4.4,10.65 -8.24,8.24z"/>
  <path class="fil0" d="M802.15 1249.81l-63.18 32.24 -3.08 -800.89c-4.49,-31.1 -41.79,-47.55 -61.63,-46.76 -36.03,1.43 -81.37,14.65 -112.56,87.86l-7.17 866.99 -61.48 34.46 -6.41 -1048.19 305.19 -182.07 10.33 1056.36z"/>
  <path class="fil1 str0" d="M957.55 1423.71l-464.78 268.58c-3.92,2.27 -8.24,3.71 -8.24,8.24l0 89.66c0,4.52 -0.62,12.48 3.29,10.19l469.73 -274.71c3.91,-2.29 8.24,-3.71 8.24,-8.24l0 -85.48c0,-4.53 -4.32,-10.5 -8.24,-8.24z"/>
  <path class="fil2 str0" d="M877.22 1375.59l-384.44 218.29c-3.94,2.23 -8.24,3.72 -8.24,8.24l0 89.66c0,4.52 -0.81,12.75 3.1,10.47l464.97 -270.3c3.91,-2.27 12.04,-6.38 8.03,-8.49l-75.19 -39.63c-4.01,-2.11 -4.3,-10.47 -8.24,-8.24z"/>
  <path class="fil1 str0" d="M875.35 1286.62l-382.58 217.61c-3.94,2.24 -8.24,3.71 -8.24,8.24l0 89.66c0,4.52 -0.62,13.38 3.29,11.12l387.53 -224.66c3.91,-2.27 8.24,-3.71 8.24,-8.24l0 -85.48c0,-4.53 -4.3,-10.48 -8.24,-8.24z"/>
  <path class="fil3 str0" d="M561.72 521.33c12.14,-40 62.49,-86.56 107.84,-87.02 30.93,-0.31 66.05,16.44 66.05,56.13l0.07 784.35c0,4.51 -0.57,11.78 3.5,9.81l54.74 -26.57c4.07,-1.97 8.28,-3.71 8.24,-8.22l-10.33 -1056.36c-0.04,-4.52 -3.53,-6.93 -7.3,-9.44"/>
  <path class="fil3 str0" d="M486.62 374.49l2.29 1041.28c0.01,4.52 -0.9,12.38 3.1,10.28l54.27 -28.56c4,-2.11 8.2,-3.71 8.24,-8.24l7.17 -866.99c0,-0.65 0,-1.15 0.22,-1.56"/>
  <line class="fil3 str0" x1="804.21" y1="1247.13" x2="878.73" y2= "1286.49" />
  <polygon class="fil4" points="479.01,372.03 490.89,372.03 490.89,1430.45 484.93,1430.45 479.01,1430.45 "/>
  <polygon class="fil4" points="732.48,503.5 738.33,503.5 737.22,1289.01 728.33,1288 732.48,1281.28 "/>
  <polygon class="fil4" points="237.6,503.48 231.76,503.48 232.87,1288.99 241.76,1287.98 237.6,1281.26 "/>
  <path class="fil0 str0" d="M183.24 191.62l301.65 184.35c100.98,-60.39 201.96,-120.78 302.95,-181.17 6.09,-3.7 1.83,-7.6 -0.1,-8.81 -99.84,-62.11 -205.4,-119.04 -305.24,-181.15 -100.43,62.23 -200.15,119.07 -300.47,181.26 -1.03,0.64 -0.71,4.6 1.23,5.52z"/>
  <polygon class="fil4" points="485.11,89.26 653.4,191.3 483.78,291.57 319.02,190.41 "/>
 </g>
</svg>
