<?xml version="1.0" encoding="UTF-8"?>
<!DOCTYPE svg PUBLIC "-//W3C//DTD SVG 1.1//EN" "http://www.w3.org/Graphics/SVG/1.1/DTD/svg11.dtd">
<!-- Creator: CorelDRAW -->
<svg xmlns="http://www.w3.org/2000/svg" xml:space="preserve" width="33.9463mm" height="39.2961mm" version="1.1" style="shape-rendering:geometricPrecision; text-rendering:geometricPrecision; image-rendering:optimizeQuality; fill-rule:evenodd; clip-rule:evenodd"
viewBox="0 0 334.84 387.61"
 xmlns:xlink="http://www.w3.org/1999/xlink"
 xmlns:xodm="http://www.corel.com/coreldraw/odm/2003">
 <defs>
  <style type="text/css">
   <![CDATA[
    .fil2 {fill:#FEFEFE}
    .fil0 {fill:#0074BE}
    .fil1 {fill:#0088C9}
   ]]>
  </style>
 </defs>
 <g id="Camada_x0020_1">
  <metadata id="CorelCorpID_0Corel-Layer"/>
  <g id="_1498293968304">
   <path class="fil0" d="M170.54 387.61c1.55,0 5.04,-1.37 6.75,-1.86l60.46 -17.49c4.49,-1.39 8.98,-2.61 13.51,-3.93 8.97,-2.62 17.95,-5.24 27.03,-7.85l28.57 -8.25c1.47,-0.43 2.33,-0.15 2.36,-1.95 0.02,-1.03 0.09,-1.25 0.17,-1.98l1.33 -15.9c0.04,-1.14 0.29,-2.85 0.4,-3.91 0.17,-1.59 0.1,-2.64 0.31,-4.21 0.62,-4.81 0.88,-10.77 1.41,-15.81l0.68 -7.93c0.04,-1.23 0.16,-2.72 0.34,-3.97 0.58,-3.98 0.49,-8.14 1.01,-12.12 0.51,-3.92 0.73,-8.16 1.03,-12.1l1.46 -15.98c0.41,-3.94 0.43,-7.87 1.02,-11.9l5.89 -67.75c0.31,-3.96 0.52,-8.14 1.03,-12.1l1.36 -16.08c0.36,-6.53 1.4,-13.46 1.72,-20.03 0.19,-3.95 0.91,-8.01 1.07,-11.85 0.17,-3.9 0.77,-7.9 1.06,-11.86 0.3,-3.97 0.51,-8.13 1.03,-12.1 0.18,-1.38 0.18,-2.65 0.29,-4.02l3.01 -34.69 -35.12 -45.88c-100.35,-8.1 -201.51,-2.88 -299.72,4 0,2.65 0.56,4.59 0.65,8.08l1.05 11.87c0.16,1.51 0.15,2.76 0.26,4.26l2.66 32.22c0.39,2.63 0.29,5.29 0.68,7.93l0.96 12.18c0.05,1 0.25,3.03 0.37,3.94l0.69 8.14c0.41,5.45 1.04,10.81 1.3,16.14 0.26,5.31 1.17,10.98 1.3,16.15 0.06,2.56 0.58,5.38 0.65,7.97 0.09,3.64 1.22,15.65 1.69,20.06 0.16,1.51 0.15,2.76 0.26,4.26l4.94 60.3c0.19,3.87 0.77,8.29 1.06,12.08l0.66 8.17c0.14,5.55 1.12,10.84 1.29,16.37l1.95 24.1c0.3,3.94 0.87,8.17 1.06,12.08l0.65 7.97c0.13,2.67 0.58,5.51 0.65,8.18 0.02,0.98 0.15,2.94 0.31,4 0.8,5.42 0.65,10.75 1.36,16.08 0.18,1.33 0.21,2.71 0.28,4.03l1.04 12.1c0.2,1.42 0.78,1.12 2.71,1.6 1.31,0.33 2.26,0.64 3.53,1l129.59 36.42c1.19,0.34 2.31,0.67 3.35,0.96 0.79,0.22 2.98,0.91 3.62,0.91z"/>
   <polygon class="fil1" points="170.6,33.09 278,33.45 307.24,69.93 285.4,320.78 170.47,354.07 "/>
   <path class="fil2" d="M60.51 74.11c69.55,-8.92 125.74,-10.77 190.39,-1.49l24.71 42.58 -19.17 171.3 -86.27 27.3 -88.73 -23.92 -17.06 -175.91 -3.86 -39.86zm60.41 180.32l45.63 11.6 49.78 -9.63 14.16 -141.01c-40.32,-6.95 -82.16,-6.34 -125.3,0.72l15.73 138.32z"/>
  </g>
 </g>
</svg>
