<?xml version="1.0" encoding="UTF-8"?>
<!DOCTYPE svg PUBLIC "-//W3C//DTD SVG 1.1//EN" "http://www.w3.org/Graphics/SVG/1.1/DTD/svg11.dtd">
<!-- Creator: CorelDRAW 2021 (64 Bit) -->
<svg xmlns="http://www.w3.org/2000/svg" xml:space="preserve" width="892.866mm" height="1145.58mm" version="1.1" style="shape-rendering:geometricPrecision; text-rendering:geometricPrecision; image-rendering:optimizeQuality; fill-rule:evenodd; clip-rule:evenodd"
viewBox="0 0 95041.42 121941.63"
 xmlns:xlink="http://www.w3.org/1999/xlink"
 xmlns:xodm="http://www.corel.com/coreldraw/odm/2003">
 <defs>
  <style type="text/css">
   <![CDATA[
    .fil36 {fill:#0074BE}
    .fil37 {fill:#0088C9}
    .fil35 {fill:#B9AFBE}
    .fil38 {fill:#FEFEFE}
    .fil28 {fill:#050709;fill-rule:nonzero}
    .fil23 {fill:#101820;fill-rule:nonzero}
    .fil2 {fill:#101820;fill-rule:nonzero}
    .fil19 {fill:#22A7F0;fill-rule:nonzero}
    .fil21 {fill:#2976B4;fill-rule:nonzero}
    .fil27 {fill:#2A1A3B;fill-rule:nonzero}
    .fil12 {fill:#371A45;fill-rule:nonzero}
    .fil29 {fill:#6B6577;fill-rule:nonzero}
    .fil25 {fill:#7E7B8A;fill-rule:nonzero}
    .fil33 {fill:#7F3F2A;fill-rule:nonzero}
    .fil15 {fill:#844228;fill-rule:nonzero}
    .fil8 {fill:#897892;fill-rule:nonzero}
    .fil16 {fill:#8D5F59;fill-rule:nonzero}
    .fil22 {fill:#8E9DBB;fill-rule:nonzero}
    .fil32 {fill:#925F26;fill-rule:nonzero}
    .fil34 {fill:#926D55;fill-rule:nonzero}
    .fil14 {fill:#996423;fill-rule:nonzero}
    .fil24 {fill:#9B8DA2;fill-rule:nonzero}
    .fil13 {fill:#A6531B;fill-rule:nonzero}
    .fil26 {fill:#ACAFB4;fill-rule:nonzero}
    .fil31 {fill:#B97D18;fill-rule:nonzero}
    .fil18 {fill:#B9AFBE;fill-rule:nonzero}
    .fil20 {fill:#BCE4FA;fill-rule:nonzero}
    .fil11 {fill:#C38415;fill-rule:nonzero}
    .fil9 {fill:#C3913B;fill-rule:nonzero}
    .fil30 {fill:#C39A5E;fill-rule:nonzero}
    .fil10 {fill:#C3AD79;fill-rule:nonzero}
    .fil1 {fill:#D66B09;fill-rule:nonzero}
    .fil7 {fill:#E7A86E;fill-rule:nonzero}
    .fil4 {fill:#FF9100;fill-rule:nonzero}
    .fil0 {fill:#FFB200;fill-rule:nonzero}
    .fil3 {fill:#FFC536;fill-rule:nonzero}
    .fil6 {fill:#FFD269;fill-rule:nonzero}
    .fil5 {fill:#FFEC90;fill-rule:nonzero}
    .fil17 {fill:white;fill-rule:nonzero}
   ]]>
  </style>
 </defs>
 <g id="Camada_x0020_1">
  <metadata id="CorelCorpID_0Corel-Layer"/>
  <path class="fil0" d="M75670.43 78665.82c459.74,1251.51 835.51,2514.08 1129.36,3780.24 -5434.14,3775.83 -15994.74,8845.25 -28502.79,13437.85 -12506.93,4592.19 -23839.96,7561.4 -30426.09,8198.98 -595.6,-1155.47 -1126.19,-2361.21 -1585.51,-3612.42 -21.7,-58.97 -42.79,-116.82 -63.47,-176.11 -200.07,-552.39 -382.64,-1106.63 -548.92,-1662.4 -391.34,-1301.58 -693.59,-2610.64 -911.37,-3920.4 -9.01,-52.94 -18.02,-106.29 -25.9,-159.63 -312.81,-1947.06 -438.24,-3894.81 -386.43,-5822.72 98.4,-3667.7 837.76,-7258.72 2145.99,-10621.01 3176.96,-8163.75 9709.74,-14975.95 18580.5,-18232.77 8797.64,-3230.2 18106.63,-2306.84 25775.02,1776.47 3148.7,1674.79 6020.22,3883.65 8467.13,6555 1309.06,1428.13 2495.65,2990.3 3537.78,4673.69 86.01,135.15 167.92,271.13 249.83,408.54 681.92,1139.7 1298.3,2333.46 1841.99,3578.73 202.74,461.88 394.2,930.82 575.43,1406.63 50.17,129.52 99.31,259.86 147.44,391.34z"/>
  <path class="fil0" d="M77190.93 94721.98c-212.98,1277.93 -501.71,2538.15 -867.24,3774.4 -511.95,1737.45 -1172.37,3426.17 -1971.01,5048.02 -3463.24,7034.19 -9531.48,12799.45 -17472.95,15715.32 -7958.26,2922.2 -16335.59,2445.27 -23538.01,-694 -1582.02,-690.21 -3107.02,-1508.4 -4557.57,-2446.81 -1138.27,-734.96 -2229.44,-1544.86 -3268.9,-2423.58 7879.83,-1381.13 17051.71,-3867.47 26612.78,-7377.8 9559.83,-3509.93 18161,-7549.72 25062.9,-11595.56z"/>
  <path class="fil1" d="M52128.03 106317.54c9559.83,-3509.93 18161,-7549.72 25062.9,-11595.56 -212.98,1277.93 -501.71,2538.15 -867.24,3774.4 -5325.71,3304.53 -13736.12,7250.84 -23455.17,10819.34 -9309.4,3417.87 -17927.86,5794.85 -24084.36,6803.2 -1138.27,-734.96 -2229.44,-1544.86 -3268.9,-2423.58 7879.83,-1381.13 17051.71,-3867.47 26612.78,-7377.8z"/>
  <path class="fil1" d="M75523 78274.48c50.17,129.52 99.31,259.86 147.44,391.34 459.74,1251.51 835.51,2514.08 1129.36,3780.24 -5434.14,3775.83 -15994.74,8845.25 -28502.79,13437.85 -12506.93,4592.19 -23839.96,7561.4 -30426.09,8198.98 -595.6,-1155.47 -1126.19,-2361.21 -1585.51,-3612.42 -21.7,-58.97 -42.79,-116.82 -63.47,-176.11 6217.83,-231.4 17740.18,-3062.69 30490.79,-7744.26 13253.76,-4866.69 24203.75,-10398.82 28810.27,-14275.61z"/>
  <path class="fil1" d="M14216.73 89786.99l265.19 -2115.58c4282.67,536.63 15789.65,-2215.2 27982.24,-6692.1 14545.92,-5340.97 24085.9,-10784.01 25991.99,-13399.87l1723.64 1255.71c-2522.38,3461.5 -13364.95,9146.48 -26980.46,14145.68 -12677.31,4654.53 -24324.36,7390.09 -28982.59,6806.16z"/>
  <path class="fil1" d="M16574.97 79171.21l-158.81 -2126.53c4887.68,-365.02 13482.5,-2632.75 22430.25,-5918.14 9375.43,-3442.36 17557.92,-7396.85 21354.03,-10319.48l1300.76 1689.44c-3955.63,3045.79 -12354.88,7119.68 -21919.53,10631.56 -9120.59,3348.46 -17936.15,5664.32 -23006.71,6043.16z"/>
  <path class="fil1" d="M14652.71 95615.03l165.97 -2126.13c4932.43,384.07 16825.74,-2508.14 29595.8,-7196.78 13395.06,-4918.51 24756.66,-10717.16 27629.31,-14101.76l1625.95 1380.12c-3136.3,3693.92 -14597.33,9611.24 -28519.89,14723.06 -13235.12,4859.62 -25205.73,7733.4 -30497.14,7321.49z"/>
  <path class="fil1" d="M33341.02 119098.56l0.31 -531.3 -213.28 -490.03 101.78 -44.33 112.32 -0.31c4289.11,4.1 12615.76,-2032.74 21213.14,-5189.33 8644.79,-3174.19 16099.08,-6893.71 19454.39,-9707.39l684.99 816.67c-3443.17,2887.7 -11019.61,6677.45 -19771.7,9891.47 -8839.62,3245.56 -17109.25,5259.06 -21581.95,5254.55z"/>
  <path class="fil2" d="M27267.45 114138.79c8352.56,6346.95 19450.09,8052.15 29353.55,4416.08 9903.46,-3636.47 17260.68,-12117.84 19520.43,-22361.13 -6898.21,3912.82 -15072.41,7640.94 -23754.77,10828.65 -8682.55,3188.11 -17327.34,5635.75 -25119.21,7116.4zm18737.36 7802.84c-7562.82,0 -15032.18,-2642.18 -20974.78,-7672.9l-1223.76 -1036.09 1579.47 -277.07c8118.19,-1423.22 17275.84,-3962.49 26483.15,-7342.9 9207.31,-3380.7 17832.12,-7370.53 24942.18,-11538.83l1383.29 -810.72 -263.14 1581.72c-1905.48,11485.08 -9872.74,21110.65 -20792.32,25120.03 -3617.03,1327.89 -7387.85,1976.74 -11134.08,1976.74z"/>
  <path class="fil3" d="M94061.72 76687.23c1597.29,4349.52 -5214.72,11201.56 -16870.78,18034.75 -6901.9,4045.84 -15503.07,8085.63 -25062.9,11595.56 -9561.07,3510.33 -18732.95,5996.67 -26612.78,7377.8 -13308.65,2333.47 -22934.73,1517.11 -24531.8,-2832.93 -1450.46,-3950.4 4032.32,-9961.61 13778.2,-16150.87 217.79,1309.77 520.04,2618.82 911.37,3920.4 -2708.21,1903.43 -4087.92,3469.69 -3721.36,4468.61 373.62,1016.83 2511.01,1311.72 5919.26,982.33 6586.12,-637.59 17919.15,-3606.79 30426.09,-8198.98 12508.05,-4592.59 23068.65,-9662.02 28502.79,-13437.85 2810.6,-1954.11 4249.18,-3561.75 3875.46,-4578.98 -365.53,-997.38 -2431.76,-1300.05 -5727.69,-999.22 -543.69,-1245.27 -1160.07,-2439.03 -1841.99,-3578.73 11435.93,-1587.66 19506.31,-552.4 20956.15,3398.12z"/>
  <path class="fil4" d="M14799.53 96509.1l242.26 357.55c-2427.05,1599.33 -4318.5,3051.43 -5755.14,4346.14 1103.97,-1389.74 2937.98,-2951.19 5512.88,-4703.69z"/>
  <path class="fil4" d="M15284.76 97221.43l-242.97 -354.78c40.95,-30.1 88.25,-58.98 135.15,-87.85l107.82 442.63z"/>
  <path class="fil5" d="M84798.5 76868.97c-401.37,-1087.48 -1486.7,-1810.05 -3288.77,-2169.03 -1743.7,-345.05 -4159.08,-349.56 -7269.68,-16.48l46.07 428.09 137.21 1290.21c5935.54,-635.33 8412.35,131.78 8756.38,1063.53 570.31,1557.24 -3570.34,5732.2 -14020.25,11210.57 -5841.13,3061.56 -12849.01,6119.84 -20262.04,8843.83 -4361.61,1601.17 -8693.22,3023.98 -12829.46,4212.52 -2894.05,838.47 -5692.78,1561.35 -8340.58,2156.14 -11511.39,2586.57 -17370.14,2084.44 -17943.22,523.52 -335.74,-910.97 1003.73,-3041.71 5734.45,-6306.81 81.49,-57.45 166.37,-114.47 250.85,-171.61l-484.71 -712.01 -242.97 -354.78 -242.26 -357.13c-2574.9,1752.09 -4408.91,3313.54 -5512.88,4703.28 -1157.41,1445.03 -1522.02,2701.87 -1121.68,3795.39 392.05,1063.83 1454.65,1725.06 2968.79,2086.39 3949.28,942.09 10956.44,-169.76 16970.31,-1522.02 2722.86,-610.96 5601.14,-1357.9 8578.64,-2220.02 4134.8,-1194.89 8456.58,-2616.98 12808.05,-4214.36 7483.57,-2747.33 14561.38,-5838.17 20471.53,-8932.81 7547.06,-3958.7 16250.2,-9486.23 14836.2,-13336.4z"/>
  <path class="fil5" d="M90060.32 76455.83c-1481.58,-4033.35 -9780.29,-3856.52 -16476.59,-2995.12l219.12 1711.65c161.78,-19.96 324.57,-40.24 483.27,-60.81 2896.61,-353.36 5284.35,-469.47 7223.61,-411.61 4407.88,134.13 6494.59,1166.43 6931.79,2351.9 783.29,2140.05 -2767.6,7132.07 -15371.8,14154.28 -6514.04,3630.43 -14372.47,7171.59 -22729.94,10238.78 -3822.73,1402.13 -7630.1,2662.75 -11332.32,3753.61 -4401.43,1301.18 -8655.63,2362.34 -12625.18,3148.7 -14152.03,2802.93 -20089.62,1296.67 -20876.69,-843.79 -436.28,-1188.44 491.99,-3330.84 3781.05,-6290.63 1436.64,-1294.72 3328.09,-2746.81 5755.14,-4346.14 40.95,-30.41 88.25,-58.98 135.15,-88.26 88.25,-58.97 179.49,-117.55 271.44,-179.18l-467.82 -720.21 -472.02 -727.69c-5663.59,3678.88 -12105.87,8911.3 -10621.32,12945.46 573.08,1561.04 2143.84,2501.28 4277.75,3010.48 5022.84,1195.3 13145.94,3.37 18551.93,-1067.21 4744.24,-938.41 9887.28,-2266.61 15189.95,-3915.09 2973,-921.91 5994.32,-1943.66 9025.47,-3058.59 8442.36,-3099.44 16387.2,-6678.89 22977.01,-10352.95 6859.1,-3823.14 18075.92,-11015.31 16150.99,-16257.57z"/>
  <path class="fil2" d="M14226.15 95949.22c-9073.19,5919.99 -13745.95,11363.85 -12537.65,14654.45 1384.31,3770.61 10464.77,4671.85 23697.23,2351.9 8118.19,-1423.22 17275.84,-3962.49 26483.15,-7342.9 9207.31,-3380.7 17832.12,-7370.53 24942.18,-11538.83 11590.54,-6794.07 17929.5,-13357.38 16546.21,-17127.99 -1209.22,-3290.61 -8294.6,-4417.1 -19042.47,-3059.3 394.2,714.98 762.8,1446.87 1101.71,2188.89 3582.63,-268.47 5482.99,222.69 5964.22,1532.88 511.95,1395.37 -807.86,3128.43 -4152.93,5454.42 -5729.95,3981.53 -16448.63,9038.26 -28671.74,13526.42 -12223.41,4487.76 -23667.13,7568.76 -30612.64,8241.37 -4056.79,391.34 -6184.45,-75.87 -6696.6,-1471.24 -481.04,-1310.59 650.38,-2914.73 3556.1,-5028.57 -221.89,-785.13 -414.58,-1581.62 -576.76,-2381.49zm-1504.32 19781.02c-6954.83,0 -11325.96,-1565.14 -12443.45,-4608.68 -1555.6,-4236.59 3444.91,-10289.88 14080.66,-17043.93l957.55 -608.29 185.94 1119.02c213.69,1287.24 513.28,2574.9 889.98,3827.23l155.84 519.02 -443.56 311.67c-3746.44,2633.47 -3451.26,3585.7 -3447.98,3595.12 3.48,9.84 405.97,951.61 5141.92,493.83 6723.24,-651.1 18310.5,-3776.55 30239.54,-8156.18 11928.93,-4380.45 22785.84,-9495.34 28332.51,-13349.59 3905.16,-2715.69 3603.11,-3693.92 3600.03,-3703.24 -4.1,-9.42 -395.22,-926.43 -4954.65,-510.41l-539.59 49.24 -217.07 -496.48c-523.21,-1197.86 -1128.33,-2373.2 -1797.97,-3493.75l-582.6 -973.73 1123.22 -155.84c12480.31,-1732.95 20208.7,-353.76 21765.02,3882.83 1700.7,4633.86 -4566.59,11537.7 -17197.41,18941.72 -7185.01,4212.53 -15893.57,8241.88 -25183.11,11652.59 -9289.83,3411.22 -18536.87,5974.45 -26741.48,7412.72 -4948.91,867.75 -9289.12,1295.13 -12923.35,1295.13z"/>
  <path class="fil6" d="M73314.45 79933.5c-50.17,-117.86 -100.35,-235.1 -151.54,-352.23 -543.69,-1245.17 -1161.11,-2439.75 -1841.99,-3579.45 -45.37,-75.46 -91.23,-150.51 -137.41,-225.66 654.48,-483.28 1221.72,-946.7 1692.7,-1385.64 407.52,723.69 786.36,1466.73 1133.46,2221.14 84.99,185.12 168.94,370.65 249.83,556.9l50.18 116.11c210.92,486.24 412.62,985.29 600,1487.41 -479.18,374.34 -1011.61,761.88 -1595.23,1161.41zm-3296.95 -5930.53c-709.26,-1004.45 -1473.09,-1959.74 -2285.35,-2862.11 726.56,-548.3 1332.3,-1068.34 1804.73,-1554.69 785.23,926.83 1520.79,1906.91 2201.99,2939.51 -440.48,456.26 -1018.78,951.21 -1721.37,1477.29zm-3774.31 -4409.33c-313.51,-303.69 -632.66,-601.13 -957.55,-891.41 433.73,-483.28 980.18,-1170.11 1456.61,-2007.45 464.94,421.64 918.23,858.74 1358.71,1311.2 -430.44,464.54 -1052.98,997.79 -1857.77,1587.65zm-42502.25 -1453.52c659.39,-684.58 1352.57,-1341.41 2076.57,-1965.48 42.8,87.14 86.73,172.73 131.47,257.2 -764.54,539.28 -1500.93,1109.3 -2208.04,1708.28z"/>
  <path class="fil7" d="M74321.96 82653.69c-136.18,-426.14 -281.57,-851.28 -436.18,-1274.85 -49.15,-131.07 -99.31,-260.59 -148.47,-390.11 -134.13,-356.01 -275.43,-707.93 -422.86,-1055.22 583.62,-399.53 1116.05,-787.08 1595.23,-1161.41 18.44,50.68 37.88,101.77 56.32,152.77 361.44,984.58 674.75,1991.38 932.77,3000.74 -458.7,215.53 -987.04,460.04 -1576.81,728.1z"/>
  <path class="fil7" d="M67732.15 71140.87c-66.45,-74.02 -133.62,-147.64 -200.57,-220.85 -417.55,-455.84 -847.08,-897.86 -1288.38,-1326.36 804.79,-589.87 1427.33,-1123.12 1857.77,-1587.65 494.85,507.75 974.04,1034.54 1435.92,1580.18 -472.43,486.35 -1078.16,1006.39 -1804.73,1554.69z"/>
  <path class="fil7" d="M71183.51 75776.17c-37.17,-60.42 -75.05,-121.23 -112.63,-181.74 -336.14,-543.38 -687.55,-1073.97 -1053.38,-1591.44 702.59,-526.08 1280.89,-1021.03 1721.37,-1477.29 247.58,375.98 489.22,759.33 722.67,1149.13 141.31,236.21 279.53,474.98 414.68,715.71 -470.99,438.94 -1038.23,902.36 -1692.7,1385.64z"/>
  <path class="fil8" d="M74309.68 77284.68l-50.18 -116.11c-80.89,-186.25 -164.84,-371.78 -249.83,-556.9 86.01,185.12 168.94,371.47 250.86,558.02 16.38,38.41 32.76,76.59 49.15,114.99z"/>
  <path class="fil2" d="M45968.76 58686.16c-3550.07,0 -7144.88,613.21 -10634.22,1894.11 -13912.84,5108.44 -22253.43,19411.08 -19832.01,34008.1 213.69,1287.24 513.28,2574.9 889.98,3827.23 178.67,598.16 379.66,1202.06 597.75,1796.13 384.58,1047.35 826.9,2078.1 1317.75,3070.57 6789.27,-754.01 18097.52,-3832.15 29730.25,-8103.25 11632.72,-4271.5 22246.25,-9242.13 27909.64,-13060.45 -267.24,-1074.28 -596.93,-2145.99 -981.92,-3193.74 -218.1,-593.25 -455.64,-1183.63 -705.47,-1755.18 -524.24,-1198.98 -1129.36,-2374.32 -1799,-3494.87 -5694.1,-9511.83 -15887.43,-14988.66 -26492.77,-14988.66zm-28531.98 46193.21l-233.14 -452.16c-611.78,-1186.59 -1158.14,-2430.73 -1623.4,-3698.02 -228.74,-622.63 -439.35,-1255.7 -626.73,-1882.12 -394.71,-1312.44 -708.64,-2662.75 -932.77,-4012.36 -2539.27,-15308.63 6206.88,-30307.52 20796.32,-35664.14 14588.82,-5356.73 30963.11,418.67 38933.56,13732.95 702.39,1175.33 1337.21,2408.1 1885,3663.91 263.14,598.57 511.95,1217.72 740.27,1839.64 464.86,1267.38 853.94,2569.27 1154.96,3869.63l115.7 496.08 -418.77 290.28c-5729.95,3981.23 -16448.63,9037.95 -28671.74,13526.11 -12223.41,4487.76 -23667.13,7568.76 -30612.64,8241.37l-506.63 48.84z"/>
  <path class="fil9" d="M12655.69 114225.52c-4281.94,0 -7502.11,-602.36 -9354.54,-1776.57 -200.48,-280.13 -359.8,-578.6 -476.32,-895.91 -497.3,-1354.52 -179.18,-2951.19 846.16,-4713.93 -2.97,429.62 66.04,849.84 216.24,1257.65 573.08,1561.04 2143.84,2501.28 4277.75,3010.48 1489.67,354.47 3251.9,499.05 5135.16,499.05 4467.07,0 9613.91,-813.28 13416.77,-1566.26 4030.78,-797.21 8349.18,-1875.68 12808.77,-3193.03 812.26,146.93 1790.08,228.73 2961.02,228.73 1890.72,0 4286.85,-213.99 7299.99,-712.74 -8500.51,3006.78 -16895.16,5276.77 -24400.95,6592.58 -4863.01,852.39 -9164.82,1269.95 -12730.04,1269.95zm732.29 -4346.97c-5007.48,0 -7402.27,-1069.46 -7882.38,-2375.14 -436.28,-1188.44 491.99,-3330.84 3781.05,-6290.63 -1157.41,1445.03 -1522.02,2701.87 -1121.68,3795.39 392.05,1063.83 1454.65,1725.06 2968.79,2086.39 1022.57,243.99 2250.43,349.97 3612.83,350.28 3899.01,0 8900.86,-870.41 13357.48,-1872.3 2487.36,-558.34 5105.47,-1229.81 7809.58,-1999.27 -40.95,813.38 207.65,1607.62 985.3,2233.22 -3651.84,1026.97 -7184.7,1881.01 -10516.67,2540.7 -5520.46,1093.52 -9791.86,1531.05 -12994.31,1531.34zm1242.61 -4173.1c-2960.61,0 -4560.65,-515.12 -4846.42,-1293.59 -226.08,-613.63 307.99,-1780.77 2125.82,-3474.61 -711.3,916.19 -923.76,1712.27 -663.18,2422.04 396.55,1080.31 1761.2,1604.14 4239.56,1604.14 586.59,0 1235.44,-29.28 1948.58,-87.43l1.84 3.37 506.63 -48.84c4711.58,-456.26 11492.55,-2020.67 19183.16,-4380.76 -220.85,335.74 -457.37,734.55 -662.87,1168.16 -132.19,38.41 -263.96,76.29 -395.74,114.27 -2894.05,838.47 -5692.78,1561.35 -8340.58,2156.14 -5770.5,1296.66 -10120.83,1817.11 -13096.8,1817.11z"/>
  <path class="fil10" d="M14746.59 107444.85c-1362.39,-0.31 -2590.26,-106.29 -3612.83,-350.28 -1514.14,-361.33 -2576.74,-1022.57 -2968.79,-2086.39 -400.34,-1093.52 -35.73,-2350.37 1121.68,-3795.39l0 0c1330.04,-1198.57 3049.89,-2532.41 5223.73,-3992.8 90.93,372.49 188.5,742.73 292.53,1110.72 -1331.9,968.81 -2290.98,1830.63 -2892.93,2606.54 -1817.83,1693.84 -2351.9,2860.98 -2125.82,3474.61 285.77,778.47 1885.82,1293.59 4846.42,1293.59 2975.97,0 7326.3,-520.44 13096.8,-1817.11 2647.8,-594.78 5446.53,-1317.67 8340.58,-2156.14 131.78,-37.98 263.55,-75.86 395.74,-114.27 -289.05,610.66 -516.66,1289.19 -550.05,1955.35 -2704.12,769.46 -5322.22,1440.93 -7809.58,1999.27 -4456.62,1001.88 -9458.48,1872.3 -13357.48,1872.3z"/>
  <path class="fil10" d="M13300.13 111606.29c-1883.25,0 -3645.49,-144.57 -5135.16,-499.05 -2133.91,-509.19 -3704.67,-1449.43 -4277.75,-3010.48 -150.2,-407.81 -219.21,-828.03 -216.24,-1257.65 1733.87,-2981.18 5490.56,-6437.77 10747.76,-10002.88 29.7,127.99 60.51,256.08 91.64,383.76 -2173.84,1460.39 -3893.68,2794.22 -5223.73,3992.8l0 0c-3289.06,2959.79 -4217.33,5102.19 -3781.05,6290.63 480.11,1305.68 2874.91,2375.14 7882.38,2375.14 3202.45,-0.3 7473.86,-437.82 12994.31,-1531.34 3331.97,-659.69 6864.83,-1513.73 10516.67,-2540.7 565.5,454.71 1410.11,820.56 2626.71,1040.49 -4459.59,1317.35 -8777.99,2395.82 -12808.77,3193.03 -3802.87,752.97 -8949.7,1566.26 -13416.77,1566.26z"/>
  <path class="fil2" d="M12714.36 114971.74c-2892.31,0 -5351.1,-271.54 -7273.67,-823.22 -935.54,-459.63 -1656.78,-1025.54 -2139.54,-1699.57 1852.44,1174.21 5072.6,1776.57 9354.54,1776.57 3565.22,0 7867.03,-417.55 12730.04,-1269.95 7505.79,-1315.81 15900.44,-3585.8 24400.95,-6592.58 847.48,-140.06 1743.49,-303.07 2691.32,-489.63 -193.01,71.27 -386.43,142.64 -580.24,214 -8800.11,3231.33 -17268.06,5591.82 -24704.74,7024.76 101.06,72.9 202.43,145.7 304.2,217.79 -669.53,129.21 -1329.74,251.26 -1981.96,365.43 -4819.7,845.23 -9154.68,1276.4 -12800.89,1276.4zm-7269.17 -820.96c-125.53,-35.64 -247.47,-73.62 -368.4,-111.81 119.18,37.88 240.31,74.33 363.89,109.55 1.53,0.82 2.97,1.53 4.5,2.26zm10041.18 -9187.35c-2478.36,0 -3843.01,-523.83 -4239.56,-1604.14 -260.59,-709.77 -48.12,-1505.85 663.18,-2422.04 601.95,-775.91 1561.03,-1637.73 2892.93,-2606.54 48.84,172.73 99.11,344.74 150.61,516.36 24.78,83.04 49.97,166.38 75.87,249.72 -2280.53,1693.53 -3413.88,3087.47 -3077.74,4003.76 277.07,753.99 1523.46,1110.72 3539.21,1110.72 481.03,0 1005.98,-20.28 1571.89,-60.41 46.59,92.35 93.48,184.7 140.89,276.34l231.3 448.78c-713.14,58.15 -1361.99,87.43 -1948.58,87.43z"/>
  <path class="fil2" d="M17436.79 104879.37l-1.84 -3.37 -231.3 -448.78c-47.41,-91.64 -94.3,-183.99 -140.89,-276.34 260.99,-18.44 530.28,-41.36 808.16,-67.99 3625.22,-351.1 8688.6,-1408.89 14594.35,-3054.4 1740.13,-484.82 3553.86,-1021.03 5425.03,-1604.56l0 0c0,0 -354.78,403.62 -763.72,1025.85 -7690.61,2360.08 -14471.58,3924.5 -19183.16,4380.76l-506.63 48.84zm-2407.39 -5782.58c-25.91,-83.34 -51.09,-166.68 -75.87,-249.72 -51.5,-171.61 -101.77,-343.63 -150.61,-516.36 -104.03,-367.99 -201.61,-738.23 -292.53,-1110.72 -31.12,-127.68 -61.94,-255.77 -91.64,-383.76 221.16,-150.2 444.68,-300.11 671.06,-450.32 166.79,750.32 358.98,1499.51 583.21,2246.03 -223.82,157.27 -438.22,311.98 -643.62,464.85zm60.41 -2710.87c0,-0.71 0,-1.12 -0.31,-1.43l0.31 1.43 0 0z"/>
  <path class="fil11" d="M36570.4 94835.13c-390.52,0 -780.72,-13.63 -1169.3,-39.83 -4.91,-1.13 -10.23,-1.95 -15.46,-3.08 399.21,27.86 799.87,42.49 1201.34,42.49 61.54,0 123.48,0 185.43,-0.82 -67.17,0.82 -134.75,1.23 -202.01,1.23z"/>
  <path class="fil12" d="M76768.06 82467.45c10.24,-7.07 21.5,-14.65 31.74,-21.7 -11.26,7.47 -21.5,14.64 -31.74,21.7z"/>
  <path class="fil11" d="M17939.62 100177.52c-152.15,-437.51 -294.47,-875.74 -424.72,-1315.09 -322.93,-1073.15 -585.06,-2152.44 -790.13,-3233.59 3152.89,-150.92 7629.37,-986.73 12873.78,-2373.9 1739.4,886.59 3745.74,1399.46 5802.54,1540.35 984.9,179.08 1997.63,270 3012.72,270 75.87,0 151.64,-0.82 227.52,-1.53 295.91,-4.1 601.95,-16.18 917.01,-35.33 -8768.26,2852.49 -16487.75,4663.15 -21618.71,5149.09zm-1539.22 -6666.1c-145.7,-1221.92 -218.61,-2441.99 -221.17,-3654.91 2209.89,-67.58 5205.71,-529.57 8722.81,-1324.11 552.8,1218.54 1352.26,2259.84 2328.54,3124.32 -4446.49,1104.79 -8209.52,1760.39 -10830.18,1854.69zm-152.46 -5783.39c198.95,-2994.3 823.52,-5926.74 1834.01,-8711.95 1698.44,-216.24 3696.16,-595.09 5905.75,-1112.57 -88.67,828.74 -144.57,1663.53 -167.1,2502.41 -53.04,1927.08 73.11,3874.94 386,5820.87 8.6,54.78 17.2,108.12 26.31,161.05 5.23,32.67 11.99,69.11 19.46,108.95 -3248.22,730.76 -6003.02,1162.13 -8004.43,1231.24zm2765.96 -10998.02c1690.55,-3724.02 4099.18,-7119.06 7120.5,-9964.27 219.72,378.84 452.87,726.24 682.33,1036.8 -305.22,650.38 -588.74,1311.2 -849.33,1981.14 -735.26,1888.17 -1290.72,3848.33 -1653.8,5853.53 -1944.38,474.67 -3731.09,844.2 -5299.7,1092.8z"/>
  <path class="fil13" d="M19160.01 103178.67c-375.46,-804.38 -721.74,-1630.15 -1034.14,-2478.04 -21.81,-59.39 -41.67,-116.42 -63.48,-175.71 -41.67,-115.7 -82.62,-231.4 -122.76,-347.41 5130.96,-485.94 12850.45,-2296.6 21618.71,-5149.09 7859.95,-485.11 21548.98,-5677.41 30750.55,-9576.32 -4422.73,2362.34 -10012.3,4919.95 -16121.19,7367.17l-0.42 0c-21.8,9.11 -42.79,17.3 -64.6,26.31l-0.71 0c-21.71,9.01 -43.11,17.3 -64.92,25.9 -0.4,0.42 0,0 -0.4,0.42 -10.96,4.5 -20.99,8.19 -31.95,12.79l-1.12 0.31c-10.14,4.19 -19.86,7.89 -30.01,12.08 -1.53,0.31 -3.79,1.44 -4.91,1.84 -9.73,3.79 -18.75,7.47 -28.17,11.26 -1.43,0.72 -2.97,1.13 -4.5,1.95 -8.6,3.28 -16.89,6.65 -25.9,10.04 -4.1,1.94 -7.48,3.07 -11.68,4.91 -7.07,2.67 -14.94,6.05 -21.7,8.6 -3.38,1.13 -6.45,2.67 -9.84,3.79 -7.47,2.97 -15.36,6.35 -22.93,9.42 -2.97,1.13 -7.07,2.57 -10.04,3.69 -7.89,3.37 -16.18,6.45 -24.07,9.82 -2.25,0.71 -4.5,1.84 -6.75,2.55 -7.89,3.49 -16.49,6.76 -24.78,9.84 -4.2,1.84 -8.71,3.68 -13.21,5.22 -5.94,2.67 -13.41,5.64 -19.46,7.89 -4.19,1.84 -8.7,3.38 -12.79,4.92 -6.76,2.97 -13.92,5.63 -20.68,8.29 -4.81,2.26 -9.31,4.1 -14.65,5.94 -5.22,2.26 -11.57,4.92 -17.2,6.76 -6.45,2.66 -12.79,5.22 -19.14,7.88 -4.2,1.54 -9.42,3.38 -13.52,5.23 -8.29,3.48 -16.18,6.45 -24.88,9.82 -2.57,1.13 -5.23,2.26 -7.89,3.38 -7.07,2.66 -15.76,5.94 -22.83,9.01 -4.2,1.54 -6.76,2.66 -10.95,4.1 -7.89,3.37 -16.49,6.76 -24.38,9.82 -2.66,1.13 -6.04,2.26 -8.6,3.38 -1705.3,677.41 -3446.85,1344.28 -5214.82,1996.61 -0.4,0 -0.4,0 -1.13,0.31 -11.67,4.19 -22.52,8.29 -34.19,12.79l-0.31 0c-23.34,8.6 -46.59,16.89 -69.93,25.49l0 0c-69.83,25.91 -139.66,51.5 -209.48,77.41 -11.68,4.1 -23.35,8.29 -34.92,12.79 -22.22,7.89 -42.79,15.36 -65.02,23.65 -0.31,0.42 -1.84,0.72 -2.55,1.13 -9.84,3.38 -19.55,7.07 -29.28,10.44 -2.35,1.23 -2.66,1.23 -4.92,1.95 -10.13,3.68 -18.84,6.76 -28.57,10.44 -1.43,0.42 -4.5,1.54 -5.93,2.26 -22.53,8.29 -43.62,15.87 -66.56,24.06l-1.13 0.72c-11075,4052.28 -21829.02,7015.45 -28639.38,7912.18z"/>
  <path class="fil13" d="M16179.23 89856.52c-0.4,-299.7 2.97,-598.57 10.86,-897.14 11.26,-411.51 30.82,-821.98 57.85,-1231.34 2001.42,-69.11 4756.21,-500.48 8004.43,-1231.24 9.01,45.36 19.15,95.32 30.82,149.8 143.86,669.93 352.63,1298.1 618.85,1885.82 -3517.1,794.54 -6512.92,1256.52 -8722.81,1324.11z"/>
  <path class="fil13" d="M18081.95 79016.08c82.62,-227.1 167.41,-453.58 254.95,-678.84 211.03,-541.95 436.69,-1077.76 677,-1607.22 1568.61,-248.6 3355.32,-618.13 5299.7,-1092.8 -135.97,749.59 -244.81,1505.43 -325.9,2266.3 -2209.58,517.47 -4207.3,896.32 -5905.75,1112.57z"/>
  <path class="fil13" d="M16724.77 95628.85c-43.11,-229.04 -84.07,-458.09 -122.36,-687.54 -8.71,-52.94 -17.71,-105.87 -24.47,-158.81 -67.89,-424 -127.28,-847.49 -177.54,-1271.07 2620.66,-94.3 6383.7,-749.91 10830.18,-1854.69 705.57,624.89 1504.01,1157.73 2367.97,1598.21 -5244.41,1387.17 -9720.9,2222.98 -12873.78,2373.9z"/>
  <path class="fil12" d="M47799.39 95266.5l1.13 -0.72 -1.13 0.72zm67.69 -24.78c1.43,-0.71 4.5,-1.84 5.93,-2.26 -1.43,0.42 -4.5,1.54 -5.93,2.26zm34.5 -12.7c2.26,-0.71 2.57,-0.71 4.92,-1.95 -1.53,0.82 -3.79,1.54 -4.92,1.95zm34.2 -12.39c0.71,-0.4 2.25,-0.71 2.55,-1.13 -0.31,0.42 -1.84,0.72 -2.55,1.13zm67.57 -24.78c11.57,-4.5 23.25,-8.7 34.92,-12.79 69.83,-25.91 139.66,-51.5 209.48,-77.41 -69.42,25.91 -140.07,51.91 -209.48,77.41 -11.68,4.1 -23.65,8.6 -34.92,12.79zm244.41 -90.2c23.34,-8.6 46.59,-16.89 69.93,-25.49 -23.76,8.6 -46.59,16.89 -69.93,25.49zm70.24 -25.49c11.67,-4.5 22.52,-8.6 34.19,-12.79 -11.67,4.19 -22.93,8.29 -34.19,12.79zm35.32 -13.1c1767.97,-652.33 3509.52,-1319.2 5214.82,-1996.61 -1704.48,677 -3447.26,1344.68 -5214.82,1996.61zm5223.42 -1999.99c7.89,-3.07 16.49,-6.45 24.38,-9.82 -8.3,3.37 -16.18,6.45 -24.38,9.82zm35.33 -13.92c7.07,-3.07 15.76,-6.34 22.83,-9.01 -7.47,2.97 -15.36,5.94 -22.83,9.01zm30.72 -12.39c8.7,-3.37 16.58,-6.34 24.88,-9.82 -7.89,3.08 -16.58,6.45 -24.88,9.82zm38.39 -15.05c6.34,-2.66 12.69,-5.22 19.14,-7.88 -6.75,3.07 -12.38,4.91 -19.14,7.88zm36.34 -14.64c5.33,-1.84 9.84,-3.68 14.65,-5.94 -4.81,1.84 -9.73,4.1 -14.65,5.94zm35.33 -14.23c4.1,-1.53 8.6,-3.08 12.79,-4.92 -4.91,1.84 -7.88,2.97 -12.79,4.92zm32.25 -12.81c4.5,-1.53 9.01,-3.37 13.21,-5.22 -4.92,2.26 -8.29,3.37 -13.21,5.22zm37.99 -15.05c2.25,-0.71 4.5,-1.84 6.75,-2.55 -2.25,0.71 -4.5,1.84 -6.75,2.55zm30.82 -12.38c2.97,-1.13 7.07,-2.57 10.04,-3.69 -3.28,1.13 -6.35,2.57 -10.04,3.69zm32.97 -13.11c3.38,-1.12 6.45,-2.66 9.84,-3.79 -3.38,1.13 -6.45,2.67 -9.84,3.79zm31.54 -12.39c4.19,-1.84 7.58,-2.97 11.68,-4.91 -4.1,1.94 -7.89,3.37 -11.68,4.91zm37.58 -14.94c1.53,-0.82 3.08,-1.22 4.5,-1.95 -1.43,0.72 -2.97,1.13 -4.5,1.95zm32.67 -13.21c1.12,-0.4 3.37,-1.53 4.91,-1.84 -1.53,0.31 -3.79,1.44 -4.91,1.84zm34.91 -13.92l1.12 -0.31 -1.12 0.31zm33.07 -13.1c0.4,-0.42 0,0 0.4,-0.42l-0.4 0.42zm65.33 -26.31l0.71 0 -0.71 0zm65.31 -26.31l0.42 0 -0.42 0z"/>
  <path class="fil2" d="M18714.61 103990.83c256.91,-30.72 519.02,-64.51 787.48,-100.95 -116.72,-235.08 -230.58,-472.43 -342.08,-711.2 6810.36,-896.73 17564.38,-3859.9 28639.38,-7912.18l1.13 -0.72c22.94,-8.19 44.03,-15.76 66.56,-24.06 1.43,-0.71 4.5,-1.84 5.93,-2.26 9.73,-3.68 18.44,-6.76 28.57,-10.44 1.13,-0.4 3.38,-1.13 4.92,-1.95 9.73,-3.37 19.45,-7.06 29.28,-10.44 0.71,-0.4 2.25,-0.71 2.55,-1.13 22.23,-8.29 42.8,-15.76 65.02,-23.65 11.27,-4.19 23.25,-8.7 34.92,-12.79 69.41,-25.49 140.06,-51.5 209.48,-77.41l0 0c23.34,-8.6 46.18,-16.89 69.93,-25.49l0.31 0c11.26,-4.5 22.52,-8.6 34.19,-12.79 0.72,-0.31 0.72,-0.31 1.13,-0.31 1767.56,-651.92 3510.34,-1319.6 5214.82,-1996.61 2.57,-1.13 5.94,-2.26 8.6,-3.38 8.2,-3.37 16.07,-6.45 24.38,-9.82 4.19,-1.44 6.75,-2.55 10.95,-4.1 7.47,-3.07 15.36,-6.04 22.83,-9.01 2.66,-1.13 5.32,-2.26 7.89,-3.38 8.29,-3.37 16.99,-6.75 24.88,-9.82 4.1,-1.84 9.31,-3.68 13.52,-5.23 6.76,-2.97 12.39,-4.81 19.14,-7.88 5.63,-1.84 11.99,-4.5 17.2,-6.76 4.92,-1.84 9.84,-4.1 14.65,-5.94 6.76,-2.66 13.92,-5.32 20.68,-8.29 4.92,-1.95 7.89,-3.08 12.79,-4.92 6.05,-2.25 13.52,-5.22 19.46,-7.89 4.92,-1.84 8.29,-2.96 13.21,-5.22 8.29,-3.08 16.89,-6.34 24.78,-9.84 2.25,-0.71 4.5,-1.84 6.75,-2.55 7.89,-3.37 16.18,-6.45 24.07,-9.82 3.68,-1.13 6.76,-2.57 10.04,-3.69 7.57,-3.07 15.46,-6.45 22.93,-9.42 3.38,-1.12 6.45,-2.66 9.84,-3.79 6.76,-2.55 14.64,-5.93 21.7,-8.6 3.79,-1.53 7.58,-2.97 11.68,-4.91 9.01,-3.38 17.3,-6.76 25.9,-10.04 1.53,-0.82 3.08,-1.22 4.5,-1.95 9.42,-3.79 18.44,-7.47 28.17,-11.26 1.12,-0.4 3.37,-1.53 4.91,-1.84 10.14,-4.19 19.86,-7.89 30.01,-12.08l1.12 -0.31c10.96,-4.61 20.99,-8.29 31.95,-12.79l0.4 -0.42c21.81,-8.6 43.21,-16.89 64.92,-25.9l0.71 0c21.81,-9.02 42.8,-17.2 64.6,-26.31l0.42 0c6108.89,-2447.22 11698.46,-5004.82 16121.19,-7367.17 2263.23,-959.08 4253.69,-1839.33 5820.26,-2552.38 219.11,-145.69 434.13,-289.86 638.91,-432.29 -5441.81,3772.86 -15986.75,8832.88 -28470.33,13416.45 -3594.81,1319.6 -7091.93,2505.07 -10407.42,3540.03l-0.31 -0.4c-1871.28,583.93 -3684.59,1120.15 -5424.72,1604.96 -5461.06,1521.51 -10201.21,2539.57 -13750.66,2962.34z"/>
  <path class="fil12" d="M32465.27 101028.49c1740.13,-484.82 3553.44,-1021.03 5424.72,-1604.96l0.31 0.4c-1871.17,583.52 -3684.9,1119.74 -5425.03,1604.56z"/>
  <path class="fil11" d="M36772.41 94833.89c9.42,-0.3 18.02,-0.3 27.44,-0.3 -9.02,0 -18.44,0 -27.44,0.3z"/>
  <path class="fil14" d="M38413.82 95065.29c-1015.09,0 -2027.83,-90.91 -3012.72,-270 388.58,26.21 778.79,39.83 1169.3,39.83 67.26,0 134.84,-0.42 202.01,-1.23 9.01,-0.3 18.43,-0.3 27.44,-0.3l0 0c1518.24,-20.28 3301.56,-250.15 5258.74,-637.28 -841.23,286.18 -1675.92,564.06 -2500.25,832.11 -315.06,19.15 -621.1,31.23 -917.01,35.33 -75.87,0.71 -151.64,1.53 -227.52,1.53z"/>
  <path class="fil15" d="M39558.34 95028.43c824.33,-268.05 1659.02,-545.94 2500.25,-832.11 10287.94,-2034.6 25397.51,-8415.32 32263.37,-11542.62 46.08,142.32 90.11,284.74 134.13,427.38 -1224.59,758.2 -2616.57,1553.15 -4147.21,2371.04 -9201.57,3898.91 -22890.6,9091.21 -30750.55,9576.32z"/>
  <path class="fil16" d="M74456.09 83081.07c-44.03,-142.64 -88.05,-285.06 -134.13,-427.38 589.77,-268.06 1118.1,-512.57 1576.81,-728.1 17.4,64.2 33.79,128.81 49.15,193.01 -464.85,313.62 -962.47,634.31 -1491.82,962.47z"/>
  <path class="fil2" d="M70308.89 85452.11c1530.63,-817.88 2922.62,-1612.84 4147.21,-2371.04 529.35,-328.16 1026.97,-648.85 1491.82,-962.47 -15.36,-64.2 -31.74,-128.81 -49.15,-193.01 418.78,-195.98 779.19,-368.4 1077.14,-513.28 50.17,154.3 69.63,258.74 69.63,330.82 0,275.23 -285.67,86.72 -285.67,426.96 0,68.3 12.28,157.27 39.93,275.64l0 0c-10.24,7.06 -21.5,14.64 -31.74,21.7 -204.78,142.42 -419.8,286.59 -638.91,432.29 -1566.57,713.05 -3557.03,1593.29 -5820.26,2552.38z"/>
  <path class="fil11" d="M45749.13 119135.42c-2245.21,-0.4 -4466.75,-241.12 -6629.34,-706.38 4405.54,-844.1 9981.18,-2447.64 15803.17,-4585.03 6396.5,-2348.82 12164.43,-5005.23 16150.58,-7392.04 -3541.97,4741.28 -8453.62,8544.13 -14423.97,10736.4 -3597.48,1320.62 -7279.41,1947.04 -10900.44,1947.04zm-9176.08 -1365.78c-1178.41,-358.16 -2334.6,-784.41 -3461.91,-1275.57 -601.13,-262.54 -1194.48,-543.39 -1778.82,-842.26 5883.63,-1183.32 13449.12,-3366.9 21536.19,-6336.09 9019.11,-3311.71 16911.64,-6948.59 22257.21,-10096.16 -305.11,763.83 -639.94,1515.57 -1003.42,2253.09 -458.7,932.46 -963.49,1843.02 -1513.32,2727.36 -3784.84,2645.86 -10460.05,5855.07 -18053.7,8643.24 -6777.6,2488.18 -13386.35,4280.92 -17982.22,4926.39z"/>
  <path class="fil13" d="M31332.33 115651.82c-951.92,-487.49 -1879.47,-1022.98 -2778.35,-1604.66 -62.76,-40.55 -125.42,-81.49 -187.78,-122.45 7090.4,-1415.23 14841.82,-3605.96 22659.6,-6408.49 0.42,0 1.95,-0.4 2.66,-0.71 16.89,-6.04 33.07,-12.08 49.97,-18.02 2.26,-0.82 4.92,-1.95 7.17,-2.66 16.07,-5.63 31.12,-10.86 46.89,-16.89 2.26,-0.71 4.5,-1.53 6.76,-2.26 15.46,-5.63 31.12,-11.26 46.59,-16.89 2.97,-0.71 5.63,-1.84 8.6,-2.97 14.64,-5.32 29.28,-10.55 44.33,-15.87 3.37,-1.13 6.76,-2.55 10.13,-3.68 13.92,-4.92 28.15,-10.13 41.67,-15.05 4.92,-1.53 9.01,-2.97 13.52,-4.81 13.51,-4.92 28.15,-10.24 42.08,-15.05 3.37,-1.13 6.34,-2.66 9.73,-3.79 14.64,-5.23 29.69,-10.44 43.92,-15.76 3.38,-1.13 7.17,-2.66 10.55,-3.79 15.47,-5.63 30.82,-11.17 46.18,-16.49 2.26,-0.71 4.2,-1.44 6.35,-2.66 15.76,-5.63 32.76,-11.57 48.53,-17.31 1.84,-0.71 3.68,-1.43 5.63,-1.84 70.96,-25.9 143.04,-51.81 214,-77.72 4.92,-1.84 8.71,-2.97 13.92,-4.91 13.1,-4.81 26.62,-9.73 40.14,-14.65 4.5,-1.84 9.01,-3.37 13.51,-5.22 12.81,-4.51 25.2,-9.02 37.99,-13.52 5.63,-2.26 12.7,-4.5 18.33,-6.76 12.39,-4.5 23.34,-8.29 35.32,-12.79 6.35,-2.26 11.68,-4.41 18.02,-6.76 11.27,-3.68 22.94,-8.2 33.8,-11.99 6.76,-2.66 13.51,-5.22 20.68,-7.47 10.85,-4.19 22.22,-8.29 33.38,-12.39 6.75,-2.25 12.38,-4.61 19.55,-7.16 10.95,-4.19 21.4,-7.47 32.35,-11.68 6.76,-2.55 14.65,-5.22 21.41,-7.88 10.44,-3.79 21.4,-7.89 31.84,-11.68 7.58,-2.55 13.52,-4.81 21.1,-7.88 10.13,-3.28 20.99,-7.48 31.12,-11.17 7.47,-2.66 14.64,-5.32 21.81,-7.98 11.26,-4.1 21.7,-7.89 33.07,-11.99 6.76,-2.66 13.1,-4.91 19.86,-7.47 11.26,-4.19 22.52,-8.29 33.79,-12.39 6.35,-2.25 12.81,-4.5 19.15,-6.76 13.52,-5.32 25.9,-9.82 39.83,-14.64 4.5,-1.95 8.19,-3.08 12.79,-4.92 17.2,-6.34 35.63,-12.79 52.83,-19.55l0 0c17.72,-6.34 35.02,-12.7 52.33,-19.15 8.19,-2.66 17.2,-5.94 25.08,-9.01 9.02,-3.38 18.02,-6.76 27.04,-10.14 10.13,-3.37 19.55,-7.06 29.69,-10.85 7.48,-2.66 15.05,-5.23 22.53,-8.29 10.44,-3.69 20.98,-7.48 31.94,-11.68 6.76,-2.55 12.39,-4.41 19.45,-7.07 11.68,-4.5 22.94,-8.7 34.62,-12.79 5.22,-1.84 11.67,-4.5 16.89,-6.34 11.98,-4.61 24.37,-9.02 36.45,-13.11 4.5,-1.94 9.73,-3.78 14.65,-5.73 12.69,-4.81 25.9,-9.73 39,-14.23 3.79,-1.54 7.89,-2.97 11.27,-4.51 13.92,-4.91 27.03,-9.72 40.55,-14.64 3.37,-1.53 7.47,-2.97 10.54,-4.1 14.65,-5.32 28.88,-10.55 43.51,-16.18 1.54,-0.4 2.97,-1.12 4.92,-1.53 15.78,-6.04 31.23,-11.57 46.9,-17.61 0.82,0 1.94,-0.82 2.25,-0.82 5850.97,-2167.4 11463.06,-4578.27 16599.66,-7122.76 3.38,-1.44 6.05,-2.57 9.02,-4.5 12.08,-5.63 23.65,-11.57 35.32,-17.2 3.38,-1.95 6.76,-3.38 10.14,-4.92 11.67,-6.05 22.93,-11.68 34.5,-17.31 3.79,-1.84 7.58,-3.79 11.26,-5.63 11.37,-5.63 22.23,-10.85 33.49,-16.48 4.5,-2.26 7.88,-4.1 11.98,-6.05 10.55,-5.22 22.22,-10.86 32.67,-16.07 4.91,-2.66 9.42,-4.92 14.33,-7.16 10.44,-5.23 19.86,-10.14 30.41,-15.47 5.23,-2.15 10.44,-5.22 15.76,-7.47 9.73,-5.23 19.15,-9.73 28.88,-14.65 6.05,-2.97 12.08,-6.04 18.02,-9.01 9.42,-4.5 18.43,-9.02 27.85,-13.92 5.63,-2.57 11.57,-5.63 17.2,-8.2 9.42,-4.92 18.84,-9.42 28.17,-14.33 6.45,-2.97 12.79,-6.35 19.25,-9.42 8.91,-4.41 17.61,-8.91 26.21,-13.11 6.05,-2.97 13.11,-6.75 19.15,-9.72 9.02,-4.51 17.71,-8.6 26.62,-13.11 8.29,-4.19 16.18,-8.29 24.47,-12.49 10.86,-5.23 20.99,-10.04 31.94,-15.67 11.26,-5.74 22.83,-11.37 34.09,-17.31 5.74,-2.66 11.68,-5.63 16.89,-8.29 9.84,-4.91 19.56,-9.72 29.39,-14.64 5.94,-2.97 11.17,-5.63 17.2,-8.6 9.84,-4.92 19.15,-9.84 28.97,-14.65 5.94,-3.07 11.57,-5.63 17.2,-8.7 9.84,-4.81 19.56,-9.73 29.28,-14.65 5.33,-2.66 10.96,-5.63 16.18,-8.29 9.84,-4.81 19.55,-9.73 29.28,-14.64 6.05,-2.97 12.81,-6.35 18.73,-9.32 9.12,-4.5 18.44,-9.01 27.44,-13.92 6.05,-2.97 11.26,-5.63 17.31,-8.6 10.13,-4.92 19.55,-9.82 29.69,-15.05 5.64,-2.66 10.45,-5.23 16.08,-7.89 10.54,-5.22 20.68,-10.44 31.22,-15.76 4.51,-2.26 9.02,-4.5 13.52,-6.76 11.26,-5.63 21.81,-10.85 33.07,-16.49 4.81,-2.66 9.02,-4.6 13.83,-7.16 11.67,-6.04 24.06,-11.98 36.04,-18.02 3.07,-1.53 4.91,-2.66 7.88,-4.1 13.21,-6.75 27.04,-13.51 40.25,-20.27 2.25,-1.13 4.09,-2.35 5.93,-3.08 1953.6,-986.83 3835.53,-1992.4 5629.4,-3010.05 -20.48,93.79 -40.96,186.55 -63.48,280.04 -274.41,930.2 -592.84,1846.5 -952.23,2745.79 -5345.57,3147.57 -13238.09,6784.45 -22257.21,10096.16 -8087.07,2969.2 -15652.56,5152.77 -21536.19,6336.09z"/>
  <path class="fil13" d="M39119.79 118429.04c-858.84,-184.71 -1708.58,-405.16 -2546.74,-659.4 4595.87,-645.46 11204.63,-2438.2 17982.22,-4926.39 7593.65,-2788.18 14268.86,-5997.38 18053.7,-8643.24 -478.16,771.3 -990.62,1522.33 -1535.44,2251.96 -3986.14,2386.81 -9754.07,5043.22 -16150.58,7392.04 -5821.99,2137.39 -11397.63,3740.92 -15803.17,4585.03z"/>
  <path class="fil12" d="M28366.2 113924.7l0 0c7090.4,-1415.23 14842.23,-3605.96 22659.6,-6408.49 -7817.78,2802.52 -15569.2,4993.25 -22659.6,6408.49zm22662.26 -6409.2c16.89,-6.04 33.07,-12.08 49.97,-18.02 -16.89,5.94 -33.07,11.99 -49.97,18.02zm57.14 -20.68c15.35,-5.22 31.53,-11.26 46.89,-16.89 -15.76,6.04 -30.82,11.26 -46.89,16.89zm53.65 -19.15c15.76,-5.63 30.82,-10.85 46.59,-16.89 -15.47,5.63 -31.14,11.26 -46.59,16.89zm55.19 -19.86c14.64,-5.32 29.28,-10.55 44.33,-15.87 -15.05,5.32 -29.7,10.55 -44.33,15.87zm54.47 -19.55c13.52,-4.92 28.15,-10.13 41.67,-15.05 -13.52,4.92 -27.75,10.13 -41.67,15.05zm55.19 -19.86c13.92,-4.92 27.74,-10.24 42.08,-15.05 -13.92,4.81 -28.57,10.13 -42.08,15.05zm51.81 -18.84c15.05,-5.23 28.97,-10.44 43.92,-15.76 -14.23,5.32 -29.28,10.54 -43.92,15.76zm54.47 -19.55c15.47,-5.63 30.82,-11.17 46.18,-16.49 -15.36,5.32 -30.71,10.86 -46.18,16.49zm52.53 -19.15c15.76,-5.63 32.76,-11.57 48.53,-17.31 -15.76,5.74 -32.76,11.68 -48.53,17.31zm54.16 -19.15c71.27,-25.9 142.22,-51.81 214,-77.72 -70.96,25.91 -143.04,51.82 -214,77.72zm227.92 -82.62c12.7,-4.81 27.04,-10.04 40.14,-14.65 -13.52,4.92 -27.04,9.84 -40.14,14.65zm53.65 -19.86c13.21,-4.51 24.78,-9.02 37.99,-13.52 -12.79,4.5 -25.18,9.01 -37.99,13.52zm56.32 -20.28c12.08,-4.5 23.65,-8.6 35.32,-12.79 -11.98,4.5 -22.93,8.29 -35.32,12.79zm53.34 -19.55c11.27,-4.1 22.53,-7.89 33.8,-11.99 -10.86,3.79 -22.52,8.3 -33.8,11.99zm54.48 -19.46c10.44,-4.19 22.52,-8.29 33.38,-12.39 -11.17,4.1 -22.53,8.2 -33.38,12.39zm52.94 -19.55c10.55,-3.79 21.4,-7.89 32.35,-11.68 -10.95,4.2 -21.4,7.48 -32.35,11.68zm53.75 -19.55c10.85,-3.79 21.4,-7.89 31.84,-11.68 -10.44,3.79 -21.4,7.89 -31.84,11.68zm52.94 -19.55c10.13,-3.69 20.99,-7.48 31.12,-11.17 -10.13,3.68 -20.99,7.89 -31.12,11.17zm52.94 -19.15c10.85,-4.1 22.12,-8.2 33.07,-11.99 -11.37,4.1 -21.81,7.89 -33.07,11.99zm52.94 -19.46c11.26,-4.19 22.52,-8.29 33.79,-12.39 -11.26,4.1 -22.52,8.2 -33.79,12.39zm52.94 -19.15c12.7,-4.91 26.62,-9.82 39.83,-14.64 -13.93,4.81 -26.31,9.31 -39.83,14.64zm52.63 -19.55c17.2,-6.34 35.63,-12.79 52.83,-19.55 -17.2,6.76 -35.63,13.21 -52.83,19.55zm52.83 -19.55c17.72,-6.34 35.02,-12.39 52.33,-19.15 -17.31,6.45 -34.61,12.81 -52.33,19.15zm77.41 -28.15c9.02,-3.38 18.02,-6.76 27.04,-10.14 -9.02,3.38 -18.02,6.76 -27.04,10.14zm56.72 -20.99c7.48,-2.66 15.05,-5.23 22.53,-8.29 -7.48,3.07 -15.05,5.63 -22.53,8.29zm54.48 -19.97c5.94,-2.26 13.1,-4.81 19.45,-7.07 -7.06,2.66 -12.69,4.51 -19.45,7.07zm54.06 -19.86c5.63,-2.26 11.26,-4.1 16.89,-6.34 -5.23,1.84 -11.68,4.5 -16.89,6.34zm53.34 -19.46c4.81,-1.94 9.31,-3.78 14.65,-5.73 -4.92,1.95 -10.14,3.79 -14.65,5.73zm53.65 -19.96c3.38,-1.54 7.89,-2.97 11.27,-4.51 -3.38,1.54 -7.48,2.97 -11.27,4.51zm51.82 -19.15c3.37,-1.53 7.16,-2.66 10.54,-4.1 -3.07,1.13 -7.16,2.57 -10.54,4.1zm54.05 -20.28c1.95,-0.4 2.97,-1.12 4.92,-1.53 -1.95,0.42 -3.37,1.13 -4.92,1.53zm51.82 -19.14c0.82,0 1.94,-0.42 2.25,-0.82 -0.31,0 -1.43,0.82 -2.25,0.82zm16601.9 -7123.58c2.97,-1.44 6.05,-2.97 9.02,-4.5 -2.97,1.94 -5.63,3.07 -9.02,4.5zm44.33 -21.7c2.97,-1.54 7.17,-3.38 10.14,-4.92 -3.38,1.53 -6.76,2.97 -10.14,4.92zm44.64 -22.23c3.79,-1.84 7.89,-3.79 11.26,-5.63 -3.68,1.84 -7.47,3.79 -11.26,5.63zm44.75 -22.11c4.1,-2.26 8.29,-4.1 11.98,-6.05 -4.1,1.95 -7.47,3.79 -11.98,6.05zm44.64 -22.12c4.91,-2.66 9.42,-4.92 14.33,-7.16 -4.91,2.25 -9.42,4.5 -14.33,7.16zm44.74 -22.63c4.81,-2.15 10.86,-5.22 15.76,-7.47 -5.32,2.26 -10.54,5.32 -15.76,7.47zm44.64 -22.12c6.05,-2.97 12.08,-6.04 18.02,-9.01 -5.94,2.97 -11.98,6.04 -18.02,9.01zm45.87 -22.93c5.63,-2.57 11.57,-5.63 17.2,-8.2 -5.63,2.57 -11.57,5.63 -17.2,8.2zm45.37 -22.52c6.45,-2.97 12.79,-6.35 19.25,-9.42 -6.45,3.07 -12.79,6.45 -19.25,9.42zm45.45 -22.53c6.76,-3.37 12.81,-6.34 19.15,-9.72 -6.04,2.97 -13.1,6.75 -19.15,9.72zm45.77 -22.83c7.89,-4.19 16.58,-8.29 24.47,-12.49 -8.29,4.19 -16.18,8.29 -24.47,12.49zm56.42 -28.15c11.26,-5.74 22.83,-11.67 34.09,-17.31 -11.26,5.94 -22.83,11.57 -34.09,17.31zm50.99 -25.6c9.84,-4.91 19.56,-9.72 29.39,-14.64 -9.82,4.92 -19.55,9.73 -29.39,14.64zm46.59 -23.24c9.42,-4.92 19.55,-9.84 28.97,-14.65 -9.82,4.81 -19.14,9.73 -28.97,14.65zm46.18 -23.34c10.14,-4.81 19.56,-9.73 29.28,-14.65 -9.72,4.92 -19.45,9.84 -29.28,14.65zm45.46 -22.94c10.13,-4.81 19.55,-9.73 29.28,-14.64 -9.73,4.91 -19.45,9.82 -29.28,14.64zm48.02 -23.96c9.42,-4.5 18.13,-9.01 27.44,-13.92 -9.01,4.92 -18.32,9.42 -27.44,13.92zm44.75 -22.52c9.73,-4.92 19.86,-9.82 29.69,-15.05 -10.13,5.23 -19.55,10.13 -29.69,15.05zm45.77 -22.94c10.24,-5.22 21.09,-10.44 31.22,-15.76 -10.54,5.32 -20.68,10.55 -31.22,15.76zm44.74 -22.52c10.86,-5.63 22.12,-11.26 33.07,-16.49 -11.26,5.64 -21.81,10.86 -33.07,16.49zm46.9 -23.65c11.67,-6.04 24.06,-11.98 36.04,-18.02 -11.99,6.05 -24.38,11.99 -36.04,18.02zm43.92 -22.12c13.21,-6.75 27.04,-13.51 40.25,-20.27 -13.21,6.76 -27.04,13.52 -40.25,20.27zm46.18 -23.34c1961.8,-990.93 3850.89,-2000.69 5651.93,-3022.86 -23.55,81.51 -47.1,162.6 -70.65,243.69 -5.12,16.49 -10.24,32.67 -15.36,49.16 22.52,-93.49 43,-186.25 63.48,-280.04 -1793.87,1017.65 -3675.8,2023.22 -5629.4,3010.05z"/>
  <path class="fil2" d="M28366.2 113924.7c-293.35,-192.9 -582.5,-391.64 -868.99,-594.78 7418.25,-1434.48 15861.02,-3792.32 24630.82,-7012.37 741.2,-272.26 1474.2,-548.61 2203.43,-826.8 -638.7,137.41 -1256.01,264.68 -1853.46,382.63 9136.97,-3389.41 17373.52,-7256.47 24061.73,-11138.9 -114.67,485.12 -238.57,967.69 -375.77,1446.46 -1801.03,1022.16 -3690.13,2031.92 -5651.93,3022.86 -1.84,0.72 -3.68,1.95 -5.93,3.08 -13.21,6.76 -27.04,13.52 -40.25,20.27 -2.97,1.44 -4.81,2.57 -7.88,4.1 -11.99,6.05 -24.38,11.99 -36.04,18.02 -4.81,2.57 -9.02,4.5 -13.83,7.16 -10.95,5.23 -22.22,10.86 -33.07,16.49 -4.5,2.26 -9.01,4.5 -13.52,6.76 -10.13,5.32 -20.98,10.55 -31.22,15.76 -5.63,2.66 -10.44,5.23 -16.08,7.89 -9.82,5.23 -19.96,10.13 -29.69,15.05 -6.05,2.97 -11.26,5.63 -17.31,8.6 -9.31,4.92 -18.02,9.42 -27.44,13.92 -5.93,2.97 -12.69,6.35 -18.73,9.32 -9.73,4.91 -19.15,9.82 -29.28,14.64 -5.22,2.66 -10.85,5.63 -16.18,8.29 -9.72,4.92 -19.14,9.84 -29.28,14.65 -5.63,3.07 -11.26,5.63 -17.2,8.7 -9.42,4.81 -19.55,9.73 -28.97,14.65 -6.04,2.97 -11.26,5.63 -17.2,8.6 -9.82,4.92 -19.55,9.73 -29.39,14.64 -5.22,2.66 -11.16,5.63 -16.89,8.29 -11.26,5.64 -22.83,11.57 -34.09,17.31 -10.95,5.63 -21.09,10.44 -31.94,15.67 -7.89,4.19 -16.58,8.29 -24.47,12.49 -8.91,4.51 -17.61,8.6 -26.62,13.11 -6.34,3.37 -12.39,6.34 -19.15,9.72 -8.6,4.2 -17.3,8.71 -26.21,13.11 -6.45,3.07 -12.79,6.45 -19.25,9.42 -9.32,4.91 -18.75,9.41 -28.17,14.33 -5.63,2.57 -11.57,5.63 -17.2,8.2 -9.42,4.91 -18.43,9.42 -27.85,13.92 -5.94,2.97 -11.98,6.04 -18.02,9.01 -9.73,4.92 -19.15,9.42 -28.88,14.65 -4.91,2.26 -10.95,5.32 -15.76,7.47 -10.55,5.32 -19.97,10.24 -30.41,15.47 -4.91,2.25 -9.42,4.5 -14.33,7.16 -10.45,5.22 -22.12,10.86 -32.67,16.07 -3.68,1.95 -7.88,3.79 -11.98,6.05 -11.26,5.63 -22.12,10.85 -33.49,16.48 -3.37,1.84 -7.47,3.79 -11.26,5.63 -11.57,5.63 -22.83,11.26 -34.5,17.31 -2.97,1.53 -7.17,3.37 -10.14,4.92 -11.67,5.63 -23.24,11.57 -35.32,17.2 -2.97,1.53 -6.05,3.07 -9.02,4.5 -5136.59,2544.49 -10748.69,4955.36 -16599.66,7122.76 -0.31,0.4 -1.43,0.82 -2.25,0.82 -15.67,6.04 -31.12,11.57 -46.9,17.61 -1.95,0.42 -2.97,1.13 -4.92,1.53 -14.64,5.63 -28.87,10.86 -43.51,16.18 -3.37,1.44 -7.16,2.57 -10.54,4.1 -13.52,4.92 -26.62,9.73 -40.55,14.64 -3.38,1.54 -7.89,2.97 -11.27,4.51 -13.1,4.5 -26.31,9.42 -39,14.23 -5.33,1.95 -9.84,3.79 -14.65,5.73 -12.08,4.1 -24.47,8.5 -36.45,13.11 -5.63,2.25 -11.26,4.09 -16.89,6.34 -11.68,4.1 -22.94,8.29 -34.62,12.79 -6.34,2.26 -13.51,4.81 -19.45,7.07 -10.96,4.19 -21.5,7.98 -31.94,11.68 -7.48,3.07 -15.05,5.63 -22.53,8.29 -10.13,3.79 -19.55,7.47 -29.69,10.85 -9.02,3.38 -18.02,6.76 -27.04,10.14 -7.88,3.07 -16.89,6.34 -25.08,9.01 -17.31,6.76 -34.61,12.81 -52.33,19.15l0 0c-17.2,6.76 -35.63,13.21 -52.83,19.55 -4.61,1.84 -8.29,2.97 -12.79,4.92 -13.21,4.81 -27.13,9.73 -39.83,14.64 -6.34,2.26 -12.79,4.51 -19.15,6.76 -11.26,4.1 -22.52,8.2 -33.79,12.39 -6.76,2.57 -13.1,4.81 -19.86,7.47 -10.95,3.79 -22.23,7.89 -33.07,11.99 -7.17,2.66 -14.34,5.32 -21.81,7.98 -10.13,3.68 -20.99,7.47 -31.12,11.17 -7.58,3.07 -13.52,5.32 -21.1,7.88 -10.44,3.79 -20.99,7.89 -31.84,11.68 -6.76,2.66 -14.65,5.32 -21.41,7.88 -10.95,3.79 -21.8,7.89 -32.35,11.68 -7.17,2.55 -12.81,4.92 -19.55,7.16 -10.86,4.1 -22.94,8.2 -33.38,12.39 -7.17,2.26 -13.92,4.81 -20.68,7.47 -11.26,4.1 -22.52,7.89 -33.8,11.99 -6.34,2.35 -11.67,4.5 -18.02,6.76 -11.67,4.19 -23.24,8.29 -35.32,12.79 -5.63,2.26 -12.7,4.5 -18.33,6.76 -13.21,4.5 -24.78,9.01 -37.99,13.52 -4.5,1.84 -9.01,3.37 -13.51,5.22 -13.1,4.61 -27.44,9.84 -40.14,14.65 -5.22,1.94 -9.01,3.07 -13.92,4.91 -71.78,25.91 -142.73,51.82 -214,77.72 -1.95,0.42 -3.79,1.13 -5.63,1.84 -15.76,5.74 -32.76,11.68 -48.53,17.31 -2.15,1.22 -4.1,1.95 -6.35,2.66 -15.36,5.32 -30.71,10.86 -46.18,16.49 -3.37,1.13 -7.16,2.66 -10.55,3.79 -14.94,5.32 -28.87,10.54 -43.92,15.76 -3.38,1.13 -6.35,2.66 -9.73,3.79 -14.34,4.81 -28.15,10.13 -42.08,15.05 -4.51,1.84 -8.6,3.28 -13.52,4.81 -13.52,4.92 -28.15,10.13 -41.67,15.05 -3.37,1.13 -6.76,2.55 -10.13,3.68 -15.05,5.32 -29.7,10.55 -44.33,15.87 -2.97,1.13 -5.63,2.26 -8.6,2.97 -15.78,6.05 -30.83,11.26 -46.59,16.89 -2.26,0.72 -4.5,1.54 -6.76,2.26 -15.36,5.63 -31.54,11.68 -46.89,16.89 -2.26,0.71 -4.92,1.84 -7.17,2.66 -16.89,5.94 -33.07,11.99 -49.97,18.02 -0.71,0.31 -2.25,0.71 -2.66,0.71 -7817.37,2802.52 -15569.2,4993.25 -22659.6,6408.49z"/>
  <path class="fil2" d="M27497.21 113329.91c-101.77,-72.08 -203.14,-144.88 -304.2,-217.79 7436.69,-1432.95 15904.63,-3793.43 24704.74,-7024.76 193.82,-71.36 387.24,-142.73 580.24,-214 597.45,-117.95 1214.75,-245.22 1853.46,-382.63 -729.22,278.19 -1462.23,554.55 -2203.43,826.8 -8769.8,3220.06 -17212.57,5577.89 -24630.82,7012.37z"/>
  <path class="fil17" d="M36590.26 59056.7l18359.33 0c3212.58,0 5840.84,-2628.13 5840.84,-5840.73l0 -16464.8c0,-3212.29 -2628.25,-5840.63 -5840.84,-5840.63l-18359.33 0c-3212.49,0 -5841.14,2628.35 -5841.14,5840.63l0 16464.8c0,3212.59 2628.66,5840.73 5841.14,5840.73z"/>
  <path class="fil17" d="M60789.6 36654.71l0 16658.53c0,3158.42 -2671.77,5743.87 -5939.13,5743.87l-18162.13 0c-3265.93,0 -5939.23,-2585.45 -5939.23,-5743.87l0 -16658.53c0,-909.94 221.58,-1773.5 616.69,-2540.39 291,-568.26 678.13,-1083.28 1138.58,-1526.63 1008.95,-970.66 2375.44,-1596.26 3883.85,-1668.96 99.93,-5.12 200.18,-8.2 300.11,-8.2l18164.79 0c2390.5,1.02 4460.3,1385.33 5400.25,3365.56 105.16,221.16 195.98,450.52 272.26,686.02 172.02,535.9 263.96,1104.17 263.96,1692.6z"/>
  <path class="fil2" d="M54949.59 29707.46l-18359.33 0c-3884.26,0 -7043.92,3159.74 -7043.92,7043.71l0 16464.8c0,3883.96 3159.66,7043.61 7043.92,7043.61l18359.33 0c3883.96,0 7043.91,-3159.66 7043.91,-7043.61l0 -16464.8c0,-3883.97 -3159.96,-7043.71 -7043.91,-7043.71zm0 1203.08c3212.58,0 5840.84,2628.35 5840.84,5840.63l0 16464.8c0,3212.59 -2628.25,5840.73 -5840.84,5840.73l-18359.33 0c-3212.49,0 -5841.14,-2628.13 -5841.14,-5840.73l0 -16464.8c0,-3212.29 2628.66,-5840.63 5841.14,-5840.63l18359.33 0z"/>
  <path class="fil17" d="M37527.95 31947.75l-491.17 1290.11 -416.83 1093.52 -362.36 952.64 -2135.54 5606.46c-345.87,96.14 -699.63,183.28 -1063.12,255.66 -4562.49,937.69 -10588.75,-52.94 -18812.91,-9275.2 -1286.53,-1441.64 -4390.89,-2316.06 -3037.5,-5594.58 1384.11,-3354.28 3331.87,-2935.52 3331.87,-2935.52 0,0 -510.31,-1662.81 589.97,-2503.43 1552.75,-1189.77 3393.92,571.33 5182.16,1827.67 129.52,91.13 163.72,-492.5 388.97,-1075.1 216.35,-559.05 609.12,-1118.1 1431.52,-1083.28 2402.89,104.43 2274.49,5589.46 2274.49,5589.46 0,0 3241.36,3559.07 8274.03,5126.66 1276.39,398.3 2669.61,667.58 4154.37,717.75 227.51,7.17 460.04,10.24 692.05,7.17z"/>
  <path class="fil18" d="M30399.96 40833.35c-3823.55,0 -8994.75,-1823.46 -15712.34,-9355.57 -363.49,-407.5 -841.14,-763.82 -1303.42,-1107.85 -1323.59,-986.01 -2467.09,-1838.93 -1629.34,-3868.3 511.44,-1238.92 1082.26,-1889.1 1563.29,-2226.97 -70.96,146.42 -147.95,297.95 -235.49,452.56 -1455.79,2564.86 2092.33,5060.1 3602.38,5060.1 132.19,0 248.51,-19.45 344.76,-59.39 733,-303.07 990.92,-597.96 1414.1,-1998.65 424.3,-1403.76 1070.28,-2114.34 1212.5,-2114.34 8.71,0 15.87,3.07 20.37,8.19 375.46,420.82 384.07,5610.97 1246.29,7436.58 2110.05,4467.99 7649.25,6755.69 11889.21,6756.1 20.68,0 41.27,-0.4 61.54,-0.4 -71.67,266.21 -137.4,533.96 -190.75,803.56 -699.94,129.93 -1460.39,214.4 -2283.09,214.4z"/>
  <path class="fil2" d="M30369.55 42024.87c-4089.76,0.4 -9568.12,-1914.39 -16565.15,-9759.71 -283.52,-317.41 -693.18,-623.56 -1127.31,-946.09 -1352.16,-1008.54 -3204.29,-2388.76 -2016.06,-5268.99 1002.91,-2429.71 2336.44,-3101.39 3183.2,-3266.23 -57.85,-697.28 37.16,-1737.56 926.01,-2417.43 1680.84,-1286.02 3503.17,63.48 5111.1,1253.26 50.38,37.88 100.35,74.75 150.62,111.6 226.79,-746.42 747.24,-1878.86 2126.53,-1815.37 2656.41,114.68 2841.93,4700.72 2843.37,5943.74 927.96,933.79 5886.61,5585.37 12519.01,5496.29l7.89 0c322.93,0 586.9,260.07 591,583.62 4.5,326.63 -257.2,594.89 -583.94,598.98 -7878.28,99.32 -13336.8,-5793.21 -13565.43,-6044.07 -102.19,-112.63 -157.37,-260.07 -153.99,-411.6 36.04,-1601.38 -334.61,-4925.98 -1708.99,-4985.37 -588.03,-24.58 -818.19,445.39 -1035.57,1321.85 -90.51,363.49 -168.63,678.84 -514.19,807.86 -194.13,71.67 -412.64,43 -584.96,-77.81 -264.37,-185.33 -529.46,-381.92 -794.95,-578.51 -1689.53,-1250.18 -2780.7,-1959.74 -3688.38,-1264.52 -755.13,577.49 -387.14,1851.21 -383.35,1863.51 59.28,200.68 9.42,418.77 -132.6,572.36 -142.32,153.58 -354.06,222.18 -558.43,177.14 -48.43,-7.17 -1505.03,-216.04 -2660.09,2582.27 -837.76,2029.37 305.74,2882.28 1629.34,3868.3 462.28,344.03 939.93,700.35 1303.42,1107.85 9096.52,10199.78 15357.46,9931.32 19275.62,8842.3 315.05,-87.14 640.96,96.87 728.39,411.6 87.55,314.65 -96.45,640.96 -411.51,728.41 -1124.34,312.49 -2426.23,564.79 -3910.58,564.79z"/>
  <path class="fil2" d="M21033.85 22536.07l-132.91 1876.8c-8.29,115.71 -46.58,221.16 -107.4,310.25l-16.18 23.55 0 0c-28.87,28.68 -82.93,98.3 -123.58,153.59 -43.51,60.41 -85.9,122.87 -125.42,187.38 -81.4,127.98 -152.06,263.14 -216.66,401.36 -126.15,277.48 -211.34,570.31 -247.38,868.26 -24.88,149.49 -16.58,298.98 -18.43,450.52 22.52,148.47 26.62,303.07 74.75,449.5 63.07,302.05 214.4,582.6 376.59,861.1l15.46 26.61c81.81,141.31 34.09,321.51 -106.69,403.42 -128.09,74.75 -288.84,41.98 -378.53,-70.65 -236.52,-294.87 -468.65,-612.28 -607.99,-986.01 -85.6,-180.2 -125.02,-375.77 -179.08,-569.29 -29.28,-197.61 -65.02,-398.3 -62.66,-598.98 -9.42,-402.4 48.43,-803.76 160.35,-1186.69 57.44,-189.42 123.89,-377.82 205.69,-560.07 39.83,-92.15 83.76,-182.26 131.07,-272.36 50.68,-93.17 92.35,-172.02 167.92,-283.61l0 0 -123.58 332.76 136.69 -1930.05c23.25,-325.61 306.04,-571.33 631.96,-547.79 325.59,22.52 571.23,306.15 547.88,631.74l-1.84 28.68z"/>
  <path class="fil2" d="M25000.02 40777.04c-123.58,0 -246.76,-48.03 -338.71,-144.17 -179.89,-187.07 -173.44,-484 13.52,-663.48 3179.93,-3051.84 3666.17,-10418.58 3670.68,-10492.3 15.76,-259.05 238.77,-456.66 497.21,-440.28 258.63,16.38 455.43,238.57 439.66,496.59 -19.15,317.41 -512.57,7806.92 -3957.58,11113 -90.82,87.43 -207.95,130.65 -324.78,130.65z"/>
  <path class="fil17" d="M66067.49 56199.83c-253.11,5590.28 -1962.81,7858.84 -4072.86,8574.53 -436.29,147.96 -951.1,236.52 -1410.73,220.35 -1493.86,-51.71 -2577.97,-681.92 -2577.97,-681.92 0,0 -550.14,230.99 -1054.42,182.15 -3902.8,-378.84 -3012.41,-2694.7 -2219.71,-6405.1 227.61,-1067.61 448.06,-2250.84 542.67,-3535.93 451.03,-6070.91 -1246.7,-11810.27 -1246.7,-11810.27l653.76 -5446.84 727.69 -6070.9c0,0 381.5,346.08 1001.17,1004.44 542.56,575.43 1267.38,1387.39 2076.15,2415.38 3300.85,4184.67 8018.37,11922.17 7580.95,21554.1z"/>
  <path class="fil2" d="M60687.52 65588.06c-42.09,0 -83.35,-0.72 -124.71,-2.26 -1203.91,-41.67 -2164.83,-424.71 -2601.21,-631.23 -258.75,77.72 -663.49,167.92 -1067.21,128.5 -1471.96,-142.33 -2407.09,-553.22 -2942.89,-1291.85 -837.76,-1155.06 -468.23,-2812.15 -0.71,-4910.22 287.2,-1287.66 612.39,-2747.23 733.31,-4371.74 437.51,-5884.66 -1206.46,-11542.21 -1223.05,-11598.53 -92.36,-313.2 86.41,-642.18 399.94,-734.85 313.62,-92.77 642.18,86.31 734.54,399.52 70.55,238.78 1722.51,5914.35 1268.51,12021.7 -127.37,1710.12 -462.7,3214.44 -758.19,4541.51 -403.32,1806.97 -721.34,3234.29 -196.39,3957.88 317.72,438.22 1004.14,703.01 2099.1,809.28 287.31,28.17 654.17,-91.22 772.02,-139.35l269.29 -110.37 253.83 145.69c8.29,4.51 986.11,556.5 2300.08,601.54 370.96,13.21 807.76,-55.91 1200.12,-189.22 2229.85,-756.25 3465.59,-3461.9 3672.93,-8041.29 336.45,-7422.75 -2517.46,-13681.54 -4971.03,-17625.19 -2673.3,-4296.07 -5466.39,-6858.89 -5494.55,-6883.47 -241.44,-220.14 -259.57,-593.86 -39.83,-835.5 219.63,-242.66 593.66,-260.07 835.5,-40.96 117.95,107.51 2923.74,2677.5 5683.46,7102.79 2551.25,4092.32 5519.33,10595.21 5168.55,18336.09 -235.1,5186.97 -1698.75,8166.31 -4474.95,9107.68 -480.31,163.01 -1018.48,253.83 -1496.43,253.83z"/>
  <path class="fil2" d="M55162.56 49369.59c-191.88,0 -372.2,-118.67 -441.21,-309.83 -88.67,-243.28 37.06,-512.57 280.86,-601.13 321.4,-116.42 7895.19,-2823.5 10647.74,-348.53 192.59,173.55 208.37,470.17 34.91,663.18 -173.14,192.7 -470.18,208.47 -662.77,34.91 -1938.44,-1743.18 -7659.07,-206.11 -9699.61,532.84 -52.94,19.55 -106.99,28.56 -159.92,28.56z"/>
  <path class="fil17" d="M59453.93 58089.84l-27514.73 0c-72.49,-2231.69 -54.47,-4380.45 29.59,-6434.49 78.54,-1902 215.93,-3722.49 396.66,-5451.34 164.03,-1580.89 364.92,-3084.9 589.87,-4507.71 29.7,-187.78 65.02,-370.96 103.61,-550.14 557.32,-2521.15 2055.59,-4267.71 3084.91,-5956.73 174.17,-286.7 335.73,-570.31 476.11,-858.03 162.6,-330.71 297.04,-663.48 394.71,-1005.46 9.02,-29.7 16.49,-59.39 22.12,-88.06 70.96,-368.6 -32.25,-823.22 -200.88,-1297.28 -369.83,-1043.35 -1049.91,-2189.09 -859.15,-2755.31 316.59,-932.78 591.4,-1666.91 795.67,-2183.98 232.11,-591.81 371.06,-901.03 371.06,-901.03l17106.18 0c0,0 141.91,305.11 380.07,891.81 247.07,608.2 595.91,1517.42 995.03,2710.27 247.17,737.21 513.39,1580.89 785.64,2528 199.35,692.16 403.72,1438.58 606.04,2237.23 96.15,379.86 192.29,772.12 285.77,1174.3 446.53,1884.39 873.89,4019.52 1231.65,6389.03 202.84,1327.79 381.61,2727.05 528.03,4196.76 176.1,1736.34 306.04,3568.49 378.53,5488.2 77,2027.73 87.44,4157.23 13.52,6373.98z"/>
  <path class="fil2" d="M34216.66 36926.56c24.06,464.13 -2.57,912.09 -25.09,1359.33 -18.13,448.77 -65.73,888.13 -105.56,1329.33 -41.27,440.48 -105.87,875.33 -165.57,1312.02 -68.4,434.44 -158.2,865.6 -235.08,1299.63l-117.55 650.79c-35.33,217.79 -64.61,436.39 -95.02,654.89 -60.41,436.79 -116.41,874.61 -164.84,1313.56 -53.75,438.22 -101.37,877.17 -144.17,1317.35 -46.58,438.95 -87.95,879.01 -124.71,1319.91 -161.05,1761.51 -208.05,3532.86 -272.66,5302.98 -39.73,884.75 -78.12,1769.91 -143.75,2654.97 -49.97,885.77 -101.06,1770.53 -591.81,2650.78 -27.44,49.15 -89.8,67.17 -139.36,39.82 -18.73,-10.23 -33.07,-25.59 -42.08,-43.61 -454.71,-898.27 -465.98,-1791.93 -461.88,-2684.16 -10.14,-893.04 13.51,-1785.27 56,-2677.49 96.14,-1784.04 267.75,-3564.29 417.14,-5346.91 37.17,-445.39 78.94,-891.1 126.24,-1336.08 43.22,-445.4 91.23,-890.69 145.7,-1335.37 49.56,-444.99 106.29,-889.56 167.82,-1333.83l167.81 -1334.96c49.97,-446.42 114.58,-891.41 197.92,-1333.01 83.04,-441.3 200.17,-877.58 325.59,-1310.59 260.17,-863.67 588.44,-1713.09 1049.19,-2514.8 25.91,-45.05 83.35,-60.41 128.4,-34.61 28.56,16.18 45.05,45.56 46.89,75.87l0.42 4.19z"/>
  <path class="fil2" d="M59363.11 58092.1c-487.89,-794.24 -535.6,-1595.24 -576.87,-2395.41 -58.15,-799.46 -88.98,-1598.62 -119.39,-2396.13 -48.42,-1595.65 -88.25,-3189.35 -256.9,-4772.5 -78.83,-791.99 -175.7,-1582.03 -285.36,-2370.63 -111.19,-788.21 -220.45,-1577.93 -390.52,-2357.43 -78.54,-390.92 -164.54,-780.31 -230.99,-1173.49 -60.82,-394.31 -109.26,-791.27 -148.36,-1190.79 -39.32,-399.12 -56.63,-803.25 -69.42,-1209.94 -9.01,-407 -8.29,-816.66 36.76,-1237.28l0.42 -2.26c5.63,-52.22 52.21,-89.8 104.43,-84.06 31.12,3.28 57.85,22.12 72.49,47.3 413.76,732.18 709.67,1494.17 949.98,2269.57 245.93,773.96 401.47,1568.92 497.92,2373.29 104.03,802.43 241.13,1600.35 349.25,2402.89 111.5,802.12 210.31,1606.4 290.28,2412.72 158.5,1612.02 322.94,3225.28 403.32,4839.15 32.66,807.44 49.24,1613.66 31.12,2419.47 -4.1,805.5 -19.15,1610.28 -477.25,2421.73 -28.46,50.68 -92.76,68.7 -143.03,40.13 -16.18,-9.01 -28.97,-22.11 -37.88,-36.34z"/>
  <path class="fil18" d="M51507.64 55767.95l-10179.5 0c0,0 -1744.21,-1016.84 -4256.04,-1378.79 -66.45,-213.69 -102.5,-440.17 -102.5,-674.44l0 -725.54c-690.93,105.16 -1429.98,146.42 -2164.52,146.42 -702.9,0 -1401.71,-37.88 -2050.25,-93.79 4.1,-85.28 7.89,-170.16 11.57,-255.46 15.76,-435.87 30.82,-872.26 46.59,-1308.23 104.43,26.31 211.43,46.18 320.37,59.28 848.61,103.01 1839.24,185.23 2837.33,185.23 452.87,0 907.28,-17 1350.42,-56.72 8.6,1445.75 1187.31,2619.54 2634.9,2619.54l11161.83 0c1452.9,0 2635,-1182.5 2635,-2635.31l0 -85.29c687.55,113.03 1424.65,157.78 2158.07,157.78 944.45,0 1882.44,-74.03 2699.61,-168.64 19.15,507.24 34.09,1015 49.56,1522.74 -515.23,36.04 -1054.11,58.58 -1595.55,58.58 -1061.58,0 -2132.57,-86.42 -3054.09,-327.86l0 907.29c0,415.29 -112.62,806.22 -308.7,1142.67 -1353.28,420.93 -2194.11,910.55 -2194.11,910.55zm-14496.77 -9256.77c54.47,-282.39 161.47,-546.76 310.23,-782.15l0 765.98c-101.46,6.04 -204.67,11.26 -310.23,16.17zm16945.83 -60.5c-69.01,-5.94 -137,-12.7 -203.85,-19.46l0 -537.35c91.23,173.86 160.34,360.83 203.85,556.8z"/>
  <path class="fil2" d="M32754.83 53041.81c-271.85,-23.34 -534.78,-49.97 -785.64,-78.52 31.23,-608.41 72.08,-1206.57 121.74,-1793.47 221.47,139.35 464.44,243.28 722.06,308.3 -15.78,435.98 -30.83,872.36 -46.59,1308.23 -3.68,85.29 -7.47,170.17 -11.57,255.46z"/>
  <path class="fil2" d="M58660.1 53076.72c-15.47,-507.74 -30.41,-1015.5 -49.56,-1522.74 46.18,-5.22 92.35,-10.85 137.81,-16.58 205.4,-24.78 404.03,-73.51 592.94,-144.57 40.14,530.28 73.51,1069.87 99.42,1618.48 -251.88,24.47 -512.87,47 -780.62,65.42z"/>
  <path class="fil17" d="M39382.63 50620.5c-1714.92,693.9 -4368.77,548.91 -6178,330 -1085.23,-131.47 -1847.11,-1132.94 -1687.18,-2213.98 145.7,-986.94 1014.27,-1704.49 2010.94,-1658 1691.99,79.66 4230.54,116.53 5838.07,-239.9l16.17 3781.87z"/>
  <path class="fil18" d="M35962.4 50538.59c-813.69,0 -1716.46,-58.16 -2686.82,-175.71 -364.2,-44.03 -687.54,-228.73 -910.14,-520.55 -223.51,-292.83 -316.59,-654.88 -262.94,-1019.49 8.29,-55.19 19.55,-108.84 33.79,-161.47 286.9,259.45 654.17,436.38 1068.34,486.66 808.89,98.09 1787.12,181.44 2774.36,181.44 450.61,0 902.67,-17.31 1342.13,-58.67l0 1205.84c-418.36,41.27 -872.77,61.95 -1358.71,61.95z"/>
  <path class="fil2" d="M33435.93 47668.18c-667.27,0 -1234.32,486.25 -1333.43,1154.65 -53.65,364.61 39.43,726.66 262.94,1019.49 222.6,291.82 545.94,476.52 910.14,520.55 2564.87,310.45 4654.96,207.24 5885.17,-290.68 261.3,-105.87 365.74,-544.51 398.4,-727.79 132.9,-743.86 -60.82,-1600.04 -236.63,-1892.16 -1643.97,326.72 -4057.41,299.99 -5821.99,217.37 -21.7,-1.13 -43.21,-1.44 -64.6,-1.44zm5946.7 2952.31l1.85 0 -1.85 0zm-3411.93 1102.12c-998.1,0 -1988.72,-82.22 -2837.33,-185.23 -683.44,-82.53 -1290.31,-429.93 -1708.27,-977.41 -418.67,-549.01 -593.66,-1227.24 -492.7,-1910.29 191.17,-1293.6 1319.6,-2222.58 2623.74,-2161.76 2481.02,116 4498.71,35.63 5682.34,-226.9 215.53,-48.02 950.79,-105.16 1346.94,1168.27 372.19,1197.15 317.72,3213.71 -980.89,3739.38 -1024,414.58 -2334.9,553.93 -3633.82,553.93z"/>
  <path class="fil17" d="M52498.99 50620.5c1715.03,693.9 4368.77,548.91 6178.41,330 1084.83,-131.47 1846.71,-1132.94 1686.78,-2213.98 -145.7,-986.94 -1014.27,-1704.49 -2010.94,-1658 -1691.99,79.66 -4230.54,116.53 -5838.07,-239.9l-16.17 3781.87z"/>
  <path class="fil18" d="M55919.53 50538.59c-819.32,0 -1548.55,-58.98 -2166.67,-175.71l0 -1215.56c678.13,119.79 1416.46,165.55 2149.47,165.55 987.55,0 1965.37,-83.34 2774.67,-181.33 412.73,-49.55 778.36,-225.36 1064.55,-483.69 16.17,56.72 28.56,115.29 37.58,174.99 53.65,364.61 -39.43,726.66 -262.83,1019.49 -222.7,291.82 -546.04,476.52 -910.25,520.55 -970.36,117.55 -1872.71,175.71 -2686.51,175.71z"/>
  <path class="fil2" d="M52720.97 50072.2c1230.52,497.92 3320.3,601.13 5885.06,290.68 364.2,-44.03 687.54,-228.73 910.25,-520.55 223.41,-292.83 316.48,-654.88 262.83,-1019.49 -102.08,-689.8 -701.89,-1184.76 -1398.03,-1153.22 -1764.59,82.62 -4178.02,109.35 -5821.99,-217.37 -175.7,292.12 -369.52,1148.3 -236.63,1892.16 32.76,183.28 137.52,621.92 398.51,727.79zm3189.95 1650.42c-1298.92,0 -2609.82,-139.35 -3633.82,-553.93 -1298.61,-525.67 -1352.98,-2542.23 -980.89,-3739.38 396.15,-1273.43 1131.41,-1216.29 1346.94,-1168.27 1183.32,262.53 3200.92,342.9 5682.74,226.9 1302.6,-62.36 2432.17,868.16 2623.64,2161.76 101.06,683.05 -74.34,1361.28 -493.01,1910.29 -417.96,547.48 -1024.41,894.89 -1708.17,977.41 -848.29,103.01 -1839.74,185.23 -2837.43,185.23z"/>
  <path class="fil17" d="M53161.75 45588.95l0 6060.36c0,1124.34 -920.38,2044.73 -2044.62,2044.73l-11161.42 0c-1122.81,0 -2043.19,-920.39 -2043.19,-2044.73l0 -6060.36c0,-1124.65 920.38,-2043.6 2043.19,-2043.6l11161.42 0c661.95,0 1252.74,318.85 1627.79,810.01 261.41,343.21 416.83,770.9 416.83,1233.59z"/>
  <path class="fil18" d="M51117.85 53102.23l-11161.83 0c-800.59,0 -1452.1,-651.51 -1452.1,-1452.1l0 -1740.93c1787.42,1400.28 4704.51,2256.87 7404.43,2271.51 2.97,0 6.34,0 9.73,0 966.97,0 1745.84,-766.39 1814.55,-1732.64 0.71,-9.41 1.43,-19.14 2.55,-28.87 25.91,-300.1 129.94,-579.84 291.4,-819.02 316.17,471.2 853.94,781.85 1464.58,781.85 611.27,0 1149.74,-311.36 1465.92,-783.79 155.53,232.52 257.3,504.37 287.71,797.62 1150.56,-1420.56 1131.41,-3666.18 1296.97,-5092.37 18.44,92.35 28.17,187.47 28.17,285.05l0 6061.59c0,800.59 -651.51,1452.1 -1452.1,1452.1z"/>
  <path class="fil2" d="M39956.02 44136.45c-800.59,0 -1452.1,651.5 -1452.1,1452.08l0 6061.59c0,800.59 651.51,1452.1 1452.1,1452.1l11161.83 0c800.59,0 1452.1,-651.51 1452.1,-1452.1l0 -6061.59c0,-800.59 -651.51,-1452.08 -1452.1,-1452.08l-11161.83 0zm11161.83 10148.99l-11161.83 0c-1452.81,0 -2634.9,-1182.5 -2634.9,-2635.31l0 -6061.59c0,-1452.9 1182.1,-2635 2634.9,-2635l11161.83 0c1452.9,0 2635,1182.1 2635,2635l0 6061.59c0,1452.81 -1182.1,2635.31 -2635,2635.31z"/>
  <path class="fil19" d="M51253.83 48619.28c0,973.42 -789.32,1762.75 -1762.65,1762.75 -973.42,0 -1762.75,-789.32 -1762.75,-1762.75 0,-973.31 789.32,-1762.64 1762.75,-1762.64 973.33,0 1762.65,789.32 1762.65,1762.64z"/>
  <path class="fil17" d="M51219.21 48971.51c0,-0.72 -0.4,-1.44 -0.4,-2.26 19.55,-96.45 31.23,-195.67 33.89,-296.93 -2.66,102.08 -13.92,201.61 -33.49,299.19zm-3456.89 0c-22.63,-114.47 -34.19,-231.31 -34.19,-352.23 0,-556.08 257.61,-1051.74 659.69,-1374.38 -402.09,322.94 -659.4,818.61 -659.4,1374.38 0,119.39 12.08,236.21 34.62,348.84 0,1.13 -0.42,2.26 -0.72,3.38z"/>
  <path class="fil20" d="M51218.8 48969.25c0,-0.31 -0.31,-0.71 -0.31,-1.13 22.52,-112.94 34.51,-229.76 34.51,-349.15 0,-225.36 -42.4,-439.76 -120.83,-637.68 -47.71,123.89 -109.35,241.13 -182.97,349.66 -317.3,-466.08 -851.99,-772.12 -1457.73,-772.12 -606.76,0 -1141.54,306.04 -1458.85,772.12 -73.62,-108.53 -135.25,-225.77 -183.28,-349.66 -78.52,197.92 -120.51,412.33 -120.51,637.68 0,119.39 11.67,236.21 34.2,348.84l0 0.31c-22.53,-112.63 -34.62,-229.45 -34.62,-348.84 0,-555.77 257.31,-1051.43 659.4,-1374.38 301.94,-242.56 686.11,-387.44 1103.66,-387.44 972.6,0 1761.93,788.2 1761.93,1761.82 0,17.71 0,35.33 -0.71,53.04 -2.66,101.26 -14.34,200.48 -33.89,296.93z"/>
  <path class="fil21" d="M49490.77 50381.21c-853.94,0 -1565.95,-607.16 -1727.72,-1413.39 47.71,-232.11 140.37,-447.95 269.58,-636.86 315.78,466.7 851.28,773.14 1458.14,773.14 607.17,0 1142.67,-306.45 1458.44,-773.14 128.81,189.22 221.98,404.75 269.29,637.17 -161.88,805.92 -873.8,1413.08 -1727.72,1413.08z"/>
  <path class="fil22" d="M51218.5 48968.13c-47.3,-232.42 -140.48,-447.95 -269.29,-637.17 73.62,-108.53 135.26,-225.77 182.97,-349.66 78.43,197.92 120.83,412.33 120.83,637.68 0,119.39 -11.99,236.21 -34.51,349.15zm-3455.45 -0.31c-22.53,-112.63 -34.2,-229.45 -34.2,-348.84 0,-225.36 41.98,-439.76 120.51,-637.68 48.03,123.89 109.66,241.13 183.28,349.66 -129.21,188.91 -221.87,404.75 -269.58,636.86z"/>
  <path class="fil2" d="M49491.18 47300.5c-727.48,0 -1318.88,591.81 -1318.88,1318.78 0,727.38 591.4,1318.89 1318.88,1318.89 726.97,0 1318.78,-591.51 1318.78,-1318.89 0,-726.97 -591.81,-1318.78 -1318.78,-1318.78zm0 3524.98c-1216.69,0 -2206.2,-989.49 -2206.2,-2206.2 0,-1216.29 989.51,-2206.09 2206.2,-2206.09 1216.3,0 2206.1,989.8 2206.1,2206.09 0,1216.7 -989.8,2206.2 -2206.1,2206.2z"/>
  <path class="fil2" d="M44496.4 54137.48c-245.23,0 -443.87,-198.63 -443.87,-443.86l0 -3219.65c0,-551.27 -262.83,-1078.47 -703.32,-1410.01l-471.71 -355.29c-662.05,-498.33 -1057.07,-1290.22 -1057.07,-2119.06l0 -3044.68c0,-245.11 198.63,-443.44 443.55,-443.44 245.23,0 443.87,198.33 443.87,443.44l0 3044.68c0,551.26 262.83,1078.57 703.32,1410.11l471.61 355.19c662.05,498.33 1057.07,1290.32 1057.07,2119.06l0 3219.65c0,245.23 -198.63,443.86 -443.44,443.86z"/>
  <path class="fil18" d="M35556.83 36101.91c-79.56,-63.47 -158.81,-127.27 -236.93,-191.88 -41.27,-31.53 -82.23,-66.44 -121.65,-101.06 -1448.71,-1213.42 -2695,-2644.83 -3698.02,-4236.99 641.38,200.68 1310.49,369.63 2004.39,498.64 893.35,944.03 1886.64,1800.01 2967.37,2548.48 -102.08,190.44 -212.16,379.86 -328.16,570.31 -183.69,301.12 -381.92,603.79 -587,912.49z"/>
  <path class="fil18" d="M57503.09 36514.24c-66.45,-296.31 -133.73,-587.31 -200.89,-872.36 -36.04,-154.3 -72.08,-307.17 -108.53,-458.5 215.53,-132.18 427.78,-268.36 637.99,-408.63 230.58,286.69 469.05,593.04 712.43,915.97 -242.97,207.65 -491.98,408.13 -745.39,601.54 -98.09,75.16 -196.39,149.08 -295.6,221.98z"/>
  <path class="fil2" d="M58544.08 35690.71c-243.38,-322.93 -481.85,-629.28 -712.43,-915.97 187.07,-124.91 372.19,-253.93 554.34,-384.99 218.1,262.12 444.58,541.65 677.73,837.96 -169.66,158.09 -343.21,312.4 -519.63,463.01z"/>
  <path class="fil18" d="M46826.89 40025.29c-846.05,0 -1702.65,-59.39 -2564.46,-182.15 -3302.69,-469.36 -6270.66,-1802.48 -8705.6,-3741.23 205.09,-308.7 403.31,-611.37 587,-912.49 116,-190.45 226.08,-379.87 328.16,-570.31 2000.38,1387.38 4300.78,2409.54 6826.13,2949.95 1334.55,285.77 2666.96,423.18 3980.11,423.18 3562.55,0 6982.69,-1010.9 9915.43,-2808.87 36.45,151.33 72.49,304.2 108.53,458.5 67.17,285.05 134.44,576.05 200.89,872.36 -790.87,581.68 -1627.79,1097.93 -2503.95,1545.58 -2477.63,1262.88 -5264.69,1965.48 -8172.25,1965.48z"/>
  <path class="fil17" d="M64069.77 27176.38c-204.68,-28.68 -347,-218.1 -318.03,-421.85l1501.65 -10664.93c28.57,-204.78 217.79,-347.11 422.06,-318.44l0 0c2145.37,302.06 3639.56,2286.37 3337.6,4431.44l-512.26 3636.9c-301.85,2145.06 -2286.06,3638.94 -4431.02,3336.89z"/>
  <path class="fil12" d="M65622.91 15882.77c-55.6,0 -109.66,18.44 -155.11,52.22 -55.19,41.98 -90.93,102.39 -100.24,170.99l-1501.75 10663.9c-9.73,68.6 7.88,137.21 49.24,191.47 41.67,55.29 102.08,91.13 170.48,101.36 2078.1,293.86 4008.26,-1160.07 4301.2,-3239.61l512.15 -3636.9c292.52,-2078.52 -1160.29,-4007.54 -3239.21,-4300.37 -12.39,-2.05 -24.38,-3.08 -36.77,-3.08zm-1003.82 11447.19c-186.66,0 -375.46,-12.28 -565.5,-38.91 -129.52,-18.44 -244.1,-86.01 -322.53,-190.44 -78.54,-104.44 -111.92,-233.46 -93.59,-362.47l1501.75 -10664.93c18.02,-129.01 85.6,-243.7 190.04,-322.53 104.34,-78.84 233.55,-111.61 362.36,-93.18 1067.92,150.51 2013.5,707.52 2662.34,1568.62 648.95,862.12 923.46,1924.93 773.25,2992.86l-512.26 3635.86c-283.83,2015.03 -2016.87,3475.11 -3995.86,3475.11z"/>
  <path class="fil18" d="M64693.53 26573.31c324.78,-747.45 604.1,-1522.54 833.97,-2322.21 919.67,-63.47 1769.09,-449.49 2416.81,-1059.73l-78.54 558.02c-227.1,1611.61 -1595.85,2788.08 -3172.24,2823.92z"/>
  <path class="fil2" d="M64425.36 26568.19c1686.47,100.34 3200.51,-1116.06 3440.41,-2818.8l511.84 -3635.86c240,-1702.74 -879.01,-3288.77 -2527.9,-3659.42l-1424.36 10114.08zm194.13 1288.06c-211.03,0 -424.3,-14.34 -639.52,-45.06 -268.47,-37.88 -506.12,-177.13 -669.13,-394.2 -163.4,-217.06 -232.52,-484.3 -194.54,-752.56l1501.75 -10663.92c37.88,-269.29 177.96,-506.83 394.61,-669.63 216.66,-163.83 483.69,-233.46 752.15,-194.54 1207.28,169.96 2276.02,799.66 3009.35,1773.39 733.73,973.73 1043.96,2174.76 873.8,3381.94l-512.16 3636.89c-320.69,2277.15 -2279.4,3927.68 -4516.32,3927.68z"/>
  <path class="fil17" d="M30473.89 10814.47c204.68,28.67 347,218.09 318.12,422.86l-1501.75 10663.92c-28.56,204.78 -217.78,347.1 -422.05,318.43l-0.31 0c-2144.97,-302.05 -3639.14,-2286.37 -3337.29,-4431.44l512.26 -3636.89c301.85,-2145.08 2286.16,-3638.94 4431.02,-3336.89z"/>
  <path class="fil12" d="M29918.94 10890.24c-820.56,0 -1615.09,265.19 -2282.37,766.9 -812.26,612.29 -1338.04,1504.11 -1479.54,2510.61l-512.26 3636.89c-141.51,1007.52 117.24,2008.89 728.92,2821.87 611.68,811.95 1503.59,1337.22 2510.29,1479.54 142.33,19.46 272.67,-78.84 292.12,-220.14l1501.75 -10664.94c9.73,-68.59 -7.88,-136.18 -49.25,-191.46 -41.66,-55.29 -102.08,-91.13 -170.47,-100.35 -180.21,-25.6 -360.52,-38.91 -539.19,-38.91zm-998.51 11448.22c-22.52,0 -45.45,-1.02 -68.39,-4.1 -1067.92,-150.51 -2013.5,-708.53 -2662.35,-1569.63 -648.94,-861.1 -923.35,-1923.9 -772.84,-2991.84l511.84 -3636.89c150.51,-1067.93 707.83,-2014.01 1569.23,-2662.14 861.52,-649.15 1924.12,-923.55 2992.15,-773.04 129.52,17.4 244.1,84.99 322.53,189.42 78.54,104.43 111.91,233.45 93.59,362.46l-1501.75 10664.94c-34.11,243.69 -244.1,420.82 -484.01,420.82z"/>
  <path class="fil18" d="M28440.53 21469.17c-654.17,-201.71 -1226.84,-602.05 -1646.63,-1160.08 -527.31,-699.32 -750.31,-1563.49 -627.86,-2430.73l78.13 -555.97c475.7,715.7 1183.93,1273.72 2034.07,1554.27 -5.94,874.42 49.25,1740.63 162.29,2592.52z"/>
  <path class="fil23" d="M30384.51 11449.29l0 0zm-464.44 -31.74c-707.11,0 -1392.09,227.3 -1966.91,660.42 -700.05,527.31 -1152.91,1295.23 -1275.37,2163.49l-511.75 3636.9c-122.45,867.24 100.55,1731.41 627.86,2430.73 473.55,628.68 1140.73,1057.69 1900.05,1227.66l1424.34 -10114.07c-66.04,-4.1 -132.18,-5.12 -198.22,-5.12zm-999.33 11447.19c-46.89,0 -94.19,-3.08 -142.32,-10.24 -1206.87,-169.97 -2275.62,-799.67 -3008.93,-1773.39 -733.42,-973.73 -1043.97,-2174.76 -873.8,-3381.94l512.16 -3636.9c169.76,-1207.18 799.86,-2276.13 1773.49,-3009.24 973.84,-733.11 2174.67,-1043.36 3382.35,-873.38l-0.4 0c268.87,37.88 506.62,178.16 669.52,394.2 163.32,217.07 232.13,484.3 194.54,752.57l-1501.65 10664.94c-71.37,505.81 -507.34,873.38 -1004.96,873.38z"/>
  <path class="fil17" d="M65220.31 22837.1c-2121.72,9911.34 -11876.4,16226.44 -21787.75,14104.82 -9911.75,-2122.14 -16226.34,-11876.83 -14104.72,-21788.16 2121.72,-9911.35 11876.4,-16225.74 21787.75,-14104.22 9911.35,2121.52 16226.34,11876.21 14104.72,21787.56z"/>
  <path class="fil12" d="M47270.34 756.71c-8414.92,0 -15998.84,5868.99 -17829.88,14421.62 -2104.72,9833.54 4182.83,19546.23 14016.16,21650.97 9832.81,2104.72 19545.94,-4182.22 21651.07,-14015.75 2104.72,-9833.52 -4182.83,-19546.23 -14016.06,-21651.37 -1280.99,-274.41 -2561.38,-405.46 -3821.29,-405.46zm7.47 36709.04c-1276.4,0 -2571.83,-133.31 -3869.62,-411.2 -9957.63,-2131.35 -16324.43,-11966.92 -14192.98,-21924.35 2131.45,-9957.42 11966.1,-16325.04 21924.85,-14193.28 9957.52,2131.75 16324.33,11967.33 14192.88,21924.74 -1853.87,8660.15 -9534.65,14604.08 -18055.13,14604.08z"/>
  <path class="fil18" d="M47277.41 36709.08c-1223.77,0 -2467.09,-127.99 -3710.82,-394.31 -4602.63,-985.29 -8405.9,-3687.16 -10882,-7291.28 1098.75,1034.14 2535.79,2134.82 4218.16,3113.67 2062.64,1202.06 4493.38,2221.87 7122.03,2718.45 1593.7,300.72 3153.1,429.93 4640.22,429.53 759.32,0 1499.09,-33.38 2214.38,-95.02 1.95,-0.31 3.08,-0.31 4.92,-0.31 2.97,-0.4 6.04,-0.82 9.01,-1.13 2249.71,-194.85 4257.17,-666.86 5853.12,-1237.17 -2783.67,1763.26 -6055.95,2757.98 -9469.01,2757.56z"/>
  <path class="fil2" d="M65220.31 22837.1l1.85 0 -1.85 0zm-17949.97 -21555.12c-8171.95,0 -15537.37,5701.06 -17315.36,14006.94 -2043.91,9548.88 4061.91,18982.06 13611.61,21025.87 9548.99,2044.02 18982.28,-4061.91 21026.59,-13611.81 2043.91,-9549.91 -4062.32,-18982.06 -13611.61,-21025.77 -1244.14,-266.21 -2487.47,-395.22 -3711.23,-395.22zm7.89 36710.27c-1313.15,0 -2645.56,-137.41 -3980.11,-423.18 -10241.44,-2192.26 -16789.59,-12307.37 -14597.42,-22549.43 2192.27,-10241.04 12308.29,-16788.87 22549.33,-14596.71 10241.44,2192.17 16789.69,12307.27 14597.42,22548.31 -1906.5,8906.9 -9806.19,15021.01 -18569.23,15021.01z"/>
  <path class="fil2" d="M65064.17 23286.58c-698.49,3522.21 -2490.83,6566.27 -4983.11,8884.37 -1868.62,1737.56 -8599.73,4092.83 -16055.97,2683.65 -6913.16,-1306.5 -12462.18,-6231.46 -13526.02,-8550.58 -1419.12,-3093.21 -1913.97,-6590.84 -1215.57,-10114.08 1848.66,-9321.58 10624.5,-11597.71 20505.42,-9638.99 9880.94,1959.74 17123.9,7413.03 15275.24,16735.63z"/>
  <path class="fil24" d="M58958.67 24010.49c-220.86,0 -438.64,-39.94 -647.41,-121.85 -1209.54,-476.11 -1657.18,-2214.69 -1000.35,-3883.65 543.69,-1381.25 1673.26,-2282.27 2732.17,-2282.27 220.85,0 438.94,39.93 647.41,121.85 977.41,384.98 1457.42,1594.21 1258.67,2925.28 -289.86,752.57 -621.41,1481.58 -992.05,2186.02 -571.55,662.46 -1300.46,1054.62 -1998.45,1054.62z"/>
  <path class="fil24" d="M55246.62 28060.01c-193.01,0 -383.76,-47.1 -557.61,-145.39 -615.47,-347.11 -786.35,-1209.23 -381.92,-1925.96 290.28,-515.03 798.02,-815.02 1289.19,-815.02 193.01,0 383.76,47.09 557.61,144.36 615.47,347.11 786.35,1210.25 381.92,1926.98 -290.69,515.03 -798.03,815.03 -1289.19,815.03z"/>
  <path class="fil25" d="M48665 35285.15c-1487.12,0.4 -3046.52,-128.81 -4640.22,-429.53 -2628.66,-496.59 -5059.39,-1516.4 -7122.03,-2718.45 2062.64,1201.03 4493.79,2220.83 7122.34,2717.43 1594.52,301.33 3154.33,430.55 4641.75,430.55 758.6,0 1497.96,-33.38 2212.54,-95.02 -715.29,61.64 -1455.06,95.02 -2214.38,95.02zm2219.3 -95.33c2.97,-0.4 6.04,-0.82 9.01,-1.13 -2.97,0.31 -6.04,0.72 -9.01,1.13z"/>
  <path class="fil26" d="M64891.75 17163.67c-347.41,-1182.61 -883.22,-2268.96 -1582.44,-3263.17 0,0 0,-1.02 0,-1.02 699.22,994.21 1235.03,2081.58 1582.44,3263.17l0 1.02z"/>
  <path class="fil27" d="M56883.12 33902.38c0.4,-1.02 0.81,-1.02 1.12,-1.02 -0.31,0 -0.71,0 -1.12,1.02zm2.96 -1.02c1479.54,-542.67 2591.08,-1169.3 3194.98,-1730.4 410.38,-381.92 802.13,-783.28 1173.08,-1204.1 -370.65,420.82 -762.29,822.18 -1172.67,1204.1 -603.9,561.09 -1715.86,1187.73 -3195.39,1730.4zm8090.86 -16432.56c-27.03,-102.39 -55.19,-204.78 -85.19,-305.13l0 -1.02c29.7,101.37 58.16,203.76 85.19,306.15z"/>
  <path class="fil28" d="M48666.84 35285.15c-1487.42,0 -3047.23,-129.22 -4641.75,-430.55 -2628.55,-496.6 -5059.7,-1516.4 -7122.34,-2717.43 -2.97,-2.04 -6.05,-3.08 -9.42,-5.12 1797.25,300.01 3557.23,431.06 5242.26,431.06 6941.32,0 12618.74,-2217.77 14483.15,-3952.25 1744.32,-1622.88 3218.63,-3525.29 4338.37,-5654.99 295.18,-341.99 548.6,-756.67 733.72,-1227.66 125.84,-319.46 211.44,-641.98 258.33,-958.37 423.28,-1097.62 757.49,-2245.41 993.7,-3435.18 237.34,-1193.87 354.88,-2338.58 366.45,-3434.16 699.22,994.21 1235.03,2080.56 1582.44,3263.17 30,100.35 58.16,202.74 85.19,305.13 456.35,1737.55 511.54,3675.79 87.23,5816.77 -583.62,2942.69 -1930.56,5550.56 -3810.03,7681.3 -370.95,420.82 -762.7,822.18 -1173.08,1204.1 -603.9,561.09 -1715.44,1187.73 -3194.98,1730.4 -0.71,0 -1.43,0 -1.84,0 -0.31,0 -0.71,0 -1.12,1.02 -1617.66,592.84 -3675.18,1085.33 -5989.82,1286.32 -2.97,0.31 -6.04,0.72 -9.01,1.13 -1.54,0 -3.79,0 -4.92,0.31 -714.58,61.64 -1453.94,95.02 -2212.54,95.02z"/>
  <path class="fil29" d="M60957.11 22955.87c370.64,-704.44 702.19,-1433.46 992.05,-2186.02 -46.89,316.39 -132.49,638.91 -258.33,958.37 -185.12,470.99 -438.53,885.67 -733.72,1227.66z"/>
  <path class="fil2" d="M65147.11 15375.94c-164.13,0 -326.72,-70.65 -438.95,-205.8l-49.55 -57.34 -33.8 -74.75c-2175.48,-4822.56 -7524.23,-8402.11 -14675.54,-9821.24 -7190.74,-1425.26 -13509.94,-78.83 -17338.3,3695.26l-43.92 38.91c-238.87,193.52 -590.69,163.82 -791.99,-71.67 -200.48,-233.46 -178.37,-583.63 46.18,-790.45 4102.97,-4035.19 10790.05,-5489.13 18349.91,-3990.13 7503.96,1488.74 13144.21,5293.56 15480.64,10442.74 125.84,238.57 66.86,540.63 -152.87,712.63 -104.34,81.92 -228.34,121.85 -351.81,121.85z"/>
  <path class="fil24" d="M32201.61 22532.99c0,0 -1063.42,-9769.02 4619.63,-12450.61 2585.85,-1220.49 5470.9,-1590.11 7823.1,-1590.11 2817.46,0 4870.48,529.35 4730,760.75 0,0 -8273,346.08 -12599.28,5974.46 -3336.07,4339.28 -4573.46,7305.51 -4573.46,7305.51z"/>
  <path class="fil12" d="M61076.91 78489.29c0,250.86 -203.14,454 -454,454 -250.44,0 -453.69,-203.14 -453.69,-454 0,-250.44 203.25,-453.58 453.69,-453.58 250.86,0 454,203.14 454,453.58z"/>
  <path class="fil11" d="M57316.54 78075.43c-497.62,-30.41 -981.62,-134.03 -1442.78,-301.85 170.89,-78.83 339.84,-157.37 508.47,-236.21 298.88,204.99 610.55,384.88 934.31,538.06zm-21797.18 0c1880.49,-891.41 3384.09,-2690.5 4063.75,-4948.09 471.31,-173.14 939.64,-347.42 1404.49,-522.7 -524.96,3034.12 -2795.77,5307.89 -5468.25,5470.79zm18235.75 -1680.42c-1385.24,-1399.87 -2212.55,-3539.62 -1983.09,-5916.91 122.04,-1264 296.62,-2061.62 462.59,-2642.98 328.27,-157.27 650.38,-313.93 968.1,-470.49 -38.29,194.13 -75.87,403.32 -111.92,630.11 -67.99,425.12 -130.64,911.37 -185.12,1474.31 -10.54,108.53 -19.14,216.66 -26.31,324.48 -63.38,993.59 25.18,1949.6 240.31,2842.64 0.82,2.97 1.53,6.35 2.66,9.32 0,1.53 0.42,2.25 0.82,3.79 266.93,1100.28 725.84,2104.41 1330.04,2964.29 83.35,118.36 168.94,233.55 257.2,346.18 -313.93,144.67 -631.96,289.55 -955.29,435.25zm-13782.51 -5686.73c11.99,-405.57 -1.53,-819.43 -42.08,-1239.23 -176.83,-1832.88 -445.4,-2856.89 -677.82,-3590.3 -330.11,-1040.17 -588.44,-1495.71 -414.17,-2844.9 7.07,-55.6 15.05,-112.63 23.65,-171.2 125.42,-850.15 759.63,-1501.75 1583.87,-1997.43 1250.89,-149.8 2499.43,-223.82 3741.63,-223.82 3168.25,0 6289.2,479.9 9264.76,1393.53 2.97,674.44 140.07,1261.44 499.05,1756.29 31.94,44.33 65.73,87.54 100.64,129.21 -6.04,248.19 -33.79,464.13 -76.99,670.65 -418.36,217.48 -849.84,436.8 -1291.76,657.14 -8.6,-71.36 -18.43,-145.29 -29.69,-223 -343.21,-2326.7 -5302.98,-2850.53 -5302.98,-2850.53l-1865.55 0c0,0 -4959.86,523.83 -5302.67,2850.53 -298.57,2022.1 493.42,1716.46 863.67,5275.95 -355.2,135.97 -714.28,272.26 -1073.56,407.1z"/>
  <path class="fil13" d="M55873.75 77773.58c-786.35,-286.49 -1506.56,-760.45 -2118.65,-1378.57 323.34,-145.7 641.36,-290.59 955.29,-435.25 485.23,618.53 1049.6,1151.37 1671.82,1577.62 -168.63,78.84 -337.58,157.38 -508.47,236.21z"/>
  <path class="fil13" d="M39583.11 73127.34c228.74,-760.04 364.31,-1572 389.49,-2419.07 359.28,-134.84 718.37,-271.13 1073.56,-407.1 6.04,57.84 11.98,116.82 17.61,176.92 70.96,736.29 40.96,1450.15 -76.17,2126.54 -464.86,175.28 -933.18,349.56 -1404.49,522.7zm12651.51 -5292.23c307.58,-1076.94 586.18,-1410.42 448.77,-2586.89 441.92,-220.34 873.39,-439.66 1291.76,-657.14 -148.67,712.02 -484.41,1316.94 -772.43,2773.54 -317.72,156.56 -639.83,313.22 -968.1,470.49z"/>
  <path class="fil30" d="M53452.44 62034.93c-2975.55,-913.63 -6096.51,-1393.53 -9264.76,-1393.53 -1242.2,0 -2490.74,74.02 -3741.63,223.82 392.45,-235.39 828.03,-435.98 1272.29,-605.63l9398.78 0c919.57,351.09 1801.35,833.97 2341.35,1488.85 -4.61,97.27 -6.76,192.7 -6.04,286.49z"/>
  <path class="fil2" d="M51117.13 60259.59l-9398.78 0c1718.31,-655.71 3568.49,-850.97 3568.49,-850.97l2260.57 0c0,0 1850.9,195.25 3569.72,850.97z"/>
  <path class="fil12" d="M54052.13 63920.44c-34.91,-41.67 -68.7,-84.88 -100.64,-129.21 -358.98,-494.85 -496.08,-1081.86 -499.05,-1756.29 -0.72,-93.79 1.43,-189.22 6.04,-286.49 153.9,186.65 280.04,387.55 371.37,603.08 68.71,161.47 117.55,331.64 143.86,510.31 57.03,386.11 81.09,701.88 79.56,977.1 0,27.86 -0.4,54.88 -1.13,81.51z"/>
  <path class="fil17" d="M51507.64 55767.95c0,0 7651.09,-4460.01 13981.15,1973.36 5817.48,5911.79 -981.93,11745.05 -981.93,11745.05 0,0 2095.31,8056.24 -3345.08,9089.66 -4617.37,876.86 -8789.36,-3585.8 -8256.11,-9106.97 438.64,-4539.97 1435.2,-4117.2 1068.03,-6607.22 -415.81,-2819 -6425.48,-3453.92 -6425.48,-3453.92l-2260.66 0c0,0 -6009.68,634.91 -6425.38,3453.92 -367.27,2490.02 629.7,2067.25 1067.92,6607.22 533.66,5521.17 -3638.73,9983.84 -8255.7,9106.97 -5440.39,-1033.42 -3345.08,-9089.66 -3345.08,-9089.66 0,0 -6799.41,-5833.26 -982.33,-11745.05 6330.05,-6433.36 13981.13,-1973.36 13981.13,-1973.36l10179.5 0z"/>
  <path class="fil31" d="M59996.59 78686.8c-941.48,0 -1847.93,-217.06 -2680.06,-611.37l0.31 0c832.11,394.31 1738.27,611.07 2679.34,611.07 72.08,0 143.75,-1.23 216.24,-3.79l0 0.31c-72.07,2.66 -143.75,3.78 -215.83,3.78zm1067.92 -92.76c0,-0.31 0.4,-0.31 0.4,-0.31 32.25,-5.63 64.2,-11.68 96.87,-17.71 1311.62,-249.33 2185.51,-907.18 2756.23,-1761.52 19.97,-3.37 40.24,-6.76 60.41,-10.13 40.25,-6.76 80.48,-14.65 120.62,-22.52 -560.69,841.84 -1478,1518.13 -2936.95,1794.58 -32.25,6.05 -64.92,11.99 -97.58,17.62z"/>
  <path class="fil12" d="M60212.42 78683.02l0 -0.31c281.27,-10.14 566.32,-39.43 852.5,-88.98 0,0 -0.4,0 -0.4,0.31 -285.77,49.55 -570.82,78.83 -852.09,88.98z"/>
  <path class="fil32" d="M57316.84 78075.43l-0.31 0c-323.76,-153.17 -635.44,-333.07 -934.31,-538.06l0 0c299.29,204.99 610.96,384.88 934.62,538.06zm-2606.44 -2115.68c-88.26,-112.63 -173.86,-227.82 -257.2,-346.18 82.93,118.36 168.94,233.55 257.2,346.18l0 0z"/>
  <path class="fil33" d="M56382.22 77537.37c-622.22,-426.25 -1186.59,-959.08 -1671.82,-1577.62l0 0c485.23,618.53 1049.6,1151.37 1671.82,1577.62l0 0z"/>
  <path class="fil31" d="M32839.71 78686.8c-383.86,0 -772.84,-36.03 -1165.61,-110.37 -1458.84,-276.45 -2376.26,-952.74 -2936.95,-1794.58 40.25,7.88 80.38,15.76 120.52,22.52 20.28,3.37 40.24,6.76 60.1,10.13 570.82,854.34 1444.62,1512.19 2756.65,1761.52 392.46,74.33 781.44,110.48 1165.3,110.48 940.97,0 1846.71,-216.77 2678.93,-611.07 0.31,0 0.31,0 0.71,0 -832.11,394.72 -1738.27,611.37 -2679.64,611.37z"/>
  <path class="fil32" d="M35518.64 78075.43c1880.9,-891.1 3384.5,-2690.19 4064.17,-4948.09l0.3 0c-679.66,2257.59 -2183.26,4056.68 -4063.75,4948.09 -0.4,0 -0.4,0 -0.71,0zm4453.56 -7367.16c11.98,-405.57 -1.54,-819.43 -42.09,-1239.23 -176.83,-1832.88 -444.98,-2856.89 -677.41,-3590.3 232.42,733.42 501,1757.42 677.82,3590.3 40.55,419.8 54.06,833.66 42.08,1239.23 -0.82,0.4 0.42,0 -0.4,0z"/>
  <path class="fil33" d="M39582.81 73127.34c229.04,-760.04 364.19,-1572 389.39,-2419.07 0.82,0 -0.42,0.4 0.4,0 -25.18,847.07 -160.75,1659.02 -389.49,2419.07l-0.3 0z"/>
  <path class="fil32" d="M53123.15 72649.28c-0.4,-1.54 -0.82,-2.26 -0.82,-3.79 0,1.53 0.42,2.25 0.82,3.79zm-3.48 -13.11c-215.13,-893.04 -303.69,-1849.05 -240.31,-2842.64 -63.38,993.59 25.18,1949.6 240.31,2842.64zm-28.88 -4641.43c36.04,-226.79 73.63,-435.98 111.92,-630.11l0 0c-38.29,194.13 -75.87,403.32 -111.92,630.11zm884.35 -3403.65c43.21,-206.51 70.96,-422.46 76.99,-670.65l0 0c-6.04,248.19 -33.48,463.72 -76.59,670.65l-0.4 0z"/>
  <path class="fil33" d="M53202.71 67364.62c288.02,-1456.6 623.76,-2061.52 772.43,-2773.54l0.4 0c-149.08,712.33 -484.4,1316.94 -772.84,2773.54l0 0z"/>
  <path class="fil12" d="M54052.13 63920.44l0 0c0.72,-26.62 1.13,-53.65 1.13,-81.51 0,27.44 -0.4,54.88 -1.13,81.51z"/>
  <path class="fil32" d="M38838.53 63033.84c7.07,-56.01 15.05,-113.04 23.65,-172.02 125.42,-849.73 758.91,-1500.93 1583.15,-1996.19l0.72 -0.42c-824.25,495.67 -1458.45,1147.28 -1583.87,1997.43 -8.6,58.57 -16.58,115.6 -23.65,171.2z"/>
  <path class="fil34" d="M53458.48 61748.44c-540,-654.88 -1421.78,-1137.76 -2341.35,-1488.85l1.44 0c919.25,351.09 1800.21,833.55 2339.91,1488.44 0,0.42 0,0.42 0,0.42zm-13013.14 -882.8c392.05,-235.81 827.62,-436.39 1271.89,-606.05l1.12 0c-444.26,169.65 -879.83,370.24 -1272.29,605.63l-0.72 0.42z"/>
  <path class="fil12" d="M51118.57 60259.59l-1.44 0c-1718.82,-655.71 -3569.72,-850.97 -3569.72,-850.97l-2260.57 0c0,0 -1850.18,195.25 -3568.49,850.97l-1.12 0c1718.71,-656.12 3570.34,-851.68 3570.34,-851.68l2260.66 0c0,0 1851.62,195.56 3570.34,851.68z"/>
  <path class="fil12" d="M53829.84 62351.52c-91.33,-215.53 -217.47,-416.42 -371.37,-603.08 0,0 0,0 0,-0.42 153.9,186.66 280.04,387.96 371.37,603.49z"/>
  <path class="fil18" d="M59996.18 78686.5c-941.06,0 -1847.22,-216.77 -2679.34,-611.07 -323.66,-153.17 -635.33,-333.07 -934.62,-538.06 -622.22,-426.25 -1186.59,-959.08 -1671.82,-1577.62 -88.26,-112.63 -174.27,-227.82 -257.2,-346.18 -604.2,-859.88 -1063.11,-1864.01 -1330.04,-2964.29 -0.4,-1.54 -0.82,-2.26 -0.82,-3.79 -1.13,-2.97 -1.84,-6.35 -2.66,-9.32 -215.13,-893.04 -303.69,-1849.05 -240.31,-2842.64 7.17,-107.82 15.78,-215.95 26.31,-324.48 54.48,-562.94 117.13,-1049.19 185.12,-1474.31 36.04,-226.79 73.63,-435.98 111.92,-630.11 288.43,-1456.6 623.76,-2061.21 772.84,-2773.54 43.11,-206.93 70.55,-422.46 76.59,-670.65 0.72,-26.62 1.13,-54.06 1.13,-81.51 1.53,-274.92 -22.52,-590.69 -79.25,-976.28 -26.31,-179.18 -75.46,-349.26 -144.17,-511.13 -91.33,-215.53 -217.47,-416.83 -371.37,-603.49 -539.7,-654.88 -1420.66,-1137.35 -2339.91,-1488.44 -1718.72,-656.12 -3570.34,-851.68 -3570.34,-851.68l-2260.66 0c0,0 -1851.63,195.56 -3570.34,851.68 -444.27,169.65 -879.85,370.24 -1271.89,606.05 -824.24,495.26 -1457.73,1146.46 -1583.15,1996.19 -8.6,58.97 -16.58,116 -23.65,172.02 -174.68,1348.89 84.06,1804.73 414.17,2844.9 232.42,733.42 500.58,1757.42 677.41,3590.3 40.55,419.8 54.06,833.66 42.09,1239.23 -25.2,847.07 -160.35,1659.02 -389.39,2419.07 -679.66,2257.9 -2183.27,4056.99 -4064.17,4948.09 -832.22,394.31 -1737.96,611.07 -2678.93,611.07 -383.86,0 -772.84,-36.15 -1165.3,-110.48 -1312.02,-249.33 -2185.82,-907.18 -2756.65,-1761.52 456.97,75.46 910.66,111.92 1356.77,111.92 4903.46,0 8996.9,-4401.44 8417.16,-9862.51 -523.52,-4916.25 -1710.83,-4458.15 -1272.3,-7155.82 494.96,-3052.55 7652.32,-3740.2 7652.32,-3740.2l2692.75 0c0,0 7157.36,687.65 7652.32,3740.2 437,2697.66 -750.32,2239.57 -1272.3,7155.82 -579.84,5460.67 3514.12,9862.09 8417.16,9862.51 446.53,0 898.98,-36.46 1356.36,-111.92 -570.72,854.34 -1444.61,1512.19 -2756.23,1761.52 -32.67,6.04 -64.61,12.08 -96.87,17.71 -286.18,49.55 -571.23,78.83 -852.5,88.98 -72.49,2.55 -144.16,3.79 -216.24,3.79z"/>
  <path class="fil2" d="M51408.53 55597.57c1021.03,-701.89 2157.36,-1176.98 3349.89,-1502.48 595.6,-165.26 1208.1,-272.26 1826.94,-345.16 619.98,-61.23 1247.11,-72.38 1873.84,-38.29 627.44,34.91 1250.49,142.73 1865.13,283.11 616.29,139.76 1209.94,362.04 1793.47,602.35 1153.22,516.76 2209.88,1227.56 3142.76,2056.7 924.79,822.4 1761.11,1808.83 2361.21,2949.34 290.28,575.94 523.41,1187.31 664.61,1826.12 133.31,639.83 175.39,1298.92 126.96,1946.64 -95.01,1300.76 -541.54,2534.76 -1166.32,3624.5 -312.49,547.08 -669.93,1063.43 -1059.32,1551.62 -196.49,242.56 -398.09,481.03 -612.09,708.95 -106.69,114.98 -215.22,227.61 -327.13,338.71 -114.47,113.45 -220.04,215.63 -356.73,335.32l187.38 -597.75c108.53,441.92 181.02,849.73 245.94,1277.11 62.76,423.18 108.94,849.02 137.1,1277.52 57.44,856.49 42.48,1726.19 -89.39,2598.14 -70.54,435.57 -167.1,871.54 -310.54,1300.76 -147.96,427.69 -338.3,847.89 -583.12,1245.58 -253.93,393.18 -564.47,755.94 -923.86,1068.02 -365.33,306.36 -778.78,547.9 -1209.53,734.45 -434.03,169.05 -885.06,296.73 -1330.46,358.26 -221.87,40.55 -448.37,51.08 -673.32,71.78 -225.56,2.55 -452.04,15.76 -677.72,-2.67 -452.15,-18.02 -901.65,-90.1 -1338.34,-202.73 -439.04,-107.82 -862.94,-267.04 -1268.51,-460.04 -1629.02,-774.27 -2911.76,-2130.64 -3718.28,-3693.21 -807.45,-1568.93 -1157.83,-3351.84 -1050.73,-5096.15 24.38,-443.45 79.56,-850.46 126.86,-1272.61l90.11 -629.7 111.19 -629.7c86.72,-419.49 180.21,-840.82 304.51,-1254.28 117.64,-412.73 265.5,-819.72 376.28,-1183.21 111.19,-364.3 165.26,-684.58 161.47,-1046.62 3.79,-87.86 -3.68,-180.93 -9.73,-273.69 -6.04,-92.46 -10.13,-184.41 -24.47,-280.55l-34.91 -285.77c-18.02,-75.87 -27.74,-145.7 -49.15,-217.37 -168.23,-566.32 -712.01,-1066.9 -1364.25,-1431.51 -653.04,-370.25 -1398.44,-639.53 -2160.01,-851.28 -759.22,-208.46 -1563.29,-368.4 -2329.99,-461.47l61.95 2.97 -2260.66 0 62.36 -2.97c-767.22,93.08 -1571.18,253.01 -2330.4,461.47 -761.57,211.74 -1506.98,481.03 -2160.02,851.28 -651.82,364.61 -1195.6,865.19 -1363.83,1431.51 -21.41,71.67 -31.23,141.5 -49.56,217.37l-34.91 285.77c-14.34,96.14 -18.43,188.09 -24.06,280.55 -6.35,92.77 -13.93,185.83 -10.14,273.69 -3.79,362.04 50.38,682.33 161.88,1046.62 110.37,363.49 258.33,770.48 376.28,1183.21 123.89,413.45 217.37,834.79 304.51,1254.28l111.1 629.7 89.79 629.7c47.3,422.15 102.5,829.16 126.86,1272.61 107.11,1744.32 -242.87,3527.23 -1050.21,5096.15 -806.62,1562.56 -2089.37,2918.93 -3718.81,3693.21 -405.46,193 -829.45,352.22 -1268.09,460.04 -437.11,112.63 -886.59,184.7 -1338.65,202.73 -225.77,18.44 -452.16,5.23 -677.82,2.67 -224.95,-20.69 -451.43,-31.23 -673.32,-71.78 -445.39,-61.54 -896.01,-189.22 -1330.45,-358.26 -430.75,-186.56 -843.79,-428.09 -1209.53,-734.45 -359.39,-312.08 -669.95,-674.84 -923.76,-1068.02 -244.5,-397.69 -435.27,-817.89 -583.21,-1245.58 -143.04,-429.22 -239.49,-865.19 -310.55,-1300.76 -131.77,-871.95 -146.82,-1741.65 -89.28,-2598.14 28.15,-428.51 74.22,-854.34 137,-1277.52 65.02,-427.38 137.41,-835.19 245.94,-1277.11l187.38 597.75c-136.7,-119.7 -241.75,-221.87 -356.73,-335.32 -111.92,-111.1 -220.34,-223.73 -327.03,-338.71 -214,-227.92 -415.7,-466.39 -612.09,-708.95 -389.48,-488.19 -746.52,-1004.55 -1059.32,-1551.62 -623.76,-1090.14 -1073.26,-2323.33 -1164.17,-3624.5 -46.18,-648.12 -2.15,-1306.39 133.31,-1944.8 143.55,-637.27 377.82,-1247.1 669.93,-1820.8 607.27,-1134.16 1446.87,-2111.59 2375.55,-2924.97 929.8,-826.08 1975.61,-1545.27 3126.16,-2062.34 1143.8,-526.08 2385.28,-865.2 3643.24,-954.48 628.57,-46.58 1258.38,-30.1 1882.03,23.65 622.23,64.2 1236.98,176.42 1837.49,333.39 598.17,165.66 1182.1,374.03 1741.55,632.36 560.27,260.99 1094.65,556.18 1593.29,939.64 87.23,67.17 103.31,191.77 36.45,278.6 -53.24,69.42 -144.17,93.79 -222.6,66.45l-12.39 -4.1c-1101.1,-384.99 -2238.85,-669.93 -3365.45,-857.73 -565.09,-93.88 -1132.54,-145.29 -1697.32,-182.15 -283.1,-3.37 -565.91,-20.27 -847.17,-7.88 -140.78,4.09 -281.98,3.78 -422.46,10.85l-420.52 30.52c-1118.3,96.85 -2220.12,355.9 -3251.6,802.01 -515.53,222.7 -1013.86,489.33 -1485.88,800.29 -472.83,308.6 -927.14,650.38 -1347.76,1034.14 -862.94,754.81 -1593.28,1621.44 -2113.74,2589.54 -247.89,488.2 -443.14,997.79 -562.53,1524.58 -111.19,528.03 -147.54,1069.16 -109.66,1609.47 75.05,1081.85 454.31,2148.34 1011.61,3121.66 278.6,487.79 601.54,954.58 954.89,1398.03 178.47,220.45 362.05,437.51 555.88,643.62 96.03,103.72 194.03,205.4 293.65,304.2 96.87,96.56 206.11,200.89 293.65,277.48l274.82 241.13 -87.44 356.72c-87.96,359.39 -162.69,764.55 -220.54,1152.81 -58.16,392.76 -100.96,787.89 -126.86,1182.5 -53.35,789.02 -37.17,1578.34 77.72,2338.69 61.94,378.22 144.57,749.9 262.93,1104.07 121.95,351.4 275.23,684.88 462.2,991.34 195.25,300.01 426.25,567.03 688.67,797.62 268.16,223.73 572.67,401.06 898.27,544.4 334.61,126.97 681.2,229.87 1053.69,280.96 183.99,34.91 370.96,41.26 556.49,59.69 186.66,0.71 372.91,13.92 558.74,-2.66 372.6,-13.83 742.43,-73.93 1103.67,-167.1 362.77,-88.16 714.98,-221.17 1054.1,-382.22 1361.18,-645.57 2472.42,-1804.73 3175.32,-3167.84 703.42,-1368.33 1015.82,-2936.54 920.39,-4484.37 -19.86,-380.48 -74.34,-791.99 -119.39,-1189.36l-84.88 -595.51 -103.62 -588.84c-81.09,-387.84 -165.97,-772.73 -279.31,-1150.14 -108.23,-380.79 -243.39,-749.18 -374.13,-1175.03 -132.91,-423.17 -219.63,-924.88 -211.34,-1388.61 -3.37,-118.37 4.81,-230.99 12.39,-344.34 7.16,-113.45 13.1,-227.61 28.88,-335.32l40.55 -328.56c24.77,-125.44 48.42,-260.28 86.41,-385.7 154.3,-509.6 454.71,-945.16 794.95,-1286.95 342.08,-345.05 725.13,-609.02 1116.05,-832.84 784.42,-443.55 1605.69,-733.42 2431.46,-963.89 831.71,-226.9 1650.32,-392.05 2521.15,-498.03l26.73 -3.37 2331.11 0 27.03 3.37c870.94,105.98 1689.13,271.13 2521.25,498.03 825.37,230.48 1646.63,520.35 2431.46,963.89 390.61,223.82 773.96,487.79 1116.05,832.84 339.83,341.79 640.25,777.35 794.65,1286.95 37.88,125.42 61.54,260.27 86.32,385.7l40.55 328.56c15.76,107.71 21.81,221.87 28.97,335.32 7.47,113.35 15.78,225.97 12.39,344.34 8.2,463.73 -78.54,965.44 -211.43,1388.61 -130.76,425.85 -265.5,794.24 -374.03,1175.03 -113.45,377.41 -198.33,762.3 -279.01,1150.14l-104.03 588.84 -84.88 595.51c-44.64,397.37 -99.53,808.88 -119.39,1189.36 -95.02,1547.83 217.06,3116.04 920.38,4484.37 702.91,1363.12 1814.15,2522.28 3175.32,3167.84 339.11,161.05 691.34,294.07 1054.11,382.22 361.23,93.17 731.16,153.27 1103.66,167.1 185.84,16.58 372.49,3.37 558.74,2.66 185.53,-18.44 372.49,-24.78 556.5,-59.69 372.9,-51.09 719.08,-153.99 1053.69,-280.96 325.59,-143.34 630.1,-320.68 898.27,-544.4 262.83,-230.58 493.82,-497.61 688.67,-797.62 187.38,-306.46 340.24,-639.94 462.29,-991.34 118.26,-354.18 200.88,-725.85 262.83,-1104.07 114.98,-760.35 131.47,-1549.67 78.12,-2338.69 -26.31,-394.61 -68.7,-789.74 -127.27,-1182.5 -57.85,-388.26 -132.18,-793.42 -220.45,-1152.81l-87.54 -356.72 274.92 -241.13c87.43,-76.59 197.2,-180.93 293.65,-277.48 99.53,-98.39 197.51,-200.48 294.07,-304.2 193.32,-206.11 377,-423.17 555.37,-643.62 353.35,-443.45 676.28,-910.25 954.88,-1398.03 556.59,-973.31 938.82,-2039.4 1009.77,-3122.07 35.73,-539.9 -2.66,-1080.31 -116,-1607.11 -121.65,-525.36 -318.43,-1033.01 -567.76,-1519.06 -526.49,-962.77 -1263.59,-1817.01 -2125.82,-2568.14 -848.6,-752.87 -1799.09,-1374.38 -2817.15,-1842.2 -1023.59,-454.4 -2115.99,-755.94 -3239.51,-862.94 -1122.4,-116.82 -2269.27,-62.36 -3405.19,121.64 -1132.54,187.07 -2273.05,494.24 -3350.71,924.58l-13.52 5.23c-101.46,40.55 -216.35,-8.71 -256.48,-110.08 -34.92,-87.44 -2.97,-184.71 71.36,-236.11z"/>
  <path class="fil2" d="M64731.41 70036.08l-407 129.52c-150.31,42.39 -301.64,81.51 -453.69,110.48 -304.2,61.13 -609.42,94.61 -911.37,103.92 -604.19,19.56 -1194.17,-51.09 -1762.22,-172.31 -565.61,-134.86 -1112.36,-310.55 -1635.48,-532.43 -263.55,-104.03 -515.12,-237.34 -770.9,-353.76 -250.14,-130.34 -495.66,-268.16 -742.02,-400.76 267.04,87.85 531,179.9 796.5,263.25 270.71,69.1 535.09,154.71 806.93,209.18 539.29,124.31 1084.92,196.39 1624.11,228.34 539.59,18.43 1073.66,-15.05 1579.78,-122.77 253.11,-52.94 498.03,-126.24 731.16,-218.19 116.82,-44.64 229.87,-96.85 341.68,-151.33l366.14 -193c290.69,-152.88 650.49,-41.36 803.66,249.32 152.87,290.59 41.27,650.38 -249.32,803.25 -30.41,16.18 -62.05,29.28 -93.59,39.73l-24.37 7.58z"/>
  <path class="fil2" d="M28600.46 68936.21l366.45 193c111.61,54.48 224.65,106.69 341.37,151.33 233.24,91.95 478.06,165.26 731.17,218.19 506.21,107.72 1040.17,141.2 1579.77,122.77 539.29,-31.94 1084.93,-104.03 1624.53,-228.34 271.44,-54.47 535.8,-140.07 806.53,-209.18 265.5,-83.35 529.55,-175.4 796.49,-263.25 -246.35,132.6 -491.58,270.41 -742.02,400.76 -255.67,116.42 -506.94,249.73 -770.9,353.76 -523.1,221.87 -1069.87,397.57 -1635.36,532.43 -568.16,121.22 -1157.73,191.88 -1762.23,172.31 -301.95,-9.31 -607.28,-42.79 -911.48,-103.92 -152.05,-28.97 -303.38,-68.09 -453.58,-110.48l-406.7 -129.52 -21.4 -6.76c-313.22,-99.52 -486.25,-433.72 -386.73,-746.94 99.53,-313.1 434.03,-486.24 747.24,-386.73 32.67,10.45 67.18,25.09 96.87,40.56z"/>
  <path class="fil2" d="M67577.02 65178.4c-30.82,0 -61.94,-3.37 -93.07,-10.13 -239.6,-51.09 -392.46,-286.9 -340.97,-526.49 204.27,-954.18 55.5,-1630.87 -455.12,-2068.69 -2117.22,-1816.7 -9725.5,503.97 -12478.36,1551.62 -229.05,87.14 -485.23,-27.75 -572.36,-256.8 -87.14,-229.14 27.85,-485.22 256.9,-572.36 1063.42,-404.75 10474.18,-3882.01 13371.3,-1396.08 769.46,660.11 1019.91,1645.09 745.1,2928.14 -44.33,208.06 -228.34,350.79 -433.42,350.79z"/>
  <path class="fil2" d="M25437.13 65178.4c-204.68,0 -388.67,-142.73 -433.32,-350.79 -274.92,-1283.05 -24.07,-2268.03 744.99,-2928.14 2897.43,-2485.92 12308.29,991.34 13371.71,1396.08 229.04,87.14 343.92,343.21 256.9,572.36 -87.14,228.64 -343.63,343.52 -572.67,256.8 -2753.27,-1047.35 -10362.38,-3367.61 -12477.96,-1551.62 -510.71,438.24 -659.49,1114.93 -455.22,2068.69 51.09,239.59 -101.37,475.4 -340.96,526.49 -31.54,6.76 -62.66,10.13 -93.48,10.13z"/>
  <path class="fil35" d="M54827.67 43084.04c12.1,-2.15 37.48,-17.72 50.16,-23.93l448.15 -220.83c33.16,-17.12 66.55,-32.9 100.12,-49.52 66.45,-32.96 132.98,-65.93 200.31,-98.97l211.78 -104.23c10.89,-5.41 18,-4.42 15.73,-18.53 -1.28,-8.07 -1.03,-9.89 -1.43,-15.7l-11.74 -126.12c-1.28,-8.96 -1.7,-22.67 -2.32,-31.11 -0.88,-12.67 -2.9,-20.77 -3.44,-33.33 -1.84,-38.45 -8.11,-85.4 -10.99,-125.52l-5.73 -62.91c-1.39,-9.68 -2.53,-21.48 -2.86,-31.51 -1.01,-31.9 -7.5,-64.29 -8.98,-96.12 -1.47,-31.34 -5.65,-64.78 -8.79,-95.99l-10.84 -126.91c-2.27,-31.36 -7.59,-62.1 -8.59,-94.42l-48.27 -537.66c-3.09,-31.38 -7.27,-64.34 -8.79,-95.99l-11.75 -127.56c-6.28,-51.53 -7.8,-107.14 -14.43,-158.92 -4.01,-31.15 -4.03,-63.88 -8.13,-94.11 -4.11,-30.71 -4.98,-62.8 -8.23,-94.16 -3.18,-31.44 -7.32,-64.24 -8.79,-95.99 -0.51,-11.04 -2.28,-20.96 -3.32,-31.82l-24.76 -275.29 -338.33 -309.66c-795.5,76.37 -1578.8,257.97 -2336.73,448.43 3.68,20.71 10.76,35.08 16.33,62.25l24.72 91.3c3.35,11.58 5.01,21.36 7.97,32.93l65.63 248.09c6.71,20.01 9.63,40.94 16.35,61.03l24.45 93.85c1.79,7.74 6.17,23.33 8.38,30.27l16.72 62.64c10.79,42.02 23.17,83.04 32.63,124.33 9.43,41.13 24.43,84.19 32.64,124.4 4.03,19.92 12.03,41.24 16.18,61.38 5.77,28.33 31.32,120.61 41.12,154.42 3.35,11.58 5.01,21.36 7.97,32.93l122.53 464.36c6.88,29.98 17.56,63.71 25.1,92.93l16.53 62.94c8.82,43.17 23.84,83.16 32.87,126.13l48.78 185.63c7.82,30.37 18.17,62.64 25.1,92.93l16.18 61.39c4.73,20.68 12.2,42.25 16.46,63.02 1.52,7.64 5.27,22.78 7.99,30.83 13.8,41.25 20.04,83.11 33.01,123.77 3.26,10.14 5.42,20.88 7.8,31.1l24.96 93.12c3.54,10.83 7.66,7.66 23.41,8.73 10.7,0.77 18.55,1.86 28.99,2.91l1063.43 104.24c9.76,1.01 18.98,2.02 27.51,2.84 6.48,0.62 24.56,2.97 29.56,2.08l-0.3 -0.37z"/>
  <g id="_1498293968304">
   <path class="fil36" d="M54636.07 42881.79c12.1,-2.15 37.48,-17.72 50.16,-23.93l448.15 -220.83c33.16,-17.12 66.55,-32.9 100.12,-49.52 66.45,-32.96 132.98,-65.93 200.31,-98.97l211.78 -104.23c10.89,-5.41 18,-4.42 15.73,-18.53 -1.28,-8.07 -1.03,-9.89 -1.43,-15.7l-11.74 -126.12c-1.28,-8.96 -1.7,-22.67 -2.32,-31.11 -0.88,-12.67 -2.9,-20.77 -3.44,-33.33 -1.84,-38.45 -8.11,-85.4 -10.99,-125.52l-5.73 -62.91c-1.39,-9.68 -2.53,-21.48 -2.86,-31.51 -1.01,-31.9 -7.5,-64.29 -8.98,-96.12 -1.47,-31.34 -5.65,-64.78 -8.79,-95.99l-10.84 -126.91c-2.27,-31.36 -7.59,-62.1 -8.59,-94.42l-48.27 -537.66c-3.09,-31.38 -7.27,-64.34 -8.79,-95.99l-11.75 -127.56c-6.28,-51.53 -7.8,-107.14 -14.43,-158.92 -4.01,-31.15 -4.03,-63.88 -8.13,-94.11 -4.11,-30.71 -4.98,-62.8 -8.23,-94.16 -3.18,-31.44 -7.32,-64.24 -8.79,-95.99 -0.51,-11.04 -2.28,-20.96 -3.32,-31.82l-24.76 -275.29 -338.33 -309.66c-795.5,76.37 -1578.8,257.97 -2336.73,448.43 3.68,20.71 10.76,35.08 16.33,62.25l24.72 91.3c3.35,11.58 5.01,21.36 7.97,32.93l65.63 248.09c6.71,20.01 9.63,40.94 16.35,61.03l24.45 93.85c1.79,7.74 6.17,23.33 8.38,30.27l16.72 62.64c10.79,42.02 23.17,83.04 32.63,124.33 9.43,41.13 24.43,84.19 32.64,124.4 4.03,19.92 12.03,41.24 16.18,61.38 5.77,28.33 31.32,120.61 41.12,154.42 3.35,11.58 5.01,21.36 7.97,32.93l122.53 464.36c6.88,29.98 17.56,63.71 25.1,92.93l16.53 62.94c8.82,43.17 23.84,83.16 32.87,126.13l48.78 185.63c7.82,30.37 18.17,62.64 25.1,92.93l16.18 61.39c4.73,20.68 12.2,42.25 16.46,63.02 1.52,7.64 5.27,22.78 7.99,30.83 13.8,41.25 20.04,83.11 33.01,123.77 3.26,10.14 5.42,20.88 7.8,31.1l24.96 93.12c3.54,10.83 7.66,7.66 23.41,8.73 10.7,0.77 18.55,1.86 28.99,2.91l1063.43 104.24c9.76,1.01 18.98,2.02 27.51,2.84 6.48,0.62 24.56,2.97 29.56,2.08l-0.3 -0.37z"/>
   <polygon class="fil37" points="54143.08,40111.15 54982.91,39964.48 55262.19,40208.87 55440.67,42199.65 54588.83,42619.78 "/>
   <path class="fil38" d="M53339.82 40584.96c531.12,-166.51 967.66,-259.18 1485.82,-276.65l252.37 298.38 88.62 1365.38 -636.19 333.42 -726.71 -63.42 -378.18 -1350.98 -85.65 -306.13 -0.07 0zm723.09 1325.11l372.74 27.14 375.62 -144.55 -85.61 -1121.69c-324.78,1.8 -650.9,64.8 -978.21,180.03l315.45 1059.07 0.01 0z"/>
  </g>
 </g>
</svg>
