<?xml version="1.0" encoding="UTF-8"?>
<!DOCTYPE svg PUBLIC "-//W3C//DTD SVG 1.1//EN" "http://www.w3.org/Graphics/SVG/1.1/DTD/svg11.dtd">
<!-- Creator: CorelDRAW -->
<svg xmlns="http://www.w3.org/2000/svg" xml:space="preserve" width="677.365mm" height="990.702mm" version="1.1" style="shape-rendering:geometricPrecision; text-rendering:geometricPrecision; image-rendering:optimizeQuality; fill-rule:evenodd; clip-rule:evenodd"
viewBox="0 0 17054.11 24943.05"
 xmlns:xlink="http://www.w3.org/1999/xlink"
 xmlns:xodm="http://www.corel.com/coreldraw/odm/2003">
 <defs>
  <style type="text/css">
   <![CDATA[
    .fil12 {fill:#0074BE}
    .fil13 {fill:#0088C9}
    .fil11 {fill:#B9AFBE}
    .fil14 {fill:#FEFEFE}
    .fil8 {fill:#050709;fill-rule:nonzero}
    .fil2 {fill:#101820;fill-rule:nonzero}
    .fil3 {fill:#101820;fill-rule:nonzero}
    .fil7 {fill:#197BDD;fill-rule:nonzero}
    .fil6 {fill:#22A7F0;fill-rule:nonzero}
    .fil4 {fill:#371A45;fill-rule:nonzero}
    .fil10 {fill:#958D9D;fill-rule:nonzero}
    .fil9 {fill:#9B8DA2;fill-rule:nonzero}
    .fil5 {fill:#D8D8D8;fill-rule:nonzero}
    .fil1 {fill:#E5E5E5;fill-rule:nonzero}
    .fil0 {fill:white;fill-rule:nonzero}
   ]]>
  </style>
 </defs>
 <g id="Camada_x0020_1">
  <metadata id="CorelCorpID_0Corel-Layer"/>
  <g id="_1921187740784">
   <path class="fil0" d="M12629.48 4420.02c0,0 1267.08,480.48 1397.37,715.16 241.45,434.95 196.65,2991.45 -471.28,3658.05 -261.56,260.95 -2183.25,504.85 -2183.25,504.85l1257.15 -4878.05z"/>
   <path class="fil1" d="M11372.33 9298.07c0,0 1921.69,-244 2183.01,-505.04 260.83,-259.96 426.96,-808.52 517.29,-1406.19 -21.31,19.21 -699.9,604.96 -2053.92,-585.76l-2.42 -2.13 -643.95 2499.12z"/>
   <path class="fil0" d="M2936.08 9298.07c0,0 -1921.62,-244 -2183.01,-505.04 -260.68,-259.96 -426.79,-808.52 -517.29,-1406.19l-0.27 -0.34c-141.65,-932.78 -100.99,-1985.9 46.28,-2251.32 130.12,-234.67 1397.5,-715.16 1397.5,-715.16l612.93 2378.93 643.86 2499.12z"/>
   <path class="fil1" d="M2936.08 9298.07c0,0 -1921.62,-244 -2183.01,-505.04 -260.68,-259.96 -426.79,-808.52 -517.29,-1406.19 21.31,19.21 700,604.96 2053.95,-585.76l2.49 -2.13 643.86 2499.12z"/>
   <path class="fil2" d="M12729.98 4616.18l-1161.74 4508.07c846.42,-118.23 1755.32,-306.26 1883.92,-434.69 615.38,-614.1 662.6,-3094.5 446.58,-3483.44 -66.6,-105.83 -630.39,-376.59 -1168.76,-589.95zm-1553.1 4854.2l1351.6 -5245.07 152.82 57.88c395.96,150.15 1332.47,526.98 1473.42,781.03 268.34,483.15 234.19,3104.16 -495.74,3832.56 -275.6,274.9 -1805.93,487.8 -2268.25,546.43l-213.84 27.17z"/>
   <path class="fil3" d="M1578.64 4616.18c-538.32,213.36 -1102.26,484.12 -1169.29,590.68 -215.49,388.21 -168.31,2868.69 447.11,3482.71 128.69,128.43 1037.5,316.53 1883.84,434.69l-1161.66 -4508.07zm1553.19 4854.2l-213.97 -27.17c-462.49,-58.63 -1992.75,-271.53 -2268.18,-546.43 -730,-728.4 -764.12,-3349.42 -495.96,-3832.56 141.02,-254.05 1077.55,-630.88 1473.69,-781.03l152.86 -57.88 1351.55 5245.07z"/>
   <path class="fil0" d="M11108.11 17935.83l533.04 0c317.74,0 575.17,-257.49 575.17,-575.2l0 -1511.71c0,-317.69 -257.44,-575.18 -575.17,-575.18l-502.77 0 -30.27 2662.09z"/>
   <path class="fil3" d="M11641.15 18082.2l-533.04 0c-80.89,0 -146.28,-65.46 -146.28,-146.37 0,-80.84 65.39,-146.37 146.28,-146.37l533.04 0c236.37,0 428.9,-192.39 428.9,-428.83l0 -1511.71c0,-236.51 -192.53,-428.83 -428.9,-428.83l-503.01 0c-80.89,0 -146.28,-65.53 -146.28,-146.35 0,-80.84 65.39,-146.37 146.28,-146.37l503.01 0c397.9,0 721.69,323.65 721.69,721.55l0 1511.71c0,397.92 -323.79,721.57 -721.69,721.57z"/>
   <path class="fil0" d="M3164.96 17935.83l-533.01 0c-317.62,0 -575.2,-257.49 -575.2,-575.2l0 -1511.71c0,-317.69 257.58,-575.18 575.2,-575.18l502.89 0 30.13 2662.09z"/>
   <path class="fil4" d="M3164.96 18082.2l-533.01 0c-397.83,0 -721.57,-323.65 -721.57,-721.57l0 -1511.71c0,-397.9 323.75,-721.55 721.57,-721.55l502.89 0c80.84,0 146.37,65.53 146.37,146.37 0,80.82 -65.53,146.35 -146.37,146.35l-502.89 0c-236.44,0 -428.83,192.32 -428.83,428.83l0 1511.71c0,236.44 192.39,428.83 428.83,428.83l533.01 0c80.91,0 146.37,65.53 146.37,146.37 0,80.91 -65.46,146.37 -146.37,146.37z"/>
   <path class="fil0" d="M9628.44 19581.56l-4983.76 0c-1052.32,0 -1913.34,-861.02 -1913.34,-1913.34l0 -5482.12c0,-1052.32 861.02,-1913.34 1913.34,-1913.34l4983.76 0c1052.22,0 1913.41,861.02 1913.41,1913.34l0 5482.12c0,1052.32 -861.19,1913.34 -1913.41,1913.34z"/>
   <path class="fil3" d="M4644.68 10419.14c-974.34,0 -1766.97,792.63 -1766.97,1766.97l0 5482.12c0,974.24 792.63,1766.97 1766.97,1766.97l4983.76 0c974.24,0 1766.89,-792.73 1766.89,-1766.97l0 -5482.12c0,-974.34 -792.65,-1766.97 -1766.89,-1766.97l-4983.76 0zm4983.76 9308.79l-4983.76 0c-1135.73,0 -2059.71,-923.99 -2059.71,-2059.71l0 -5482.12c0,-1135.73 923.99,-2059.71 2059.71,-2059.71l4983.76 0c1135.77,0 2059.69,923.99 2059.69,2059.71l0 5482.12c0,1135.72 -923.91,2059.71 -2059.69,2059.71z"/>
   <path class="fil0" d="M8571.11 11251.29c1100.39,0 4458.21,-480.78 5385.03,-3291.2l2532.71 959.59c0,0 -961.94,5199.04 -6514.63,5310.61l-1403.12 -2979z"/>
   <path class="fil3" d="M9974.22 14376.67c-79.44,0 -144.82,-63.6 -146.28,-143.44 -1.69,-80.84 62.48,-147.61 143.37,-149.3 2249.61,-45.21 4004.92,-928.88 5216.55,-2626.39 747.85,-1047.45 1046.94,-2099.33 1130.49,-2445.92l-2273.58 -861.36c-434.23,1180.84 -1327.63,2069.83 -2658.16,2643.77 -1331.75,574.5 -2578.97,603.63 -2815.51,603.63 -80.82,0 -146.35,-65.56 -146.35,-146.37 0,-80.84 65.53,-146.37 146.35,-146.37 1450.58,0 4413.65,-666.86 5246.02,-3190.67 12.35,-37.92 39.96,-69.09 76.05,-86.24 36.08,-17.24 77.5,-18.91 114.79,-4.8l2532.71 959.61c66.11,25.04 104.86,93.87 92.03,163.52 -9.93,54.34 -257.19,1346.76 -1199.76,2671.67 -872.09,1225.99 -2526.66,2699.74 -5455.82,2758.64 -0.97,0 -1.94,0 -2.91,0z"/>
   <path class="fil0" d="M1518.34 16999.76c0,0 -438.59,1367.73 1003.03,1661.28 259.71,53.38 507.88,31.63 729.83,-49.31 956.75,-352.78 1419.34,-1827.71 162.79,-3303.45 -66.26,-78.34 -137.39,-156.13 -213.5,-234.48 -3.56,-3.1 -6.68,-6.22 -9.78,-9.76 0,0 66.72,-110.31 280.22,-265.94 133.95,-97.43 326.07,-213.07 595.18,-330.04l516.84 -1581.26 0.9 -2.66 91.57 -280.23 558.68 -1707.1c0,0 -511.97,173.91 -1166.19,470.12 -216.19,97.86 -448.37,209.51 -682.78,332.71 -64.47,33.83 -129.49,68.92 -194.42,104.55 0,0 -141.85,76.48 -364.24,214.4 -1137.32,708.08 -4369.21,3033.01 -1308.13,4981.17z"/>
   <path class="fil5" d="M4220.48 13181.51l-154.17 1286.46c-698.66,303.14 -875.7,596.07 -875.7,596.07 3.29,3.27 6.59,6.56 9.62,9.93 -187.33,-154.53 -438.59,-331.2 -702.49,-430.13 0,0 497.05,-258.65 648.75,-458.13 486.2,-639.16 496.4,-869.81 682.39,-1132.99 60.13,-85.08 460,-12.62 391.61,128.79z"/>
   <path class="fil5" d="M2521.27 18661.4c-1424.55,-290.45 -1012.99,-1629.58 -1003.38,-1661.38l0.44 -0.44c0,0 247.36,1325.62 1535.05,961.99 823.55,-232.95 753.9,-1393.57 596.71,-2199.69 13.93,-31.8 25.21,-64.93 34.36,-98.4l0.44 0c1136.62,1691.02 126.3,3261 -1163.62,2997.92z"/>
   <path class="fil3" d="M2798.76 18836.08c-100.92,0 -203.41,-10.29 -306.53,-31.24 -473.75,-96.63 -811.98,-312.92 -1005.17,-642.96 -242.4,-414.1 -181.9,-886.35 -136.52,-1096.57 -862.96,-574.13 -1286.82,-1234.34 -1259.99,-1963.45 66.62,-1812.08 2909.64,-3361.55 3030.58,-3426.64 1005.72,-554.95 2055.47,-913.16 2065.96,-916.8 76.55,-25.84 159.69,15.09 185.63,91.66 25.94,76.55 -15.11,159.69 -91.66,185.63 -10.22,3.46 -1036.33,353.85 -2019.85,896.62 -29.57,15.89 -2817.98,1535.61 -2878.08,3180.52 -23.54,642.53 384.85,1235.77 1213.71,1763.43l95.23 60.67 -34.46 107.55c-1.6,5.06 -167.61,545.1 83.11,971.16 149.57,254.19 422.07,423.23 809.94,502.28 533.28,108.79 1030.04,-128.36 1296.24,-618.72 331.37,-610.8 305.63,-1649.46 -760.74,-2732.71l-79.85 -81.18 58.97 -97.36c18.12,-29.93 194.76,-301.01 806.12,-592.06 73.09,-34.83 160.42,-3.73 195.15,69.19 34.73,72.99 3.71,160.32 -69.29,195.05 -335.73,159.96 -519.43,309.33 -609.4,398.07 1085.81,1163.46 1087.41,2296.69 716.24,2980.6 -273.66,504.32 -765.89,797.16 -1305.37,797.23z"/>
   <path class="fil3" d="M1619.86 16883.15c197.18,114.38 482.81,294.35 681.25,414.69 -274.29,-9.4 -542.34,-81.98 -797.06,-181.37l115.81 -233.32z"/>
   <path class="fil3" d="M555.96 16240.79c-60.47,0 -109.59,-48.92 -109.68,-109.51 -1.07,-407.68 338.13,-830.53 864.12,-1077.38 597.67,-280.4 1505.85,-354.91 2262.51,277.03 46.52,38.92 52.75,108.11 13.93,154.66 -38.89,46.45 -108.09,52.75 -154.63,13.83 -677.52,-565.75 -1492.07,-498.45 -2028.54,-246.73 -449.07,210.7 -738.7,555.39 -737.9,878.17 0.17,60.57 -48.87,109.85 -109.44,109.95l-0.36 0z"/>
   <path class="fil3" d="M3152.51 15166.53c-196.82,-201.98 -409.19,-395.26 -654.78,-539.75 212.73,48.22 418.97,135.89 616.25,231.02 66.77,32.67 131.26,65.27 198.59,103.29l-160.06 205.44z"/>
   <path class="fil1" d="M10057.53 12086.11c-835.54,528.89 -1825.89,835.16 -2888.16,835.16 -1085.18,0 -2095.43,-319.49 -2942.04,-869.55 208.71,-966.44 890.76,-3037.54 2897.53,-3037.54 2031.23,0 2723.91,2121.1 2932.67,3071.93z"/>
   <path class="fil0" d="M7568.53 19119.7c514.7,1769.1 1053.65,4643.21 1219.57,5120.08 176.31,506.88 634.7,550.93 634.7,550.93l1566.64 0c0,0 1082.54,54.01 1370.25,-210.41 287.47,-264.51 271.24,-723.08 60.79,-982.79 -220.63,-272.06 -687.79,-270.01 -687.79,-270.01 0,0 -319.92,-3839.05 -825.1,-6197.47l-3339.05 1989.65z"/>
   <path class="fil1" d="M12359.45 24580.22c-287.71,264.6 -1370.01,210.41 -1370.01,210.41l-1566.46 0c0,0 -458.74,-44.05 -634.78,-550.67 -166.02,-477.14 -704.96,-3351.16 -1219.66,-5120.08l3339.29 -1989.82c101.72,475.71 196.17,1011.92 282.14,1564.38 -712.25,1426.27 -2253.16,1464.8 -2412.62,2298.21 -142.71,745.98 81.28,2660.05 742.79,3166.4 537.4,410.79 2475.56,398.97 3055.34,-146.54 13.08,203.82 -52.07,417.35 -216.02,567.72z"/>
   <path class="fil3" d="M11242.52 24943.05c-116.49,0 -208.52,-3.56 -256.71,-5.86l-1563 0c-4.7,0 -9.32,-0.27 -14.02,-0.73 -22.57,-2.2 -554.15,-59.87 -758.97,-648.56 -70.79,-203.65 -195.85,-776.09 -368.96,-1568.55 -232.25,-1063.07 -550.33,-2518.98 -852.84,-3558.71 -22.67,-77.64 22.01,-158.9 99.66,-181.47 77.62,-22.47 158.79,22.01 181.37,99.66 305.34,1049.31 624.66,2510.92 857.83,3578.08 157.9,723.17 294.42,1347.75 359.44,1534.79 134.39,386.28 460.07,446.14 505.28,452.73l1557.84 0c2.42,0 4.84,0 7.27,0.17 424.3,21.24 1096.83,-18.48 1263.69,-172.05 230.07,-211.4 209,-582.2 46.26,-782.77 -171.22,-211.3 -567.91,-215.9 -573.48,-215.9l0 0c-75.56,-0.9 -139.98,-58.1 -146.52,-134.22 -3.15,-38.29 -324.76,-3856.9 -821.96,-6178.96 -16.95,-79.07 33.18,-156.86 112.37,-173.74 78.95,-16.98 156.93,33.39 173.88,112.44 449.97,2101.56 756.57,5409.44 816.63,6090.96 176.79,21.05 483.87,89.97 666.48,314.95 249.69,308.13 278.99,856.76 -75.32,1182.71 -239.03,219.66 -849.08,255.02 -1216.23,255.02z"/>
   <path class="fil3" d="M8577.7 21983.76c-204.47,0 -336.27,-11.46 -357.24,-13.39 -80.48,-7.48 -139.61,-78.8 -132.16,-159.18 7.46,-80.45 78.42,-139.28 159.16,-132.35 20.51,1.89 2066.3,175.34 3114.45,-995.58 54.01,-60.21 146.28,-65.27 206.58,-11.36 60.3,53.91 65.39,146.37 11.38,206.68 -879.35,982.35 -2331.41,1105.19 -3002.18,1105.19z"/>
   <path class="fil3" d="M11732.69 23473.89l-860.95 -48.15c-89.36,-4.53 -93.72,-135.72 -5.09,-146.2l865.79 -98.4c80.89,-9.15 153.78,48.85 162.99,129.66 11.62,92.73 -70.23,173.81 -162.75,163.09z"/>
   <path class="fil0" d="M6712.31 19119.7c-514.7,1769.1 -1053.68,4643.21 -1219.5,5120.08 -176.31,506.88 -634.8,550.93 -634.8,550.93l-1566.59 0c0,0 -1082.52,54.01 -1370.13,-210.41 -287.59,-264.51 -271.34,-723.08 -60.84,-982.79 220.63,-272.06 687.81,-270.01 687.81,-270.01 0,0 319.85,-3839.05 824.86,-6197.47l3339.17 1989.65z"/>
   <path class="fil1" d="M1921.39 24580.22c287.59,264.6 1370.03,210.41 1370.03,210.41l1566.51 0c0,0 458.66,-44.05 634.8,-550.67 165.99,-477.14 704.96,-3351.16 1219.57,-5120.08l-3339.34 -1989.82c-101.69,475.71 -196.19,1011.92 -281.9,1564.38 712.23,1426.27 2252.97,1464.8 2412.4,2298.21 142.74,745.98 -81.25,2660.05 -742.79,3166.4 -537.28,410.79 -2475.66,398.97 -3055.21,-146.54 -13.22,203.82 52.04,417.35 215.93,567.72z"/>
   <path class="fil3" d="M3038.4 24943.05c-367.19,0 -977.29,-35.36 -1216.23,-255.02 -354.38,-325.95 -325.15,-874.58 -75.39,-1182.71 182.51,-224.98 489.66,-293.91 666.4,-314.95 60.3,-681.52 366.83,-3989.4 816.87,-6090.96 16.88,-79.05 94.86,-129.23 173.74,-112.44 79.05,16.88 129.4,94.67 112.45,173.74 -497.32,2322.35 -818.93,6140.68 -822.13,6178.96 -6.3,75.85 -69.82,134.22 -145.84,134.22l-0.6 0c-110.68,0 -429.99,38.89 -573.53,215.9 -162.6,200.57 -183.67,571.38 46.21,782.77 166.98,153.57 839.61,193.19 1263.82,172.05 2.37,-0.17 4.87,-0.17 7.26,-0.17l1557.72 0c46.18,-6.76 371.36,-67.23 505.38,-452.73 65,-187.03 201.52,-811.52 359.44,-1534.69 233.17,-1067.16 552.46,-2528.86 857.82,-3578.17 22.57,-77.64 103.72,-122.13 181.46,-99.66 77.52,22.57 122.2,103.82 99.56,181.47 -302.53,1039.72 -620.58,2495.73 -852.83,3558.8 -173.11,792.36 -298.17,1364.8 -368.96,1568.45 -204.81,588.69 -736.4,646.35 -758.97,648.56 -4.6,0.46 -9.32,0.73 -14.05,0.73l-1562.93 0c-48.07,2.3 -140.25,5.86 -256.69,5.86z"/>
   <path class="fil3" d="M5703.15 21983.76c-670.67,0 -2122.87,-122.74 -3002.27,-1105.19 -53.91,-60.3 -48.85,-152.77 11.45,-206.68 60.23,-53.81 152.69,-48.85 206.6,11.36 1048.15,1171.01 3093.94,997.46 3114.45,995.58 80.38,-6.93 151.7,51.9 159.16,132.35 7.46,80.38 -51.7,151.7 -132.08,159.18 -21.05,1.94 -152.94,13.39 -357.31,13.39z"/>
   <path class="fil3" d="M2548.37 23181.15l865.89 98.4c88.73,10.75 83.84,142.04 -5.13,146.2l-861.02 48.15 -8.19 0.44c-210.67,2.93 -202.22,-308.03 8.45,-293.18z"/>
   <path class="fil0" d="M11025.52 17974.56c-476.85,1883.57 -2484.69,2425.04 -3885.11,2425.04 -1400.4,0 -3408.17,-541.46 -3884.78,-2425.04 -341.76,-1350.15 206.24,-3413.69 582.13,-4571.45 170.71,-526.16 305.89,-865.19 305.89,-865.19 0,0 363.54,-3523.73 2981.21,-3523.73 2617.6,0 3012.59,3523.73 3012.59,3523.73 0,0 135.38,339.03 306.36,865.19 375.62,1158.03 923.19,3221.3 581.72,4571.45z"/>
   <path class="fil1" d="M11133.29 16981.21c0.48,354.82 -31.24,692.08 -107.53,993.42 -477.09,1883.6 -2484.76,2424.97 -3885.26,2424.97 -1400.5,0 -3408.36,-541.37 -3884.87,-2424.97 -76.38,-301.35 -108.25,-638.6 -107.55,-993.42l7985.21 0z"/>
   <path class="fil3" d="M3294.19 18338.26c-723.61,-1163.45 8.96,-3914.61 483.44,-5141.3 90.07,-232.44 185.46,-461.59 297.9,-686.21 18.11,-36.23 62.27,-50.91 98.59,-32.79 32.5,16.27 47.61,53.47 37.39,87.07 -337.43,1176.14 -696.53,2352.89 -845.84,3569.46 -57.74,477.67 -87.94,963.7 -36.42,1440.82 24.97,236.8 63.26,467.21 101.55,710.55 14.02,77.38 -94.16,121.26 -136.61,52.41z"/>
   <path class="fil3" d="M8722.47 20248.6c-989.72,398 -2174.04,398 -3163.74,0 -79.34,-33.93 -44.05,-155.34 41.46,-140.35 637.63,111.65 1279.53,170.81 1925.52,135.02 388.41,-18.38 769.89,-68.66 1155.27,-135.09 84.64,-14.92 121.5,106.66 41.49,140.42z"/>
   <path class="fil3" d="M10205.5 12510.75c328.15,672.8 557.98,1387.61 745.91,2110.42 246.54,972.04 422.36,1984.59 290.13,2989.22 -38.99,253.05 -115.52,506.64 -253.56,725.11 -22.04,34.92 -68.05,45.31 -102.93,23.27 -26.16,-16.52 -38.75,-46.79 -33.66,-75.58 38.99,-242.83 76.28,-473.58 100.99,-710.19 50.86,-477.05 20.83,-962.71 -37.05,-1440.19 -93,-726.46 -249.45,-1442.44 -443.67,-2150.34 -128.11,-472.85 -266.16,-945.3 -402.02,-1417.45 -24.95,-83.41 94.45,-135.19 135.86,-54.27z"/>
   <path class="fil0" d="M8618.82 17468.38c514.8,164.12 2037.62,51.68 2555.16,-60.93 310.23,-67.59 503.73,-388.14 428.41,-708.96l0 0c-68.78,-292.67 -339.29,-485.76 -626.28,-445.88 -487.51,67.69 -1979.82,144.61 -2454.46,79.14l97.16 1136.62z"/>
   <path class="fil1" d="M8618.62 17468.28c514.82,164.12 2037.82,51.95 2555.36,-60.93 310.23,-67.33 503.73,-388.05 428.41,-709.05 -15.98,-68.12 -42.86,-131.09 -78.95,-186.77 -69.02,168.12 -213.36,299.31 -399.35,339.9 -516.57,112.44 -2038.28,224.89 -2552.98,61.46l47.51 555.39z"/>
   <path class="fil3" d="M8537.37 16481.23c-47.35,80.04 -90.6,352.35 -34.2,593.22 32.69,139.64 91.03,232.44 160.03,254.38l0.1 0.1c475.71,151.6 1954.63,49.75 2479.43,-64.59 107.29,-23.25 199.8,-88.98 260.34,-184.83 65.15,-103.1 85.25,-226.58 56.91,-347.53 -51.82,-220.12 -250.9,-363.73 -463.77,-334.43 -466.68,64.86 -1927.17,144.24 -2458.85,83.67zm941.04 1217.17c-364.77,0 -697.77,-24.85 -904.1,-90.57 -367.97,-117.34 -445.42,-702.93 -359.81,-1080.48 76.48,-337.53 254.29,-350.68 327.14,-340.63 460.7,63.57 1946.25,-14.12 2414.38,-79.14 363.27,-50.18 702.32,189.26 788.78,557.42 46.01,195.15 11.62,403.16 -94.21,570.77 -102.69,162.7 -260.83,274.44 -445.61,314.69 -309.75,67.4 -1069.71,147.95 -1726.57,147.95z"/>
   <path class="fil0" d="M5689.83 17468.38c-514.8,164.12 -2037.6,51.68 -2555.16,-60.93 -310.33,-67.59 -503.78,-388.14 -428.46,-708.96l0 0c68.75,-292.67 339.37,-485.76 626.35,-445.88 487.43,67.69 1979.7,144.61 2454.44,79.14l-97.16 1136.62z"/>
   <path class="fil1" d="M5690 17468.28c-514.8,164.12 -2037.96,51.95 -2555.33,-60.93 -310.26,-67.33 -503.78,-388.05 -428.54,-709.05 15.98,-68.12 42.89,-131.09 78.95,-186.77 69.19,168.12 213.34,299.31 399.33,339.9 516.74,112.44 2038.4,224.89 2553.1,61.46l-47.52 555.39z"/>
   <path class="fil3" d="M3257.16 16393.75c-191.05,0 -361.23,137.29 -408.48,338.23 -28.33,120.95 -8.19,244.43 56.94,347.53 60.47,95.85 152.84,161.58 260.22,184.83 524.75,114.24 2003.77,216.19 2479.48,64.59l0 -0.1c69.12,-21.94 127.46,-114.74 160.15,-254.38 56.31,-240.87 13.15,-513.18 -34.29,-593.22 -531.68,60.67 -1992.02,-18.82 -2458.78,-83.67 -18.57,-2.57 -36.96,-3.8 -55.24,-3.8zm1572.98 1304.64c-656.81,0 -1416.85,-80.55 -1726.57,-147.95 -184.64,-40.25 -342.83,-151.99 -445.51,-314.69 -105.78,-167.61 -140.15,-375.62 -94.33,-570.77 86.53,-368.16 425.99,-607.53 788.9,-557.42 468.09,65.03 1953.59,142.72 2414.29,79.14 72.75,-10.12 250.66,3 327.14,340.63 85.61,377.56 8.16,963.05 -359.81,1080.48 -206.24,65.73 -539.33,90.57 -904.1,90.57z"/>
   <path class="fil0" d="M5635.72 18305.76l3037.17 0c382.84,0 696,-313.19 696,-696l0 -1669.34c0,-382.81 -313.16,-696 -696,-696l-3037.17 0c-382.81,0 -695.97,313.19 -695.97,696l0 1669.34c0,382.81 313.16,696 695.97,696z"/>
   <path class="fil1" d="M9368.89 16852.68l0 792.44c0,363.27 -297.2,660.47 -660.47,660.47l-3108.03 0c-363.54,0 -660.47,-297.2 -660.47,-660.47l0 -444.81c79.51,105.52 182.97,208.01 274,185.46 189.92,-47.25 105.52,-383.78 262.57,-734.19 157.27,-350.72 1070.17,-285.82 1140.69,-62.7 70.62,223.12 -85.8,1066.27 1066.46,1066.27 955.32,0 1468.26,-214.93 1685.25,-802.46z"/>
   <path class="fil3" d="M5635.72 15390.79c-303.04,0 -549.6,246.56 -549.6,549.63l0 1669.27c0,303.14 246.56,549.7 549.6,549.7l3037.17 0c303.06,0 549.62,-246.56 549.62,-549.7l0 -1669.27c0,-303.06 -246.56,-549.63 -549.62,-549.63l-3037.17 0zm3037.17 3061.34l-3037.17 0c-464.43,0 -842.35,-377.92 -842.35,-842.45l0 -1669.27c0,-464.45 377.92,-842.37 842.35,-842.37l3037.17 0c464.52,0 842.37,377.92 842.37,842.37l0 1669.27c0,464.52 -377.85,842.45 -842.37,842.45z"/>
   <path class="fil6" d="M5463.34 16775.04c0,311.22 242.9,563.48 542.5,563.48 299.67,0 542.51,-252.25 542.51,-563.48 0,-311.13 -242.83,-563.38 -542.51,-563.38 -299.6,0 -542.5,252.25 -542.5,563.38z"/>
   <path class="fil0" d="M5463.15 16775.21c0,38.48 3.56,75.68 10.65,111.94 50.2,-258.02 269.5,-452.27 532.12,-452.27 262.64,0 482.03,194.25 531.78,452.27 7.09,-36.25 10.65,-73.45 10.65,-111.94 0,-311.13 -242.76,-563.62 -542.43,-563.62 -299.67,0 -542.77,252.5 -542.77,563.62z"/>
   <path class="fil7" d="M5463.34 16774.97c0,311.39 243,563.45 542.5,563.45 299.5,0 542.51,-252.06 542.51,-563.45 0,-52.14 -6.93,-103.12 -19.74,-150.93 -63.67,237.6 -273.9,412.22 -522.77,412.22 -248.89,0 -459.03,-174.61 -522.79,-412.22 -12.79,47.81 -19.71,98.79 -19.71,150.93z"/>
   <path class="fil3" d="M6005.85 16321.44c-238.67,0 -432.72,203.5 -432.72,453.7 0,250.12 194.06,453.6 432.72,453.6 238.64,0 432.82,-203.48 432.82,-453.6 0,-250.2 -194.18,-453.7 -432.82,-453.7zm0 1126.86c-359.73,0 -652.28,-301.97 -652.28,-673.16 0,-371.26 292.55,-673.26 652.28,-673.26 359.71,0 652.29,302 652.29,673.26 0,371.19 -292.58,673.16 -652.29,673.16z"/>
   <path class="fil3" d="M7456.62 18452.14c-80.84,0 -146.37,-65.56 -146.37,-146.37l0 -935.71c0,-274.99 126.83,-538.44 339.2,-704.52l82.34 -64.4c142.01,-111.02 226.82,-288.12 226.82,-473.75l0 -882.96c0,-80.82 65.46,-146.37 146.37,-146.37 80.84,0 146.4,65.56 146.4,146.37l0 882.96c0,275.07 -126.86,538.41 -339.32,704.43l-82.32 64.4c-142.04,111.01 -226.75,288.12 -226.75,473.85l0 935.71c0,80.82 -65.56,146.37 -146.37,146.37z"/>
   <polygon class="fil5" points="7135.54,7088.42 7135.54,7110.17 7121.69,7099.51 "/>
   <polygon class="fil5" points="7121.69,7099.51 7107.74,7110.17 7107.74,7088.42 "/>
   <path class="fil0" d="M13029.56 6022.27c0,3245.13 -2630.55,5875.88 -5875.73,5875.88 -3245.18,0 -5875.83,-2630.75 -5875.83,-5875.88 0,-3245.2 2630.65,-5875.76 5875.83,-5875.76 3245.18,0 5875.73,2630.55 5875.73,5875.76z"/>
   <path class="fil1" d="M13029.8 6022.03c0,3245.3 -2630.8,5875.95 -5875.88,5875.95 -3245.11,0 -5876.12,-2630.65 -5876.12,-5875.95 0,-342.44 29.23,-678.59 85.9,-1004.8 476.68,2766.2 2887.7,4870.5 5790.22,4870.5 2902.64,0 5313.05,-2104.3 5789.9,-4870.5 56.67,326.22 85.97,662.36 85.97,1004.8z"/>
   <path class="fil4" d="M7153.83 292.79c-3159.21,0 -5729.46,2570.25 -5729.46,5729.48 0,3159.25 2570.25,5729.5 5729.46,5729.5 3159.21,0 5729.46,-2570.25 5729.46,-5729.5 0,-3159.23 -2570.25,-5729.48 -5729.46,-5729.48zm0 11751.73c-3320.69,0 -6022.2,-2701.61 -6022.2,-6022.25 0,-3320.52 2701.51,-6022.27 6022.2,-6022.27 3320.5,0 6022.25,2701.75 6022.25,6022.27 0,3320.64 -2701.76,6022.25 -6022.25,6022.25z"/>
   <path class="fil4" d="M7153.83 292.79c-3159.21,0 -5729.46,2570.25 -5729.46,5729.48 0,3159.25 2570.25,5729.5 5729.46,5729.5 3159.21,0 5729.46,-2570.25 5729.46,-5729.5 0,-3159.23 -2570.25,-5729.48 -5729.46,-5729.48zm0 11751.73c-3320.69,0 -6022.2,-2701.61 -6022.2,-6022.25 0,-3320.52 2701.51,-6022.27 6022.2,-6022.27 3320.5,0 6022.25,2701.75 6022.25,6022.27 0,3320.64 -2701.76,6022.25 -6022.25,6022.25z"/>
   <path class="fil4" d="M7153.83 292.79c-3159.21,0 -5729.46,2570.25 -5729.46,5729.48 0,3159.25 2570.25,5729.5 5729.46,5729.5 3159.21,0 5729.46,-2570.25 5729.46,-5729.5 0,-3159.23 -2570.25,-5729.48 -5729.46,-5729.48zm0 11751.73c-3320.69,0 -6022.2,-2701.61 -6022.2,-6022.25 0,-3320.52 2701.51,-6022.27 6022.2,-6022.27 3320.5,0 6022.25,2701.75 6022.25,6022.27 0,3320.64 -2701.76,6022.25 -6022.25,6022.25z"/>
   <path class="fil3" d="M1606.97 7460.92c652.82,2526.56 2933.45,4290.77 5546.69,4290.77 2612.78,0 4893.86,-1764.47 5547.26,-4290.77 0.97,-4 2.18,-7.9 3.39,-11.72 118.67,-463.02 178.73,-943.07 178.73,-1426.92 0,-214.09 -12.11,-429.38 -35.6,-639.84 -322.1,-2901.55 -2769.81,-5089.4 -5693.78,-5089.4 -2923.06,0 -5370.55,2187.12 -5693.16,5087.46 -24.05,209.97 -36.13,425.75 -36.13,641.78 0,484.62 60.21,964.62 179.14,1426.75 1.33,3.9 2.49,7.9 3.46,11.89zm5546.69 4583.54c-2743.89,0 -5139,-1850.73 -5827.98,-4502.09 -1.14,-3.37 -2.23,-6.83 -3.1,-10.29 -126.76,-489.13 -190.96,-997.1 -190.96,-1509.8 0,-227.16 12.69,-454.09 37.93,-674.47 339.1,-3048.55 2911.75,-5347.56 5984.11,-5347.56 3073.4,0 5646.07,2299.73 5984.64,5349.74 24.95,221.11 37.54,447.3 37.54,672.29 0,511.92 -64.18,1019.77 -190.6,1509.7 -0.73,3.56 -1.94,7.02 -2.91,10.39 -689.73,2651.36 -3084.88,4502.09 -5828.68,4502.09z"/>
   <path class="fil3" d="M7153.75 702.32c1804.53,0 3471.93,729.69 4638.51,1955.6 -1055.66,-1451.14 -2766.12,-2365.12 -4638.51,-2365.12 -1871.44,0 -3581.37,913.26 -4637.18,2363.91 1166.65,-1225.18 2833.69,-1954.39 4637.18,-1954.39zm5671.16 3925.24c-56.91,0 -110.68,-33.18 -134.41,-88.39 -927.31,-2152.98 -3100.62,-3544.05 -5536.76,-3544.05 -2434.46,0 -4607.34,1389.87 -5535.67,3540.9 -30.39,70.47 -110.07,105.59 -182.63,80.16 -72.56,-25.19 -113.15,-102.44 -93,-176.55 709.22,-2614.08 3098.93,-4439.63 5811.29,-4439.63 2714.15,0 5104.22,1827 5812.36,4443.02 20.1,74.11 -20.34,151.12 -93,176.55 -15.98,5.33 -32.21,7.99 -48.19,7.99z"/>
   <path class="fil3" d="M13029.32 6022.52c0,508.48 -64.42,1002.57 -185.99,1473.03l-0.49 0.53c-1019.33,1969.31 -3184.05,3663.71 -5689.28,3663.71 -2505.32,0 -4669.58,-1694.41 -5688.87,-3663.71l-0.53 -0.53c-121.96,-470.46 -186.36,-964.55 -186.36,-1473.03 0,-222.32 12.35,-441.98 37.05,-658 792.6,-2193.18 3106.72,-3780.18 5838.7,-3780.18 2732.51,0 5047.02,1587.97 5839.19,3781.88 24.22,215.3 36.57,434.47 36.57,656.31z"/>
   <path class="fil8" d="M7153.49 11048.78c-2568.58,0 -4654.32,-1803.49 -5585.24,-3594.16 -57.47,-223.92 -101.25,-451.91 -131.19,-682.66 1311.96,1407.23 3173.16,2416.49 5237.69,2416.49 1245.67,0 2417.72,-367.43 3439.7,-968.04 -1.94,181.64 96.87,342.93 256.47,391.87 32.21,9.86 64.9,14.55 97.11,14.55 170.74,0 336.63,-130.2 396.93,-327.01 58.37,-190.52 0,-384.87 -131.99,-483.9 299.33,-216.53 582.2,-453.07 846.66,-705.76 83.31,-55.85 159.84,-131.89 225.23,-223.56 419.21,-432.56 785.39,-905.27 1088.6,-1400.04 16.47,177.03 24.7,356.73 24.7,535.94 0,485.55 -60.06,967.31 -178.73,1432.1 -930.94,1790.67 -3016.83,3594.16 -5585.94,3594.16z"/>
   <path class="fil3" d="M1568.25 7454.62c930.92,1790.67 3016.66,3594.16 5585.24,3594.16 2569.11,0 4655,-1803.49 5585.94,-3594.16 118.67,-464.79 178.73,-946.56 178.73,-1432.1 0,-211.18 -11.38,-423.33 -34.39,-630.88 -805,-2211.58 -3105.95,-3696.38 -5730.28,-3696.38 -2623.65,0 -4924.43,1484.32 -5729.82,3694.93 -23.11,206.58 -34.83,419.21 -34.83,632.33 0,486.27 60.3,968.02 179.4,1432.1zm5585.24 3816.21c-1199.44,0 -2397.33,-384.77 -3464.23,-1112.64 -966.88,-659.74 -1790.67,-1584.8 -2320.23,-2605.34 -5.42,-8.96 -9.59,-18.82 -12.35,-29.5 -126.03,-486.27 -189.89,-991.22 -189.89,-1500.84 0,-225.95 12.69,-451.42 37.76,-670.59 0.97,-8.48 2.93,-16.95 5.86,-24.95 402.07,-1112.57 1175.08,-2069.67 2235.48,-2767.63 1079.15,-710.55 2361.18,-1085.93 3707.6,-1085.93 1346.66,0 2628.93,375.62 3708.33,1086.42 1060.5,698.45 1833.54,1655.78 2235.32,2768.6 2.91,8.24 4.84,16.71 5.81,25.43 24.7,219.9 37.3,444.89 37.3,668.66 0,508.82 -63.69,1013.76 -189.14,1500.76 -2.91,10.75 -7.27,20.78 -12.84,29.84 -529.41,1020.35 -1353.06,1945.33 -2320.32,2605.08 -1066.94,727.87 -2264.96,1112.64 -3464.45,1112.64z"/>
   <path class="fil9" d="M11248.57 7217.65c-27.12,-0.1 -54.25,-2.23 -81.61,-6.56 -381.92,-61.2 -622.89,-538.07 -538.36,-1065.06 78.46,-489.44 410.01,-849.81 762.62,-849.81 27.13,0 54.49,1.94 81.86,6.3 381.67,61.27 622.89,538.37 538.36,1065.23 -31.97,199.65 -106.07,377.83 -206.58,518.87 -73.62,75.75 -148.7,150.47 -225.23,223.56 -102.68,68.92 -215.78,107.48 -331.06,107.48z"/>
   <path class="fil10" d="M11579.63 7110.17c76.53,-73.09 151.6,-147.8 225.23,-223.56 -65.39,91.66 -141.92,167.71 -225.23,223.56z"/>
   <path class="fil9" d="M10114.45 8220.42c0.48,-47.08 7.99,-95.56 22.77,-143.81 60.3,-196.82 226.19,-327.01 396.69,-327.01 32.45,0 65.15,4.7 97.11,14.55 37.54,11.46 71.69,29.13 101.96,51.78 -199.31,144.17 -405.65,279.33 -618.53,404.49z"/>
   <path class="fil10" d="M10468.03 8626.84c-32.21,0 -64.9,-4.7 -97.11,-14.55 -159.6,-48.94 -258.41,-210.23 -256.47,-391.87 212.88,-125.16 419.21,-260.32 618.53,-404.49 131.99,99.03 190.35,293.38 131.99,483.9 -60.3,196.82 -226.19,327.01 -396.93,327.01z"/>
   <path class="fil9" d="M2607.27 7698.69c0,0 -963.17,-2863.58 566.75,-4043.48 1161.49,-895.82 2729.41,-1135.09 3395.38,-1135.09 211.3,0 331.66,24.22 319.85,58.85 0,0 -2461.73,649.04 -3390.08,2624.26 -715.88,1523.26 -891.9,2495.47 -891.9,2495.47z"/>
   <path class="fil0" d="M15086.39 8097.22l1003.11 -533.18c0,0 149.43,-193.79 320.89,-467.72 327.67,-523.59 734.53,-1339.71 329.37,-1655.03 -476.61,-371.02 -1027.81,501.55 -1291.78,1002.14 -98.33,186.43 -156.69,320.98 -156.69,320.98 0,0 -3.63,-127.82 -19.86,-317.45 -9.44,-105.01 -22.28,-229.49 -40.69,-361.48 -86.7,-622.89 -253.32,-1125.17 -697.23,-1062.93 -506.16,70.72 -410.74,954.43 -303.21,1639.6 46.26,292.58 94.21,548.92 99.29,690.21 10.9,303.76 756.81,744.85 756.81,744.85z"/>
   <path class="fil1" d="M15086.39 8097.22l1003.11 -533.18c0,0 149.43,-193.79 320.89,-467.72 -323.55,8.52 -817.35,-78.25 -962.42,-652.89 -98.33,186.43 -156.69,320.98 -156.69,320.98 0,0 -3.63,-127.82 -19.86,-317.45 -131.74,162.36 -548.05,589.85 -1041.13,215.2 46.26,292.58 94.21,548.92 99.29,690.21 10.9,303.76 756.81,744.85 756.81,744.85z"/>
   <path class="fil3" d="M14475.85 7347.14c4.36,124.09 309.75,389.47 615.38,581.86l901.39 -479.1c386.76,-509.98 1029.99,-1603.2 657.27,-1893.09 -69.75,-54.25 -139.25,-70.23 -218.93,-49.89 -356.49,91.06 -805.73,855.5 -1005.29,1315.83 -27.12,62.9 -94.45,98.42 -161.78,85.54 -67.33,-12.89 -116.73,-70.79 -118.67,-139.28 -0.24,-3 -9.93,-305.7 -59.58,-663.67 -47.47,-341.23 -112.13,-582.44 -197.86,-737.44 -111.4,-202.22 -231.52,-214.81 -333.96,-200.52 -64.66,9.2 -112.61,37.54 -151.36,90.09 -208.76,283.59 -73.86,1104.31 6.78,1594.51 34.87,212.37 62.48,380.15 66.6,495.16zm610.54 896.62c-25.91,0 -51.83,-6.83 -74.59,-20.32 -191.32,-113.17 -816.15,-509.83 -828.49,-865.98 -3.39,-96.29 -31,-263.9 -62.97,-457.96 -99.29,-604.53 -235.4,-1432.54 46.5,-1815.67 85.97,-116.73 202.46,-186.24 346.32,-206.34 185.51,-25.91 445.85,13.56 630.88,348.74 104.86,189.63 178.49,456.27 231.52,838.91 7.99,56.19 14.77,111.16 20.83,163.71 223.53,-397.42 577.11,-907.2 962.18,-1005.53 167.1,-42.87 330.09,-7.51 471.28,102.44 711.76,553.86 -485.81,2147.87 -624.58,2327.8 -12.84,16.52 -28.82,30.03 -47.22,39.79l-1003.11 533.28c-21.55,11.46 -45.05,17.12 -68.54,17.12z"/>
   <path class="fil0" d="M15410.67 10075.15c783.94,-108.98 1121.78,-710.75 1204.12,-1034.49 335.42,-1320.82 -1393.5,-1715.19 -1393.5,-1715.19 0,0 -1029.75,-219.29 -1596.45,1132.09l1785.83 1617.59z"/>
   <path class="fil3" d="M15400.5 10002.66c240.97,-82.41 455.78,-187.86 635.24,-340.17 572.51,-478.93 658,-1317.82 16.71,-1785.54 -250.17,-194.08 -557.01,-327.93 -863.37,-403.33 -688.27,-79.51 -1201.21,433.43 -1496.67,1012.26 -18.89,36.25 -63.93,50.18 -99.78,30.83 -31.97,-16.98 -46.01,-54.18 -35.12,-87.4 85.01,-259.18 207.79,-507.97 385.07,-720.32 311.2,-385.57 859.25,-642.62 1361.29,-518.26 465.23,141.22 925.61,363.54 1237.54,750.68 495.02,603.27 270.03,1500.96 -325.25,1948.16 -229.59,175.97 -518.75,269.21 -795.56,258.02 -82.58,-3.9 -97.36,-119.71 -20.1,-144.94z"/>
   <path class="fil0" d="M15797.91 7422.73c-321.85,50.44 -674.95,411.78 -576.14,935.44 76.53,406.45 450.21,635.87 832.61,661 469.83,31 767.47,-364.79 789.99,-635.23 11.62,-139.35 -16.23,-363.8 -355.52,-618.09 -140.46,-260.78 -344.38,-397.39 -690.94,-343.12z"/>
   <path class="fil3" d="M15820.68 7567.33l0 0c-131.5,20.61 -263.01,108.35 -352.13,234.67 -73.14,103.29 -150.15,279.06 -102.93,528.99 65.39,347.12 397.9,522.36 698.44,542.14 387,25.6 618.77,-312.9 634.27,-501.36 8.96,-107.48 -11.87,-275.09 -297.15,-488.86 -17.19,-12.71 -31.24,-29.06 -41.17,-47.78 -124.24,-230.68 -280.44,-308.32 -539.33,-267.8zm286.98 1599.98c-20.59,0 -41.41,-0.63 -62.73,-2.03 -413.4,-27.2 -872.57,-278.99 -967.02,-780.01 -51.58,-273.57 2.18,-540.64 151.36,-752.04 133.92,-189.72 338.08,-322.51 546.12,-355.11 372.47,-58.08 642.99,69.29 826.56,389.93 279.72,217.87 410.49,462.76 388.21,728.04 -27.13,325.18 -354.79,771.22 -882.5,771.22z"/>
   <path class="fil0" d="M14072.63 9551.46c-963.87,-570.57 -631.36,-1834.02 -306.12,-2201.99 408.56,-461.96 1905.95,-266.2 1848.07,345.49 -30.76,323.58 -477.58,402.45 -946.44,353.58 0,0 115.76,455.56 66.6,762.43l-662.12 740.49z"/>
   <path class="fil3" d="M14035.33 9614.43c-760.44,-375.86 -884.92,-1330.41 -570.09,-2051.72 180.18,-456.8 542.48,-598.91 1000.2,-619.59 395.96,-7.39 828.01,60.64 1133.4,342.83 270.27,259.45 194.47,690.21 -153.78,832.95 -260.83,113.34 -525.29,109.18 -792.17,75.49l157.18 -181.98c39.23,201.88 57.88,400.76 38.75,605.47 -16.71,76.65 -13.8,285.48 -135.86,251.45 -30.76,-10.39 -50.13,-39.09 -50.61,-69.99 -6.3,-120.36 -25.67,-240.17 -49.65,-358.94 -24.95,-117.31 -53.28,-242.11 -86.7,-355.71 -22.77,-75.15 19.86,-154.37 94.93,-177.01 20.83,-6.49 41.41,-7.02 62.24,-4.99 114.31,7.65 227.89,8.45 337.84,1.79 148.22,-13.32 301.76,-28.43 402.75,-124.8 76.53,-85.54 53.28,-200.04 -34.15,-285.12 -143.13,-137.12 -375.86,-200.81 -577.11,-229.51 -329.37,-37.92 -818.08,-33.73 -1001.9,276.42 -249.69,420.47 -330.82,984.99 -132.71,1440.92 90.09,201.88 241.94,374.89 432.05,506.08 74.59,50.98 6.06,166.72 -74.59,125.93z"/>
   <path class="fil3" d="M14230.29 12867.52c-756.57,0 -1371.22,-468.16 -1777.6,-1353.95 -296.91,-647.49 -378.28,-1284.86 -381.68,-1311.69 -9.93,-80.19 47.22,-153.2 127.39,-163.16 80.16,-10.03 153.3,46.98 163.23,127.19 2.91,24.07 318.22,2408.86 1868.66,2408.86 80.89,0 146.52,65.56 146.52,146.37 0,80.84 -65.63,146.37 -146.52,146.37z"/>
   <path class="fil11" d="M9281.58 13704.53c3.89,-0.7 12.05,-5.71 16.12,-7.71l144.05 -71.12c10.66,-5.51 21.39,-10.59 32.18,-15.95 21.36,-10.61 42.75,-21.23 64.39,-31.87l68.07 -33.57c3.5,-1.74 5.79,-1.42 5.05,-5.96 -0.41,-2.6 -0.33,-3.18 -0.46,-5.05l-3.8 -40.55c-0.41,-2.88 -0.55,-7.29 -0.75,-10 -0.29,-4.07 -0.94,-6.68 -1.11,-10.72 -0.6,-12.36 -2.63,-27.46 -3.57,-40.36l-1.86 -20.23c-0.45,-3.11 -0.82,-6.91 -0.93,-10.13 -0.33,-10.26 -2.43,-20.67 -2.91,-30.91 -0.48,-10.08 -1.84,-20.83 -2.85,-30.86l-3.51 -40.81c-0.74,-10.08 -2.46,-19.97 -2.79,-30.36l-15.65 -172.87c-1,-10.09 -2.35,-20.69 -2.85,-30.86l-3.81 -41.01c-2.03,-16.57 -2.53,-34.45 -4.68,-51.1 -1.3,-10.01 -1.31,-20.53 -2.64,-30.26 -1.33,-9.87 -1.61,-20.19 -2.67,-30.28 -1.03,-10.11 -2.37,-20.66 -2.85,-30.86 -0.17,-3.55 -0.74,-6.74 -1.08,-10.23l-8.03 -88.52 -108.87 -99.49c-255.78,24.75 -507.6,83.34 -751.27,144.77 1.19,6.66 3.47,11.28 5.26,20.01l7.97 29.35c1.08,3.72 1.62,6.87 2.57,10.59l21.17 79.76c2.16,6.43 3.11,13.16 5.27,19.62l7.89 30.17c0.58,2.49 1.99,7.5 2.7,9.73l5.39 20.14c3.48,13.51 7.47,26.69 10.52,39.97 3.04,13.22 7.87,27.06 10.52,39.99 1.3,6.41 3.87,13.26 5.22,19.73 1.86,9.1 10.1,38.77 13.26,49.64 1.08,3.72 1.62,6.87 2.57,10.59l39.52 149.29c2.22,9.64 5.66,20.48 8.09,29.88l5.33 20.23c2.85,13.88 7.68,26.73 10.6,40.55l15.73 59.68c2.53,9.76 5.86,20.14 8.09,29.88l5.22 19.73c1.53,6.65 3.93,13.58 5.31,20.26 0.49,2.45 1.7,7.32 2.58,9.91 4.45,13.26 6.47,26.72 10.64,39.79 1.05,3.26 1.75,6.71 2.52,10l8.05 29.94c1.14,3.48 2.46,2.46 7.53,2.8 3.44,0.24 5.96,0.59 9.32,0.92l341.98 33.26c3.14,0.32 6.11,0.64 8.85,0.91 2.08,0.2 7.9,0.95 9.5,0.66l-0.1 -0.12z"/>
   <path class="fil12" d="M9241.3 13661.73c3.89,-0.7 12.05,-5.71 16.12,-7.71l144.05 -71.12c10.66,-5.51 21.39,-10.59 32.18,-15.95 21.36,-10.61 42.75,-21.23 64.39,-31.87l68.07 -33.57c3.5,-1.74 5.79,-1.42 5.05,-5.96 -0.41,-2.6 -0.33,-3.18 -0.46,-5.05l-3.8 -40.55c-0.41,-2.88 -0.55,-7.29 -0.75,-10 -0.29,-4.07 -0.94,-6.68 -1.11,-10.72 -0.6,-12.36 -2.63,-27.46 -3.57,-40.36l-1.86 -20.23c-0.45,-3.11 -0.82,-6.91 -0.93,-10.13 -0.33,-10.26 -2.43,-20.67 -2.91,-30.91 -0.48,-10.08 -1.84,-20.83 -2.85,-30.86l-3.51 -40.81c-0.74,-10.08 -2.46,-19.97 -2.79,-30.36l-15.65 -172.87c-1,-10.09 -2.35,-20.69 -2.85,-30.86l-3.81 -41.01c-2.03,-16.57 -2.53,-34.45 -4.68,-51.1 -1.3,-10.01 -1.31,-20.53 -2.64,-30.26 -1.33,-9.87 -1.61,-20.19 -2.67,-30.28 -1.03,-10.11 -2.37,-20.66 -2.85,-30.86 -0.17,-3.55 -0.74,-6.74 -1.08,-10.23l-8.03 -88.52 -108.87 -99.49c-255.78,24.75 -507.6,83.34 -751.27,144.77 1.19,6.66 3.47,11.28 5.26,20.01l7.97 29.35c1.08,3.72 1.62,6.87 2.57,10.59l21.17 79.76c2.16,6.43 3.11,13.16 5.27,19.62l7.89 30.17c0.58,2.49 1.99,7.5 2.7,9.73l5.39 20.14c3.48,13.51 7.47,26.69 10.52,39.97 3.04,13.22 7.87,27.06 10.52,39.99 1.3,6.41 3.87,13.26 5.22,19.73 1.86,9.1 10.1,38.77 13.26,49.64 1.08,3.72 1.62,6.87 2.57,10.59l39.52 149.29c2.22,9.64 5.66,20.48 8.09,29.88l5.33 20.23c2.85,13.88 7.68,26.73 10.6,40.55l15.73 59.68c2.53,9.76 5.86,20.14 8.09,29.88l5.22 19.73c1.53,6.65 3.93,13.58 5.31,20.26 0.49,2.45 1.7,7.32 2.58,9.91 4.45,13.26 6.47,26.72 10.64,39.79 1.05,3.26 1.75,6.71 2.52,10l8.05 29.94c1.14,3.48 2.46,2.46 7.53,2.8 3.44,0.24 5.96,0.59 9.32,0.92l341.98 33.26c3.14,0.32 6.11,0.64 8.85,0.91 2.08,0.2 7.9,0.95 9.5,0.66l-0.1 -0.12z"/>
   <polygon class="fil13" points="9082.1,12770.94 9352.11,12723.57 9441.98,12802.09 9499.86,13442.18 9226.05,13577.49 "/>
   <path class="fil14" d="M8823.93 12923.49c170.74,-53.67 311.09,-83.58 477.7,-89.32l81.23 95.88 28.83 439.02 -204.49 107.37 -233.69 -20.22 -121.94 -434.32 -27.61 -98.41 -0.02 0zm232.84 425.91l119.86 8.64 120.75 -46.57 -27.81 -360.66c-104.43,0.66 -209.28,21 -314.5,58.13l101.7 340.47 0 0z"/>
  </g>
 </g>
</svg>
