<?xml version="1.0" encoding="UTF-8"?>
<!DOCTYPE svg PUBLIC "-//W3C//DTD SVG 1.1//EN" "http://www.w3.org/Graphics/SVG/1.1/DTD/svg11.dtd">
<!-- Creator: CorelDRAW 2021 (64 Bit) -->
<svg xmlns="http://www.w3.org/2000/svg" xml:space="preserve" width="232.357mm" height="161.892mm" version="1.1" style="shape-rendering:geometricPrecision; text-rendering:geometricPrecision; image-rendering:optimizeQuality; fill-rule:evenodd; clip-rule:evenodd"
viewBox="0 0 1187.64 827.48"
 xmlns:xlink="http://www.w3.org/1999/xlink"
 xmlns:xodm="http://www.corel.com/coreldraw/odm/2003">
 <defs>
  <style type="text/css">
   <![CDATA[
    .fil1 {fill:none;fill-rule:nonzero}
    .fil0 {fill:#FEFEFE;fill-rule:nonzero}
    .fil2 {fill:#FCF0A6;fill-rule:nonzero}
   ]]>
  </style>
 </defs>
 <g id="Camada_x0020_1">
  <metadata id="CorelCorpID_0Corel-Layer"/>
  <g id="_2467196595712">
   <path class="fil0" d="M376.41 22.47c0,1.62 -1.31,2.93 -2.93,2.93 -1.62,0 -2.93,-1.31 -2.93,-2.93 0,-1.62 1.31,-2.93 2.93,-2.93 1.62,0 2.93,1.31 2.93,2.93z"/>
   <path class="fil0" d="M35.61 53.12c0,1.62 -1.31,2.93 -2.93,2.93 -1.62,0 -2.93,-1.31 -2.93,-2.93 0,-1.62 1.31,-2.93 2.93,-2.93 1.62,0 2.93,1.31 2.93,2.93z"/>
   <path class="fil0" d="M762.95 110.4c0,1.55 -1.26,2.81 -2.81,2.81 -1.56,0 -2.81,-1.26 -2.81,-2.81 0,-1.55 1.26,-2.81 2.81,-2.81 1.55,0 2.81,1.26 2.81,2.81z"/>
   <path class="fil0" d="M873.55 19.05c0,1.89 -1.53,3.42 -3.43,3.42 -1.88,0 -3.41,-1.53 -3.41,-3.42 0,-1.89 1.53,-3.42 3.41,-3.42 1.89,0 3.43,1.53 3.43,3.42z"/>
   <path class="fil0" d="M907.58 13.52c0,1.16 -0.94,2.11 -2.09,2.11 -1.17,0 -2.11,-0.94 -2.11,-2.11 0,-1.16 0.94,-2.1 2.11,-2.1 1.15,0 2.09,0.94 2.09,2.1z"/>
   <path class="fil0" d="M680.69 263.71c0,0.91 -0.74,1.65 -1.65,1.65 -0.91,0 -1.65,-0.74 -1.65,-1.65 0,-0.91 0.74,-1.65 1.65,-1.65 0.91,0 1.65,0.74 1.65,1.65z"/>
   <path class="fil0" d="M738.69 244.93c0,0.83 -0.67,1.5 -1.5,1.5 -0.83,0 -1.5,-0.67 -1.5,-1.5 0,-0.83 0.67,-1.5 1.5,-1.5 0.83,0 1.5,0.67 1.5,1.5z"/>
   <path class="fil0" d="M544.25 238.17c0,1.41 -1.14,2.55 -2.55,2.55 -1.41,0 -2.56,-1.14 -2.56,-2.55 0,-1.41 1.15,-2.56 2.56,-2.56 1.41,0 2.55,1.14 2.55,2.56z"/>
   <path class="fil0" d="M449.58 244.93c0,0.83 -0.67,1.5 -1.5,1.5 -0.83,0 -1.5,-0.67 -1.5,-1.5 0,-0.83 0.67,-1.5 1.5,-1.5 0.83,0 1.5,0.67 1.5,1.5z"/>
   <path class="fil0" d="M451.09 175.96c0,1.24 -1.01,2.25 -2.25,2.25 -1.24,0 -2.25,-1.01 -2.25,-2.25 0,-1.24 1.01,-2.25 2.25,-2.25 1.24,0 2.25,1.01 2.25,2.25z"/>
   <path class="fil0" d="M291.56 274.06c0,0.65 -0.53,1.18 -1.18,1.18 -0.65,0 -1.18,-0.53 -1.18,-1.18 0,-0.65 0.53,-1.18 1.18,-1.18 0.65,0 1.18,0.53 1.18,1.18z"/>
   <path class="fil0" d="M313.3 236.89c0,0.7 -0.57,1.28 -1.28,1.28 -0.71,0 -1.28,-0.57 -1.28,-1.28 0,-0.71 0.57,-1.28 1.28,-1.28 0.7,0 1.28,0.57 1.28,1.28z"/>
   <path class="fil0" d="M229.6 217.28c0,0.5 -0.4,0.9 -0.9,0.9 -0.5,0 -0.9,-0.4 -0.9,-0.9 0,-0.5 0.41,-0.9 0.9,-0.9 0.5,0 0.9,0.4 0.9,0.9z"/>
   <path class="fil0" d="M79.34 225.09c0,0.5 -0.4,0.9 -0.9,0.9 -0.5,0 -0.9,-0.4 -0.9,-0.9 0,-0.5 0.4,-0.9 0.9,-0.9 0.5,0 0.9,0.4 0.9,0.9z"/>
   <path class="fil0" d="M227.8 301.73c0,1 -0.81,1.8 -1.8,1.8 -1,0 -1.8,-0.81 -1.8,-1.8 0,-1 0.81,-1.8 1.8,-1.8 1,0 1.8,0.81 1.8,1.8z"/>
   <path class="fil0" d="M79.34 274.68c0,1 -0.81,1.8 -1.8,1.8 -1,0 -1.8,-0.81 -1.8,-1.8 0,-1 0.81,-1.8 1.8,-1.8 1,0 1.8,0.81 1.8,1.8z"/>
   <path class="fil0" d="M3.61 148.46c0,1 -0.81,1.8 -1.8,1.8 -1,0 -1.8,-0.81 -1.8,-1.8 0,-1 0.81,-1.8 1.8,-1.8 1,0 1.8,0.81 1.8,1.8z"/>
   <path class="fil0" d="M444.4 342.98c0,2.45 -1.99,4.43 -4.43,4.43 -2.45,0 -4.43,-1.98 -4.43,-4.43 0,-2.45 1.99,-4.43 4.43,-4.43 2.45,0 4.43,1.98 4.43,4.43z"/>
   <path class="fil0" d="M154.09 371.83c0,2.45 -1.99,4.43 -4.43,4.43 -2.45,0 -4.43,-1.98 -4.43,-4.43 0,-2.45 1.99,-4.43 4.43,-4.43 2.45,0 4.43,1.98 4.43,4.43z"/>
   <path class="fil0" d="M903.68 288.66c0,0.75 -0.61,1.35 -1.35,1.35 -0.76,0 -1.35,-0.61 -1.35,-1.35 0,-0.75 0.59,-1.35 1.35,-1.35 0.74,0 1.35,0.61 1.35,1.35z"/>
   <path class="fil0" d="M989.3 162.63c0,3.81 -3.08,6.9 -6.89,6.9 -3.82,0 -6.91,-3.09 -6.91,-6.9 0,-3.81 3.08,-6.9 6.91,-6.9 3.8,0 6.89,3.09 6.89,6.9z"/>
   <path class="fil0" d="M1187.64 427.69c0,3.81 -3.08,6.9 -6.89,6.9 -3.82,0 -6.91,-3.09 -6.91,-6.9 0,-3.81 3.08,-6.9 6.91,-6.9 3.8,0 6.89,3.09 6.89,6.9z"/>
   <path class="fil0" d="M1003.15 306.84c0,1.83 -1.48,3.31 -3.3,3.31 -1.82,0 -3.3,-1.48 -3.3,-3.31 0,-1.82 1.48,-3.31 3.3,-3.31 1.82,0 3.3,1.48 3.3,3.31z"/>
   <path class="fil0" d="M1143.79 146.36c0,1.82 -1.48,3.3 -3.3,3.3 -1.82,0 -3.3,-1.48 -3.3,-3.3 0,-1.83 1.48,-3.31 3.3,-3.31 1.82,0 3.3,1.48 3.3,3.31z"/>
   <path class="fil0" d="M52.89 389.78c0,1.83 -1.48,3.31 -3.3,3.31 -1.83,0 -3.31,-1.48 -3.31,-3.31 0,-1.82 1.48,-3.31 3.31,-3.31 1.83,0 3.3,1.48 3.3,3.31z"/>
   <path class="fil0" d="M810.82 419.23c0,0.83 -0.69,1.5 -1.51,1.5 -0.83,0 -1.5,-0.67 -1.5,-1.5 0,-0.83 0.67,-1.5 1.5,-1.5 0.83,0 1.51,0.67 1.51,1.5z"/>
   <path class="fil0" d="M844.79 403.45c0,0.41 -0.32,0.74 -0.74,0.74 -0.42,0 -0.74,-0.33 -0.74,-0.74 0,-0.41 0.32,-0.74 0.74,-0.74 0.41,0 0.74,0.33 0.74,0.74z"/>
   <path class="fil0" d="M709.54 549.81c0,3.15 -2.56,5.71 -5.71,5.71 -3.15,0 -5.71,-2.56 -5.71,-5.71 0,-3.15 2.56,-5.71 5.71,-5.71 3.15,0 5.71,2.56 5.71,5.71z"/>
   <path class="fil0" d="M20.74 802.25c0,3.15 -2.56,5.71 -5.71,5.71 -3.15,0 -5.71,-2.56 -5.71,-5.71 0,-3.15 2.56,-5.71 5.71,-5.71 3.15,0 5.71,2.56 5.71,5.71z"/>
   <path class="fil0" d="M765.96 368.86c0,0.83 -0.67,1.5 -1.5,1.5 -0.83,0 -1.5,-0.67 -1.5,-1.5 0,-0.83 0.67,-1.5 1.5,-1.5 0.83,0 1.5,0.67 1.5,1.5z"/>
   <path class="fil0" d="M534.33 523.66c0,0.66 -0.54,1.2 -1.2,1.2 -0.66,0 -1.2,-0.54 -1.2,-1.2 0,-0.66 0.54,-1.2 1.2,-1.2 0.66,0 1.2,0.54 1.2,1.2z"/>
   <line class="fil1" x1="537.94" y1="560.33" x2="537.94" y2= "560.33" />
   <path class="fil0" d="M417.73 547.11c0,1.66 -1.35,3.01 -3.01,3.01 -1.66,0 -3.01,-1.35 -3.01,-3.01 0,-1.66 1.35,-3 3.01,-3 1.66,0 3.01,1.35 3.01,3z"/>
   <path class="fil0" d="M118.41 736.44c0,1.66 -1.34,3.01 -3.01,3.01 -1.66,0 -3.01,-1.35 -3.01,-3.01 0,-1.66 1.35,-3 3.01,-3 1.66,0 3.01,1.35 3.01,3z"/>
   <path class="fil0" d="M494.36 540.95c0,0.91 -0.74,1.65 -1.65,1.65 -0.91,0 -1.65,-0.74 -1.65,-1.65 0,-0.91 0.74,-1.65 1.65,-1.65 0.91,0 1.65,0.74 1.65,1.65z"/>
   <path class="fil0" d="M524.72 641.32c0,1 -0.81,1.8 -1.8,1.8 -1,0 -1.8,-0.81 -1.8,-1.8 0,-1 0.81,-1.8 1.8,-1.8 1,0 1.8,0.81 1.8,1.8z"/>
   <line class="fil1" x1="412.92" y1="581.22" x2="412.92" y2= "581.22" />
   <path class="fil0" d="M289.21 572.55c0,2.19 -1.77,3.96 -3.96,3.96 -2.19,0 -3.96,-1.77 -3.96,-3.96 0,-2.19 1.77,-3.96 3.96,-3.96 2.19,0 3.96,1.77 3.96,3.96z"/>
   <path class="fil0" d="M342.9 541.4c0,1.24 -1.01,2.25 -2.25,2.25 -1.24,0 -2.25,-1.01 -2.25,-2.25 0,-1.24 1.01,-2.25 2.25,-2.25 1.24,0 2.25,1.01 2.25,2.25z"/>
   <path class="fil0" d="M226.9 633.06c0,1.41 -1.14,2.56 -2.55,2.56 -1.41,0 -2.55,-1.14 -2.55,-2.56 0,-1.41 1.14,-2.56 2.55,-2.56 1.41,0 2.55,1.14 2.55,2.56z"/>
   <path class="fil0" d="M230.61 720.7c0,1.03 -0.83,1.86 -1.86,1.86 -1.02,0 -1.86,-0.83 -1.86,-1.86 0,-1.02 0.83,-1.86 1.86,-1.86 1.03,0 1.86,0.83 1.86,1.86z"/>
   <path class="fil0" d="M285.23 741.44c0,1.63 -1.32,2.96 -2.96,2.96 -1.63,0 -2.96,-1.32 -2.96,-2.96 0,-1.63 1.32,-2.95 2.96,-2.95 1.63,0 2.96,1.32 2.96,2.95z"/>
   <path class="fil0" d="M290.96 784.65c0,0.48 -0.39,0.88 -0.88,0.88 -0.49,0 -0.88,-0.39 -0.88,-0.88 0,-0.48 0.39,-0.88 0.88,-0.88 0.49,0 0.88,0.39 0.88,0.88z"/>
   <path class="fil0" d="M218.78 814.72c0,3.32 -2.69,6.01 -6.01,6.01 -3.32,0 -6.01,-2.69 -6.01,-6.01 0,-3.32 2.69,-6.01 6.01,-6.01 3.32,0 6.01,2.69 6.01,6.01z"/>
   <path class="fil0" d="M464.01 702.03c0,2.32 -1.88,4.21 -4.21,4.21 -2.32,0 -4.21,-1.88 -4.21,-4.21 0,-2.32 1.88,-4.21 4.21,-4.21 2.32,0 4.21,1.88 4.21,4.21z"/>
   <path class="fil0" d="M512.62 748.13c0,0.48 -0.39,0.86 -0.86,0.86 -0.48,0 -0.86,-0.39 -0.86,-0.86 0,-0.47 0.39,-0.86 0.86,-0.86 0.47,0 0.86,0.39 0.86,0.86z"/>
   <path class="fil0" d="M639.22 771c0,2.24 -1.82,4.06 -4.06,4.06 -2.24,0 -4.06,-1.82 -4.06,-4.06 0,-2.24 1.82,-4.06 4.06,-4.06 2.24,0 4.06,1.82 4.06,4.06z"/>
   <path class="fil0" d="M789.18 591.13c0,1.49 -1.21,2.7 -2.7,2.7 -1.5,0 -2.7,-1.21 -2.7,-2.7 0,-1.49 1.21,-2.7 2.7,-2.7 1.5,0 2.7,1.21 2.7,2.7z"/>
   <path class="fil0" d="M863.94 514.69c0,1.43 -1.17,2.59 -2.6,2.59 -1.44,0 -2.6,-1.16 -2.6,-2.59 0,-1.43 1.15,-2.59 2.6,-2.59 1.42,0 2.6,1.16 2.6,2.59z"/>
   <path class="fil0" d="M706.23 640.12c0,0.66 -0.54,1.2 -1.2,1.2 -0.66,0 -1.2,-0.54 -1.2,-1.2 0,-0.66 0.54,-1.2 1.2,-1.2 0.66,0 1.2,0.54 1.2,1.2z"/>
   <path class="fil0" d="M781.67 688.95c0,0.41 -0.34,0.75 -0.76,0.75 -0.41,0 -0.74,-0.34 -0.74,-0.75 0,-0.41 0.32,-0.75 0.74,-0.75 0.41,0 0.76,0.34 0.76,0.75z"/>
   <path class="fil0" d="M923.52 627.65c0,1.41 -1.15,2.55 -2.56,2.55 -1.41,0 -2.56,-1.14 -2.56,-2.55 0,-1.41 1.15,-2.56 2.56,-2.56 1.41,0 2.56,1.14 2.56,2.56z"/>
   <path class="fil0" d="M971 549.81c0,1.24 -1.01,2.25 -2.25,2.25 -1.24,0 -2.25,-1.01 -2.25,-2.25 0,-1.24 1.01,-2.25 2.25,-2.25 1.24,0 2.25,1.01 2.25,2.25z"/>
   <path class="fil0" d="M1117.05 511.94c0,1.24 -1.01,2.25 -2.25,2.25 -1.24,0 -2.25,-1.01 -2.25,-2.25 0,-1.24 1.01,-2.25 2.25,-2.25 1.24,0 2.25,1.01 2.25,2.25z"/>
   <path class="fil0" d="M1079.19 587.68c0,1.24 -1.01,2.25 -2.25,2.25 -1.24,0 -2.25,-1.01 -2.25,-2.25 0,-1.24 1.01,-2.25 2.25,-2.25 1.24,0 2.25,1.01 2.25,2.25z"/>
   <path class="fil0" d="M1180.16 309.99c0,1.25 -1.01,2.25 -2.25,2.25 -1.24,0 -2.25,-1.01 -2.25,-2.25 0,-1.24 1.01,-2.25 2.25,-2.25 1.24,0 2.25,1.01 2.25,2.25z"/>
   <path class="fil0" d="M1022.69 672.13c0,1.08 -0.88,1.95 -1.97,1.95 -1.06,0 -1.95,-0.87 -1.95,-1.95 0,-1.08 0.88,-1.95 1.95,-1.95 1.08,0 1.97,0.87 1.97,1.95z"/>
   <path class="fil0" d="M1179.57 796.54c0,1.08 -0.88,1.95 -1.97,1.95 -1.06,0 -1.95,-0.88 -1.95,-1.95 0,-1.08 0.88,-1.95 1.95,-1.95 1.08,0 1.97,0.88 1.97,1.95z"/>
   <line class="fil1" x1="1008.56" y1="779.56" x2="1008.56" y2= "779.56" />
   <path class="fil0" d="M851.41 826.36c0,0.62 -0.5,1.12 -1.12,1.12 -0.61,0 -1.12,-0.5 -1.12,-1.12 0,-0.62 0.5,-1.12 1.12,-1.12 0.61,0 1.12,0.5 1.12,1.12z"/>
   <path class="fil0" d="M999.85 413.88c0,1.74 -1.41,3.16 -3.16,3.16 -1.75,0 -3.16,-1.41 -3.16,-3.16 0,-1.74 1.41,-3.16 3.16,-3.16 1.75,0 3.16,1.41 3.16,3.16z"/>
   <path class="fil0" d="M1014.09 16.29c0,1.52 -1.24,2.76 -2.78,2.76 -1.51,0 -2.76,-1.24 -2.76,-2.76 0,-1.53 1.24,-2.76 2.76,-2.76 1.53,0 2.78,1.24 2.78,2.76z"/>
   <path class="fil0" d="M703.23 2.7c0,1.5 -1.21,2.7 -2.7,2.7 -1.49,0 -2.7,-1.21 -2.7,-2.7 0,-1.49 1.21,-2.7 2.7,-2.7 1.49,0 2.7,1.21 2.7,2.7z"/>
   <path class="fil0" d="M208.19 19.65c0,1.56 -1.26,2.82 -2.82,2.82 -1.56,0 -2.82,-1.26 -2.82,-2.82 0,-1.55 1.26,-2.82 2.82,-2.82 1.56,0 2.82,1.26 2.82,2.82z"/>
   <path class="fil0" d="M320.13 368.86c0,1.89 -1.53,3.42 -3.42,3.42 -1.89,0 -3.42,-1.53 -3.42,-3.42 0,-1.89 1.53,-3.42 3.42,-3.42 1.89,0 3.42,1.53 3.42,3.42z"/>
   <path class="fil0" d="M94.74 541.96c0,1.89 -1.53,3.42 -3.42,3.42 -1.89,0 -3.42,-1.53 -3.42,-3.42 0,-1.89 1.53,-3.42 3.42,-3.42 1.89,0 3.42,1.53 3.42,3.42z"/>
   <path class="fil0" d="M194.14 486.85c0,1 -0.81,1.8 -1.8,1.8 -1,0 -1.8,-0.81 -1.8,-1.8 0,-1 0.81,-1.8 1.8,-1.8 1,0 1.8,0.81 1.8,1.8z"/>
   <path class="fil0" d="M607.14 321.52c0,0.64 -0.52,1.16 -1.16,1.16 -0.64,0 -1.16,-0.52 -1.16,-1.16 0,-0.64 0.52,-1.16 1.16,-1.16 0.64,0 1.16,0.52 1.16,1.16z"/>
   <path class="fil2" d="M956.61 683.28l-1.23 -4.81c-0.16,-0.69 -1.14,-0.7 -1.33,-0.01l-1.3 4.79c-0.07,0.24 -0.25,0.43 -0.5,0.49l-4.81 1.22c-0.68,0.18 -0.68,1.15 0,1.34l4.78 1.31c0.25,0.07 0.43,0.26 0.49,0.5l1.23 4.81c0.18,0.69 1.15,0.7 1.33,0.01l1.32 -4.79c0.05,-0.24 0.25,-0.43 0.49,-0.49l4.81 -1.22c0.68,-0.17 0.7,-1.15 0.02,-1.33l-4.8 -1.31c-0.23,-0.06 -0.43,-0.26 -0.49,-0.5z"/>
   <path class="fil2" d="M510.88 45.07l-1.22 -4.81c-0.17,-0.69 -1.15,-0.7 -1.33,-0.01l-1.31 4.79c-0.07,0.24 -0.25,0.43 -0.5,0.49l-4.81 1.22c-0.69,0.17 -0.7,1.15 -0.01,1.33l4.79 1.31c0.24,0.06 0.43,0.25 0.48,0.5l1.22 4.81c0.17,0.69 1.15,0.7 1.33,0.01l1.31 -4.79c0.06,-0.24 0.25,-0.43 0.5,-0.49l4.81 -1.22c0.69,-0.17 0.7,-1.15 0.01,-1.33l-4.79 -1.31c-0.24,-0.06 -0.43,-0.25 -0.49,-0.5z"/>
   <path class="fil2" d="M962.05 66.41l-1.05 -4.11c-0.14,-0.59 -0.99,-0.59 -1.14,-0.01l-1.12 4.09c-0.05,0.2 -0.22,0.36 -0.43,0.41l-4.11 1.04c-0.58,0.15 -0.6,0.98 0,1.14l4.09 1.12c0.2,0.05 0.36,0.22 0.41,0.42l1.03 4.11c0.16,0.59 0.99,0.59 1.15,0.01l1.1 -4.09c0.07,-0.21 0.23,-0.37 0.43,-0.42l4.11 -1.04c0.58,-0.15 0.59,-0.98 0.02,-1.14l-4.09 -1.12c-0.22,-0.05 -0.38,-0.22 -0.42,-0.42z"/>
   <path class="fil2" d="M1174.82 44.77l-1.05 -4.11c-0.14,-0.59 -0.99,-0.59 -1.14,-0.01l-1.12 4.09c-0.05,0.2 -0.22,0.36 -0.43,0.42l-4.11 1.04c-0.58,0.15 -0.59,0.98 0,1.14l4.09 1.12c0.2,0.05 0.36,0.22 0.42,0.42l1.03 4.11c0.16,0.59 0.99,0.6 1.15,0.01l1.1 -4.09c0.07,-0.21 0.23,-0.37 0.43,-0.42l4.11 -1.04c0.58,-0.15 0.6,-0.98 0.02,-1.14l-4.09 -1.12c-0.22,-0.05 -0.38,-0.22 -0.42,-0.42z"/>
   <path class="fil2" d="M209.86 109.3l-1.04 -4.11c-0.15,-0.59 -0.98,-0.6 -1.14,-0.01l-1.12 4.09c-0.06,0.2 -0.22,0.36 -0.43,0.41l-4.11 1.04c-0.59,0.15 -0.59,0.98 -0.01,1.14l4.09 1.12c0.2,0.06 0.36,0.22 0.42,0.43l1.04 4.11c0.15,0.59 0.98,0.59 1.14,0.01l1.12 -4.09c0.06,-0.21 0.22,-0.36 0.43,-0.42l4.11 -1.04c0.59,-0.15 0.59,-0.98 0.01,-1.14l-4.09 -1.12c-0.21,-0.06 -0.36,-0.22 -0.42,-0.42z"/>
   <path class="fil2" d="M24.13 675.49l-1.04 -4.11c-0.15,-0.59 -0.98,-0.59 -1.14,-0.01l-1.12 4.09c-0.06,0.21 -0.22,0.36 -0.43,0.41l-4.11 1.04c-0.59,0.15 -0.59,0.98 -0.01,1.14l4.09 1.12c0.2,0.06 0.36,0.22 0.42,0.43l1.04 4.11c0.15,0.59 0.98,0.59 1.14,0.01l1.12 -4.09c0.06,-0.2 0.22,-0.36 0.43,-0.42l4.11 -1.04c0.59,-0.15 0.6,-0.98 0.01,-1.14l-4.09 -1.12c-0.21,-0.06 -0.36,-0.22 -0.42,-0.43z"/>
   <path class="fil1" d="M339.82 299.96l-0.17 -0.11c-0.16,-0.11 -0.32,-0.22 -0.48,-0.33l-0.13 -0.09 -0.38 -0.27 -0.16 -0.12c-0.15,-0.11 -0.3,-0.23 -0.45,-0.35l-0.16 -0.13 -0.35 -0.28 -0.14 -0.11c-0.14,-0.12 -0.28,-0.23 -0.41,-0.35l-0.19 -0.17 -0.31 -0.28 -0.25 -0.23 -0.28 -0.26 -0.2 -0.19c-0.13,-0.12 -0.25,-0.24 -0.37,-0.36l-0.15 -0.15 -0.29 -0.29 -0.16 -0.17c-0.12,-0.13 -0.24,-0.26 -0.36,-0.39l-0.16 -0.17 -0.32 -0.36 -0.07 -0.07 -0.01 -0.01 -0.05 -0.06 -0.31 -0.37 -0.18 -0.21 -0.33 -0.41 -0.12 -0.15 -0.26 -0.34 -0.14 -0.18c-0.11,-0.15 -0.22,-0.29 -0.32,-0.44l-0.12 -0.17 -0.25 -0.37 -0.16 -0.24 -0.24 -0.37 -0.14 -0.22 -0.25 -0.41 -0.14 -0.23 -0.2 -0.34 -0.12 -0.21c-0.09,-0.15 -0.17,-0.3 -0.26,-0.46l-0.13 -0.25 -0.18 -0.33 -0.1 -0.2 -0.24 -0.49 -0.11 -0.22 -0.18 -0.39 -0.13 -0.28 -0.19 -0.44 -0.07 -0.16c-0.08,-0.18 -0.15,-0.36 -0.22,-0.54l-0.07 -0.18c-0.06,-0.16 -0.13,-0.33 -0.19,-0.49l-0.04 -0.11c-0.07,-0.19 -0.14,-0.38 -0.2,-0.58l-0.06 -0.18c-0.06,-0.18 -0.12,-0.37 -0.18,-0.55l-0.01 -0.04 -0.01 -0.02c-0.06,-0.2 -0.12,-0.4 -0.18,-0.6l-0.05 -0.17c-0.05,-0.19 -0.11,-0.39 -0.16,-0.59l-0.04 -0.14 -0.12 -0.49 -0.04 -0.18c-0.04,-0.2 -0.09,-0.39 -0.13,-0.59l-0.03 -0.17c-0.04,-0.18 -0.07,-0.36 -0.1,-0.54l-0.02 -0.12c-0.04,-0.21 -0.07,-0.42 -0.1,-0.63l-0.02 -0.14c-0.06,-0.43 -0.12,-0.86 -0.17,-1.3l-0.02 -0.2c-0.02,-0.21 -0.04,-0.42 -0.06,-0.64l-0.01 -0.1c-0.02,-0.21 -0.03,-0.42 -0.04,-0.63l-0.01 -0.1c-0.01,-0.22 -0.02,-0.44 -0.03,-0.67l-0 -0.16c-0.01,-0.22 -0.01,-0.45 -0.01,-0.68m0.04 -1.53l0 -0.01c0.05,-0.91 0.14,-1.8 0.26,-2.69 0.73,0.48 1.53,1.03 2.4,1.66 9.47,6.76 12.62,9.02 10.37,14.43 -1.74,4.17 1.74,10.47 0.24,12.94l-0.11 -0.07"/>
  </g>
 </g>
</svg>
