<?xml version="1.0" encoding="UTF-8"?>
<!DOCTYPE svg PUBLIC "-//W3C//DTD SVG 1.1//EN" "http://www.w3.org/Graphics/SVG/1.1/DTD/svg11.dtd">
<!-- Creator: CorelDRAW 2021 (64 Bit) -->
<svg xmlns="http://www.w3.org/2000/svg" xml:space="preserve" width="232.357mm" height="161.892mm" version="1.1" style="shape-rendering:geometricPrecision; text-rendering:geometricPrecision; image-rendering:optimizeQuality; fill-rule:evenodd; clip-rule:evenodd"
viewBox="0 0 1187.64 827.48"
 xmlns:xlink="http://www.w3.org/1999/xlink"
 xmlns:xodm="http://www.corel.com/coreldraw/odm/2003">
 <defs>
  <style type="text/css">
   <![CDATA[
    .fil1 {fill:none;fill-rule:nonzero}
    .fil0 {fill:#FEFEFE;fill-rule:nonzero}
    .fil2 {fill:#FCF0A6;fill-rule:nonzero}
   ]]>
  </style>
 </defs>
 <g id="Camada_x0020_1">
  <metadata id="CorelCorpID_0Corel-Layer"/>
  <g id="_2467410387216">
   <path class="fil0" d="M811.24 805.01c0,-1.62 1.31,-2.93 2.93,-2.93 1.62,0 2.93,1.31 2.93,2.93 0,1.62 -1.31,2.93 -2.93,2.93 -1.62,0 -2.93,-1.31 -2.93,-2.93z"/>
   <path class="fil0" d="M1152.03 774.36c0,-1.62 1.31,-2.93 2.93,-2.93 1.62,0 2.93,1.31 2.93,2.93 0,1.62 -1.31,2.93 -2.93,2.93 -1.62,0 -2.93,-1.31 -2.93,-2.93z"/>
   <path class="fil0" d="M424.69 717.08c0,-1.55 1.26,-2.81 2.81,-2.81 1.56,0 2.81,1.26 2.81,2.81 0,1.55 -1.26,2.81 -2.81,2.81 -1.55,0 -2.81,-1.26 -2.81,-2.81z"/>
   <path class="fil0" d="M314.09 808.43c0,-1.89 1.53,-3.42 3.43,-3.42 1.88,0 3.41,1.53 3.41,3.42 0,1.89 -1.53,3.42 -3.41,3.42 -1.89,0 -3.43,-1.53 -3.43,-3.42z"/>
   <path class="fil0" d="M280.07 813.96c0,-1.16 0.94,-2.11 2.09,-2.11 1.17,0 2.11,0.94 2.11,2.11 0,1.16 -0.94,2.1 -2.11,2.1 -1.15,0 -2.09,-0.94 -2.09,-2.1z"/>
   <path class="fil0" d="M506.96 563.77c0,-0.91 0.74,-1.65 1.65,-1.65 0.91,0 1.65,0.74 1.65,1.65 0,0.91 -0.74,1.65 -1.65,1.65 -0.91,0 -1.65,-0.74 -1.65,-1.65z"/>
   <path class="fil0" d="M448.95 582.55c0,-0.83 0.67,-1.5 1.5,-1.5 0.83,0 1.5,0.67 1.5,1.5 0,0.83 -0.67,1.5 -1.5,1.5 -0.83,0 -1.5,-0.67 -1.5,-1.5z"/>
   <path class="fil0" d="M643.39 589.31c0,-1.41 1.14,-2.55 2.55,-2.55 1.41,0 2.56,1.14 2.56,2.55 0,1.41 -1.15,2.56 -2.56,2.56 -1.41,0 -2.55,-1.14 -2.55,-2.56z"/>
   <path class="fil0" d="M738.06 582.55c0,-0.83 0.67,-1.5 1.5,-1.5 0.83,0 1.5,0.67 1.5,1.5 0,0.83 -0.67,1.5 -1.5,1.5 -0.83,0 -1.5,-0.67 -1.5,-1.5z"/>
   <path class="fil0" d="M736.56 651.52c0,-1.24 1.01,-2.25 2.25,-2.25 1.24,0 2.25,1.01 2.25,2.25 0,1.24 -1.01,2.25 -2.25,2.25 -1.24,0 -2.25,-1.01 -2.25,-2.25z"/>
   <path class="fil0" d="M896.09 553.42c0,-0.65 0.53,-1.18 1.18,-1.18 0.65,0 1.18,0.53 1.18,1.18 0,0.65 -0.53,1.18 -1.18,1.18 -0.65,0 -1.18,-0.53 -1.18,-1.18z"/>
   <path class="fil0" d="M874.35 590.59c0,-0.7 0.57,-1.28 1.28,-1.28 0.71,0 1.28,0.57 1.28,1.28 0,0.71 -0.57,1.28 -1.28,1.28 -0.7,0 -1.28,-0.57 -1.28,-1.28z"/>
   <path class="fil0" d="M958.04 610.2c0,-0.5 0.4,-0.9 0.9,-0.9 0.5,0 0.9,0.4 0.9,0.9 0,0.5 -0.41,0.9 -0.9,0.9 -0.5,0 -0.9,-0.4 -0.9,-0.9z"/>
   <path class="fil0" d="M1108.31 602.39c0,-0.5 0.4,-0.9 0.9,-0.9 0.5,0 0.9,0.4 0.9,0.9 0,0.5 -0.4,0.9 -0.9,0.9 -0.5,0 -0.9,-0.4 -0.9,-0.9z"/>
   <path class="fil0" d="M959.85 525.75c0,-1 0.81,-1.8 1.8,-1.8 1,0 1.8,0.81 1.8,1.8 0,1 -0.81,1.8 -1.8,1.8 -1,0 -1.8,-0.81 -1.8,-1.8z"/>
   <path class="fil0" d="M1108.31 552.8c0,-1 0.81,-1.8 1.8,-1.8 1,0 1.8,0.81 1.8,1.8 0,1 -0.81,1.8 -1.8,1.8 -1,0 -1.8,-0.81 -1.8,-1.8z"/>
   <path class="fil0" d="M1184.04 679.02c0,-1 0.81,-1.8 1.8,-1.8 1,0 1.8,0.81 1.8,1.8 0,1 -0.81,1.8 -1.8,1.8 -1,0 -1.8,-0.81 -1.8,-1.8z"/>
   <path class="fil0" d="M743.24 484.5c0,-2.45 1.99,-4.43 4.43,-4.43 2.45,0 4.43,1.98 4.43,4.43 0,2.45 -1.99,4.43 -4.43,4.43 -2.45,0 -4.43,-1.98 -4.43,-4.43z"/>
   <path class="fil0" d="M1033.55 455.65c0,-2.45 1.99,-4.43 4.43,-4.43 2.45,0 4.43,1.98 4.43,4.43 0,2.45 -1.99,4.43 -4.43,4.43 -2.45,0 -4.43,-1.98 -4.43,-4.43z"/>
   <path class="fil0" d="M283.96 538.82c0,-0.75 0.61,-1.35 1.35,-1.35 0.76,0 1.35,0.61 1.35,1.35 0,0.75 -0.59,1.35 -1.35,1.35 -0.74,0 -1.35,-0.61 -1.35,-1.35z"/>
   <path class="fil0" d="M198.35 664.85c0,-3.81 3.08,-6.9 6.89,-6.9 3.82,0 6.91,3.09 6.91,6.9 0,3.81 -3.08,6.9 -6.91,6.9 -3.8,0 -6.89,-3.09 -6.89,-6.9z"/>
   <path class="fil0" d="M-0 399.79c0,-3.81 3.08,-6.9 6.89,-6.9 3.82,0 6.91,3.09 6.91,6.9 0,3.81 -3.08,6.9 -6.91,6.9 -3.8,0 -6.89,-3.09 -6.89,-6.9z"/>
   <path class="fil0" d="M184.5 520.64c0,-1.83 1.48,-3.31 3.3,-3.31 1.82,0 3.3,1.48 3.3,3.31 0,1.82 -1.48,3.31 -3.3,3.31 -1.82,0 -3.3,-1.48 -3.3,-3.31z"/>
   <path class="fil0" d="M43.85 681.12c0,-1.82 1.48,-3.3 3.3,-3.3 1.82,0 3.3,1.48 3.3,3.3 0,1.83 -1.48,3.31 -3.3,3.31 -1.82,0 -3.3,-1.48 -3.3,-3.31z"/>
   <path class="fil0" d="M1134.75 437.7c0,-1.83 1.48,-3.31 3.3,-3.31 1.83,0 3.31,1.48 3.31,3.31 0,1.82 -1.48,3.31 -3.31,3.31 -1.83,0 -3.3,-1.48 -3.3,-3.31z"/>
   <path class="fil0" d="M376.82 408.25c0,-0.83 0.69,-1.5 1.51,-1.5 0.83,0 1.5,0.67 1.5,1.5 0,0.83 -0.67,1.5 -1.5,1.5 -0.83,0 -1.51,-0.67 -1.51,-1.5z"/>
   <path class="fil0" d="M342.85 424.03c0,-0.41 0.32,-0.74 0.74,-0.74 0.42,0 0.74,0.33 0.74,0.74 0,0.41 -0.32,0.74 -0.74,0.74 -0.41,0 -0.74,-0.33 -0.74,-0.74z"/>
   <path class="fil0" d="M478.11 277.67c0,-3.15 2.56,-5.71 5.71,-5.71 3.15,0 5.71,2.56 5.71,5.71 0,3.15 -2.56,5.71 -5.71,5.71 -3.15,0 -5.71,-2.56 -5.71,-5.71z"/>
   <path class="fil0" d="M1166.91 25.23c0,-3.15 2.56,-5.71 5.71,-5.71 3.15,0 5.71,2.56 5.71,5.71 0,3.15 -2.56,5.71 -5.71,5.71 -3.15,0 -5.71,-2.56 -5.71,-5.71z"/>
   <path class="fil0" d="M421.69 458.62c0,-0.83 0.67,-1.5 1.5,-1.5 0.83,0 1.5,0.67 1.5,1.5 0,0.83 -0.67,1.5 -1.5,1.5 -0.83,0 -1.5,-0.67 -1.5,-1.5z"/>
   <path class="fil0" d="M653.31 303.81c0,-0.66 0.54,-1.2 1.2,-1.2 0.66,0 1.2,0.54 1.2,1.2 0,0.66 -0.54,1.2 -1.2,1.2 -0.66,0 -1.2,-0.54 -1.2,-1.2z"/>
   <line class="fil1" x1="649.71" y1="267.15" x2="649.71" y2= "267.15" />
   <path class="fil0" d="M769.91 280.37c0,-1.66 1.35,-3.01 3.01,-3.01 1.66,0 3.01,1.35 3.01,3.01 0,1.66 -1.35,3 -3.01,3 -1.66,0 -3.01,-1.35 -3.01,-3z"/>
   <path class="fil0" d="M1069.24 91.04c0,-1.66 1.34,-3.01 3.01,-3.01 1.66,0 3.01,1.35 3.01,3.01 0,1.66 -1.35,3 -3.01,3 -1.66,0 -3.01,-1.35 -3.01,-3z"/>
   <path class="fil0" d="M693.28 286.53c0,-0.91 0.74,-1.65 1.65,-1.65 0.91,0 1.65,0.74 1.65,1.65 0,0.91 -0.74,1.65 -1.65,1.65 -0.91,0 -1.65,-0.74 -1.65,-1.65z"/>
   <path class="fil0" d="M662.93 186.16c0,-1 0.81,-1.8 1.8,-1.8 1,0 1.8,0.81 1.8,1.8 0,1 -0.81,1.8 -1.8,1.8 -1,0 -1.8,-0.81 -1.8,-1.8z"/>
   <line class="fil1" x1="774.72" y1="246.26" x2="774.72" y2= "246.26" />
   <path class="fil0" d="M898.44 254.93c0,-2.19 1.77,-3.96 3.96,-3.96 2.19,0 3.96,1.77 3.96,3.96 0,2.19 -1.77,3.96 -3.96,3.96 -2.19,0 -3.96,-1.77 -3.96,-3.96z"/>
   <path class="fil0" d="M844.75 286.08c0,-1.24 1.01,-2.25 2.25,-2.25 1.24,0 2.25,1.01 2.25,2.25 0,1.24 -1.01,2.25 -2.25,2.25 -1.24,0 -2.25,-1.01 -2.25,-2.25z"/>
   <path class="fil0" d="M960.75 194.42c0,-1.41 1.14,-2.56 2.55,-2.56 1.41,0 2.55,1.14 2.55,2.56 0,1.41 -1.14,2.56 -2.55,2.56 -1.41,0 -2.55,-1.14 -2.55,-2.56z"/>
   <path class="fil0" d="M957.04 106.78c0,-1.03 0.83,-1.86 1.86,-1.86 1.02,0 1.86,0.83 1.86,1.86 0,1.02 -0.83,1.86 -1.86,1.86 -1.03,0 -1.86,-0.83 -1.86,-1.86z"/>
   <path class="fil0" d="M902.42 86.04c0,-1.63 1.32,-2.96 2.96,-2.96 1.63,0 2.96,1.32 2.96,2.96 0,1.63 -1.32,2.95 -2.96,2.95 -1.63,0 -2.96,-1.32 -2.96,-2.95z"/>
   <path class="fil0" d="M896.69 42.83c0,-0.48 0.39,-0.88 0.88,-0.88 0.49,0 0.88,0.39 0.88,0.88 0,0.48 -0.39,0.88 -0.88,0.88 -0.49,0 -0.88,-0.39 -0.88,-0.88z"/>
   <path class="fil0" d="M968.86 12.75c0,-3.32 2.69,-6.01 6.01,-6.01 3.32,0 6.01,2.69 6.01,6.01 0,3.32 -2.69,6.01 -6.01,6.01 -3.32,0 -6.01,-2.69 -6.01,-6.01z"/>
   <path class="fil0" d="M723.63 125.45c0,-2.32 1.88,-4.21 4.21,-4.21 2.32,0 4.21,1.88 4.21,4.21 0,2.32 -1.88,4.21 -4.21,4.21 -2.32,0 -4.21,-1.88 -4.21,-4.21z"/>
   <path class="fil0" d="M675.03 79.35c0,-0.48 0.39,-0.86 0.86,-0.86 0.48,0 0.86,0.39 0.86,0.86 0,0.47 -0.39,0.86 -0.86,0.86 -0.47,0 -0.86,-0.39 -0.86,-0.86z"/>
   <path class="fil0" d="M548.43 56.48c0,-2.24 1.82,-4.06 4.06,-4.06 2.24,0 4.06,1.82 4.06,4.06 0,2.24 -1.82,4.06 -4.06,4.06 -2.24,0 -4.06,-1.82 -4.06,-4.06z"/>
   <path class="fil0" d="M398.46 236.35c0,-1.49 1.21,-2.7 2.7,-2.7 1.5,0 2.7,1.21 2.7,2.7 0,1.49 -1.21,2.7 -2.7,2.7 -1.5,0 -2.7,-1.21 -2.7,-2.7z"/>
   <path class="fil0" d="M323.7 312.79c0,-1.43 1.17,-2.59 2.6,-2.59 1.44,0 2.6,1.16 2.6,2.59 0,1.43 -1.15,2.59 -2.6,2.59 -1.42,0 -2.6,-1.16 -2.6,-2.59z"/>
   <path class="fil0" d="M481.41 187.36c0,-0.66 0.54,-1.2 1.2,-1.2 0.66,0 1.2,0.54 1.2,1.2 0,0.66 -0.54,1.2 -1.2,1.2 -0.66,0 -1.2,-0.54 -1.2,-1.2z"/>
   <path class="fil0" d="M405.98 138.52c0,-0.41 0.34,-0.75 0.76,-0.75 0.41,0 0.74,0.34 0.74,0.75 0,0.41 -0.32,0.75 -0.74,0.75 -0.41,0 -0.76,-0.34 -0.76,-0.75z"/>
   <path class="fil0" d="M264.13 199.83c0,-1.41 1.15,-2.55 2.56,-2.55 1.41,0 2.56,1.14 2.56,2.55 0,1.41 -1.15,2.56 -2.56,2.56 -1.41,0 -2.56,-1.14 -2.56,-2.56z"/>
   <path class="fil0" d="M216.65 277.67c0,-1.24 1.01,-2.25 2.25,-2.25 1.24,0 2.25,1.01 2.25,2.25 0,1.24 -1.01,2.25 -2.25,2.25 -1.24,0 -2.25,-1.01 -2.25,-2.25z"/>
   <path class="fil0" d="M70.59 315.53c0,-1.24 1.01,-2.25 2.25,-2.25 1.24,0 2.25,1.01 2.25,2.25 0,1.24 -1.01,2.25 -2.25,2.25 -1.24,0 -2.25,-1.01 -2.25,-2.25z"/>
   <path class="fil0" d="M108.46 239.8c0,-1.24 1.01,-2.25 2.25,-2.25 1.24,0 2.25,1.01 2.25,2.25 0,1.24 -1.01,2.25 -2.25,2.25 -1.24,0 -2.25,-1.01 -2.25,-2.25z"/>
   <path class="fil0" d="M7.48 517.49c0,-1.25 1.01,-2.25 2.25,-2.25 1.24,0 2.25,1.01 2.25,2.25 0,1.24 -1.01,2.25 -2.25,2.25 -1.24,0 -2.25,-1.01 -2.25,-2.25z"/>
   <path class="fil0" d="M164.95 155.35c0,-1.08 0.88,-1.95 1.97,-1.95 1.06,0 1.95,0.87 1.95,1.95 0,1.08 -0.88,1.95 -1.95,1.95 -1.08,0 -1.97,-0.87 -1.97,-1.95z"/>
   <path class="fil0" d="M8.08 30.94c0,-1.08 0.88,-1.95 1.97,-1.95 1.06,0 1.95,0.88 1.95,1.95 0,1.08 -0.88,1.95 -1.95,1.95 -1.08,0 -1.97,-0.88 -1.97,-1.95z"/>
   <line class="fil1" x1="179.09" y1="47.92" x2="179.09" y2= "47.92" />
   <path class="fil0" d="M336.23 1.12c0,-0.62 0.5,-1.12 1.12,-1.12 0.61,0 1.12,0.5 1.12,1.12 0,0.62 -0.5,1.12 -1.12,1.12 -0.61,0 -1.12,-0.5 -1.12,-1.12z"/>
   <path class="fil0" d="M187.8 413.6c0,-1.74 1.41,-3.16 3.16,-3.16 1.75,0 3.16,1.41 3.16,3.16 0,1.74 -1.41,3.16 -3.16,3.16 -1.75,0 -3.16,-1.41 -3.16,-3.16z"/>
   <path class="fil0" d="M173.55 811.19c0,-1.52 1.24,-2.76 2.78,-2.76 1.51,0 2.76,1.24 2.76,2.76 0,1.53 -1.24,2.76 -2.76,2.76 -1.53,0 -2.78,-1.24 -2.78,-2.76z"/>
   <path class="fil0" d="M484.42 824.77c0,-1.5 1.21,-2.7 2.7,-2.7 1.49,0 2.7,1.21 2.7,2.7 0,1.49 -1.21,2.7 -2.7,2.7 -1.49,0 -2.7,-1.21 -2.7,-2.7z"/>
   <path class="fil0" d="M979.46 807.83c0,-1.56 1.26,-2.82 2.82,-2.82 1.56,0 2.82,1.26 2.82,2.82 0,1.55 -1.26,2.82 -2.82,2.82 -1.56,0 -2.82,-1.26 -2.82,-2.82z"/>
   <path class="fil0" d="M867.51 458.62c0,-1.89 1.53,-3.42 3.42,-3.42 1.89,0 3.42,1.53 3.42,3.42 0,1.89 -1.53,3.42 -3.42,3.42 -1.89,0 -3.42,-1.53 -3.42,-3.42z"/>
   <path class="fil0" d="M1092.9 285.52c0,-1.89 1.53,-3.42 3.42,-3.42 1.89,0 3.42,1.53 3.42,3.42 0,1.89 -1.53,3.42 -3.42,3.42 -1.89,0 -3.42,-1.53 -3.42,-3.42z"/>
   <path class="fil0" d="M993.5 340.63c0,-1 0.81,-1.8 1.8,-1.8 1,0 1.8,0.81 1.8,1.8 0,1 -0.81,1.8 -1.8,1.8 -1,0 -1.8,-0.81 -1.8,-1.8z"/>
   <path class="fil0" d="M580.51 505.95c0,-0.64 0.52,-1.16 1.16,-1.16 0.64,0 1.16,0.52 1.16,1.16 0,0.64 -0.52,1.16 -1.16,1.16 -0.64,0 -1.16,-0.52 -1.16,-1.16z"/>
   <path class="fil2" d="M231.04 144.2l1.23 4.81c0.16,0.69 1.14,0.7 1.33,0.01l1.3 -4.79c0.07,-0.24 0.25,-0.43 0.5,-0.49l4.81 -1.22c0.68,-0.18 0.68,-1.15 0,-1.34l-4.78 -1.31c-0.25,-0.07 -0.43,-0.26 -0.49,-0.5l-1.23 -4.81c-0.18,-0.69 -1.15,-0.7 -1.33,-0.01l-1.32 4.79c-0.05,0.24 -0.25,0.43 -0.49,0.49l-4.81 1.22c-0.68,0.17 -0.7,1.15 -0.02,1.33l4.8 1.31c0.23,0.06 0.43,0.26 0.49,0.5z"/>
   <path class="fil2" d="M676.76 782.4l1.22 4.81c0.17,0.69 1.15,0.7 1.33,0.01l1.31 -4.79c0.07,-0.24 0.25,-0.43 0.5,-0.49l4.81 -1.22c0.69,-0.17 0.7,-1.15 0.01,-1.33l-4.79 -1.31c-0.24,-0.06 -0.43,-0.25 -0.48,-0.5l-1.22 -4.81c-0.17,-0.69 -1.15,-0.7 -1.33,-0.01l-1.31 4.79c-0.06,0.24 -0.25,0.43 -0.5,0.49l-4.81 1.22c-0.69,0.17 -0.7,1.15 -0.01,1.33l4.79 1.31c0.24,0.06 0.43,0.25 0.49,0.5z"/>
   <path class="fil2" d="M225.59 761.07l1.05 4.11c0.14,0.59 0.99,0.59 1.14,0.01l1.12 -4.09c0.05,-0.2 0.22,-0.36 0.43,-0.41l4.11 -1.04c0.58,-0.15 0.6,-0.98 0,-1.14l-4.09 -1.12c-0.2,-0.05 -0.36,-0.22 -0.41,-0.42l-1.03 -4.11c-0.16,-0.59 -0.99,-0.59 -1.15,-0.01l-1.1 4.09c-0.07,0.21 -0.23,0.37 -0.43,0.42l-4.11 1.04c-0.58,0.15 -0.59,0.98 -0.02,1.14l4.09 1.12c0.22,0.05 0.38,0.22 0.42,0.42z"/>
   <path class="fil2" d="M12.82 782.71l1.05 4.11c0.14,0.59 0.99,0.59 1.14,0.01l1.12 -4.09c0.05,-0.2 0.22,-0.36 0.43,-0.42l4.11 -1.04c0.58,-0.15 0.59,-0.98 0,-1.14l-4.09 -1.12c-0.2,-0.05 -0.36,-0.22 -0.42,-0.42l-1.03 -4.11c-0.16,-0.59 -0.99,-0.6 -1.15,-0.01l-1.1 4.09c-0.07,0.21 -0.23,0.37 -0.43,0.42l-4.11 1.04c-0.58,0.15 -0.6,0.98 -0.02,1.14l4.09 1.12c0.22,0.05 0.38,0.22 0.42,0.42z"/>
   <path class="fil2" d="M977.79 718.18l1.04 4.11c0.15,0.59 0.98,0.6 1.14,0.01l1.12 -4.09c0.06,-0.2 0.22,-0.36 0.43,-0.41l4.11 -1.04c0.59,-0.15 0.59,-0.98 0.01,-1.14l-4.09 -1.12c-0.2,-0.06 -0.36,-0.22 -0.42,-0.43l-1.04 -4.11c-0.15,-0.59 -0.98,-0.59 -1.14,-0.01l-1.12 4.09c-0.06,0.21 -0.22,0.36 -0.43,0.42l-4.11 1.04c-0.59,0.15 -0.59,0.98 -0.01,1.14l4.09 1.12c0.21,0.06 0.36,0.22 0.42,0.42z"/>
   <path class="fil2" d="M1163.51 151.99l1.04 4.11c0.15,0.59 0.98,0.59 1.14,0.01l1.12 -4.09c0.06,-0.21 0.22,-0.36 0.43,-0.41l4.11 -1.04c0.59,-0.15 0.59,-0.98 0.01,-1.14l-4.09 -1.12c-0.2,-0.06 -0.36,-0.22 -0.42,-0.43l-1.04 -4.11c-0.15,-0.59 -0.98,-0.59 -1.14,-0.01l-1.12 4.09c-0.06,0.2 -0.22,0.36 -0.43,0.42l-4.11 1.04c-0.59,0.15 -0.6,0.98 -0.01,1.14l4.09 1.12c0.21,0.06 0.36,0.22 0.42,0.43z"/>
   <path class="fil1" d="M847.82 527.52l0.17 0.11c0.16,0.11 0.32,0.22 0.48,0.33l0.13 0.09 0.38 0.27 0.16 0.12c0.15,0.11 0.3,0.23 0.45,0.35l0.16 0.13 0.35 0.28 0.14 0.11c0.14,0.12 0.28,0.23 0.41,0.35l0.19 0.17 0.31 0.28 0.25 0.23 0.28 0.26 0.2 0.19c0.13,0.12 0.25,0.24 0.37,0.36l0.15 0.15 0.29 0.29 0.16 0.17c0.12,0.13 0.24,0.26 0.36,0.39l0.16 0.17 0.32 0.36 0.07 0.07 0.01 0.01 0.05 0.06 0.31 0.37 0.18 0.21 0.33 0.41 0.12 0.15 0.26 0.34 0.14 0.18c0.11,0.15 0.22,0.29 0.32,0.44l0.12 0.17 0.25 0.37 0.16 0.24 0.24 0.37 0.14 0.22 0.25 0.41 0.14 0.23 0.2 0.34 0.12 0.21c0.09,0.15 0.17,0.3 0.26,0.46l0.13 0.25 0.18 0.33 0.1 0.2 0.24 0.49 0.11 0.22 0.18 0.39 0.13 0.28 0.19 0.44 0.07 0.16c0.08,0.18 0.15,0.36 0.22,0.54l0.07 0.18c0.06,0.16 0.13,0.33 0.19,0.49l0.04 0.11c0.07,0.19 0.14,0.38 0.2,0.58l0.06 0.18c0.06,0.18 0.12,0.37 0.18,0.55l0.01 0.04 0.01 0.02c0.06,0.2 0.12,0.4 0.18,0.6l0.05 0.17c0.05,0.19 0.11,0.39 0.16,0.59l0.04 0.14 0.12 0.49 0.04 0.18c0.04,0.2 0.09,0.39 0.13,0.59l0.03 0.17c0.04,0.18 0.07,0.36 0.1,0.54l0.02 0.12c0.04,0.21 0.07,0.42 0.1,0.63l0.02 0.14c0.06,0.43 0.12,0.86 0.17,1.3l0.02 0.2c0.02,0.21 0.04,0.42 0.06,0.64l0.01 0.1c0.02,0.21 0.03,0.42 0.04,0.63l0.01 0.1c0.01,0.22 0.02,0.44 0.03,0.67l0 0.16c0.01,0.22 0.01,0.45 0.01,0.68m-0.04 1.53l0 0.01c-0.05,0.91 -0.14,1.8 -0.26,2.69 -0.73,-0.48 -1.53,-1.03 -2.4,-1.66 -9.47,-6.76 -12.62,-9.02 -10.37,-14.43 1.74,-4.17 -1.74,-10.47 -0.24,-12.94l0.11 0.07"/>
  </g>
 </g>
</svg>
