<?xml version="1.0" encoding="UTF-8"?>
<!DOCTYPE svg PUBLIC "-//W3C//DTD SVG 1.1//EN" "http://www.w3.org/Graphics/SVG/1.1/DTD/svg11.dtd">
<!-- Creator: CorelDRAW 2021 (64 Bit) -->
<svg xmlns="http://www.w3.org/2000/svg" xml:space="preserve" width="232.355mm" height="809.451mm" version="1.1" style="shape-rendering:geometricPrecision; text-rendering:geometricPrecision; image-rendering:optimizeQuality; fill-rule:evenodd; clip-rule:evenodd"
viewBox="0 0 5179.17 18042.56"
 xmlns:xlink="http://www.w3.org/1999/xlink"
 xmlns:xodm="http://www.corel.com/coreldraw/odm/2003">
 <defs>
  <style type="text/css">
   <![CDATA[
    .fil1 {fill:none;fill-rule:nonzero}
    .fil2 {fill:#FCF0A6;fill-rule:nonzero}
    .fil0 {fill:#FEFEFE;fill-rule:nonzero}
   ]]>
  </style>
 </defs>
 <g id="Camada_x0020_1">
  <metadata id="CorelCorpID_0Corel-Layer"/>
  <g id="_2735410209424">
   <g id="_2467410387216">
    <path class="fil0" d="M3537.73 3510.56c0,-7.06 5.71,-12.78 12.78,-12.78 7.06,0 12.78,5.71 12.78,12.78 0,7.06 -5.71,12.78 -12.78,12.78 -7.06,0 -12.78,-5.71 -12.78,-12.78z"/>
    <path class="fil0" d="M5023.88 3376.9c0,-7.06 5.71,-12.78 12.78,-12.78 7.06,0 12.78,5.71 12.78,12.78 0,7.06 -5.71,12.78 -12.78,12.78 -7.06,0 -12.78,-5.71 -12.78,-12.78z"/>
    <path class="fil0" d="M1852.03 3127.11c0,-6.76 5.49,-12.25 12.25,-12.25 6.8,0 12.25,5.49 12.25,12.25 0,6.76 -5.49,12.25 -12.25,12.25 -6.76,0 -12.25,-5.49 -12.25,-12.25z"/>
    <path class="fil0" d="M1369.71 3525.47c0,-8.24 6.67,-14.91 14.96,-14.91 8.2,0 14.87,6.67 14.87,14.91 0,8.24 -6.67,14.91 -14.87,14.91 -8.24,0 -14.96,-6.67 -14.96,-14.91z"/>
    <path class="fil0" d="M1221.36 3549.59c0,-5.06 4.1,-9.2 9.11,-9.2 5.1,0 9.2,4.1 9.2,9.2 0,5.06 -4.1,9.16 -9.2,9.16 -5.02,0 -9.11,-4.1 -9.11,-9.16z"/>
    <path class="fil0" d="M2210.8 2458.54c0,-3.97 3.23,-7.2 7.2,-7.2 3.97,0 7.2,3.23 7.2,7.2 0,3.97 -3.23,7.2 -7.2,7.2 -3.97,0 -7.2,-3.23 -7.2,-7.2z"/>
    <path class="fil0" d="M1957.82 2540.44c0,-3.62 2.92,-6.54 6.54,-6.54 3.62,0 6.54,2.92 6.54,6.54 0,3.62 -2.92,6.54 -6.54,6.54 -3.62,0 -6.54,-2.92 -6.54,-6.54z"/>
    <path class="fil0" d="M2805.75 2569.92c0,-6.15 4.97,-11.12 11.12,-11.12 6.15,0 11.16,4.97 11.16,11.12 0,6.15 -5.02,11.16 -11.16,11.16 -6.15,0 -11.12,-4.97 -11.12,-11.16z"/>
    <path class="fil0" d="M3218.6 2540.44c0,-3.62 2.92,-6.54 6.54,-6.54 3.62,0 6.54,2.92 6.54,6.54 0,3.62 -2.92,6.54 -6.54,6.54 -3.62,0 -6.54,-2.92 -6.54,-6.54z"/>
    <path class="fil0" d="M3212.06 2841.21c0,-5.41 4.4,-9.81 9.81,-9.81 5.41,0 9.81,4.4 9.81,9.81 0,5.41 -4.4,9.81 -9.81,9.81 -5.41,0 -9.81,-4.4 -9.81,-9.81z"/>
    <path class="fil0" d="M3907.75 2413.4c0,-2.84 2.31,-5.15 5.15,-5.15 2.84,0 5.15,2.31 5.15,5.15 0,2.84 -2.31,5.15 -5.15,5.15 -2.84,0 -5.15,-2.31 -5.15,-5.15z"/>
    <path class="fil0" d="M3812.94 2575.5c0,-3.05 2.49,-5.58 5.58,-5.58 3.1,0 5.58,2.49 5.58,5.58 0,3.1 -2.49,5.58 -5.58,5.58 -3.05,0 -5.58,-2.49 -5.58,-5.58z"/>
    <path class="fil0" d="M4177.91 2661.02c0,-2.18 1.75,-3.93 3.93,-3.93 2.18,0 3.93,1.75 3.93,3.93 0,2.18 -1.79,3.93 -3.93,3.93 -2.18,0 -3.93,-1.75 -3.93,-3.93z"/>
    <path class="fil0" d="M4833.22 2626.96c0,-2.18 1.75,-3.93 3.93,-3.93 2.18,0 3.93,1.75 3.93,3.93 0,2.18 -1.75,3.93 -3.93,3.93 -2.18,0 -3.93,-1.75 -3.93,-3.93z"/>
    <path class="fil0" d="M4185.8 2292.74c0,-4.36 3.53,-7.85 7.85,-7.85 4.36,0 7.85,3.53 7.85,7.85 0,4.36 -3.53,7.85 -7.85,7.85 -4.36,0 -7.85,-3.53 -7.85,-7.85z"/>
    <path class="fil0" d="M4833.22 2410.7c0,-4.36 3.53,-7.85 7.85,-7.85 4.36,0 7.85,3.53 7.85,7.85 0,4.36 -3.53,7.85 -7.85,7.85 -4.36,0 -7.85,-3.53 -7.85,-7.85z"/>
    <path class="fil0" d="M5163.47 2961.13c0,-4.36 3.53,-7.85 7.85,-7.85 4.36,0 7.85,3.53 7.85,7.85 0,4.36 -3.53,7.85 -7.85,7.85 -4.36,0 -7.85,-3.53 -7.85,-7.85z"/>
    <path class="fil0" d="M3241.19 2112.85c0,-10.68 8.68,-19.32 19.32,-19.32 10.68,0 19.32,8.64 19.32,19.32 0,10.68 -8.68,19.32 -19.32,19.32 -10.68,0 -19.32,-8.64 -19.32,-19.32z"/>
    <path class="fil0" d="M4507.2 1987.04c0,-10.68 8.68,-19.32 19.32,-19.32 10.68,0 19.32,8.64 19.32,19.32 0,10.68 -8.68,19.32 -19.32,19.32 -10.68,0 -19.32,-8.64 -19.32,-19.32z"/>
    <path class="fil0" d="M1238.32 2349.74c0,-3.27 2.66,-5.89 5.89,-5.89 3.31,0 5.89,2.66 5.89,5.89 0,3.27 -2.57,5.89 -5.89,5.89 -3.23,0 -5.89,-2.66 -5.89,-5.89z"/>
    <path class="fil0" d="M864.98 2899.34c0,-16.61 13.43,-30.09 30.05,-30.09 16.66,0 30.13,13.47 30.13,30.09 0,16.61 -13.43,30.09 -30.13,30.09 -16.57,0 -30.05,-13.47 -30.05,-30.09z"/>
    <path class="fil0" d="M-0 1743.44c0,-16.61 13.43,-30.09 30.05,-30.09 16.66,0 30.13,13.47 30.13,30.09 0,16.61 -13.43,30.09 -30.13,30.09 -16.57,0 -30.05,-13.47 -30.05,-30.09z"/>
    <path class="fil0" d="M804.58 2270.45c0,-7.98 6.46,-14.43 14.39,-14.43 7.94,0 14.39,6.46 14.39,14.43 0,7.94 -6.46,14.43 -14.39,14.43 -7.94,0 -14.39,-6.46 -14.39,-14.43z"/>
    <path class="fil0" d="M191.22 2970.29c0,-7.94 6.46,-14.39 14.39,-14.39 7.94,0 14.39,6.46 14.39,14.39 0,7.98 -6.46,14.43 -14.39,14.43 -7.94,0 -14.39,-6.46 -14.39,-14.43z"/>
    <path class="fil0" d="M4948.52 1908.76c0,-7.98 6.46,-14.43 14.39,-14.43 7.98,0 14.43,6.46 14.43,14.43 0,7.94 -6.46,14.43 -14.43,14.43 -7.98,0 -14.39,-6.46 -14.39,-14.43z"/>
    <path class="fil0" d="M1643.27 1780.33c0,-3.62 3.01,-6.54 6.58,-6.54 3.62,0 6.54,2.92 6.54,6.54 0,3.62 -2.92,6.54 -6.54,6.54 -3.62,0 -6.58,-2.92 -6.58,-6.54z"/>
    <path class="fil0" d="M1495.13 1849.15c0,-1.79 1.4,-3.23 3.23,-3.23 1.83,0 3.23,1.44 3.23,3.23 0,1.79 -1.4,3.23 -3.23,3.23 -1.79,0 -3.23,-1.44 -3.23,-3.23z"/>
    <path class="fil0" d="M2084.99 1210.89c0,-13.74 11.16,-24.9 24.9,-24.9 13.74,0 24.9,11.16 24.9,24.9 0,13.74 -11.16,24.9 -24.9,24.9 -13.74,0 -24.9,-11.16 -24.9,-24.9z"/>
    <path class="fil0" d="M5088.77 110.03c0,-13.74 11.16,-24.9 24.9,-24.9 13.74,0 24.9,11.16 24.9,24.9 0,13.74 -11.16,24.9 -24.9,24.9 -13.74,0 -24.9,-11.16 -24.9,-24.9z"/>
    <path class="fil0" d="M1838.95 1999.99c0,-3.62 2.92,-6.54 6.54,-6.54 3.62,0 6.54,2.92 6.54,6.54 0,3.62 -2.92,6.54 -6.54,6.54 -3.62,0 -6.54,-2.92 -6.54,-6.54z"/>
    <path class="fil0" d="M2849.01 1324.88c0,-2.88 2.35,-5.23 5.23,-5.23 2.88,0 5.23,2.35 5.23,5.23 0,2.88 -2.35,5.23 -5.23,5.23 -2.88,0 -5.23,-2.35 -5.23,-5.23z"/>
    <line class="fil1" x1="2833.31" y1="1165.01" x2="2833.31" y2= "1165.01" />
    <path class="fil0" d="M3357.49 1222.66c0,-7.24 5.89,-13.13 13.13,-13.13 7.24,0 13.13,5.89 13.13,13.13 0,7.24 -5.89,13.08 -13.13,13.08 -7.24,0 -13.13,-5.89 -13.13,-13.08z"/>
    <path class="fil0" d="M4662.84 397.02c0,-7.24 5.84,-13.13 13.13,-13.13 7.24,0 13.13,5.89 13.13,13.13 0,7.24 -5.89,13.08 -13.13,13.08 -7.24,0 -13.13,-5.89 -13.13,-13.08z"/>
    <path class="fil0" d="M3023.32 1249.53c0,-3.97 3.23,-7.2 7.2,-7.2 3.97,0 7.2,3.23 7.2,7.2 0,3.97 -3.23,7.2 -7.2,7.2 -3.97,0 -7.2,-3.23 -7.2,-7.2z"/>
    <path class="fil0" d="M2890.96 811.82c0,-4.36 3.53,-7.85 7.85,-7.85 4.36,0 7.85,3.53 7.85,7.85 0,4.36 -3.53,7.85 -7.85,7.85 -4.36,0 -7.85,-3.53 -7.85,-7.85z"/>
    <line class="fil1" x1="3378.47" y1="1073.91" x2="3378.47" y2= "1073.91" />
    <path class="fil0" d="M3918 1111.72c0,-9.55 7.72,-17.27 17.27,-17.27 9.55,0 17.27,7.72 17.27,17.27 0,9.55 -7.72,17.27 -17.27,17.27 -9.55,0 -17.27,-7.72 -17.27,-17.27z"/>
    <path class="fil0" d="M3683.86 1247.56c0,-5.41 4.4,-9.81 9.81,-9.81 5.41,0 9.81,4.4 9.81,9.81 0,5.41 -4.4,9.81 -9.81,9.81 -5.41,0 -9.81,-4.4 -9.81,-9.81z"/>
    <path class="fil0" d="M4189.73 847.84c0,-6.15 4.97,-11.16 11.12,-11.16 6.15,0 11.12,4.97 11.12,11.16 0,6.15 -4.97,11.16 -11.12,11.16 -6.15,0 -11.12,-4.97 -11.12,-11.16z"/>
    <path class="fil0" d="M4173.55 465.66c0,-4.49 3.62,-8.11 8.11,-8.11 4.45,0 8.11,3.62 8.11,8.11 0,4.45 -3.62,8.11 -8.11,8.11 -4.49,0 -8.11,-3.62 -8.11,-8.11z"/>
    <path class="fil0" d="M3935.35 375.21c0,-7.11 5.76,-12.91 12.91,-12.91 7.11,0 12.91,5.76 12.91,12.91 0,7.11 -5.76,12.87 -12.91,12.87 -7.11,0 -12.91,-5.76 -12.91,-12.87z"/>
    <path class="fil0" d="M3910.37 186.78c0,-2.09 1.7,-3.84 3.84,-3.84 2.14,0 3.84,1.7 3.84,3.84 0,2.09 -1.7,3.84 -3.84,3.84 -2.14,0 -3.84,-1.7 -3.84,-3.84z"/>
    <path class="fil0" d="M4225.09 55.6c0,-14.48 11.73,-26.21 26.21,-26.21 14.48,0 26.21,11.73 26.21,26.21 0,14.48 -11.73,26.21 -26.21,26.21 -14.48,0 -26.21,-11.73 -26.21,-26.21z"/>
    <path class="fil0" d="M3155.67 547.07c0,-10.12 8.2,-18.36 18.36,-18.36 10.12,0 18.36,8.2 18.36,18.36 0,10.12 -8.2,18.36 -18.36,18.36 -10.12,0 -18.36,-8.2 -18.36,-18.36z"/>
    <path class="fil0" d="M2943.73 346.04c0,-2.09 1.7,-3.75 3.75,-3.75 2.09,0 3.75,1.7 3.75,3.75 0,2.05 -1.7,3.75 -3.75,3.75 -2.05,0 -3.75,-1.7 -3.75,-3.75z"/>
    <path class="fil0" d="M2391.64 246.3c0,-9.77 7.94,-17.7 17.7,-17.7 9.77,0 17.7,7.94 17.7,17.7 0,9.77 -7.94,17.7 -17.7,17.7 -9.77,0 -17.7,-7.94 -17.7,-17.7z"/>
    <path class="fil0" d="M1737.64 1030.7c0,-6.5 5.28,-11.77 11.77,-11.77 6.54,0 11.77,5.28 11.77,11.77 0,6.5 -5.28,11.77 -11.77,11.77 -6.54,0 -11.77,-5.28 -11.77,-11.77z"/>
    <path class="fil0" d="M1411.62 1364.04c0,-6.24 5.1,-11.29 11.34,-11.29 6.28,0 11.34,5.06 11.34,11.29 0,6.24 -5.02,11.29 -11.34,11.29 -6.19,0 -11.34,-5.06 -11.34,-11.29z"/>
    <path class="fil0" d="M2099.38 817.06c0,-2.88 2.35,-5.23 5.23,-5.23 2.88,0 5.23,2.35 5.23,5.23 0,2.88 -2.35,5.23 -5.23,5.23 -2.88,0 -5.23,-2.35 -5.23,-5.23z"/>
    <path class="fil0" d="M1770.43 604.07c0,-1.79 1.48,-3.27 3.31,-3.27 1.79,0 3.23,1.48 3.23,3.27 0,1.79 -1.4,3.27 -3.23,3.27 -1.79,0 -3.31,-1.48 -3.31,-3.27z"/>
    <path class="fil0" d="M1151.84 871.44c0,-6.15 5.02,-11.12 11.16,-11.12 6.15,0 11.16,4.97 11.16,11.12 0,6.15 -5.02,11.16 -11.16,11.16 -6.15,0 -11.16,-4.97 -11.16,-11.16z"/>
    <path class="fil0" d="M944.79 1210.89c0,-5.41 4.4,-9.81 9.81,-9.81 5.41,0 9.81,4.4 9.81,9.81 0,5.41 -4.4,9.81 -9.81,9.81 -5.41,0 -9.81,-4.4 -9.81,-9.81z"/>
    <path class="fil0" d="M307.84 1375.99c0,-5.41 4.4,-9.81 9.81,-9.81 5.41,0 9.81,4.4 9.81,9.81 0,5.41 -4.4,9.81 -9.81,9.81 -5.41,0 -9.81,-4.4 -9.81,-9.81z"/>
    <path class="fil0" d="M472.98 1045.74c0,-5.41 4.4,-9.81 9.81,-9.81 5.41,0 9.81,4.4 9.81,9.81 0,5.41 -4.4,9.81 -9.81,9.81 -5.41,0 -9.81,-4.4 -9.81,-9.81z"/>
    <path class="fil0" d="M32.62 2256.72c0,-5.45 4.4,-9.81 9.81,-9.81 5.41,0 9.81,4.4 9.81,9.81 0,5.41 -4.4,9.81 -9.81,9.81 -5.41,0 -9.81,-4.4 -9.81,-9.81z"/>
    <path class="fil0" d="M719.33 677.46c0,-4.71 3.84,-8.5 8.59,-8.5 4.62,0 8.5,3.79 8.5,8.5 0,4.71 -3.84,8.5 -8.5,8.5 -4.71,0 -8.59,-3.79 -8.59,-8.5z"/>
    <path class="fil0" d="M35.24 134.93c0,-4.71 3.84,-8.5 8.59,-8.5 4.62,0 8.5,3.84 8.5,8.5 0,4.71 -3.84,8.5 -8.5,8.5 -4.71,0 -8.59,-3.84 -8.59,-8.5z"/>
    <line class="fil1" x1="780.99" y1="208.97" x2="780.99" y2= "208.97" />
    <path class="fil0" d="M1466.26 4.88c0,-2.7 2.18,-4.88 4.88,-4.88 2.66,0 4.88,2.18 4.88,4.88 0,2.7 -2.18,4.88 -4.88,4.88 -2.66,0 -4.88,-2.18 -4.88,-4.88z"/>
    <path class="fil0" d="M818.98 1803.66c0,-7.59 6.15,-13.78 13.78,-13.78 7.63,0 13.78,6.15 13.78,13.78 0,7.59 -6.15,13.78 -13.78,13.78 -7.63,0 -13.78,-6.15 -13.78,-13.78z"/>
    <path class="fil0" d="M756.83 3537.51c0,-6.63 5.41,-12.04 12.12,-12.04 6.58,0 12.04,5.41 12.04,12.04 0,6.67 -5.41,12.04 -12.04,12.04 -6.67,0 -12.12,-5.41 -12.12,-12.04z"/>
    <path class="fil0" d="M2112.5 3596.73c0,-6.54 5.28,-11.77 11.77,-11.77 6.5,0 11.77,5.28 11.77,11.77 0,6.5 -5.28,11.77 -11.77,11.77 -6.5,0 -11.77,-5.28 -11.77,-11.77z"/>
    <path class="fil0" d="M4271.32 3522.86c0,-6.8 5.49,-12.3 12.3,-12.3 6.8,0 12.3,5.49 12.3,12.3 0,6.76 -5.49,12.3 -12.3,12.3 -6.8,0 -12.3,-5.49 -12.3,-12.3z"/>
    <path class="fil0" d="M3783.12 1999.99c0,-8.24 6.67,-14.91 14.91,-14.91 8.24,0 14.91,6.67 14.91,14.91 0,8.24 -6.67,14.91 -14.91,14.91 -8.24,0 -14.91,-6.67 -14.91,-14.91z"/>
    <path class="fil0" d="M4766.02 1245.12c0,-8.24 6.67,-14.91 14.91,-14.91 8.24,0 14.91,6.67 14.91,14.91 0,8.24 -6.67,14.91 -14.91,14.91 -8.24,0 -14.91,-6.67 -14.91,-14.91z"/>
    <path class="fil0" d="M4332.54 1485.45c0,-4.36 3.53,-7.85 7.85,-7.85 4.36,0 7.85,3.53 7.85,7.85 0,4.36 -3.53,7.85 -7.85,7.85 -4.36,0 -7.85,-3.53 -7.85,-7.85z"/>
    <path class="fil0" d="M2531.54 2206.39c0,-2.79 2.27,-5.06 5.06,-5.06 2.79,0 5.06,2.27 5.06,5.06 0,2.79 -2.27,5.06 -5.06,5.06 -2.79,0 -5.06,-2.27 -5.06,-5.06z"/>
    <path class="fil2" d="M1007.54 628.84l5.36 20.98c0.7,3.01 4.97,3.05 5.8,0.04l5.67 -20.89c0.31,-1.05 1.09,-1.87 2.18,-2.14l20.98 -5.32c2.96,-0.78 2.96,-5.02 0,-5.84l-20.85 -5.71c-1.09,-0.31 -1.87,-1.13 -2.14,-2.18l-5.36 -20.98c-0.78,-3.01 -5.02,-3.05 -5.8,-0.04l-5.76 20.89c-0.22,1.05 -1.09,1.87 -2.14,2.14l-20.98 5.32c-2.96,0.74 -3.05,5.02 -0.09,5.8l20.93 5.71c1,0.26 1.87,1.13 2.14,2.18l0.05 0.04z"/>
    <path class="fil2" d="M2951.28 3411.96l5.32 20.98c0.74,3.01 5.02,3.05 5.8,0.04l5.71 -20.89c0.31,-1.05 1.09,-1.87 2.18,-2.14l20.98 -5.32c3.01,-0.74 3.05,-5.02 0.04,-5.8l-20.89 -5.71c-1.05,-0.26 -1.87,-1.09 -2.09,-2.18l-5.32 -20.98c-0.74,-3.01 -5.02,-3.05 -5.8,-0.04l-5.71 20.89c-0.26,1.05 -1.09,1.87 -2.18,2.14l-20.98 5.32c-3.01,0.74 -3.05,5.02 -0.04,5.8l20.89 5.71c1.05,0.26 1.87,1.09 2.14,2.18l-0.04 0z"/>
    <path class="fil2" d="M983.77 3318.94l4.58 17.92c0.61,2.57 4.32,2.57 4.97,0.04l4.88 -17.84c0.22,-0.87 0.96,-1.57 1.87,-1.79l17.92 -4.54c2.53,-0.65 2.62,-4.27 0,-4.97l-17.84 -4.88c-0.87,-0.22 -1.57,-0.96 -1.79,-1.83l-4.49 -17.92c-0.7,-2.57 -4.32,-2.57 -5.02,-0.04l-4.8 17.84c-0.31,0.92 -1,1.61 -1.87,1.83l-17.92 4.54c-2.53,0.65 -2.57,4.27 -0.09,4.97l17.84 4.88c0.96,0.22 1.66,0.96 1.83,1.83l-0.09 -0.04z"/>
    <path class="fil2" d="M55.91 3413.31l4.58 17.92c0.61,2.57 4.32,2.57 4.97,0.04l4.88 -17.84c0.22,-0.87 0.96,-1.57 1.87,-1.83l17.92 -4.54c2.53,-0.65 2.57,-4.27 0,-4.97l-17.84 -4.88c-0.87,-0.22 -1.57,-0.96 -1.83,-1.83l-4.49 -17.92c-0.7,-2.57 -4.32,-2.62 -5.02,-0.04l-4.8 17.84c-0.31,0.92 -1,1.61 -1.87,1.83l-17.92 4.54c-2.53,0.65 -2.62,4.27 -0.09,4.97l17.84 4.88c0.96,0.22 1.66,0.96 1.83,1.83l-0.04 0z"/>
    <path class="fil2" d="M4264.04 3131.9l4.54 17.92c0.65,2.57 4.27,2.62 4.97,0.04l4.88 -17.84c0.26,-0.87 0.96,-1.57 1.87,-1.79l17.92 -4.54c2.57,-0.65 2.57,-4.27 0.04,-4.97l-17.84 -4.88c-0.87,-0.26 -1.57,-0.96 -1.83,-1.87l-4.54 -17.92c-0.65,-2.57 -4.27,-2.57 -4.97,-0.04l-4.88 17.84c-0.26,0.92 -0.96,1.57 -1.87,1.83l-17.92 4.54c-2.57,0.65 -2.57,4.27 -0.04,4.97l17.84 4.88c0.92,0.26 1.57,0.96 1.83,1.83l0 -0z"/>
    <path class="fil2" d="M5073.94 662.81l4.54 17.92c0.65,2.57 4.27,2.57 4.97,0.04l4.88 -17.84c0.26,-0.92 0.96,-1.57 1.87,-1.79l17.92 -4.54c2.57,-0.65 2.57,-4.27 0.04,-4.97l-17.84 -4.88c-0.87,-0.26 -1.57,-0.96 -1.83,-1.87l-4.54 -17.92c-0.65,-2.57 -4.27,-2.57 -4.97,-0.04l-4.88 17.84c-0.26,0.87 -0.96,1.57 -1.87,1.83l-17.92 4.54c-2.57,0.65 -2.62,4.27 -0.04,4.97l17.84 4.88c0.92,0.26 1.57,0.96 1.83,1.87l0 -0.04z"/>
    <path class="fil1" d="M3697.25 2300.46l0.74 0.48c0.7,0.48 1.4,0.96 2.09,1.44l0.57 0.39 1.66 1.18 0.7 0.52c0.65,0.48 1.31,1 1.96,1.53l0.7 0.57 1.53 1.22 0.61 0.48c0.61,0.52 1.22,1 1.79,1.53l0.83 0.74 1.35 1.22 1.09 1 1.22 1.13 0.87 0.83c0.57,0.52 1.09,1.05 1.61,1.57l0.65 0.65 1.26 1.26 0.7 0.74c0.52,0.57 1.05,1.13 1.57,1.7l0.7 0.74 1.4 1.57 0.31 0.31 0.04 0.04 0.22 0.26 1.35 1.61 0.78 0.92 1.44 1.79 0.52 0.65 1.13 1.48 0.61 0.78c0.48,0.65 0.96,1.26 1.4,1.92l0.52 0.74 1.09 1.61 0.7 1.05 1.05 1.61 0.61 0.96 1.09 1.79 0.61 1 0.87 1.48 0.52 0.92c0.39,0.65 0.74,1.31 1.13,2.01l0.57 1.09 0.78 1.44 0.44 0.87 1.05 2.14 0.48 0.96 0.78 1.7 0.57 1.22 0.83 1.92 0.31 0.7c0.35,0.78 0.65,1.57 0.96,2.35l0.31 0.78c0.26,0.7 0.57,1.44 0.83,2.14l0.17 0.48c0.31,0.83 0.61,1.66 0.87,2.53l0.26 0.78c0.26,0.78 0.52,1.61 0.78,2.4l0.04 0.17 0.04 0.09c0.26,0.87 0.52,1.75 0.78,2.62l0.22 0.74c0.22,0.83 0.48,1.7 0.7,2.57l0.17 0.61 0.52 2.14 0.17 0.78c0.17,0.87 0.39,1.7 0.57,2.57l0.13 0.74c0.17,0.78 0.31,1.57 0.44,2.35l0.09 0.52c0.17,0.92 0.31,1.83 0.44,2.75l0.09 0.61c0.26,1.87 0.52,3.75 0.74,5.67l0.09 0.87c0.09,0.92 0.17,1.83 0.26,2.79l0.04 0.44c0.09,0.92 0.13,1.83 0.17,2.75l0.04 0.44c0.04,0.96 0.09,1.92 0.13,2.92l0 0.7c0.04,0.96 0.04,1.96 0.04,2.96m-0.17 6.67l0 0.04c-0.22,3.97 -0.61,7.85 -1.13,11.73 -3.18,-2.09 -6.67,-4.49 -10.47,-7.24 -41.3,-29.48 -55.03,-39.33 -45.22,-62.93 7.59,-18.18 -7.59,-45.66 -1.05,-56.43l0.48 0.31"/>
   </g>
   <g id="_2467410387216_0">
    <path class="fil0" d="M3537.73 7119.07c0,-7.06 5.71,-12.78 12.78,-12.78 7.06,0 12.78,5.71 12.78,12.78 0,7.06 -5.71,12.78 -12.78,12.78 -7.06,0 -12.78,-5.71 -12.78,-12.78z"/>
    <path class="fil0" d="M5023.88 6985.41c0,-7.06 5.71,-12.78 12.78,-12.78 7.06,0 12.78,5.71 12.78,12.78 0,7.06 -5.71,12.78 -12.78,12.78 -7.06,0 -12.78,-5.71 -12.78,-12.78z"/>
    <path class="fil0" d="M1852.03 6735.62c0,-6.76 5.49,-12.25 12.25,-12.25 6.8,0 12.25,5.49 12.25,12.25 0,6.76 -5.49,12.25 -12.25,12.25 -6.76,0 -12.25,-5.49 -12.25,-12.25z"/>
    <path class="fil0" d="M1369.71 7133.99c0,-8.24 6.67,-14.91 14.96,-14.91 8.2,0 14.87,6.67 14.87,14.91 0,8.24 -6.67,14.91 -14.87,14.91 -8.24,0 -14.96,-6.67 -14.96,-14.91z"/>
    <path class="fil0" d="M1221.36 7158.1c0,-5.06 4.1,-9.2 9.11,-9.2 5.1,0 9.2,4.1 9.2,9.2 0,5.06 -4.1,9.16 -9.2,9.16 -5.02,0 -9.11,-4.1 -9.11,-9.16z"/>
    <path class="fil0" d="M2210.8 6067.05c0,-3.97 3.23,-7.2 7.2,-7.2 3.97,0 7.2,3.23 7.2,7.2 0,3.97 -3.23,7.2 -7.2,7.2 -3.97,0 -7.2,-3.23 -7.2,-7.2z"/>
    <path class="fil0" d="M1957.82 6148.95c0,-3.62 2.92,-6.54 6.54,-6.54 3.62,0 6.54,2.92 6.54,6.54 0,3.62 -2.92,6.54 -6.54,6.54 -3.62,0 -6.54,-2.92 -6.54,-6.54z"/>
    <path class="fil0" d="M2805.75 6178.43c0,-6.15 4.97,-11.12 11.12,-11.12 6.15,0 11.16,4.97 11.16,11.12 0,6.15 -5.02,11.16 -11.16,11.16 -6.15,0 -11.12,-4.97 -11.12,-11.16z"/>
    <path class="fil0" d="M3218.6 6148.95c0,-3.62 2.92,-6.54 6.54,-6.54 3.62,0 6.54,2.92 6.54,6.54 0,3.62 -2.92,6.54 -6.54,6.54 -3.62,0 -6.54,-2.92 -6.54,-6.54z"/>
    <path class="fil0" d="M3212.06 6449.72c0,-5.41 4.4,-9.81 9.81,-9.81 5.41,0 9.81,4.4 9.81,9.81 0,5.41 -4.4,9.81 -9.81,9.81 -5.41,0 -9.81,-4.4 -9.81,-9.81z"/>
    <path class="fil0" d="M3907.75 6021.92c0,-2.84 2.31,-5.15 5.15,-5.15 2.84,0 5.15,2.31 5.15,5.15 0,2.84 -2.31,5.15 -5.15,5.15 -2.84,0 -5.15,-2.31 -5.15,-5.15z"/>
    <path class="fil0" d="M3812.94 6184.01c0,-3.05 2.49,-5.58 5.58,-5.58 3.1,0 5.58,2.49 5.58,5.58 0,3.1 -2.49,5.58 -5.58,5.58 -3.05,0 -5.58,-2.49 -5.58,-5.58z"/>
    <path class="fil0" d="M4177.91 6269.53c0,-2.18 1.75,-3.93 3.93,-3.93 2.18,0 3.93,1.75 3.93,3.93 0,2.18 -1.79,3.93 -3.93,3.93 -2.18,0 -3.93,-1.75 -3.93,-3.93z"/>
    <path class="fil0" d="M4833.22 6235.47c0,-2.18 1.75,-3.93 3.93,-3.93 2.18,0 3.93,1.75 3.93,3.93 0,2.18 -1.75,3.93 -3.93,3.93 -2.18,0 -3.93,-1.75 -3.93,-3.93z"/>
    <path class="fil0" d="M4185.8 5901.25c0,-4.36 3.53,-7.85 7.85,-7.85 4.36,0 7.85,3.53 7.85,7.85 0,4.36 -3.53,7.85 -7.85,7.85 -4.36,0 -7.85,-3.53 -7.85,-7.85z"/>
    <path class="fil0" d="M4833.22 6019.21c0,-4.36 3.53,-7.85 7.85,-7.85 4.36,0 7.85,3.53 7.85,7.85 0,4.36 -3.53,7.85 -7.85,7.85 -4.36,0 -7.85,-3.53 -7.85,-7.85z"/>
    <path class="fil0" d="M5163.47 6569.64c0,-4.36 3.53,-7.85 7.85,-7.85 4.36,0 7.85,3.53 7.85,7.85 0,4.36 -3.53,7.85 -7.85,7.85 -4.36,0 -7.85,-3.53 -7.85,-7.85z"/>
    <path class="fil0" d="M3241.19 5721.36c0,-10.68 8.68,-19.32 19.32,-19.32 10.68,0 19.32,8.64 19.32,19.32 0,10.68 -8.68,19.32 -19.32,19.32 -10.68,0 -19.32,-8.64 -19.32,-19.32z"/>
    <path class="fil0" d="M4507.2 5595.55c0,-10.68 8.68,-19.32 19.32,-19.32 10.68,0 19.32,8.64 19.32,19.32 0,10.68 -8.68,19.32 -19.32,19.32 -10.68,0 -19.32,-8.64 -19.32,-19.32z"/>
    <path class="fil0" d="M1238.32 5958.25c0,-3.27 2.66,-5.89 5.89,-5.89 3.31,0 5.89,2.66 5.89,5.89 0,3.27 -2.57,5.89 -5.89,5.89 -3.23,0 -5.89,-2.66 -5.89,-5.89z"/>
    <path class="fil0" d="M864.98 6507.85c0,-16.61 13.43,-30.09 30.05,-30.09 16.66,0 30.13,13.47 30.13,30.09 0,16.61 -13.43,30.09 -30.13,30.09 -16.57,0 -30.05,-13.47 -30.05,-30.09z"/>
    <path class="fil0" d="M-0 5351.96c0,-16.61 13.43,-30.09 30.05,-30.09 16.66,0 30.13,13.47 30.13,30.09 0,16.61 -13.43,30.09 -30.13,30.09 -16.57,0 -30.05,-13.47 -30.05,-30.09z"/>
    <path class="fil0" d="M804.58 5878.97c0,-7.98 6.46,-14.43 14.39,-14.43 7.94,0 14.39,6.46 14.39,14.43 0,7.94 -6.46,14.43 -14.39,14.43 -7.94,0 -14.39,-6.46 -14.39,-14.43z"/>
    <path class="fil0" d="M191.22 6578.8c0,-7.94 6.46,-14.39 14.39,-14.39 7.94,0 14.39,6.46 14.39,14.39 0,7.98 -6.46,14.43 -14.39,14.43 -7.94,0 -14.39,-6.46 -14.39,-14.43z"/>
    <path class="fil0" d="M4948.52 5517.27c0,-7.98 6.46,-14.43 14.39,-14.43 7.98,0 14.43,6.46 14.43,14.43 0,7.94 -6.46,14.43 -14.43,14.43 -7.98,0 -14.39,-6.46 -14.39,-14.43z"/>
    <path class="fil0" d="M1643.27 5388.85c0,-3.62 3.01,-6.54 6.58,-6.54 3.62,0 6.54,2.92 6.54,6.54 0,3.62 -2.92,6.54 -6.54,6.54 -3.62,0 -6.58,-2.92 -6.58,-6.54z"/>
    <path class="fil0" d="M1495.13 5457.66c0,-1.79 1.4,-3.23 3.23,-3.23 1.83,0 3.23,1.44 3.23,3.23 0,1.79 -1.4,3.23 -3.23,3.23 -1.79,0 -3.23,-1.44 -3.23,-3.23z"/>
    <path class="fil0" d="M2084.99 4819.4c0,-13.74 11.16,-24.9 24.9,-24.9 13.74,0 24.9,11.16 24.9,24.9 0,13.74 -11.16,24.9 -24.9,24.9 -13.74,0 -24.9,-11.16 -24.9,-24.9z"/>
    <path class="fil0" d="M5088.77 3718.54c0,-13.74 11.16,-24.9 24.9,-24.9 13.74,0 24.9,11.16 24.9,24.9 0,13.74 -11.16,24.9 -24.9,24.9 -13.74,0 -24.9,-11.16 -24.9,-24.9z"/>
    <path class="fil0" d="M1838.95 5608.5c0,-3.62 2.92,-6.54 6.54,-6.54 3.62,0 6.54,2.92 6.54,6.54 0,3.62 -2.92,6.54 -6.54,6.54 -3.62,0 -6.54,-2.92 -6.54,-6.54z"/>
    <path class="fil0" d="M2849.01 4933.4c0,-2.88 2.35,-5.23 5.23,-5.23 2.88,0 5.23,2.35 5.23,5.23 0,2.88 -2.35,5.23 -5.23,5.23 -2.88,0 -5.23,-2.35 -5.23,-5.23z"/>
    <line class="fil1" x1="2833.31" y1="4773.53" x2="2833.31" y2= "4773.53" />
    <path class="fil0" d="M3357.49 4831.18c0,-7.24 5.89,-13.13 13.13,-13.13 7.24,0 13.13,5.89 13.13,13.13 0,7.24 -5.89,13.08 -13.13,13.08 -7.24,0 -13.13,-5.89 -13.13,-13.08z"/>
    <path class="fil0" d="M4662.84 4005.53c0,-7.24 5.84,-13.13 13.13,-13.13 7.24,0 13.13,5.89 13.13,13.13 0,7.24 -5.89,13.08 -13.13,13.08 -7.24,0 -13.13,-5.89 -13.13,-13.08z"/>
    <path class="fil0" d="M3023.32 4858.04c0,-3.97 3.23,-7.2 7.2,-7.2 3.97,0 7.2,3.23 7.2,7.2 0,3.97 -3.23,7.2 -7.2,7.2 -3.97,0 -7.2,-3.23 -7.2,-7.2z"/>
    <path class="fil0" d="M2890.96 4420.34c0,-4.36 3.53,-7.85 7.85,-7.85 4.36,0 7.85,3.53 7.85,7.85 0,4.36 -3.53,7.85 -7.85,7.85 -4.36,0 -7.85,-3.53 -7.85,-7.85z"/>
    <line class="fil1" x1="3378.47" y1="4682.43" x2="3378.47" y2= "4682.43" />
    <path class="fil0" d="M3918 4720.24c0,-9.55 7.72,-17.27 17.27,-17.27 9.55,0 17.27,7.72 17.27,17.27 0,9.55 -7.72,17.27 -17.27,17.27 -9.55,0 -17.27,-7.72 -17.27,-17.27z"/>
    <path class="fil0" d="M3683.86 4856.08c0,-5.41 4.4,-9.81 9.81,-9.81 5.41,0 9.81,4.4 9.81,9.81 0,5.41 -4.4,9.81 -9.81,9.81 -5.41,0 -9.81,-4.4 -9.81,-9.81z"/>
    <path class="fil0" d="M4189.73 4456.36c0,-6.15 4.97,-11.16 11.12,-11.16 6.15,0 11.12,4.97 11.12,11.16 0,6.15 -4.97,11.16 -11.12,11.16 -6.15,0 -11.12,-4.97 -11.12,-11.16z"/>
    <path class="fil0" d="M4173.55 4074.17c0,-4.49 3.62,-8.11 8.11,-8.11 4.45,0 8.11,3.62 8.11,8.11 0,4.45 -3.62,8.11 -8.11,8.11 -4.49,0 -8.11,-3.62 -8.11,-8.11z"/>
    <path class="fil0" d="M3935.35 3983.73c0,-7.11 5.76,-12.91 12.91,-12.91 7.11,0 12.91,5.76 12.91,12.91 0,7.11 -5.76,12.87 -12.91,12.87 -7.11,0 -12.91,-5.76 -12.91,-12.87z"/>
    <path class="fil0" d="M3910.37 3795.29c0,-2.09 1.7,-3.84 3.84,-3.84 2.14,0 3.84,1.7 3.84,3.84 0,2.09 -1.7,3.84 -3.84,3.84 -2.14,0 -3.84,-1.7 -3.84,-3.84z"/>
    <path class="fil0" d="M4225.09 3664.12c0,-14.48 11.73,-26.21 26.21,-26.21 14.48,0 26.21,11.73 26.21,26.21 0,14.48 -11.73,26.21 -26.21,26.21 -14.48,0 -26.21,-11.73 -26.21,-26.21z"/>
    <path class="fil0" d="M3155.67 4155.59c0,-10.12 8.2,-18.36 18.36,-18.36 10.12,0 18.36,8.2 18.36,18.36 0,10.12 -8.2,18.36 -18.36,18.36 -10.12,0 -18.36,-8.2 -18.36,-18.36z"/>
    <path class="fil0" d="M2943.73 3954.55c0,-2.09 1.7,-3.75 3.75,-3.75 2.09,0 3.75,1.7 3.75,3.75 0,2.05 -1.7,3.75 -3.75,3.75 -2.05,0 -3.75,-1.7 -3.75,-3.75z"/>
    <path class="fil0" d="M2391.64 3854.82c0,-9.77 7.94,-17.7 17.7,-17.7 9.77,0 17.7,7.94 17.7,17.7 0,9.77 -7.94,17.7 -17.7,17.7 -9.77,0 -17.7,-7.94 -17.7,-17.7z"/>
    <path class="fil0" d="M1737.64 4639.21c0,-6.5 5.28,-11.77 11.77,-11.77 6.54,0 11.77,5.28 11.77,11.77 0,6.5 -5.28,11.77 -11.77,11.77 -6.54,0 -11.77,-5.28 -11.77,-11.77z"/>
    <path class="fil0" d="M1411.62 4972.56c0,-6.24 5.1,-11.29 11.34,-11.29 6.28,0 11.34,5.06 11.34,11.29 0,6.24 -5.02,11.29 -11.34,11.29 -6.19,0 -11.34,-5.06 -11.34,-11.29z"/>
    <path class="fil0" d="M2099.38 4425.57c0,-2.88 2.35,-5.23 5.23,-5.23 2.88,0 5.23,2.35 5.23,5.23 0,2.88 -2.35,5.23 -5.23,5.23 -2.88,0 -5.23,-2.35 -5.23,-5.23z"/>
    <path class="fil0" d="M1770.43 4212.58c0,-1.79 1.48,-3.27 3.31,-3.27 1.79,0 3.23,1.48 3.23,3.27 0,1.79 -1.4,3.27 -3.23,3.27 -1.79,0 -3.31,-1.48 -3.31,-3.27z"/>
    <path class="fil0" d="M1151.84 4479.95c0,-6.15 5.02,-11.12 11.16,-11.12 6.15,0 11.16,4.97 11.16,11.12 0,6.15 -5.02,11.16 -11.16,11.16 -6.15,0 -11.16,-4.97 -11.16,-11.16z"/>
    <path class="fil0" d="M944.79 4819.4c0,-5.41 4.4,-9.81 9.81,-9.81 5.41,0 9.81,4.4 9.81,9.81 0,5.41 -4.4,9.81 -9.81,9.81 -5.41,0 -9.81,-4.4 -9.81,-9.81z"/>
    <path class="fil0" d="M307.84 4984.5c0,-5.41 4.4,-9.81 9.81,-9.81 5.41,0 9.81,4.4 9.81,9.81 0,5.41 -4.4,9.81 -9.81,9.81 -5.41,0 -9.81,-4.4 -9.81,-9.81z"/>
    <path class="fil0" d="M472.98 4654.26c0,-5.41 4.4,-9.81 9.81,-9.81 5.41,0 9.81,4.4 9.81,9.81 0,5.41 -4.4,9.81 -9.81,9.81 -5.41,0 -9.81,-4.4 -9.81,-9.81z"/>
    <path class="fil0" d="M32.62 5865.23c0,-5.45 4.4,-9.81 9.81,-9.81 5.41,0 9.81,4.4 9.81,9.81 0,5.41 -4.4,9.81 -9.81,9.81 -5.41,0 -9.81,-4.4 -9.81,-9.81z"/>
    <path class="fil0" d="M719.33 4285.98c0,-4.71 3.84,-8.5 8.59,-8.5 4.62,0 8.5,3.79 8.5,8.5 0,4.71 -3.84,8.5 -8.5,8.5 -4.71,0 -8.59,-3.79 -8.59,-8.5z"/>
    <path class="fil0" d="M35.24 3743.44c0,-4.71 3.84,-8.5 8.59,-8.5 4.62,0 8.5,3.84 8.5,8.5 0,4.71 -3.84,8.5 -8.5,8.5 -4.71,0 -8.59,-3.84 -8.59,-8.5z"/>
    <line class="fil1" x1="780.99" y1="3817.49" x2="780.99" y2= "3817.49" />
    <path class="fil0" d="M1466.26 3613.4c0,-2.7 2.18,-4.88 4.88,-4.88 2.66,0 4.88,2.18 4.88,4.88 0,2.7 -2.18,4.88 -4.88,4.88 -2.66,0 -4.88,-2.18 -4.88,-4.88z"/>
    <path class="fil0" d="M818.98 5412.18c0,-7.59 6.15,-13.78 13.78,-13.78 7.63,0 13.78,6.15 13.78,13.78 0,7.59 -6.15,13.78 -13.78,13.78 -7.63,0 -13.78,-6.15 -13.78,-13.78z"/>
    <path class="fil0" d="M756.83 7146.02c0,-6.63 5.41,-12.04 12.12,-12.04 6.58,0 12.04,5.41 12.04,12.04 0,6.67 -5.41,12.04 -12.04,12.04 -6.67,0 -12.12,-5.41 -12.12,-12.04z"/>
    <path class="fil0" d="M2112.5 7205.24c0,-6.54 5.28,-11.77 11.77,-11.77 6.5,0 11.77,5.28 11.77,11.77 0,6.5 -5.28,11.77 -11.77,11.77 -6.5,0 -11.77,-5.28 -11.77,-11.77z"/>
    <path class="fil0" d="M4271.32 7131.37c0,-6.8 5.49,-12.3 12.3,-12.3 6.8,0 12.3,5.49 12.3,12.3 0,6.76 -5.49,12.3 -12.3,12.3 -6.8,0 -12.3,-5.49 -12.3,-12.3z"/>
    <path class="fil0" d="M3783.12 5608.5c0,-8.24 6.67,-14.91 14.91,-14.91 8.24,0 14.91,6.67 14.91,14.91 0,8.24 -6.67,14.91 -14.91,14.91 -8.24,0 -14.91,-6.67 -14.91,-14.91z"/>
    <path class="fil0" d="M4766.02 4853.63c0,-8.24 6.67,-14.91 14.91,-14.91 8.24,0 14.91,6.67 14.91,14.91 0,8.24 -6.67,14.91 -14.91,14.91 -8.24,0 -14.91,-6.67 -14.91,-14.91z"/>
    <path class="fil0" d="M4332.54 5093.96c0,-4.36 3.53,-7.85 7.85,-7.85 4.36,0 7.85,3.53 7.85,7.85 0,4.36 -3.53,7.85 -7.85,7.85 -4.36,0 -7.85,-3.53 -7.85,-7.85z"/>
    <path class="fil0" d="M2531.54 5814.91c0,-2.79 2.27,-5.06 5.06,-5.06 2.79,0 5.06,2.27 5.06,5.06 0,2.79 -2.27,5.06 -5.06,5.06 -2.79,0 -5.06,-2.27 -5.06,-5.06z"/>
    <path class="fil2" d="M1007.54 4237.35l5.36 20.98c0.7,3.01 4.97,3.05 5.8,0.04l5.67 -20.89c0.31,-1.05 1.09,-1.87 2.18,-2.14l20.98 -5.32c2.96,-0.78 2.96,-5.02 0,-5.84l-20.85 -5.71c-1.09,-0.31 -1.87,-1.13 -2.14,-2.18l-5.36 -20.98c-0.78,-3.01 -5.02,-3.05 -5.8,-0.04l-5.76 20.89c-0.22,1.05 -1.09,1.87 -2.14,2.14l-20.98 5.32c-2.96,0.74 -3.05,5.02 -0.09,5.8l20.93 5.71c1,0.26 1.87,1.13 2.14,2.18l0.05 0.04z"/>
    <path class="fil2" d="M2951.28 7020.47l5.32 20.98c0.74,3.01 5.02,3.05 5.8,0.04l5.71 -20.89c0.31,-1.05 1.09,-1.87 2.18,-2.14l20.98 -5.32c3.01,-0.74 3.05,-5.02 0.04,-5.8l-20.89 -5.71c-1.05,-0.26 -1.87,-1.09 -2.09,-2.18l-5.32 -20.98c-0.74,-3.01 -5.02,-3.05 -5.8,-0.04l-5.71 20.89c-0.26,1.05 -1.09,1.87 -2.18,2.14l-20.98 5.32c-3.01,0.74 -3.05,5.02 -0.04,5.8l20.89 5.71c1.05,0.26 1.87,1.09 2.14,2.18l-0.04 0z"/>
    <path class="fil2" d="M983.77 6927.45l4.58 17.92c0.61,2.57 4.32,2.57 4.97,0.04l4.88 -17.84c0.22,-0.87 0.96,-1.57 1.87,-1.79l17.92 -4.54c2.53,-0.65 2.62,-4.27 0,-4.97l-17.84 -4.88c-0.87,-0.22 -1.57,-0.96 -1.79,-1.83l-4.49 -17.92c-0.7,-2.57 -4.32,-2.57 -5.02,-0.04l-4.8 17.84c-0.31,0.92 -1,1.61 -1.87,1.83l-17.92 4.54c-2.53,0.65 -2.57,4.27 -0.09,4.97l17.84 4.88c0.96,0.22 1.66,0.96 1.83,1.83l-0.09 -0.04z"/>
    <path class="fil2" d="M55.91 7021.82l4.58 17.92c0.61,2.57 4.32,2.57 4.97,0.04l4.88 -17.84c0.22,-0.87 0.96,-1.57 1.87,-1.83l17.92 -4.54c2.53,-0.65 2.57,-4.27 0,-4.97l-17.84 -4.88c-0.87,-0.22 -1.57,-0.96 -1.83,-1.83l-4.49 -17.92c-0.7,-2.57 -4.32,-2.62 -5.02,-0.04l-4.8 17.84c-0.31,0.92 -1,1.61 -1.87,1.83l-17.92 4.54c-2.53,0.65 -2.62,4.27 -0.09,4.97l17.84 4.88c0.96,0.22 1.66,0.96 1.83,1.83l-0.04 0z"/>
    <path class="fil2" d="M4264.04 6740.42l4.54 17.92c0.65,2.57 4.27,2.62 4.97,0.04l4.88 -17.84c0.26,-0.87 0.96,-1.57 1.87,-1.79l17.92 -4.54c2.57,-0.65 2.57,-4.27 0.04,-4.97l-17.84 -4.88c-0.87,-0.26 -1.57,-0.96 -1.83,-1.87l-4.54 -17.92c-0.65,-2.57 -4.27,-2.57 -4.97,-0.04l-4.88 17.84c-0.26,0.92 -0.96,1.57 -1.87,1.83l-17.92 4.54c-2.57,0.65 -2.57,4.27 -0.04,4.97l17.84 4.88c0.92,0.26 1.57,0.96 1.83,1.83l0 -0z"/>
    <path class="fil2" d="M5073.94 4271.32l4.54 17.92c0.65,2.57 4.27,2.57 4.97,0.04l4.88 -17.84c0.26,-0.92 0.96,-1.57 1.87,-1.79l17.92 -4.54c2.57,-0.65 2.57,-4.27 0.04,-4.97l-17.84 -4.88c-0.87,-0.26 -1.57,-0.96 -1.83,-1.87l-4.54 -17.92c-0.65,-2.57 -4.27,-2.57 -4.97,-0.04l-4.88 17.84c-0.26,0.87 -0.96,1.57 -1.87,1.83l-17.92 4.54c-2.57,0.65 -2.62,4.27 -0.04,4.97l17.84 4.88c0.92,0.26 1.57,0.96 1.83,1.87l0 -0.04z"/>
    <path class="fil1" d="M3697.25 5908.97l0.74 0.48c0.7,0.48 1.4,0.96 2.09,1.44l0.57 0.39 1.66 1.18 0.7 0.52c0.65,0.48 1.31,1 1.96,1.53l0.7 0.57 1.53 1.22 0.61 0.48c0.61,0.52 1.22,1 1.79,1.53l0.83 0.74 1.35 1.22 1.09 1 1.22 1.13 0.87 0.83c0.57,0.52 1.09,1.05 1.61,1.57l0.65 0.65 1.26 1.26 0.7 0.74c0.52,0.57 1.05,1.13 1.57,1.7l0.7 0.74 1.4 1.57 0.31 0.31 0.04 0.04 0.22 0.26 1.35 1.61 0.78 0.92 1.44 1.79 0.52 0.65 1.13 1.48 0.61 0.78c0.48,0.65 0.96,1.26 1.4,1.92l0.52 0.74 1.09 1.61 0.7 1.05 1.05 1.61 0.61 0.96 1.09 1.79 0.61 1 0.87 1.48 0.52 0.92c0.39,0.65 0.74,1.31 1.13,2.01l0.57 1.09 0.78 1.44 0.44 0.87 1.05 2.14 0.48 0.96 0.78 1.7 0.57 1.22 0.83 1.92 0.31 0.7c0.35,0.78 0.65,1.57 0.96,2.35l0.31 0.78c0.26,0.7 0.57,1.44 0.83,2.14l0.17 0.48c0.31,0.83 0.61,1.66 0.87,2.53l0.26 0.78c0.26,0.78 0.52,1.61 0.78,2.4l0.04 0.17 0.04 0.09c0.26,0.87 0.52,1.75 0.78,2.62l0.22 0.74c0.22,0.83 0.48,1.7 0.7,2.57l0.17 0.61 0.52 2.14 0.17 0.78c0.17,0.87 0.39,1.7 0.57,2.57l0.13 0.74c0.17,0.78 0.31,1.57 0.44,2.35l0.09 0.52c0.17,0.92 0.31,1.83 0.44,2.75l0.09 0.61c0.26,1.87 0.52,3.75 0.74,5.67l0.09 0.87c0.09,0.92 0.17,1.83 0.26,2.79l0.04 0.44c0.09,0.92 0.13,1.83 0.17,2.75l0.04 0.44c0.04,0.96 0.09,1.92 0.13,2.92l0 0.7c0.04,0.96 0.04,1.96 0.04,2.96m-0.17 6.67l0 0.04c-0.22,3.97 -0.61,7.85 -1.13,11.73 -3.18,-2.09 -6.67,-4.49 -10.47,-7.24 -41.3,-29.48 -55.03,-39.33 -45.22,-62.93 7.59,-18.18 -7.59,-45.66 -1.05,-56.43l0.48 0.31"/>
   </g>
   <g id="_2467410387216_1">
    <path class="fil0" d="M3537.73 10727.59c0,-7.06 5.71,-12.78 12.78,-12.78 7.06,0 12.78,5.71 12.78,12.78 0,7.06 -5.71,12.78 -12.78,12.78 -7.06,0 -12.78,-5.71 -12.78,-12.78z"/>
    <path class="fil0" d="M5023.88 10593.93c0,-7.06 5.71,-12.78 12.78,-12.78 7.06,0 12.78,5.71 12.78,12.78 0,7.06 -5.71,12.78 -12.78,12.78 -7.06,0 -12.78,-5.71 -12.78,-12.78z"/>
    <path class="fil0" d="M1852.03 10344.13c0,-6.76 5.49,-12.25 12.25,-12.25 6.8,0 12.25,5.49 12.25,12.25 0,6.76 -5.49,12.25 -12.25,12.25 -6.76,0 -12.25,-5.49 -12.25,-12.25z"/>
    <path class="fil0" d="M1369.71 10742.5c0,-8.24 6.67,-14.91 14.96,-14.91 8.2,0 14.87,6.67 14.87,14.91 0,8.24 -6.67,14.91 -14.87,14.91 -8.24,0 -14.96,-6.67 -14.96,-14.91z"/>
    <path class="fil0" d="M1221.36 10766.62c0,-5.06 4.1,-9.2 9.11,-9.2 5.1,0 9.2,4.1 9.2,9.2 0,5.06 -4.1,9.16 -9.2,9.16 -5.02,0 -9.11,-4.1 -9.11,-9.16z"/>
    <path class="fil0" d="M2210.8 9675.57c0,-3.97 3.23,-7.2 7.2,-7.2 3.97,0 7.2,3.23 7.2,7.2 0,3.97 -3.23,7.2 -7.2,7.2 -3.97,0 -7.2,-3.23 -7.2,-7.2z"/>
    <path class="fil0" d="M1957.82 9757.46c0,-3.62 2.92,-6.54 6.54,-6.54 3.62,0 6.54,2.92 6.54,6.54 0,3.62 -2.92,6.54 -6.54,6.54 -3.62,0 -6.54,-2.92 -6.54,-6.54z"/>
    <path class="fil0" d="M2805.75 9786.94c0,-6.15 4.97,-11.12 11.12,-11.12 6.15,0 11.16,4.97 11.16,11.12 0,6.15 -5.02,11.16 -11.16,11.16 -6.15,0 -11.12,-4.97 -11.12,-11.16z"/>
    <path class="fil0" d="M3218.6 9757.46c0,-3.62 2.92,-6.54 6.54,-6.54 3.62,0 6.54,2.92 6.54,6.54 0,3.62 -2.92,6.54 -6.54,6.54 -3.62,0 -6.54,-2.92 -6.54,-6.54z"/>
    <path class="fil0" d="M3212.06 10058.23c0,-5.41 4.4,-9.81 9.81,-9.81 5.41,0 9.81,4.4 9.81,9.81 0,5.41 -4.4,9.81 -9.81,9.81 -5.41,0 -9.81,-4.4 -9.81,-9.81z"/>
    <path class="fil0" d="M3907.75 9630.43c0,-2.84 2.31,-5.15 5.15,-5.15 2.84,0 5.15,2.31 5.15,5.15 0,2.84 -2.31,5.15 -5.15,5.15 -2.84,0 -5.15,-2.31 -5.15,-5.15z"/>
    <path class="fil0" d="M3812.94 9792.53c0,-3.05 2.49,-5.58 5.58,-5.58 3.1,0 5.58,2.49 5.58,5.58 0,3.1 -2.49,5.58 -5.58,5.58 -3.05,0 -5.58,-2.49 -5.58,-5.58z"/>
    <path class="fil0" d="M4177.91 9878.04c0,-2.18 1.75,-3.93 3.93,-3.93 2.18,0 3.93,1.75 3.93,3.93 0,2.18 -1.79,3.93 -3.93,3.93 -2.18,0 -3.93,-1.75 -3.93,-3.93z"/>
    <path class="fil0" d="M4833.22 9843.98c0,-2.18 1.75,-3.93 3.93,-3.93 2.18,0 3.93,1.75 3.93,3.93 0,2.18 -1.75,3.93 -3.93,3.93 -2.18,0 -3.93,-1.75 -3.93,-3.93z"/>
    <path class="fil0" d="M4185.8 9509.77c0,-4.36 3.53,-7.85 7.85,-7.85 4.36,0 7.85,3.53 7.85,7.85 0,4.36 -3.53,7.85 -7.85,7.85 -4.36,0 -7.85,-3.53 -7.85,-7.85z"/>
    <path class="fil0" d="M4833.22 9627.73c0,-4.36 3.53,-7.85 7.85,-7.85 4.36,0 7.85,3.53 7.85,7.85 0,4.36 -3.53,7.85 -7.85,7.85 -4.36,0 -7.85,-3.53 -7.85,-7.85z"/>
    <path class="fil0" d="M5163.47 10178.16c0,-4.36 3.53,-7.85 7.85,-7.85 4.36,0 7.85,3.53 7.85,7.85 0,4.36 -3.53,7.85 -7.85,7.85 -4.36,0 -7.85,-3.53 -7.85,-7.85z"/>
    <path class="fil0" d="M3241.19 9329.88c0,-10.68 8.68,-19.32 19.32,-19.32 10.68,0 19.32,8.64 19.32,19.32 0,10.68 -8.68,19.32 -19.32,19.32 -10.68,0 -19.32,-8.64 -19.32,-19.32z"/>
    <path class="fil0" d="M4507.2 9204.07c0,-10.68 8.68,-19.32 19.32,-19.32 10.68,0 19.32,8.64 19.32,19.32 0,10.68 -8.68,19.32 -19.32,19.32 -10.68,0 -19.32,-8.64 -19.32,-19.32z"/>
    <path class="fil0" d="M1238.32 9566.76c0,-3.27 2.66,-5.89 5.89,-5.89 3.31,0 5.89,2.66 5.89,5.89 0,3.27 -2.57,5.89 -5.89,5.89 -3.23,0 -5.89,-2.66 -5.89,-5.89z"/>
    <path class="fil0" d="M864.98 10116.36c0,-16.61 13.43,-30.09 30.05,-30.09 16.66,0 30.13,13.47 30.13,30.09 0,16.61 -13.43,30.09 -30.13,30.09 -16.57,0 -30.05,-13.47 -30.05,-30.09z"/>
    <path class="fil0" d="M-0 8960.47c0,-16.61 13.43,-30.09 30.05,-30.09 16.66,0 30.13,13.47 30.13,30.09 0,16.61 -13.43,30.09 -30.13,30.09 -16.57,0 -30.05,-13.47 -30.05,-30.09z"/>
    <path class="fil0" d="M804.58 9487.48c0,-7.98 6.46,-14.43 14.39,-14.43 7.94,0 14.39,6.46 14.39,14.43 0,7.94 -6.46,14.43 -14.39,14.43 -7.94,0 -14.39,-6.46 -14.39,-14.43z"/>
    <path class="fil0" d="M191.22 10187.32c0,-7.94 6.46,-14.39 14.39,-14.39 7.94,0 14.39,6.46 14.39,14.39 0,7.98 -6.46,14.43 -14.39,14.43 -7.94,0 -14.39,-6.46 -14.39,-14.43z"/>
    <path class="fil0" d="M4948.52 9125.79c0,-7.98 6.46,-14.43 14.39,-14.43 7.98,0 14.43,6.46 14.43,14.43 0,7.94 -6.46,14.43 -14.43,14.43 -7.98,0 -14.39,-6.46 -14.39,-14.43z"/>
    <path class="fil0" d="M1643.27 8997.36c0,-3.62 3.01,-6.54 6.58,-6.54 3.62,0 6.54,2.92 6.54,6.54 0,3.62 -2.92,6.54 -6.54,6.54 -3.62,0 -6.58,-2.92 -6.58,-6.54z"/>
    <path class="fil0" d="M1495.13 9066.18c0,-1.79 1.4,-3.23 3.23,-3.23 1.83,0 3.23,1.44 3.23,3.23 0,1.79 -1.4,3.23 -3.23,3.23 -1.79,0 -3.23,-1.44 -3.23,-3.23z"/>
    <path class="fil0" d="M2084.99 8427.91c0,-13.74 11.16,-24.9 24.9,-24.9 13.74,0 24.9,11.16 24.9,24.9 0,13.74 -11.16,24.9 -24.9,24.9 -13.74,0 -24.9,-11.16 -24.9,-24.9z"/>
    <path class="fil0" d="M5088.77 7327.05c0,-13.74 11.16,-24.9 24.9,-24.9 13.74,0 24.9,11.16 24.9,24.9 0,13.74 -11.16,24.9 -24.9,24.9 -13.74,0 -24.9,-11.16 -24.9,-24.9z"/>
    <path class="fil0" d="M1838.95 9217.02c0,-3.62 2.92,-6.54 6.54,-6.54 3.62,0 6.54,2.92 6.54,6.54 0,3.62 -2.92,6.54 -6.54,6.54 -3.62,0 -6.54,-2.92 -6.54,-6.54z"/>
    <path class="fil0" d="M2849.01 8541.91c0,-2.88 2.35,-5.23 5.23,-5.23 2.88,0 5.23,2.35 5.23,5.23 0,2.88 -2.35,5.23 -5.23,5.23 -2.88,0 -5.23,-2.35 -5.23,-5.23z"/>
    <line class="fil1" x1="2833.31" y1="8382.04" x2="2833.31" y2= "8382.04" />
    <path class="fil0" d="M3357.49 8439.69c0,-7.24 5.89,-13.13 13.13,-13.13 7.24,0 13.13,5.89 13.13,13.13 0,7.24 -5.89,13.08 -13.13,13.08 -7.24,0 -13.13,-5.89 -13.13,-13.08z"/>
    <path class="fil0" d="M4662.84 7614.04c0,-7.24 5.84,-13.13 13.13,-13.13 7.24,0 13.13,5.89 13.13,13.13 0,7.24 -5.89,13.08 -13.13,13.08 -7.24,0 -13.13,-5.89 -13.13,-13.08z"/>
    <path class="fil0" d="M3023.32 8466.55c0,-3.97 3.23,-7.2 7.2,-7.2 3.97,0 7.2,3.23 7.2,7.2 0,3.97 -3.23,7.2 -7.2,7.2 -3.97,0 -7.2,-3.23 -7.2,-7.2z"/>
    <path class="fil0" d="M2890.96 8028.85c0,-4.36 3.53,-7.85 7.85,-7.85 4.36,0 7.85,3.53 7.85,7.85 0,4.36 -3.53,7.85 -7.85,7.85 -4.36,0 -7.85,-3.53 -7.85,-7.85z"/>
    <line class="fil1" x1="3378.47" y1="8290.94" x2="3378.47" y2= "8290.94" />
    <path class="fil0" d="M3918 8328.75c0,-9.55 7.72,-17.27 17.27,-17.27 9.55,0 17.27,7.72 17.27,17.27 0,9.55 -7.72,17.27 -17.27,17.27 -9.55,0 -17.27,-7.72 -17.27,-17.27z"/>
    <path class="fil0" d="M3683.86 8464.59c0,-5.41 4.4,-9.81 9.81,-9.81 5.41,0 9.81,4.4 9.81,9.81 0,5.41 -4.4,9.81 -9.81,9.81 -5.41,0 -9.81,-4.4 -9.81,-9.81z"/>
    <path class="fil0" d="M4189.73 8064.87c0,-6.15 4.97,-11.16 11.12,-11.16 6.15,0 11.12,4.97 11.12,11.16 0,6.15 -4.97,11.16 -11.12,11.16 -6.15,0 -11.12,-4.97 -11.12,-11.16z"/>
    <path class="fil0" d="M4173.55 7682.68c0,-4.49 3.62,-8.11 8.11,-8.11 4.45,0 8.11,3.62 8.11,8.11 0,4.45 -3.62,8.11 -8.11,8.11 -4.49,0 -8.11,-3.62 -8.11,-8.11z"/>
    <path class="fil0" d="M3935.35 7592.24c0,-7.11 5.76,-12.91 12.91,-12.91 7.11,0 12.91,5.76 12.91,12.91 0,7.11 -5.76,12.87 -12.91,12.87 -7.11,0 -12.91,-5.76 -12.91,-12.87z"/>
    <path class="fil0" d="M3910.37 7403.8c0,-2.09 1.7,-3.84 3.84,-3.84 2.14,0 3.84,1.7 3.84,3.84 0,2.09 -1.7,3.84 -3.84,3.84 -2.14,0 -3.84,-1.7 -3.84,-3.84z"/>
    <path class="fil0" d="M4225.09 7272.63c0,-14.48 11.73,-26.21 26.21,-26.21 14.48,0 26.21,11.73 26.21,26.21 0,14.48 -11.73,26.21 -26.21,26.21 -14.48,0 -26.21,-11.73 -26.21,-26.21z"/>
    <path class="fil0" d="M3155.67 7764.1c0,-10.12 8.2,-18.36 18.36,-18.36 10.12,0 18.36,8.2 18.36,18.36 0,10.12 -8.2,18.36 -18.36,18.36 -10.12,0 -18.36,-8.2 -18.36,-18.36z"/>
    <path class="fil0" d="M2943.73 7563.06c0,-2.09 1.7,-3.75 3.75,-3.75 2.09,0 3.75,1.7 3.75,3.75 0,2.05 -1.7,3.75 -3.75,3.75 -2.05,0 -3.75,-1.7 -3.75,-3.75z"/>
    <path class="fil0" d="M2391.64 7463.33c0,-9.77 7.94,-17.7 17.7,-17.7 9.77,0 17.7,7.94 17.7,17.7 0,9.77 -7.94,17.7 -17.7,17.7 -9.77,0 -17.7,-7.94 -17.7,-17.7z"/>
    <path class="fil0" d="M1737.64 8247.72c0,-6.5 5.28,-11.77 11.77,-11.77 6.54,0 11.77,5.28 11.77,11.77 0,6.5 -5.28,11.77 -11.77,11.77 -6.54,0 -11.77,-5.28 -11.77,-11.77z"/>
    <path class="fil0" d="M1411.62 8581.07c0,-6.24 5.1,-11.29 11.34,-11.29 6.28,0 11.34,5.06 11.34,11.29 0,6.24 -5.02,11.29 -11.34,11.29 -6.19,0 -11.34,-5.06 -11.34,-11.29z"/>
    <path class="fil0" d="M2099.38 8034.08c0,-2.88 2.35,-5.23 5.23,-5.23 2.88,0 5.23,2.35 5.23,5.23 0,2.88 -2.35,5.23 -5.23,5.23 -2.88,0 -5.23,-2.35 -5.23,-5.23z"/>
    <path class="fil0" d="M1770.43 7821.1c0,-1.79 1.48,-3.27 3.31,-3.27 1.79,0 3.23,1.48 3.23,3.27 0,1.79 -1.4,3.27 -3.23,3.27 -1.79,0 -3.31,-1.48 -3.31,-3.27z"/>
    <path class="fil0" d="M1151.84 8088.46c0,-6.15 5.02,-11.12 11.16,-11.12 6.15,0 11.16,4.97 11.16,11.12 0,6.15 -5.02,11.16 -11.16,11.16 -6.15,0 -11.16,-4.97 -11.16,-11.16z"/>
    <path class="fil0" d="M944.79 8427.91c0,-5.41 4.4,-9.81 9.81,-9.81 5.41,0 9.81,4.4 9.81,9.81 0,5.41 -4.4,9.81 -9.81,9.81 -5.41,0 -9.81,-4.4 -9.81,-9.81z"/>
    <path class="fil0" d="M307.84 8593.02c0,-5.41 4.4,-9.81 9.81,-9.81 5.41,0 9.81,4.4 9.81,9.81 0,5.41 -4.4,9.81 -9.81,9.81 -5.41,0 -9.81,-4.4 -9.81,-9.81z"/>
    <path class="fil0" d="M472.98 8262.77c0,-5.41 4.4,-9.81 9.81,-9.81 5.41,0 9.81,4.4 9.81,9.81 0,5.41 -4.4,9.81 -9.81,9.81 -5.41,0 -9.81,-4.4 -9.81,-9.81z"/>
    <path class="fil0" d="M32.62 9473.74c0,-5.45 4.4,-9.81 9.81,-9.81 5.41,0 9.81,4.4 9.81,9.81 0,5.41 -4.4,9.81 -9.81,9.81 -5.41,0 -9.81,-4.4 -9.81,-9.81z"/>
    <path class="fil0" d="M719.33 7894.49c0,-4.71 3.84,-8.5 8.59,-8.5 4.62,0 8.5,3.79 8.5,8.5 0,4.71 -3.84,8.5 -8.5,8.5 -4.71,0 -8.59,-3.79 -8.59,-8.5z"/>
    <path class="fil0" d="M35.24 7351.95c0,-4.71 3.84,-8.5 8.59,-8.5 4.62,0 8.5,3.84 8.5,8.5 0,4.71 -3.84,8.5 -8.5,8.5 -4.71,0 -8.59,-3.84 -8.59,-8.5z"/>
    <line class="fil1" x1="780.99" y1="7426" x2="780.99" y2= "7426" />
    <path class="fil0" d="M1466.26 7221.91c0,-2.7 2.18,-4.88 4.88,-4.88 2.66,0 4.88,2.18 4.88,4.88 0,2.7 -2.18,4.88 -4.88,4.88 -2.66,0 -4.88,-2.18 -4.88,-4.88z"/>
    <path class="fil0" d="M818.98 9020.69c0,-7.59 6.15,-13.78 13.78,-13.78 7.63,0 13.78,6.15 13.78,13.78 0,7.59 -6.15,13.78 -13.78,13.78 -7.63,0 -13.78,-6.15 -13.78,-13.78z"/>
    <path class="fil0" d="M756.83 10754.54c0,-6.63 5.41,-12.04 12.12,-12.04 6.58,0 12.04,5.41 12.04,12.04 0,6.67 -5.41,12.04 -12.04,12.04 -6.67,0 -12.12,-5.41 -12.12,-12.04z"/>
    <path class="fil0" d="M2112.5 10813.76c0,-6.54 5.28,-11.77 11.77,-11.77 6.5,0 11.77,5.28 11.77,11.77 0,6.5 -5.28,11.77 -11.77,11.77 -6.5,0 -11.77,-5.28 -11.77,-11.77z"/>
    <path class="fil0" d="M4271.32 10739.88c0,-6.8 5.49,-12.3 12.3,-12.3 6.8,0 12.3,5.49 12.3,12.3 0,6.76 -5.49,12.3 -12.3,12.3 -6.8,0 -12.3,-5.49 -12.3,-12.3z"/>
    <path class="fil0" d="M3783.12 9217.02c0,-8.24 6.67,-14.91 14.91,-14.91 8.24,0 14.91,6.67 14.91,14.91 0,8.24 -6.67,14.91 -14.91,14.91 -8.24,0 -14.91,-6.67 -14.91,-14.91z"/>
    <path class="fil0" d="M4766.02 8462.15c0,-8.24 6.67,-14.91 14.91,-14.91 8.24,0 14.91,6.67 14.91,14.91 0,8.24 -6.67,14.91 -14.91,14.91 -8.24,0 -14.91,-6.67 -14.91,-14.91z"/>
    <path class="fil0" d="M4332.54 8702.48c0,-4.36 3.53,-7.85 7.85,-7.85 4.36,0 7.85,3.53 7.85,7.85 0,4.36 -3.53,7.85 -7.85,7.85 -4.36,0 -7.85,-3.53 -7.85,-7.85z"/>
    <path class="fil0" d="M2531.54 9423.42c0,-2.79 2.27,-5.06 5.06,-5.06 2.79,0 5.06,2.27 5.06,5.06 0,2.79 -2.27,5.06 -5.06,5.06 -2.79,0 -5.06,-2.27 -5.06,-5.06z"/>
    <path class="fil2" d="M1007.54 7845.87l5.36 20.98c0.7,3.01 4.97,3.05 5.8,0.04l5.67 -20.89c0.31,-1.05 1.09,-1.87 2.18,-2.14l20.98 -5.32c2.96,-0.78 2.96,-5.02 0,-5.84l-20.85 -5.71c-1.09,-0.31 -1.87,-1.13 -2.14,-2.18l-5.36 -20.98c-0.78,-3.01 -5.02,-3.05 -5.8,-0.04l-5.76 20.89c-0.22,1.05 -1.09,1.87 -2.14,2.14l-20.98 5.32c-2.96,0.74 -3.05,5.02 -0.09,5.8l20.93 5.71c1,0.26 1.87,1.13 2.14,2.18l0.05 0.04z"/>
    <path class="fil2" d="M2951.28 10628.98l5.32 20.98c0.74,3.01 5.02,3.05 5.8,0.04l5.71 -20.89c0.31,-1.05 1.09,-1.87 2.18,-2.14l20.98 -5.32c3.01,-0.74 3.05,-5.02 0.04,-5.8l-20.89 -5.71c-1.05,-0.26 -1.87,-1.09 -2.09,-2.18l-5.32 -20.98c-0.74,-3.01 -5.02,-3.05 -5.8,-0.04l-5.71 20.89c-0.26,1.05 -1.09,1.87 -2.18,2.14l-20.98 5.32c-3.01,0.74 -3.05,5.02 -0.04,5.8l20.89 5.71c1.05,0.26 1.87,1.09 2.14,2.18l-0.04 0z"/>
    <path class="fil2" d="M983.77 10535.97l4.58 17.92c0.61,2.57 4.32,2.57 4.97,0.04l4.88 -17.84c0.22,-0.87 0.96,-1.57 1.87,-1.79l17.92 -4.54c2.53,-0.65 2.62,-4.27 0,-4.97l-17.84 -4.88c-0.87,-0.22 -1.57,-0.96 -1.79,-1.83l-4.49 -17.92c-0.7,-2.57 -4.32,-2.57 -5.02,-0.04l-4.8 17.84c-0.31,0.92 -1,1.61 -1.87,1.83l-17.92 4.54c-2.53,0.65 -2.57,4.27 -0.09,4.97l17.84 4.88c0.96,0.22 1.66,0.96 1.83,1.83l-0.09 -0.04z"/>
    <path class="fil2" d="M55.91 10630.34l4.58 17.92c0.61,2.57 4.32,2.57 4.97,0.04l4.88 -17.84c0.22,-0.87 0.96,-1.57 1.87,-1.83l17.92 -4.54c2.53,-0.65 2.57,-4.27 0,-4.97l-17.84 -4.88c-0.87,-0.22 -1.57,-0.96 -1.83,-1.83l-4.49 -17.92c-0.7,-2.57 -4.32,-2.62 -5.02,-0.04l-4.8 17.84c-0.31,0.92 -1,1.61 -1.87,1.83l-17.92 4.54c-2.53,0.65 -2.62,4.27 -0.09,4.97l17.84 4.88c0.96,0.22 1.66,0.96 1.83,1.83l-0.04 0z"/>
    <path class="fil2" d="M4264.04 10348.93l4.54 17.92c0.65,2.57 4.27,2.62 4.97,0.04l4.88 -17.84c0.26,-0.87 0.96,-1.57 1.87,-1.79l17.92 -4.54c2.57,-0.65 2.57,-4.27 0.04,-4.97l-17.84 -4.88c-0.87,-0.26 -1.57,-0.96 -1.83,-1.87l-4.54 -17.92c-0.65,-2.57 -4.27,-2.57 -4.97,-0.04l-4.88 17.84c-0.26,0.92 -0.96,1.57 -1.87,1.83l-17.92 4.54c-2.57,0.65 -2.57,4.27 -0.04,4.97l17.84 4.88c0.92,0.26 1.57,0.96 1.83,1.83l0 -0z"/>
    <path class="fil2" d="M5073.94 7879.84l4.54 17.92c0.65,2.57 4.27,2.57 4.97,0.04l4.88 -17.84c0.26,-0.92 0.96,-1.57 1.87,-1.79l17.92 -4.54c2.57,-0.65 2.57,-4.27 0.04,-4.97l-17.84 -4.88c-0.87,-0.26 -1.57,-0.96 -1.83,-1.87l-4.54 -17.92c-0.65,-2.57 -4.27,-2.57 -4.97,-0.04l-4.88 17.84c-0.26,0.87 -0.96,1.57 -1.87,1.83l-17.92 4.54c-2.57,0.65 -2.62,4.27 -0.04,4.97l17.84 4.88c0.92,0.26 1.57,0.96 1.83,1.87l0 -0.04z"/>
    <path class="fil1" d="M3697.25 9517.48l0.74 0.48c0.7,0.48 1.4,0.96 2.09,1.44l0.57 0.39 1.66 1.18 0.7 0.52c0.65,0.48 1.31,1 1.96,1.53l0.7 0.57 1.53 1.22 0.61 0.48c0.61,0.52 1.22,1 1.79,1.53l0.83 0.74 1.35 1.22 1.09 1 1.22 1.13 0.87 0.83c0.57,0.52 1.09,1.05 1.61,1.57l0.65 0.65 1.26 1.26 0.7 0.74c0.52,0.57 1.05,1.13 1.57,1.7l0.7 0.74 1.4 1.57 0.31 0.31 0.04 0.04 0.22 0.26 1.35 1.61 0.78 0.92 1.44 1.79 0.52 0.65 1.13 1.48 0.61 0.78c0.48,0.65 0.96,1.26 1.4,1.92l0.52 0.74 1.09 1.61 0.7 1.05 1.05 1.61 0.61 0.96 1.09 1.79 0.61 1 0.87 1.48 0.52 0.92c0.39,0.65 0.74,1.31 1.13,2.01l0.57 1.09 0.78 1.44 0.44 0.87 1.05 2.14 0.48 0.96 0.78 1.7 0.57 1.22 0.83 1.92 0.31 0.7c0.35,0.78 0.65,1.57 0.96,2.35l0.31 0.78c0.26,0.7 0.57,1.44 0.83,2.14l0.17 0.48c0.31,0.83 0.61,1.66 0.87,2.53l0.26 0.78c0.26,0.78 0.52,1.61 0.78,2.4l0.04 0.17 0.04 0.09c0.26,0.87 0.52,1.75 0.78,2.62l0.22 0.74c0.22,0.83 0.48,1.7 0.7,2.57l0.17 0.61 0.52 2.14 0.17 0.78c0.17,0.87 0.39,1.7 0.57,2.57l0.13 0.74c0.17,0.78 0.31,1.57 0.44,2.35l0.09 0.52c0.17,0.92 0.31,1.83 0.44,2.75l0.09 0.61c0.26,1.87 0.52,3.75 0.74,5.67l0.09 0.87c0.09,0.92 0.17,1.83 0.26,2.79l0.04 0.44c0.09,0.92 0.13,1.83 0.17,2.75l0.04 0.44c0.04,0.96 0.09,1.92 0.13,2.92l0 0.7c0.04,0.96 0.04,1.96 0.04,2.96m-0.17 6.67l0 0.04c-0.22,3.97 -0.61,7.85 -1.13,11.73 -3.18,-2.09 -6.67,-4.49 -10.47,-7.24 -41.3,-29.48 -55.03,-39.33 -45.22,-62.93 7.59,-18.18 -7.59,-45.66 -1.05,-56.43l0.48 0.31"/>
   </g>
   <g id="_2467410387216_2">
    <path class="fil0" d="M3537.73 14336.1c0,-7.06 5.71,-12.78 12.78,-12.78 7.06,0 12.78,5.71 12.78,12.78 0,7.06 -5.71,12.78 -12.78,12.78 -7.06,0 -12.78,-5.71 -12.78,-12.78z"/>
    <path class="fil0" d="M5023.88 14202.44c0,-7.06 5.71,-12.78 12.78,-12.78 7.06,0 12.78,5.71 12.78,12.78 0,7.06 -5.71,12.78 -12.78,12.78 -7.06,0 -12.78,-5.71 -12.78,-12.78z"/>
    <path class="fil0" d="M1852.03 13952.64c0,-6.76 5.49,-12.25 12.25,-12.25 6.8,0 12.25,5.49 12.25,12.25 0,6.76 -5.49,12.25 -12.25,12.25 -6.76,0 -12.25,-5.49 -12.25,-12.25z"/>
    <path class="fil0" d="M1369.71 14351.01c0,-8.24 6.67,-14.91 14.96,-14.91 8.2,0 14.87,6.67 14.87,14.91 0,8.24 -6.67,14.91 -14.87,14.91 -8.24,0 -14.96,-6.67 -14.96,-14.91z"/>
    <path class="fil0" d="M1221.36 14375.13c0,-5.06 4.1,-9.2 9.11,-9.2 5.1,0 9.2,4.1 9.2,9.2 0,5.06 -4.1,9.16 -9.2,9.16 -5.02,0 -9.11,-4.1 -9.11,-9.16z"/>
    <path class="fil0" d="M2210.8 13284.08c0,-3.97 3.23,-7.2 7.2,-7.2 3.97,0 7.2,3.23 7.2,7.2 0,3.97 -3.23,7.2 -7.2,7.2 -3.97,0 -7.2,-3.23 -7.2,-7.2z"/>
    <path class="fil0" d="M1957.82 13365.98c0,-3.62 2.92,-6.54 6.54,-6.54 3.62,0 6.54,2.92 6.54,6.54 0,3.62 -2.92,6.54 -6.54,6.54 -3.62,0 -6.54,-2.92 -6.54,-6.54z"/>
    <path class="fil0" d="M2805.75 13395.46c0,-6.15 4.97,-11.12 11.12,-11.12 6.15,0 11.16,4.97 11.16,11.12 0,6.15 -5.02,11.16 -11.16,11.16 -6.15,0 -11.12,-4.97 -11.12,-11.16z"/>
    <path class="fil0" d="M3218.6 13365.98c0,-3.62 2.92,-6.54 6.54,-6.54 3.62,0 6.54,2.92 6.54,6.54 0,3.62 -2.92,6.54 -6.54,6.54 -3.62,0 -6.54,-2.92 -6.54,-6.54z"/>
    <path class="fil0" d="M3212.06 13666.75c0,-5.41 4.4,-9.81 9.81,-9.81 5.41,0 9.81,4.4 9.81,9.81 0,5.41 -4.4,9.81 -9.81,9.81 -5.41,0 -9.81,-4.4 -9.81,-9.81z"/>
    <path class="fil0" d="M3907.75 13238.94c0,-2.84 2.31,-5.15 5.15,-5.15 2.84,0 5.15,2.31 5.15,5.15 0,2.84 -2.31,5.15 -5.15,5.15 -2.84,0 -5.15,-2.31 -5.15,-5.15z"/>
    <path class="fil0" d="M3812.94 13401.04c0,-3.05 2.49,-5.58 5.58,-5.58 3.1,0 5.58,2.49 5.58,5.58 0,3.1 -2.49,5.58 -5.58,5.58 -3.05,0 -5.58,-2.49 -5.58,-5.58z"/>
    <path class="fil0" d="M4177.91 13486.55c0,-2.18 1.75,-3.93 3.93,-3.93 2.18,0 3.93,1.75 3.93,3.93 0,2.18 -1.79,3.93 -3.93,3.93 -2.18,0 -3.93,-1.75 -3.93,-3.93z"/>
    <path class="fil0" d="M4833.22 13452.5c0,-2.18 1.75,-3.93 3.93,-3.93 2.18,0 3.93,1.75 3.93,3.93 0,2.18 -1.75,3.93 -3.93,3.93 -2.18,0 -3.93,-1.75 -3.93,-3.93z"/>
    <path class="fil0" d="M4185.8 13118.28c0,-4.36 3.53,-7.85 7.85,-7.85 4.36,0 7.85,3.53 7.85,7.85 0,4.36 -3.53,7.85 -7.85,7.85 -4.36,0 -7.85,-3.53 -7.85,-7.85z"/>
    <path class="fil0" d="M4833.22 13236.24c0,-4.36 3.53,-7.85 7.85,-7.85 4.36,0 7.85,3.53 7.85,7.85 0,4.36 -3.53,7.85 -7.85,7.85 -4.36,0 -7.85,-3.53 -7.85,-7.85z"/>
    <path class="fil0" d="M5163.47 13786.67c0,-4.36 3.53,-7.85 7.85,-7.85 4.36,0 7.85,3.53 7.85,7.85 0,4.36 -3.53,7.85 -7.85,7.85 -4.36,0 -7.85,-3.53 -7.85,-7.85z"/>
    <path class="fil0" d="M3241.19 12938.39c0,-10.68 8.68,-19.32 19.32,-19.32 10.68,0 19.32,8.64 19.32,19.32 0,10.68 -8.68,19.32 -19.32,19.32 -10.68,0 -19.32,-8.64 -19.32,-19.32z"/>
    <path class="fil0" d="M4507.2 12812.58c0,-10.68 8.68,-19.32 19.32,-19.32 10.68,0 19.32,8.64 19.32,19.32 0,10.68 -8.68,19.32 -19.32,19.32 -10.68,0 -19.32,-8.64 -19.32,-19.32z"/>
    <path class="fil0" d="M1238.32 13175.27c0,-3.27 2.66,-5.89 5.89,-5.89 3.31,0 5.89,2.66 5.89,5.89 0,3.27 -2.57,5.89 -5.89,5.89 -3.23,0 -5.89,-2.66 -5.89,-5.89z"/>
    <path class="fil0" d="M864.98 13724.88c0,-16.61 13.43,-30.09 30.05,-30.09 16.66,0 30.13,13.47 30.13,30.09 0,16.61 -13.43,30.09 -30.13,30.09 -16.57,0 -30.05,-13.47 -30.05,-30.09z"/>
    <path class="fil0" d="M-0 12568.98c0,-16.61 13.43,-30.09 30.05,-30.09 16.66,0 30.13,13.47 30.13,30.09 0,16.61 -13.43,30.09 -30.13,30.09 -16.57,0 -30.05,-13.47 -30.05,-30.09z"/>
    <path class="fil0" d="M804.58 13095.99c0,-7.98 6.46,-14.43 14.39,-14.43 7.94,0 14.39,6.46 14.39,14.43 0,7.94 -6.46,14.43 -14.39,14.43 -7.94,0 -14.39,-6.46 -14.39,-14.43z"/>
    <path class="fil0" d="M191.22 13795.83c0,-7.94 6.46,-14.39 14.39,-14.39 7.94,0 14.39,6.46 14.39,14.39 0,7.98 -6.46,14.43 -14.39,14.43 -7.94,0 -14.39,-6.46 -14.39,-14.43z"/>
    <path class="fil0" d="M4948.52 12734.3c0,-7.98 6.46,-14.43 14.39,-14.43 7.98,0 14.43,6.46 14.43,14.43 0,7.94 -6.46,14.43 -14.43,14.43 -7.98,0 -14.39,-6.46 -14.39,-14.43z"/>
    <path class="fil0" d="M1643.27 12605.87c0,-3.62 3.01,-6.54 6.58,-6.54 3.62,0 6.54,2.92 6.54,6.54 0,3.62 -2.92,6.54 -6.54,6.54 -3.62,0 -6.58,-2.92 -6.58,-6.54z"/>
    <path class="fil0" d="M1495.13 12674.69c0,-1.79 1.4,-3.23 3.23,-3.23 1.83,0 3.23,1.44 3.23,3.23 0,1.79 -1.4,3.23 -3.23,3.23 -1.79,0 -3.23,-1.44 -3.23,-3.23z"/>
    <path class="fil0" d="M2084.99 12036.43c0,-13.74 11.16,-24.9 24.9,-24.9 13.74,0 24.9,11.16 24.9,24.9 0,13.74 -11.16,24.9 -24.9,24.9 -13.74,0 -24.9,-11.16 -24.9,-24.9z"/>
    <path class="fil0" d="M5088.77 10935.56c0,-13.74 11.16,-24.9 24.9,-24.9 13.74,0 24.9,11.16 24.9,24.9 0,13.74 -11.16,24.9 -24.9,24.9 -13.74,0 -24.9,-11.16 -24.9,-24.9z"/>
    <path class="fil0" d="M1838.95 12825.53c0,-3.62 2.92,-6.54 6.54,-6.54 3.62,0 6.54,2.92 6.54,6.54 0,3.62 -2.92,6.54 -6.54,6.54 -3.62,0 -6.54,-2.92 -6.54,-6.54z"/>
    <path class="fil0" d="M2849.01 12150.42c0,-2.88 2.35,-5.23 5.23,-5.23 2.88,0 5.23,2.35 5.23,5.23 0,2.88 -2.35,5.23 -5.23,5.23 -2.88,0 -5.23,-2.35 -5.23,-5.23z"/>
    <line class="fil1" x1="2833.31" y1="11990.55" x2="2833.31" y2= "11990.55" />
    <path class="fil0" d="M3357.49 12048.2c0,-7.24 5.89,-13.13 13.13,-13.13 7.24,0 13.13,5.89 13.13,13.13 0,7.24 -5.89,13.08 -13.13,13.08 -7.24,0 -13.13,-5.89 -13.13,-13.08z"/>
    <path class="fil0" d="M4662.84 11222.56c0,-7.24 5.84,-13.13 13.13,-13.13 7.24,0 13.13,5.89 13.13,13.13 0,7.24 -5.89,13.08 -13.13,13.08 -7.24,0 -13.13,-5.89 -13.13,-13.08z"/>
    <path class="fil0" d="M3023.32 12075.07c0,-3.97 3.23,-7.2 7.2,-7.2 3.97,0 7.2,3.23 7.2,7.2 0,3.97 -3.23,7.2 -7.2,7.2 -3.97,0 -7.2,-3.23 -7.2,-7.2z"/>
    <path class="fil0" d="M2890.96 11637.36c0,-4.36 3.53,-7.85 7.85,-7.85 4.36,0 7.85,3.53 7.85,7.85 0,4.36 -3.53,7.85 -7.85,7.85 -4.36,0 -7.85,-3.53 -7.85,-7.85z"/>
    <line class="fil1" x1="3378.47" y1="11899.45" x2="3378.47" y2= "11899.45" />
    <path class="fil0" d="M3918 11937.26c0,-9.55 7.72,-17.27 17.27,-17.27 9.55,0 17.27,7.72 17.27,17.27 0,9.55 -7.72,17.27 -17.27,17.27 -9.55,0 -17.27,-7.72 -17.27,-17.27z"/>
    <path class="fil0" d="M3683.86 12073.1c0,-5.41 4.4,-9.81 9.81,-9.81 5.41,0 9.81,4.4 9.81,9.81 0,5.41 -4.4,9.81 -9.81,9.81 -5.41,0 -9.81,-4.4 -9.81,-9.81z"/>
    <path class="fil0" d="M4189.73 11673.38c0,-6.15 4.97,-11.16 11.12,-11.16 6.15,0 11.12,4.97 11.12,11.16 0,6.15 -4.97,11.16 -11.12,11.16 -6.15,0 -11.12,-4.97 -11.12,-11.16z"/>
    <path class="fil0" d="M4173.55 11291.19c0,-4.49 3.62,-8.11 8.11,-8.11 4.45,0 8.11,3.62 8.11,8.11 0,4.45 -3.62,8.11 -8.11,8.11 -4.49,0 -8.11,-3.62 -8.11,-8.11z"/>
    <path class="fil0" d="M3935.35 11200.75c0,-7.11 5.76,-12.91 12.91,-12.91 7.11,0 12.91,5.76 12.91,12.91 0,7.11 -5.76,12.87 -12.91,12.87 -7.11,0 -12.91,-5.76 -12.91,-12.87z"/>
    <path class="fil0" d="M3910.37 11012.32c0,-2.09 1.7,-3.84 3.84,-3.84 2.14,0 3.84,1.7 3.84,3.84 0,2.09 -1.7,3.84 -3.84,3.84 -2.14,0 -3.84,-1.7 -3.84,-3.84z"/>
    <path class="fil0" d="M4225.09 10881.14c0,-14.48 11.73,-26.21 26.21,-26.21 14.48,0 26.21,11.73 26.21,26.21 0,14.48 -11.73,26.21 -26.21,26.21 -14.48,0 -26.21,-11.73 -26.21,-26.21z"/>
    <path class="fil0" d="M3155.67 11372.61c0,-10.12 8.2,-18.36 18.36,-18.36 10.12,0 18.36,8.2 18.36,18.36 0,10.12 -8.2,18.36 -18.36,18.36 -10.12,0 -18.36,-8.2 -18.36,-18.36z"/>
    <path class="fil0" d="M2943.73 11171.58c0,-2.09 1.7,-3.75 3.75,-3.75 2.09,0 3.75,1.7 3.75,3.75 0,2.05 -1.7,3.75 -3.75,3.75 -2.05,0 -3.75,-1.7 -3.75,-3.75z"/>
    <path class="fil0" d="M2391.64 11071.84c0,-9.77 7.94,-17.7 17.7,-17.7 9.77,0 17.7,7.94 17.7,17.7 0,9.77 -7.94,17.7 -17.7,17.7 -9.77,0 -17.7,-7.94 -17.7,-17.7z"/>
    <path class="fil0" d="M1737.64 11856.24c0,-6.5 5.28,-11.77 11.77,-11.77 6.54,0 11.77,5.28 11.77,11.77 0,6.5 -5.28,11.77 -11.77,11.77 -6.54,0 -11.77,-5.28 -11.77,-11.77z"/>
    <path class="fil0" d="M1411.62 12189.58c0,-6.24 5.1,-11.29 11.34,-11.29 6.28,0 11.34,5.06 11.34,11.29 0,6.24 -5.02,11.29 -11.34,11.29 -6.19,0 -11.34,-5.06 -11.34,-11.29z"/>
    <path class="fil0" d="M2099.38 11642.6c0,-2.88 2.35,-5.23 5.23,-5.23 2.88,0 5.23,2.35 5.23,5.23 0,2.88 -2.35,5.23 -5.23,5.23 -2.88,0 -5.23,-2.35 -5.23,-5.23z"/>
    <path class="fil0" d="M1770.43 11429.61c0,-1.79 1.48,-3.27 3.31,-3.27 1.79,0 3.23,1.48 3.23,3.27 0,1.79 -1.4,3.27 -3.23,3.27 -1.79,0 -3.31,-1.48 -3.31,-3.27z"/>
    <path class="fil0" d="M1151.84 11696.98c0,-6.15 5.02,-11.12 11.16,-11.12 6.15,0 11.16,4.97 11.16,11.12 0,6.15 -5.02,11.16 -11.16,11.16 -6.15,0 -11.16,-4.97 -11.16,-11.16z"/>
    <path class="fil0" d="M944.79 12036.43c0,-5.41 4.4,-9.81 9.81,-9.81 5.41,0 9.81,4.4 9.81,9.81 0,5.41 -4.4,9.81 -9.81,9.81 -5.41,0 -9.81,-4.4 -9.81,-9.81z"/>
    <path class="fil0" d="M307.84 12201.53c0,-5.41 4.4,-9.81 9.81,-9.81 5.41,0 9.81,4.4 9.81,9.81 0,5.41 -4.4,9.81 -9.81,9.81 -5.41,0 -9.81,-4.4 -9.81,-9.81z"/>
    <path class="fil0" d="M472.98 11871.28c0,-5.41 4.4,-9.81 9.81,-9.81 5.41,0 9.81,4.4 9.81,9.81 0,5.41 -4.4,9.81 -9.81,9.81 -5.41,0 -9.81,-4.4 -9.81,-9.81z"/>
    <path class="fil0" d="M32.62 13082.26c0,-5.45 4.4,-9.81 9.81,-9.81 5.41,0 9.81,4.4 9.81,9.81 0,5.41 -4.4,9.81 -9.81,9.81 -5.41,0 -9.81,-4.4 -9.81,-9.81z"/>
    <path class="fil0" d="M719.33 11503c0,-4.71 3.84,-8.5 8.59,-8.5 4.62,0 8.5,3.79 8.5,8.5 0,4.71 -3.84,8.5 -8.5,8.5 -4.71,0 -8.59,-3.79 -8.59,-8.5z"/>
    <path class="fil0" d="M35.24 10960.46c0,-4.71 3.84,-8.5 8.59,-8.5 4.62,0 8.5,3.84 8.5,8.5 0,4.71 -3.84,8.5 -8.5,8.5 -4.71,0 -8.59,-3.84 -8.59,-8.5z"/>
    <line class="fil1" x1="780.99" y1="11034.51" x2="780.99" y2= "11034.51" />
    <path class="fil0" d="M1466.26 10830.42c0,-2.7 2.18,-4.88 4.88,-4.88 2.66,0 4.88,2.18 4.88,4.88 0,2.7 -2.18,4.88 -4.88,4.88 -2.66,0 -4.88,-2.18 -4.88,-4.88z"/>
    <path class="fil0" d="M818.98 12629.2c0,-7.59 6.15,-13.78 13.78,-13.78 7.63,0 13.78,6.15 13.78,13.78 0,7.59 -6.15,13.78 -13.78,13.78 -7.63,0 -13.78,-6.15 -13.78,-13.78z"/>
    <path class="fil0" d="M756.83 14363.05c0,-6.63 5.41,-12.04 12.12,-12.04 6.58,0 12.04,5.41 12.04,12.04 0,6.67 -5.41,12.04 -12.04,12.04 -6.67,0 -12.12,-5.41 -12.12,-12.04z"/>
    <path class="fil0" d="M2112.5 14422.27c0,-6.54 5.28,-11.77 11.77,-11.77 6.5,0 11.77,5.28 11.77,11.77 0,6.5 -5.28,11.77 -11.77,11.77 -6.5,0 -11.77,-5.28 -11.77,-11.77z"/>
    <path class="fil0" d="M4271.32 14348.4c0,-6.8 5.49,-12.3 12.3,-12.3 6.8,0 12.3,5.49 12.3,12.3 0,6.76 -5.49,12.3 -12.3,12.3 -6.8,0 -12.3,-5.49 -12.3,-12.3z"/>
    <path class="fil0" d="M3783.12 12825.53c0,-8.24 6.67,-14.91 14.91,-14.91 8.24,0 14.91,6.67 14.91,14.91 0,8.24 -6.67,14.91 -14.91,14.91 -8.24,0 -14.91,-6.67 -14.91,-14.91z"/>
    <path class="fil0" d="M4766.02 12070.66c0,-8.24 6.67,-14.91 14.91,-14.91 8.24,0 14.91,6.67 14.91,14.91 0,8.24 -6.67,14.91 -14.91,14.91 -8.24,0 -14.91,-6.67 -14.91,-14.91z"/>
    <path class="fil0" d="M4332.54 12310.99c0,-4.36 3.53,-7.85 7.85,-7.85 4.36,0 7.85,3.53 7.85,7.85 0,4.36 -3.53,7.85 -7.85,7.85 -4.36,0 -7.85,-3.53 -7.85,-7.85z"/>
    <path class="fil0" d="M2531.54 13031.93c0,-2.79 2.27,-5.06 5.06,-5.06 2.79,0 5.06,2.27 5.06,5.06 0,2.79 -2.27,5.06 -5.06,5.06 -2.79,0 -5.06,-2.27 -5.06,-5.06z"/>
    <path class="fil2" d="M1007.54 11454.38l5.36 20.98c0.7,3.01 4.97,3.05 5.8,0.04l5.67 -20.89c0.31,-1.05 1.09,-1.87 2.18,-2.14l20.98 -5.32c2.96,-0.78 2.96,-5.02 0,-5.84l-20.85 -5.71c-1.09,-0.31 -1.87,-1.13 -2.14,-2.18l-5.36 -20.98c-0.78,-3.01 -5.02,-3.05 -5.8,-0.04l-5.76 20.89c-0.22,1.05 -1.09,1.87 -2.14,2.14l-20.98 5.32c-2.96,0.74 -3.05,5.02 -0.09,5.8l20.93 5.71c1,0.26 1.87,1.13 2.14,2.18l0.05 0.04z"/>
    <path class="fil2" d="M2951.28 14237.5l5.32 20.98c0.74,3.01 5.02,3.05 5.8,0.04l5.71 -20.89c0.31,-1.05 1.09,-1.87 2.18,-2.14l20.98 -5.32c3.01,-0.74 3.05,-5.02 0.04,-5.8l-20.89 -5.71c-1.05,-0.26 -1.87,-1.09 -2.09,-2.18l-5.32 -20.98c-0.74,-3.01 -5.02,-3.05 -5.8,-0.04l-5.71 20.89c-0.26,1.05 -1.09,1.87 -2.18,2.14l-20.98 5.32c-3.01,0.74 -3.05,5.02 -0.04,5.8l20.89 5.71c1.05,0.26 1.87,1.09 2.14,2.18l-0.04 0z"/>
    <path class="fil2" d="M983.77 14144.48l4.58 17.92c0.61,2.57 4.32,2.57 4.97,0.04l4.88 -17.84c0.22,-0.87 0.96,-1.57 1.87,-1.79l17.92 -4.54c2.53,-0.65 2.62,-4.27 0,-4.97l-17.84 -4.88c-0.87,-0.22 -1.57,-0.96 -1.79,-1.83l-4.49 -17.92c-0.7,-2.57 -4.32,-2.57 -5.02,-0.04l-4.8 17.84c-0.31,0.92 -1,1.61 -1.87,1.83l-17.92 4.54c-2.53,0.65 -2.57,4.27 -0.09,4.97l17.84 4.88c0.96,0.22 1.66,0.96 1.83,1.83l-0.09 -0.04z"/>
    <path class="fil2" d="M55.91 14238.85l4.58 17.92c0.61,2.57 4.32,2.57 4.97,0.04l4.88 -17.84c0.22,-0.87 0.96,-1.57 1.87,-1.83l17.92 -4.54c2.53,-0.65 2.57,-4.27 0,-4.97l-17.84 -4.88c-0.87,-0.22 -1.57,-0.96 -1.83,-1.83l-4.49 -17.92c-0.7,-2.57 -4.32,-2.62 -5.02,-0.04l-4.8 17.84c-0.31,0.92 -1,1.61 -1.87,1.83l-17.92 4.54c-2.53,0.65 -2.62,4.27 -0.09,4.97l17.84 4.88c0.96,0.22 1.66,0.96 1.83,1.83l-0.04 0z"/>
    <path class="fil2" d="M4264.04 13957.44l4.54 17.92c0.65,2.57 4.27,2.62 4.97,0.04l4.88 -17.84c0.26,-0.87 0.96,-1.57 1.87,-1.79l17.92 -4.54c2.57,-0.65 2.57,-4.27 0.04,-4.97l-17.84 -4.88c-0.87,-0.26 -1.57,-0.96 -1.83,-1.87l-4.54 -17.92c-0.65,-2.57 -4.27,-2.57 -4.97,-0.04l-4.88 17.84c-0.26,0.92 -0.96,1.57 -1.87,1.83l-17.92 4.54c-2.57,0.65 -2.57,4.27 -0.04,4.97l17.84 4.88c0.92,0.26 1.57,0.96 1.83,1.83l0 -0z"/>
    <path class="fil2" d="M5073.94 11488.35l4.54 17.92c0.65,2.57 4.27,2.57 4.97,0.04l4.88 -17.84c0.26,-0.92 0.96,-1.57 1.87,-1.79l17.92 -4.54c2.57,-0.65 2.57,-4.27 0.04,-4.97l-17.84 -4.88c-0.87,-0.26 -1.57,-0.96 -1.83,-1.87l-4.54 -17.92c-0.65,-2.57 -4.27,-2.57 -4.97,-0.04l-4.88 17.84c-0.26,0.87 -0.96,1.57 -1.87,1.83l-17.92 4.54c-2.57,0.65 -2.62,4.27 -0.04,4.97l17.84 4.88c0.92,0.26 1.57,0.96 1.83,1.87l0 -0.04z"/>
    <path class="fil1" d="M3697.25 13126l0.74 0.48c0.7,0.48 1.4,0.96 2.09,1.44l0.57 0.39 1.66 1.18 0.7 0.52c0.65,0.48 1.31,1 1.96,1.53l0.7 0.57 1.53 1.22 0.61 0.48c0.61,0.52 1.22,1 1.79,1.53l0.83 0.74 1.35 1.22 1.09 1 1.22 1.13 0.87 0.83c0.57,0.52 1.09,1.05 1.61,1.57l0.65 0.65 1.26 1.26 0.7 0.74c0.52,0.57 1.05,1.13 1.57,1.7l0.7 0.74 1.4 1.57 0.31 0.31 0.04 0.04 0.22 0.26 1.35 1.61 0.78 0.92 1.44 1.79 0.52 0.65 1.13 1.48 0.61 0.78c0.48,0.65 0.96,1.26 1.4,1.92l0.52 0.74 1.09 1.61 0.7 1.05 1.05 1.61 0.61 0.96 1.09 1.79 0.61 1 0.87 1.48 0.52 0.92c0.39,0.65 0.74,1.31 1.13,2.01l0.57 1.09 0.78 1.44 0.44 0.87 1.05 2.14 0.48 0.96 0.78 1.7 0.57 1.22 0.83 1.92 0.31 0.7c0.35,0.78 0.65,1.57 0.96,2.35l0.31 0.78c0.26,0.7 0.57,1.44 0.83,2.14l0.17 0.48c0.31,0.83 0.61,1.66 0.87,2.53l0.26 0.78c0.26,0.78 0.52,1.61 0.78,2.4l0.04 0.17 0.04 0.09c0.26,0.87 0.52,1.75 0.78,2.62l0.22 0.74c0.22,0.83 0.48,1.7 0.7,2.57l0.17 0.61 0.52 2.14 0.17 0.78c0.17,0.87 0.39,1.7 0.57,2.57l0.13 0.74c0.17,0.78 0.31,1.57 0.44,2.35l0.09 0.52c0.17,0.92 0.31,1.83 0.44,2.75l0.09 0.61c0.26,1.87 0.52,3.75 0.74,5.67l0.09 0.87c0.09,0.92 0.17,1.83 0.26,2.79l0.04 0.44c0.09,0.92 0.13,1.83 0.17,2.75l0.04 0.44c0.04,0.96 0.09,1.92 0.13,2.92l0 0.7c0.04,0.96 0.04,1.96 0.04,2.96m-0.17 6.67l0 0.04c-0.22,3.97 -0.61,7.85 -1.13,11.73 -3.18,-2.09 -6.67,-4.49 -10.47,-7.24 -41.3,-29.48 -55.03,-39.33 -45.22,-62.93 7.59,-18.18 -7.59,-45.66 -1.05,-56.43l0.48 0.31"/>
   </g>
   <g id="_2467410387216_3">
    <path class="fil0" d="M3537.73 17944.61c0,-7.06 5.71,-12.78 12.78,-12.78 7.06,0 12.78,5.71 12.78,12.78 0,7.06 -5.71,12.78 -12.78,12.78 -7.06,0 -12.78,-5.71 -12.78,-12.78z"/>
    <path class="fil0" d="M5023.88 17810.95c0,-7.06 5.71,-12.78 12.78,-12.78 7.06,0 12.78,5.71 12.78,12.78 0,7.06 -5.71,12.78 -12.78,12.78 -7.06,0 -12.78,-5.71 -12.78,-12.78z"/>
    <path class="fil0" d="M1852.03 17561.16c0,-6.76 5.49,-12.25 12.25,-12.25 6.8,0 12.25,5.49 12.25,12.25 0,6.76 -5.49,12.25 -12.25,12.25 -6.76,0 -12.25,-5.49 -12.25,-12.25z"/>
    <path class="fil0" d="M1369.71 17959.53c0,-8.24 6.67,-14.91 14.96,-14.91 8.2,0 14.87,6.67 14.87,14.91 0,8.24 -6.67,14.91 -14.87,14.91 -8.24,0 -14.96,-6.67 -14.96,-14.91z"/>
    <path class="fil0" d="M1221.36 17983.64c0,-5.06 4.1,-9.2 9.11,-9.2 5.1,0 9.2,4.1 9.2,9.2 0,5.06 -4.1,9.16 -9.2,9.16 -5.02,0 -9.11,-4.1 -9.11,-9.16z"/>
    <path class="fil0" d="M2210.8 16892.59c0,-3.97 3.23,-7.2 7.2,-7.2 3.97,0 7.2,3.23 7.2,7.2 0,3.97 -3.23,7.2 -7.2,7.2 -3.97,0 -7.2,-3.23 -7.2,-7.2z"/>
    <path class="fil0" d="M1957.82 16974.49c0,-3.62 2.92,-6.54 6.54,-6.54 3.62,0 6.54,2.92 6.54,6.54 0,3.62 -2.92,6.54 -6.54,6.54 -3.62,0 -6.54,-2.92 -6.54,-6.54z"/>
    <path class="fil0" d="M2805.75 17003.97c0,-6.15 4.97,-11.12 11.12,-11.12 6.15,0 11.16,4.97 11.16,11.12 0,6.15 -5.02,11.16 -11.16,11.16 -6.15,0 -11.12,-4.97 -11.12,-11.16z"/>
    <path class="fil0" d="M3218.6 16974.49c0,-3.62 2.92,-6.54 6.54,-6.54 3.62,0 6.54,2.92 6.54,6.54 0,3.62 -2.92,6.54 -6.54,6.54 -3.62,0 -6.54,-2.92 -6.54,-6.54z"/>
    <path class="fil0" d="M3212.06 17275.26c0,-5.41 4.4,-9.81 9.81,-9.81 5.41,0 9.81,4.4 9.81,9.81 0,5.41 -4.4,9.81 -9.81,9.81 -5.41,0 -9.81,-4.4 -9.81,-9.81z"/>
    <path class="fil0" d="M3907.75 16847.46c0,-2.84 2.31,-5.15 5.15,-5.15 2.84,0 5.15,2.31 5.15,5.15 0,2.84 -2.31,5.15 -5.15,5.15 -2.84,0 -5.15,-2.31 -5.15,-5.15z"/>
    <path class="fil0" d="M3812.94 17009.55c0,-3.05 2.49,-5.58 5.58,-5.58 3.1,0 5.58,2.49 5.58,5.58 0,3.1 -2.49,5.58 -5.58,5.58 -3.05,0 -5.58,-2.49 -5.58,-5.58z"/>
    <path class="fil0" d="M4177.91 17095.07c0,-2.18 1.75,-3.93 3.93,-3.93 2.18,0 3.93,1.75 3.93,3.93 0,2.18 -1.79,3.93 -3.93,3.93 -2.18,0 -3.93,-1.75 -3.93,-3.93z"/>
    <path class="fil0" d="M4833.22 17061.01c0,-2.18 1.75,-3.93 3.93,-3.93 2.18,0 3.93,1.75 3.93,3.93 0,2.18 -1.75,3.93 -3.93,3.93 -2.18,0 -3.93,-1.75 -3.93,-3.93z"/>
    <path class="fil0" d="M4185.8 16726.79c0,-4.36 3.53,-7.85 7.85,-7.85 4.36,0 7.85,3.53 7.85,7.85 0,4.36 -3.53,7.85 -7.85,7.85 -4.36,0 -7.85,-3.53 -7.85,-7.85z"/>
    <path class="fil0" d="M4833.22 16844.75c0,-4.36 3.53,-7.85 7.85,-7.85 4.36,0 7.85,3.53 7.85,7.85 0,4.36 -3.53,7.85 -7.85,7.85 -4.36,0 -7.85,-3.53 -7.85,-7.85z"/>
    <path class="fil0" d="M5163.47 17395.18c0,-4.36 3.53,-7.85 7.85,-7.85 4.36,0 7.85,3.53 7.85,7.85 0,4.36 -3.53,7.85 -7.85,7.85 -4.36,0 -7.85,-3.53 -7.85,-7.85z"/>
    <path class="fil0" d="M3241.19 16546.9c0,-10.68 8.68,-19.32 19.32,-19.32 10.68,0 19.32,8.64 19.32,19.32 0,10.68 -8.68,19.32 -19.32,19.32 -10.68,0 -19.32,-8.64 -19.32,-19.32z"/>
    <path class="fil0" d="M4507.2 16421.09c0,-10.68 8.68,-19.32 19.32,-19.32 10.68,0 19.32,8.64 19.32,19.32 0,10.68 -8.68,19.32 -19.32,19.32 -10.68,0 -19.32,-8.64 -19.32,-19.32z"/>
    <path class="fil0" d="M1238.32 16783.79c0,-3.27 2.66,-5.89 5.89,-5.89 3.31,0 5.89,2.66 5.89,5.89 0,3.27 -2.57,5.89 -5.89,5.89 -3.23,0 -5.89,-2.66 -5.89,-5.89z"/>
    <path class="fil0" d="M864.98 17333.39c0,-16.61 13.43,-30.09 30.05,-30.09 16.66,0 30.13,13.47 30.13,30.09 0,16.61 -13.43,30.09 -30.13,30.09 -16.57,0 -30.05,-13.47 -30.05,-30.09z"/>
    <path class="fil0" d="M-0 16177.49c0,-16.61 13.43,-30.09 30.05,-30.09 16.66,0 30.13,13.47 30.13,30.09 0,16.61 -13.43,30.09 -30.13,30.09 -16.57,0 -30.05,-13.47 -30.05,-30.09z"/>
    <path class="fil0" d="M804.58 16704.51c0,-7.98 6.46,-14.43 14.39,-14.43 7.94,0 14.39,6.46 14.39,14.43 0,7.94 -6.46,14.43 -14.39,14.43 -7.94,0 -14.39,-6.46 -14.39,-14.43z"/>
    <path class="fil0" d="M191.22 17404.34c0,-7.94 6.46,-14.39 14.39,-14.39 7.94,0 14.39,6.46 14.39,14.39 0,7.98 -6.46,14.43 -14.39,14.43 -7.94,0 -14.39,-6.46 -14.39,-14.43z"/>
    <path class="fil0" d="M4948.52 16342.81c0,-7.98 6.46,-14.43 14.39,-14.43 7.98,0 14.43,6.46 14.43,14.43 0,7.94 -6.46,14.43 -14.43,14.43 -7.98,0 -14.39,-6.46 -14.39,-14.43z"/>
    <path class="fil0" d="M1643.27 16214.39c0,-3.62 3.01,-6.54 6.58,-6.54 3.62,0 6.54,2.92 6.54,6.54 0,3.62 -2.92,6.54 -6.54,6.54 -3.62,0 -6.58,-2.92 -6.58,-6.54z"/>
    <path class="fil0" d="M1495.13 16283.2c0,-1.79 1.4,-3.23 3.23,-3.23 1.83,0 3.23,1.44 3.23,3.23 0,1.79 -1.4,3.23 -3.23,3.23 -1.79,0 -3.23,-1.44 -3.23,-3.23z"/>
    <path class="fil0" d="M2084.99 15644.94c0,-13.74 11.16,-24.9 24.9,-24.9 13.74,0 24.9,11.16 24.9,24.9 0,13.74 -11.16,24.9 -24.9,24.9 -13.74,0 -24.9,-11.16 -24.9,-24.9z"/>
    <path class="fil0" d="M5088.77 14544.08c0,-13.74 11.16,-24.9 24.9,-24.9 13.74,0 24.9,11.16 24.9,24.9 0,13.74 -11.16,24.9 -24.9,24.9 -13.74,0 -24.9,-11.16 -24.9,-24.9z"/>
    <path class="fil0" d="M1838.95 16434.04c0,-3.62 2.92,-6.54 6.54,-6.54 3.62,0 6.54,2.92 6.54,6.54 0,3.62 -2.92,6.54 -6.54,6.54 -3.62,0 -6.54,-2.92 -6.54,-6.54z"/>
    <path class="fil0" d="M2849.01 15758.94c0,-2.88 2.35,-5.23 5.23,-5.23 2.88,0 5.23,2.35 5.23,5.23 0,2.88 -2.35,5.23 -5.23,5.23 -2.88,0 -5.23,-2.35 -5.23,-5.23z"/>
    <line class="fil1" x1="2833.31" y1="15599.07" x2="2833.31" y2= "15599.07" />
    <path class="fil0" d="M3357.49 15656.72c0,-7.24 5.89,-13.13 13.13,-13.13 7.24,0 13.13,5.89 13.13,13.13 0,7.24 -5.89,13.08 -13.13,13.08 -7.24,0 -13.13,-5.89 -13.13,-13.08z"/>
    <path class="fil0" d="M4662.84 14831.07c0,-7.24 5.84,-13.13 13.13,-13.13 7.24,0 13.13,5.89 13.13,13.13 0,7.24 -5.89,13.08 -13.13,13.08 -7.24,0 -13.13,-5.89 -13.13,-13.08z"/>
    <path class="fil0" d="M3023.32 15683.58c0,-3.97 3.23,-7.2 7.2,-7.2 3.97,0 7.2,3.23 7.2,7.2 0,3.97 -3.23,7.2 -7.2,7.2 -3.97,0 -7.2,-3.23 -7.2,-7.2z"/>
    <path class="fil0" d="M2890.96 15245.88c0,-4.36 3.53,-7.85 7.85,-7.85 4.36,0 7.85,3.53 7.85,7.85 0,4.36 -3.53,7.85 -7.85,7.85 -4.36,0 -7.85,-3.53 -7.85,-7.85z"/>
    <line class="fil1" x1="3378.47" y1="15507.96" x2="3378.47" y2= "15507.96" />
    <path class="fil0" d="M3918 15545.77c0,-9.55 7.72,-17.27 17.27,-17.27 9.55,0 17.27,7.72 17.27,17.27 0,9.55 -7.72,17.27 -17.27,17.27 -9.55,0 -17.27,-7.72 -17.27,-17.27z"/>
    <path class="fil0" d="M3683.86 15681.62c0,-5.41 4.4,-9.81 9.81,-9.81 5.41,0 9.81,4.4 9.81,9.81 0,5.41 -4.4,9.81 -9.81,9.81 -5.41,0 -9.81,-4.4 -9.81,-9.81z"/>
    <path class="fil0" d="M4189.73 15281.9c0,-6.15 4.97,-11.16 11.12,-11.16 6.15,0 11.12,4.97 11.12,11.16 0,6.15 -4.97,11.16 -11.12,11.16 -6.15,0 -11.12,-4.97 -11.12,-11.16z"/>
    <path class="fil0" d="M4173.55 14899.71c0,-4.49 3.62,-8.11 8.11,-8.11 4.45,0 8.11,3.62 8.11,8.11 0,4.45 -3.62,8.11 -8.11,8.11 -4.49,0 -8.11,-3.62 -8.11,-8.11z"/>
    <path class="fil0" d="M3935.35 14809.26c0,-7.11 5.76,-12.91 12.91,-12.91 7.11,0 12.91,5.76 12.91,12.91 0,7.11 -5.76,12.87 -12.91,12.87 -7.11,0 -12.91,-5.76 -12.91,-12.87z"/>
    <path class="fil0" d="M3910.37 14620.83c0,-2.09 1.7,-3.84 3.84,-3.84 2.14,0 3.84,1.7 3.84,3.84 0,2.09 -1.7,3.84 -3.84,3.84 -2.14,0 -3.84,-1.7 -3.84,-3.84z"/>
    <path class="fil0" d="M4225.09 14489.65c0,-14.48 11.73,-26.21 26.21,-26.21 14.48,0 26.21,11.73 26.21,26.21 0,14.48 -11.73,26.21 -26.21,26.21 -14.48,0 -26.21,-11.73 -26.21,-26.21z"/>
    <path class="fil0" d="M3155.67 14981.13c0,-10.12 8.2,-18.36 18.36,-18.36 10.12,0 18.36,8.2 18.36,18.36 0,10.12 -8.2,18.36 -18.36,18.36 -10.12,0 -18.36,-8.2 -18.36,-18.36z"/>
    <path class="fil0" d="M2943.73 14780.09c0,-2.09 1.7,-3.75 3.75,-3.75 2.09,0 3.75,1.7 3.75,3.75 0,2.05 -1.7,3.75 -3.75,3.75 -2.05,0 -3.75,-1.7 -3.75,-3.75z"/>
    <path class="fil0" d="M2391.64 14680.36c0,-9.77 7.94,-17.7 17.7,-17.7 9.77,0 17.7,7.94 17.7,17.7 0,9.77 -7.94,17.7 -17.7,17.7 -9.77,0 -17.7,-7.94 -17.7,-17.7z"/>
    <path class="fil0" d="M1737.64 15464.75c0,-6.5 5.28,-11.77 11.77,-11.77 6.54,0 11.77,5.28 11.77,11.77 0,6.5 -5.28,11.77 -11.77,11.77 -6.54,0 -11.77,-5.28 -11.77,-11.77z"/>
    <path class="fil0" d="M1411.62 15798.1c0,-6.24 5.1,-11.29 11.34,-11.29 6.28,0 11.34,5.06 11.34,11.29 0,6.24 -5.02,11.29 -11.34,11.29 -6.19,0 -11.34,-5.06 -11.34,-11.29z"/>
    <path class="fil0" d="M2099.38 15251.11c0,-2.88 2.35,-5.23 5.23,-5.23 2.88,0 5.23,2.35 5.23,5.23 0,2.88 -2.35,5.23 -5.23,5.23 -2.88,0 -5.23,-2.35 -5.23,-5.23z"/>
    <path class="fil0" d="M1770.43 15038.12c0,-1.79 1.48,-3.27 3.31,-3.27 1.79,0 3.23,1.48 3.23,3.27 0,1.79 -1.4,3.27 -3.23,3.27 -1.79,0 -3.31,-1.48 -3.31,-3.27z"/>
    <path class="fil0" d="M1151.84 15305.49c0,-6.15 5.02,-11.12 11.16,-11.12 6.15,0 11.16,4.97 11.16,11.12 0,6.15 -5.02,11.16 -11.16,11.16 -6.15,0 -11.16,-4.97 -11.16,-11.16z"/>
    <path class="fil0" d="M944.79 15644.94c0,-5.41 4.4,-9.81 9.81,-9.81 5.41,0 9.81,4.4 9.81,9.81 0,5.41 -4.4,9.81 -9.81,9.81 -5.41,0 -9.81,-4.4 -9.81,-9.81z"/>
    <path class="fil0" d="M307.84 15810.04c0,-5.41 4.4,-9.81 9.81,-9.81 5.41,0 9.81,4.4 9.81,9.81 0,5.41 -4.4,9.81 -9.81,9.81 -5.41,0 -9.81,-4.4 -9.81,-9.81z"/>
    <path class="fil0" d="M472.98 15479.79c0,-5.41 4.4,-9.81 9.81,-9.81 5.41,0 9.81,4.4 9.81,9.81 0,5.41 -4.4,9.81 -9.81,9.81 -5.41,0 -9.81,-4.4 -9.81,-9.81z"/>
    <path class="fil0" d="M32.62 16690.77c0,-5.45 4.4,-9.81 9.81,-9.81 5.41,0 9.81,4.4 9.81,9.81 0,5.41 -4.4,9.81 -9.81,9.81 -5.41,0 -9.81,-4.4 -9.81,-9.81z"/>
    <path class="fil0" d="M719.33 15111.52c0,-4.71 3.84,-8.5 8.59,-8.5 4.62,0 8.5,3.79 8.5,8.5 0,4.71 -3.84,8.5 -8.5,8.5 -4.71,0 -8.59,-3.79 -8.59,-8.5z"/>
    <path class="fil0" d="M35.24 14568.98c0,-4.71 3.84,-8.5 8.59,-8.5 4.62,0 8.5,3.84 8.5,8.5 0,4.71 -3.84,8.5 -8.5,8.5 -4.71,0 -8.59,-3.84 -8.59,-8.5z"/>
    <line class="fil1" x1="780.99" y1="14643.03" x2="780.99" y2= "14643.03" />
    <path class="fil0" d="M1466.26 14438.94c0,-2.7 2.18,-4.88 4.88,-4.88 2.66,0 4.88,2.18 4.88,4.88 0,2.7 -2.18,4.88 -4.88,4.88 -2.66,0 -4.88,-2.18 -4.88,-4.88z"/>
    <path class="fil0" d="M818.98 16237.72c0,-7.59 6.15,-13.78 13.78,-13.78 7.63,0 13.78,6.15 13.78,13.78 0,7.59 -6.15,13.78 -13.78,13.78 -7.63,0 -13.78,-6.15 -13.78,-13.78z"/>
    <path class="fil0" d="M756.83 17971.56c0,-6.63 5.41,-12.04 12.12,-12.04 6.58,0 12.04,5.41 12.04,12.04 0,6.67 -5.41,12.04 -12.04,12.04 -6.67,0 -12.12,-5.41 -12.12,-12.04z"/>
    <path class="fil0" d="M2112.5 18030.78c0,-6.54 5.28,-11.77 11.77,-11.77 6.5,0 11.77,5.28 11.77,11.77 0,6.5 -5.28,11.77 -11.77,11.77 -6.5,0 -11.77,-5.28 -11.77,-11.77z"/>
    <path class="fil0" d="M4271.32 17956.91c0,-6.8 5.49,-12.3 12.3,-12.3 6.8,0 12.3,5.49 12.3,12.3 0,6.76 -5.49,12.3 -12.3,12.3 -6.8,0 -12.3,-5.49 -12.3,-12.3z"/>
    <path class="fil0" d="M3783.12 16434.04c0,-8.24 6.67,-14.91 14.91,-14.91 8.24,0 14.91,6.67 14.91,14.91 0,8.24 -6.67,14.91 -14.91,14.91 -8.24,0 -14.91,-6.67 -14.91,-14.91z"/>
    <path class="fil0" d="M4766.02 15679.17c0,-8.24 6.67,-14.91 14.91,-14.91 8.24,0 14.91,6.67 14.91,14.91 0,8.24 -6.67,14.91 -14.91,14.91 -8.24,0 -14.91,-6.67 -14.91,-14.91z"/>
    <path class="fil0" d="M4332.54 15919.5c0,-4.36 3.53,-7.85 7.85,-7.85 4.36,0 7.85,3.53 7.85,7.85 0,4.36 -3.53,7.85 -7.85,7.85 -4.36,0 -7.85,-3.53 -7.85,-7.85z"/>
    <path class="fil0" d="M2531.54 16640.45c0,-2.79 2.27,-5.06 5.06,-5.06 2.79,0 5.06,2.27 5.06,5.06 0,2.79 -2.27,5.06 -5.06,5.06 -2.79,0 -5.06,-2.27 -5.06,-5.06z"/>
    <path class="fil2" d="M1007.54 15062.89l5.36 20.98c0.7,3.01 4.97,3.05 5.8,0.04l5.67 -20.89c0.31,-1.05 1.09,-1.87 2.18,-2.14l20.98 -5.32c2.96,-0.78 2.96,-5.02 0,-5.84l-20.85 -5.71c-1.09,-0.31 -1.87,-1.13 -2.14,-2.18l-5.36 -20.98c-0.78,-3.01 -5.02,-3.05 -5.8,-0.04l-5.76 20.89c-0.22,1.05 -1.09,1.87 -2.14,2.14l-20.98 5.32c-2.96,0.74 -3.05,5.02 -0.09,5.8l20.93 5.71c1,0.26 1.87,1.13 2.14,2.18l0.05 0.04z"/>
    <path class="fil2" d="M2951.28 17846.01l5.32 20.98c0.74,3.01 5.02,3.05 5.8,0.04l5.71 -20.89c0.31,-1.05 1.09,-1.87 2.18,-2.14l20.98 -5.32c3.01,-0.74 3.05,-5.02 0.04,-5.8l-20.89 -5.71c-1.05,-0.26 -1.87,-1.09 -2.09,-2.18l-5.32 -20.98c-0.74,-3.01 -5.02,-3.05 -5.8,-0.04l-5.71 20.89c-0.26,1.05 -1.09,1.87 -2.18,2.14l-20.98 5.32c-3.01,0.74 -3.05,5.02 -0.04,5.8l20.89 5.71c1.05,0.26 1.87,1.09 2.14,2.18l-0.04 0z"/>
    <path class="fil2" d="M983.77 17752.99l4.58 17.92c0.61,2.57 4.32,2.57 4.97,0.04l4.88 -17.84c0.22,-0.87 0.96,-1.57 1.87,-1.79l17.92 -4.54c2.53,-0.65 2.62,-4.27 0,-4.97l-17.84 -4.88c-0.87,-0.22 -1.57,-0.96 -1.79,-1.83l-4.49 -17.92c-0.7,-2.57 -4.32,-2.57 -5.02,-0.04l-4.8 17.84c-0.31,0.92 -1,1.61 -1.87,1.83l-17.92 4.54c-2.53,0.65 -2.57,4.27 -0.09,4.97l17.84 4.88c0.96,0.22 1.66,0.96 1.83,1.83l-0.09 -0.04z"/>
    <path class="fil2" d="M55.91 17847.36l4.58 17.92c0.61,2.57 4.32,2.57 4.97,0.04l4.88 -17.84c0.22,-0.87 0.96,-1.57 1.87,-1.83l17.92 -4.54c2.53,-0.65 2.57,-4.27 0,-4.97l-17.84 -4.88c-0.87,-0.22 -1.57,-0.96 -1.83,-1.83l-4.49 -17.92c-0.7,-2.57 -4.32,-2.62 -5.02,-0.04l-4.8 17.84c-0.31,0.92 -1,1.61 -1.87,1.83l-17.92 4.54c-2.53,0.65 -2.62,4.27 -0.09,4.97l17.84 4.88c0.96,0.22 1.66,0.96 1.83,1.83l-0.04 0z"/>
    <path class="fil2" d="M4264.04 17565.95l4.54 17.92c0.65,2.57 4.27,2.62 4.97,0.04l4.88 -17.84c0.26,-0.87 0.96,-1.57 1.87,-1.79l17.92 -4.54c2.57,-0.65 2.57,-4.27 0.04,-4.97l-17.84 -4.88c-0.87,-0.26 -1.57,-0.96 -1.83,-1.87l-4.54 -17.92c-0.65,-2.57 -4.27,-2.57 -4.97,-0.04l-4.88 17.84c-0.26,0.92 -0.96,1.57 -1.87,1.83l-17.92 4.54c-2.57,0.65 -2.57,4.27 -0.04,4.97l17.84 4.88c0.92,0.26 1.57,0.96 1.83,1.83l0 -0z"/>
    <path class="fil2" d="M5073.94 15096.86l4.54 17.92c0.65,2.57 4.27,2.57 4.97,0.04l4.88 -17.84c0.26,-0.92 0.96,-1.57 1.87,-1.79l17.92 -4.54c2.57,-0.65 2.57,-4.27 0.04,-4.97l-17.84 -4.88c-0.87,-0.26 -1.57,-0.96 -1.83,-1.87l-4.54 -17.92c-0.65,-2.57 -4.27,-2.57 -4.97,-0.04l-4.88 17.84c-0.26,0.87 -0.96,1.57 -1.87,1.83l-17.92 4.54c-2.57,0.65 -2.62,4.27 -0.04,4.97l17.84 4.88c0.92,0.26 1.57,0.96 1.83,1.87l0 -0.04z"/>
    <path class="fil1" d="M3697.25 16734.51l0.74 0.48c0.7,0.48 1.4,0.96 2.09,1.44l0.57 0.39 1.66 1.18 0.7 0.52c0.65,0.48 1.31,1 1.96,1.53l0.7 0.57 1.53 1.22 0.61 0.48c0.61,0.52 1.22,1 1.79,1.53l0.83 0.74 1.35 1.22 1.09 1 1.22 1.13 0.87 0.83c0.57,0.52 1.09,1.05 1.61,1.57l0.65 0.65 1.26 1.26 0.7 0.74c0.52,0.57 1.05,1.13 1.57,1.7l0.7 0.74 1.4 1.57 0.31 0.31 0.04 0.04 0.22 0.26 1.35 1.61 0.78 0.92 1.44 1.79 0.52 0.65 1.13 1.48 0.61 0.78c0.48,0.65 0.96,1.26 1.4,1.92l0.52 0.74 1.09 1.61 0.7 1.05 1.05 1.61 0.61 0.96 1.09 1.79 0.61 1 0.87 1.48 0.52 0.92c0.39,0.65 0.74,1.31 1.13,2.01l0.57 1.09 0.78 1.44 0.44 0.87 1.05 2.14 0.48 0.96 0.78 1.7 0.57 1.22 0.83 1.92 0.31 0.7c0.35,0.78 0.65,1.57 0.96,2.35l0.31 0.78c0.26,0.7 0.57,1.44 0.83,2.14l0.17 0.48c0.31,0.83 0.61,1.66 0.87,2.53l0.26 0.78c0.26,0.78 0.52,1.61 0.78,2.4l0.04 0.17 0.04 0.09c0.26,0.87 0.52,1.75 0.78,2.62l0.22 0.74c0.22,0.83 0.48,1.7 0.7,2.57l0.17 0.61 0.52 2.14 0.17 0.78c0.17,0.87 0.39,1.7 0.57,2.57l0.13 0.74c0.17,0.78 0.31,1.57 0.44,2.35l0.09 0.52c0.17,0.92 0.31,1.83 0.44,2.75l0.09 0.61c0.26,1.87 0.52,3.75 0.74,5.67l0.09 0.87c0.09,0.92 0.17,1.83 0.26,2.79l0.04 0.44c0.09,0.92 0.13,1.83 0.17,2.75l0.04 0.44c0.04,0.96 0.09,1.92 0.13,2.92l0 0.7c0.04,0.96 0.04,1.96 0.04,2.96m-0.17 6.67l0 0.04c-0.22,3.97 -0.61,7.85 -1.13,11.73 -3.18,-2.09 -6.67,-4.49 -10.47,-7.24 -41.3,-29.48 -55.03,-39.33 -45.22,-62.93 7.59,-18.18 -7.59,-45.66 -1.05,-56.43l0.48 0.31"/>
   </g>
  </g>
 </g>
</svg>
