<?xml version="1.0" encoding="UTF-8"?>
<!DOCTYPE svg PUBLIC "-//W3C//DTD SVG 1.1//EN" "http://www.w3.org/Graphics/SVG/1.1/DTD/svg11.dtd">
<!-- Creator: CorelDRAW 2021 (64 Bit) -->
<svg xmlns="http://www.w3.org/2000/svg" xml:space="preserve" width="232.353mm" height="809.46mm" version="1.1" style="shape-rendering:geometricPrecision; text-rendering:geometricPrecision; image-rendering:optimizeQuality; fill-rule:evenodd; clip-rule:evenodd"
viewBox="0 0 3113.04 10845.03"
 xmlns:xlink="http://www.w3.org/1999/xlink"
 xmlns:xodm="http://www.corel.com/coreldraw/odm/2003">
 <defs>
  <style type="text/css">
   <![CDATA[
    .fil1 {fill:none;fill-rule:nonzero}
    .fil2 {fill:#FCF0A6;fill-rule:nonzero}
    .fil0 {fill:#FEFEFE;fill-rule:nonzero}
   ]]>
  </style>
 </defs>
 <g id="Camada_x0020_1">
  <metadata id="CorelCorpID_0Corel-Layer"/>
  <g id="_2735560786208">
   <path class="fil0" d="M986.63 58.9c0,4.25 -3.43,7.68 -7.68,7.68 -4.25,0 -7.68,-3.43 -7.68,-7.68 0,-4.25 3.43,-7.68 7.68,-7.68 4.25,0 7.68,3.43 7.68,7.68z"/>
   <path class="fil0" d="M93.32 139.24c0,4.25 -3.43,7.68 -7.68,7.68 -4.25,0 -7.68,-3.43 -7.68,-7.68 0,-4.25 3.43,-7.68 7.68,-7.68 4.25,0 7.68,3.43 7.68,7.68z"/>
   <path class="fil0" d="M1999.83 289.38c0,4.06 -3.3,7.37 -7.37,7.37 -4.09,0 -7.37,-3.3 -7.37,-7.37 0,-4.06 3.3,-7.37 7.37,-7.37 4.06,0 7.37,3.3 7.37,7.37z"/>
   <path class="fil0" d="M2289.74 49.93c0,4.95 -4.01,8.96 -8.99,8.96 -4.93,0 -8.94,-4.01 -8.94,-8.96 0,-4.95 4.01,-8.96 8.94,-8.96 4.95,0 8.99,4.01 8.99,8.96z"/>
   <path class="fil0" d="M2378.94 35.44c0,3.04 -2.46,5.53 -5.48,5.53 -3.07,0 -5.53,-2.46 -5.53,-5.53 0,-3.04 2.46,-5.51 5.53,-5.51 3.01,0 5.48,2.46 5.48,5.51z"/>
   <path class="fil0" d="M1784.21 691.24c0,2.38 -1.94,4.32 -4.32,4.32 -2.38,0 -4.32,-1.94 -4.32,-4.32 0,-2.38 1.94,-4.32 4.32,-4.32 2.38,0 4.32,1.94 4.32,4.32z"/>
   <path class="fil0" d="M1936.24 642.01c0,2.18 -1.76,3.93 -3.93,3.93 -2.18,0 -3.93,-1.76 -3.93,-3.93 0,-2.18 1.76,-3.93 3.93,-3.93 2.18,0 3.93,1.76 3.93,3.93z"/>
   <path class="fil0" d="M1426.57 624.3c0,3.7 -2.99,6.68 -6.68,6.68 -3.7,0 -6.71,-2.99 -6.71,-6.68 0,-3.7 3.01,-6.71 6.71,-6.71 3.7,0 6.68,2.99 6.68,6.71z"/>
   <path class="fil0" d="M1178.42 642.01c0,2.18 -1.76,3.93 -3.93,3.93 -2.18,0 -3.93,-1.76 -3.93,-3.93 0,-2.18 1.76,-3.93 3.93,-3.93 2.18,0 3.93,1.76 3.93,3.93z"/>
   <path class="fil0" d="M1182.38 461.23c0,3.25 -2.65,5.9 -5.9,5.9 -3.25,0 -5.9,-2.65 -5.9,-5.9 0,-3.25 2.65,-5.9 5.9,-5.9 3.25,0 5.9,2.65 5.9,5.9z"/>
   <path class="fil0" d="M764.22 718.37c0,1.7 -1.39,3.09 -3.09,3.09 -1.7,0 -3.09,-1.39 -3.09,-3.09 0,-1.7 1.39,-3.09 3.09,-3.09 1.7,0 3.09,1.39 3.09,3.09z"/>
   <path class="fil0" d="M821.2 620.94c0,1.84 -1.49,3.35 -3.35,3.35 -1.86,0 -3.35,-1.49 -3.35,-3.35 0,-1.86 1.49,-3.35 3.35,-3.35 1.84,0 3.35,1.49 3.35,3.35z"/>
   <path class="fil0" d="M601.81 569.54c0,1.31 -1.05,2.36 -2.36,2.36 -1.31,0 -2.36,-1.05 -2.36,-2.36 0,-1.31 1.07,-2.36 2.36,-2.36 1.31,0 2.36,1.05 2.36,2.36z"/>
   <path class="fil0" d="M207.94 590.01c0,1.31 -1.05,2.36 -2.36,2.36 -1.31,0 -2.36,-1.05 -2.36,-2.36 0,-1.31 1.05,-2.36 2.36,-2.36 1.31,0 2.36,1.05 2.36,2.36z"/>
   <path class="fil0" d="M597.09 790.9c0,2.62 -2.12,4.72 -4.72,4.72 -2.62,0 -4.72,-2.12 -4.72,-4.72 0,-2.62 2.12,-4.72 4.72,-4.72 2.62,0 4.72,2.12 4.72,4.72z"/>
   <path class="fil0" d="M207.94 720c0,2.62 -2.12,4.72 -4.72,4.72 -2.62,0 -4.72,-2.12 -4.72,-4.72 0,-2.62 2.12,-4.72 4.72,-4.72 2.62,0 4.72,2.12 4.72,4.72z"/>
   <path class="fil0" d="M9.44 389.15c0,2.62 -2.12,4.72 -4.72,4.72 -2.62,0 -4.72,-2.12 -4.72,-4.72 0,-2.62 2.12,-4.72 4.72,-4.72 2.62,0 4.72,2.12 4.72,4.72z"/>
   <path class="fil0" d="M1164.84 899.03c0,6.42 -5.22,11.61 -11.61,11.61 -6.42,0 -11.61,-5.19 -11.61,-11.61 0,-6.42 5.22,-11.61 11.61,-11.61 6.42,0 11.61,5.19 11.61,11.61z"/>
   <path class="fil0" d="M403.88 974.65c0,6.42 -5.22,11.61 -11.61,11.61 -6.42,0 -11.61,-5.19 -11.61,-11.61 0,-6.42 5.22,-11.61 11.61,-11.61 6.42,0 11.61,5.19 11.61,11.61z"/>
   <path class="fil0" d="M2368.72 756.64c0,1.97 -1.6,3.54 -3.54,3.54 -1.99,0 -3.54,-1.6 -3.54,-3.54 0,-1.97 1.55,-3.54 3.54,-3.54 1.94,0 3.54,1.6 3.54,3.54z"/>
   <path class="fil0" d="M2593.14 426.29c0,9.99 -8.07,18.09 -18.06,18.09 -10.01,0 -18.11,-8.1 -18.11,-18.09 0,-9.99 8.07,-18.09 18.11,-18.09 9.96,0 18.06,8.1 18.06,18.09z"/>
   <path class="fil0" d="M3113.04 1121.07c0,9.99 -8.07,18.09 -18.06,18.09 -10.01,0 -18.11,-8.1 -18.11,-18.09 0,-9.99 8.07,-18.09 18.11,-18.09 9.96,0 18.06,8.1 18.06,18.09z"/>
   <path class="fil0" d="M2629.45 804.29c0,4.8 -3.88,8.68 -8.65,8.68 -4.77,0 -8.65,-3.88 -8.65,-8.68 0,-4.77 3.88,-8.68 8.65,-8.68 4.77,0 8.65,3.88 8.65,8.68z"/>
   <path class="fil0" d="M2998.1 383.64c0,4.77 -3.88,8.65 -8.65,8.65 -4.77,0 -8.65,-3.88 -8.65,-8.65 0,-4.8 3.88,-8.68 8.65,-8.68 4.77,0 8.65,3.88 8.65,8.68z"/>
   <path class="fil0" d="M138.61 1021.7c0,4.8 -3.88,8.68 -8.65,8.68 -4.8,0 -8.68,-3.88 -8.68,-8.68 0,-4.77 3.88,-8.68 8.68,-8.68 4.8,0 8.65,3.88 8.65,8.68z"/>
   <path class="fil0" d="M2125.31 1098.89c0,2.18 -1.81,3.93 -3.96,3.93 -2.18,0 -3.93,-1.76 -3.93,-3.93 0,-2.18 1.76,-3.93 3.93,-3.93 2.18,0 3.96,1.76 3.96,3.93z"/>
   <path class="fil0" d="M2214.35 1057.53c0,1.07 -0.84,1.94 -1.94,1.94 -1.1,0 -1.94,-0.87 -1.94,-1.94 0,-1.07 0.84,-1.94 1.94,-1.94 1.07,0 1.94,0.87 1.94,1.94z"/>
   <path class="fil0" d="M1859.83 1441.17c0,8.26 -6.71,14.97 -14.97,14.97 -8.26,0 -14.97,-6.71 -14.97,-14.97 0,-8.26 6.71,-14.97 14.97,-14.97 8.26,0 14.97,6.71 14.97,14.97z"/>
   <path class="fil0" d="M54.34 2102.87c0,8.26 -6.71,14.97 -14.97,14.97 -8.26,0 -14.97,-6.71 -14.97,-14.97 0,-8.26 6.71,-14.97 14.97,-14.97 8.26,0 14.97,6.71 14.97,14.97z"/>
   <path class="fil0" d="M2007.72 966.86c0,2.18 -1.76,3.93 -3.93,3.93 -2.18,0 -3.93,-1.76 -3.93,-3.93 0,-2.18 1.76,-3.93 3.93,-3.93 2.18,0 3.93,1.76 3.93,3.93z"/>
   <path class="fil0" d="M1400.57 1372.63c0,1.73 -1.41,3.15 -3.15,3.15 -1.73,0 -3.15,-1.41 -3.15,-3.15 0,-1.73 1.41,-3.15 3.15,-3.15 1.73,0 3.15,1.41 3.15,3.15z"/>
   <line class="fil1" x1="1410.03" y1="1468.75" x2="1410.03" y2= "1468.75" />
   <path class="fil0" d="M1094.94 1434.09c0,4.35 -3.54,7.89 -7.89,7.89 -4.35,0 -7.89,-3.54 -7.89,-7.89 0,-4.35 3.54,-7.86 7.89,-7.86 4.35,0 7.89,3.54 7.89,7.86z"/>
   <path class="fil0" d="M310.35 1930.37c0,4.35 -3.51,7.89 -7.89,7.89 -4.35,0 -7.89,-3.54 -7.89,-7.89 0,-4.35 3.54,-7.86 7.89,-7.86 4.35,0 7.89,3.54 7.89,7.86z"/>
   <path class="fil0" d="M1295.8 1417.95c0,2.38 -1.94,4.32 -4.32,4.32 -2.38,0 -4.32,-1.94 -4.32,-4.32 0,-2.38 1.94,-4.32 4.32,-4.32 2.38,0 4.32,1.94 4.32,4.32z"/>
   <path class="fil0" d="M1375.38 1681.04c0,2.62 -2.12,4.72 -4.72,4.72 -2.62,0 -4.72,-2.12 -4.72,-4.72 0,-2.62 2.12,-4.72 4.72,-4.72 2.62,0 4.72,2.12 4.72,4.72z"/>
   <line class="fil1" x1="1082.33" y1="1523.51" x2="1082.33" y2= "1523.51" />
   <path class="fil0" d="M758.06 1500.78c0,5.74 -4.64,10.38 -10.38,10.38 -5.74,0 -10.38,-4.64 -10.38,-10.38 0,-5.74 4.64,-10.38 10.38,-10.38 5.74,0 10.38,4.64 10.38,10.38z"/>
   <path class="fil0" d="M898.79 1419.13c0,3.25 -2.65,5.9 -5.9,5.9 -3.25,0 -5.9,-2.65 -5.9,-5.9 0,-3.25 2.65,-5.9 5.9,-5.9 3.25,0 5.9,2.65 5.9,5.9z"/>
   <path class="fil0" d="M594.73 1659.39c0,3.7 -2.99,6.71 -6.68,6.71 -3.7,0 -6.68,-2.99 -6.68,-6.71 0,-3.7 2.99,-6.71 6.68,-6.71 3.7,0 6.68,2.99 6.68,6.71z"/>
   <path class="fil0" d="M604.45 1889.11c0,2.7 -2.18,4.88 -4.88,4.88 -2.67,0 -4.88,-2.18 -4.88,-4.88 0,-2.67 2.18,-4.88 4.88,-4.88 2.7,0 4.88,2.18 4.88,4.88z"/>
   <path class="fil0" d="M747.62 1943.47c0,4.27 -3.46,7.76 -7.76,7.76 -4.27,0 -7.76,-3.46 -7.76,-7.76 0,-4.27 3.46,-7.73 7.76,-7.73 4.27,0 7.76,3.46 7.76,7.73z"/>
   <path class="fil0" d="M762.64 2056.74c0,1.26 -1.02,2.31 -2.31,2.31 -1.28,0 -2.31,-1.02 -2.31,-2.31 0,-1.26 1.02,-2.31 2.31,-2.31 1.28,0 2.31,1.02 2.31,2.31z"/>
   <path class="fil0" d="M573.44 2135.56c0,8.7 -7.05,15.75 -15.75,15.75 -8.7,0 -15.75,-7.05 -15.75,-15.75 0,-8.7 7.05,-15.75 15.75,-15.75 8.7,0 15.75,7.05 15.75,15.75z"/>
   <path class="fil0" d="M1216.25 1840.17c0,6.08 -4.93,11.04 -11.04,11.04 -6.08,0 -11.04,-4.93 -11.04,-11.04 0,-6.08 4.93,-11.04 11.04,-11.04 6.08,0 11.04,4.93 11.04,11.04z"/>
   <path class="fil0" d="M1343.66 1961.01c0,1.26 -1.02,2.25 -2.25,2.25 -1.26,0 -2.25,-1.02 -2.25,-2.25 0,-1.23 1.02,-2.25 2.25,-2.25 1.23,0 2.25,1.02 2.25,2.25z"/>
   <path class="fil0" d="M1675.51 2020.96c0,5.87 -4.77,10.64 -10.64,10.64 -5.87,0 -10.64,-4.77 -10.64,-10.64 0,-5.87 4.77,-10.64 10.64,-10.64 5.87,0 10.64,4.77 10.64,10.64z"/>
   <path class="fil0" d="M2068.59 1549.48c0,3.91 -3.17,7.08 -7.08,7.08 -3.93,0 -7.08,-3.17 -7.08,-7.08 0,-3.91 3.17,-7.08 7.08,-7.08 3.93,0 7.08,3.17 7.08,7.08z"/>
   <path class="fil0" d="M2264.55 1349.11c0,3.75 -3.07,6.79 -6.82,6.79 -3.77,0 -6.82,-3.04 -6.82,-6.79 0,-3.75 3.01,-6.79 6.82,-6.79 3.72,0 6.82,3.04 6.82,6.79z"/>
   <path class="fil0" d="M1851.16 1677.89c0,1.73 -1.41,3.15 -3.15,3.15 -1.73,0 -3.15,-1.41 -3.15,-3.15 0,-1.73 1.41,-3.15 3.15,-3.15 1.73,0 3.15,1.41 3.15,3.15z"/>
   <path class="fil0" d="M2048.9 1805.89c0,1.07 -0.89,1.97 -1.99,1.97 -1.07,0 -1.94,-0.89 -1.94,-1.97 0,-1.07 0.84,-1.97 1.94,-1.97 1.07,0 1.99,0.89 1.99,1.97z"/>
   <path class="fil0" d="M2420.72 1645.21c0,3.7 -3.01,6.68 -6.71,6.68 -3.7,0 -6.71,-2.99 -6.71,-6.68 0,-3.7 3.01,-6.71 6.71,-6.71 3.7,0 6.71,2.99 6.71,6.71z"/>
   <path class="fil0" d="M2545.18 1441.17c0,3.25 -2.65,5.9 -5.9,5.9 -3.25,0 -5.9,-2.65 -5.9,-5.9 0,-3.25 2.65,-5.9 5.9,-5.9 3.25,0 5.9,2.65 5.9,5.9z"/>
   <path class="fil0" d="M2928.01 1341.91c0,3.25 -2.65,5.9 -5.9,5.9 -3.25,0 -5.9,-2.65 -5.9,-5.9 0,-3.25 2.65,-5.9 5.9,-5.9 3.25,0 5.9,2.65 5.9,5.9z"/>
   <path class="fil0" d="M2828.77 1540.44c0,3.25 -2.65,5.9 -5.9,5.9 -3.25,0 -5.9,-2.65 -5.9,-5.9 0,-3.25 2.65,-5.9 5.9,-5.9 3.25,0 5.9,2.65 5.9,5.9z"/>
   <path class="fil0" d="M3093.43 812.55c0,3.28 -2.65,5.9 -5.9,5.9 -3.25,0 -5.9,-2.65 -5.9,-5.9 0,-3.25 2.65,-5.9 5.9,-5.9 3.25,0 5.9,2.65 5.9,5.9z"/>
   <path class="fil0" d="M2680.67 1761.8c0,2.83 -2.31,5.11 -5.16,5.11 -2.78,0 -5.11,-2.28 -5.11,-5.11 0,-2.83 2.31,-5.11 5.11,-5.11 2.83,0 5.16,2.28 5.16,5.11z"/>
   <path class="fil0" d="M3091.88 2087.9c0,2.83 -2.31,5.11 -5.16,5.11 -2.78,0 -5.11,-2.31 -5.11,-5.11 0,-2.83 2.31,-5.11 5.11,-5.11 2.83,0 5.16,2.31 5.16,5.11z"/>
   <line class="fil1" x1="2643.63" y1="2043.4" x2="2643.63" y2= "2043.4" />
   <path class="fil0" d="M2231.71 2166.07c0,1.63 -1.31,2.94 -2.94,2.94 -1.6,0 -2.94,-1.31 -2.94,-2.94 0,-1.63 1.31,-2.94 2.94,-2.94 1.6,0 2.94,1.31 2.94,2.94z"/>
   <path class="fil0" d="M2620.8 1084.87c0,4.56 -3.7,8.28 -8.28,8.28 -4.59,0 -8.28,-3.7 -8.28,-8.28 0,-4.56 3.7,-8.28 8.28,-8.28 4.59,0 8.28,3.7 8.28,8.28z"/>
   <path class="fil0" d="M2658.13 42.7c0,3.98 -3.25,7.23 -7.29,7.23 -3.96,0 -7.23,-3.25 -7.23,-7.23 0,-4.01 3.25,-7.23 7.23,-7.23 4.01,0 7.29,3.25 7.29,7.23z"/>
   <path class="fil0" d="M1843.29 7.08c0,3.93 -3.17,7.08 -7.08,7.08 -3.91,0 -7.08,-3.17 -7.08,-7.08 0,-3.91 3.17,-7.08 7.08,-7.08 3.91,0 7.08,3.17 7.08,7.08z"/>
   <path class="fil0" d="M545.69 51.51c0,4.09 -3.3,7.39 -7.39,7.39 -4.09,0 -7.39,-3.3 -7.39,-7.39 0,-4.06 3.3,-7.39 7.39,-7.39 4.09,0 7.39,3.3 7.39,7.39z"/>
   <path class="fil0" d="M839.11 966.86c0,4.95 -4.01,8.96 -8.96,8.96 -4.95,0 -8.96,-4.01 -8.96,-8.96 0,-4.95 4.01,-8.96 8.96,-8.96 4.95,0 8.96,4.01 8.96,8.96z"/>
   <path class="fil0" d="M248.31 1420.6c0,4.95 -4.01,8.96 -8.96,8.96 -4.95,0 -8.96,-4.01 -8.96,-8.96 0,-4.95 4.01,-8.96 8.96,-8.96 4.95,0 8.96,4.01 8.96,8.96z"/>
   <path class="fil0" d="M508.86 1276.14c0,2.62 -2.12,4.72 -4.72,4.72 -2.62,0 -4.72,-2.12 -4.72,-4.72 0,-2.62 2.12,-4.72 4.72,-4.72 2.62,0 4.72,2.12 4.72,4.72z"/>
   <path class="fil0" d="M1591.42 842.77c0,1.68 -1.36,3.04 -3.04,3.04 -1.68,0 -3.04,-1.36 -3.04,-3.04 0,-1.68 1.36,-3.04 3.04,-3.04 1.68,0 3.04,1.36 3.04,3.04z"/>
   <path class="fil2" d="M2507.46 1791.03l-3.22 -12.61c-0.42,-1.81 -2.99,-1.84 -3.49,-0.03l-3.41 12.56c-0.18,0.63 -0.66,1.13 -1.31,1.28l-12.61 3.2c-1.78,0.47 -1.78,3.01 0,3.51l12.53 3.43c0.66,0.18 1.13,0.68 1.28,1.31l3.22 12.61c0.47,1.81 3.01,1.84 3.49,0.03l3.46 -12.56c0.13,-0.63 0.66,-1.13 1.28,-1.28l12.61 -3.2c1.78,-0.45 1.84,-3.01 0.05,-3.49l-12.58 -3.43c-0.6,-0.16 -1.13,-0.68 -1.28,-1.31l-0.03 -0.03z"/>
   <path class="fil2" d="M1339.1 118.14l-3.2 -12.61c-0.45,-1.81 -3.01,-1.84 -3.49,-0.03l-3.43 12.56c-0.18,0.63 -0.66,1.13 -1.31,1.28l-12.61 3.2c-1.81,0.45 -1.84,3.01 -0.03,3.49l12.56 3.43c0.63,0.16 1.13,0.66 1.26,1.31l3.2 12.61c0.45,1.81 3.01,1.84 3.49,0.03l3.43 -12.56c0.16,-0.63 0.66,-1.13 1.31,-1.28l12.61 -3.2c1.81,-0.45 1.84,-3.01 0.03,-3.49l-12.56 -3.43c-0.63,-0.16 -1.13,-0.66 -1.28,-1.31l0.03 0z"/>
   <path class="fil2" d="M2521.72 174.08l-2.75 -10.77c-0.37,-1.55 -2.6,-1.55 -2.99,-0.03l-2.94 10.72c-0.13,0.52 -0.58,0.94 -1.13,1.07l-10.77 2.73c-1.52,0.39 -1.57,2.57 0,2.99l10.72 2.94c0.52,0.13 0.94,0.58 1.07,1.1l2.7 10.77c0.42,1.55 2.6,1.55 3.01,0.03l2.88 -10.72c0.18,-0.55 0.6,-0.97 1.13,-1.1l10.77 -2.73c1.52,-0.39 1.55,-2.57 0.05,-2.99l-10.72 -2.94c-0.58,-0.13 -1,-0.58 -1.1,-1.1l0.05 0.03z"/>
   <path class="fil2" d="M3079.43 117.35l-2.75 -10.77c-0.37,-1.55 -2.6,-1.55 -2.99,-0.03l-2.94 10.72c-0.13,0.52 -0.58,0.94 -1.13,1.1l-10.77 2.73c-1.52,0.39 -1.55,2.57 0,2.99l10.72 2.94c0.52,0.13 0.94,0.58 1.1,1.1l2.7 10.77c0.42,1.55 2.6,1.57 3.01,0.03l2.88 -10.72c0.18,-0.55 0.6,-0.97 1.13,-1.1l10.77 -2.73c1.52,-0.39 1.57,-2.57 0.05,-2.99l-10.72 -2.94c-0.58,-0.13 -1,-0.58 -1.1,-1.1l0.03 0z"/>
   <path class="fil2" d="M550.06 286.5l-2.73 -10.77c-0.39,-1.55 -2.57,-1.57 -2.99,-0.03l-2.94 10.72c-0.16,0.52 -0.58,0.94 -1.13,1.07l-10.77 2.73c-1.55,0.39 -1.55,2.57 -0.03,2.99l10.72 2.94c0.52,0.16 0.94,0.58 1.1,1.13l2.73 10.77c0.39,1.55 2.57,1.55 2.99,0.03l2.94 -10.72c0.16,-0.55 0.58,-0.94 1.13,-1.1l10.77 -2.73c1.55,-0.39 1.55,-2.57 0.03,-2.99l-10.72 -2.94c-0.55,-0.16 -0.94,-0.58 -1.1,-1.1l0 0z"/>
   <path class="fil2" d="M63.22 1770.61l-2.73 -10.77c-0.39,-1.55 -2.57,-1.55 -2.99,-0.03l-2.94 10.72c-0.16,0.55 -0.58,0.94 -1.13,1.07l-10.77 2.73c-1.55,0.39 -1.55,2.57 -0.03,2.99l10.72 2.94c0.52,0.16 0.94,0.58 1.1,1.13l2.73 10.77c0.39,1.55 2.57,1.55 2.99,0.03l2.94 -10.72c0.16,-0.52 0.58,-0.94 1.13,-1.1l10.77 -2.73c1.55,-0.39 1.57,-2.57 0.03,-2.99l-10.72 -2.94c-0.55,-0.16 -0.94,-0.58 -1.1,-1.13l0 0.03z"/>
   <path class="fil1" d="M890.72 786.26l-0.45 -0.29c-0.42,-0.29 -0.84,-0.58 -1.26,-0.87l-0.34 -0.24 -1 -0.71 -0.42 -0.31c-0.39,-0.29 -0.79,-0.6 -1.18,-0.92l-0.42 -0.34 -0.92 -0.73 -0.37 -0.29c-0.37,-0.31 -0.73,-0.6 -1.07,-0.92l-0.5 -0.45 -0.81 -0.73 -0.66 -0.6 -0.73 -0.68 -0.52 -0.5c-0.34,-0.31 -0.66,-0.63 -0.97,-0.94l-0.39 -0.39 -0.76 -0.76 -0.42 -0.45c-0.31,-0.34 -0.63,-0.68 -0.94,-1.02l-0.42 -0.45 -0.84 -0.94 -0.18 -0.18 -0.03 -0.03 -0.13 -0.16 -0.81 -0.97 -0.47 -0.55 -0.87 -1.07 -0.31 -0.39 -0.68 -0.89 -0.37 -0.47c-0.29,-0.39 -0.58,-0.76 -0.84,-1.15l-0.31 -0.45 -0.66 -0.97 -0.42 -0.63 -0.63 -0.97 -0.37 -0.58 -0.66 -1.07 -0.37 -0.6 -0.52 -0.89 -0.31 -0.55c-0.24,-0.39 -0.45,-0.79 -0.68,-1.21l-0.34 -0.66 -0.47 -0.87 -0.26 -0.52 -0.63 -1.28 -0.29 -0.58 -0.47 -1.02 -0.34 -0.73 -0.5 -1.15 -0.18 -0.42c-0.21,-0.47 -0.39,-0.94 -0.58,-1.41l-0.18 -0.47c-0.16,-0.42 -0.34,-0.87 -0.5,-1.28l-0.1 -0.29c-0.18,-0.5 -0.37,-1 -0.52,-1.52l-0.16 -0.47c-0.16,-0.47 -0.31,-0.97 -0.47,-1.44l-0.03 -0.1 -0.03 -0.05c-0.16,-0.52 -0.31,-1.05 -0.47,-1.57l-0.13 -0.45c-0.13,-0.5 -0.29,-1.02 -0.42,-1.55l-0.1 -0.37 -0.31 -1.28 -0.1 -0.47c-0.1,-0.52 -0.24,-1.02 -0.34,-1.55l-0.08 -0.45c-0.1,-0.47 -0.18,-0.94 -0.26,-1.41l-0.05 -0.31c-0.1,-0.55 -0.18,-1.1 -0.26,-1.65l-0.05 -0.37c-0.16,-1.13 -0.31,-2.25 -0.45,-3.41l-0.05 -0.52c-0.05,-0.55 -0.1,-1.1 -0.16,-1.68l-0.03 -0.26c-0.05,-0.55 -0.08,-1.1 -0.1,-1.65l-0.03 -0.26c-0.03,-0.58 -0.05,-1.15 -0.08,-1.76l0 -0.42c-0.03,-0.58 -0.03,-1.18 -0.03,-1.78m0.1 -4.01l0 -0.03c0.13,-2.38 0.37,-4.72 0.68,-7.05 1.91,1.26 4.01,2.7 6.29,4.35 24.82,17.72 33.08,23.64 27.18,37.82 -4.56,10.93 4.56,27.44 0.63,33.92l-0.29 -0.18"/>
   <path class="fil0" d="M986.63 2227.9c0,4.25 -3.43,7.68 -7.68,7.68 -4.25,0 -7.68,-3.43 -7.68,-7.68 0,-4.25 3.43,-7.68 7.68,-7.68 4.25,0 7.68,3.43 7.68,7.68z"/>
   <path class="fil0" d="M93.32 2308.24c0,4.25 -3.43,7.68 -7.68,7.68 -4.25,0 -7.68,-3.43 -7.68,-7.68 0,-4.25 3.43,-7.68 7.68,-7.68 4.25,0 7.68,3.43 7.68,7.68z"/>
   <path class="fil0" d="M1999.83 2458.39c0,4.06 -3.3,7.37 -7.37,7.37 -4.09,0 -7.37,-3.3 -7.37,-7.37 0,-4.06 3.3,-7.37 7.37,-7.37 4.06,0 7.37,3.3 7.37,7.37z"/>
   <path class="fil0" d="M2289.74 2218.94c0,4.95 -4.01,8.96 -8.99,8.96 -4.93,0 -8.94,-4.01 -8.94,-8.96 0,-4.95 4.01,-8.96 8.94,-8.96 4.95,0 8.99,4.01 8.99,8.96z"/>
   <path class="fil0" d="M2378.94 2204.44c0,3.04 -2.46,5.53 -5.48,5.53 -3.07,0 -5.53,-2.46 -5.53,-5.53 0,-3.04 2.46,-5.51 5.53,-5.51 3.01,0 5.48,2.46 5.48,5.51z"/>
   <path class="fil0" d="M1784.21 2860.25c0,2.38 -1.94,4.32 -4.32,4.32 -2.38,0 -4.32,-1.94 -4.32,-4.32 0,-2.38 1.94,-4.32 4.32,-4.32 2.38,0 4.32,1.94 4.32,4.32z"/>
   <path class="fil0" d="M1936.24 2811.02c0,2.18 -1.76,3.93 -3.93,3.93 -2.18,0 -3.93,-1.76 -3.93,-3.93 0,-2.18 1.76,-3.93 3.93,-3.93 2.18,0 3.93,1.76 3.93,3.93z"/>
   <path class="fil0" d="M1426.57 2793.3c0,3.7 -2.99,6.68 -6.68,6.68 -3.7,0 -6.71,-2.99 -6.71,-6.68 0,-3.7 3.01,-6.71 6.71,-6.71 3.7,0 6.68,2.99 6.68,6.71z"/>
   <path class="fil0" d="M1178.42 2811.02c0,2.18 -1.76,3.93 -3.93,3.93 -2.18,0 -3.93,-1.76 -3.93,-3.93 0,-2.18 1.76,-3.93 3.93,-3.93 2.18,0 3.93,1.76 3.93,3.93z"/>
   <path class="fil0" d="M1182.38 2630.24c0,3.25 -2.65,5.9 -5.9,5.9 -3.25,0 -5.9,-2.65 -5.9,-5.9 0,-3.25 2.65,-5.9 5.9,-5.9 3.25,0 5.9,2.65 5.9,5.9z"/>
   <path class="fil0" d="M764.22 2887.38c0,1.7 -1.39,3.09 -3.09,3.09 -1.7,0 -3.09,-1.39 -3.09,-3.09 0,-1.7 1.39,-3.09 3.09,-3.09 1.7,0 3.09,1.39 3.09,3.09z"/>
   <path class="fil0" d="M821.2 2789.95c0,1.84 -1.49,3.35 -3.35,3.35 -1.86,0 -3.35,-1.49 -3.35,-3.35 0,-1.86 1.49,-3.35 3.35,-3.35 1.84,0 3.35,1.49 3.35,3.35z"/>
   <path class="fil0" d="M601.81 2738.54c0,1.31 -1.05,2.36 -2.36,2.36 -1.31,0 -2.36,-1.05 -2.36,-2.36 0,-1.31 1.07,-2.36 2.36,-2.36 1.31,0 2.36,1.05 2.36,2.36z"/>
   <path class="fil0" d="M207.94 2759.02c0,1.31 -1.05,2.36 -2.36,2.36 -1.31,0 -2.36,-1.05 -2.36,-2.36 0,-1.31 1.05,-2.36 2.36,-2.36 1.31,0 2.36,1.05 2.36,2.36z"/>
   <path class="fil0" d="M597.09 2959.91c0,2.62 -2.12,4.72 -4.72,4.72 -2.62,0 -4.72,-2.12 -4.72,-4.72 0,-2.62 2.12,-4.72 4.72,-4.72 2.62,0 4.72,2.12 4.72,4.72z"/>
   <path class="fil0" d="M207.94 2889c0,2.62 -2.12,4.72 -4.72,4.72 -2.62,0 -4.72,-2.12 -4.72,-4.72 0,-2.62 2.12,-4.72 4.72,-4.72 2.62,0 4.72,2.12 4.72,4.72z"/>
   <path class="fil0" d="M9.44 2558.15c0,2.62 -2.12,4.72 -4.72,4.72 -2.62,0 -4.72,-2.12 -4.72,-4.72 0,-2.62 2.12,-4.72 4.72,-4.72 2.62,0 4.72,2.12 4.72,4.72z"/>
   <path class="fil0" d="M1164.84 3068.03c0,6.42 -5.22,11.61 -11.61,11.61 -6.42,0 -11.61,-5.19 -11.61,-11.61 0,-6.42 5.22,-11.61 11.61,-11.61 6.42,0 11.61,5.19 11.61,11.61z"/>
   <path class="fil0" d="M403.88 3143.65c0,6.42 -5.22,11.61 -11.61,11.61 -6.42,0 -11.61,-5.19 -11.61,-11.61 0,-6.42 5.22,-11.61 11.61,-11.61 6.42,0 11.61,5.19 11.61,11.61z"/>
   <path class="fil0" d="M2368.72 2925.65c0,1.97 -1.6,3.54 -3.54,3.54 -1.99,0 -3.54,-1.6 -3.54,-3.54 0,-1.97 1.55,-3.54 3.54,-3.54 1.94,0 3.54,1.6 3.54,3.54z"/>
   <path class="fil0" d="M2593.14 2595.3c0,9.99 -8.07,18.09 -18.06,18.09 -10.01,0 -18.11,-8.1 -18.11,-18.09 0,-9.99 8.07,-18.09 18.11,-18.09 9.96,0 18.06,8.1 18.06,18.09z"/>
   <path class="fil0" d="M3113.04 3290.07c0,9.99 -8.07,18.09 -18.06,18.09 -10.01,0 -18.11,-8.1 -18.11,-18.09 0,-9.99 8.07,-18.09 18.11,-18.09 9.96,0 18.06,8.1 18.06,18.09z"/>
   <path class="fil0" d="M2629.45 2973.3c0,4.8 -3.88,8.68 -8.65,8.68 -4.77,0 -8.65,-3.88 -8.65,-8.68 0,-4.77 3.88,-8.68 8.65,-8.68 4.77,0 8.65,3.88 8.65,8.68z"/>
   <path class="fil0" d="M2998.1 2552.65c0,4.77 -3.88,8.65 -8.65,8.65 -4.77,0 -8.65,-3.88 -8.65,-8.65 0,-4.8 3.88,-8.68 8.65,-8.68 4.77,0 8.65,3.88 8.65,8.68z"/>
   <path class="fil0" d="M138.61 3190.71c0,4.8 -3.88,8.68 -8.65,8.68 -4.8,0 -8.68,-3.88 -8.68,-8.68 0,-4.77 3.88,-8.68 8.68,-8.68 4.8,0 8.65,3.88 8.65,8.68z"/>
   <path class="fil0" d="M2125.31 3267.9c0,2.18 -1.81,3.93 -3.96,3.93 -2.18,0 -3.93,-1.76 -3.93,-3.93 0,-2.18 1.76,-3.93 3.93,-3.93 2.18,0 3.96,1.76 3.96,3.93z"/>
   <path class="fil0" d="M2214.35 3226.54c0,1.07 -0.84,1.94 -1.94,1.94 -1.1,0 -1.94,-0.87 -1.94,-1.94 0,-1.07 0.84,-1.94 1.94,-1.94 1.07,0 1.94,0.87 1.94,1.94z"/>
   <path class="fil0" d="M1859.83 3610.18c0,8.26 -6.71,14.97 -14.97,14.97 -8.26,0 -14.97,-6.71 -14.97,-14.97 0,-8.26 6.71,-14.97 14.97,-14.97 8.26,0 14.97,6.71 14.97,14.97z"/>
   <path class="fil0" d="M54.34 4271.88c0,8.26 -6.71,14.97 -14.97,14.97 -8.26,0 -14.97,-6.71 -14.97,-14.97 0,-8.26 6.71,-14.97 14.97,-14.97 8.26,0 14.97,6.71 14.97,14.97z"/>
   <path class="fil0" d="M2007.72 3135.87c0,2.18 -1.76,3.93 -3.93,3.93 -2.18,0 -3.93,-1.76 -3.93,-3.93 0,-2.18 1.76,-3.93 3.93,-3.93 2.18,0 3.93,1.76 3.93,3.93z"/>
   <path class="fil0" d="M1400.57 3541.63c0,1.73 -1.41,3.15 -3.15,3.15 -1.73,0 -3.15,-1.41 -3.15,-3.15 0,-1.73 1.41,-3.15 3.15,-3.15 1.73,0 3.15,1.41 3.15,3.15z"/>
   <line class="fil1" x1="1410.03" y1="3637.75" x2="1410.03" y2= "3637.75" />
   <path class="fil0" d="M1094.94 3603.1c0,4.35 -3.54,7.89 -7.89,7.89 -4.35,0 -7.89,-3.54 -7.89,-7.89 0,-4.35 3.54,-7.86 7.89,-7.86 4.35,0 7.89,3.54 7.89,7.86z"/>
   <path class="fil0" d="M310.35 4099.37c0,4.35 -3.51,7.89 -7.89,7.89 -4.35,0 -7.89,-3.54 -7.89,-7.89 0,-4.35 3.54,-7.86 7.89,-7.86 4.35,0 7.89,3.54 7.89,7.86z"/>
   <path class="fil0" d="M1295.8 3586.95c0,2.38 -1.94,4.32 -4.32,4.32 -2.38,0 -4.32,-1.94 -4.32,-4.32 0,-2.38 1.94,-4.32 4.32,-4.32 2.38,0 4.32,1.94 4.32,4.32z"/>
   <path class="fil0" d="M1375.38 3850.04c0,2.62 -2.12,4.72 -4.72,4.72 -2.62,0 -4.72,-2.12 -4.72,-4.72 0,-2.62 2.12,-4.72 4.72,-4.72 2.62,0 4.72,2.12 4.72,4.72z"/>
   <line class="fil1" x1="1082.33" y1="3692.51" x2="1082.33" y2= "3692.51" />
   <path class="fil0" d="M758.06 3669.78c0,5.74 -4.64,10.38 -10.38,10.38 -5.74,0 -10.38,-4.64 -10.38,-10.38 0,-5.74 4.64,-10.38 10.38,-10.38 5.74,0 10.38,4.64 10.38,10.38z"/>
   <path class="fil0" d="M898.79 3588.13c0,3.25 -2.65,5.9 -5.9,5.9 -3.25,0 -5.9,-2.65 -5.9,-5.9 0,-3.25 2.65,-5.9 5.9,-5.9 3.25,0 5.9,2.65 5.9,5.9z"/>
   <path class="fil0" d="M594.73 3828.39c0,3.7 -2.99,6.71 -6.68,6.71 -3.7,0 -6.68,-2.99 -6.68,-6.71 0,-3.7 2.99,-6.71 6.68,-6.71 3.7,0 6.68,2.99 6.68,6.71z"/>
   <path class="fil0" d="M604.45 4058.12c0,2.7 -2.18,4.88 -4.88,4.88 -2.67,0 -4.88,-2.18 -4.88,-4.88 0,-2.67 2.18,-4.88 4.88,-4.88 2.7,0 4.88,2.18 4.88,4.88z"/>
   <path class="fil0" d="M747.62 4112.48c0,4.27 -3.46,7.76 -7.76,7.76 -4.27,0 -7.76,-3.46 -7.76,-7.76 0,-4.27 3.46,-7.73 7.76,-7.73 4.27,0 7.76,3.46 7.76,7.73z"/>
   <path class="fil0" d="M762.64 4225.74c0,1.26 -1.02,2.31 -2.31,2.31 -1.28,0 -2.31,-1.02 -2.31,-2.31 0,-1.26 1.02,-2.31 2.31,-2.31 1.28,0 2.31,1.02 2.31,2.31z"/>
   <path class="fil0" d="M573.44 4304.56c0,8.7 -7.05,15.75 -15.75,15.75 -8.7,0 -15.75,-7.05 -15.75,-15.75 0,-8.7 7.05,-15.75 15.75,-15.75 8.7,0 15.75,7.05 15.75,15.75z"/>
   <path class="fil0" d="M1216.25 4009.18c0,6.08 -4.93,11.04 -11.04,11.04 -6.08,0 -11.04,-4.93 -11.04,-11.04 0,-6.08 4.93,-11.04 11.04,-11.04 6.08,0 11.04,4.93 11.04,11.04z"/>
   <path class="fil0" d="M1343.66 4130.02c0,1.26 -1.02,2.25 -2.25,2.25 -1.26,0 -2.25,-1.02 -2.25,-2.25 0,-1.23 1.02,-2.25 2.25,-2.25 1.23,0 2.25,1.02 2.25,2.25z"/>
   <path class="fil0" d="M1675.51 4189.96c0,5.87 -4.77,10.64 -10.64,10.64 -5.87,0 -10.64,-4.77 -10.64,-10.64 0,-5.87 4.77,-10.64 10.64,-10.64 5.87,0 10.64,4.77 10.64,10.64z"/>
   <path class="fil0" d="M2068.59 3718.49c0,3.91 -3.17,7.08 -7.08,7.08 -3.93,0 -7.08,-3.17 -7.08,-7.08 0,-3.91 3.17,-7.08 7.08,-7.08 3.93,0 7.08,3.17 7.08,7.08z"/>
   <path class="fil0" d="M2264.55 3518.12c0,3.75 -3.07,6.79 -6.82,6.79 -3.77,0 -6.82,-3.04 -6.82,-6.79 0,-3.75 3.01,-6.79 6.82,-6.79 3.72,0 6.82,3.04 6.82,6.79z"/>
   <path class="fil0" d="M1851.16 3846.9c0,1.73 -1.41,3.15 -3.15,3.15 -1.73,0 -3.15,-1.41 -3.15,-3.15 0,-1.73 1.41,-3.15 3.15,-3.15 1.73,0 3.15,1.41 3.15,3.15z"/>
   <path class="fil0" d="M2048.9 3974.89c0,1.07 -0.89,1.97 -1.99,1.97 -1.07,0 -1.94,-0.89 -1.94,-1.97 0,-1.07 0.84,-1.97 1.94,-1.97 1.07,0 1.99,0.89 1.99,1.97z"/>
   <path class="fil0" d="M2420.72 3814.21c0,3.7 -3.01,6.68 -6.71,6.68 -3.7,0 -6.71,-2.99 -6.71,-6.68 0,-3.7 3.01,-6.71 6.71,-6.71 3.7,0 6.71,2.99 6.71,6.71z"/>
   <path class="fil0" d="M2545.18 3610.18c0,3.25 -2.65,5.9 -5.9,5.9 -3.25,0 -5.9,-2.65 -5.9,-5.9 0,-3.25 2.65,-5.9 5.9,-5.9 3.25,0 5.9,2.65 5.9,5.9z"/>
   <path class="fil0" d="M2928.01 3510.91c0,3.25 -2.65,5.9 -5.9,5.9 -3.25,0 -5.9,-2.65 -5.9,-5.9 0,-3.25 2.65,-5.9 5.9,-5.9 3.25,0 5.9,2.65 5.9,5.9z"/>
   <path class="fil0" d="M2828.77 3709.44c0,3.25 -2.65,5.9 -5.9,5.9 -3.25,0 -5.9,-2.65 -5.9,-5.9 0,-3.25 2.65,-5.9 5.9,-5.9 3.25,0 5.9,2.65 5.9,5.9z"/>
   <path class="fil0" d="M3093.43 2981.56c0,3.28 -2.65,5.9 -5.9,5.9 -3.25,0 -5.9,-2.65 -5.9,-5.9 0,-3.25 2.65,-5.9 5.9,-5.9 3.25,0 5.9,2.65 5.9,5.9z"/>
   <path class="fil0" d="M2680.67 3930.8c0,2.83 -2.31,5.11 -5.16,5.11 -2.78,0 -5.11,-2.28 -5.11,-5.11 0,-2.83 2.31,-5.11 5.11,-5.11 2.83,0 5.16,2.28 5.16,5.11z"/>
   <path class="fil0" d="M3091.88 4256.91c0,2.83 -2.31,5.11 -5.16,5.11 -2.78,0 -5.11,-2.31 -5.11,-5.11 0,-2.83 2.31,-5.11 5.11,-5.11 2.83,0 5.16,2.31 5.16,5.11z"/>
   <line class="fil1" x1="2643.63" y1="4212.4" x2="2643.63" y2= "4212.4" />
   <path class="fil0" d="M2231.71 4335.08c0,1.63 -1.31,2.94 -2.94,2.94 -1.6,0 -2.94,-1.31 -2.94,-2.94 0,-1.63 1.31,-2.94 2.94,-2.94 1.6,0 2.94,1.31 2.94,2.94z"/>
   <path class="fil0" d="M2620.8 3253.88c0,4.56 -3.7,8.28 -8.28,8.28 -4.59,0 -8.28,-3.7 -8.28,-8.28 0,-4.56 3.7,-8.28 8.28,-8.28 4.59,0 8.28,3.7 8.28,8.28z"/>
   <path class="fil0" d="M2658.13 2211.71c0,3.98 -3.25,7.23 -7.29,7.23 -3.96,0 -7.23,-3.25 -7.23,-7.23 0,-4.01 3.25,-7.23 7.23,-7.23 4.01,0 7.29,3.25 7.29,7.23z"/>
   <path class="fil0" d="M1843.29 2176.08c0,3.93 -3.17,7.08 -7.08,7.08 -3.91,0 -7.08,-3.17 -7.08,-7.08 0,-3.91 3.17,-7.08 7.08,-7.08 3.91,0 7.08,3.17 7.08,7.08z"/>
   <path class="fil0" d="M545.69 2220.51c0,4.09 -3.3,7.39 -7.39,7.39 -4.09,0 -7.39,-3.3 -7.39,-7.39 0,-4.06 3.3,-7.39 7.39,-7.39 4.09,0 7.39,3.3 7.39,7.39z"/>
   <path class="fil0" d="M839.11 3135.87c0,4.95 -4.01,8.96 -8.96,8.96 -4.95,0 -8.96,-4.01 -8.96,-8.96 0,-4.95 4.01,-8.96 8.96,-8.96 4.95,0 8.96,4.01 8.96,8.96z"/>
   <path class="fil0" d="M248.31 3589.6c0,4.95 -4.01,8.96 -8.96,8.96 -4.95,0 -8.96,-4.01 -8.96,-8.96 0,-4.95 4.01,-8.96 8.96,-8.96 4.95,0 8.96,4.01 8.96,8.96z"/>
   <path class="fil0" d="M508.86 3445.15c0,2.62 -2.12,4.72 -4.72,4.72 -2.62,0 -4.72,-2.12 -4.72,-4.72 0,-2.62 2.12,-4.72 4.72,-4.72 2.62,0 4.72,2.12 4.72,4.72z"/>
   <path class="fil0" d="M1591.42 3011.78c0,1.68 -1.36,3.04 -3.04,3.04 -1.68,0 -3.04,-1.36 -3.04,-3.04 0,-1.68 1.36,-3.04 3.04,-3.04 1.68,0 3.04,1.36 3.04,3.04z"/>
   <path class="fil2" d="M2507.46 3960.03l-3.22 -12.61c-0.42,-1.81 -2.99,-1.84 -3.49,-0.03l-3.41 12.56c-0.18,0.63 -0.66,1.13 -1.31,1.28l-12.61 3.2c-1.78,0.47 -1.78,3.01 0,3.51l12.53 3.43c0.66,0.18 1.13,0.68 1.28,1.31l3.22 12.61c0.47,1.81 3.01,1.84 3.49,0.03l3.46 -12.56c0.13,-0.63 0.66,-1.13 1.28,-1.28l12.61 -3.2c1.78,-0.45 1.84,-3.01 0.05,-3.49l-12.58 -3.43c-0.6,-0.16 -1.13,-0.68 -1.28,-1.31l-0.03 -0.03z"/>
   <path class="fil2" d="M1339.1 2287.14l-3.2 -12.61c-0.45,-1.81 -3.01,-1.84 -3.49,-0.03l-3.43 12.56c-0.18,0.63 -0.66,1.13 -1.31,1.28l-12.61 3.2c-1.81,0.45 -1.84,3.01 -0.03,3.49l12.56 3.43c0.63,0.16 1.13,0.66 1.26,1.31l3.2 12.61c0.45,1.81 3.01,1.84 3.49,0.03l3.43 -12.56c0.16,-0.63 0.66,-1.13 1.31,-1.28l12.61 -3.2c1.81,-0.45 1.84,-3.01 0.03,-3.49l-12.56 -3.43c-0.63,-0.16 -1.13,-0.66 -1.28,-1.31l0.03 0z"/>
   <path class="fil2" d="M2521.72 2343.08l-2.75 -10.77c-0.37,-1.55 -2.6,-1.55 -2.99,-0.03l-2.94 10.72c-0.13,0.52 -0.58,0.94 -1.13,1.07l-10.77 2.73c-1.52,0.39 -1.57,2.57 0,2.99l10.72 2.94c0.52,0.13 0.94,0.58 1.07,1.1l2.7 10.77c0.42,1.55 2.6,1.55 3.01,0.03l2.88 -10.72c0.18,-0.55 0.6,-0.97 1.13,-1.1l10.77 -2.73c1.52,-0.39 1.55,-2.57 0.05,-2.99l-10.72 -2.94c-0.58,-0.13 -1,-0.58 -1.1,-1.1l0.05 0.03z"/>
   <path class="fil2" d="M3079.43 2286.36l-2.75 -10.77c-0.37,-1.55 -2.6,-1.55 -2.99,-0.03l-2.94 10.72c-0.13,0.52 -0.58,0.94 -1.13,1.1l-10.77 2.73c-1.52,0.39 -1.55,2.57 0,2.99l10.72 2.94c0.52,0.13 0.94,0.58 1.1,1.1l2.7 10.77c0.42,1.55 2.6,1.57 3.01,0.03l2.88 -10.72c0.18,-0.55 0.6,-0.97 1.13,-1.1l10.77 -2.73c1.52,-0.39 1.57,-2.57 0.05,-2.99l-10.72 -2.94c-0.58,-0.13 -1,-0.58 -1.1,-1.1l0.03 0z"/>
   <path class="fil2" d="M550.06 2455.51l-2.73 -10.77c-0.39,-1.55 -2.57,-1.57 -2.99,-0.03l-2.94 10.72c-0.16,0.52 -0.58,0.94 -1.13,1.07l-10.77 2.73c-1.55,0.39 -1.55,2.57 -0.03,2.99l10.72 2.94c0.52,0.16 0.94,0.58 1.1,1.13l2.73 10.77c0.39,1.55 2.57,1.55 2.99,0.03l2.94 -10.72c0.16,-0.55 0.58,-0.94 1.13,-1.1l10.77 -2.73c1.55,-0.39 1.55,-2.57 0.03,-2.99l-10.72 -2.94c-0.55,-0.16 -0.94,-0.58 -1.1,-1.1l0 0z"/>
   <path class="fil2" d="M63.22 3939.61l-2.73 -10.77c-0.39,-1.55 -2.57,-1.55 -2.99,-0.03l-2.94 10.72c-0.16,0.55 -0.58,0.94 -1.13,1.07l-10.77 2.73c-1.55,0.39 -1.55,2.57 -0.03,2.99l10.72 2.94c0.52,0.16 0.94,0.58 1.1,1.13l2.73 10.77c0.39,1.55 2.57,1.55 2.99,0.03l2.94 -10.72c0.16,-0.52 0.58,-0.94 1.13,-1.1l10.77 -2.73c1.55,-0.39 1.57,-2.57 0.03,-2.99l-10.72 -2.94c-0.55,-0.16 -0.94,-0.58 -1.1,-1.13l0 0.03z"/>
   <path class="fil1" d="M890.72 2955.27l-0.45 -0.29c-0.42,-0.29 -0.84,-0.58 -1.26,-0.87l-0.34 -0.24 -1 -0.71 -0.42 -0.31c-0.39,-0.29 -0.79,-0.6 -1.18,-0.92l-0.42 -0.34 -0.92 -0.73 -0.37 -0.29c-0.37,-0.31 -0.73,-0.6 -1.07,-0.92l-0.5 -0.45 -0.81 -0.73 -0.66 -0.6 -0.73 -0.68 -0.52 -0.5c-0.34,-0.31 -0.66,-0.63 -0.97,-0.94l-0.39 -0.39 -0.76 -0.76 -0.42 -0.45c-0.31,-0.34 -0.63,-0.68 -0.94,-1.02l-0.42 -0.45 -0.84 -0.94 -0.18 -0.18 -0.03 -0.03 -0.13 -0.16 -0.81 -0.97 -0.47 -0.55 -0.87 -1.07 -0.31 -0.39 -0.68 -0.89 -0.37 -0.47c-0.29,-0.39 -0.58,-0.76 -0.84,-1.15l-0.31 -0.45 -0.66 -0.97 -0.42 -0.63 -0.63 -0.97 -0.37 -0.58 -0.66 -1.07 -0.37 -0.6 -0.52 -0.89 -0.31 -0.55c-0.24,-0.39 -0.45,-0.79 -0.68,-1.21l-0.34 -0.66 -0.47 -0.87 -0.26 -0.52 -0.63 -1.28 -0.29 -0.58 -0.47 -1.02 -0.34 -0.73 -0.5 -1.15 -0.18 -0.42c-0.21,-0.47 -0.39,-0.94 -0.58,-1.41l-0.18 -0.47c-0.16,-0.42 -0.34,-0.87 -0.5,-1.28l-0.1 -0.29c-0.18,-0.5 -0.37,-1 -0.52,-1.52l-0.16 -0.47c-0.16,-0.47 -0.31,-0.97 -0.47,-1.44l-0.03 -0.1 -0.03 -0.05c-0.16,-0.52 -0.31,-1.05 -0.47,-1.57l-0.13 -0.45c-0.13,-0.5 -0.29,-1.02 -0.42,-1.55l-0.1 -0.37 -0.31 -1.28 -0.1 -0.47c-0.1,-0.52 -0.24,-1.02 -0.34,-1.55l-0.08 -0.45c-0.1,-0.47 -0.18,-0.94 -0.26,-1.41l-0.05 -0.31c-0.1,-0.55 -0.18,-1.1 -0.26,-1.65l-0.05 -0.37c-0.16,-1.13 -0.31,-2.25 -0.45,-3.41l-0.05 -0.52c-0.05,-0.55 -0.1,-1.1 -0.16,-1.68l-0.03 -0.26c-0.05,-0.55 -0.08,-1.1 -0.1,-1.65l-0.03 -0.26c-0.03,-0.58 -0.05,-1.15 -0.08,-1.76l0 -0.42c-0.03,-0.58 -0.03,-1.18 -0.03,-1.78m0.1 -4.01l0 -0.03c0.13,-2.38 0.37,-4.72 0.68,-7.05 1.91,1.26 4.01,2.7 6.29,4.35 24.82,17.72 33.08,23.64 27.18,37.82 -4.56,10.93 4.56,27.44 0.63,33.92l-0.29 -0.18"/>
   <path class="fil0" d="M986.63 4396.91c0,4.25 -3.43,7.68 -7.68,7.68 -4.25,0 -7.68,-3.43 -7.68,-7.68 0,-4.25 3.43,-7.68 7.68,-7.68 4.25,0 7.68,3.43 7.68,7.68z"/>
   <path class="fil0" d="M93.32 4477.25c0,4.25 -3.43,7.68 -7.68,7.68 -4.25,0 -7.68,-3.43 -7.68,-7.68 0,-4.25 3.43,-7.68 7.68,-7.68 4.25,0 7.68,3.43 7.68,7.68z"/>
   <path class="fil0" d="M1999.83 4627.4c0,4.06 -3.3,7.37 -7.37,7.37 -4.09,0 -7.37,-3.3 -7.37,-7.37 0,-4.06 3.3,-7.37 7.37,-7.37 4.06,0 7.37,3.3 7.37,7.37z"/>
   <path class="fil0" d="M2289.74 4387.95c0,4.95 -4.01,8.96 -8.99,8.96 -4.93,0 -8.94,-4.01 -8.94,-8.96 0,-4.95 4.01,-8.96 8.94,-8.96 4.95,0 8.99,4.01 8.99,8.96z"/>
   <path class="fil0" d="M2378.94 4373.45c0,3.04 -2.46,5.53 -5.48,5.53 -3.07,0 -5.53,-2.46 -5.53,-5.53 0,-3.04 2.46,-5.51 5.53,-5.51 3.01,0 5.48,2.46 5.48,5.51z"/>
   <path class="fil0" d="M1784.21 5029.25c0,2.38 -1.94,4.32 -4.32,4.32 -2.38,0 -4.32,-1.94 -4.32,-4.32 0,-2.38 1.94,-4.32 4.32,-4.32 2.38,0 4.32,1.94 4.32,4.32z"/>
   <path class="fil0" d="M1936.24 4980.03c0,2.18 -1.76,3.93 -3.93,3.93 -2.18,0 -3.93,-1.76 -3.93,-3.93 0,-2.18 1.76,-3.93 3.93,-3.93 2.18,0 3.93,1.76 3.93,3.93z"/>
   <path class="fil0" d="M1426.57 4962.31c0,3.7 -2.99,6.68 -6.68,6.68 -3.7,0 -6.71,-2.99 -6.71,-6.68 0,-3.7 3.01,-6.71 6.71,-6.71 3.7,0 6.68,2.99 6.68,6.71z"/>
   <path class="fil0" d="M1178.42 4980.03c0,2.18 -1.76,3.93 -3.93,3.93 -2.18,0 -3.93,-1.76 -3.93,-3.93 0,-2.18 1.76,-3.93 3.93,-3.93 2.18,0 3.93,1.76 3.93,3.93z"/>
   <path class="fil0" d="M1182.38 4799.24c0,3.25 -2.65,5.9 -5.9,5.9 -3.25,0 -5.9,-2.65 -5.9,-5.9 0,-3.25 2.65,-5.9 5.9,-5.9 3.25,0 5.9,2.65 5.9,5.9z"/>
   <path class="fil0" d="M764.22 5056.38c0,1.7 -1.39,3.09 -3.09,3.09 -1.7,0 -3.09,-1.39 -3.09,-3.09 0,-1.7 1.39,-3.09 3.09,-3.09 1.7,0 3.09,1.39 3.09,3.09z"/>
   <path class="fil0" d="M821.2 4958.95c0,1.84 -1.49,3.35 -3.35,3.35 -1.86,0 -3.35,-1.49 -3.35,-3.35 0,-1.86 1.49,-3.35 3.35,-3.35 1.84,0 3.35,1.49 3.35,3.35z"/>
   <path class="fil0" d="M601.81 4907.55c0,1.31 -1.05,2.36 -2.36,2.36 -1.31,0 -2.36,-1.05 -2.36,-2.36 0,-1.31 1.07,-2.36 2.36,-2.36 1.31,0 2.36,1.05 2.36,2.36z"/>
   <path class="fil0" d="M207.94 4928.02c0,1.31 -1.05,2.36 -2.36,2.36 -1.31,0 -2.36,-1.05 -2.36,-2.36 0,-1.31 1.05,-2.36 2.36,-2.36 1.31,0 2.36,1.05 2.36,2.36z"/>
   <path class="fil0" d="M597.09 5128.91c0,2.62 -2.12,4.72 -4.72,4.72 -2.62,0 -4.72,-2.12 -4.72,-4.72 0,-2.62 2.12,-4.72 4.72,-4.72 2.62,0 4.72,2.12 4.72,4.72z"/>
   <path class="fil0" d="M207.94 5058.01c0,2.62 -2.12,4.72 -4.72,4.72 -2.62,0 -4.72,-2.12 -4.72,-4.72 0,-2.62 2.12,-4.72 4.72,-4.72 2.62,0 4.72,2.12 4.72,4.72z"/>
   <path class="fil0" d="M9.44 4727.16c0,2.62 -2.12,4.72 -4.72,4.72 -2.62,0 -4.72,-2.12 -4.72,-4.72 0,-2.62 2.12,-4.72 4.72,-4.72 2.62,0 4.72,2.12 4.72,4.72z"/>
   <path class="fil0" d="M1164.84 5237.04c0,6.42 -5.22,11.61 -11.61,11.61 -6.42,0 -11.61,-5.19 -11.61,-11.61 0,-6.42 5.22,-11.61 11.61,-11.61 6.42,0 11.61,5.19 11.61,11.61z"/>
   <path class="fil0" d="M403.88 5312.66c0,6.42 -5.22,11.61 -11.61,11.61 -6.42,0 -11.61,-5.19 -11.61,-11.61 0,-6.42 5.22,-11.61 11.61,-11.61 6.42,0 11.61,5.19 11.61,11.61z"/>
   <path class="fil0" d="M2368.72 5094.65c0,1.97 -1.6,3.54 -3.54,3.54 -1.99,0 -3.54,-1.6 -3.54,-3.54 0,-1.97 1.55,-3.54 3.54,-3.54 1.94,0 3.54,1.6 3.54,3.54z"/>
   <path class="fil0" d="M2593.14 4764.3c0,9.99 -8.07,18.09 -18.06,18.09 -10.01,0 -18.11,-8.1 -18.11,-18.09 0,-9.99 8.07,-18.09 18.11,-18.09 9.96,0 18.06,8.1 18.06,18.09z"/>
   <path class="fil0" d="M3113.04 5459.08c0,9.99 -8.07,18.09 -18.06,18.09 -10.01,0 -18.11,-8.1 -18.11,-18.09 0,-9.99 8.07,-18.09 18.11,-18.09 9.96,0 18.06,8.1 18.06,18.09z"/>
   <path class="fil0" d="M2629.45 5142.31c0,4.8 -3.88,8.68 -8.65,8.68 -4.77,0 -8.65,-3.88 -8.65,-8.68 0,-4.77 3.88,-8.68 8.65,-8.68 4.77,0 8.65,3.88 8.65,8.68z"/>
   <path class="fil0" d="M2998.1 4721.65c0,4.77 -3.88,8.65 -8.65,8.65 -4.77,0 -8.65,-3.88 -8.65,-8.65 0,-4.8 3.88,-8.68 8.65,-8.68 4.77,0 8.65,3.88 8.65,8.68z"/>
   <path class="fil0" d="M138.61 5359.71c0,4.8 -3.88,8.68 -8.65,8.68 -4.8,0 -8.68,-3.88 -8.68,-8.68 0,-4.77 3.88,-8.68 8.68,-8.68 4.8,0 8.65,3.88 8.65,8.68z"/>
   <path class="fil0" d="M2125.31 5436.91c0,2.18 -1.81,3.93 -3.96,3.93 -2.18,0 -3.93,-1.76 -3.93,-3.93 0,-2.18 1.76,-3.93 3.93,-3.93 2.18,0 3.96,1.76 3.96,3.93z"/>
   <path class="fil0" d="M2214.35 5395.54c0,1.07 -0.84,1.94 -1.94,1.94 -1.1,0 -1.94,-0.87 -1.94,-1.94 0,-1.07 0.84,-1.94 1.94,-1.94 1.07,0 1.94,0.87 1.94,1.94z"/>
   <path class="fil0" d="M1859.83 5779.18c0,8.26 -6.71,14.97 -14.97,14.97 -8.26,0 -14.97,-6.71 -14.97,-14.97 0,-8.26 6.71,-14.97 14.97,-14.97 8.26,0 14.97,6.71 14.97,14.97z"/>
   <path class="fil0" d="M54.34 6440.88c0,8.26 -6.71,14.97 -14.97,14.97 -8.26,0 -14.97,-6.71 -14.97,-14.97 0,-8.26 6.71,-14.97 14.97,-14.97 8.26,0 14.97,6.71 14.97,14.97z"/>
   <path class="fil0" d="M2007.72 5304.88c0,2.18 -1.76,3.93 -3.93,3.93 -2.18,0 -3.93,-1.76 -3.93,-3.93 0,-2.18 1.76,-3.93 3.93,-3.93 2.18,0 3.93,1.76 3.93,3.93z"/>
   <path class="fil0" d="M1400.57 5710.64c0,1.73 -1.41,3.15 -3.15,3.15 -1.73,0 -3.15,-1.41 -3.15,-3.15 0,-1.73 1.41,-3.15 3.15,-3.15 1.73,0 3.15,1.41 3.15,3.15z"/>
   <line class="fil1" x1="1410.03" y1="5806.76" x2="1410.03" y2= "5806.76" />
   <path class="fil0" d="M1094.94 5772.11c0,4.35 -3.54,7.89 -7.89,7.89 -4.35,0 -7.89,-3.54 -7.89,-7.89 0,-4.35 3.54,-7.86 7.89,-7.86 4.35,0 7.89,3.54 7.89,7.86z"/>
   <path class="fil0" d="M310.35 6268.38c0,4.35 -3.51,7.89 -7.89,7.89 -4.35,0 -7.89,-3.54 -7.89,-7.89 0,-4.35 3.54,-7.86 7.89,-7.86 4.35,0 7.89,3.54 7.89,7.86z"/>
   <path class="fil0" d="M1295.8 5755.96c0,2.38 -1.94,4.32 -4.32,4.32 -2.38,0 -4.32,-1.94 -4.32,-4.32 0,-2.38 1.94,-4.32 4.32,-4.32 2.38,0 4.32,1.94 4.32,4.32z"/>
   <path class="fil0" d="M1375.38 6019.05c0,2.62 -2.12,4.72 -4.72,4.72 -2.62,0 -4.72,-2.12 -4.72,-4.72 0,-2.62 2.12,-4.72 4.72,-4.72 2.62,0 4.72,2.12 4.72,4.72z"/>
   <line class="fil1" x1="1082.33" y1="5861.52" x2="1082.33" y2= "5861.52" />
   <path class="fil0" d="M758.06 5838.79c0,5.74 -4.64,10.38 -10.38,10.38 -5.74,0 -10.38,-4.64 -10.38,-10.38 0,-5.74 4.64,-10.38 10.38,-10.38 5.74,0 10.38,4.64 10.38,10.38z"/>
   <path class="fil0" d="M898.79 5757.14c0,3.25 -2.65,5.9 -5.9,5.9 -3.25,0 -5.9,-2.65 -5.9,-5.9 0,-3.25 2.65,-5.9 5.9,-5.9 3.25,0 5.9,2.65 5.9,5.9z"/>
   <path class="fil0" d="M594.73 5997.4c0,3.7 -2.99,6.71 -6.68,6.71 -3.7,0 -6.68,-2.99 -6.68,-6.71 0,-3.7 2.99,-6.71 6.68,-6.71 3.7,0 6.68,2.99 6.68,6.71z"/>
   <path class="fil0" d="M604.45 6227.12c0,2.7 -2.18,4.88 -4.88,4.88 -2.67,0 -4.88,-2.18 -4.88,-4.88 0,-2.67 2.18,-4.88 4.88,-4.88 2.7,0 4.88,2.18 4.88,4.88z"/>
   <path class="fil0" d="M747.62 6281.49c0,4.27 -3.46,7.76 -7.76,7.76 -4.27,0 -7.76,-3.46 -7.76,-7.76 0,-4.27 3.46,-7.73 7.76,-7.73 4.27,0 7.76,3.46 7.76,7.73z"/>
   <path class="fil0" d="M762.64 6394.75c0,1.26 -1.02,2.31 -2.31,2.31 -1.28,0 -2.31,-1.02 -2.31,-2.31 0,-1.26 1.02,-2.31 2.31,-2.31 1.28,0 2.31,1.02 2.31,2.31z"/>
   <path class="fil0" d="M573.44 6473.57c0,8.7 -7.05,15.75 -15.75,15.75 -8.7,0 -15.75,-7.05 -15.75,-15.75 0,-8.7 7.05,-15.75 15.75,-15.75 8.7,0 15.75,7.05 15.75,15.75z"/>
   <path class="fil0" d="M1216.25 6178.19c0,6.08 -4.93,11.04 -11.04,11.04 -6.08,0 -11.04,-4.93 -11.04,-11.04 0,-6.08 4.93,-11.04 11.04,-11.04 6.08,0 11.04,4.93 11.04,11.04z"/>
   <path class="fil0" d="M1343.66 6299.02c0,1.26 -1.02,2.25 -2.25,2.25 -1.26,0 -2.25,-1.02 -2.25,-2.25 0,-1.23 1.02,-2.25 2.25,-2.25 1.23,0 2.25,1.02 2.25,2.25z"/>
   <path class="fil0" d="M1675.51 6358.97c0,5.87 -4.77,10.64 -10.64,10.64 -5.87,0 -10.64,-4.77 -10.64,-10.64 0,-5.87 4.77,-10.64 10.64,-10.64 5.87,0 10.64,4.77 10.64,10.64z"/>
   <path class="fil0" d="M2068.59 5887.49c0,3.91 -3.17,7.08 -7.08,7.08 -3.93,0 -7.08,-3.17 -7.08,-7.08 0,-3.91 3.17,-7.08 7.08,-7.08 3.93,0 7.08,3.17 7.08,7.08z"/>
   <path class="fil0" d="M2264.55 5687.13c0,3.75 -3.07,6.79 -6.82,6.79 -3.77,0 -6.82,-3.04 -6.82,-6.79 0,-3.75 3.01,-6.79 6.82,-6.79 3.72,0 6.82,3.04 6.82,6.79z"/>
   <path class="fil0" d="M1851.16 6015.9c0,1.73 -1.41,3.15 -3.15,3.15 -1.73,0 -3.15,-1.41 -3.15,-3.15 0,-1.73 1.41,-3.15 3.15,-3.15 1.73,0 3.15,1.41 3.15,3.15z"/>
   <path class="fil0" d="M2048.9 6143.9c0,1.07 -0.89,1.97 -1.99,1.97 -1.07,0 -1.94,-0.89 -1.94,-1.97 0,-1.07 0.84,-1.97 1.94,-1.97 1.07,0 1.99,0.89 1.99,1.97z"/>
   <path class="fil0" d="M2420.72 5983.22c0,3.7 -3.01,6.68 -6.71,6.68 -3.7,0 -6.71,-2.99 -6.71,-6.68 0,-3.7 3.01,-6.71 6.71,-6.71 3.7,0 6.71,2.99 6.71,6.71z"/>
   <path class="fil0" d="M2545.18 5779.18c0,3.25 -2.65,5.9 -5.9,5.9 -3.25,0 -5.9,-2.65 -5.9,-5.9 0,-3.25 2.65,-5.9 5.9,-5.9 3.25,0 5.9,2.65 5.9,5.9z"/>
   <path class="fil0" d="M2928.01 5679.92c0,3.25 -2.65,5.9 -5.9,5.9 -3.25,0 -5.9,-2.65 -5.9,-5.9 0,-3.25 2.65,-5.9 5.9,-5.9 3.25,0 5.9,2.65 5.9,5.9z"/>
   <path class="fil0" d="M2828.77 5878.45c0,3.25 -2.65,5.9 -5.9,5.9 -3.25,0 -5.9,-2.65 -5.9,-5.9 0,-3.25 2.65,-5.9 5.9,-5.9 3.25,0 5.9,2.65 5.9,5.9z"/>
   <path class="fil0" d="M3093.43 5150.56c0,3.28 -2.65,5.9 -5.9,5.9 -3.25,0 -5.9,-2.65 -5.9,-5.9 0,-3.25 2.65,-5.9 5.9,-5.9 3.25,0 5.9,2.65 5.9,5.9z"/>
   <path class="fil0" d="M2680.67 6099.81c0,2.83 -2.31,5.11 -5.16,5.11 -2.78,0 -5.11,-2.28 -5.11,-5.11 0,-2.83 2.31,-5.11 5.11,-5.11 2.83,0 5.16,2.28 5.16,5.11z"/>
   <path class="fil0" d="M3091.88 6425.92c0,2.83 -2.31,5.11 -5.16,5.11 -2.78,0 -5.11,-2.31 -5.11,-5.11 0,-2.83 2.31,-5.11 5.11,-5.11 2.83,0 5.16,2.31 5.16,5.11z"/>
   <line class="fil1" x1="2643.63" y1="6381.41" x2="2643.63" y2= "6381.41" />
   <path class="fil0" d="M2231.71 6504.08c0,1.63 -1.31,2.94 -2.94,2.94 -1.6,0 -2.94,-1.31 -2.94,-2.94 0,-1.63 1.31,-2.94 2.94,-2.94 1.6,0 2.94,1.31 2.94,2.94z"/>
   <path class="fil0" d="M2620.8 5422.88c0,4.56 -3.7,8.28 -8.28,8.28 -4.59,0 -8.28,-3.7 -8.28,-8.28 0,-4.56 3.7,-8.28 8.28,-8.28 4.59,0 8.28,3.7 8.28,8.28z"/>
   <path class="fil0" d="M2658.13 4380.71c0,3.98 -3.25,7.23 -7.29,7.23 -3.96,0 -7.23,-3.25 -7.23,-7.23 0,-4.01 3.25,-7.23 7.23,-7.23 4.01,0 7.29,3.25 7.29,7.23z"/>
   <path class="fil0" d="M1843.29 4345.09c0,3.93 -3.17,7.08 -7.08,7.08 -3.91,0 -7.08,-3.17 -7.08,-7.08 0,-3.91 3.17,-7.08 7.08,-7.08 3.91,0 7.08,3.17 7.08,7.08z"/>
   <path class="fil0" d="M545.69 4389.52c0,4.09 -3.3,7.39 -7.39,7.39 -4.09,0 -7.39,-3.3 -7.39,-7.39 0,-4.06 3.3,-7.39 7.39,-7.39 4.09,0 7.39,3.3 7.39,7.39z"/>
   <path class="fil0" d="M839.11 5304.88c0,4.95 -4.01,8.96 -8.96,8.96 -4.95,0 -8.96,-4.01 -8.96,-8.96 0,-4.95 4.01,-8.96 8.96,-8.96 4.95,0 8.96,4.01 8.96,8.96z"/>
   <path class="fil0" d="M248.31 5758.61c0,4.95 -4.01,8.96 -8.96,8.96 -4.95,0 -8.96,-4.01 -8.96,-8.96 0,-4.95 4.01,-8.96 8.96,-8.96 4.95,0 8.96,4.01 8.96,8.96z"/>
   <path class="fil0" d="M508.86 5614.15c0,2.62 -2.12,4.72 -4.72,4.72 -2.62,0 -4.72,-2.12 -4.72,-4.72 0,-2.62 2.12,-4.72 4.72,-4.72 2.62,0 4.72,2.12 4.72,4.72z"/>
   <path class="fil0" d="M1591.42 5180.79c0,1.68 -1.36,3.04 -3.04,3.04 -1.68,0 -3.04,-1.36 -3.04,-3.04 0,-1.68 1.36,-3.04 3.04,-3.04 1.68,0 3.04,1.36 3.04,3.04z"/>
   <path class="fil2" d="M2507.46 6129.04l-3.22 -12.61c-0.42,-1.81 -2.99,-1.84 -3.49,-0.03l-3.41 12.56c-0.18,0.63 -0.66,1.13 -1.31,1.28l-12.61 3.2c-1.78,0.47 -1.78,3.01 0,3.51l12.53 3.43c0.66,0.18 1.13,0.68 1.28,1.31l3.22 12.61c0.47,1.81 3.01,1.84 3.49,0.03l3.46 -12.56c0.13,-0.63 0.66,-1.13 1.28,-1.28l12.61 -3.2c1.78,-0.45 1.84,-3.01 0.05,-3.49l-12.58 -3.43c-0.6,-0.16 -1.13,-0.68 -1.28,-1.31l-0.03 -0.03z"/>
   <path class="fil2" d="M1339.1 4456.15l-3.2 -12.61c-0.45,-1.81 -3.01,-1.84 -3.49,-0.03l-3.43 12.56c-0.18,0.63 -0.66,1.13 -1.31,1.28l-12.61 3.2c-1.81,0.45 -1.84,3.01 -0.03,3.49l12.56 3.43c0.63,0.16 1.13,0.66 1.26,1.31l3.2 12.61c0.45,1.81 3.01,1.84 3.49,0.03l3.43 -12.56c0.16,-0.63 0.66,-1.13 1.31,-1.28l12.61 -3.2c1.81,-0.45 1.84,-3.01 0.03,-3.49l-12.56 -3.43c-0.63,-0.16 -1.13,-0.66 -1.28,-1.31l0.03 0z"/>
   <path class="fil2" d="M2521.72 4512.09l-2.75 -10.77c-0.37,-1.55 -2.6,-1.55 -2.99,-0.03l-2.94 10.72c-0.13,0.52 -0.58,0.94 -1.13,1.07l-10.77 2.73c-1.52,0.39 -1.57,2.57 0,2.99l10.72 2.94c0.52,0.13 0.94,0.58 1.07,1.1l2.7 10.77c0.42,1.55 2.6,1.55 3.01,0.03l2.88 -10.72c0.18,-0.55 0.6,-0.97 1.13,-1.1l10.77 -2.73c1.52,-0.39 1.55,-2.57 0.05,-2.99l-10.72 -2.94c-0.58,-0.13 -1,-0.58 -1.1,-1.1l0.05 0.03z"/>
   <path class="fil2" d="M3079.43 4455.36l-2.75 -10.77c-0.37,-1.55 -2.6,-1.55 -2.99,-0.03l-2.94 10.72c-0.13,0.52 -0.58,0.94 -1.13,1.1l-10.77 2.73c-1.52,0.39 -1.55,2.57 0,2.99l10.72 2.94c0.52,0.13 0.94,0.58 1.1,1.1l2.7 10.77c0.42,1.55 2.6,1.57 3.01,0.03l2.88 -10.72c0.18,-0.55 0.6,-0.97 1.13,-1.1l10.77 -2.73c1.52,-0.39 1.57,-2.57 0.05,-2.99l-10.72 -2.94c-0.58,-0.13 -1,-0.58 -1.1,-1.1l0.03 0z"/>
   <path class="fil2" d="M550.06 4624.51l-2.73 -10.77c-0.39,-1.55 -2.57,-1.57 -2.99,-0.03l-2.94 10.72c-0.16,0.52 -0.58,0.94 -1.13,1.07l-10.77 2.73c-1.55,0.39 -1.55,2.57 -0.03,2.99l10.72 2.94c0.52,0.16 0.94,0.58 1.1,1.13l2.73 10.77c0.39,1.55 2.57,1.55 2.99,0.03l2.94 -10.72c0.16,-0.55 0.58,-0.94 1.13,-1.1l10.77 -2.73c1.55,-0.39 1.55,-2.57 0.03,-2.99l-10.72 -2.94c-0.55,-0.16 -0.94,-0.58 -1.1,-1.1l0 0z"/>
   <path class="fil2" d="M63.22 6108.62l-2.73 -10.77c-0.39,-1.55 -2.57,-1.55 -2.99,-0.03l-2.94 10.72c-0.16,0.55 -0.58,0.94 -1.13,1.07l-10.77 2.73c-1.55,0.39 -1.55,2.57 -0.03,2.99l10.72 2.94c0.52,0.16 0.94,0.58 1.1,1.13l2.73 10.77c0.39,1.55 2.57,1.55 2.99,0.03l2.94 -10.72c0.16,-0.52 0.58,-0.94 1.13,-1.1l10.77 -2.73c1.55,-0.39 1.57,-2.57 0.03,-2.99l-10.72 -2.94c-0.55,-0.16 -0.94,-0.58 -1.1,-1.13l0 0.03z"/>
   <path class="fil1" d="M890.72 5124.27l-0.45 -0.29c-0.42,-0.29 -0.84,-0.58 -1.26,-0.87l-0.34 -0.24 -1 -0.71 -0.42 -0.31c-0.39,-0.29 -0.79,-0.6 -1.18,-0.92l-0.42 -0.34 -0.92 -0.73 -0.37 -0.29c-0.37,-0.31 -0.73,-0.6 -1.07,-0.92l-0.5 -0.45 -0.81 -0.73 -0.66 -0.6 -0.73 -0.68 -0.52 -0.5c-0.34,-0.31 -0.66,-0.63 -0.97,-0.94l-0.39 -0.39 -0.76 -0.76 -0.42 -0.45c-0.31,-0.34 -0.63,-0.68 -0.94,-1.02l-0.42 -0.45 -0.84 -0.94 -0.18 -0.18 -0.03 -0.03 -0.13 -0.16 -0.81 -0.97 -0.47 -0.55 -0.87 -1.07 -0.31 -0.39 -0.68 -0.89 -0.37 -0.47c-0.29,-0.39 -0.58,-0.76 -0.84,-1.15l-0.31 -0.45 -0.66 -0.97 -0.42 -0.63 -0.63 -0.97 -0.37 -0.58 -0.66 -1.07 -0.37 -0.6 -0.52 -0.89 -0.31 -0.55c-0.24,-0.39 -0.45,-0.79 -0.68,-1.21l-0.34 -0.66 -0.47 -0.87 -0.26 -0.52 -0.63 -1.28 -0.29 -0.58 -0.47 -1.02 -0.34 -0.73 -0.5 -1.15 -0.18 -0.42c-0.21,-0.47 -0.39,-0.94 -0.58,-1.41l-0.18 -0.47c-0.16,-0.42 -0.34,-0.87 -0.5,-1.28l-0.1 -0.29c-0.18,-0.5 -0.37,-1 -0.52,-1.52l-0.16 -0.47c-0.16,-0.47 -0.31,-0.97 -0.47,-1.44l-0.03 -0.1 -0.03 -0.05c-0.16,-0.52 -0.31,-1.05 -0.47,-1.57l-0.13 -0.45c-0.13,-0.5 -0.29,-1.02 -0.42,-1.55l-0.1 -0.37 -0.31 -1.28 -0.1 -0.47c-0.1,-0.52 -0.24,-1.02 -0.34,-1.55l-0.08 -0.45c-0.1,-0.47 -0.18,-0.94 -0.26,-1.41l-0.05 -0.31c-0.1,-0.55 -0.18,-1.1 -0.26,-1.65l-0.05 -0.37c-0.16,-1.13 -0.31,-2.25 -0.45,-3.41l-0.05 -0.52c-0.05,-0.55 -0.1,-1.1 -0.16,-1.68l-0.03 -0.26c-0.05,-0.55 -0.08,-1.1 -0.1,-1.65l-0.03 -0.26c-0.03,-0.58 -0.05,-1.15 -0.08,-1.76l0 -0.42c-0.03,-0.58 -0.03,-1.18 -0.03,-1.78m0.1 -4.01l0 -0.03c0.13,-2.38 0.37,-4.72 0.68,-7.05 1.91,1.26 4.01,2.7 6.29,4.35 24.82,17.72 33.08,23.64 27.18,37.82 -4.56,10.93 4.56,27.44 0.63,33.92l-0.29 -0.18"/>
   <path class="fil0" d="M986.63 6565.92c0,4.25 -3.43,7.68 -7.68,7.68 -4.25,0 -7.68,-3.43 -7.68,-7.68 0,-4.25 3.43,-7.68 7.68,-7.68 4.25,0 7.68,3.43 7.68,7.68z"/>
   <path class="fil0" d="M93.32 6646.26c0,4.25 -3.43,7.68 -7.68,7.68 -4.25,0 -7.68,-3.43 -7.68,-7.68 0,-4.25 3.43,-7.68 7.68,-7.68 4.25,0 7.68,3.43 7.68,7.68z"/>
   <path class="fil0" d="M1999.83 6796.4c0,4.06 -3.3,7.37 -7.37,7.37 -4.09,0 -7.37,-3.3 -7.37,-7.37 0,-4.06 3.3,-7.37 7.37,-7.37 4.06,0 7.37,3.3 7.37,7.37z"/>
   <path class="fil0" d="M2289.74 6556.95c0,4.95 -4.01,8.96 -8.99,8.96 -4.93,0 -8.94,-4.01 -8.94,-8.96 0,-4.95 4.01,-8.96 8.94,-8.96 4.95,0 8.99,4.01 8.99,8.96z"/>
   <path class="fil0" d="M2378.94 6542.46c0,3.04 -2.46,5.53 -5.48,5.53 -3.07,0 -5.53,-2.46 -5.53,-5.53 0,-3.04 2.46,-5.51 5.53,-5.51 3.01,0 5.48,2.46 5.48,5.51z"/>
   <path class="fil0" d="M1784.21 7198.26c0,2.38 -1.94,4.32 -4.32,4.32 -2.38,0 -4.32,-1.94 -4.32,-4.32 0,-2.38 1.94,-4.32 4.32,-4.32 2.38,0 4.32,1.94 4.32,4.32z"/>
   <path class="fil0" d="M1936.24 7149.03c0,2.18 -1.76,3.93 -3.93,3.93 -2.18,0 -3.93,-1.76 -3.93,-3.93 0,-2.18 1.76,-3.93 3.93,-3.93 2.18,0 3.93,1.76 3.93,3.93z"/>
   <path class="fil0" d="M1426.57 7131.31c0,3.7 -2.99,6.68 -6.68,6.68 -3.7,0 -6.71,-2.99 -6.71,-6.68 0,-3.7 3.01,-6.71 6.71,-6.71 3.7,0 6.68,2.99 6.68,6.71z"/>
   <path class="fil0" d="M1178.42 7149.03c0,2.18 -1.76,3.93 -3.93,3.93 -2.18,0 -3.93,-1.76 -3.93,-3.93 0,-2.18 1.76,-3.93 3.93,-3.93 2.18,0 3.93,1.76 3.93,3.93z"/>
   <path class="fil0" d="M1182.38 6968.25c0,3.25 -2.65,5.9 -5.9,5.9 -3.25,0 -5.9,-2.65 -5.9,-5.9 0,-3.25 2.65,-5.9 5.9,-5.9 3.25,0 5.9,2.65 5.9,5.9z"/>
   <path class="fil0" d="M764.22 7225.39c0,1.7 -1.39,3.09 -3.09,3.09 -1.7,0 -3.09,-1.39 -3.09,-3.09 0,-1.7 1.39,-3.09 3.09,-3.09 1.7,0 3.09,1.39 3.09,3.09z"/>
   <path class="fil0" d="M821.2 7127.96c0,1.84 -1.49,3.35 -3.35,3.35 -1.86,0 -3.35,-1.49 -3.35,-3.35 0,-1.86 1.49,-3.35 3.35,-3.35 1.84,0 3.35,1.49 3.35,3.35z"/>
   <path class="fil0" d="M601.81 7076.56c0,1.31 -1.05,2.36 -2.36,2.36 -1.31,0 -2.36,-1.05 -2.36,-2.36 0,-1.31 1.07,-2.36 2.36,-2.36 1.31,0 2.36,1.05 2.36,2.36z"/>
   <path class="fil0" d="M207.94 7097.03c0,1.31 -1.05,2.36 -2.36,2.36 -1.31,0 -2.36,-1.05 -2.36,-2.36 0,-1.31 1.05,-2.36 2.36,-2.36 1.31,0 2.36,1.05 2.36,2.36z"/>
   <path class="fil0" d="M597.09 7297.92c0,2.62 -2.12,4.72 -4.72,4.72 -2.62,0 -4.72,-2.12 -4.72,-4.72 0,-2.62 2.12,-4.72 4.72,-4.72 2.62,0 4.72,2.12 4.72,4.72z"/>
   <path class="fil0" d="M207.94 7227.02c0,2.62 -2.12,4.72 -4.72,4.72 -2.62,0 -4.72,-2.12 -4.72,-4.72 0,-2.62 2.12,-4.72 4.72,-4.72 2.62,0 4.72,2.12 4.72,4.72z"/>
   <path class="fil0" d="M9.44 6896.16c0,2.62 -2.12,4.72 -4.72,4.72 -2.62,0 -4.72,-2.12 -4.72,-4.72 0,-2.62 2.12,-4.72 4.72,-4.72 2.62,0 4.72,2.12 4.72,4.72z"/>
   <path class="fil0" d="M1164.84 7406.04c0,6.42 -5.22,11.61 -11.61,11.61 -6.42,0 -11.61,-5.19 -11.61,-11.61 0,-6.42 5.22,-11.61 11.61,-11.61 6.42,0 11.61,5.19 11.61,11.61z"/>
   <path class="fil0" d="M403.88 7481.67c0,6.42 -5.22,11.61 -11.61,11.61 -6.42,0 -11.61,-5.19 -11.61,-11.61 0,-6.42 5.22,-11.61 11.61,-11.61 6.42,0 11.61,5.19 11.61,11.61z"/>
   <path class="fil0" d="M2368.72 7263.66c0,1.97 -1.6,3.54 -3.54,3.54 -1.99,0 -3.54,-1.6 -3.54,-3.54 0,-1.97 1.55,-3.54 3.54,-3.54 1.94,0 3.54,1.6 3.54,3.54z"/>
   <path class="fil0" d="M2593.14 6933.31c0,9.99 -8.07,18.09 -18.06,18.09 -10.01,0 -18.11,-8.1 -18.11,-18.09 0,-9.99 8.07,-18.09 18.11,-18.09 9.96,0 18.06,8.1 18.06,18.09z"/>
   <path class="fil0" d="M3113.04 7628.09c0,9.99 -8.07,18.09 -18.06,18.09 -10.01,0 -18.11,-8.1 -18.11,-18.09 0,-9.99 8.07,-18.09 18.11,-18.09 9.96,0 18.06,8.1 18.06,18.09z"/>
   <path class="fil0" d="M2629.45 7311.31c0,4.8 -3.88,8.68 -8.65,8.68 -4.77,0 -8.65,-3.88 -8.65,-8.68 0,-4.77 3.88,-8.68 8.65,-8.68 4.77,0 8.65,3.88 8.65,8.68z"/>
   <path class="fil0" d="M2998.1 6890.66c0,4.77 -3.88,8.65 -8.65,8.65 -4.77,0 -8.65,-3.88 -8.65,-8.65 0,-4.8 3.88,-8.68 8.65,-8.68 4.77,0 8.65,3.88 8.65,8.68z"/>
   <path class="fil0" d="M138.61 7528.72c0,4.8 -3.88,8.68 -8.65,8.68 -4.8,0 -8.68,-3.88 -8.68,-8.68 0,-4.77 3.88,-8.68 8.68,-8.68 4.8,0 8.65,3.88 8.65,8.68z"/>
   <path class="fil0" d="M2125.31 7605.91c0,2.18 -1.81,3.93 -3.96,3.93 -2.18,0 -3.93,-1.76 -3.93,-3.93 0,-2.18 1.76,-3.93 3.93,-3.93 2.18,0 3.96,1.76 3.96,3.93z"/>
   <path class="fil0" d="M2214.35 7564.55c0,1.07 -0.84,1.94 -1.94,1.94 -1.1,0 -1.94,-0.87 -1.94,-1.94 0,-1.07 0.84,-1.94 1.94,-1.94 1.07,0 1.94,0.87 1.94,1.94z"/>
   <path class="fil0" d="M1859.83 7948.19c0,8.26 -6.71,14.97 -14.97,14.97 -8.26,0 -14.97,-6.71 -14.97,-14.97 0,-8.26 6.71,-14.97 14.97,-14.97 8.26,0 14.97,6.71 14.97,14.97z"/>
   <path class="fil0" d="M54.34 8609.89c0,8.26 -6.71,14.97 -14.97,14.97 -8.26,0 -14.97,-6.71 -14.97,-14.97 0,-8.26 6.71,-14.97 14.97,-14.97 8.26,0 14.97,6.71 14.97,14.97z"/>
   <path class="fil0" d="M2007.72 7473.88c0,2.18 -1.76,3.93 -3.93,3.93 -2.18,0 -3.93,-1.76 -3.93,-3.93 0,-2.18 1.76,-3.93 3.93,-3.93 2.18,0 3.93,1.76 3.93,3.93z"/>
   <path class="fil0" d="M1400.57 7879.65c0,1.73 -1.41,3.15 -3.15,3.15 -1.73,0 -3.15,-1.41 -3.15,-3.15 0,-1.73 1.41,-3.15 3.15,-3.15 1.73,0 3.15,1.41 3.15,3.15z"/>
   <line class="fil1" x1="1410.03" y1="7975.77" x2="1410.03" y2= "7975.77" />
   <path class="fil0" d="M1094.94 7941.11c0,4.35 -3.54,7.89 -7.89,7.89 -4.35,0 -7.89,-3.54 -7.89,-7.89 0,-4.35 3.54,-7.86 7.89,-7.86 4.35,0 7.89,3.54 7.89,7.86z"/>
   <path class="fil0" d="M310.35 8437.39c0,4.35 -3.51,7.89 -7.89,7.89 -4.35,0 -7.89,-3.54 -7.89,-7.89 0,-4.35 3.54,-7.86 7.89,-7.86 4.35,0 7.89,3.54 7.89,7.86z"/>
   <path class="fil0" d="M1295.8 7924.97c0,2.38 -1.94,4.32 -4.32,4.32 -2.38,0 -4.32,-1.94 -4.32,-4.32 0,-2.38 1.94,-4.32 4.32,-4.32 2.38,0 4.32,1.94 4.32,4.32z"/>
   <path class="fil0" d="M1375.38 8188.06c0,2.62 -2.12,4.72 -4.72,4.72 -2.62,0 -4.72,-2.12 -4.72,-4.72 0,-2.62 2.12,-4.72 4.72,-4.72 2.62,0 4.72,2.12 4.72,4.72z"/>
   <line class="fil1" x1="1082.33" y1="8030.52" x2="1082.33" y2= "8030.52" />
   <path class="fil0" d="M758.06 8007.8c0,5.74 -4.64,10.38 -10.38,10.38 -5.74,0 -10.38,-4.64 -10.38,-10.38 0,-5.74 4.64,-10.38 10.38,-10.38 5.74,0 10.38,4.64 10.38,10.38z"/>
   <path class="fil0" d="M898.79 7926.15c0,3.25 -2.65,5.9 -5.9,5.9 -3.25,0 -5.9,-2.65 -5.9,-5.9 0,-3.25 2.65,-5.9 5.9,-5.9 3.25,0 5.9,2.65 5.9,5.9z"/>
   <path class="fil0" d="M594.73 8166.41c0,3.7 -2.99,6.71 -6.68,6.71 -3.7,0 -6.68,-2.99 -6.68,-6.71 0,-3.7 2.99,-6.71 6.68,-6.71 3.7,0 6.68,2.99 6.68,6.71z"/>
   <path class="fil0" d="M604.45 8396.13c0,2.7 -2.18,4.88 -4.88,4.88 -2.67,0 -4.88,-2.18 -4.88,-4.88 0,-2.67 2.18,-4.88 4.88,-4.88 2.7,0 4.88,2.18 4.88,4.88z"/>
   <path class="fil0" d="M747.62 8450.49c0,4.27 -3.46,7.76 -7.76,7.76 -4.27,0 -7.76,-3.46 -7.76,-7.76 0,-4.27 3.46,-7.73 7.76,-7.73 4.27,0 7.76,3.46 7.76,7.73z"/>
   <path class="fil0" d="M762.64 8563.76c0,1.26 -1.02,2.31 -2.31,2.31 -1.28,0 -2.31,-1.02 -2.31,-2.31 0,-1.26 1.02,-2.31 2.31,-2.31 1.28,0 2.31,1.02 2.31,2.31z"/>
   <path class="fil0" d="M573.44 8642.58c0,8.7 -7.05,15.75 -15.75,15.75 -8.7,0 -15.75,-7.05 -15.75,-15.75 0,-8.7 7.05,-15.75 15.75,-15.75 8.7,0 15.75,7.05 15.75,15.75z"/>
   <path class="fil0" d="M1216.25 8347.19c0,6.08 -4.93,11.04 -11.04,11.04 -6.08,0 -11.04,-4.93 -11.04,-11.04 0,-6.08 4.93,-11.04 11.04,-11.04 6.08,0 11.04,4.93 11.04,11.04z"/>
   <path class="fil0" d="M1343.66 8468.03c0,1.26 -1.02,2.25 -2.25,2.25 -1.26,0 -2.25,-1.02 -2.25,-2.25 0,-1.23 1.02,-2.25 2.25,-2.25 1.23,0 2.25,1.02 2.25,2.25z"/>
   <path class="fil0" d="M1675.51 8527.98c0,5.87 -4.77,10.64 -10.64,10.64 -5.87,0 -10.64,-4.77 -10.64,-10.64 0,-5.87 4.77,-10.64 10.64,-10.64 5.87,0 10.64,4.77 10.64,10.64z"/>
   <path class="fil0" d="M2068.59 8056.5c0,3.91 -3.17,7.08 -7.08,7.08 -3.93,0 -7.08,-3.17 -7.08,-7.08 0,-3.91 3.17,-7.08 7.08,-7.08 3.93,0 7.08,3.17 7.08,7.08z"/>
   <path class="fil0" d="M2264.55 7856.13c0,3.75 -3.07,6.79 -6.82,6.79 -3.77,0 -6.82,-3.04 -6.82,-6.79 0,-3.75 3.01,-6.79 6.82,-6.79 3.72,0 6.82,3.04 6.82,6.79z"/>
   <path class="fil0" d="M1851.16 8184.91c0,1.73 -1.41,3.15 -3.15,3.15 -1.73,0 -3.15,-1.41 -3.15,-3.15 0,-1.73 1.41,-3.15 3.15,-3.15 1.73,0 3.15,1.41 3.15,3.15z"/>
   <path class="fil0" d="M2048.9 8312.91c0,1.07 -0.89,1.97 -1.99,1.97 -1.07,0 -1.94,-0.89 -1.94,-1.97 0,-1.07 0.84,-1.97 1.94,-1.97 1.07,0 1.99,0.89 1.99,1.97z"/>
   <path class="fil0" d="M2420.72 8152.22c0,3.7 -3.01,6.68 -6.71,6.68 -3.7,0 -6.71,-2.99 -6.71,-6.68 0,-3.7 3.01,-6.71 6.71,-6.71 3.7,0 6.71,2.99 6.71,6.71z"/>
   <path class="fil0" d="M2545.18 7948.19c0,3.25 -2.65,5.9 -5.9,5.9 -3.25,0 -5.9,-2.65 -5.9,-5.9 0,-3.25 2.65,-5.9 5.9,-5.9 3.25,0 5.9,2.65 5.9,5.9z"/>
   <path class="fil0" d="M2928.01 7848.92c0,3.25 -2.65,5.9 -5.9,5.9 -3.25,0 -5.9,-2.65 -5.9,-5.9 0,-3.25 2.65,-5.9 5.9,-5.9 3.25,0 5.9,2.65 5.9,5.9z"/>
   <path class="fil0" d="M2828.77 8047.46c0,3.25 -2.65,5.9 -5.9,5.9 -3.25,0 -5.9,-2.65 -5.9,-5.9 0,-3.25 2.65,-5.9 5.9,-5.9 3.25,0 5.9,2.65 5.9,5.9z"/>
   <path class="fil0" d="M3093.43 7319.57c0,3.28 -2.65,5.9 -5.9,5.9 -3.25,0 -5.9,-2.65 -5.9,-5.9 0,-3.25 2.65,-5.9 5.9,-5.9 3.25,0 5.9,2.65 5.9,5.9z"/>
   <path class="fil0" d="M2680.67 8268.82c0,2.83 -2.31,5.11 -5.16,5.11 -2.78,0 -5.11,-2.28 -5.11,-5.11 0,-2.83 2.31,-5.11 5.11,-5.11 2.83,0 5.16,2.28 5.16,5.11z"/>
   <path class="fil0" d="M3091.88 8594.92c0,2.83 -2.31,5.11 -5.16,5.11 -2.78,0 -5.11,-2.31 -5.11,-5.11 0,-2.83 2.31,-5.11 5.11,-5.11 2.83,0 5.16,2.31 5.16,5.11z"/>
   <line class="fil1" x1="2643.63" y1="8550.41" x2="2643.63" y2= "8550.41" />
   <path class="fil0" d="M2231.71 8673.09c0,1.63 -1.31,2.94 -2.94,2.94 -1.6,0 -2.94,-1.31 -2.94,-2.94 0,-1.63 1.31,-2.94 2.94,-2.94 1.6,0 2.94,1.31 2.94,2.94z"/>
   <path class="fil0" d="M2620.8 7591.89c0,4.56 -3.7,8.28 -8.28,8.28 -4.59,0 -8.28,-3.7 -8.28,-8.28 0,-4.56 3.7,-8.28 8.28,-8.28 4.59,0 8.28,3.7 8.28,8.28z"/>
   <path class="fil0" d="M2658.13 6549.72c0,3.98 -3.25,7.23 -7.29,7.23 -3.96,0 -7.23,-3.25 -7.23,-7.23 0,-4.01 3.25,-7.23 7.23,-7.23 4.01,0 7.29,3.25 7.29,7.23z"/>
   <path class="fil0" d="M1843.29 6514.09c0,3.93 -3.17,7.08 -7.08,7.08 -3.91,0 -7.08,-3.17 -7.08,-7.08 0,-3.91 3.17,-7.08 7.08,-7.08 3.91,0 7.08,3.17 7.08,7.08z"/>
   <path class="fil0" d="M545.69 6558.52c0,4.09 -3.3,7.39 -7.39,7.39 -4.09,0 -7.39,-3.3 -7.39,-7.39 0,-4.06 3.3,-7.39 7.39,-7.39 4.09,0 7.39,3.3 7.39,7.39z"/>
   <path class="fil0" d="M839.11 7473.88c0,4.95 -4.01,8.96 -8.96,8.96 -4.95,0 -8.96,-4.01 -8.96,-8.96 0,-4.95 4.01,-8.96 8.96,-8.96 4.95,0 8.96,4.01 8.96,8.96z"/>
   <path class="fil0" d="M248.31 7927.61c0,4.95 -4.01,8.96 -8.96,8.96 -4.95,0 -8.96,-4.01 -8.96,-8.96 0,-4.95 4.01,-8.96 8.96,-8.96 4.95,0 8.96,4.01 8.96,8.96z"/>
   <path class="fil0" d="M508.86 7783.16c0,2.62 -2.12,4.72 -4.72,4.72 -2.62,0 -4.72,-2.12 -4.72,-4.72 0,-2.62 2.12,-4.72 4.72,-4.72 2.62,0 4.72,2.12 4.72,4.72z"/>
   <path class="fil0" d="M1591.42 7349.79c0,1.68 -1.36,3.04 -3.04,3.04 -1.68,0 -3.04,-1.36 -3.04,-3.04 0,-1.68 1.36,-3.04 3.04,-3.04 1.68,0 3.04,1.36 3.04,3.04z"/>
   <path class="fil2" d="M2507.46 8298.04l-3.22 -12.61c-0.42,-1.81 -2.99,-1.84 -3.49,-0.03l-3.41 12.56c-0.18,0.63 -0.66,1.13 -1.31,1.28l-12.61 3.2c-1.78,0.47 -1.78,3.01 0,3.51l12.53 3.43c0.66,0.18 1.13,0.68 1.28,1.31l3.22 12.61c0.47,1.81 3.01,1.84 3.49,0.03l3.46 -12.56c0.13,-0.63 0.66,-1.13 1.28,-1.28l12.61 -3.2c1.78,-0.45 1.84,-3.01 0.05,-3.49l-12.58 -3.43c-0.6,-0.16 -1.13,-0.68 -1.28,-1.31l-0.03 -0.03z"/>
   <path class="fil2" d="M1339.1 6625.16l-3.2 -12.61c-0.45,-1.81 -3.01,-1.84 -3.49,-0.03l-3.43 12.56c-0.18,0.63 -0.66,1.13 -1.31,1.28l-12.61 3.2c-1.81,0.45 -1.84,3.01 -0.03,3.49l12.56 3.43c0.63,0.16 1.13,0.66 1.26,1.31l3.2 12.61c0.45,1.81 3.01,1.84 3.49,0.03l3.43 -12.56c0.16,-0.63 0.66,-1.13 1.31,-1.28l12.61 -3.2c1.81,-0.45 1.84,-3.01 0.03,-3.49l-12.56 -3.43c-0.63,-0.16 -1.13,-0.66 -1.28,-1.31l0.03 0z"/>
   <path class="fil2" d="M2521.72 6681.09l-2.75 -10.77c-0.37,-1.55 -2.6,-1.55 -2.99,-0.03l-2.94 10.72c-0.13,0.52 -0.58,0.94 -1.13,1.07l-10.77 2.73c-1.52,0.39 -1.57,2.57 0,2.99l10.72 2.94c0.52,0.13 0.94,0.58 1.07,1.1l2.7 10.77c0.42,1.55 2.6,1.55 3.01,0.03l2.88 -10.72c0.18,-0.55 0.6,-0.97 1.13,-1.1l10.77 -2.73c1.52,-0.39 1.55,-2.57 0.05,-2.99l-10.72 -2.94c-0.58,-0.13 -1,-0.58 -1.1,-1.1l0.05 0.03z"/>
   <path class="fil2" d="M3079.43 6624.37l-2.75 -10.77c-0.37,-1.55 -2.6,-1.55 -2.99,-0.03l-2.94 10.72c-0.13,0.52 -0.58,0.94 -1.13,1.1l-10.77 2.73c-1.52,0.39 -1.55,2.57 0,2.99l10.72 2.94c0.52,0.13 0.94,0.58 1.1,1.1l2.7 10.77c0.42,1.55 2.6,1.57 3.01,0.03l2.88 -10.72c0.18,-0.55 0.6,-0.97 1.13,-1.1l10.77 -2.73c1.52,-0.39 1.57,-2.57 0.05,-2.99l-10.72 -2.94c-0.58,-0.13 -1,-0.58 -1.1,-1.1l0.03 0z"/>
   <path class="fil2" d="M550.06 6793.52l-2.73 -10.77c-0.39,-1.55 -2.57,-1.57 -2.99,-0.03l-2.94 10.72c-0.16,0.52 -0.58,0.94 -1.13,1.07l-10.77 2.73c-1.55,0.39 -1.55,2.57 -0.03,2.99l10.72 2.94c0.52,0.16 0.94,0.58 1.1,1.13l2.73 10.77c0.39,1.55 2.57,1.55 2.99,0.03l2.94 -10.72c0.16,-0.55 0.58,-0.94 1.13,-1.1l10.77 -2.73c1.55,-0.39 1.55,-2.57 0.03,-2.99l-10.72 -2.94c-0.55,-0.16 -0.94,-0.58 -1.1,-1.1l0 0z"/>
   <path class="fil2" d="M63.22 8277.62l-2.73 -10.77c-0.39,-1.55 -2.57,-1.55 -2.99,-0.03l-2.94 10.72c-0.16,0.55 -0.58,0.94 -1.13,1.07l-10.77 2.73c-1.55,0.39 -1.55,2.57 -0.03,2.99l10.72 2.94c0.52,0.16 0.94,0.58 1.1,1.13l2.73 10.77c0.39,1.55 2.57,1.55 2.99,0.03l2.94 -10.72c0.16,-0.52 0.58,-0.94 1.13,-1.1l10.77 -2.73c1.55,-0.39 1.57,-2.57 0.03,-2.99l-10.72 -2.94c-0.55,-0.16 -0.94,-0.58 -1.1,-1.13l0 0.03z"/>
   <path class="fil1" d="M890.72 7293.28l-0.45 -0.29c-0.42,-0.29 -0.84,-0.58 -1.26,-0.87l-0.34 -0.24 -1 -0.71 -0.42 -0.31c-0.39,-0.29 -0.79,-0.6 -1.18,-0.92l-0.42 -0.34 -0.92 -0.73 -0.37 -0.29c-0.37,-0.31 -0.73,-0.6 -1.07,-0.92l-0.5 -0.45 -0.81 -0.73 -0.66 -0.6 -0.73 -0.68 -0.52 -0.5c-0.34,-0.31 -0.66,-0.63 -0.97,-0.94l-0.39 -0.39 -0.76 -0.76 -0.42 -0.45c-0.31,-0.34 -0.63,-0.68 -0.94,-1.02l-0.42 -0.45 -0.84 -0.94 -0.18 -0.18 -0.03 -0.03 -0.13 -0.16 -0.81 -0.97 -0.47 -0.55 -0.87 -1.07 -0.31 -0.39 -0.68 -0.89 -0.37 -0.47c-0.29,-0.39 -0.58,-0.76 -0.84,-1.15l-0.31 -0.45 -0.66 -0.97 -0.42 -0.63 -0.63 -0.97 -0.37 -0.58 -0.66 -1.07 -0.37 -0.6 -0.52 -0.89 -0.31 -0.55c-0.24,-0.39 -0.45,-0.79 -0.68,-1.21l-0.34 -0.66 -0.47 -0.87 -0.26 -0.52 -0.63 -1.28 -0.29 -0.58 -0.47 -1.02 -0.34 -0.73 -0.5 -1.15 -0.18 -0.42c-0.21,-0.47 -0.39,-0.94 -0.58,-1.41l-0.18 -0.47c-0.16,-0.42 -0.34,-0.87 -0.5,-1.28l-0.1 -0.29c-0.18,-0.5 -0.37,-1 -0.52,-1.52l-0.16 -0.47c-0.16,-0.47 -0.31,-0.97 -0.47,-1.44l-0.03 -0.1 -0.03 -0.05c-0.16,-0.52 -0.31,-1.05 -0.47,-1.57l-0.13 -0.45c-0.13,-0.5 -0.29,-1.02 -0.42,-1.55l-0.1 -0.37 -0.31 -1.28 -0.1 -0.47c-0.1,-0.52 -0.24,-1.02 -0.34,-1.55l-0.08 -0.45c-0.1,-0.47 -0.18,-0.94 -0.26,-1.41l-0.05 -0.31c-0.1,-0.55 -0.18,-1.1 -0.26,-1.65l-0.05 -0.37c-0.16,-1.13 -0.31,-2.25 -0.45,-3.41l-0.05 -0.52c-0.05,-0.55 -0.1,-1.1 -0.16,-1.68l-0.03 -0.26c-0.05,-0.55 -0.08,-1.1 -0.1,-1.65l-0.03 -0.26c-0.03,-0.58 -0.05,-1.15 -0.08,-1.76l0 -0.42c-0.03,-0.58 -0.03,-1.18 -0.03,-1.78m0.1 -4.01l0 -0.03c0.13,-2.38 0.37,-4.72 0.68,-7.05 1.91,1.26 4.01,2.7 6.29,4.35 24.82,17.72 33.08,23.64 27.18,37.82 -4.56,10.93 4.56,27.44 0.63,33.92l-0.29 -0.18"/>
   <path class="fil0" d="M986.63 8734.92c0,4.25 -3.43,7.68 -7.68,7.68 -4.25,0 -7.68,-3.43 -7.68,-7.68 0,-4.25 3.43,-7.68 7.68,-7.68 4.25,0 7.68,3.43 7.68,7.68z"/>
   <path class="fil0" d="M93.32 8815.26c0,4.25 -3.43,7.68 -7.68,7.68 -4.25,0 -7.68,-3.43 -7.68,-7.68 0,-4.25 3.43,-7.68 7.68,-7.68 4.25,0 7.68,3.43 7.68,7.68z"/>
   <path class="fil0" d="M1999.83 8965.41c0,4.06 -3.3,7.37 -7.37,7.37 -4.09,0 -7.37,-3.3 -7.37,-7.37 0,-4.06 3.3,-7.37 7.37,-7.37 4.06,0 7.37,3.3 7.37,7.37z"/>
   <path class="fil0" d="M2289.74 8725.96c0,4.95 -4.01,8.96 -8.99,8.96 -4.93,0 -8.94,-4.01 -8.94,-8.96 0,-4.95 4.01,-8.96 8.94,-8.96 4.95,0 8.99,4.01 8.99,8.96z"/>
   <path class="fil0" d="M2378.94 8711.46c0,3.04 -2.46,5.53 -5.48,5.53 -3.07,0 -5.53,-2.46 -5.53,-5.53 0,-3.04 2.46,-5.51 5.53,-5.51 3.01,0 5.48,2.46 5.48,5.51z"/>
   <path class="fil0" d="M1784.21 9367.27c0,2.38 -1.94,4.32 -4.32,4.32 -2.38,0 -4.32,-1.94 -4.32,-4.32 0,-2.38 1.94,-4.32 4.32,-4.32 2.38,0 4.32,1.94 4.32,4.32z"/>
   <path class="fil0" d="M1936.24 9318.04c0,2.18 -1.76,3.93 -3.93,3.93 -2.18,0 -3.93,-1.76 -3.93,-3.93 0,-2.18 1.76,-3.93 3.93,-3.93 2.18,0 3.93,1.76 3.93,3.93z"/>
   <path class="fil0" d="M1426.57 9300.32c0,3.7 -2.99,6.68 -6.68,6.68 -3.7,0 -6.71,-2.99 -6.71,-6.68 0,-3.7 3.01,-6.71 6.71,-6.71 3.7,0 6.68,2.99 6.68,6.71z"/>
   <path class="fil0" d="M1178.42 9318.04c0,2.18 -1.76,3.93 -3.93,3.93 -2.18,0 -3.93,-1.76 -3.93,-3.93 0,-2.18 1.76,-3.93 3.93,-3.93 2.18,0 3.93,1.76 3.93,3.93z"/>
   <path class="fil0" d="M1182.38 9137.25c0,3.25 -2.65,5.9 -5.9,5.9 -3.25,0 -5.9,-2.65 -5.9,-5.9 0,-3.25 2.65,-5.9 5.9,-5.9 3.25,0 5.9,2.65 5.9,5.9z"/>
   <path class="fil0" d="M764.22 9394.4c0,1.7 -1.39,3.09 -3.09,3.09 -1.7,0 -3.09,-1.39 -3.09,-3.09 0,-1.7 1.39,-3.09 3.09,-3.09 1.7,0 3.09,1.39 3.09,3.09z"/>
   <path class="fil0" d="M821.2 9296.97c0,1.84 -1.49,3.35 -3.35,3.35 -1.86,0 -3.35,-1.49 -3.35,-3.35 0,-1.86 1.49,-3.35 3.35,-3.35 1.84,0 3.35,1.49 3.35,3.35z"/>
   <path class="fil0" d="M601.81 9245.56c0,1.31 -1.05,2.36 -2.36,2.36 -1.31,0 -2.36,-1.05 -2.36,-2.36 0,-1.31 1.07,-2.36 2.36,-2.36 1.31,0 2.36,1.05 2.36,2.36z"/>
   <path class="fil0" d="M207.94 9266.03c0,1.31 -1.05,2.36 -2.36,2.36 -1.31,0 -2.36,-1.05 -2.36,-2.36 0,-1.31 1.05,-2.36 2.36,-2.36 1.31,0 2.36,1.05 2.36,2.36z"/>
   <path class="fil0" d="M597.09 9466.92c0,2.62 -2.12,4.72 -4.72,4.72 -2.62,0 -4.72,-2.12 -4.72,-4.72 0,-2.62 2.12,-4.72 4.72,-4.72 2.62,0 4.72,2.12 4.72,4.72z"/>
   <path class="fil0" d="M207.94 9396.02c0,2.62 -2.12,4.72 -4.72,4.72 -2.62,0 -4.72,-2.12 -4.72,-4.72 0,-2.62 2.12,-4.72 4.72,-4.72 2.62,0 4.72,2.12 4.72,4.72z"/>
   <path class="fil0" d="M9.44 9065.17c0,2.62 -2.12,4.72 -4.72,4.72 -2.62,0 -4.72,-2.12 -4.72,-4.72 0,-2.62 2.12,-4.72 4.72,-4.72 2.62,0 4.72,2.12 4.72,4.72z"/>
   <path class="fil0" d="M1164.84 9575.05c0,6.42 -5.22,11.61 -11.61,11.61 -6.42,0 -11.61,-5.19 -11.61,-11.61 0,-6.42 5.22,-11.61 11.61,-11.61 6.42,0 11.61,5.19 11.61,11.61z"/>
   <path class="fil0" d="M403.88 9650.67c0,6.42 -5.22,11.61 -11.61,11.61 -6.42,0 -11.61,-5.19 -11.61,-11.61 0,-6.42 5.22,-11.61 11.61,-11.61 6.42,0 11.61,5.19 11.61,11.61z"/>
   <path class="fil0" d="M2368.72 9432.67c0,1.97 -1.6,3.54 -3.54,3.54 -1.99,0 -3.54,-1.6 -3.54,-3.54 0,-1.97 1.55,-3.54 3.54,-3.54 1.94,0 3.54,1.6 3.54,3.54z"/>
   <path class="fil0" d="M2593.14 9102.31c0,9.99 -8.07,18.09 -18.06,18.09 -10.01,0 -18.11,-8.1 -18.11,-18.09 0,-9.99 8.07,-18.09 18.11,-18.09 9.96,0 18.06,8.1 18.06,18.09z"/>
   <path class="fil0" d="M3113.04 9797.09c0,9.99 -8.07,18.09 -18.06,18.09 -10.01,0 -18.11,-8.1 -18.11,-18.09 0,-9.99 8.07,-18.09 18.11,-18.09 9.96,0 18.06,8.1 18.06,18.09z"/>
   <path class="fil0" d="M2629.45 9480.32c0,4.8 -3.88,8.68 -8.65,8.68 -4.77,0 -8.65,-3.88 -8.65,-8.68 0,-4.77 3.88,-8.68 8.65,-8.68 4.77,0 8.65,3.88 8.65,8.68z"/>
   <path class="fil0" d="M2998.1 9059.67c0,4.77 -3.88,8.65 -8.65,8.65 -4.77,0 -8.65,-3.88 -8.65,-8.65 0,-4.8 3.88,-8.68 8.65,-8.68 4.77,0 8.65,3.88 8.65,8.68z"/>
   <path class="fil0" d="M138.61 9697.72c0,4.8 -3.88,8.68 -8.65,8.68 -4.8,0 -8.68,-3.88 -8.68,-8.68 0,-4.77 3.88,-8.68 8.68,-8.68 4.8,0 8.65,3.88 8.65,8.68z"/>
   <path class="fil0" d="M2125.31 9774.92c0,2.18 -1.81,3.93 -3.96,3.93 -2.18,0 -3.93,-1.76 -3.93,-3.93 0,-2.18 1.76,-3.93 3.93,-3.93 2.18,0 3.96,1.76 3.96,3.93z"/>
   <path class="fil0" d="M2214.35 9733.55c0,1.07 -0.84,1.94 -1.94,1.94 -1.1,0 -1.94,-0.87 -1.94,-1.94 0,-1.07 0.84,-1.94 1.94,-1.94 1.07,0 1.94,0.87 1.94,1.94z"/>
   <path class="fil0" d="M1859.83 10117.2c0,8.26 -6.71,14.97 -14.97,14.97 -8.26,0 -14.97,-6.71 -14.97,-14.97 0,-8.26 6.71,-14.97 14.97,-14.97 8.26,0 14.97,6.71 14.97,14.97z"/>
   <path class="fil0" d="M54.34 10778.9c0,8.26 -6.71,14.97 -14.97,14.97 -8.26,0 -14.97,-6.71 -14.97,-14.97 0,-8.26 6.71,-14.97 14.97,-14.97 8.26,0 14.97,6.71 14.97,14.97z"/>
   <path class="fil0" d="M2007.72 9642.89c0,2.18 -1.76,3.93 -3.93,3.93 -2.18,0 -3.93,-1.76 -3.93,-3.93 0,-2.18 1.76,-3.93 3.93,-3.93 2.18,0 3.93,1.76 3.93,3.93z"/>
   <path class="fil0" d="M1400.57 10048.65c0,1.73 -1.41,3.15 -3.15,3.15 -1.73,0 -3.15,-1.41 -3.15,-3.15 0,-1.73 1.41,-3.15 3.15,-3.15 1.73,0 3.15,1.41 3.15,3.15z"/>
   <line class="fil1" x1="1410.03" y1="10144.77" x2="1410.03" y2= "10144.77" />
   <path class="fil0" d="M1094.94 10110.12c0,4.35 -3.54,7.89 -7.89,7.89 -4.35,0 -7.89,-3.54 -7.89,-7.89 0,-4.35 3.54,-7.86 7.89,-7.86 4.35,0 7.89,3.54 7.89,7.86z"/>
   <path class="fil0" d="M310.35 10606.39c0,4.35 -3.51,7.89 -7.89,7.89 -4.35,0 -7.89,-3.54 -7.89,-7.89 0,-4.35 3.54,-7.86 7.89,-7.86 4.35,0 7.89,3.54 7.89,7.86z"/>
   <path class="fil0" d="M1295.8 10093.97c0,2.38 -1.94,4.32 -4.32,4.32 -2.38,0 -4.32,-1.94 -4.32,-4.32 0,-2.38 1.94,-4.32 4.32,-4.32 2.38,0 4.32,1.94 4.32,4.32z"/>
   <path class="fil0" d="M1375.38 10357.06c0,2.62 -2.12,4.72 -4.72,4.72 -2.62,0 -4.72,-2.12 -4.72,-4.72 0,-2.62 2.12,-4.72 4.72,-4.72 2.62,0 4.72,2.12 4.72,4.72z"/>
   <line class="fil1" x1="1082.33" y1="10199.53" x2="1082.33" y2= "10199.53" />
   <path class="fil0" d="M758.06 10176.8c0,5.74 -4.64,10.38 -10.38,10.38 -5.74,0 -10.38,-4.64 -10.38,-10.38 0,-5.74 4.64,-10.38 10.38,-10.38 5.74,0 10.38,4.64 10.38,10.38z"/>
   <path class="fil0" d="M898.79 10095.15c0,3.25 -2.65,5.9 -5.9,5.9 -3.25,0 -5.9,-2.65 -5.9,-5.9 0,-3.25 2.65,-5.9 5.9,-5.9 3.25,0 5.9,2.65 5.9,5.9z"/>
   <path class="fil0" d="M594.73 10335.41c0,3.7 -2.99,6.71 -6.68,6.71 -3.7,0 -6.68,-2.99 -6.68,-6.71 0,-3.7 2.99,-6.71 6.68,-6.71 3.7,0 6.68,2.99 6.68,6.71z"/>
   <path class="fil0" d="M604.45 10565.14c0,2.7 -2.18,4.88 -4.88,4.88 -2.67,0 -4.88,-2.18 -4.88,-4.88 0,-2.67 2.18,-4.88 4.88,-4.88 2.7,0 4.88,2.18 4.88,4.88z"/>
   <path class="fil0" d="M747.62 10619.5c0,4.27 -3.46,7.76 -7.76,7.76 -4.27,0 -7.76,-3.46 -7.76,-7.76 0,-4.27 3.46,-7.73 7.76,-7.73 4.27,0 7.76,3.46 7.76,7.73z"/>
   <path class="fil0" d="M762.64 10732.76c0,1.26 -1.02,2.31 -2.31,2.31 -1.28,0 -2.31,-1.02 -2.31,-2.31 0,-1.26 1.02,-2.31 2.31,-2.31 1.28,0 2.31,1.02 2.31,2.31z"/>
   <path class="fil0" d="M573.44 10811.58c0,8.7 -7.05,15.75 -15.75,15.75 -8.7,0 -15.75,-7.05 -15.75,-15.75 0,-8.7 7.05,-15.75 15.75,-15.75 8.7,0 15.75,7.05 15.75,15.75z"/>
   <path class="fil0" d="M1216.25 10516.2c0,6.08 -4.93,11.04 -11.04,11.04 -6.08,0 -11.04,-4.93 -11.04,-11.04 0,-6.08 4.93,-11.04 11.04,-11.04 6.08,0 11.04,4.93 11.04,11.04z"/>
   <path class="fil0" d="M1343.66 10637.04c0,1.26 -1.02,2.25 -2.25,2.25 -1.26,0 -2.25,-1.02 -2.25,-2.25 0,-1.23 1.02,-2.25 2.25,-2.25 1.23,0 2.25,1.02 2.25,2.25z"/>
   <path class="fil0" d="M1675.51 10696.98c0,5.87 -4.77,10.64 -10.64,10.64 -5.87,0 -10.64,-4.77 -10.64,-10.64 0,-5.87 4.77,-10.64 10.64,-10.64 5.87,0 10.64,4.77 10.64,10.64z"/>
   <path class="fil0" d="M2068.59 10225.51c0,3.91 -3.17,7.08 -7.08,7.08 -3.93,0 -7.08,-3.17 -7.08,-7.08 0,-3.91 3.17,-7.08 7.08,-7.08 3.93,0 7.08,3.17 7.08,7.08z"/>
   <path class="fil0" d="M2264.55 10025.14c0,3.75 -3.07,6.79 -6.82,6.79 -3.77,0 -6.82,-3.04 -6.82,-6.79 0,-3.75 3.01,-6.79 6.82,-6.79 3.72,0 6.82,3.04 6.82,6.79z"/>
   <path class="fil0" d="M1851.16 10353.92c0,1.73 -1.41,3.15 -3.15,3.15 -1.73,0 -3.15,-1.41 -3.15,-3.15 0,-1.73 1.41,-3.15 3.15,-3.15 1.73,0 3.15,1.41 3.15,3.15z"/>
   <path class="fil0" d="M2048.9 10481.91c0,1.07 -0.89,1.97 -1.99,1.97 -1.07,0 -1.94,-0.89 -1.94,-1.97 0,-1.07 0.84,-1.97 1.94,-1.97 1.07,0 1.99,0.89 1.99,1.97z"/>
   <path class="fil0" d="M2420.72 10321.23c0,3.7 -3.01,6.68 -6.71,6.68 -3.7,0 -6.71,-2.99 -6.71,-6.68 0,-3.7 3.01,-6.71 6.71,-6.71 3.7,0 6.71,2.99 6.71,6.71z"/>
   <path class="fil0" d="M2545.18 10117.2c0,3.25 -2.65,5.9 -5.9,5.9 -3.25,0 -5.9,-2.65 -5.9,-5.9 0,-3.25 2.65,-5.9 5.9,-5.9 3.25,0 5.9,2.65 5.9,5.9z"/>
   <path class="fil0" d="M2928.01 10017.93c0,3.25 -2.65,5.9 -5.9,5.9 -3.25,0 -5.9,-2.65 -5.9,-5.9 0,-3.25 2.65,-5.9 5.9,-5.9 3.25,0 5.9,2.65 5.9,5.9z"/>
   <path class="fil0" d="M2828.77 10216.46c0,3.25 -2.65,5.9 -5.9,5.9 -3.25,0 -5.9,-2.65 -5.9,-5.9 0,-3.25 2.65,-5.9 5.9,-5.9 3.25,0 5.9,2.65 5.9,5.9z"/>
   <path class="fil0" d="M3093.43 9488.58c0,3.28 -2.65,5.9 -5.9,5.9 -3.25,0 -5.9,-2.65 -5.9,-5.9 0,-3.25 2.65,-5.9 5.9,-5.9 3.25,0 5.9,2.65 5.9,5.9z"/>
   <path class="fil0" d="M2680.67 10437.82c0,2.83 -2.31,5.11 -5.16,5.11 -2.78,0 -5.11,-2.28 -5.11,-5.11 0,-2.83 2.31,-5.11 5.11,-5.11 2.83,0 5.16,2.28 5.16,5.11z"/>
   <path class="fil0" d="M3091.88 10763.93c0,2.83 -2.31,5.11 -5.16,5.11 -2.78,0 -5.11,-2.31 -5.11,-5.11 0,-2.83 2.31,-5.11 5.11,-5.11 2.83,0 5.16,2.31 5.16,5.11z"/>
   <line class="fil1" x1="2643.63" y1="10719.42" x2="2643.63" y2= "10719.42" />
   <path class="fil0" d="M2231.71 10842.09c0,1.63 -1.31,2.94 -2.94,2.94 -1.6,0 -2.94,-1.31 -2.94,-2.94 0,-1.63 1.31,-2.94 2.94,-2.94 1.6,0 2.94,1.31 2.94,2.94z"/>
   <path class="fil0" d="M2620.8 9760.89c0,4.56 -3.7,8.28 -8.28,8.28 -4.59,0 -8.28,-3.7 -8.28,-8.28 0,-4.56 3.7,-8.28 8.28,-8.28 4.59,0 8.28,3.7 8.28,8.28z"/>
   <path class="fil0" d="M2658.13 8718.72c0,3.98 -3.25,7.23 -7.29,7.23 -3.96,0 -7.23,-3.25 -7.23,-7.23 0,-4.01 3.25,-7.23 7.23,-7.23 4.01,0 7.29,3.25 7.29,7.23z"/>
   <path class="fil0" d="M1843.29 8683.1c0,3.93 -3.17,7.08 -7.08,7.08 -3.91,0 -7.08,-3.17 -7.08,-7.08 0,-3.91 3.17,-7.08 7.08,-7.08 3.91,0 7.08,3.17 7.08,7.08z"/>
   <path class="fil0" d="M545.69 8727.53c0,4.09 -3.3,7.39 -7.39,7.39 -4.09,0 -7.39,-3.3 -7.39,-7.39 0,-4.06 3.3,-7.39 7.39,-7.39 4.09,0 7.39,3.3 7.39,7.39z"/>
   <path class="fil0" d="M839.11 9642.89c0,4.95 -4.01,8.96 -8.96,8.96 -4.95,0 -8.96,-4.01 -8.96,-8.96 0,-4.95 4.01,-8.96 8.96,-8.96 4.95,0 8.96,4.01 8.96,8.96z"/>
   <path class="fil0" d="M248.31 10096.62c0,4.95 -4.01,8.96 -8.96,8.96 -4.95,0 -8.96,-4.01 -8.96,-8.96 0,-4.95 4.01,-8.96 8.96,-8.96 4.95,0 8.96,4.01 8.96,8.96z"/>
   <path class="fil0" d="M508.86 9952.16c0,2.62 -2.12,4.72 -4.72,4.72 -2.62,0 -4.72,-2.12 -4.72,-4.72 0,-2.62 2.12,-4.72 4.72,-4.72 2.62,0 4.72,2.12 4.72,4.72z"/>
   <path class="fil0" d="M1591.42 9518.8c0,1.68 -1.36,3.04 -3.04,3.04 -1.68,0 -3.04,-1.36 -3.04,-3.04 0,-1.68 1.36,-3.04 3.04,-3.04 1.68,0 3.04,1.36 3.04,3.04z"/>
   <path class="fil2" d="M2507.46 10467.05l-3.22 -12.61c-0.42,-1.81 -2.99,-1.84 -3.49,-0.03l-3.41 12.56c-0.18,0.63 -0.66,1.13 -1.31,1.28l-12.61 3.2c-1.78,0.47 -1.78,3.01 0,3.51l12.53 3.43c0.66,0.18 1.13,0.68 1.28,1.31l3.22 12.61c0.47,1.81 3.01,1.84 3.49,0.03l3.46 -12.56c0.13,-0.63 0.66,-1.13 1.28,-1.28l12.61 -3.2c1.78,-0.45 1.84,-3.01 0.05,-3.49l-12.58 -3.43c-0.6,-0.16 -1.13,-0.68 -1.28,-1.31l-0.03 -0.03z"/>
   <path class="fil2" d="M1339.1 8794.16l-3.2 -12.61c-0.45,-1.81 -3.01,-1.84 -3.49,-0.03l-3.43 12.56c-0.18,0.63 -0.66,1.13 -1.31,1.28l-12.61 3.2c-1.81,0.45 -1.84,3.01 -0.03,3.49l12.56 3.43c0.63,0.16 1.13,0.66 1.26,1.31l3.2 12.61c0.45,1.81 3.01,1.84 3.49,0.03l3.43 -12.56c0.16,-0.63 0.66,-1.13 1.31,-1.28l12.61 -3.2c1.81,-0.45 1.84,-3.01 0.03,-3.49l-12.56 -3.43c-0.63,-0.16 -1.13,-0.66 -1.28,-1.31l0.03 0z"/>
   <path class="fil2" d="M2521.72 8850.1l-2.75 -10.77c-0.37,-1.55 -2.6,-1.55 -2.99,-0.03l-2.94 10.72c-0.13,0.52 -0.58,0.94 -1.13,1.07l-10.77 2.73c-1.52,0.39 -1.57,2.57 0,2.99l10.72 2.94c0.52,0.13 0.94,0.58 1.07,1.1l2.7 10.77c0.42,1.55 2.6,1.55 3.01,0.03l2.88 -10.72c0.18,-0.55 0.6,-0.97 1.13,-1.1l10.77 -2.73c1.52,-0.39 1.55,-2.57 0.05,-2.99l-10.72 -2.94c-0.58,-0.13 -1,-0.58 -1.1,-1.1l0.05 0.03z"/>
   <path class="fil2" d="M3079.43 8793.38l-2.75 -10.77c-0.37,-1.55 -2.6,-1.55 -2.99,-0.03l-2.94 10.72c-0.13,0.52 -0.58,0.94 -1.13,1.1l-10.77 2.73c-1.52,0.39 -1.55,2.57 0,2.99l10.72 2.94c0.52,0.13 0.94,0.58 1.1,1.1l2.7 10.77c0.42,1.55 2.6,1.57 3.01,0.03l2.88 -10.72c0.18,-0.55 0.6,-0.97 1.13,-1.1l10.77 -2.73c1.52,-0.39 1.57,-2.57 0.05,-2.99l-10.72 -2.94c-0.58,-0.13 -1,-0.58 -1.1,-1.1l0.03 0z"/>
   <path class="fil2" d="M550.06 8962.52l-2.73 -10.77c-0.39,-1.55 -2.57,-1.57 -2.99,-0.03l-2.94 10.72c-0.16,0.52 -0.58,0.94 -1.13,1.07l-10.77 2.73c-1.55,0.39 -1.55,2.57 -0.03,2.99l10.72 2.94c0.52,0.16 0.94,0.58 1.1,1.13l2.73 10.77c0.39,1.55 2.57,1.55 2.99,0.03l2.94 -10.72c0.16,-0.55 0.58,-0.94 1.13,-1.1l10.77 -2.73c1.55,-0.39 1.55,-2.57 0.03,-2.99l-10.72 -2.94c-0.55,-0.16 -0.94,-0.58 -1.1,-1.1l0 0z"/>
   <path class="fil2" d="M63.22 10446.63l-2.73 -10.77c-0.39,-1.55 -2.57,-1.55 -2.99,-0.03l-2.94 10.72c-0.16,0.55 -0.58,0.94 -1.13,1.07l-10.77 2.73c-1.55,0.39 -1.55,2.57 -0.03,2.99l10.72 2.94c0.52,0.16 0.94,0.58 1.1,1.13l2.73 10.77c0.39,1.55 2.57,1.55 2.99,0.03l2.94 -10.72c0.16,-0.52 0.58,-0.94 1.13,-1.1l10.77 -2.73c1.55,-0.39 1.57,-2.57 0.03,-2.99l-10.72 -2.94c-0.55,-0.16 -0.94,-0.58 -1.1,-1.13l0 0.03z"/>
   <path class="fil1" d="M890.72 9462.29l-0.45 -0.29c-0.42,-0.29 -0.84,-0.58 -1.26,-0.87l-0.34 -0.24 -1 -0.71 -0.42 -0.31c-0.39,-0.29 -0.79,-0.6 -1.18,-0.92l-0.42 -0.34 -0.92 -0.73 -0.37 -0.29c-0.37,-0.31 -0.73,-0.6 -1.07,-0.92l-0.5 -0.45 -0.81 -0.73 -0.66 -0.6 -0.73 -0.68 -0.52 -0.5c-0.34,-0.31 -0.66,-0.63 -0.97,-0.94l-0.39 -0.39 -0.76 -0.76 -0.42 -0.45c-0.31,-0.34 -0.63,-0.68 -0.94,-1.02l-0.42 -0.45 -0.84 -0.94 -0.18 -0.18 -0.03 -0.03 -0.13 -0.16 -0.81 -0.97 -0.47 -0.55 -0.87 -1.07 -0.31 -0.39 -0.68 -0.89 -0.37 -0.47c-0.29,-0.39 -0.58,-0.76 -0.84,-1.15l-0.31 -0.45 -0.66 -0.97 -0.42 -0.63 -0.63 -0.97 -0.37 -0.58 -0.66 -1.07 -0.37 -0.6 -0.52 -0.89 -0.31 -0.55c-0.24,-0.39 -0.45,-0.79 -0.68,-1.21l-0.34 -0.66 -0.47 -0.87 -0.26 -0.52 -0.63 -1.28 -0.29 -0.58 -0.47 -1.02 -0.34 -0.73 -0.5 -1.15 -0.18 -0.42c-0.21,-0.47 -0.39,-0.94 -0.58,-1.41l-0.18 -0.47c-0.16,-0.42 -0.34,-0.87 -0.5,-1.28l-0.1 -0.29c-0.18,-0.5 -0.37,-1 -0.52,-1.52l-0.16 -0.47c-0.16,-0.47 -0.31,-0.97 -0.47,-1.44l-0.03 -0.1 -0.03 -0.05c-0.16,-0.52 -0.31,-1.05 -0.47,-1.57l-0.13 -0.45c-0.13,-0.5 -0.29,-1.02 -0.42,-1.55l-0.1 -0.37 -0.31 -1.28 -0.1 -0.47c-0.1,-0.52 -0.24,-1.02 -0.34,-1.55l-0.08 -0.45c-0.1,-0.47 -0.18,-0.94 -0.26,-1.41l-0.05 -0.31c-0.1,-0.55 -0.18,-1.1 -0.26,-1.65l-0.05 -0.37c-0.16,-1.13 -0.31,-2.25 -0.45,-3.41l-0.05 -0.52c-0.05,-0.55 -0.1,-1.1 -0.16,-1.68l-0.03 -0.26c-0.05,-0.55 -0.08,-1.1 -0.1,-1.65l-0.03 -0.26c-0.03,-0.58 -0.05,-1.15 -0.08,-1.76l0 -0.42c-0.03,-0.58 -0.03,-1.18 -0.03,-1.78m0.1 -4.01l0 -0.03c0.13,-2.38 0.37,-4.72 0.68,-7.05 1.91,1.26 4.01,2.7 6.29,4.35 24.82,17.72 33.08,23.64 27.18,37.82 -4.56,10.93 4.56,27.44 0.63,33.92l-0.29 -0.18"/>
  </g>
 </g>
</svg>
