<?xml version="1.0" encoding="UTF-8"?>
<!DOCTYPE svg PUBLIC "-//W3C//DTD SVG 1.1//EN" "http://www.w3.org/Graphics/SVG/1.1/DTD/svg11.dtd">
<!-- Creator: CorelDRAW -->
<svg xmlns="http://www.w3.org/2000/svg" xml:space="preserve" width="203.978mm" height="201.72mm" version="1.1" style="shape-rendering:geometricPrecision; text-rendering:geometricPrecision; image-rendering:optimizeQuality; fill-rule:evenodd; clip-rule:evenodd"
viewBox="0 0 3029.82 2996.28"
 xmlns:xlink="http://www.w3.org/1999/xlink"
 xmlns:xodm="http://www.corel.com/coreldraw/odm/2003">
 <defs>
  <style type="text/css">
   <![CDATA[
    .fil0 {fill:#61DAFB;fill-rule:nonzero}
   ]]>
  </style>
 </defs>
 <g id="Camada_x0020_1">
  <metadata id="CorelCorpID_0Corel-Layer"/>
  <g id="_1499089273184">
   <g>
    <g>
     <path class="fil0" d="M1827.77 71.24l16.7 -64.97 36.43 8.41 72.7 20.65 71.18 24.08 69.57 27.43 67.86 30.68 66.05 33.83 64.14 36.88 62.14 39.84 60.05 42.7 57.86 45.47 55.57 48.13 53.19 50.71 50.71 53.19 48.13 55.57 45.47 57.86 42.7 60.05 39.84 62.14 36.88 64.14 33.83 66.05 30.68 67.86 27.43 69.57 24.08 71.18 20.65 72.7 17.11 74.12 13.47 75.43 9.74 76.65 5.91 77.77 1.99 78.79 -67.08 0 -1.91 -75.4 -5.66 -74.39 -9.31 -73.3 -12.88 -72.12 -16.35 -70.85 -19.73 -69.49 -23.02 -68.04 -26.22 -66.5 -29.33 -64.87 -32.34 -63.15 -35.26 -61.33 -38.1 -59.42 -40.84 -57.42 -43.48 -55.33 -46.04 -53.15 -48.5 -50.87 -50.87 -48.5 -53.15 -46.04 -55.33 -43.48 -57.42 -40.84 -59.42 -38.1 -61.33 -35.26 -63.15 -32.34 -64.87 -29.33 -66.5 -26.22 -68.04 -23.02 -69.49 -19.73 -36.43 -8.41zm-1645.91 784.32l-58.95 -32.02 28.43 -55.51 36.88 -64.14 39.84 -62.14 42.7 -60.05 45.47 -57.86 48.13 -55.57 50.71 -53.19 53.19 -50.71 55.57 -48.13 57.86 -45.47 60.05 -42.7 62.14 -39.84 64.14 -36.88 66.05 -33.83 7.33 -3.32 26.12 61.79 -4.34 1.96 -63.15 32.34 -61.33 35.26 -59.42 38.1 -57.42 40.84 -55.33 43.48 -53.15 46.04 -50.87 48.5 -48.5 50.87 -46.04 53.15 -43.48 55.33 -40.84 57.42 -38.1 59.42 -35.26 61.33 -28.43 55.51zm-148.32 642.58l-67.08 0 0 0 1.99 -78.79 5.91 -77.77 9.74 -76.65 13.47 -75.43 17.11 -74.12 20.65 -72.7 24.08 -71.18 27.43 -69.57 30.68 -67.86 5.39 -10.53 58.95 32.02 -3.91 7.63 -29.33 64.87 -26.22 66.5 -23.02 68.04 -19.73 69.49 -16.35 70.85 -12.88 72.12 -9.31 73.3 -5.66 74.39 -1.91 75.4 0 0zm540.9 1136.38l-42.7 51.74 -7.91 -6.21 -55.57 -48.13 -53.19 -50.71 -50.71 -53.19 -48.13 -55.57 -45.47 -57.86 -42.7 -60.05 -39.84 -62.14 -36.88 -64.14 -33.83 -66.05 -30.68 -67.86 -27.43 -69.57 -24.08 -71.18 -20.65 -72.7 -17.11 -74.12 -13.47 -75.43 -9.74 -76.65 -5.91 -77.77 -1.99 -78.79 67.08 0 1.91 75.4 5.66 74.39 9.31 73.3 12.88 72.12 16.35 70.85 19.73 69.49 23.02 68.04 26.22 66.5 29.33 64.87 32.34 63.15 35.26 61.33 38.1 59.42 40.84 57.42 43.48 55.33 46.04 53.15 48.5 50.87 50.87 48.5 53.15 46.04 7.91 6.21zm923.7 328.22l0 67.08 0 0 -18.3 -0.46 3.38 -67 14.91 0.38 0 0zm898.84 -308.68l40.17 53.72 -22.57 17.74 -60.05 42.7 -62.14 39.84 -64.14 36.88 -66.05 33.83 -67.86 30.68 -69.57 27.43 -71.18 24.08 -72.7 20.65 -74.12 17.11 -75.43 13.47 -76.65 9.74 -77.77 5.91 -78.79 1.99 0 -67.08 75.4 -1.91 74.39 -5.66 73.3 -9.31 72.12 -12.88 70.85 -16.35 69.49 -19.73 68.04 -23.02 66.5 -26.22 64.87 -29.33 63.15 -32.34 61.33 -35.26 59.42 -38.1 57.42 -40.84 22.57 -17.74zm565.75 -1155.92l67.08 0 0 0 -1.99 78.79 -5.91 77.77 -9.74 76.65 -13.47 75.43 -17.11 74.12 -20.65 72.7 -24.08 71.18 -27.43 69.57 -30.68 67.86 -33.83 66.05 -36.88 64.14 -39.84 62.14 -42.7 60.05 -45.47 57.86 -48.13 55.57 -50.71 53.19 -53.19 50.71 -55.57 48.13 -35.29 27.73 -40.17 -53.72 32.77 -25.75 53.15 -46.04 50.87 -48.5 48.5 -50.87 46.04 -53.15 43.48 -55.33 40.84 -57.42 38.1 -59.42 35.26 -61.33 32.34 -63.15 29.33 -64.87 26.22 -66.5 23.02 -68.04 19.73 -69.49 16.35 -70.85 12.88 -72.12 9.31 -73.3 5.66 -74.39 1.91 -75.4 0 0z"/>
    </g>
   </g>
  </g>
 </g>
</svg>
