<?xml version="1.0" encoding="UTF-8"?>
<!DOCTYPE svg PUBLIC "-//W3C//DTD SVG 1.1//EN" "http://www.w3.org/Graphics/SVG/1.1/DTD/svg11.dtd">
<!-- Creator: CorelDRAW -->
<svg xmlns="http://www.w3.org/2000/svg" xml:space="preserve" width="203.978mm" height="203.978mm" version="1.1" style="shape-rendering:geometricPrecision; text-rendering:geometricPrecision; image-rendering:optimizeQuality; fill-rule:evenodd; clip-rule:evenodd"
viewBox="0 0 2672.92 2672.92"
 xmlns:xlink="http://www.w3.org/1999/xlink"
 xmlns:xodm="http://www.corel.com/coreldraw/odm/2003">
 <defs>
  <style type="text/css">
   <![CDATA[
    .fil0 {fill:#61DAFB;fill-rule:nonzero;fill-opacity:0.400000}
   ]]>
  </style>
 </defs>
 <g id="Camada_x0020_1">
  <metadata id="CorelCorpID_0Corel-Layer"/>
  <g id="_1498290630720">
   <g>
    <g>
     <path class="fil0" d="M2332.36 546.77l47.39 -35.44 24.7 31.43 37.67 52.98 35.14 54.82 32.54 56.59 29.84 58.27 27.06 59.86 24.2 61.37 21.25 62.79 18.21 64.13 15.09 65.38 11.88 66.55 8.59 67.62 5.22 68.61 1.76 69.51 -59.18 0 -1.68 -66.52 -4.99 -65.63 -8.22 -64.66 -11.36 -63.62 -14.42 -62.5 -17.41 -61.3 -20.31 -60.02 -23.13 -58.67 -25.87 -57.23 -28.53 -55.71 -31.11 -54.11 -33.61 -52.42 -36.03 -50.66 -24.7 -31.43zm-1010.7 -487.59l0 -59.18 0 0 69.51 1.76 68.61 5.22 67.62 8.59 66.55 11.88 33.25 7.67 -14.74 57.31 -30.36 -7.01 -63.62 -11.36 -64.66 -8.22 -65.63 -4.99 -66.52 -1.68 0 0zm-556.32 125.67l-23.05 -54.51 53.39 -24.14 61.37 -24.2 62.79 -21.25 64.13 -18.21 65.38 -15.09 66.55 -11.88 67.62 -8.59 68.61 -5.22 69.51 -1.76 0 59.18 -66.52 1.68 -65.63 4.99 -64.66 8.22 -63.62 11.36 -62.5 14.42 -61.3 17.41 -60.02 20.31 -58.67 23.13 -53.39 24.14zm-604.9 599.52l-52 -28.24 25.08 -48.97 32.54 -56.59 35.14 -54.82 37.67 -52.98 40.11 -51.04 42.46 -49.02 44.74 -46.92 46.92 -44.74 49.02 -42.46 51.04 -40.11 52.98 -37.67 54.82 -35.14 56.59 -32.54 58.27 -29.84 6.47 -2.92 23.05 54.51 -3.83 1.73 -55.71 28.53 -54.11 31.11 -52.42 33.61 -50.66 36.03 -48.82 38.36 -46.89 40.61 -44.88 42.79 -42.79 44.88 -40.61 46.89 -38.36 48.82 -36.03 50.66 -33.61 52.42 -31.11 54.11 -25.08 48.97zm346.33 1569.41l-37.67 45.64 -6.98 -5.48 -49.02 -42.46 -46.92 -44.74 -44.74 -46.92 -42.46 -49.02 -40.11 -51.04 -37.67 -52.98 -35.14 -54.82 -32.54 -56.59 -29.84 -58.27 -27.06 -59.86 -24.2 -61.37 -21.25 -62.79 -18.21 -64.13 -11.05 -47.86 57.98 -11.85 10.38 44.98 17.41 61.3 20.31 60.02 23.13 58.67 25.87 57.23 28.53 55.71 31.11 54.11 33.61 52.42 36.03 50.66 38.36 48.82 40.61 46.89 42.79 44.88 44.88 42.79 46.89 40.61 6.98 5.48zm801.74 289.22l-2.99 59.1 -53.36 -1.35 -68.61 -5.22 -67.62 -8.59 -66.55 -11.88 -65.38 -15.09 -64.13 -18.21 -62.79 -21.25 -61.37 -24.2 -59.86 -27.06 -58.27 -29.84 -56.59 -32.54 -54.82 -35.14 -52.98 -37.67 -44.07 -34.63 37.67 -45.64 41.84 32.88 50.66 36.03 52.42 33.61 54.11 31.11 55.71 28.53 57.23 25.87 58.67 23.13 60.02 20.31 61.3 17.41 62.5 14.42 63.62 11.36 64.66 8.22 65.63 4.99 53.36 1.35zm1268.67 -986.67l57.31 14.74 -4.12 17.86 -18.21 64.13 -21.25 62.79 -24.2 61.37 -27.06 59.86 -29.84 58.27 -32.54 56.59 -35.14 54.82 -37.67 52.98 -40.11 51.04 -42.46 49.02 -44.74 46.92 -46.92 44.74 -49.02 42.46 -31.13 24.47 -35.44 -47.39 28.91 -22.72 46.89 -40.61 44.88 -42.79 42.79 -44.88 40.61 -46.89 38.36 -48.82 36.03 -50.66 33.61 -52.42 31.11 -54.11 28.53 -55.71 25.87 -57.23 23.13 -58.67 20.31 -60.02 17.41 -61.3 4.12 -17.86zm36.55 -305.07l59.18 0 0 0 -1.76 69.51 -5.22 68.61 -8.59 67.62 -11.88 66.55 -10.97 47.52 -57.31 -14.74 10.3 -44.64 11.36 -63.62 8.22 -64.66 4.99 -65.63 1.68 -66.52 0 0z"/>
    </g>
   </g>
  </g>
 </g>
</svg>
