<?xml version="1.0" encoding="UTF-8"?>
<!DOCTYPE svg PUBLIC "-//W3C//DTD SVG 1.1//EN" "http://www.w3.org/Graphics/SVG/1.1/DTD/svg11.dtd">
<!-- Creator: CorelDRAW -->
<svg xmlns="http://www.w3.org/2000/svg" xml:space="preserve" width="206.262mm" height="204.878mm" version="1.1" style="shape-rendering:geometricPrecision; text-rendering:geometricPrecision; image-rendering:optimizeQuality; fill-rule:evenodd; clip-rule:evenodd"
viewBox="0 0 1787.96 1775.96"
 xmlns:xlink="http://www.w3.org/1999/xlink"
 xmlns:xodm="http://www.corel.com/coreldraw/odm/2003">
 <defs>
  <style type="text/css">
   <![CDATA[
    .fil0 {fill:#AC6DF0;fill-rule:nonzero}
   ]]>
  </style>
 </defs>
 <g id="Camada_x0020_1">
  <metadata id="CorelCorpID_0Corel-Layer"/>
  <g id="_1499077685424">
   <g>
    <g>
     <path class="fil0" d="M1693.05 542.42l22.1 -9.35 2.08 4.59 16.12 40.87 14.15 41.82 12.13 42.71 10.05 43.55 7.92 44.32 5.72 45.04 3.48 45.7 1.17 46.3 -24 0 -1.14 -45.09 -3.38 -44.49 -5.57 -43.84 -7.7 -43.13 -9.78 -42.38 -11.8 -41.56 -13.77 -40.7 -15.68 -39.78 -2.08 -4.59zm-501.35 -476.27l9.35 -22.1 37.24 14.68 39.87 18.02 38.81 19.87 37.69 21.67 36.51 23.41 35.28 25.09 34 26.72 32.65 28.28 14.94 14.25 -16.97 16.97 -14.11 -13.46 -31.79 -27.53 -33.09 -26.01 -34.35 -24.42 -35.54 -22.79 -36.68 -21.09 -37.77 -19.34 -38.8 -17.54 -37.24 -14.68zm-303.73 -54.15l0 -24 0 0 46.3 1.17 45.7 3.48 45.04 5.72 44.32 7.92 43.55 10.05 42.71 12.13 41.82 14.15 3.63 1.43 -9.35 22.1 -2.53 -1 -40.7 -13.77 -41.56 -11.8 -42.38 -9.78 -43.13 -7.7 -43.84 -5.57 -44.49 -3.38 -45.09 -1.14 0 0zm-45.06 1.14l0 -24 45.06 -1.14 0 24 -45.06 1.14zm-619.73 304.75l-17.76 -16.14 16.37 -18.9 29.8 -31.25 31.25 -29.8 32.65 -28.28 34 -26.72 35.28 -25.09 36.51 -23.41 37.69 -21.67 32.62 -16.71 10.42 21.62 -31.58 16.18 -36.68 21.09 -35.54 22.79 -34.35 24.42 -33.09 26.01 -31.79 27.53 -30.43 29.01 -29.01 30.43 -16.37 18.9zm-171.42 308.46l-22.54 -8.25 13.39 -39.56 16.12 -40.87 18.02 -39.87 19.87 -38.81 21.67 -37.69 23.41 -36.51 25.09 -35.28 26.72 -34 11.91 -13.75 17.76 16.14 -11.16 12.89 -26.01 33.09 -24.42 34.35 -22.79 35.54 -21.09 36.68 -19.34 37.77 -17.54 38.8 -15.68 39.78 -13.39 39.56zm70.44 686.98l-21.09 11.45 -4.49 -7.81 -19.87 -38.81 -18.02 -39.87 -16.12 -40.87 -14.15 -41.82 -12.13 -42.71 -10.05 -43.55 -7.92 -44.32 -5.72 -45.04 -0.11 -1.39 23.97 -1.21 0.01 0.18 5.57 43.84 7.7 43.13 9.78 42.38 11.8 41.56 13.77 40.7 15.68 39.78 17.54 38.8 19.34 37.77 4.49 7.81zm230.16 267.57l-15.28 18.51 -21.59 -16.96 -32.65 -28.28 -31.25 -29.8 -29.8 -31.25 -28.28 -32.65 -26.72 -34 -25.09 -35.28 -23.41 -36.51 -17.18 -29.88 21.09 -11.45 16.6 28.87 22.79 35.54 24.42 34.35 26.01 33.09 27.53 31.79 29.01 30.43 30.43 29.01 31.79 27.53 21.59 16.96zm535.62 183.07l0 24 0 0 -46.3 -1.17 -45.7 -3.48 -45.04 -5.72 -44.32 -7.92 -43.55 -10.05 -1.08 -0.31 7.12 -22.92 -0.07 -0.02 42.38 9.78 43.13 7.7 43.84 5.57 44.49 3.38 45.09 1.14 0 0zm133.52 -10.11l2.42 23.88 -43.94 5.58 -45.7 3.48 -46.3 1.17 0 -24 45.09 -1.14 44.49 -3.38 43.94 -5.58zm330.12 -122.74l12.46 20.51 -9.42 6.04 -37.69 21.67 -38.81 19.87 -39.87 18.02 -40.87 16.12 -41.82 14.15 -42.71 12.13 -43.55 10.05 -44.32 7.92 -1.1 0.14 -2.42 -23.88 -0.1 0.01 43.13 -7.7 42.38 -9.78 41.56 -11.8 40.7 -13.77 39.78 -15.68 38.8 -17.54 37.77 -19.34 36.68 -21.09 9.42 -6.04zm394.63 -567.03l23.51 4.81 -0.08 0.46 -10.05 43.55 -12.13 42.71 -14.15 41.82 -16.12 40.87 -18.02 39.87 -19.87 38.81 -21.67 37.69 -23.41 36.51 -7.78 10.95 -19.22 -14.37 7.12 -10.01 22.79 -35.54 21.09 -36.68 19.34 -37.77 17.54 -38.8 15.68 -39.78 13.77 -40.7 11.8 -41.56 9.78 -42.38 0.08 -0.46zm17.72 -176.1l24 0 0 0 -1.17 46.3 -3.48 45.7 -5.72 45.04 -7.83 43.87 -23.51 -4.81 7.62 -42.68 5.57 -43.84 3.38 -44.49 1.14 -45.09 0 0z"/>
    </g>
   </g>
  </g>
 </g>
</svg>
