<?xml version="1.0" encoding="UTF-8"?>
<!DOCTYPE svg PUBLIC "-//W3C//DTD SVG 1.1//EN" "http://www.w3.org/Graphics/SVG/1.1/DTD/svg11.dtd">
<!-- Creator: CorelDRAW 2021 (64 Bit) -->
<svg xmlns="http://www.w3.org/2000/svg" xml:space="preserve" width="264.584mm" height="74.4313mm" version="1.1" style="shape-rendering:geometricPrecision; text-rendering:geometricPrecision; image-rendering:optimizeQuality; fill-rule:evenodd; clip-rule:evenodd"
viewBox="0 0 13612.92 3829.51"
 xmlns:xlink="http://www.w3.org/1999/xlink"
 xmlns:xodm="http://www.corel.com/coreldraw/odm/2003">
 <defs>
  <style type="text/css">
   <![CDATA[
    .fil4 {fill:none}
    .fil3 {fill:#542120}
    .fil2 {fill:#BB4744}
    .fil0 {fill:#FF615D}
    .fil7 {fill:#542120;fill-opacity:0.149020}
    .fil6 {fill:#FF615D;fill-opacity:0.149020}
    .fil1 {fill:#542120;fill-opacity:0.400000}
    .fil5 {fill:#542120;fill-opacity:0.400000}
   ]]>
  </style>
   <clipPath id="id0">
    <path d="M-0 3829.51l13612.92 0 0 -1468.3c-3744.59,-3110.37 -9992.63,-3282.04 -13612.92,289.09l0 1179.21z"/>
   </clipPath>
    <clipPath id="id1">
     <path d="M13612.92 3828.46l-47.4 -63.75c-3205.84,-3702.99 -10592.44,-3490.11 -13565.53,50.61l0 14.19 13612.92 0 0 -1.05z"/>
    </clipPath>
     <clipPath id="id2">
      <path d="M4090.06 1984.11c-110.57,-336.04 -1354.57,141.05 -1257.79,517 33.23,129.06 368.24,128.89 654.95,22.57 96.81,-35.9 199.33,-77.56 282.94,-131.63 220.97,-142.9 364.32,-272.93 319.91,-407.93z"/>
     </clipPath>
     <clipPath id="id3">
      <path d="M13612.92 3828.46l-47.4 -63.75c-3205.84,-3702.99 -10592.44,-3490.11 -13565.53,50.61l0 14.19 13612.92 0 0 -1.05z"/>
     </clipPath>
     <clipPath id="id4">
      <path d="M9731.33 2116.91c104.52,-337.92 -1192.14,-650 -1331.15,-287.15 -47.73,124.56 226.96,313.76 523.69,388.66 100.2,25.3 208.41,49.09 308.35,52.03 264.1,7.77 457.11,-17.78 499.11,-153.54z"/>
     </clipPath>
     <clipPath id="id5">
      <path d="M13612.92 3828.46l-47.4 -63.75c-3205.84,-3702.99 -10592.44,-3490.11 -13565.53,50.61l0 14.19 13612.92 0 0 -1.05z"/>
     </clipPath>
     <clipPath id="id6">
      <path d="M5015.11 2487.2c308.22,-104.67 476.24,-285.55 434.83,-382.42 -41.42,-96.88 -268.96,-99.03 -490.42,-20.27 -119.93,42.65 -259.24,115.96 -337.79,196.5 -66.5,68.19 -84.49,140.86 -76.27,174.13 15.4,62.36 161.44,136.73 469.66,32.06z"/>
     </clipPath>
     <clipPath id="id7">
      <path d="M13612.92 3828.46l-47.4 -63.75c-3205.84,-3702.99 -10592.44,-3490.11 -13565.53,50.61l0 14.19 13612.92 0 0 -1.05z"/>
     </clipPath>
     <clipPath id="id8">
      <path d="M10823.92 2607.55c298.78,128.59 546.55,107.49 582.47,8.5 35.92,-98.99 -130.19,-252.42 -347.3,-342.2 -117.57,-48.62 -270.44,-87.58 -383.52,-80.68 -95.73,5.84 -158.81,47.36 -175.57,77.35 -31.42,56.21 25.15,208.44 323.92,337.03z"/>
     </clipPath>
     <clipPath id="id9">
      <path d="M13612.92 3828.46l-47.4 -63.75c-3205.84,-3702.99 -10592.44,-3490.11 -13565.53,50.61l0 14.19 13612.92 0 0 -1.05z"/>
     </clipPath>
     <clipPath id="id10">
      <path d="M9923.23 2965.74c274.14,41.77 473.37,-28.68 481.13,-117.83 7.74,-89.15 -162.71,-179.79 -361.13,-207.13 -107.44,-14.81 -241.8,-14.11 -333.32,15.81 -77.49,25.32 -120.23,73 -127.43,101.27 -13.47,52.98 66.59,166.11 340.74,207.88z"/>
     </clipPath>
     <clipPath id="id11">
      <path d="M13612.92 3828.46l-47.4 -63.75c-3205.84,-3702.99 -10592.44,-3490.11 -13565.53,50.61l0 14.19 13612.92 0 0 -1.05z"/>
     </clipPath>
     <clipPath id="id12">
      <path d="M5635.68 1650.49c270.62,-60.07 429.9,-197.56 404.07,-283.33 -25.86,-85.76 -218.12,-108.6 -412.91,-62.41 -105.48,24.99 -230.27,74.14 -304.35,135.02 -62.72,51.54 -84.82,111.34 -81.02,140.24 7.11,54.17 123.58,130.55 394.22,70.48z"/>
     </clipPath>
     <clipPath id="id13">
      <path d="M13612.92 3828.46l-47.4 -63.75c-3205.84,-3702.99 -10592.44,-3490.11 -13565.53,50.61l0 14.19 13612.92 0 0 -1.05z"/>
     </clipPath>
    <clipPath id="id14">
     <path d="M-0 3829.51l13612.92 0 0 -1468.3c-3744.59,-3110.37 -9992.63,-3282.04 -13612.92,289.09l0 1179.21z"/>
    </clipPath>
 </defs>
 <g id="Camada_x0020_1">
  <metadata id="CorelCorpID_0Corel-Layer"/>
  <g>
  </g>
  <g style="clip-path:url(#id0)">
   <g>
    <path class="fil0" d="M-233.29 4221.22l14138.24 0 -339.42 -456.51c-3210.24,-3708.07 -10612.97,-3489.71 -13577.99,65l-220.82 391.51z"/>
   </g>
   <g style="clip-path:url(#id1)">
    <g id="_2285088045984">
     <path id="_1" class="fil1" d="M-8.48 3829.72l13577.99 0c158.37,-893.52 -474.47,-1603.16 -2098.96,-1702.25 442.59,551.78 -124.81,962.75 -650.14,1045.72 -682.17,107.73 -1512.87,-22.65 -2356.45,-114.29 -655.2,-71.18 -1320.81,-106.71 -1913.87,-67.8 -2567.91,168.48 -2297.58,134.47 -3357.76,77.16 -503.64,-27.22 -1519.05,-206.23 -1188.4,-866.97 -1112.62,198.71 -2053.16,1058.09 -2012.41,1628.43z"/>
     <path class="fil2" d="M4090.06 1984.11c-110.57,-336.04 -1354.57,141.05 -1257.79,517 33.23,129.06 368.24,128.89 654.95,22.57 96.81,-35.9 199.33,-77.56 282.94,-131.63 220.97,-142.9 364.32,-272.93 319.91,-407.93z"/>
    </g>
    <g style="clip-path:url(#id2)">
     <g>
      <path id="_1_0" class="fil3" d="M3095.77 2606.55c-77.53,0 -142.53,-12.41 -188.58,-37.23 76.51,-125.48 265.43,-266.84 506.14,-364.92 171.99,-70.08 338.22,-105.05 468.56,-105.05 77.53,0 142.53,12.41 188.58,37.23 -70.08,114.73 -233.94,242.63 -445.54,338.74 -0.34,0.15 -0.68,0.45 -1.02,0.61 -0.34,0 -0.34,0 -0.34,0 -0.33,0.3 -0.67,0.45 -1.01,0.6 0,0 -0.34,0 -0.34,0 -0.34,0.3 -0.67,0.46 -1.01,0.61 -0.34,0 -0.34,0.15 -0.34,0.15 -0.34,0.15 -0.68,0.3 -1.01,0.45 0,0 -0.34,0 -0.34,0.15 -1.02,0.3 -1.69,0.76 -2.37,1.06 -0.34,0 -0.34,0.15 -0.34,0.15 -0.33,0.15 -0.67,0.3 -1.01,0.45 0,0 -0.34,0 -0.34,0.15 -0.34,0.15 -0.67,0.3 -1.01,0.46 -0.34,0.15 -0.34,0.15 -0.68,0.3 -0.34,0 -0.34,0.15 -0.67,0.3 0,0 -0.34,0.15 -0.34,0.15 -0.34,0.15 -0.68,0.3 -1.02,0.3 -0.33,0.15 -0.67,0.3 -1.01,0.46 0,0.15 -0.34,0.15 -0.34,0.3 -0.34,0.15 -0.67,0.15 -0.67,0.3 -0.34,0 -0.34,0.15 -0.34,0.15 -1.02,0.3 -1.69,0.76 -2.71,1.06 0,0.15 -0.33,0.15 -0.33,0.15 -0.34,0.15 -0.68,0.3 -0.68,0.45 -0.34,0 -0.34,0 -0.34,0.15 -1.01,0.3 -1.69,0.6 -2.71,1.06 0,0 -0.34,0.15 -0.34,0.15 -0.34,0.15 -0.34,0.3 -0.68,0.3 0,0 0,0 0,0.15 -0.67,0.15 -1.35,0.46 -2.03,0.76 0,0 0,0 0,0 -0.33,0.15 -0.67,0.3 -1.01,0.45 0,0 0,0 -0.34,0.15 -0.34,0.15 -0.67,0.3 -1.35,0.45 0,0.15 -0.34,0.15 -0.34,0.3 -0.34,0 -0.34,0.15 -0.67,0.3 0,0 -0.34,0.15 -0.34,0.15 -0.34,0.15 -0.68,0.15 -1.02,0.3 0,0.15 0,0.15 -0.33,0.15 -0.34,0.3 -1.02,0.45 -1.69,0.76 0,0 0,0 0,0 -0.34,0.15 -0.68,0.3 -1.02,0.45 0,0 0,0 0,0 -1.01,0.45 -1.69,0.76 -2.71,1.21 0,0 -0.34,0 -0.34,0.15 -0.34,0.15 -0.68,0.15 -0.68,0.3 -0.33,0 -0.33,0 -0.33,0.15 -1.02,0.3 -1.69,0.76 -2.71,1.06 0,0 -0.34,0.15 -0.34,0.15 -1.01,0.46 -1.69,0.76 -2.71,1.21 0,0 0,0 -0.34,0 0,0.15 -0.34,0.3 -0.67,0.3 0,0.15 -0.34,0.15 -0.34,0.3 -0.34,0.15 -0.68,0.15 -1.02,0.3 -0.34,0.15 -0.34,0.3 -0.67,0.46 -0.34,0 -0.68,0.15 -0.68,0.15 -0.34,0.15 -0.68,0.15 -0.68,0.3 -0.33,0.15 -0.33,0.15 -0.67,0.3 0,0 -0.34,0.15 -0.68,0.15 -0.34,0.15 -0.67,0.3 -1.01,0.61 -0.34,0 -0.34,0.15 -0.68,0.15 0,0.15 -0.34,0.15 -0.67,0.3 0,0 -0.34,0.15 -0.34,0.15 -0.34,0.15 -0.34,0.15 -0.68,0.3 -0.34,0.15 -0.67,0.3 -1.01,0.46 -0.34,0 -0.34,0.15 -0.68,0.15 0,0.15 -0.34,0.3 -0.67,0.3 -0.34,0.15 -0.34,0.15 -0.68,0.3 -0.34,0.15 -0.34,0.15 -0.68,0.3 0,0 -0.33,0.15 -0.33,0.15 -0.34,0.15 -0.68,0.3 -1.36,0.45 0,0.15 -0.33,0.15 -0.33,0.15 -0.34,0.15 -0.68,0.3 -1.02,0.45 0,0 0,0.15 -0.34,0.15 -0.33,0.15 -0.67,0.3 -1.01,0.45 -1.01,0.3 -1.69,0.76 -2.71,1.06 0,0 -0.34,0.15 -0.34,0.15 0,0 -0.34,0.15 -0.34,0.15 -0.68,0.15 -1.01,0.46 -1.69,0.76 -0.34,0 -0.68,0.15 -0.68,0.3 -1.01,0.3 -1.69,0.61 -2.71,0.91 0,0 0,0 0,0 -0.68,0.3 -1.69,0.76 -2.37,1.06 -0.34,0 -0.34,0.15 -0.34,0.15 -112.74,44.95 -222.43,74.77 -320.95,89.61 0,0 0.34,-0.15 0.34,-0.15 -48.41,7.42 -94.46,11.05 -136.78,11.05z"/>
     </g>
    </g>
    <g style="clip-path:url(#id3)">
     <path class="fil4" d="M4090.06 1984.11c-110.57,-336.04 -1354.57,141.05 -1257.79,517 33.23,129.06 368.24,128.89 654.95,22.57 96.81,-35.9 199.33,-77.56 282.94,-131.63 220.97,-142.9 364.32,-272.93 319.91,-407.93z"/>
     <path class="fil2" d="M9731.33 2116.91c104.52,-337.92 -1192.14,-650 -1331.15,-287.15 -47.73,124.56 226.96,313.76 523.69,388.66 100.2,25.3 208.41,49.09 308.35,52.03 264.1,7.77 457.11,-17.78 499.11,-153.54z"/>
    </g>
    <g style="clip-path:url(#id4)">
     <g>
      <path id="_1_1" class="fil3" d="M8554.91 2065.09c-63.55,-43.82 -109.61,-90.73 -132.94,-137.1 135.58,-59.59 372.52,-68.69 626.77,-13.03 181.66,39.77 338.21,105.07 445.04,178.73 63.54,43.82 109.61,90.73 132.94,137.1 -124.07,54.42 -332.65,66.63 -561.89,25.81 -0.37,-0.07 -0.82,-0.01 -1.18,-0.08 -0.28,-0.19 -0.28,-0.19 -0.28,-0.19 -0.45,0.06 -0.82,-0.01 -1.18,-0.08 0,0 -0.28,-0.19 -0.28,-0.19 -0.45,0.06 -0.82,-0.01 -1.18,-0.08 -0.28,-0.2 -0.37,-0.07 -0.37,-0.07 -0.37,-0.07 -0.73,-0.14 -1.1,-0.21 0,0 -0.28,-0.19 -0.37,-0.07 -1.01,-0.32 -1.83,-0.33 -2.56,-0.47 -0.28,-0.2 -0.37,-0.07 -0.37,-0.07 -0.37,-0.07 -0.73,-0.14 -1.1,-0.21 0,0 -0.28,-0.19 -0.37,-0.07 -0.37,-0.07 -0.73,-0.13 -1.1,-0.2 -0.37,-0.07 -0.37,-0.07 -0.73,-0.13 -0.28,-0.19 -0.37,-0.07 -0.74,-0.13 0,0 -0.37,-0.07 -0.37,-0.07 -0.37,-0.07 -0.73,-0.14 -1.01,-0.33 -0.37,-0.07 -0.73,-0.13 -1.1,-0.2 -0.09,0.12 -0.37,-0.07 -0.45,0.06 -0.37,-0.07 -0.64,-0.26 -0.73,-0.13 -0.28,-0.19 -0.37,-0.07 -0.37,-0.07 -1.01,-0.33 -1.83,-0.34 -2.83,-0.66 -0.09,0.12 -0.37,-0.07 -0.37,-0.07 -0.37,-0.07 -0.73,-0.13 -0.82,-0.01 -0.28,-0.19 -0.28,-0.19 -0.37,-0.07 -1.01,-0.33 -1.74,-0.46 -2.83,-0.66 0,0 -0.37,-0.07 -0.37,-0.07 -0.37,-0.07 -0.45,0.06 -0.73,-0.13 0,0 0,0 -0.09,0.12 -0.64,-0.26 -1.37,-0.39 -2.1,-0.53 0,0 0,0 0,0 -0.37,-0.07 -0.73,-0.13 -1.1,-0.2 0,0 0,0 -0.37,-0.07 -0.37,-0.07 -0.73,-0.13 -1.37,-0.39 -0.09,0.12 -0.37,-0.07 -0.45,0.06 -0.28,-0.2 -0.37,-0.07 -0.73,-0.14 0,0 -0.37,-0.07 -0.37,-0.07 -0.37,-0.07 -0.64,-0.26 -1.01,-0.32 -0.09,0.12 -0.09,0.12 -0.37,-0.07 -0.45,0.06 -1.1,-0.2 -1.83,-0.33 0,0 0,0 0,0 -0.37,-0.07 -0.73,-0.14 -1.1,-0.21 0,0 0,0 0,0 -1.1,-0.2 -1.83,-0.33 -2.93,-0.54 0,0 -0.28,-0.19 -0.37,-0.07 -0.37,-0.07 -0.64,-0.26 -0.73,-0.14 -0.28,-0.19 -0.28,-0.19 -0.37,-0.07 -1.01,-0.32 -1.83,-0.33 -2.83,-0.66 0,0 -0.37,-0.07 -0.37,-0.07 -1.1,-0.21 -1.83,-0.34 -2.92,-0.54 0,0 0,0 -0.28,-0.19 -0.09,0.12 -0.45,0.06 -0.73,-0.13 -0.09,0.12 -0.37,-0.07 -0.45,0.06 -0.37,-0.07 -0.64,-0.26 -1.01,-0.33 -0.37,-0.07 -0.45,0.06 -0.82,-0.01 -0.28,-0.19 -0.64,-0.26 -0.64,-0.26 -0.37,-0.07 -0.64,-0.26 -0.73,-0.13 -0.37,-0.07 -0.37,-0.07 -0.73,-0.13 0,0 -0.37,-0.07 -0.64,-0.26 -0.37,-0.07 -0.73,-0.13 -1.18,-0.08 -0.28,-0.19 -0.37,-0.07 -0.64,-0.26 -0.09,0.12 -0.37,-0.07 -0.73,-0.13 0,0 -0.37,-0.07 -0.37,-0.07 -0.37,-0.07 -0.37,-0.07 -0.73,-0.13 -0.37,-0.07 -0.73,-0.14 -1.1,-0.21 -0.28,-0.19 -0.37,-0.07 -0.64,-0.26 -0.09,0.12 -0.45,0.06 -0.73,-0.13 -0.37,-0.07 -0.37,-0.07 -0.73,-0.13 -0.37,-0.07 -0.37,-0.07 -0.73,-0.13 0,0 -0.37,-0.07 -0.37,-0.07 -0.37,-0.07 -0.73,-0.13 -1.37,-0.39 -0.09,0.12 -0.37,-0.07 -0.37,-0.07 -0.37,-0.07 -0.73,-0.13 -1.1,-0.2 0,0 -0.09,0.12 -0.37,-0.07 -0.37,-0.07 -0.73,-0.14 -1.1,-0.21 -1.01,-0.32 -1.83,-0.33 -2.83,-0.66 0,0 -0.37,-0.07 -0.37,-0.07 0,0 -0.37,-0.07 -0.37,-0.07 -0.64,-0.26 -1.1,-0.2 -1.83,-0.33 -0.28,-0.19 -0.64,-0.26 -0.73,-0.13 -1.01,-0.32 -1.74,-0.46 -2.75,-0.79 0,0 0,0 0,0 -0.73,-0.13 -1.83,-0.33 -2.56,-0.47 -0.28,-0.2 -0.37,-0.07 -0.37,-0.07 -118.51,-26.87 -225.73,-64.43 -315.09,-107.96 0,0 0.37,0.07 0.37,0.07 -43.99,-21.28 -83.84,-44.33 -118.52,-68.25z"/>
     </g>
    </g>
    <g style="clip-path:url(#id5)">
     <path class="fil4" d="M9731.33 2116.91c104.52,-337.92 -1192.14,-650 -1331.15,-287.15 -47.73,124.56 226.96,313.76 523.69,388.66 100.2,25.3 208.41,49.09 308.35,52.03 264.1,7.77 457.11,-17.78 499.11,-153.54z"/>
     <path class="fil5" d="M4310.78 1665.15c-28.25,0 -48.75,-7.58 -52.07,-21.61 -5.43,-22.31 34.42,-52.49 88.95,-67.33 20.16,-5.55 39.58,-8.18 56.29,-8.18 28.25,0 48.74,7.61 52.14,21.65 5.37,22.32 -34.49,52.46 -89.01,67.33 -20.17,5.51 -39.58,8.14 -56.29,8.14z"/>
     <path class="fil5" d="M4962.71 1490.69c-28.32,0 -48.76,-7.58 -52.15,-21.61 -5.36,-22.31 34.49,-52.45 88.94,-67.33 20.24,-5.51 39.66,-8.14 56.29,-8.14 28.31,0 48.75,7.58 52.15,21.61 5.36,22.31 -34.43,52.45 -88.95,67.33 -20.24,5.51 -39.59,8.14 -56.29,8.14z"/>
     <path class="fil5" d="M5322.61 1918.89c-45.42,0 -78.31,-12.2 -83.74,-34.7 -8.59,-35.86 55.32,-84.23 142.8,-108.1 32.52,-8.83 63.64,-13.09 90.37,-13.09 139.15,0 69.34,107.74 -59.06,142.81 -32.53,8.83 -63.64,13.09 -90.37,13.09z"/>
     <path class="fil5" d="M5922.95 1923.57c-62.72,0 -107.63,-16.88 -117.28,-49.39 -16.98,-57.5 83.14,-142.19 223.61,-189.12 60.92,-20.48 119.56,-30.39 167.58,-30.39 62.72,0 107.79,16.87 117.43,49.39 16.82,57.5 -83.14,142.18 -223.6,189.2 -60.92,20.39 -119.56,30.3 -167.74,30.3z"/>
     <path class="fil5" d="M6382.87 1552.34c-28.25,0 -48.75,-7.58 -52.08,-21.65 -5.37,-22.28 34.43,-52.46 88.95,-67.3 20.24,-5.55 39.58,-8.18 56.29,-8.18 28.31,0 48.74,7.61 52.14,21.65 5.37,22.32 -34.49,52.46 -88.95,67.33 -20.23,5.51 -39.65,8.14 -56.35,8.14z"/>
     <path class="fil5" d="M5544.37 2430.86c-28.24,0 -48.71,-7.61 -52.14,-21.65 -5.33,-22.31 34.46,-52.45 88.98,-67.33 20.21,-5.51 39.63,-8.14 56.31,-8.14 0.47,0 0.95,0 1.42,0 68.14,5.47 73.52,28.21 10.03,69.96 -13.72,7.43 -30.19,14.07 -48.29,18.98 -20.21,5.55 -39.58,8.18 -56.31,8.18z"/>
     <path class="fil5" d="M5276.57 2642.63c-45.49,0 -78.35,-12.18 -83.73,-34.73 -8.68,-35.82 55.3,-84.19 142.74,-108.09 32.45,-8.85 63.67,-13.07 90.44,-13.07 45.37,0 78.24,12.18 83.62,34.73 8.68,35.82 -55.3,84.19 -142.74,108.09 -32.45,8.8 -63.57,13.07 -90.33,13.07z"/>
     <path class="fil5" d="M4272.7 2387.29c-28.32,0 -48.79,-7.61 -52.14,-21.65 -5.4,-22.31 34.42,-52.45 88.95,-67.33 20.19,-5.51 39.62,-8.14 56.25,-8.14 28.32,0 48.78,7.58 52.21,21.65 5.34,22.28 -34.49,52.45 -89.02,67.3 -20.18,5.55 -39.62,8.18 -56.24,8.18z"/>
     <path class="fil5" d="M3812.82 2758.46c-62.68,0 -107.78,-16.81 -117.39,-49.34 -16.93,-57.53 83.04,-142.17 223.55,-189.14 61.05,-20.44 119.5,-30.32 167.69,-30.32 62.69,0 107.79,16.81 117.39,49.33 16.93,57.53 -83.2,142.17 -223.54,189.14 -61.05,20.45 -119.66,30.33 -167.69,30.33z"/>
     <g>
      <path class="fil5" d="M8553.17 1559.15c-28.45,0 -58.66,-2.16 -90.01,-6.76 -145.77,-21.44 -257.8,-87.17 -250.08,-146.89 6.11,-46.89 84.21,-76.04 188.21,-76.04 28.29,0 58.66,2.15 89.84,6.75 145.94,21.44 257.8,87.17 250.09,146.82 -6.11,46.96 -84.22,76.12 -188.06,76.12z"/>
      <path class="fil5" d="M9008.69 1578.01c-12.14,0 -25,-0.91 -38.23,-2.84 -61.79,-9.09 -109.46,-37.02 -106.17,-62.35 2.57,-19.89 35.9,-32.28 79.85,-32.28 12.14,0 25,0.92 38.31,2.85 61.78,9.09 109.23,37.01 106.16,62.35 -2.63,19.9 -35.9,32.28 -79.92,32.28z"/>
      <path class="fil5" d="M10197.11 1867.94c-12.14,0 -25.08,-0.92 -38.3,-2.85 -61.79,-9.09 -109.46,-37.01 -106.16,-62.35 2.56,-19.9 35.68,-32.28 79.84,-32.28 12.14,0 25.08,0.91 38.32,2.84 61.78,9.12 109.3,37.02 106.16,62.35 -2.55,19.89 -35.9,32.28 -79.84,32.28z"/>
      <path class="fil5" d="M10551.49 2080.18c-30.81,0 -66.61,-5.2 -104.21,-15.99 -96.74,-27.88 -167.07,-82.6 -156.88,-122.26 6,-24.24 41.01,-37.23 89.37,-37.23 30.58,0 66.6,5.2 103.98,15.99 96.73,27.88 167.07,82.6 157.11,122.2 -6.23,24.31 -41.24,37.29 -89.37,37.29z"/>
      <path class="fil5" d="M10729.32 2743.69c-22.23,0 -50.97,-6.37 -80.58,-18.97 -58.12,-24.63 -97.82,-63.84 -89.06,-87.57 4.47,-11.62 19.53,-17.41 40.66,-17.41 22.08,0 50.96,6.37 80.64,18.93 57.91,24.63 97.82,63.88 89.06,87.61 -4.46,11.62 -19.52,17.41 -40.72,17.41z"/>
      <path class="fil5" d="M9611.26 2439.15c-12.13,0 -24.78,-0.91 -38.24,-2.86 -61.85,-9.08 -109.31,-36.98 -106.02,-62.33 2.63,-19.92 35.76,-32.31 79.84,-32.31 11.99,0 24.86,0.94 38.1,2.86 61.85,9.11 109.52,37.02 106.16,62.36 -2.56,19.89 -35.68,32.27 -79.84,32.27z"/>
      <path class="fil5" d="M8710.81 2359c-21.87,0 -45.43,-1.98 -69.9,-6.14 -99,-16.92 -174.21,-63.52 -168.09,-104.03 4.53,-30.51 54.03,-48.89 120.41,-48.89 21.75,0 45.31,1.98 69.78,6.14 99,16.92 174.43,63.52 168.2,104.03 -4.65,30.51 -53.91,48.89 -120.4,48.89z"/>
     </g>
     <path class="fil2" d="M5015.11 2487.2c308.22,-104.67 476.24,-285.55 434.83,-382.42 -41.42,-96.88 -268.96,-99.03 -490.42,-20.27 -119.93,42.65 -259.24,115.96 -337.79,196.5 -66.5,68.19 -84.49,140.86 -76.27,174.13 15.4,62.36 161.44,136.73 469.66,32.06z"/>
    </g>
    <g style="clip-path:url(#id6)">
     <g>
      <path id="_1_2" class="fil3" d="M4741.67 2539.16c-37.17,0 -70.35,-3.66 -98.44,-10.88 68.36,-75.21 187.38,-152.08 331.83,-207 117.91,-44.92 231.4,-66.94 322.32,-66.94 36.94,0 70.35,3.66 98.44,10.88 -65.7,72.25 -178.08,146.07 -315.01,200.47 0,0 0,0 0,0 -0.44,0.26 -1.11,0.44 -1.55,0.61 0,0 0,0.08 -0.22,0.08 -0.44,0.17 -0.88,0.35 -1.33,0.52 0,0.09 -0.22,0.09 -0.22,0.17 -1.11,0.43 -2.21,0.87 -3.32,1.22 0,0.09 -0.22,0.17 -0.44,0.17 -0.22,0.17 -0.66,0.34 -1.11,0.43 -0.22,0.09 -0.44,0.17 -0.66,0.26 -0.22,0.17 -0.44,0.26 -0.88,0.35 -0.22,0.08 -0.44,0.26 -0.66,0.34 -0.22,0.09 -0.66,0.17 -0.88,0.26 -0.22,0.09 -0.44,0.26 -0.66,0.35 -0.44,0.09 -0.66,0.17 -0.88,0.26 -0.22,0.09 -0.44,0.26 -0.88,0.35 -0.22,0.09 -0.44,0.17 -0.88,0.35 -0.22,0.09 -0.44,0.17 -0.66,0.17 -0.44,0.26 -0.88,0.43 -1.55,0.61 -0.44,0.26 -0.88,0.44 -1.55,0.61 0,0.09 -0.22,0.09 -0.44,0.17 -0.44,0.17 -0.66,0.35 -1.11,0.44 -0.22,0.09 -0.22,0.09 -0.44,0.09 -70.35,26.55 -138.93,44.74 -202.19,55.19 0.22,0 0.66,0 1.11,0 -42.03,6.97 -81.63,10.45 -117.69,10.45z"/>
     </g>
    </g>
    <g style="clip-path:url(#id7)">
     <path class="fil4" d="M5015.11 2487.2c308.22,-104.67 476.24,-285.55 434.83,-382.42 -41.42,-96.88 -268.96,-99.03 -490.42,-20.27 -119.93,42.65 -259.24,115.96 -337.79,196.5 -66.5,68.19 -84.49,140.86 -76.27,174.13 15.4,62.36 161.44,136.73 469.66,32.06z"/>
     <path class="fil2" d="M10823.92 2607.55c298.78,128.59 546.55,107.49 582.47,8.5 35.92,-98.99 -130.19,-252.42 -347.3,-342.2 -117.57,-48.62 -270.44,-87.58 -383.52,-80.68 -95.73,5.84 -158.81,47.36 -175.57,77.35 -31.42,56.21 25.15,208.44 323.92,337.03z"/>
    </g>
    <g style="clip-path:url(#id8)">
     <g>
      <path id="_1_3" class="fil3" d="M10586.89 2463.34c-27.37,-24.8 -49.3,-49.63 -65.04,-73.7 101.92,-9.78 242.27,13.03 386.33,68.97 117.64,45.6 216.33,105.11 283.29,165.79 27.21,24.65 49.3,49.63 65.04,73.7 -97.93,9.37 -231.32,-11.26 -369.47,-62.56 0,0 0,0 0,0 -0.51,-0.1 -1.12,-0.42 -1.56,-0.59 0,0 -0.06,0.07 -0.23,-0.08 -0.44,-0.16 -0.89,-0.33 -1.33,-0.5 -0.06,0.06 -0.22,-0.09 -0.28,-0.02 -1.11,-0.42 -2.23,-0.83 -3.28,-1.32 -0.06,0.06 -0.28,-0.02 -0.45,-0.17 -0.28,-0.02 -0.73,-0.19 -1.11,-0.42 -0.23,-0.08 -0.45,-0.16 -0.67,-0.25 -0.28,-0.02 -0.5,-0.1 -0.89,-0.33 -0.22,-0.09 -0.5,-0.1 -0.73,-0.19 -0.22,-0.08 -0.61,-0.31 -0.83,-0.4 -0.22,-0.08 -0.5,-0.1 -0.73,-0.19 -0.39,-0.23 -0.61,-0.31 -0.83,-0.4 -0.22,-0.08 -0.5,-0.1 -0.89,-0.33 -0.22,-0.09 -0.45,-0.17 -0.89,-0.33 -0.22,-0.09 -0.45,-0.17 -0.61,-0.32 -0.5,-0.1 -0.95,-0.27 -1.56,-0.58 -0.5,-0.1 -0.95,-0.27 -1.56,-0.59 -0.06,0.07 -0.22,-0.08 -0.45,-0.16 -0.44,-0.17 -0.73,-0.19 -1.11,-0.42 -0.22,-0.09 -0.22,-0.09 -0.39,-0.23 -70.01,-27.39 -133,-59.75 -186.76,-94.28 0.16,0.15 0.49,0.44 0.82,0.74 -35.73,-22.92 -67.29,-46.78 -93.85,-70.85z"/>
     </g>
    </g>
    <g style="clip-path:url(#id9)">
     <path class="fil4" d="M10823.92 2607.55c298.78,128.59 546.55,107.49 582.47,8.5 35.92,-98.99 -130.19,-252.42 -347.3,-342.2 -117.57,-48.62 -270.44,-87.58 -383.52,-80.68 -95.73,5.84 -158.81,47.36 -175.57,77.35 -31.42,56.21 25.15,208.44 323.92,337.03z"/>
     <path class="fil2" d="M9923.23 2965.74c274.14,41.77 473.37,-28.68 481.13,-117.83 7.74,-89.15 -162.71,-179.79 -361.13,-207.13 -107.44,-14.81 -241.8,-14.11 -333.32,15.81 -77.49,25.32 -120.23,73 -127.43,101.27 -13.47,52.98 66.59,166.11 340.74,207.88z"/>
    </g>
    <g style="clip-path:url(#id10)">
     <g>
      <path id="_1_4" class="fil3" d="M9696.45 2897.88c-27.98,-14.54 -51.5,-30.27 -69.75,-46.71 81.7,-29.88 202.21,-41.2 333.06,-26.04 106.84,12.31 201.14,40.13 269.59,75.7 27.82,14.45 51.5,30.27 69.75,46.71 -78.51,28.69 -192.8,40.31 -317.78,27.7 0,0 0,0 0,0 -0.44,0.02 -1.01,-0.11 -1.41,-0.15 0,0 -0.03,0.07 -0.2,-0.02 -0.4,-0.04 -0.81,-0.08 -1.21,-0.12 -0.04,0.06 -0.2,-0.02 -0.24,0.04 -1.01,-0.1 -2.02,-0.21 -2.99,-0.38 -0.03,0.07 -0.24,0.05 -0.4,-0.04 -0.24,0.05 -0.64,0.01 -1.01,-0.1 -0.2,-0.02 -0.4,-0.04 -0.6,-0.06 -0.24,0.04 -0.44,0.02 -0.81,-0.09 -0.2,-0.02 -0.44,0.03 -0.64,0.01 -0.21,-0.02 -0.57,-0.13 -0.77,-0.15 -0.21,-0.02 -0.44,0.02 -0.64,0 -0.37,-0.11 -0.57,-0.13 -0.77,-0.15 -0.2,-0.02 -0.44,0.03 -0.8,-0.08 -0.2,-0.02 -0.41,-0.04 -0.81,-0.09 -0.2,-0.02 -0.4,-0.04 -0.57,-0.13 -0.44,0.03 -0.84,-0.02 -1.41,-0.14 -0.44,0.02 -0.84,-0.02 -1.41,-0.15 -0.04,0.07 -0.2,-0.02 -0.41,-0.04 -0.4,-0.04 -0.64,0.01 -1,-0.1 -0.21,-0.02 -0.21,-0.02 -0.37,-0.11 -63.64,-7.53 -122.59,-20.66 -174.43,-37.55 0.16,0.08 0.5,0.26 0.83,0.43 -34.45,-11.2 -65.66,-24.07 -92.81,-38.18z"/>
     </g>
    </g>
    <g style="clip-path:url(#id11)">
     <path class="fil4" d="M9923.23 2965.74c274.14,41.77 473.37,-28.68 481.13,-117.83 7.74,-89.15 -162.71,-179.79 -361.13,-207.13 -107.44,-14.81 -241.8,-14.11 -333.32,15.81 -77.49,25.32 -120.23,73 -127.43,101.27 -13.47,52.98 66.59,166.11 340.74,207.88z"/>
     <path class="fil2" d="M5635.68 1650.49c270.62,-60.07 429.9,-197.56 404.07,-283.33 -25.86,-85.76 -218.12,-108.6 -412.91,-62.41 -105.48,24.99 -230.27,74.14 -304.35,135.02 -62.72,51.54 -84.82,111.34 -81.02,140.24 7.11,54.17 123.58,130.55 394.22,70.48z"/>
    </g>
    <g style="clip-path:url(#id12)">
     <g>
      <path id="_1_5" class="fil3" d="M5399.45 1669.2c-31.44,-3.43 -59.16,-9.59 -82.23,-18.29 64.95,-57.31 172.91,-111.33 300.31,-144.46 103.99,-27.1 202.07,-35.25 278.97,-26.86 31.25,3.41 59.16,9.59 82.24,18.29 -62.43,55.05 -164.49,107.11 -285.47,140.48 0,0 0,0 0,0 -0.4,0.18 -0.98,0.27 -1.37,0.38 0,0 -0.01,0.07 -0.2,0.05 -0.39,0.11 -0.78,0.21 -1.17,0.32 -0.01,0.07 -0.2,0.05 -0.2,0.13 -0.98,0.26 -1.96,0.53 -2.92,0.72 -0.01,0.08 -0.21,0.13 -0.39,0.11 -0.21,0.13 -0.6,0.24 -0.98,0.27 -0.2,0.05 -0.39,0.11 -0.59,0.16 -0.21,0.13 -0.4,0.18 -0.78,0.21 -0.2,0.06 -0.4,0.18 -0.59,0.24 -0.2,0.05 -0.58,0.08 -0.78,0.14 -0.2,0.05 -0.4,0.18 -0.59,0.23 -0.39,0.03 -0.58,0.09 -0.77,0.14 -0.2,0.05 -0.4,0.18 -0.78,0.21 -0.2,0.06 -0.39,0.11 -0.78,0.22 -0.2,0.05 -0.39,0.1 -0.58,0.08 -0.4,0.18 -0.79,0.29 -1.36,0.38 -0.4,0.18 -0.79,0.29 -1.37,0.37 -0.01,0.08 -0.2,0.06 -0.39,0.11 -0.39,0.11 -0.6,0.23 -0.98,0.27 -0.2,0.05 -0.2,0.05 -0.38,0.03 -62.02,15.96 -121.76,25.02 -176.26,28.01 0.19,0.02 0.56,0.06 0.93,0.1 -36.21,2.01 -70.03,1.3 -100.53,-2.03z"/>
     </g>
    </g>
    <g style="clip-path:url(#id13)">
     <path class="fil4" d="M5635.68 1650.49c270.62,-60.07 429.9,-197.56 404.07,-283.33 -25.86,-85.76 -218.12,-108.6 -412.91,-62.41 -105.48,24.99 -230.27,74.14 -304.35,135.02 -62.72,51.54 -84.82,111.34 -81.02,140.24 7.11,54.17 123.58,130.55 394.22,70.48z"/>
    </g>
   </g>
   <g style="clip-path:url(#id14)">
    <path class="fil4" d="M-233.29 4221.22l14138.24 0 -339.42 -456.51c-3210.24,-3708.07 -10612.97,-3489.71 -13577.99,65l-220.82 391.51z"/>
    <path class="fil6" d="M-435.41 4291.65l14048.12 0 0 -1494.67c-4198.66,-3520.45 -10575.37,-2847.07 -13612.92,290.12l-435.2 1204.54z"/>
    <path class="fil7" d="M-435.41 3856.02l14048.12 0 0 -1494.67c-4198.66,-3520.45 -10575.37,-2847.07 -13612.92,290.12l-435.2 1204.54z"/>
   </g>
  </g>
  <path class="fil4" d="M-0 3829.51l13612.92 0 0 -1468.3c-3744.59,-3110.37 -9992.63,-3282.04 -13612.92,289.09l0 1179.21z"/>
 </g>
</svg>
