<?xml version="1.0" encoding="UTF-8"?>
<!DOCTYPE svg PUBLIC "-//W3C//DTD SVG 1.1//EN" "http://www.w3.org/Graphics/SVG/1.1/DTD/svg11.dtd">
<!-- Creator: CorelDRAW 2021 (64 Bit) -->
<svg xmlns="http://www.w3.org/2000/svg" xml:space="preserve" width="264.584mm" height="109.057mm" version="1.1" style="shape-rendering:geometricPrecision; text-rendering:geometricPrecision; image-rendering:optimizeQuality; fill-rule:evenodd; clip-rule:evenodd"
viewBox="0 0 13612.92 5611.02"
 xmlns:xlink="http://www.w3.org/1999/xlink"
 xmlns:xodm="http://www.corel.com/coreldraw/odm/2003">
 <defs>
  <style type="text/css">
   <![CDATA[
    .fil4 {fill:none}
    .fil19 {fill:#0074BE}
    .fil20 {fill:#0088C9}
    .fil3 {fill:#542120}
    .fil18 {fill:#B9AFBE}
    .fil2 {fill:#BB4744}
    .fil21 {fill:#FEFEFE}
    .fil0 {fill:#FF615D}
    .fil15 {fill:#050709;fill-rule:nonzero}
    .fil10 {fill:#101820;fill-rule:nonzero}
    .fil14 {fill:#197BDD;fill-rule:nonzero}
    .fil13 {fill:#22A7F0;fill-rule:nonzero}
    .fil11 {fill:#371A45;fill-rule:nonzero}
    .fil17 {fill:#958D9D;fill-rule:nonzero}
    .fil16 {fill:#9B8DA2;fill-rule:nonzero}
    .fil12 {fill:#D8D8D8;fill-rule:nonzero}
    .fil9 {fill:#E5E5E5;fill-rule:nonzero}
    .fil8 {fill:white;fill-rule:nonzero}
    .fil7 {fill:#542120;fill-opacity:0.149020}
    .fil6 {fill:#FF615D;fill-opacity:0.149020}
    .fil1 {fill:#542120;fill-opacity:0.400000}
    .fil5 {fill:#542120;fill-opacity:0.400000}
   ]]>
  </style>
   <clipPath id="id0">
    <path d="M-0 5611.02l13612.92 0 0 -1468.3c-1305.05,-1084.02 -2914.18,-1811.09 -4610.16,-2147.16 -170.03,-33.69 24.81,-1501.97 -108.24,-1653.71 -526.47,-600.43 -2008.58,-232.31 -2694.35,-208.17 -95.11,3.35 46.12,1662.62 -48.84,1668.44 -2273.28,139.52 -4489.25,990.17 -6151.34,2629.68l0 1179.21z"/>
   </clipPath>
    <clipPath id="id1">
     <path d="M13612.92 5609.97l-47.4 -63.75c-3205.84,-3702.99 -10592.44,-3490.11 -13565.53,50.61l0 14.19 13612.92 0 0 -1.05z"/>
    </clipPath>
     <clipPath id="id2">
      <path d="M4090.06 3765.62c-110.57,-336.04 -1354.57,141.05 -1257.79,517 33.23,129.06 368.24,128.89 654.95,22.57 96.81,-35.9 199.32,-77.56 282.94,-131.63 220.97,-142.9 364.33,-272.93 319.91,-407.93z"/>
     </clipPath>
     <clipPath id="id3">
      <path d="M13612.92 5609.97l-47.4 -63.75c-3205.84,-3702.99 -10592.44,-3490.11 -13565.53,50.61l0 14.19 13612.92 0 0 -1.05z"/>
     </clipPath>
     <clipPath id="id4">
      <path d="M9731.32 3898.42c104.53,-337.92 -1192.14,-650 -1331.14,-287.16 -47.72,124.56 226.96,313.77 523.7,388.67 100.19,25.29 208.41,49.09 308.34,52.03 264.1,7.77 457.1,-17.78 499.1,-153.54z"/>
     </clipPath>
     <clipPath id="id5">
      <path d="M13612.92 5609.97l-47.4 -63.75c-3205.84,-3702.99 -10592.44,-3490.11 -13565.53,50.61l0 14.19 13612.92 0 0 -1.05z"/>
     </clipPath>
     <clipPath id="id6">
      <path d="M5015.12 4268.71c308.22,-104.67 476.24,-285.55 434.82,-382.42 -41.42,-96.88 -268.96,-99.03 -490.42,-20.27 -119.93,42.65 -259.24,115.96 -337.79,196.5 -66.5,68.19 -84.48,140.86 -76.27,174.13 15.4,62.36 161.44,136.73 469.66,32.06z"/>
     </clipPath>
     <clipPath id="id7">
      <path d="M13612.92 5609.97l-47.4 -63.75c-3205.84,-3702.99 -10592.44,-3490.11 -13565.53,50.61l0 14.19 13612.92 0 0 -1.05z"/>
     </clipPath>
     <clipPath id="id8">
      <path d="M10823.92 4389.06c298.77,128.59 546.55,107.5 582.47,8.5 35.92,-98.99 -130.19,-252.41 -347.3,-342.19 -117.57,-48.62 -270.44,-87.59 -383.52,-80.68 -95.73,5.84 -158.81,47.37 -175.57,77.35 -31.42,56.2 25.15,208.43 323.93,337.02z"/>
     </clipPath>
     <clipPath id="id9">
      <path d="M13612.92 5609.97l-47.4 -63.75c-3205.84,-3702.99 -10592.44,-3490.11 -13565.53,50.61l0 14.19 13612.92 0 0 -1.05z"/>
     </clipPath>
     <clipPath id="id10">
      <path d="M9923.23 4747.25c274.15,41.78 473.37,-28.68 481.13,-117.83 7.76,-89.15 -162.7,-179.79 -361.11,-207.13 -107.44,-14.8 -241.81,-14.11 -333.33,15.81 -77.48,25.32 -120.23,73.01 -127.43,101.27 -13.47,52.98 66.6,166.11 340.74,207.88z"/>
     </clipPath>
     <clipPath id="id11">
      <path d="M13612.92 5609.97l-47.4 -63.75c-3205.84,-3702.99 -10592.44,-3490.11 -13565.53,50.61l0 14.19 13612.92 0 0 -1.05z"/>
     </clipPath>
     <clipPath id="id12">
      <path d="M5635.68 3432.01c270.63,-60.07 429.91,-197.56 404.06,-283.33 -25.84,-85.76 -218.1,-108.6 -412.89,-62.42 -105.48,25 -230.27,74.14 -304.35,135.03 -62.72,51.53 -84.82,111.34 -81.03,140.24 7.12,54.17 123.58,130.55 394.22,70.48z"/>
     </clipPath>
     <clipPath id="id13">
      <path d="M13612.92 5609.97l-47.4 -63.75c-3205.84,-3702.99 -10592.44,-3490.11 -13565.53,50.61l0 14.19 13612.92 0 0 -1.05z"/>
     </clipPath>
    <clipPath id="id14">
     <path d="M-0 5611.02l13612.92 0 0 -1468.3c-1305.05,-1084.02 -2914.18,-1811.09 -4610.16,-2147.16 -170.03,-33.69 24.81,-1501.97 -108.24,-1653.71 -526.47,-600.43 -2008.58,-232.31 -2694.35,-208.17 -95.11,3.35 46.12,1662.62 -48.84,1668.44 -2273.28,139.52 -4489.25,990.17 -6151.34,2629.68l0 1179.21z"/>
    </clipPath>
 </defs>
 <g id="Camada_x0020_1">
  <metadata id="CorelCorpID_0Corel-Layer"/>
  <g>
  </g>
  <g style="clip-path:url(#id0)">
   <g>
    <path class="fil0" d="M-233.29 6002.73l14138.24 0 -339.42 -456.51c-3210.24,-3708.07 -10612.97,-3489.71 -13577.99,65l-220.82 391.51z"/>
   </g>
   <g style="clip-path:url(#id1)">
    <g id="_2549477806528">
     <path id="_1" class="fil1" d="M-8.48 5611.23l13577.99 0c158.38,-893.52 -474.46,-1603.16 -2098.95,-1702.25 442.59,551.78 -124.81,962.75 -650.14,1045.72 -682.17,107.73 -1512.87,-22.65 -2356.45,-114.29 -655.2,-71.18 -1320.81,-106.71 -1913.88,-67.8 -2567.9,168.48 -2297.57,134.47 -3357.75,77.16 -503.64,-27.22 -1519.05,-206.23 -1188.4,-866.97 -1112.62,198.71 -2053.17,1058.09 -2012.42,1628.43z"/>
     <path class="fil2" d="M4090.06 3765.62c-110.57,-336.04 -1354.57,141.05 -1257.79,517 33.23,129.06 368.24,128.89 654.95,22.57 96.81,-35.9 199.32,-77.56 282.94,-131.63 220.97,-142.9 364.33,-272.93 319.91,-407.93z"/>
    </g>
    <g style="clip-path:url(#id2)">
     <g>
      <path id="_1_0" class="fil3" d="M3095.77 4388.06c-77.53,0 -142.53,-12.41 -188.58,-37.23 76.51,-125.48 265.43,-266.84 506.14,-364.92 171.99,-70.08 338.22,-105.05 468.56,-105.05 77.53,0 142.53,12.41 188.58,37.23 -70.08,114.73 -233.94,242.63 -445.54,338.74 -0.34,0.15 -0.68,0.45 -1.02,0.61 -0.34,0 -0.34,0 -0.34,0 -0.33,0.3 -0.67,0.45 -1.01,0.6 0,0 -0.34,0 -0.34,0 -0.34,0.3 -0.67,0.46 -1.01,0.61 -0.34,0 -0.34,0.15 -0.34,0.15 -0.34,0.15 -0.68,0.3 -1.01,0.45 0,0 -0.34,0 -0.34,0.15 -1.02,0.3 -1.69,0.76 -2.37,1.06 -0.34,0 -0.34,0.15 -0.34,0.15 -0.33,0.15 -0.67,0.3 -1.01,0.45 0,0 -0.34,0 -0.34,0.15 -0.34,0.15 -0.67,0.3 -1.01,0.46 -0.34,0.15 -0.34,0.15 -0.68,0.3 -0.34,0 -0.34,0.15 -0.67,0.3 0,0 -0.34,0.15 -0.34,0.15 -0.34,0.15 -0.68,0.3 -1.02,0.3 -0.33,0.15 -0.67,0.3 -1.01,0.46 0,0.15 -0.34,0.15 -0.34,0.3 -0.34,0.15 -0.67,0.15 -0.67,0.3 -0.34,0 -0.34,0.15 -0.34,0.15 -1.02,0.3 -1.69,0.76 -2.71,1.06 0,0.15 -0.33,0.15 -0.33,0.15 -0.34,0.15 -0.68,0.3 -0.68,0.45 -0.34,0 -0.34,0 -0.34,0.15 -1.01,0.3 -1.69,0.6 -2.71,1.06 0,0 -0.34,0.15 -0.34,0.15 -0.34,0.15 -0.34,0.3 -0.68,0.3 0,0 0,0 0,0.15 -0.67,0.15 -1.35,0.46 -2.03,0.76 0,0 0,0 0,0 -0.33,0.15 -0.67,0.3 -1.01,0.45 0,0 0,0 -0.34,0.15 -0.34,0.15 -0.67,0.3 -1.35,0.45 0,0.15 -0.34,0.15 -0.34,0.3 -0.34,0 -0.34,0.15 -0.67,0.3 0,0 -0.34,0.15 -0.34,0.15 -0.34,0.15 -0.68,0.15 -1.02,0.3 0,0.15 0,0.15 -0.33,0.15 -0.34,0.3 -1.02,0.45 -1.69,0.76 0,0 0,0 0,0 -0.34,0.15 -0.68,0.3 -1.02,0.45 0,0 0,0 0,0 -1.01,0.45 -1.69,0.76 -2.71,1.21 0,0 -0.34,0 -0.34,0.15 -0.34,0.15 -0.68,0.15 -0.68,0.3 -0.33,0 -0.33,0 -0.33,0.15 -1.02,0.3 -1.69,0.76 -2.71,1.06 0,0 -0.34,0.15 -0.34,0.15 -1.01,0.46 -1.69,0.76 -2.71,1.21 0,0 0,0 -0.34,0 0,0.15 -0.34,0.3 -0.67,0.3 0,0.15 -0.34,0.15 -0.34,0.3 -0.34,0.15 -0.68,0.15 -1.02,0.3 -0.34,0.15 -0.34,0.3 -0.67,0.46 -0.34,0 -0.68,0.15 -0.68,0.15 -0.34,0.15 -0.68,0.15 -0.68,0.3 -0.33,0.15 -0.33,0.15 -0.67,0.3 0,0 -0.34,0.15 -0.68,0.15 -0.34,0.15 -0.67,0.3 -1.01,0.61 -0.34,0 -0.34,0.15 -0.68,0.15 0,0.15 -0.34,0.15 -0.67,0.3 0,0 -0.34,0.15 -0.34,0.15 -0.34,0.15 -0.34,0.15 -0.68,0.3 -0.34,0.15 -0.67,0.3 -1.01,0.46 -0.34,0 -0.34,0.15 -0.68,0.15 0,0.15 -0.34,0.3 -0.67,0.3 -0.34,0.15 -0.34,0.15 -0.68,0.3 -0.34,0.15 -0.34,0.15 -0.68,0.3 0,0 -0.33,0.15 -0.33,0.15 -0.34,0.15 -0.68,0.3 -1.36,0.45 0,0.15 -0.33,0.15 -0.33,0.15 -0.34,0.15 -0.68,0.3 -1.02,0.45 0,0 0,0.15 -0.34,0.15 -0.33,0.15 -0.67,0.3 -1.01,0.45 -1.01,0.3 -1.69,0.76 -2.71,1.06 0,0 -0.34,0.15 -0.34,0.15 0,0 -0.34,0.15 -0.34,0.15 -0.68,0.15 -1.01,0.46 -1.69,0.76 -0.34,0 -0.68,0.15 -0.68,0.3 -1.01,0.3 -1.69,0.61 -2.71,0.91 0,0 0,0 0,0 -0.68,0.3 -1.69,0.76 -2.37,1.06 -0.34,0 -0.34,0.15 -0.34,0.15 -112.74,44.95 -222.43,74.77 -320.95,89.61 0,0 0.34,-0.15 0.34,-0.15 -48.41,7.42 -94.46,11.05 -136.78,11.05z"/>
     </g>
    </g>
    <g style="clip-path:url(#id3)">
     <path class="fil4" d="M4090.06 3765.62c-110.57,-336.04 -1354.57,141.05 -1257.79,517 33.23,129.06 368.24,128.89 654.95,22.57 96.81,-35.9 199.32,-77.56 282.94,-131.63 220.97,-142.9 364.33,-272.93 319.91,-407.93z"/>
     <path class="fil2" d="M9731.32 3898.42c104.53,-337.92 -1192.14,-650 -1331.14,-287.16 -47.72,124.56 226.96,313.77 523.7,388.67 100.19,25.29 208.41,49.09 308.34,52.03 264.1,7.77 457.1,-17.78 499.1,-153.54z"/>
    </g>
    <g style="clip-path:url(#id4)">
     <g>
      <path id="_1_1" class="fil3" d="M8554.91 3846.6c-63.55,-43.82 -109.61,-90.73 -132.94,-137.1 135.58,-59.59 372.52,-68.69 626.77,-13.03 181.66,39.77 338.21,105.07 445.04,178.73 63.54,43.82 109.61,90.73 132.94,137.1 -124.07,54.42 -332.65,66.63 -561.89,25.81 -0.37,-0.07 -0.82,-0.01 -1.18,-0.08 -0.28,-0.19 -0.28,-0.19 -0.28,-0.19 -0.45,0.06 -0.82,-0.01 -1.18,-0.08 0,0 -0.28,-0.19 -0.28,-0.19 -0.45,0.06 -0.82,-0.01 -1.18,-0.08 -0.28,-0.2 -0.37,-0.07 -0.37,-0.07 -0.37,-0.07 -0.73,-0.14 -1.1,-0.21 0,0 -0.28,-0.19 -0.37,-0.07 -1.01,-0.32 -1.83,-0.33 -2.56,-0.47 -0.28,-0.2 -0.37,-0.07 -0.37,-0.07 -0.37,-0.07 -0.73,-0.14 -1.1,-0.21 0,0 -0.28,-0.19 -0.37,-0.07 -0.37,-0.07 -0.73,-0.13 -1.1,-0.2 -0.37,-0.07 -0.37,-0.07 -0.73,-0.13 -0.28,-0.19 -0.37,-0.07 -0.74,-0.13 0,0 -0.37,-0.07 -0.37,-0.07 -0.37,-0.07 -0.73,-0.14 -1.01,-0.33 -0.37,-0.07 -0.73,-0.13 -1.1,-0.2 -0.09,0.12 -0.37,-0.07 -0.45,0.06 -0.37,-0.07 -0.64,-0.26 -0.73,-0.13 -0.28,-0.19 -0.37,-0.07 -0.37,-0.07 -1.01,-0.33 -1.83,-0.34 -2.83,-0.66 -0.09,0.12 -0.37,-0.07 -0.37,-0.07 -0.37,-0.07 -0.73,-0.13 -0.82,-0.01 -0.28,-0.19 -0.28,-0.19 -0.37,-0.07 -1.01,-0.33 -1.74,-0.46 -2.83,-0.66 0,0 -0.37,-0.07 -0.37,-0.07 -0.37,-0.07 -0.45,0.06 -0.73,-0.13 0,0 0,0 -0.09,0.12 -0.64,-0.26 -1.37,-0.39 -2.1,-0.53 0,0 0,0 0,0 -0.37,-0.07 -0.73,-0.13 -1.1,-0.2 0,0 0,0 -0.37,-0.07 -0.37,-0.07 -0.73,-0.13 -1.37,-0.39 -0.09,0.12 -0.37,-0.07 -0.45,0.06 -0.28,-0.2 -0.37,-0.07 -0.73,-0.14 0,0 -0.37,-0.07 -0.37,-0.07 -0.37,-0.07 -0.64,-0.26 -1.01,-0.32 -0.09,0.12 -0.09,0.12 -0.37,-0.07 -0.45,0.06 -1.1,-0.2 -1.83,-0.33 0,0 0,0 0,0 -0.37,-0.07 -0.73,-0.14 -1.1,-0.21 0,0 0,0 0,0 -1.1,-0.2 -1.83,-0.33 -2.93,-0.54 0,0 -0.28,-0.19 -0.37,-0.07 -0.37,-0.07 -0.64,-0.26 -0.73,-0.14 -0.28,-0.19 -0.28,-0.19 -0.37,-0.07 -1.01,-0.32 -1.83,-0.33 -2.83,-0.66 0,0 -0.37,-0.07 -0.37,-0.07 -1.1,-0.21 -1.83,-0.34 -2.92,-0.54 0,0 0,0 -0.28,-0.19 -0.09,0.12 -0.45,0.06 -0.73,-0.13 -0.09,0.12 -0.37,-0.07 -0.45,0.06 -0.37,-0.07 -0.64,-0.26 -1.01,-0.33 -0.37,-0.07 -0.45,0.06 -0.82,-0.01 -0.28,-0.19 -0.64,-0.26 -0.64,-0.26 -0.37,-0.07 -0.64,-0.26 -0.73,-0.13 -0.37,-0.07 -0.37,-0.07 -0.73,-0.13 0,0 -0.37,-0.07 -0.64,-0.26 -0.37,-0.07 -0.73,-0.13 -1.18,-0.08 -0.28,-0.19 -0.37,-0.07 -0.64,-0.26 -0.09,0.12 -0.37,-0.07 -0.73,-0.13 0,0 -0.37,-0.07 -0.37,-0.07 -0.37,-0.07 -0.37,-0.07 -0.73,-0.13 -0.37,-0.07 -0.73,-0.14 -1.1,-0.21 -0.28,-0.19 -0.37,-0.07 -0.64,-0.26 -0.09,0.12 -0.45,0.06 -0.73,-0.13 -0.37,-0.07 -0.37,-0.07 -0.73,-0.13 -0.37,-0.07 -0.37,-0.07 -0.73,-0.13 0,0 -0.37,-0.07 -0.37,-0.07 -0.37,-0.07 -0.73,-0.13 -1.37,-0.39 -0.09,0.12 -0.37,-0.07 -0.37,-0.07 -0.37,-0.07 -0.73,-0.13 -1.1,-0.2 0,0 -0.09,0.12 -0.37,-0.07 -0.37,-0.07 -0.73,-0.14 -1.1,-0.21 -1.01,-0.32 -1.83,-0.33 -2.83,-0.66 0,0 -0.37,-0.07 -0.37,-0.07 0,0 -0.37,-0.07 -0.37,-0.07 -0.64,-0.26 -1.1,-0.2 -1.83,-0.33 -0.28,-0.19 -0.64,-0.26 -0.73,-0.13 -1.01,-0.32 -1.74,-0.46 -2.75,-0.79 0,0 0,0 0,0 -0.73,-0.13 -1.83,-0.33 -2.56,-0.47 -0.28,-0.2 -0.37,-0.07 -0.37,-0.07 -118.51,-26.87 -225.73,-64.43 -315.09,-107.96 0,0 0.37,0.07 0.37,0.07 -43.99,-21.28 -83.84,-44.33 -118.52,-68.25z"/>
     </g>
    </g>
    <g style="clip-path:url(#id5)">
     <path class="fil4" d="M9731.32 3898.42c104.53,-337.92 -1192.14,-650 -1331.14,-287.16 -47.72,124.56 226.96,313.77 523.7,388.67 100.19,25.29 208.41,49.09 308.34,52.03 264.1,7.77 457.1,-17.78 499.1,-153.54z"/>
     <path class="fil5" d="M4310.78 3446.66c-28.25,0 -48.75,-7.58 -52.08,-21.61 -5.43,-22.31 34.43,-52.49 88.95,-67.33 20.16,-5.55 39.59,-8.18 56.29,-8.18 28.25,0 48.75,7.61 52.14,21.65 5.37,22.32 -34.49,52.46 -89.01,67.33 -20.16,5.51 -39.59,8.14 -56.29,8.14z"/>
     <path class="fil5" d="M4962.7 3272.21c-28.31,0 -48.75,-7.58 -52.14,-21.61 -5.37,-22.31 34.49,-52.45 88.95,-67.33 20.24,-5.51 39.65,-8.14 56.29,-8.14 28.32,0 48.75,7.58 52.15,21.61 5.36,22.31 -34.43,52.45 -88.95,67.33 -20.24,5.51 -39.59,8.14 -56.29,8.14z"/>
     <path class="fil5" d="M5322.61 3700.41c-45.42,0 -78.31,-12.2 -83.73,-34.7 -8.6,-35.86 55.32,-84.23 142.8,-108.1 32.52,-8.83 63.64,-13.09 90.37,-13.09 139.15,0 69.34,107.74 -59.06,142.81 -32.52,8.83 -63.64,13.09 -90.37,13.09z"/>
     <path class="fil5" d="M5922.95 3705.08c-62.72,0 -107.63,-16.88 -117.27,-49.39 -16.99,-57.5 83.13,-142.19 223.6,-189.12 60.92,-20.48 119.55,-30.39 167.58,-30.39 62.72,0 107.8,16.87 117.44,49.39 16.82,57.5 -83.14,142.18 -223.6,189.2 -60.92,20.39 -119.56,30.3 -167.74,30.3z"/>
     <path class="fil5" d="M6382.87 3333.85c-28.25,0 -48.75,-7.58 -52.08,-21.65 -5.37,-22.28 34.43,-52.46 88.95,-67.3 20.24,-5.55 39.59,-8.18 56.29,-8.18 28.31,0 48.75,7.61 52.14,21.65 5.37,22.32 -34.49,52.46 -88.95,67.33 -20.23,5.51 -39.65,8.14 -56.35,8.14z"/>
     <path class="fil5" d="M5544.37 4212.37c-28.24,0 -48.71,-7.61 -52.14,-21.65 -5.33,-22.31 34.46,-52.45 88.98,-67.33 20.21,-5.51 39.63,-8.14 56.31,-8.14 0.47,0 0.95,0 1.43,0 68.13,5.47 73.52,28.21 10.03,69.96 -13.72,7.43 -30.19,14.07 -48.29,18.98 -20.21,5.55 -39.58,8.18 -56.31,8.18z"/>
     <path class="fil5" d="M5276.56 4424.14c-45.48,0 -78.35,-12.18 -83.72,-34.73 -8.68,-35.82 55.29,-84.19 142.74,-108.09 32.45,-8.85 63.67,-13.07 90.44,-13.07 45.37,0 78.24,12.18 83.62,34.73 8.68,35.82 -55.3,84.19 -142.74,108.09 -32.45,8.8 -63.57,13.07 -90.34,13.07z"/>
     <path class="fil5" d="M4272.7 4168.8c-28.33,0 -48.79,-7.61 -52.13,-21.65 -5.41,-22.31 34.42,-52.45 88.95,-67.33 20.18,-5.51 39.61,-8.14 56.24,-8.14 28.32,0 48.79,7.58 52.21,21.65 5.34,22.28 -34.49,52.45 -89.02,67.3 -20.18,5.55 -39.61,8.18 -56.24,8.18z"/>
     <path class="fil5" d="M3812.82 4539.98c-62.69,0 -107.78,-16.81 -117.39,-49.34 -16.93,-57.53 83.04,-142.17 223.54,-189.14 61.06,-20.44 119.5,-30.32 167.7,-30.32 62.68,0 107.78,16.81 117.38,49.33 16.93,57.53 -83.2,142.17 -223.54,189.14 -61.05,20.45 -119.66,30.33 -167.69,30.33z"/>
     <g>
      <path class="fil5" d="M8553.17 3340.66c-28.45,0 -58.66,-2.16 -90.01,-6.76 -145.77,-21.44 -257.8,-87.17 -250.08,-146.89 6.11,-46.89 84.22,-76.04 188.21,-76.04 28.29,0 58.67,2.15 89.85,6.75 145.94,21.44 257.8,87.17 250.09,146.82 -6.11,46.96 -84.22,76.12 -188.05,76.12z"/>
      <path class="fil5" d="M9008.69 3359.52c-12.14,0 -25,-0.91 -38.24,-2.84 -61.78,-9.09 -109.45,-37.02 -106.16,-62.35 2.56,-19.89 35.9,-32.28 79.84,-32.28 12.13,0 25,0.92 38.31,2.85 61.78,9.09 109.23,37.01 106.16,62.35 -2.63,19.9 -35.9,32.28 -79.92,32.28z"/>
      <path class="fil5" d="M10197.11 3649.45c-12.14,0 -25.08,-0.92 -38.32,-2.85 -61.78,-9.09 -109.45,-37.01 -106.16,-62.35 2.56,-19.9 35.68,-32.28 79.84,-32.28 12.14,0 25.08,0.91 38.32,2.84 61.78,9.12 109.31,37.02 106.16,62.35 -2.56,19.89 -35.9,32.28 -79.84,32.28z"/>
      <path class="fil5" d="M10551.49 3861.69c-30.81,0 -66.6,-5.2 -104.21,-15.99 -96.73,-27.88 -167.07,-82.6 -156.88,-122.26 6,-24.24 41,-37.23 89.37,-37.23 30.58,0 66.6,5.2 103.98,15.99 96.73,27.88 167.07,82.6 157.1,122.2 -6.23,24.31 -41.23,37.29 -89.37,37.29z"/>
      <path class="fil5" d="M10729.32 4525.2c-22.23,0 -50.96,-6.37 -80.57,-18.97 -58.13,-24.63 -97.83,-63.84 -89.06,-87.57 4.46,-11.62 19.52,-17.41 40.65,-17.41 22.08,0 50.96,6.37 80.64,18.93 57.91,24.63 97.83,63.88 89.06,87.61 -4.46,11.62 -19.52,17.41 -40.72,17.41z"/>
      <path class="fil5" d="M9611.26 4220.66c-12.14,0 -24.78,-0.91 -38.24,-2.86 -61.85,-9.08 -109.31,-36.98 -106.01,-62.33 2.63,-19.92 35.75,-32.31 79.84,-32.31 11.99,0 24.86,0.94 38.09,2.86 61.85,9.11 109.53,37.02 106.16,62.36 -2.56,19.89 -35.68,32.27 -79.84,32.27z"/>
      <path class="fil5" d="M8710.81 4140.52c-21.86,0 -45.42,-1.98 -69.88,-6.14 -99,-16.92 -174.21,-63.52 -168.09,-104.03 4.53,-30.51 54.03,-48.89 120.41,-48.89 21.75,0 45.31,1.98 69.77,6.14 99,16.92 174.43,63.52 168.21,104.03 -4.65,30.51 -53.92,48.89 -120.41,48.89z"/>
     </g>
     <path class="fil2" d="M5015.12 4268.71c308.22,-104.67 476.24,-285.55 434.82,-382.42 -41.42,-96.88 -268.96,-99.03 -490.42,-20.27 -119.93,42.65 -259.24,115.96 -337.79,196.5 -66.5,68.19 -84.48,140.86 -76.27,174.13 15.4,62.36 161.44,136.73 469.66,32.06z"/>
    </g>
    <g style="clip-path:url(#id6)">
     <g>
      <path id="_1_2" class="fil3" d="M4741.67 4320.67c-37.17,0 -70.35,-3.66 -98.44,-10.88 68.36,-75.21 187.38,-152.08 331.83,-207 117.91,-44.92 231.4,-66.94 322.32,-66.94 36.94,0 70.35,3.66 98.44,10.88 -65.7,72.25 -178.08,146.07 -315.01,200.47 0,0 0,0 0,0 -0.44,0.26 -1.11,0.44 -1.55,0.61 0,0 0,0.08 -0.22,0.08 -0.44,0.17 -0.88,0.35 -1.33,0.52 0,0.09 -0.22,0.09 -0.22,0.17 -1.11,0.43 -2.21,0.87 -3.32,1.22 0,0.09 -0.22,0.17 -0.44,0.17 -0.22,0.17 -0.66,0.34 -1.11,0.43 -0.22,0.09 -0.44,0.17 -0.66,0.26 -0.22,0.17 -0.44,0.26 -0.88,0.35 -0.22,0.08 -0.44,0.26 -0.66,0.34 -0.22,0.09 -0.66,0.17 -0.88,0.26 -0.22,0.09 -0.44,0.26 -0.66,0.35 -0.44,0.09 -0.66,0.17 -0.88,0.26 -0.22,0.09 -0.44,0.26 -0.88,0.35 -0.22,0.09 -0.44,0.17 -0.88,0.35 -0.22,0.09 -0.44,0.17 -0.66,0.17 -0.44,0.26 -0.88,0.43 -1.55,0.61 -0.44,0.26 -0.88,0.44 -1.55,0.61 0,0.09 -0.22,0.09 -0.44,0.17 -0.44,0.17 -0.66,0.35 -1.11,0.44 -0.22,0.09 -0.22,0.09 -0.44,0.09 -70.35,26.55 -138.93,44.74 -202.19,55.19 0.22,0 0.66,0 1.11,0 -42.03,6.97 -81.63,10.45 -117.69,10.45z"/>
     </g>
    </g>
    <g style="clip-path:url(#id7)">
     <path class="fil4" d="M5015.12 4268.71c308.22,-104.67 476.24,-285.55 434.82,-382.42 -41.42,-96.88 -268.96,-99.03 -490.42,-20.27 -119.93,42.65 -259.24,115.96 -337.79,196.5 -66.5,68.19 -84.48,140.86 -76.27,174.13 15.4,62.36 161.44,136.73 469.66,32.06z"/>
     <path class="fil2" d="M10823.92 4389.06c298.77,128.59 546.55,107.5 582.47,8.5 35.92,-98.99 -130.19,-252.41 -347.3,-342.19 -117.57,-48.62 -270.44,-87.59 -383.52,-80.68 -95.73,5.84 -158.81,47.37 -175.57,77.35 -31.42,56.2 25.15,208.43 323.93,337.02z"/>
    </g>
    <g style="clip-path:url(#id8)">
     <g>
      <path id="_1_3" class="fil3" d="M10586.89 4244.85c-27.37,-24.8 -49.3,-49.63 -65.04,-73.7 101.92,-9.78 242.27,13.03 386.33,68.97 117.64,45.6 216.33,105.11 283.29,165.79 27.21,24.65 49.3,49.63 65.04,73.7 -97.93,9.37 -231.32,-11.26 -369.47,-62.56 0,0 0,0 0,0 -0.51,-0.1 -1.12,-0.42 -1.56,-0.59 0,0 -0.06,0.07 -0.23,-0.08 -0.44,-0.16 -0.89,-0.33 -1.33,-0.5 -0.06,0.06 -0.22,-0.09 -0.28,-0.02 -1.11,-0.42 -2.23,-0.83 -3.28,-1.32 -0.06,0.06 -0.28,-0.02 -0.45,-0.17 -0.28,-0.02 -0.73,-0.19 -1.11,-0.42 -0.23,-0.08 -0.45,-0.16 -0.67,-0.25 -0.28,-0.02 -0.5,-0.1 -0.89,-0.33 -0.22,-0.09 -0.5,-0.1 -0.73,-0.19 -0.22,-0.08 -0.61,-0.31 -0.83,-0.4 -0.22,-0.08 -0.5,-0.1 -0.73,-0.19 -0.39,-0.23 -0.61,-0.31 -0.83,-0.4 -0.22,-0.08 -0.5,-0.1 -0.89,-0.33 -0.22,-0.09 -0.45,-0.17 -0.89,-0.33 -0.22,-0.09 -0.45,-0.17 -0.61,-0.32 -0.5,-0.1 -0.95,-0.27 -1.56,-0.58 -0.5,-0.1 -0.95,-0.27 -1.56,-0.59 -0.06,0.07 -0.22,-0.08 -0.45,-0.16 -0.44,-0.17 -0.73,-0.19 -1.11,-0.42 -0.22,-0.09 -0.22,-0.09 -0.39,-0.23 -70.01,-27.39 -133,-59.75 -186.76,-94.28 0.16,0.15 0.49,0.44 0.82,0.74 -35.73,-22.92 -67.29,-46.78 -93.85,-70.85z"/>
     </g>
    </g>
    <g style="clip-path:url(#id9)">
     <path class="fil4" d="M10823.92 4389.06c298.77,128.59 546.55,107.5 582.47,8.5 35.92,-98.99 -130.19,-252.41 -347.3,-342.19 -117.57,-48.62 -270.44,-87.59 -383.52,-80.68 -95.73,5.84 -158.81,47.37 -175.57,77.35 -31.42,56.2 25.15,208.43 323.93,337.02z"/>
     <path class="fil2" d="M9923.23 4747.25c274.15,41.78 473.37,-28.68 481.13,-117.83 7.76,-89.15 -162.7,-179.79 -361.11,-207.13 -107.44,-14.8 -241.81,-14.11 -333.33,15.81 -77.48,25.32 -120.23,73.01 -127.43,101.27 -13.47,52.98 66.6,166.11 340.74,207.88z"/>
    </g>
    <g style="clip-path:url(#id10)">
     <g>
      <path id="_1_4" class="fil3" d="M9696.45 4679.39c-27.98,-14.54 -51.5,-30.27 -69.75,-46.71 81.7,-29.88 202.21,-41.2 333.06,-26.04 106.84,12.31 201.14,40.13 269.59,75.7 27.82,14.45 51.5,30.27 69.75,46.71 -78.51,28.69 -192.8,40.31 -317.78,27.7 0,0 0,0 0,0 -0.44,0.02 -1.01,-0.11 -1.41,-0.15 0,0 -0.03,0.07 -0.2,-0.02 -0.4,-0.04 -0.81,-0.08 -1.21,-0.12 -0.04,0.06 -0.2,-0.02 -0.24,0.04 -1.01,-0.1 -2.02,-0.21 -2.99,-0.38 -0.03,0.07 -0.24,0.05 -0.4,-0.04 -0.24,0.05 -0.64,0.01 -1.01,-0.1 -0.2,-0.02 -0.4,-0.04 -0.6,-0.06 -0.24,0.04 -0.44,0.02 -0.81,-0.09 -0.2,-0.02 -0.44,0.03 -0.64,0.01 -0.21,-0.02 -0.57,-0.13 -0.77,-0.15 -0.21,-0.02 -0.44,0.02 -0.64,0 -0.37,-0.11 -0.57,-0.13 -0.77,-0.15 -0.2,-0.02 -0.44,0.03 -0.8,-0.08 -0.2,-0.02 -0.41,-0.04 -0.81,-0.09 -0.2,-0.02 -0.4,-0.04 -0.57,-0.13 -0.44,0.03 -0.84,-0.02 -1.41,-0.14 -0.44,0.02 -0.84,-0.02 -1.41,-0.15 -0.04,0.07 -0.2,-0.02 -0.41,-0.04 -0.4,-0.04 -0.64,0.01 -1,-0.1 -0.21,-0.02 -0.21,-0.02 -0.37,-0.11 -63.64,-7.53 -122.59,-20.66 -174.43,-37.55 0.16,0.08 0.5,0.26 0.83,0.43 -34.45,-11.2 -65.66,-24.07 -92.81,-38.18z"/>
     </g>
    </g>
    <g style="clip-path:url(#id11)">
     <path class="fil4" d="M9923.23 4747.25c274.15,41.78 473.37,-28.68 481.13,-117.83 7.76,-89.15 -162.7,-179.79 -361.11,-207.13 -107.44,-14.8 -241.81,-14.11 -333.33,15.81 -77.48,25.32 -120.23,73.01 -127.43,101.27 -13.47,52.98 66.6,166.11 340.74,207.88z"/>
     <path class="fil2" d="M5635.68 3432.01c270.63,-60.07 429.91,-197.56 404.06,-283.33 -25.84,-85.76 -218.1,-108.6 -412.89,-62.42 -105.48,25 -230.27,74.14 -304.35,135.03 -62.72,51.53 -84.82,111.34 -81.03,140.24 7.12,54.17 123.58,130.55 394.22,70.48z"/>
    </g>
    <g style="clip-path:url(#id12)">
     <g>
      <path id="_1_5" class="fil3" d="M5399.45 3450.71c-31.44,-3.43 -59.16,-9.59 -82.23,-18.29 64.95,-57.31 172.91,-111.33 300.31,-144.46 103.99,-27.1 202.07,-35.25 278.97,-26.86 31.25,3.41 59.16,9.59 82.24,18.29 -62.43,55.05 -164.49,107.11 -285.47,140.48 0,0 0,0 0,0 -0.4,0.18 -0.98,0.27 -1.37,0.38 0,0 -0.01,0.07 -0.2,0.05 -0.39,0.11 -0.78,0.21 -1.17,0.32 -0.01,0.07 -0.2,0.05 -0.2,0.13 -0.98,0.26 -1.96,0.53 -2.92,0.72 -0.01,0.08 -0.21,0.13 -0.39,0.11 -0.21,0.13 -0.6,0.24 -0.98,0.27 -0.2,0.05 -0.39,0.11 -0.59,0.16 -0.21,0.13 -0.4,0.18 -0.78,0.21 -0.2,0.06 -0.4,0.18 -0.59,0.24 -0.2,0.05 -0.58,0.08 -0.78,0.14 -0.2,0.05 -0.4,0.18 -0.59,0.23 -0.39,0.03 -0.58,0.09 -0.77,0.14 -0.2,0.05 -0.4,0.18 -0.78,0.21 -0.2,0.06 -0.39,0.11 -0.78,0.22 -0.2,0.05 -0.39,0.1 -0.58,0.08 -0.4,0.18 -0.79,0.29 -1.36,0.38 -0.4,0.18 -0.79,0.29 -1.37,0.37 -0.01,0.08 -0.2,0.06 -0.39,0.11 -0.39,0.11 -0.6,0.23 -0.98,0.27 -0.2,0.05 -0.2,0.05 -0.38,0.03 -62.02,15.96 -121.76,25.02 -176.26,28.01 0.19,0.02 0.56,0.06 0.93,0.1 -36.21,2.01 -70.03,1.3 -100.53,-2.03z"/>
     </g>
    </g>
    <g style="clip-path:url(#id13)">
     <path class="fil4" d="M5635.68 3432.01c270.63,-60.07 429.91,-197.56 404.06,-283.33 -25.84,-85.76 -218.1,-108.6 -412.89,-62.42 -105.48,25 -230.27,74.14 -304.35,135.03 -62.72,51.53 -84.82,111.34 -81.03,140.24 7.12,54.17 123.58,130.55 394.22,70.48z"/>
    </g>
   </g>
   <g style="clip-path:url(#id14)">
    <path class="fil4" d="M-233.29 6002.73l14138.24 0 -339.42 -456.51c-3210.24,-3708.07 -10612.97,-3489.71 -13577.99,65l-220.82 391.51z"/>
    <path class="fil6" d="M-435.41 6073.16l14048.12 0 0 -1494.67c-4198.66,-3520.45 -10575.37,-2847.07 -13612.92,290.12l-435.2 1204.54z"/>
    <path class="fil7" d="M-435.41 5637.53l14048.12 0 0 -1494.67c-4198.66,-3520.45 -10575.37,-2847.07 -13612.92,290.12l-435.2 1204.54z"/>
    <g id="_2549477777008">
     <path class="fil8" d="M8203.74 755.73c0,0 197.52,74.9 217.83,111.49 37.64,67.8 30.65,466.32 -73.47,570.23 -40.77,40.68 -340.34,78.7 -340.34,78.7l195.97 -760.41 0 -0.01z"/>
     <path class="fil9" d="M8007.77 1516.15c0,0 299.56,-38.04 340.3,-78.73 40.66,-40.52 66.56,-126.04 80.64,-219.2 -3.32,2.99 -109.11,94.3 -320.17,-91.31l-0.38 -0.33 -100.38 389.58 0 0z"/>
     <path class="fil8" d="M6692.68 1516.15c0,0 -299.55,-38.04 -340.3,-78.73 -40.64,-40.52 -66.53,-126.04 -80.64,-219.2l-0.04 -0.05c-22.08,-145.41 -15.74,-309.58 7.21,-350.95 20.28,-36.59 217.85,-111.49 217.85,-111.49l95.54 370.84 100.37 389.58 0 0z"/>
     <path class="fil9" d="M6692.68 1516.15c0,0 -299.55,-38.04 -340.3,-78.73 -40.64,-40.52 -66.53,-126.04 -80.64,-219.2 3.32,2.99 109.12,94.3 320.18,-91.31l0.39 -0.33 100.37 389.58z"/>
     <path class="fil10" d="M8219.41 786.31l-181.1 702.74c131.95,-18.43 273.63,-47.74 293.68,-67.76 95.93,-95.73 103.29,-482.39 69.62,-543.02 -10.38,-16.5 -98.27,-58.7 -182.2,-91.97l0 0.01zm-242.1 756.69l210.69 -817.63 23.82 9.02c61.72,23.4 207.71,82.15 229.68,121.75 41.83,75.31 36.51,483.89 -77.28,597.44 -42.96,42.85 -281.52,76.04 -353.59,85.18l-33.33 4.24 0 -0.01z"/>
     <path class="fil10" d="M6481.08 786.31c-83.92,33.26 -171.82,75.47 -182.27,92.08 -33.59,60.52 -26.24,447.19 69.69,542.9 20.06,20.02 161.73,49.35 293.66,67.77l-181.08 -702.74 0 0zm242.12 756.69l-33.36 -4.23c-72.09,-9.14 -310.64,-42.33 -353.58,-85.18 -113.79,-113.55 -119.11,-522.12 -77.31,-597.44 21.98,-39.6 167.97,-98.34 229.73,-121.75l23.83 -9.02 210.69 817.63 0 0z"/>
     <path class="fil8" d="M7966.58 2862.65l83.1 0c49.53,0 89.66,-40.14 89.66,-89.67l0 -235.65c0,-49.52 -40.13,-89.66 -89.66,-89.66l-78.38 0 -4.72 414.98 0 0z"/>
     <path class="fil10" d="M8049.68 2885.46l-83.1 0c-12.61,0 -22.8,-10.21 -22.8,-22.82 0,-12.6 10.2,-22.82 22.8,-22.82l83.1 0c36.84,0 66.85,-29.99 66.85,-66.85l0 -235.65c0,-36.87 -30.01,-66.85 -66.85,-66.85l-78.42 0c-12.61,0 -22.8,-10.21 -22.8,-22.81 0,-12.6 10.19,-22.82 22.8,-22.82l78.42 0c62.02,0 112.5,50.45 112.5,112.48l0 235.65c0,62.03 -50.48,112.49 -112.5,112.49z"/>
     <path class="fil8" d="M6728.36 2862.65l-83.09 0c-49.52,0 -89.67,-40.14 -89.67,-89.67l0 -235.65c0,-49.52 40.15,-89.66 89.67,-89.66l78.39 0 4.7 414.98 0 0z"/>
     <path class="fil11" d="M6728.36 2885.46l-83.09 0c-62.02,0 -112.49,-50.45 -112.49,-112.49l0 -235.65c0,-62.03 50.47,-112.48 112.49,-112.48l78.39 0c12.6,0 22.82,10.22 22.82,22.82 0,12.6 -10.22,22.81 -22.82,22.81l-78.39 0c-36.86,0 -66.85,29.98 -66.85,66.85l0 235.65c0,36.86 29.99,66.85 66.85,66.85l83.09 0c12.61,0 22.82,10.22 22.82,22.82 0,12.61 -10.21,22.82 -22.82,22.82z"/>
     <path class="fil8" d="M7735.92 3119.19l-776.89 0c-164.04,0 -298.26,-134.22 -298.26,-298.26l0 -854.58c0,-164.04 134.22,-298.26 298.26,-298.26l776.89 0c164.02,0 298.27,134.22 298.27,298.26l0 854.58c0,164.04 -134.25,298.26 -298.27,298.26z"/>
     <path class="fil10" d="M6959.03 1690.9c-151.89,0 -275.44,123.56 -275.44,275.44l0 854.58c0,151.87 123.56,275.44 275.44,275.44l776.89 0c151.87,0 275.43,-123.57 275.43,-275.44l0 -854.58c0,-151.88 -123.56,-275.44 -275.43,-275.44l-776.89 0zm776.89 1451.1l-776.89 0c-177.05,0 -321.08,-144.04 -321.08,-321.08l0 -854.58c0,-177.05 144.04,-321.08 321.08,-321.08l776.89 0c177.05,0 321.08,144.04 321.08,321.08l0 854.58c0,177.04 -144.02,321.08 -321.08,321.08z"/>
     <path class="fil8" d="M7571.1 1820.62c171.54,0 694.97,-74.95 839.45,-513.05l394.81 149.59c0,0 -149.95,810.45 -1015.54,827.84l-218.73 -464.38 0.01 0z"/>
     <path class="fil10" d="M7789.82 2307.83c-12.38,0 -22.57,-9.91 -22.8,-22.36 -0.26,-12.61 9.74,-23.01 22.35,-23.28 350.68,-7.05 624.31,-144.8 813.19,-409.42 116.58,-163.28 163.2,-327.25 176.22,-381.28l-354.42 -134.27c-67.69,184.08 -206.96,322.65 -414.37,412.13 -207.6,89.55 -402.02,94.1 -438.9,94.1 -12.6,0 -22.81,-10.22 -22.81,-22.82 0,-12.6 10.22,-22.82 22.81,-22.82 226.12,0 688.02,-103.95 817.78,-497.38 1.92,-5.91 6.23,-10.77 11.85,-13.44 5.62,-2.69 12.08,-2.95 17.89,-0.75l394.81 149.59c10.31,3.9 16.35,14.63 14.35,25.49 -1.55,8.47 -40.1,209.94 -187.03,416.47 -135.95,191.11 -393.87,420.85 -850.48,430.03 -0.15,0 -0.3,0 -0.45,0l0 0.01z"/>
     <path class="fil8" d="M6471.68 2716.73c0,0 -68.37,213.2 156.36,258.96 40.49,8.32 79.17,4.93 113.77,-7.69 149.14,-54.99 221.25,-284.91 25.38,-514.96 -10.33,-12.21 -21.42,-24.34 -33.28,-36.56 -0.56,-0.48 -1.04,-0.97 -1.52,-1.52 0,0 10.4,-17.2 43.68,-41.46 20.88,-15.19 50.83,-33.22 92.78,-51.45l80.57 -246.49 0.14 -0.42 14.27 -43.68 87.09 -266.11c0,0 -79.81,27.11 -181.79,73.29 -33.71,15.26 -69.9,32.66 -106.44,51.86 -10.05,5.27 -20.19,10.74 -30.31,16.3 0,0 -22.11,11.92 -56.78,33.42 -177.29,110.38 -681.09,472.8 -203.92,776.49l0 0.01z"/>
     <path class="fil12" d="M6892.9 2121.52l-24.03 200.54c-108.91,47.25 -136.51,92.92 -136.51,92.92 0.51,0.51 1.03,1.02 1.5,1.54 -29.2,-24.09 -68.37,-51.63 -109.51,-67.05 0,0 77.48,-40.32 101.13,-71.41 75.79,-99.64 77.38,-135.59 106.37,-176.62 9.37,-13.26 71.71,-1.97 61.05,20.08l-0.01 0z"/>
     <path class="fil12" d="M6628.02 2975.75c-222.06,-45.28 -157.91,-254.03 -156.41,-258.99l0.07 -0.07c0,0 38.56,206.64 239.29,149.96 128.38,-36.31 117.52,-217.24 93.02,-342.9 2.18,-4.96 3.93,-10.12 5.36,-15.34l0.07 0c177.18,263.61 19.69,508.34 -181.39,467.33l0 0z"/>
     <path class="fil10" d="M6671.28 3002.98c-15.73,0 -31.71,-1.61 -47.79,-4.87 -73.85,-15.06 -126.57,-48.78 -156.69,-100.23 -37.79,-64.55 -28.35,-138.17 -21.28,-170.94 -134.52,-89.5 -200.59,-192.42 -196.41,-306.08 10.38,-282.47 453.57,-524.02 472.42,-534.16 156.77,-86.51 320.42,-142.35 322.05,-142.91 11.93,-4.03 24.89,2.35 28.94,14.29 4.04,11.93 -2.36,24.89 -14.29,28.94 -1.59,0.54 -161.55,55.16 -314.87,139.77 -4.61,2.48 -439.28,239.38 -448.65,495.8 -3.67,100.16 60,192.63 189.2,274.89l14.84 9.46 -5.37 16.76c-0.25,0.79 -26.13,84.98 12.96,151.39 23.32,39.62 65.79,65.97 126.26,78.3 83.13,16.96 160.57,-20.01 202.06,-96.45 51.66,-95.22 47.65,-257.13 -118.59,-425.99l-12.45 -12.65 9.19 -15.18c2.82,-4.67 30.36,-46.92 125.66,-92.3 11.39,-5.43 25,-0.58 30.42,10.79 5.42,11.38 0.58,24.99 -10.8,30.4 -52.34,24.94 -80.97,48.22 -95,62.05 169.27,181.37 169.51,358.02 111.65,464.63 -42.66,78.62 -119.39,124.27 -203.49,124.28l0.01 0.01z"/>
     <path class="fil10" d="M6487.5 2698.55c30.74,17.83 75.26,45.89 106.2,64.65 -42.76,-1.47 -84.54,-12.78 -124.25,-28.27l18.05 -36.38z"/>
     <path class="fil10" d="M6321.66 2598.41c-9.43,0 -17.09,-7.62 -17.1,-17.07 -0.17,-63.55 52.71,-129.47 134.7,-167.95 93.17,-43.71 234.74,-55.32 352.69,43.19 7.25,6.07 8.22,16.85 2.17,24.11 -6.06,7.24 -16.85,8.22 -24.1,2.16 -105.62,-88.19 -232.59,-77.7 -316.22,-38.46 -70,32.85 -115.16,86.58 -115.03,136.89 0.03,9.45 -7.62,17.13 -17.06,17.14l-0.06 0 0 -0.01z"/>
     <path class="fil10" d="M6726.42 2430.95c-30.68,-31.49 -63.79,-61.62 -102.07,-84.14 33.16,7.52 65.31,21.19 96.06,36.02 10.41,5.09 20.46,10.17 30.96,16.1l-24.95 32.03z"/>
     <path class="fil9" d="M7802.81 1950.76c-130.25,82.44 -284.63,130.18 -450.23,130.18 -169.16,0 -326.64,-49.8 -458.62,-135.55 32.53,-150.66 138.85,-473.51 451.68,-473.51 316.64,0 424.62,330.65 457.16,478.87l0 0z"/>
     <path class="fil8" d="M7414.81 3047.19c80.24,275.78 164.25,723.81 190.11,798.14 27.48,79.02 98.94,85.89 98.94,85.89l244.22 0c0,0 168.75,8.42 213.6,-32.8 44.81,-41.24 42.28,-112.72 9.48,-153.2 -34.39,-42.41 -107.22,-42.09 -107.22,-42.09 0,0 -49.87,-598.45 -128.62,-966.1l-520.51 310.16 -0.01 0.01z"/>
     <path class="fil9" d="M8161.65 3898.41c-44.85,41.25 -213.56,32.8 -213.56,32.8l-244.19 0c0,0 -71.51,-6.86 -98.95,-85.84 -25.88,-74.38 -109.89,-522.4 -190.12,-798.15l520.54 -310.18c15.86,74.16 30.58,157.75 43.98,243.86 -111.03,222.34 -351.24,228.34 -376.09,358.26 -22.25,116.29 12.67,414.66 115.79,493.59 83.77,64.04 385.9,62.2 476.28,-22.84 2.04,31.77 -8.11,65.05 -33.67,88.49l0 0z"/>
     <path class="fil10" d="M7987.53 3954.97c-18.16,0 -32.51,-0.56 -40.02,-0.91l-243.65 0c-0.74,0 -1.46,-0.04 -2.19,-0.11 -3.52,-0.34 -86.38,-9.33 -118.32,-101.1 -11.03,-31.74 -30.53,-120.98 -57.51,-244.51 -36.21,-165.72 -85.79,-392.67 -132.95,-554.75 -3.53,-12.1 3.43,-24.77 15.54,-28.29 12.1,-3.5 24.75,3.43 28.27,15.54 47.6,163.57 97.37,391.41 133.72,557.77 24.61,112.73 45.89,210.1 56.03,239.25 20.95,60.21 71.72,69.55 78.77,70.57l242.85 0c0.38,0 0.75,0 1.13,0.03 66.14,3.31 170.98,-2.88 196.99,-26.82 35.86,-32.95 32.58,-90.76 7.21,-122.02 -26.69,-32.94 -88.53,-33.66 -89.39,-33.66l0 0c-11.78,-0.14 -21.82,-9.06 -22.84,-20.92 -0.49,-5.97 -50.63,-601.24 -128.13,-963.21 -2.64,-12.33 5.17,-24.45 17.51,-27.08 12.31,-2.65 24.46,5.2 27.11,17.53 70.14,327.6 117.93,843.25 127.3,949.49 27.56,3.28 75.43,14.03 103.89,49.1 38.92,48.03 43.49,133.55 -11.74,184.37 -37.26,34.24 -132.36,39.75 -189.59,39.75l0.01 0z"/>
     <path class="fil10" d="M7572.13 3493.66c-31.87,0 -52.42,-1.79 -55.68,-2.09 -12.55,-1.16 -21.76,-12.28 -20.61,-24.81 1.16,-12.54 12.22,-21.71 24.81,-20.63 3.2,0.3 322.1,27.34 485.49,-155.19 8.42,-9.38 22.8,-10.17 32.2,-1.77 9.4,8.4 10.19,22.82 1.78,32.22 -137.08,153.13 -363.43,172.28 -468,172.28l0 0z"/>
     <path class="fil10" d="M8063.94 3725.95l-134.21 -7.5c-13.93,-0.71 -14.61,-21.16 -0.8,-22.79l134.96 -15.34c12.61,-1.43 23.98,7.61 25.41,20.21 1.81,14.46 -10.95,27.09 -25.37,25.42l0 0z"/>
     <path class="fil8" d="M7281.34 3047.19c-80.23,275.78 -164.25,723.81 -190.1,798.14 -27.48,79.02 -98.96,85.89 -98.96,85.89l-244.21 0c0,0 -168.75,8.42 -213.58,-32.8 -44.83,-41.24 -42.3,-112.72 -9.49,-153.2 34.39,-42.41 107.22,-42.09 107.22,-42.09 0,0 49.86,-598.45 128.58,-966.1l520.53 310.16 0 0.01z"/>
     <path class="fil9" d="M6534.51 3898.41c44.83,41.25 213.56,32.8 213.56,32.8l244.2 0c0,0 71.5,-6.86 98.95,-85.84 25.87,-74.38 109.89,-522.4 190.11,-798.15l-520.55 -310.18c-15.85,74.16 -30.58,157.75 -43.94,243.86 111.02,222.34 351.2,228.34 376.06,358.26 22.25,116.29 -12.67,414.66 -115.79,493.59 -83.76,64.04 -385.92,62.2 -476.26,-22.84 -2.06,31.77 8.11,65.05 33.66,88.49l0 0z"/>
     <path class="fil10" d="M6708.63 3954.97c-57.24,0 -152.34,-5.51 -189.59,-39.75 -55.25,-50.81 -50.69,-136.34 -11.76,-184.37 28.45,-35.07 76.33,-45.82 103.88,-49.1 9.4,-106.24 57.18,-621.89 127.34,-949.49 2.63,-12.32 14.79,-20.15 27.08,-17.53 12.32,2.63 20.17,14.76 17.53,27.08 -77.53,362.02 -127.66,957.24 -128.16,963.21 -0.98,11.82 -10.89,20.92 -22.74,20.92l-0.09 0c-17.25,0 -67.03,6.07 -89.41,33.66 -25.34,31.27 -28.63,89.07 7.2,122.02 26.03,23.94 130.88,30.12 197.01,26.82 0.37,-0.03 0.76,-0.03 1.13,-0.03l242.82 0c7.2,-1.05 57.89,-10.48 78.78,-70.57 10.13,-29.16 31.42,-126.51 56.03,-239.24 36.35,-166.35 86.12,-394.21 133.72,-557.78 3.52,-12.1 16.17,-19.04 28.29,-15.53 12.08,3.51 19.05,16.18 15.52,28.29 -47.16,162.08 -96.74,389.05 -132.94,554.76 -26.99,123.52 -46.48,212.75 -57.52,244.5 -31.92,91.77 -114.8,100.76 -118.31,101.1 -0.72,0.07 -1.46,0.11 -2.19,0.11l-243.64 0c-7.5,0.36 -21.86,0.91 -40.01,0.91l0 0z"/>
     <path class="fil10" d="M7124.03 3493.66c-104.55,0 -330.93,-19.13 -468.01,-172.28 -8.4,-9.4 -7.61,-23.82 1.79,-32.22 9.39,-8.39 23.8,-7.62 32.21,1.77 163.39,182.54 482.3,155.49 485.49,155.19 12.53,-1.08 23.65,8.09 24.81,20.63 1.16,12.53 -8.06,23.65 -20.59,24.81 -3.28,0.3 -23.84,2.09 -55.7,2.09l0 0z"/>
     <path class="fil10" d="M6632.24 3680.31l134.98 15.34c13.83,1.68 13.07,22.14 -0.8,22.79l-134.22 7.51 -1.28 0.07c-32.84,0.46 -31.52,-48.02 1.32,-45.7l0 0z"/>
     <path class="fil8" d="M7953.71 2868.68c-74.34,293.62 -387.33,378.03 -605.63,378.03 -218.3,0 -531.29,-84.41 -605.58,-378.03 -53.28,-210.47 32.15,-532.14 90.74,-712.62 26.62,-82.02 47.68,-134.87 47.68,-134.87 0,0 56.67,-549.3 464.73,-549.3 408.05,0 469.62,549.3 469.62,549.3 0,0 21.1,52.85 47.76,134.87 58.56,180.52 143.91,502.15 90.68,712.62l0 0z"/>
     <path class="fil9" d="M7970.5 2713.84c0.08,55.31 -4.87,107.88 -16.76,154.85 -74.37,293.63 -387.34,378.02 -605.65,378.02 -218.32,0 -531.32,-84.39 -605.6,-378.02 -11.91,-46.97 -16.88,-99.55 -16.77,-154.85l1244.78 0 0 0z"/>
     <path class="fil10" d="M6748.5 2925.38c-112.8,-181.37 1.4,-610.23 75.36,-801.46 14.04,-36.23 28.91,-71.95 46.44,-106.97 2.82,-5.64 9.7,-7.93 15.37,-5.11 5.06,2.54 7.42,8.33 5.83,13.57 -52.6,183.34 -108.58,366.78 -131.86,556.42 -9,74.46 -13.71,150.23 -5.67,224.61 3.89,36.91 9.86,72.83 15.83,110.76 2.19,12.07 -14.67,18.9 -21.3,8.17l0 0z"/>
     <path class="fil10" d="M7594.7 3223.17c-154.28,62.04 -338.9,62.04 -493.18,0 -12.37,-5.29 -6.87,-24.22 6.46,-21.88 99.4,17.41 199.46,26.63 300.16,21.05 60.55,-2.87 120.01,-10.7 180.09,-21.06 13.19,-2.33 18.94,16.63 6.47,21.89z"/>
     <path class="fil10" d="M7825.88 2016.95c51.15,104.88 86.98,216.31 116.28,328.98 38.43,151.53 65.84,309.37 45.22,465.97 -6.08,39.45 -18.01,78.98 -39.52,113.04 -3.44,5.44 -10.61,7.06 -16.05,3.63 -4.08,-2.57 -6.04,-7.3 -5.25,-11.78 6.08,-37.85 11.89,-73.82 15.74,-110.71 7.93,-74.37 3.25,-150.08 -5.78,-224.51 -14.49,-113.24 -38.88,-224.85 -69.16,-335.2 -19.97,-73.71 -41.49,-147.36 -62.67,-220.96 -3.89,-13.01 14.72,-21.07 21.18,-8.46l0 0z"/>
     <path class="fil8" d="M7578.54 2789.78c80.25,25.58 317.64,8.06 398.31,-9.5 48.36,-10.54 78.52,-60.51 66.78,-110.52l0 0c-10.72,-45.63 -52.89,-75.72 -97.63,-69.51 -76,10.55 -308.62,22.55 -382.62,12.34l15.15 177.18 0 0z"/>
     <path class="fil9" d="M7578.51 2789.76c80.25,25.58 317.67,8.1 398.34,-9.5 48.36,-10.5 78.52,-60.49 66.78,-110.53 -2.49,-10.62 -6.68,-20.44 -12.31,-29.12 -10.76,26.21 -33.26,46.66 -62.25,52.98 -80.52,17.53 -317.74,35.06 -397.97,9.59l7.4 86.58 0 0z"/>
     <path class="fil10" d="M7565.84 2635.89c-7.38,12.48 -14.12,54.93 -5.33,92.47 5.1,21.77 14.19,36.24 24.95,39.66l0.02 0.02c74.16,23.63 304.7,7.75 386.5,-10.07 16.73,-3.63 31.15,-13.87 40.58,-28.81 10.16,-16.07 13.29,-35.32 8.87,-54.18 -8.08,-34.31 -39.11,-56.7 -72.29,-52.13 -72.75,10.11 -300.42,22.48 -383.3,13.04l0 0zm146.69 189.74c-56.86,0 -108.77,-3.87 -140.93,-14.12 -57.36,-18.29 -69.44,-109.58 -56.09,-168.43 11.92,-52.61 39.64,-54.67 51,-53.1 71.81,9.91 303.39,-2.2 376.36,-12.34 56.63,-7.82 109.48,29.5 122.96,86.89 7.17,30.42 1.81,62.85 -14.68,88.97 -16.01,25.36 -40.66,42.78 -69.47,49.06 -48.28,10.51 -166.75,23.06 -269.15,23.06l0 0z"/>
     <path class="fil8" d="M7121.95 2789.78c-80.25,25.58 -317.63,8.06 -398.31,-9.5 -48.37,-10.54 -78.53,-60.51 -66.79,-110.52l0 0c10.72,-45.63 52.91,-75.72 97.64,-69.51 75.98,10.55 308.6,22.55 382.61,12.34l-15.15 177.18 0 0z"/>
     <path class="fil9" d="M7121.98 2789.76c-80.25,25.58 -317.68,8.1 -398.34,-9.5 -48.36,-10.5 -78.53,-60.49 -66.8,-110.53 2.49,-10.62 6.69,-20.44 12.31,-29.12 10.78,26.21 33.26,46.66 62.25,52.98 80.55,17.53 317.76,35.06 397.99,9.59l-7.41 86.58 0 0z"/>
     <path class="fil10" d="M6742.73 2622.26c-29.78,0 -56.31,21.4 -63.67,52.73 -4.41,18.86 -1.28,38.1 8.88,54.18 9.43,14.94 23.83,25.18 40.57,28.81 81.8,17.81 312.35,33.7 386.51,10.07l0 -0.02c10.78,-3.42 19.87,-17.89 24.97,-39.66 8.78,-37.54 2.05,-79.99 -5.35,-92.47 -82.88,9.46 -310.53,-2.93 -383.29,-13.04 -2.9,-0.4 -5.76,-0.59 -8.61,-0.59l0 -0.01zm245.21 203.38c-102.39,0 -220.87,-12.56 -269.15,-23.07 -28.78,-6.27 -53.44,-23.69 -69.45,-49.05 -16.49,-26.13 -21.85,-58.56 -14.7,-88.98 13.49,-57.39 66.4,-94.7 122.98,-86.89 72.97,10.14 304.53,22.25 376.35,12.34 11.34,-1.57 39.07,0.47 50.99,53.1 13.35,58.85 1.28,150.12 -56.09,168.43 -32.15,10.25 -84.07,14.12 -140.94,14.12l0 0.01z"/>
     <path class="fil8" d="M7113.52 2920.31l473.45 0c59.68,0 108.5,-48.82 108.5,-108.5l0 -260.23c0,-59.67 -48.82,-108.49 -108.5,-108.49l-473.45 0c-59.68,0 -108.49,48.82 -108.49,108.49l0 260.23c0,59.68 48.82,108.5 108.49,108.5z"/>
     <path class="fil9" d="M7695.46 2693.8l0 123.53c0,56.63 -46.33,102.96 -102.96,102.96l-484.5 0c-56.67,0 -102.96,-46.33 -102.96,-102.96l0 -69.34c12.39,16.45 28.52,32.42 42.71,28.91 29.6,-7.37 16.45,-59.83 40.93,-114.45 24.52,-54.67 166.82,-44.56 177.82,-9.77 11.01,34.78 -13.38,166.22 166.25,166.22 148.92,0 228.88,-33.5 262.71,-125.1l0 0z"/>
     <path class="fil10" d="M7113.52 2465.91c-47.24,0 -85.67,38.43 -85.67,85.67l0 260.21c0,47.26 38.43,85.69 85.67,85.69l473.45 0c47.25,0 85.68,-38.43 85.68,-85.69l0 -260.21c0,-47.24 -38.43,-85.67 -85.68,-85.67l-473.45 0zm473.45 477.22l-473.45 0c-72.4,0 -131.31,-58.91 -131.31,-131.33l0 -260.21c0,-72.4 58.91,-131.31 131.31,-131.31l473.45 0c72.42,0 131.32,58.91 131.32,131.31l0 260.21c0,72.41 -58.9,131.33 -131.32,131.33z"/>
     <path class="fil13" d="M7086.65 2681.7c0,48.51 37.86,87.84 84.57,87.84 46.71,0 84.57,-39.32 84.57,-87.84 0,-48.5 -37.86,-87.82 -84.57,-87.82 -46.71,0 -84.57,39.32 -84.57,87.82z"/>
     <path class="fil8" d="M7086.61 2681.72c0,6 0.56,11.8 1.66,17.45 7.83,-40.22 42.01,-70.5 82.95,-70.5 40.94,0 75.14,30.28 82.9,70.5 1.11,-5.65 1.66,-11.45 1.66,-17.45 0,-48.5 -37.85,-87.86 -84.56,-87.86 -46.72,0 -84.61,39.36 -84.61,87.86z"/>
     <path class="fil14" d="M7086.65 2681.69c0,48.54 37.88,87.83 84.57,87.83 46.69,0 84.57,-39.29 84.57,-87.83 0,-8.13 -1.08,-16.08 -3.08,-23.53 -9.93,37.04 -42.7,64.26 -81.49,64.26 -38.8,0 -71.56,-27.22 -81.5,-64.26 -2,7.45 -3.07,15.4 -3.07,23.53l0 0z"/>
     <path class="fil10" d="M7171.21 2610.99c-37.2,0 -67.46,31.72 -67.46,70.72 0,38.99 30.25,70.71 67.46,70.71 37.2,0 67.47,-31.72 67.47,-70.71 0,-39 -30.27,-70.72 -67.47,-70.72zm0 175.66c-56.08,0 -101.68,-47.08 -101.68,-104.94 0,-57.88 45.61,-104.95 101.68,-104.95 56.07,0 101.68,47.08 101.68,104.95 0,57.86 -45.61,104.94 -101.68,104.94z"/>
     <path class="fil10" d="M7397.37 2943.13c-12.61,0 -22.82,-10.22 -22.82,-22.82l0 -145.86c0,-42.87 19.77,-83.94 52.88,-109.83l12.84 -10.04c22.13,-17.31 35.36,-44.92 35.36,-73.85l0 -137.64c0,-12.6 10.2,-22.82 22.82,-22.82 12.6,0 22.82,10.22 22.82,22.82l0 137.64c0,42.88 -19.77,83.93 -52.89,109.81l-12.83 10.04c-22.14,17.31 -35.35,44.92 -35.35,73.87l0 145.87c0,12.6 -10.22,22.81 -22.81,22.81l0 0z"/>
     <polygon class="fil12" points="7347.31,1171.69 7347.31,1175.08 7345.16,1173.42 "/>
     <polygon class="fil12" points="7345.16,1173.42 7342.98,1175.08 7342.98,1171.69 "/>
     <path class="fil8" d="M8266.11 1005.5c0,505.87 -410.06,915.96 -915.94,915.96 -505.88,0 -915.96,-410.09 -915.96,-915.96 0,-505.88 410.08,-915.94 915.96,-915.94 505.87,0 915.94,410.06 915.94,915.94z"/>
     <path class="fil9" d="M8266.14 1005.46c0,505.89 -410.1,915.97 -915.96,915.97 -505.86,0 -916,-410.08 -916,-915.97 0,-53.38 4.56,-105.79 13.39,-156.64 74.3,431.21 450.15,759.24 902.61,759.24 452.48,0 828.23,-328.03 902.56,-759.24 8.83,50.85 13.4,103.25 13.4,156.64l0 0z"/>
     <path class="fil11" d="M7350.17 112.36c-492.48,0 -893.14,400.66 -893.14,893.14 0,492.48 400.66,893.15 893.14,893.15 492.47,0 893.14,-400.66 893.14,-893.15 0,-492.48 -400.66,-893.14 -893.14,-893.14zm0 1831.92c-517.65,0 -938.78,-421.14 -938.78,-938.78 0,-517.62 421.13,-938.78 938.78,-938.78 517.62,0 938.78,421.16 938.78,938.78 0,517.64 -421.16,938.78 -938.78,938.78z"/>
     <path class="fil11" d="M7350.17 112.36c-492.48,0 -893.14,400.66 -893.14,893.14 0,492.48 400.66,893.15 893.14,893.15 492.47,0 893.14,-400.66 893.14,-893.15 0,-492.48 -400.66,-893.14 -893.14,-893.14zm0 1831.92c-517.65,0 -938.78,-421.14 -938.78,-938.78 0,-517.62 421.13,-938.78 938.78,-938.78 517.62,0 938.78,421.16 938.78,938.78 0,517.64 -421.16,938.78 -938.78,938.78z"/>
     <path class="fil11" d="M7350.17 112.36c-492.48,0 -893.14,400.66 -893.14,893.14 0,492.48 400.66,893.15 893.14,893.15 492.47,0 893.14,-400.66 893.14,-893.15 0,-492.48 -400.66,-893.14 -893.14,-893.14zm0 1831.92c-517.65,0 -938.78,-421.14 -938.78,-938.78 0,-517.62 421.13,-938.78 938.78,-938.78 517.62,0 938.78,421.16 938.78,938.78 0,517.64 -421.16,938.78 -938.78,938.78z"/>
     <path class="fil10" d="M6485.49 1229.76c101.77,393.86 457.28,668.87 864.65,668.87 407.3,0 762.88,-275.05 864.74,-668.87 0.15,-0.62 0.34,-1.23 0.52,-1.83 18.5,-72.17 27.87,-147.01 27.87,-222.43 0,-33.37 -1.89,-66.93 -5.55,-99.74 -50.21,-452.31 -431.77,-793.36 -887.58,-793.36 -455.66,0 -837.19,340.94 -887.48,793.06 -3.75,32.73 -5.63,66.37 -5.63,100.05 0,75.54 9.38,150.37 27.93,222.41 0.21,0.61 0.39,1.23 0.54,1.86l0 -0.01zm864.65 714.51c-427.73,0 -801.09,-288.5 -908.49,-701.81 -0.18,-0.52 -0.35,-1.07 -0.48,-1.61 -19.76,-76.24 -29.77,-155.43 -29.77,-235.35 0,-35.41 1.98,-70.79 5.91,-105.14 52.86,-475.23 453.9,-833.61 932.83,-833.61 479.1,0 880.14,358.5 932.92,833.95 3.89,34.47 5.86,69.73 5.86,104.8 0,79.8 -10.01,158.97 -29.71,235.34 -0.11,0.56 -0.3,1.1 -0.45,1.62 -107.52,413.31 -480.89,701.81 -908.61,701.81l0 0z"/>
     <path class="fil10" d="M7350.15 176.2c281.3,0 541.23,113.75 723.08,304.85 -164.56,-226.21 -431.2,-368.69 -723.08,-368.69 -291.73,0 -558.28,142.36 -722.87,368.5 181.86,-190.99 441.73,-304.66 722.87,-304.66l0 0zm884.05 611.89c-8.87,0 -17.25,-5.18 -20.95,-13.78 -144.55,-335.62 -483.34,-552.46 -863.1,-552.46 -379.5,0 -718.21,216.66 -862.93,551.97 -4.74,10.98 -17.16,16.46 -28.47,12.5 -11.31,-3.93 -17.64,-15.97 -14.49,-27.52 110.56,-407.5 483.08,-692.08 905.9,-692.08 423.1,0 795.67,284.8 906.06,692.6 3.13,11.56 -3.17,23.56 -14.5,27.52 -2.49,0.83 -5.02,1.25 -7.51,1.25l0 0z"/>
     <path class="fil10" d="M8266.07 1005.53c0,79.26 -10.04,156.29 -29,229.63l-0.07 0.08c-158.9,306.98 -496.35,571.12 -886.88,571.12 -390.54,0 -727.92,-264.14 -886.81,-571.12l-0.09 -0.08c-19.01,-73.34 -29.05,-150.36 -29.05,-229.63 0,-34.66 1.92,-68.9 5.78,-102.57 123.55,-341.88 484.29,-589.28 910.17,-589.28 425.96,0 786.76,247.54 910.24,589.54 3.78,33.56 5.7,67.72 5.7,102.31l0.01 -0.01z"/>
     <path class="fil15" d="M7350.11 1789.05c-400.4,0 -725.54,-281.13 -870.66,-560.28 -8.96,-34.9 -15.78,-70.45 -20.45,-106.41 204.52,219.37 494.65,376.69 816.48,376.69 194.18,0 376.89,-57.27 536.2,-150.9 -0.3,28.31 15.1,53.46 39.98,61.08 5.02,1.54 10.12,2.27 15.14,2.27 26.62,0 52.47,-20.3 61.87,-50.98 9.1,-29.7 0,-59.99 -20.57,-75.43 46.66,-33.75 90.76,-70.63 131.99,-110.02 12.99,-8.71 24.91,-20.56 35.11,-34.85 65.35,-67.43 122.43,-141.12 169.69,-218.24 2.57,27.59 3.85,55.61 3.85,83.54 0,75.69 -9.36,150.79 -27.87,223.24 -145.12,279.14 -470.28,560.27 -870.76,560.27l0 0.01z"/>
     <path class="fil10" d="M6479.46 1228.78c145.12,279.14 470.26,560.28 870.66,560.28 400.49,0 725.65,-281.13 870.77,-560.28 18.5,-72.45 27.86,-147.55 27.86,-223.24 0,-32.92 -1.78,-65.99 -5.36,-98.34 -125.49,-344.75 -484.17,-576.21 -893.27,-576.21 -408.99,0 -767.64,231.38 -893.19,575.99 -3.6,32.2 -5.43,65.35 -5.43,98.57 0,75.8 9.4,150.9 27.97,223.24l0 0zm870.66 594.89c-186.98,0 -373.71,-59.98 -540.02,-173.44 -150.72,-102.84 -279.14,-247.05 -361.69,-406.13 -0.84,-1.4 -1.49,-2.94 -1.92,-4.6 -19.64,-75.8 -29.6,-154.52 -29.6,-233.96 0,-35.22 1.98,-70.37 5.89,-104.54 0.15,-1.32 0.46,-2.64 0.91,-3.89 62.68,-173.43 183.18,-322.63 348.48,-431.43 168.22,-110.76 368.07,-169.28 577.96,-169.28 209.93,0 409.81,58.56 578.07,169.36 165.31,108.88 285.82,258.11 348.45,431.59 0.46,1.28 0.76,2.6 0.91,3.96 3.85,34.28 5.81,69.35 5.81,104.23 0,79.32 -9.93,158.03 -29.49,233.95 -0.45,1.67 -1.13,3.24 -2,4.65 -82.53,159.06 -210.92,303.25 -361.71,406.09 -166.32,113.46 -353.07,173.44 -540.05,173.44l-0.01 0z"/>
     <path class="fil16" d="M7988.48 1191.84c-4.23,-0.02 -8.46,-0.35 -12.72,-1.02 -59.53,-9.54 -97.1,-83.88 -83.92,-166.03 12.23,-76.3 63.92,-132.47 118.88,-132.47 4.23,0 8.49,0.3 12.76,0.98 59.5,9.55 97.1,83.92 83.93,166.05 -4.99,31.12 -16.54,58.9 -32.2,80.88 -11.48,11.81 -23.18,23.46 -35.11,34.85 -16.01,10.74 -33.64,16.75 -51.61,16.75l0 0z"/>
     <path class="fil17" d="M8040.09 1175.08c11.93,-11.39 23.63,-23.04 35.11,-34.85 -10.2,14.29 -22.12,26.14 -35.11,34.85z"/>
     <path class="fil16" d="M7811.68 1348.16c0.08,-7.34 1.25,-14.89 3.55,-22.42 9.4,-30.68 35.26,-50.98 61.84,-50.98 5.06,0 10.16,0.73 15.14,2.27 5.86,1.79 11.18,4.54 15.9,8.07 -31.07,22.47 -63.24,43.54 -96.42,63.05l0 0z"/>
     <path class="fil17" d="M7866.8 1411.51c-5.02,0 -10.12,-0.74 -15.14,-2.27 -24.88,-7.63 -40.29,-32.77 -39.98,-61.09 33.19,-19.51 65.35,-40.58 96.42,-63.05 20.57,15.44 29.67,45.73 20.57,75.43 -9.4,30.68 -35.26,50.98 -61.88,50.98l0 0z"/>
     <path class="fil16" d="M6641.43 1266.82c0,0 -150.15,-446.39 88.35,-630.32 181.06,-139.65 425.48,-176.94 529.29,-176.94 32.94,0 51.7,3.78 49.86,9.17 0,0 -383.75,101.18 -528.46,409.08 -111.6,237.45 -139.03,389.01 -139.03,389.01l0 -0.01z"/>
     <path class="fil8" d="M8586.73 1328.95l156.37 -83.11c0,0 23.29,-30.21 50.02,-72.91 51.08,-81.62 114.5,-208.84 51.34,-258 -74.29,-57.84 -160.22,78.18 -201.37,156.22 -15.33,29.06 -24.43,50.04 -24.43,50.04 0,0 -0.57,-19.92 -3.09,-49.48 -1.47,-16.37 -3.47,-35.77 -6.34,-56.35 -13.52,-97.1 -39.49,-175.4 -108.69,-165.7 -78.9,11.03 -64.03,148.78 -47.27,255.59 7.21,45.61 14.69,85.57 15.48,107.59 1.7,47.35 117.98,116.11 117.98,116.11l-0.01 0z"/>
     <path class="fil9" d="M8586.73 1328.95l156.37 -83.11c0,0 23.29,-30.21 50.02,-72.91 -50.44,1.33 -127.41,-12.2 -150.02,-101.78 -15.33,29.06 -24.43,50.04 -24.43,50.04 0,0 -0.57,-19.92 -3.1,-49.48 -20.53,25.31 -85.43,91.95 -162.29,33.55 7.21,45.61 14.68,85.57 15.48,107.59 1.7,47.35 117.98,116.11 117.98,116.11l0 0z"/>
     <path class="fil10" d="M8491.56 1212.02c0.68,19.35 48.29,60.71 95.93,90.7l140.51 -74.69c60.29,-79.5 160.56,-249.91 102.46,-295.1 -10.88,-8.46 -21.71,-10.95 -34.13,-7.77 -55.57,14.19 -125.6,133.36 -156.71,205.12 -4.23,9.81 -14.73,15.34 -25.22,13.34 -10.5,-2.01 -18.2,-11.04 -18.5,-21.71 -0.04,-0.47 -1.55,-47.66 -9.29,-103.46 -7.4,-53.19 -17.48,-90.79 -30.84,-114.96 -17.36,-31.52 -36.09,-33.48 -52.06,-31.26 -10.08,1.44 -17.55,5.85 -23.6,14.05 -32.54,44.21 -11.51,172.14 1.06,248.56 5.43,33.11 9.74,59.26 10.38,77.19l0 0zm95.17 139.77c-4.04,0 -8.08,-1.07 -11.63,-3.17 -29.82,-17.64 -127.23,-79.48 -129.15,-134.99 -0.53,-15.01 -4.84,-41.14 -9.82,-71.39 -15.48,-94.24 -36.7,-223.31 7.24,-283.03 13.4,-18.2 31.56,-29.03 53.99,-32.17 28.92,-4.04 69.5,2.11 98.35,54.36 16.35,29.56 27.82,71.12 36.09,130.78 1.25,8.76 2.3,17.33 3.25,25.52 34.84,-61.95 89.96,-141.42 149.99,-156.75 26.05,-6.68 51.46,-1.17 73.47,15.97 110.95,86.34 -75.73,334.82 -97.36,362.87 -2,2.58 -4.49,4.68 -7.36,6.2l-156.37 83.13c-3.36,1.79 -7.02,2.67 -10.69,2.67l0 0z"/>
     <path class="fil8" d="M8637.28 1637.28c122.2,-16.99 174.87,-110.8 187.71,-161.26 52.29,-205.9 -217.22,-267.38 -217.22,-267.38 0,0 -160.52,-34.18 -248.86,176.48l278.38 252.16 0 0z"/>
     <path class="fil10" d="M8635.7 1625.98c37.56,-12.85 71.05,-29.29 99.03,-53.03 89.25,-74.66 102.57,-205.43 2.6,-278.34 -39,-30.25 -86.83,-51.12 -134.58,-62.87 -107.29,-12.39 -187.25,67.56 -233.31,157.8 -2.94,5.65 -9.97,7.82 -15.55,4.81 -4.99,-2.65 -7.17,-8.45 -5.47,-13.62 13.25,-40.4 32.39,-79.19 60.03,-112.29 48.51,-60.1 133.95,-100.17 212.21,-80.79 72.52,22.02 144.29,56.67 192.91,117.02 77.17,94.04 42.09,233.98 -50.7,303.69 -35.79,27.43 -80.86,41.97 -124.02,40.22 -12.87,-0.61 -15.18,-18.66 -3.13,-22.6l0 0.01z"/>
     <path class="fil8" d="M8697.65 1223.81c-50.17,7.87 -105.22,64.19 -89.81,145.82 11.93,63.36 70.18,99.12 129.79,103.04 73.24,4.83 119.64,-56.87 123.15,-99.03 1.81,-21.72 -2.53,-56.71 -55.42,-96.35 -21.89,-40.65 -53.68,-61.95 -107.71,-53.49l0 0z"/>
     <path class="fil10" d="M8701.2 1246.35l0 0c-20.5,3.22 -41,16.89 -54.89,36.59 -11.4,16.1 -23.4,43.5 -16.05,82.46 10.2,54.11 62.03,81.43 108.88,84.51 60.33,3.99 96.46,-48.77 98.87,-78.15 1.4,-16.76 -1.85,-42.88 -46.32,-76.21 -2.68,-1.98 -4.87,-4.53 -6.42,-7.45 -19.37,-35.96 -43.72,-48.06 -84.07,-41.75zm44.74 249.42c-3.21,0 -6.46,-0.1 -9.78,-0.31 -64.44,-4.24 -136.02,-43.49 -150.74,-121.59 -8.04,-42.65 0.34,-84.28 23.6,-117.23 20.88,-29.57 52.71,-50.27 85.13,-55.36 58.06,-9.06 100.23,10.8 128.85,60.78 43.6,33.96 63.99,72.14 60.52,113.49 -4.23,50.69 -55.3,120.22 -137.57,120.22l0 0z"/>
     <path class="fil8" d="M8428.71 1555.64c-150.25,-88.94 -98.42,-285.89 -47.72,-343.26 63.69,-72.01 297.11,-41.5 288.09,53.85 -4.8,50.44 -74.45,62.74 -147.54,55.12 0,0 18.04,71.02 10.38,118.86l-103.21 115.43 0 0z"/>
     <path class="fil10" d="M8422.89 1565.46c-118.54,-58.59 -137.94,-207.39 -88.87,-319.84 28.09,-71.21 84.56,-93.36 155.92,-96.58 61.72,-1.15 129.07,9.45 176.68,53.44 42.13,40.45 30.31,107.59 -23.98,129.85 -40.66,17.67 -81.88,17.02 -123.49,11.77l24.5 -28.36c6.12,31.47 9.02,62.47 6.04,94.38 -2.6,11.95 -2.15,44.5 -21.18,39.2 -4.8,-1.62 -7.82,-6.1 -7.89,-10.91 -0.98,-18.76 -4,-37.44 -7.74,-55.95 -3.89,-18.29 -8.3,-37.74 -13.52,-55.45 -3.55,-11.72 3.1,-24.07 14.8,-27.6 3.25,-1.01 6.45,-1.09 9.7,-0.78 17.82,1.19 35.53,1.32 52.66,0.28 23.11,-2.07 47.04,-4.43 62.78,-19.45 11.93,-13.33 8.3,-31.18 -5.33,-44.44 -22.31,-21.38 -58.59,-31.31 -89.96,-35.78 -51.35,-5.91 -127.53,-5.26 -156.18,43.09 -38.92,65.54 -51.57,153.54 -20.69,224.62 14.05,31.47 37.71,58.44 67.35,78.89 11.62,7.94 0.94,25.99 -11.63,19.63l-0.01 0.01z"/>
     <path class="fil10" d="M8453.28 2072.57c-117.94,0 -213.76,-72.98 -277.1,-211.06 -46.28,-100.94 -58.97,-200.29 -59.5,-204.47 -1.55,-12.5 7.36,-23.88 19.85,-25.44 12.5,-1.56 23.9,7.33 25.45,19.83 0.45,3.75 49.6,375.5 291.3,375.5 12.61,0 22.84,10.22 22.84,22.82 0,12.6 -10.23,22.82 -22.84,22.82l0 0z"/>
     <path class="fil18" d="M7685.38 2206.19c0.61,-0.11 1.88,-0.89 2.52,-1.2l22.45 -11.08c1.66,-0.86 3.33,-1.65 5.02,-2.49 3.33,-1.65 6.66,-3.31 10.04,-4.96l10.61 -5.23c0.55,-0.27 0.91,-0.22 0.79,-0.93 -0.06,-0.41 -0.05,-0.49 -0.07,-0.79l-0.6 -6.32c-0.06,-0.45 -0.08,-1.13 -0.11,-1.56 -0.05,-0.63 -0.15,-1.04 -0.17,-1.67 -0.09,-1.93 -0.41,-4.28 -0.56,-6.29l-0.29 -3.15c-0.07,-0.48 -0.12,-1.08 -0.14,-1.58 -0.05,-1.6 -0.38,-3.22 -0.45,-4.82 -0.07,-1.57 -0.29,-3.25 -0.44,-4.81l-0.55 -6.36c-0.11,-1.57 -0.38,-3.11 -0.43,-4.73l-2.44 -26.94c-0.16,-1.57 -0.37,-3.23 -0.45,-4.81l-0.59 -6.4c-0.31,-2.58 -0.4,-5.37 -0.73,-7.96 -0.2,-1.56 -0.2,-3.2 -0.41,-4.72 -0.21,-1.54 -0.25,-3.15 -0.42,-4.72 -0.16,-1.58 -0.37,-3.22 -0.44,-4.81 -0.03,-0.56 -0.11,-1.05 -0.17,-1.59l-1.25 -13.8 -16.97 -15.51c-39.87,3.86 -79.13,12.99 -117.11,22.57 0.19,1.03 0.54,1.75 0.82,3.12l1.24 4.57c0.17,0.58 0.25,1.07 0.4,1.65l3.3 12.43c0.34,1 0.49,2.05 0.82,3.06l1.23 4.7c0.09,0.39 0.31,1.17 0.42,1.52l0.84 3.14c0.55,2.1 1.16,4.16 1.64,6.23 0.47,2.06 1.22,4.22 1.64,6.24 0.2,1 0.6,2.06 0.81,3.07 0.29,1.42 1.57,6.05 2.06,7.74 0.17,0.58 0.26,1.08 0.4,1.65l6.16 23.28c0.34,1.5 0.88,3.19 1.26,4.66l0.83 3.15c0.45,2.16 1.2,4.17 1.65,6.32l2.45 9.31c0.4,1.52 0.92,3.14 1.26,4.66l0.81 3.08c0.24,1.03 0.61,2.11 0.83,3.15 0.08,0.39 0.27,1.14 0.4,1.55 0.69,2.07 1.01,4.16 1.66,6.2 0.16,0.51 0.27,1.05 0.39,1.56l1.26 4.67c0.18,0.55 0.39,0.39 1.17,0.44 0.54,0.04 0.93,0.09 1.46,0.14l53.31 5.19c0.49,0.05 0.95,0.1 1.38,0.14 0.32,0.03 1.23,0.15 1.48,0.1l-0.02 -0.02 0 0z"/>
     <path class="fil19" d="M7675.57 2196.38c0.61,-0.11 1.88,-0.89 2.52,-1.2l22.45 -11.08c1.66,-0.86 3.33,-1.65 5.02,-2.49 3.33,-1.65 6.66,-3.31 10.04,-4.96l10.61 -5.23c0.55,-0.27 0.91,-0.22 0.79,-0.93 -0.06,-0.41 -0.05,-0.49 -0.07,-0.79l-0.6 -6.32c-0.06,-0.45 -0.08,-1.13 -0.11,-1.55 -0.05,-0.64 -0.15,-1.04 -0.17,-1.67 -0.09,-1.93 -0.41,-4.28 -0.56,-6.29l-0.29 -3.15c-0.07,-0.48 -0.13,-1.08 -0.15,-1.58 -0.05,-1.6 -0.38,-3.22 -0.45,-4.82 -0.07,-1.57 -0.29,-3.25 -0.44,-4.81l-0.55 -6.36c-0.11,-1.57 -0.38,-3.11 -0.43,-4.73l-2.44 -26.94c-0.15,-1.57 -0.37,-3.23 -0.45,-4.81l-0.59 -6.4c-0.31,-2.58 -0.4,-5.37 -0.73,-7.96 -0.2,-1.56 -0.2,-3.2 -0.41,-4.72 -0.21,-1.54 -0.25,-3.15 -0.42,-4.72 -0.16,-1.58 -0.37,-3.22 -0.44,-4.81 -0.03,-0.56 -0.11,-1.05 -0.17,-1.59l-1.25 -13.8 -16.97 -15.51c-39.87,3.86 -79.13,12.99 -117.11,22.57 0.19,1.03 0.54,1.75 0.82,3.12l1.24 4.57c0.17,0.58 0.25,1.07 0.4,1.65l3.3 12.44c0.34,1 0.49,2.05 0.82,3.06l1.23 4.7c0.09,0.39 0.31,1.17 0.42,1.52l0.84 3.14c0.55,2.1 1.16,4.16 1.64,6.23 0.47,2.06 1.22,4.22 1.64,6.24 0.2,1 0.6,2.07 0.81,3.07 0.29,1.42 1.57,6.05 2.06,7.74 0.17,0.58 0.26,1.08 0.4,1.65l6.16 23.28c0.34,1.5 0.88,3.19 1.26,4.66l0.83 3.15c0.45,2.16 1.2,4.17 1.66,6.32l2.45 9.31c0.4,1.52 0.92,3.14 1.26,4.66l0.81 3.08c0.24,1.03 0.61,2.11 0.83,3.16 0.08,0.38 0.27,1.14 0.4,1.54 0.69,2.07 1.01,4.16 1.66,6.2 0.16,0.51 0.27,1.05 0.39,1.56l1.26 4.67c0.18,0.55 0.39,0.39 1.17,0.44 0.54,0.04 0.93,0.09 1.46,0.14l53.31 5.19c0.49,0.05 0.95,0.1 1.38,0.14 0.32,0.03 1.23,0.15 1.48,0.1l-0.02 -0.02 0 0z"/>
     <polygon class="fil20" points="7650.76,2057.52 7692.85,2050.13 7706.86,2062.37 7715.88,2162.15 7673.19,2183.25 "/>
     <path class="fil21" d="M7610.51 2081.3c26.62,-8.37 48.49,-13.03 74.46,-13.93l12.66 14.95 4.5 68.44 -31.88 16.74 -36.43 -3.15 -19.01 -67.7 -4.3 -15.34 -0.01 0 0 0zm36.29 66.39l18.69 1.35 18.82 -7.26 -4.33 -56.22c-16.28,0.1 -32.62,3.28 -49.03,9.07l15.85 53.07 0 0 0 0z"/>
    </g>
   </g>
  </g>
  <path class="fil4" d="M-0 5611.02l13612.92 0 0 -1468.3c-1305.05,-1084.02 -2914.18,-1811.09 -4610.16,-2147.16 -170.03,-33.69 24.81,-1501.97 -108.24,-1653.71 -526.47,-600.43 -2008.58,-232.31 -2694.35,-208.17 -95.11,3.35 46.12,1662.62 -48.84,1668.44 -2273.28,139.52 -4489.25,990.17 -6151.34,2629.68l0 1179.21z"/>
 </g>
</svg>
