<?xml version="1.0" encoding="UTF-8"?>
<!DOCTYPE svg PUBLIC "-//W3C//DTD SVG 1.1//EN" "http://www.w3.org/Graphics/SVG/1.1/DTD/svg11.dtd">
<!-- Creator: CorelDRAW -->
<svg xmlns="http://www.w3.org/2000/svg" xml:space="preserve" width="264.584mm" height="74.4312mm" version="1.1" style="shape-rendering:geometricPrecision; text-rendering:geometricPrecision; image-rendering:optimizeQuality; fill-rule:evenodd; clip-rule:evenodd"
viewBox="0 0 24248.78 6821.53"
 xmlns:xlink="http://www.w3.org/1999/xlink"
 xmlns:xodm="http://www.corel.com/coreldraw/odm/2003">
 <defs>
  <style type="text/css">
   <![CDATA[
    .fil6 {fill:none}
    .fil3 {fill:#542120}
    .fil7 {fill:#B64343}
    .fil2 {fill:#BB4744}
    .fil0 {fill:#FF615D}
    .fil5 {fill:#542120;fill-opacity:0.149020}
    .fil4 {fill:#FF615D;fill-opacity:0.149020}
    .fil1 {fill:#542120;fill-opacity:0.400000}
   ]]>
  </style>
    <clipPath id="id0">
     <path d="M-0 6821.53l24248.78 0 0 -2615.49c-6670.27,-5540.52 -17799.94,-5846.32 -24248.78,514.96l0 2100.54z"/>
    </clipPath>
 </defs>
 <g id="Camada_x0020_1">
  <metadata id="CorelCorpID_0Corel-Layer"/>
  <g id="_2042308734800">
   <g>
   </g>
   <g>
   </g>
   <g style="clip-path:url(#id0)">
    <g>
     <path class="fil0" d="M-415.56 7519.29l25184.54 0 -604.61 -813.18c-5718.42,-6605.21 -18904.96,-6216.25 -24186.56,115.79l-393.35 697.4 -0.03 -0.01z"/>
     <path id="_1" class="fil1" d="M24171.52 6821.53c5.16,-29.14 9.7,-58.15 13.91,-87.07l-21.09 -28.37c-1024.3,-1183.17 -2289.09,-2140.66 -3704.28,-2881.02 736.3,965.02 -261.1,1681.33 -1185.6,1827.35 -1215.15,191.9 -2694.88,-40.34 -4197.55,-203.59 -1167.11,-126.8 -2352.77,-190.08 -3409.19,-120.77 -4574.23,300.11 -4092.69,239.53 -5981.2,137.45 -885.31,-47.85 -2658.09,-359.07 -2138.74,-1498.28 -1378.41,745.98 -2591.71,1690.39 -3547.8,2829.03l0 25.28 24171.54 0z"/>
     <path class="fil2" d="M7285.65 3534.31c-196.96,-598.59 -2412.91,251.26 -2240.51,920.93 59.2,229.89 655.95,229.59 1166.67,40.21 172.45,-63.95 355.07,-138.16 504,-234.47 393.61,-254.55 648.97,-486.17 569.85,-726.65l-0.02 -0.02z"/>
     <path id="_1_0" class="fil3" d="M5255.14 4608.67c-27.99,-8.91 -53.59,-19.55 -76.55,-31.92 136.29,-223.52 472.82,-475.33 901.6,-650.04 306.36,-124.83 602.47,-187.13 834.65,-187.13 134.44,0 247.71,20.95 329.3,62.84 -90,149.07 -282.1,299.33 -528.32,458.55 -148.94,96.31 -331.56,170.52 -504,234.47 -343.08,127.22 -724.98,169.11 -956.68,113.22z"/>
     <path class="fil2" d="M17334.48 3770.86c186.18,-601.93 -2123.56,-1157.85 -2371.18,-511.49 -85.02,221.87 404.28,558.89 932.86,692.32 178.49,45.06 371.24,87.44 549.27,92.68 470.43,13.84 814.24,-31.67 889.06,-273.5l0 -0.01z"/>
     <path id="_1_1" class="fil3" d="M15046.61 3504.17c-17.9,-23.26 -32.81,-46.58 -44.5,-69.83 241.51,-106.14 663.57,-122.35 1116.48,-23.21 323.59,70.84 602.44,187.17 792.74,318.37 110.19,75.99 190.88,157.2 233.42,237.65 -160.34,71.31 -405.05,85.88 -699.33,77.22 -178.03,-5.24 -370.78,-47.62 -549.27,-92.68 -354.83,-89.57 -691.97,-270.88 -849.54,-447.52z"/>
     <path class="fil1" d="M7678.83 2966.15c-50.32,0 -86.84,-13.5 -92.75,-38.49 -9.67,-39.74 61.31,-93.5 158.45,-119.93 35.91,-9.89 70.51,-14.57 100.27,-14.57 50.32,0 86.82,13.55 92.88,38.57 9.57,39.76 -61.44,93.45 -158.55,119.93 -35.93,9.82 -70.51,14.5 -100.27,14.5l-0.03 0z"/>
     <path class="fil1" d="M8840.11 2655.39c-50.44,0 -86.86,-13.5 -92.9,-38.49 -9.55,-39.74 61.44,-93.43 158.43,-119.93 36.05,-9.82 70.64,-14.5 100.27,-14.5 50.43,0 86.84,13.5 92.9,38.49 9.55,39.74 -61.33,93.43 -158.45,119.93 -36.05,9.82 -70.52,14.5 -100.27,14.5l0.02 0z"/>
     <path class="fil1" d="M9481.2 3418.14c-80.91,0 -139.5,-21.73 -149.17,-61.81 -15.31,-63.87 98.54,-150.03 254.37,-192.55 57.93,-15.73 113.36,-23.32 160.98,-23.32 247.87,0 123.52,191.92 -105.2,254.38 -57.95,15.73 -113.36,23.32 -160.98,23.32l0 -0.02z"/>
     <path class="fil1" d="M10550.59 3426.47c-111.72,0 -191.72,-30.07 -208.91,-87.97 -30.24,-102.43 148.1,-253.28 398.32,-336.88 108.52,-36.49 212.97,-54.14 298.51,-54.14 111.72,0 192,30.05 209.18,87.98 29.96,102.43 -148.1,253.26 -398.3,337.01 -108.52,36.32 -212.97,53.97 -298.79,53.97l0 0.03z"/>
     <path class="fil1" d="M11369.85 2765.2c-50.32,0 -86.84,-13.5 -92.77,-38.57 -9.57,-39.68 61.33,-93.45 158.45,-119.89 36.05,-9.89 70.51,-14.57 100.27,-14.57 50.43,0 86.82,13.55 92.88,38.57 9.57,39.76 -61.44,93.45 -158.45,119.93 -36.04,9.82 -70.62,14.5 -100.37,14.5l-0.01 0.03z"/>
     <path class="fil1" d="M9876.23 4330.11c-50.31,0 -86.76,-13.55 -92.88,-38.57 -9.49,-39.74 61.39,-93.43 158.5,-119.93 36,-9.82 70.6,-14.5 100.3,-14.5 0.83,0 1.7,0 2.53,0 121.38,9.74 130.97,50.25 17.86,124.62 -24.44,13.23 -53.77,25.07 -86.01,33.81 -36,9.89 -70.51,14.57 -100.31,14.57l0.01 -0.01z"/>
     <path class="fil1" d="M9399.19 4707.34c-81.04,0 -139.56,-21.69 -149.15,-61.86 -15.46,-63.81 98.5,-149.96 254.26,-192.55 57.8,-15.76 113.42,-23.28 161.1,-23.28 80.82,0 139.37,21.69 148.96,61.86 15.46,63.81 -98.5,149.96 -254.26,192.55 -57.8,15.67 -113.24,23.28 -160.91,23.28z"/>
     <path class="fil1" d="M7610.99 4252.5c-50.44,0 -86.91,-13.55 -92.88,-38.57 -9.62,-39.74 61.31,-93.43 158.45,-119.93 35.96,-9.82 70.58,-14.5 100.2,-14.5 50.44,0 86.89,13.5 93.01,38.57 9.51,39.68 -61.44,93.43 -158.57,119.89 -35.94,9.89 -70.58,14.57 -100.18,14.57l-0.03 -0.03z"/>
     <path class="fil1" d="M6791.8 4913.67c-111.66,0 -191.99,-29.94 -209.11,-87.89 -30.16,-102.48 147.92,-253.25 398.21,-336.92 108.75,-36.41 212.86,-54.01 298.71,-54.01 111.67,0 192,29.94 209.11,87.87 30.16,102.48 -148.21,253.25 -398.2,336.92 -108.75,36.43 -213.15,54.03 -298.71,54.03l-0.02 0z"/>
     <path class="fil1" d="M15235.82 2777.34c-50.68,0 -104.49,-3.85 -160.34,-12.04 -259.66,-38.19 -459.22,-155.28 -445.47,-261.66 10.89,-83.53 150,-135.45 335.26,-135.45 50.4,0 104.49,3.83 160.04,12.02 259.96,38.19 459.22,155.28 445.49,261.53 -10.89,83.65 -150.02,135.59 -334.99,135.59l0.02 0z"/>
     <path class="fil1" d="M16047.24 2810.92c-21.63,0 -44.53,-1.62 -68.1,-5.06 -110.07,-16.19 -194.98,-65.94 -189.12,-111.06 4.58,-35.43 63.95,-57.5 142.24,-57.5 21.63,0 44.53,1.64 68.24,5.08 110.05,16.19 194.57,65.92 189.11,111.06 -4.68,35.45 -63.95,57.5 -142.36,57.5l-0.02 -0.02z"/>
     <path class="fil1" d="M18164.18 3327.38c-21.63,0 -44.68,-1.64 -68.22,-5.08 -110.07,-16.19 -194.98,-65.92 -189.11,-111.06 4.56,-35.45 63.56,-57.5 142.22,-57.5 21.63,0 44.68,1.62 68.26,5.06 110.05,16.25 194.7,65.94 189.11,111.06 -4.55,35.43 -63.95,57.5 -142.22,57.5l-0.04 0.02z"/>
     <path class="fil1" d="M18795.44 3705.44c-54.88,0 -118.65,-9.27 -185.63,-28.48 -172.33,-49.66 -297.6,-147.13 -279.46,-217.79 10.69,-43.18 73.05,-66.32 159.19,-66.32 54.48,0 118.64,9.27 185.22,28.48 172.31,49.66 297.6,147.13 279.86,217.68 -11.1,43.3 -73.47,66.43 -159.19,66.43l0.01 0z"/>
     <path class="fil1" d="M19112.21 4887.36c-39.6,0 -90.8,-11.35 -143.54,-33.79 -103.53,-43.87 -174.25,-113.72 -158.64,-155.99 7.96,-20.69 34.79,-31.01 72.43,-31.01 39.34,0 90.78,11.35 143.64,33.72 103.16,43.87 174.25,113.79 158.64,156.06 -7.95,20.69 -34.77,31.01 -72.53,31.01z"/>
     <path class="fil1" d="M17120.6 4344.88c-21.61,0 -44.14,-1.62 -68.11,-5.1 -110.17,-16.18 -194.72,-65.88 -188.85,-111.03 4.68,-35.49 63.7,-57.56 142.22,-57.56 21.35,0 44.28,1.68 67.87,5.1 110.17,16.23 195.09,65.94 189.11,111.08 -4.56,35.43 -63.56,57.48 -142.22,57.48l-0.01 0.03z"/>
     <path class="fil1" d="M15516.63 4202.11c-38.96,0 -80.93,-3.53 -124.51,-10.93 -176.35,-30.14 -310.32,-113.15 -299.42,-185.31 8.07,-54.35 96.24,-87.08 214.49,-87.08 38.74,0 80.72,3.53 124.3,10.93 176.35,30.14 310.72,113.15 299.62,185.31 -8.29,54.35 -96.03,87.08 -214.47,87.08l-0.01 0z"/>
     <path class="fil2" d="M8933.45 4430.47c549.03,-186.45 848.33,-508.65 774.57,-681.21 -73.78,-172.57 -479.1,-176.41 -873.59,-36.11 -213.63,75.98 -461.79,206.56 -601.71,350.03 -118.46,121.47 -150.51,250.92 -135.86,310.18 27.43,111.08 287.58,243.56 836.61,57.11l-0.02 0.01z"/>
     <path id="_1_2" class="fil3" d="M8446.37 4523.03c-37.46,0 -72.64,-2.09 -105.2,-6.23 -25.19,-3.46 -48.39,-8.12 -69.59,-13.77 121.86,-133.77 333.62,-270.44 590.53,-368.12 210.03,-80.02 412.19,-119.24 574.15,-119.24 62.89,0 120.02,5.95 168.64,17.72 -128.06,141.29 -359.38,291.11 -671.45,397.09l0.02 -0.01c-128.13,43.51 -240.51,69.64 -337.87,82.74 -52.53,6.54 -102.51,9.82 -149.15,9.82l-0.08 0.01z"/>
     <path class="fil2" d="M19280.72 4644.85c532.22,229.06 973.58,191.47 1037.56,15.14 63.98,-176.33 -231.91,-449.64 -618.65,-609.57 -209.43,-86.61 -481.73,-156 -683.17,-143.71 -170.52,10.4 -282.89,84.36 -312.74,137.78 -55.97,100.13 44.8,371.3 577,600.35z"/>
     <path id="_1_3" class="fil3" d="M18858.5 4387.96c-27.57,-24.98 -52.03,-49.97 -73.16,-74.73 -16.19,-19.37 -30.11,-38.31 -41.86,-56.63 181.48,-17.22 431.11,23.43 687.34,122.93 209.56,81.23 385.35,187.23 504.63,295.32 46.34,41.98 84.33,84.49 112.08,125.6 -191.19,18.6 -464.29,-25.41 -766.81,-155.61 -123.79,-53.28 -224.23,-108.83 -304.78,-163.99 -43.53,-30.45 -82.89,-61.59 -117.48,-92.94l0.04 0.05z"/>
     <path class="fil2" d="M17676.31 5282.9c488.33,74.41 843.22,-51.09 857.04,-209.89 13.78,-158.8 -289.84,-320.26 -643.28,-368.96 -191.38,-26.39 -430.72,-25.13 -593.75,28.16 -138.03,45.1 -214.17,130.03 -227,180.39 -23.99,94.37 118.62,295.9 606.96,370.3l0.02 0z"/>
     <path id="_1_4" class="fil3" d="M17272.34 5162.02c-28.48,-14.8 -54.38,-30.3 -77.41,-46.33 -17.29,-12.31 -32.68,-24.72 -46.2,-37.11 145.52,-53.05 359.9,-73.13 592.64,-46.15 190.32,21.93 358.29,71.49 480.22,134.84 47.37,24.61 88,51.43 119.89,79.34 -153.22,56.28 -387.61,78.58 -665.17,36.28l-0.02 0c-117.35,-17.88 -214.7,-43.11 -294.59,-72.42 -39.56,-14.93 -76.18,-31.15 -109.38,-48.41l0.02 -0.05z"/>
     <path class="fil2" d="M10038.87 2940.04c482.05,-107 765.78,-351.91 719.77,-504.7 -46.06,-152.77 -388.54,-193.45 -735.51,-111.17 -187.89,44.51 -410.18,132.07 -542.14,240.51 -111.72,91.8 -151.09,198.33 -144.32,249.81 12.67,96.5 220.13,232.55 702.22,125.55l-0.03 0z"/>
     <path id="_1_5" class="fil3" d="M9618.08 2973.36c-31.33,-3.42 -60.6,-8.36 -87.49,-14.76 -21.32,-5.31 -40.79,-11.47 -58.44,-18.29 115.75,-101.91 307.81,-197.92 534.4,-256.86 185.23,-48.27 359.94,-62.79 496.92,-47.85 53.21,5.81 100.98,16.12 140.99,30.56 -121.71,107.7 -331.59,213.07 -605.6,273.88l0.03 0c-112.82,25.04 -210.61,36.77 -294.36,38.81l-0.38 0.01 -0.38 0c-44.54,0.62 -86.64,-1.23 -125.7,-5.5z"/>
     <path class="fil4" d="M24248.41 6821.53l0 -1839.25c-7478.94,-6270.86 -18837.47,-5071.54 -24248.41,516.42l0 1322.83 24248.41 0z"/>
     <path class="fil5" d="M24248.41 6821.53l0 -2615.25c-28.19,-23.64 -56.96,-46.17 -85.26,-69.6 -3503,-2870.21 -8211.08,-4310.81 -12823.37,-4118.74 -2461.46,119.57 -4843.17,693.47 -6938.25,1654.8 -1591.67,744.82 -3069.86,1744.79 -4362.15,3010.45 -12.98,13.29 -26.47,26.18 -39.38,39.5l0 2098.82 24248.41 0z"/>
    </g>
   </g>
   <path class="fil6" d="M-0 6821.53l24248.78 0 0 -2615.49c-6670.27,-5540.52 -17799.94,-5846.32 -24248.78,514.96l0 2100.54z"/>
   <path class="fil6" d="M-0 6821.53l24248.78 0 0 -2615.49c-6670.27,-5540.52 -17799.94,-5846.32 -24248.78,514.96l0 2100.54z"/>
  </g>
  <path class="fil7" d="M13054.7 3227.89c820.45,0 1485.55,198.19 1485.55,442.66 0,541.37 -1237.33,442.66 -1485.55,442.66 -592.87,0 -1485.55,223.73 -1485.55,-442.66 0,-244.47 665.1,-442.66 1485.55,-442.66z"/>
 </g>
</svg>
