<?xml version="1.0" encoding="UTF-8"?>
<!DOCTYPE svg PUBLIC "-//W3C//DTD SVG 1.1//EN" "http://www.w3.org/Graphics/SVG/1.1/DTD/svg11.dtd">
<!-- Creator: CorelDRAW 2020 (64 Bit) -->
<svg xmlns="http://www.w3.org/2000/svg" xml:space="preserve" width="18.4857mm" height="12.5641mm" version="1.1" style="shape-rendering:geometricPrecision; text-rendering:geometricPrecision; image-rendering:optimizeQuality; fill-rule:evenodd; clip-rule:evenodd"
viewBox="0 0 14.43 9.81"
 xmlns:xlink="http://www.w3.org/1999/xlink"
 xmlns:xodm="http://www.corel.com/coreldraw/odm/2003">
 <defs>
  <style type="text/css">
   <![CDATA[
    .fil2 {fill:none}
    .fil3 {fill:#EFEFEF}
    .fil1 {fill:#969696;fill-opacity:0.321569}
    .fil0 {fill:#EFEFEF}
   ]]>
  </style>
   <clipPath id="id0">
    <path d="M14.43 5.31c0,0.48 -0.03,0.74 -0.21,1.18 -0.11,0.27 -0.2,0.41 -0.37,0.63l-0.2 0.23c-0.08,0.08 -0.21,0.22 -0.29,0.29 -0.17,0.14 -0.38,0.31 -0.58,0.42l-0.19 0.11c-0.08,0.05 -0.08,0.02 -0.08,0.11 0,0.34 0.11,0.68 0.25,0.9 0.11,0.18 0.16,0.21 0.28,0.36 0.04,0.04 0.1,0.09 0.1,0.17 0,0.12 -0.21,0.1 -0.3,0.1 -0.51,0 -1.28,-0.37 -1.7,-0.69 -0.04,-0.03 -0.07,-0.05 -0.11,-0.08l-0.19 -0.18c-0.14,-0.14 -0.14,-0.03 -0.63,-0.03l-0.36 0.01c-0.11,-0.02 -0.25,-0.01 -0.37,-0.01l-0.34 -0.03c-0.12,-0.02 -0.21,-0.03 -0.32,-0.05 -0.21,-0.04 -0.41,-0.09 -0.6,-0.14 -0.14,-0.04 -0.41,-0.13 -0.55,-0.19 -0.17,-0.08 -0.34,-0.15 -0.5,-0.24 -0.13,-0.07 -0.53,-0.33 -0.66,-0.45l-0.19 -0.18c-0.09,-0.08 -0.09,-0.09 -0.19,-0.19l-0.17 -0.2c-0.35,-0.44 -0.62,-1.04 -0.62,-1.61l0 -0.24c0,-0.69 0.35,-1.29 0.72,-1.74l0.12 -0.13c0.14,-0.14 0.24,-0.23 0.39,-0.35 0.26,-0.21 0.45,-0.33 0.75,-0.48 0.2,-0.1 0.29,-0.14 0.51,-0.23 0.47,-0.18 1.01,-0.31 1.52,-0.34 0.05,-0 0.06,-0.01 0.12,-0.01 0.26,-0 0.42,-0.01 0.56,-0.01l0.18 0c0.18,0 0.38,0.03 0.79,0.09 0.28,0.05 0.81,0.2 1.09,0.32l0.33 0.15c0.04,0.02 0.04,0.02 0.08,0.04l0.23 0.13c0.05,0.03 0.1,0.06 0.14,0.09 0.13,0.09 0.36,0.25 0.47,0.35 0.1,0.09 0.21,0.19 0.3,0.29l0.11 0.13c0.38,0.44 0.68,1.11 0.68,1.69z"/>
   </clipPath>
   <clipPath id="id1">
    <path d="M14.43 5.31c0,0.48 -0.03,0.74 -0.21,1.18 -0.11,0.27 -0.2,0.41 -0.37,0.63l-0.2 0.23c-0.08,0.08 -0.21,0.22 -0.29,0.29 -0.17,0.14 -0.38,0.31 -0.58,0.42l-0.19 0.11c-0.08,0.05 -0.08,0.02 -0.08,0.11 0,0.34 0.11,0.68 0.25,0.9 0.11,0.18 0.16,0.21 0.28,0.36 0.04,0.04 0.1,0.09 0.1,0.17 0,0.12 -0.21,0.1 -0.3,0.1 -0.51,0 -1.28,-0.37 -1.7,-0.69 -0.04,-0.03 -0.07,-0.05 -0.11,-0.08l-0.19 -0.18c-0.14,-0.14 -0.14,-0.03 -0.63,-0.03l-0.36 0.01c-0.11,-0.02 -0.25,-0.01 -0.37,-0.01l-0.34 -0.03c-0.12,-0.02 -0.21,-0.03 -0.32,-0.05 -0.21,-0.04 -0.41,-0.09 -0.6,-0.14 -0.14,-0.04 -0.41,-0.13 -0.55,-0.19 -0.17,-0.08 -0.34,-0.15 -0.5,-0.24 -0.13,-0.07 -0.53,-0.33 -0.66,-0.45l-0.19 -0.18c-0.09,-0.08 -0.09,-0.09 -0.19,-0.19l-0.17 -0.2c-0.35,-0.44 -0.62,-1.04 -0.62,-1.61l0 -0.24c0,-0.69 0.35,-1.29 0.72,-1.74l0.12 -0.13c0.14,-0.14 0.24,-0.23 0.39,-0.35 0.26,-0.21 0.45,-0.33 0.75,-0.48 0.2,-0.1 0.29,-0.14 0.51,-0.23 0.47,-0.18 1.01,-0.31 1.52,-0.34 0.05,-0 0.06,-0.01 0.12,-0.01 0.26,-0 0.42,-0.01 0.56,-0.01l0.18 0c0.18,0 0.38,0.03 0.79,0.09 0.28,0.05 0.81,0.2 1.09,0.32l0.33 0.15c0.04,0.02 0.04,0.02 0.08,0.04l0.23 0.13c0.05,0.03 0.1,0.06 0.14,0.09 0.13,0.09 0.36,0.25 0.47,0.35 0.1,0.09 0.21,0.19 0.3,0.29l0.11 0.13c0.38,0.44 0.68,1.11 0.68,1.69z"/>
   </clipPath>
 </defs>
 <g id="Camada_x0020_1">
  <metadata id="CorelCorpID_0Corel-Layer"/>
  <g style="clip-path:url(#id0)">
   <polygon class="fil0" points="5.34,2.01 14.43,2.01 14.43,9.81 5.34,9.81 "/>
  </g>
  <g style="clip-path:url(#id1)">
   <g id="_2437235445248">
    <path id="1" class="fil1" d="M6.83 1.27c1.45,0 2.63,1.57 2.63,3.51 0,1.94 -1.18,3.51 -2.63,3.51 -1.45,0 -2.63,-1.57 -2.63,-3.51 0,-1.94 1.18,-3.51 2.63,-3.51z"/>
   </g>
  </g>
  <path class="fil2" d="M14.43 5.31c0,0.48 -0.03,0.74 -0.21,1.18 -0.11,0.27 -0.2,0.41 -0.37,0.63l-0.2 0.23c-0.08,0.08 -0.21,0.22 -0.29,0.29 -0.17,0.14 -0.38,0.31 -0.58,0.42l-0.19 0.11c-0.08,0.05 -0.08,0.02 -0.08,0.11 0,0.34 0.11,0.68 0.25,0.9 0.11,0.18 0.16,0.21 0.28,0.36 0.04,0.04 0.1,0.09 0.1,0.17 0,0.12 -0.21,0.1 -0.3,0.1 -0.51,0 -1.28,-0.37 -1.7,-0.69 -0.04,-0.03 -0.07,-0.05 -0.11,-0.08l-0.19 -0.18c-0.14,-0.14 -0.14,-0.03 -0.63,-0.03l-0.36 0.01c-0.11,-0.02 -0.25,-0.01 -0.37,-0.01l-0.34 -0.03c-0.12,-0.02 -0.21,-0.03 -0.32,-0.05 -0.21,-0.04 -0.41,-0.09 -0.6,-0.14 -0.14,-0.04 -0.41,-0.13 -0.55,-0.19 -0.17,-0.08 -0.34,-0.15 -0.5,-0.24 -0.13,-0.07 -0.53,-0.33 -0.66,-0.45l-0.19 -0.18c-0.09,-0.08 -0.09,-0.09 -0.19,-0.19l-0.17 -0.2c-0.35,-0.44 -0.62,-1.04 -0.62,-1.61l0 -0.24c0,-0.69 0.35,-1.29 0.72,-1.74l0.12 -0.13c0.14,-0.14 0.24,-0.23 0.39,-0.35 0.26,-0.21 0.45,-0.33 0.75,-0.48 0.2,-0.1 0.29,-0.14 0.51,-0.23 0.47,-0.18 1.01,-0.31 1.52,-0.34 0.05,-0 0.06,-0.01 0.12,-0.01 0.26,-0 0.42,-0.01 0.56,-0.01l0.18 0c0.18,0 0.38,0.03 0.79,0.09 0.28,0.05 0.81,0.2 1.09,0.32l0.33 0.15c0.04,0.02 0.04,0.02 0.08,0.04l0.23 0.13c0.05,0.03 0.1,0.06 0.14,0.09 0.13,0.09 0.36,0.25 0.47,0.35 0.1,0.09 0.21,0.19 0.3,0.29l0.11 0.13c0.38,0.44 0.68,1.11 0.68,1.69z"/>
  <path class="fil3" d="M-0 3.3c0,0.48 0.03,0.74 0.21,1.18 0.11,0.27 0.2,0.41 0.37,0.63l0.2 0.23c0.08,0.08 0.21,0.22 0.29,0.29 0.17,0.14 0.38,0.31 0.58,0.42l0.19 0.11c0.08,0.05 0.08,0.02 0.08,0.11 0,0.34 -0.11,0.68 -0.25,0.9 -0.11,0.18 -0.16,0.21 -0.28,0.36 -0.04,0.04 -0.1,0.09 -0.1,0.17 0,0.12 0.21,0.1 0.3,0.1 0.51,0 1.28,-0.37 1.7,-0.69 0.04,-0.03 0.07,-0.05 0.11,-0.08l0.19 -0.18c0.14,-0.14 0.14,-0.03 0.63,-0.03l0.36 0.01c0.11,-0.02 0.25,-0.01 0.37,-0.01l0.34 -0.03c0.12,-0.02 0.21,-0.03 0.32,-0.05 0.21,-0.04 0.41,-0.09 0.6,-0.14 0.14,-0.04 0.41,-0.13 0.55,-0.19 0.17,-0.08 0.34,-0.15 0.5,-0.24 0.13,-0.07 0.53,-0.33 0.66,-0.45l0.19 -0.18c0.09,-0.08 0.09,-0.09 0.19,-0.19l0.17 -0.2c0.35,-0.44 0.62,-1.04 0.62,-1.61l0 -0.24c0,-0.69 -0.35,-1.29 -0.72,-1.74l-0.12 -0.13c-0.14,-0.14 -0.24,-0.23 -0.39,-0.35 -0.26,-0.21 -0.45,-0.33 -0.75,-0.48 -0.2,-0.1 -0.29,-0.14 -0.51,-0.23 -0.47,-0.18 -1.01,-0.31 -1.52,-0.34 -0.05,-0 -0.06,-0.01 -0.12,-0.01 -0.26,-0 -0.42,-0.01 -0.56,-0.01l-0.18 0c-0.18,0 -0.38,0.03 -0.79,0.09 -0.28,0.05 -0.81,0.2 -1.09,0.32l-0.33 0.15c-0.04,0.02 -0.04,0.02 -0.08,0.04l-0.23 0.13c-0.05,0.03 -0.1,0.06 -0.14,0.09 -0.13,0.09 -0.36,0.25 -0.47,0.35 -0.1,0.09 -0.21,0.19 -0.3,0.29l-0.11 0.13c-0.38,0.44 -0.68,1.11 -0.68,1.69z"/>
 </g>
</svg>
