<?xml version="1.0" encoding="UTF-8"?>
<!DOCTYPE svg PUBLIC "-//W3C//DTD SVG 1.1//EN" "http://www.w3.org/Graphics/SVG/1.1/DTD/svg11.dtd">
<!-- Creator: CorelDRAW 2020 (64 Bit) -->
<svg xmlns="http://www.w3.org/2000/svg" xml:space="preserve" width="25.8271mm" height="29.1694mm" version="1.1" style="shape-rendering:geometricPrecision; text-rendering:geometricPrecision; image-rendering:optimizeQuality; fill-rule:evenodd; clip-rule:evenodd"
viewBox="0 0 61.91 69.92"
 xmlns:xlink="http://www.w3.org/1999/xlink"
 xmlns:xodm="http://www.corel.com/coreldraw/odm/2003">
 <defs>
  <style type="text/css">
   <![CDATA[
    .fil0 {fill:#1572B6}
    .fil1 {fill:#35A8DA}
    .fil3 {fill:#E8E8E8}
    .fil2 {fill:#FDFDFD}
   ]]>
  </style>
 </defs>
 <g id="Camada_x0020_1">
  <metadata id="CorelCorpID_0Corel-Layer"/>
  <g id="_1346525990576">
   <path class="fil0" d="M5.46 63c1.25,0.1 24.2,6.92 25.49,6.92l22.17 -6.05c0.73,-0.2 2.54,-0.81 3.32,-0.87l2.73 -31.5c0.11,-2.52 0.65,-5.33 0.73,-7.83 0.08,-2.58 0.52,-5.35 0.71,-7.84 0.26,-3.34 1.29,-13.03 1.29,-15.83l-61.91 0c0,5.23 1.75,17.67 2,23.67 0.11,2.52 0.58,5.31 0.72,7.84l1.41 15.7c0.37,2.8 0.65,8.58 0.99,11.76 0.13,1.25 0.34,2.59 0.34,4.03z"/>
   <polygon class="fil1" points="30.85,12.51 50.79,12.52 50.05,20.29 31.32,28.34 49.29,28.49 47.16,52.69 30.91,57.38 30.96,65.41 52.25,59.53 57.17,4.38 30.95,4.37 "/>
   <path class="fil2" d="M31.04 28.59l-0.12 7.56 0.01 0.04 9.51 0.02 -0.58 10.05 -8.82 2.58c-0.42,1.97 0,6.22 -0.14,8.55l16.26 -4.68 2.13 -24.2 -17.97 -0.15c-0.01,0.47 0.07,0.11 -0.28,0.25z"/>
   <path class="fil2" d="M31.14 20.37l0.35 0.06c-0.41,0.22 -0.23,0.07 -0.35,0.3 -0.43,1.16 -0.32,6.48 -0.09,7.86 0.35,-0.14 0.27,0.22 0.28,-0.25l18.73 -8.04 0.73 -7.78 -19.93 -0.01c0.3,1.96 -0.33,6.39 0.28,7.86z"/>
   <path class="fil3" d="M30.92 36.14l0.12 -7.56c-0.23,-1.37 -0.34,-6.7 0.09,-7.86l-18.7 7.74 0.57 7.53c1.4,0.34 6.99,0.12 8.84,0.12 3.02,0.01 6.05,0.01 9.07,0.02z"/>
   <path class="fil3" d="M30.91 57.38c0.14,-2.33 -0.28,-6.57 0.14,-8.55l-8.78 -2.1 -0.61 -6.33 -8.04 -0 1 12.16 16.28 4.82z"/>
   <path class="fil3" d="M31.14 20.37c-0.61,-1.46 0.02,-5.9 -0.28,-7.86l-20.07 0.02 0.95 7.76 19.41 0.08z"/>
   <polygon class="fil1" points="31.04,48.83 39.86,46.25 40.45,36.21 30.93,36.19 "/>
  </g>
 </g>
</svg>
