<?xml version="1.0" encoding="UTF-8"?>
<!DOCTYPE svg PUBLIC "-//W3C//DTD SVG 1.1//EN" "http://www.w3.org/Graphics/SVG/1.1/DTD/svg11.dtd">
<!-- Creator: CorelDRAW 2020 (64 Bit) -->
<svg xmlns="http://www.w3.org/2000/svg" xml:space="preserve" width="126.861mm" height="128.367mm" version="1.1" style="shape-rendering:geometricPrecision; text-rendering:geometricPrecision; image-rendering:optimizeQuality; fill-rule:evenodd; clip-rule:evenodd"
viewBox="0 0 653.86 661.62"
 xmlns:xlink="http://www.w3.org/1999/xlink"
 xmlns:xodm="http://www.corel.com/coreldraw/odm/2003">
 <defs>
  <style type="text/css">
   <![CDATA[
    .fil0 {fill:black;fill-opacity:0.188235}
    .fil1 {fill:url(#id0)}
   ]]>
  </style>
  <linearGradient id="id0" gradientUnits="userSpaceOnUse" x1="-0" y1="319.21" x2="637.88" y2="319.21">
   <stop offset="0" style="stop-opacity:1; stop-color:#0088C9"/>
   <stop offset="1" style="stop-opacity:1; stop-color:#0074BE"/>
  </linearGradient>
 </defs>
 <g id="Camada_x0020_1">
  <metadata id="CorelCorpID_0Corel-Layer"/>
  <path class="fil0" d="M298.49 361.39c3.66,0.98 6.73,4.15 9.7,6.6l26.97 21.93c8.59,-5.75 31.41,-27.12 36.67,-28.52l28.1 23.51c9.9,8.32 18.87,16.21 28.75,24.22l29.02 23.95c5.57,4.86 24.59,19.32 28.22,24.75l-301.53 0c1.99,-2.98 2.84,-3.81 5.99,-6.23l50.47 -41.89c5.04,-3.96 9.17,-7.96 13.97,-11.84l43.65 -36.48zm96.43 -21.73c4.92,-1.31 3.46,-1.75 7.23,-4.99 2.85,-2.46 4.54,-3.67 7.41,-6.17l70.51 -58.52c4.9,-4.12 9.26,-8.12 14,-11.8 4.78,-3.72 9.97,-8.9 14.94,-12.22l0 191.51 -111.77 -93.32c-3.18,-4.08 -0.86,-1.69 -2.32,-4.47zm-233.62 97.79l0 -191.51c4.76,3.19 9.29,7.82 14.16,11.65 5.19,4.08 9.21,7.52 14.06,11.75l56.34 46.89c3.64,3.24 25.34,22.32 29.53,23.44 -1.6,6.01 -8.09,9.24 -12.57,13.23 -5.01,4.46 -9.86,7.89 -14.89,12.27 -4.85,4.23 -8.86,7.66 -14.06,11.75l-72.56 60.54zm24.45 -210.53l298.81 0 -18.08 15.88c-3.23,2.71 -5.83,4.92 -8.9,7.4 -3.58,2.9 -6.31,5.33 -9.7,7.96 -3.37,2.62 -5.15,4.4 -8.93,7.37l-103.8 86.35 -149.41 -124.96zm-169.78 114.09c0,81.77 29.44,157.51 83.89,216.28 12.3,13.27 4.57,6.38 19.67,19.72 41.2,36.4 86.26,64.29 142.62,76.06 54.24,11.32 90.72,11.37 144.89,0.22 17.74,-3.65 45.28,-13.04 59.89,-20.24 34.43,-16.98 55.77,-29.91 83.16,-55.38 19.43,-18.08 30.78,-30.58 46.64,-52.51 11.56,-15.98 20.21,-32.98 29.11,-51.02 7.02,-14.24 16.5,-41.9 20.02,-58.76 21.13,-101.24 0.75,-197.97 -65.8,-277.17 -9.92,-11.8 -27.91,-31.16 -39.8,-40.34 -39.85,-30.77 -80.04,-55.34 -132.09,-66.21 -24.92,-5.2 -45.06,-8.48 -74.37,-8.48 -174.11,0 -317.83,143.72 -317.83,317.83z"/>
  <path class="fil1" d="M282.51 338.2c3.66,0.98 6.73,4.15 9.7,6.6l26.97 21.93c8.59,-5.75 31.41,-27.12 36.67,-28.52l28.1 23.51c9.9,8.32 18.87,16.21 28.75,24.22l29.02 23.95c5.57,4.86 24.59,19.32 28.22,24.75l-301.53 0c1.99,-2.98 2.84,-3.81 5.99,-6.23l50.47 -41.89c5.04,-3.96 9.17,-7.96 13.97,-11.84l43.65 -36.48zm96.43 -21.73c4.92,-1.31 3.46,-1.75 7.23,-4.99 2.85,-2.46 4.54,-3.67 7.41,-6.17l70.51 -58.52c4.9,-4.12 9.26,-8.12 14,-11.8 4.78,-3.72 9.97,-8.9 14.94,-12.22l0 191.51 -111.77 -93.32c-3.18,-4.08 -0.86,-1.69 -2.32,-4.47zm-233.62 97.79l0 -191.51c4.76,3.19 9.29,7.82 14.16,11.65 5.19,4.08 9.21,7.52 14.06,11.75l56.34 46.89c3.64,3.24 25.34,22.32 29.53,23.44 -1.6,6.01 -8.09,9.24 -12.57,13.23 -5.01,4.46 -9.86,7.89 -14.89,12.27 -4.85,4.23 -8.86,7.66 -14.06,11.75l-72.56 60.54zm24.45 -210.53l298.81 0 -18.08 15.88c-3.23,2.71 -5.83,4.92 -8.9,7.4 -3.58,2.9 -6.31,5.33 -9.7,7.96 -3.37,2.62 -5.15,4.4 -8.93,7.37l-103.8 86.35 -149.41 -124.96zm-169.78 114.09c0,81.77 29.44,157.51 83.89,216.28 12.3,13.27 4.57,6.38 19.67,19.72 41.2,36.4 86.26,64.29 142.62,76.06 54.24,11.32 90.72,11.37 144.89,0.22 17.74,-3.65 45.28,-13.04 59.89,-20.24 34.43,-16.98 55.77,-29.91 83.16,-55.38 19.43,-18.08 30.78,-30.58 46.64,-52.51 11.56,-15.98 20.21,-32.98 29.11,-51.02 7.02,-14.24 16.5,-41.9 20.02,-58.76 21.13,-101.24 0.75,-197.97 -65.8,-277.17 -9.92,-11.8 -27.91,-31.16 -39.8,-40.34 -39.85,-30.77 -80.04,-55.34 -132.09,-66.21 -24.92,-5.2 -45.06,-8.48 -74.37,-8.48 -174.11,0 -317.83,143.72 -317.83,317.83z"/>
 </g>
</svg>
