<?xml version="1.0" encoding="UTF-8"?>
<!DOCTYPE svg PUBLIC "-//W3C//DTD SVG 1.1//EN" "http://www.w3.org/Graphics/SVG/1.1/DTD/svg11.dtd">
<!-- Creator: CorelDRAW 2020 (64 Bit) -->
<svg xmlns="http://www.w3.org/2000/svg" xml:space="preserve" width="66.4911mm" height="66.6618mm" version="1.1" style="shape-rendering:geometricPrecision; text-rendering:geometricPrecision; image-rendering:optimizeQuality; fill-rule:evenodd; clip-rule:evenodd"
viewBox="0 0 346.16 347.05"
 xmlns:xlink="http://www.w3.org/1999/xlink"
 xmlns:xodm="http://www.corel.com/coreldraw/odm/2003">
 <defs>
  <style type="text/css">
   <![CDATA[
    .fil0 {fill:#946C06}
    .fil1 {fill:url(#id0)}
   ]]>
  </style>
  <linearGradient id="id0" gradientUnits="userSpaceOnUse" x1="113.39" y1="320.92" x2="236.42" y2="11.03">
   <stop offset="0" style="stop-opacity:1; stop-color:#BF8C0B"/>
   <stop offset="1" style="stop-opacity:1; stop-color:#E8DA12"/>
  </linearGradient>
 </defs>
 <g id="Camada_x0020_1">
  <metadata id="CorelCorpID_0Corel-Layer"/>
  <path class="fil0" d="M-0 145.52c0,13.02 6.68,17.65 14.74,25.72 2.78,2.78 56.48,56.5 57.72,57.32 -0.42,1.8 -0.72,4.03 -1.02,5.86l-13.83 82.44c-0.94,5.62 -1.11,10.74 1.44,15.82 2.63,5.22 6.34,9.56 11.82,11.98 4.22,1.87 7.46,2.38 12.43,2.38 7.22,0 12.04,-3.93 17.72,-6.88l10.85 -5.82c8.22,-4.05 16.02,-9.01 24.24,-13.05 4.5,-2.21 34.13,-18.8 35.3,-18.87 0.8,-0.05 24.18,12.78 26.85,14.28 1.91,1.07 3.61,1.87 5.55,2.91l10.78 5.88c0.94,0.56 1.67,0.82 2.62,1.35l5.47 3c1.03,0.51 1.71,0.95 2.73,1.5l8.11 4.32c7.64,3.77 17.96,11.37 26.18,11.37 8.09,0 13.83,-1.81 19.37,-7.34 2.08,-2.07 3.55,-4.19 4.87,-7.03 3.82,-8.2 1.48,-15.58 0.09,-23.98l-13.21 -78.87c-0.33,-1.95 0.82,-2.24 2.16,-3.58l16.4 -16.4c2.81,-2.81 5.51,-5.25 8.33,-8.07l32.79 -32.79c2.63,-2.63 5.82,-5.41 7.88,-8.51 7.18,-10.78 4.67,-25.04 -5.28,-32.83 -1.77,-1.38 -3.6,-2.5 -5.86,-3.4 -4.46,-1.78 -10.35,-2.37 -15.21,-3.04l-47.67 -7.08c-3.38,-0.49 -28.55,-4.58 -31.92,-4.58 -2.19,-4.14 -4.12,-8.49 -6.26,-12.78 -4.32,-8.63 -8.2,-17.47 -12.52,-26.1l-6.26 -13.05c-1.11,-2.21 -1.98,-4.22 -3.09,-6.44l-4.76 -9.79c-4.89,-9.72 -7.71,-20.14 -18.87,-24.5 -10.67,-4.17 -22.43,-1 -29.48,7.97 -1.45,1.84 -2.37,3.81 -3.49,6.03 -0.56,1.11 -0.85,1.98 -1.41,3.09 -4.76,9.44 -9.01,19.13 -13.75,28.56l-18.25 37.82c-0.71,1.42 -3.58,8.66 -4.91,9.1 -0.79,0.26 -3.19,0.47 -4.15,0.61 -2.7,0.37 -5.22,0.78 -8.06,1.19l-73.45 10.91c-2.94,0.41 -5.4,0.78 -7.82,1.7 -8.62,3.29 -15.94,11.6 -15.94,21.62z"/>
  <path class="fil1" d="M3.64 130.43c0,13.02 6.68,17.65 14.74,25.72 2.78,2.78 56.48,56.5 57.72,57.32 -0.42,1.8 -0.72,4.03 -1.02,5.86l-13.83 82.44c-0.94,5.62 -1.11,10.74 1.44,15.82 2.63,5.22 6.34,9.56 11.82,11.98 4.22,1.87 7.46,2.38 12.43,2.38 7.22,0 12.04,-3.93 17.72,-6.88l10.85 -5.82c8.22,-4.05 16.02,-9.01 24.24,-13.05 4.5,-2.21 34.13,-18.8 35.3,-18.87 0.8,-0.05 24.18,12.78 26.85,14.28 1.91,1.07 3.61,1.87 5.55,2.91l10.78 5.88c0.94,0.56 1.67,0.82 2.62,1.35l5.47 3c1.03,0.51 1.71,0.95 2.73,1.5l8.11 4.32c7.64,3.77 17.96,11.37 26.18,11.37 8.09,0 13.83,-1.81 19.37,-7.34 2.08,-2.07 3.55,-4.19 4.87,-7.03 3.82,-8.2 1.48,-15.58 0.09,-23.98l-13.21 -78.87c-0.33,-1.95 0.82,-2.24 2.16,-3.58l16.4 -16.4c2.81,-2.81 5.51,-5.25 8.33,-8.07l32.79 -32.79c2.63,-2.63 5.82,-5.41 7.88,-8.51 7.18,-10.78 4.67,-25.04 -5.28,-32.83 -1.77,-1.38 -3.6,-2.5 -5.86,-3.4 -4.46,-1.78 -10.35,-2.37 -15.21,-3.04l-47.67 -7.08c-3.38,-0.49 -28.55,-4.58 -31.92,-4.58 -2.19,-4.14 -4.12,-8.49 -6.26,-12.78 -4.32,-8.63 -8.2,-17.47 -12.52,-26.1l-6.26 -13.05c-1.11,-2.21 -1.98,-4.22 -3.09,-6.44l-4.76 -9.79c-4.89,-9.72 -7.71,-20.14 -18.87,-24.5 -10.67,-4.17 -22.43,-1 -29.48,7.97 -1.45,1.84 -2.37,3.81 -3.49,6.03 -0.56,1.11 -0.85,1.98 -1.41,3.09 -4.76,9.44 -9.01,19.13 -13.75,28.56l-18.25 37.82c-0.71,1.42 -3.58,8.66 -4.91,9.1 -0.79,0.26 -3.19,0.47 -4.15,0.61 -2.7,0.37 -5.22,0.78 -8.06,1.19l-73.45 10.91c-2.94,0.41 -5.4,0.78 -7.82,1.7 -8.62,3.29 -15.94,11.6 -15.94,21.62z"/>
 </g>
</svg>
