<?xml version="1.0" encoding="UTF-8"?>
<!DOCTYPE svg PUBLIC "-//W3C//DTD SVG 1.1//EN" "http://www.w3.org/Graphics/SVG/1.1/DTD/svg11.dtd">
<!-- Creator: CorelDRAW 2020 (64 Bit) -->
<svg xmlns="http://www.w3.org/2000/svg" xml:space="preserve" width="126.461mm" height="125.56mm" version="1.1" style="shape-rendering:geometricPrecision; text-rendering:geometricPrecision; image-rendering:optimizeQuality; fill-rule:evenodd; clip-rule:evenodd"
viewBox="0 0 828.88 822.98"
 xmlns:xlink="http://www.w3.org/1999/xlink"
 xmlns:xodm="http://www.corel.com/coreldraw/odm/2003">
 <defs>
  <style type="text/css">
   <![CDATA[
    .fil0 {fill:black;fill-opacity:0.200000}
    .fil1 {fill:url(#id0)}
   ]]>
  </style>
  <linearGradient id="id0" gradientUnits="userSpaceOnUse" x1="-0" y1="396.08" x2="811.19" y2="396.08">
   <stop offset="0" style="stop-opacity:1; stop-color:#0088C9"/>
   <stop offset="1" style="stop-opacity:1; stop-color:#0074BE"/>
  </linearGradient>
 </defs>
 <g id="Camada_x0020_1">
  <metadata id="CorelCorpID_0Corel-Layer"/>
  <path class="fil0" d="M17.7 422.13c0,68.06 6.07,104.28 28.3,166.58 1.88,5.28 3.56,8.02 6.05,12.96 2.68,5.32 3.73,8.92 6.29,14.3 13.1,27.55 36.1,63.26 57.19,85.4 4.17,4.37 5.44,6.93 9.48,11.12 7.06,7.33 13.43,13.36 20.63,20.56 13.74,13.74 28.97,26.13 45.4,36.99 16.67,11.02 32.54,21.13 50.59,30.22 12.29,6.18 49.4,22.71 62.85,22.71 11.29,0 19.01,-10.3 19.01,-22.18l0 -74.46c-9.53,0.21 -15.38,3.17 -26.93,3.17 -48.96,0 -89.73,-2.54 -110.47,-51.14 -9.93,-23.28 -23.31,-46.1 -45.13,-59.44 -6.27,-3.83 -14.8,-10.68 -15.52,-19.34 20.2,-13.53 51.82,5.28 66.19,19.36 19.22,18.83 33.97,64.22 79.12,62.13 19.31,-0.89 33.81,-0.41 49.21,-8.96 9.35,-5.2 4.6,-21.59 18.03,-42.17 3.56,-5.46 9.08,-7.95 10.83,-14.52 -11.83,-0.98 -28.12,-4.11 -39.5,-6.45 -42.14,-8.67 -78.45,-26.94 -105.78,-58.99 -11.39,-13.35 -18.86,-29.3 -24.86,-46.43 -20.78,-59.31 -20.5,-129.41 15.79,-181.9 13.38,-19.35 12.24,-8.46 6.64,-32.23 -6.08,-25.78 0.04,-90.68 13.05,-90.68 23.42,0 39.59,7.74 58.85,15.62 27.85,11.4 43.71,28.28 53.91,26.08 24.1,-5.18 45.39,-11.81 71.03,-11.6 12.02,0.1 18.67,-2.33 31.69,-1.59 28.37,1.6 58.73,4.69 86.21,12.12 6.29,1.7 6.97,2.86 11.73,0.4 19.67,-10.17 21.05,-15.45 53.48,-29.03 20.35,-8.52 26.05,-12 54.55,-12 5.91,25.37 12.67,21.03 12.67,68.13 0,8.21 -0.91,13.88 -2.51,21.26 -1.15,5.31 -5.23,15.16 -4.85,18.11 0.76,5.93 70.16,67.58 27.37,196.11 -15.6,46.86 -49.63,77.75 -94.46,95.66 -21.78,8.7 -53.22,16.88 -77.64,17.42 10.36,15.48 17.96,16.43 23.39,39.98 8.74,37.91 -1.52,129.11 5.19,153.25 2.63,9.45 10.15,14.32 20.54,14.32 10.29,0 49.63,-17.72 58.64,-22.16 13.24,-6.52 27.52,-13.61 39.36,-22.43l34.87 -25.34c15.22,-12.13 28.84,-25.84 42.62,-39.77 4.23,-4.28 5.36,-6.8 9.47,-11.12 22.4,-23.52 43.29,-56.1 57.47,-85.12 23.8,-48.71 41.16,-107.13 41.16,-163.22 0,-53.99 -3.75,-106.9 -23.54,-155.5 -9.65,-23.69 -19.1,-44.62 -31.42,-66.81l-19.5 -29.61c-14,-19.85 -28.4,-37.06 -45.56,-54.25 -37.09,-37.15 -84.12,-68 -132.79,-87.44 -6.44,-2.57 -12.72,-4.88 -18.35,-7 -69.23,-25.98 -157.33,-28.84 -229.49,-11.3 -38.17,9.28 -71.45,23.52 -105.64,41.7 -30.76,16.36 -60.4,39.51 -84.89,64.04 -24.19,24.23 -47.25,52.91 -64.5,82.85 -6.1,10.58 -11.16,20.63 -16.97,32.15 -19.29,38.28 -38.55,102.78 -38.55,159.49z"/>
  <path class="fil1" d="M-0 391.33c0,68.06 6.07,104.28 28.3,166.58 1.88,5.28 3.56,8.02 6.05,12.96 2.68,5.32 3.73,8.92 6.29,14.3 13.1,27.55 36.1,63.26 57.19,85.4 4.17,4.37 5.44,6.93 9.48,11.12 7.06,7.33 13.43,13.36 20.63,20.56 13.74,13.74 28.97,26.13 45.4,36.99 16.67,11.02 32.54,21.13 50.59,30.22 12.29,6.18 49.4,22.71 62.85,22.71 11.29,0 19.01,-10.3 19.01,-22.18l0 -74.46c-9.53,0.21 -15.38,3.17 -26.93,3.17 -48.96,0 -89.73,-2.54 -110.47,-51.14 -9.93,-23.28 -23.31,-46.1 -45.13,-59.44 -6.27,-3.83 -14.8,-10.68 -15.52,-19.34 20.2,-13.53 51.82,5.28 66.19,19.36 19.22,18.83 33.97,64.22 79.12,62.13 19.31,-0.89 33.81,-0.41 49.21,-8.96 9.35,-5.2 4.6,-21.59 18.03,-42.17 3.56,-5.46 9.08,-7.95 10.83,-14.52 -11.83,-0.98 -28.12,-4.11 -39.5,-6.45 -42.14,-8.67 -78.45,-26.94 -105.78,-58.99 -11.39,-13.35 -18.86,-29.3 -24.86,-46.43 -20.78,-59.31 -20.5,-129.41 15.79,-181.9 13.38,-19.35 12.24,-8.46 6.64,-32.23 -6.08,-25.78 0.04,-90.68 13.05,-90.68 23.42,0 39.59,7.74 58.85,15.62 27.85,11.4 43.71,28.28 53.91,26.08 24.1,-5.18 45.39,-11.81 71.03,-11.6 12.02,0.1 18.67,-2.33 31.69,-1.59 28.37,1.6 58.73,4.69 86.21,12.12 6.29,1.7 6.97,2.86 11.73,0.4 19.67,-10.17 21.05,-15.45 53.48,-29.03 20.35,-8.52 26.05,-12 54.55,-12 5.91,25.37 12.67,21.03 12.67,68.13 0,8.21 -0.91,13.88 -2.51,21.26 -1.15,5.31 -5.23,15.16 -4.85,18.11 0.76,5.93 70.16,67.58 27.37,196.11 -15.6,46.86 -49.63,77.75 -94.46,95.66 -21.78,8.7 -53.22,16.88 -77.64,17.42 10.36,15.48 17.96,16.43 23.39,39.98 8.74,37.91 -1.52,129.11 5.19,153.25 2.63,9.45 10.15,14.32 20.54,14.32 10.29,0 49.63,-17.72 58.64,-22.16 13.24,-6.52 27.52,-13.61 39.36,-22.43l34.87 -25.34c15.22,-12.13 28.84,-25.84 42.62,-39.77 4.23,-4.28 5.36,-6.8 9.47,-11.12 22.4,-23.52 43.29,-56.1 57.47,-85.12 23.8,-48.71 41.16,-107.13 41.16,-163.22 0,-53.99 -3.75,-106.9 -23.54,-155.5 -9.65,-23.69 -19.1,-44.62 -31.42,-66.81l-19.5 -29.61c-14,-19.85 -28.4,-37.06 -45.56,-54.25 -37.09,-37.15 -84.12,-68 -132.79,-87.44 -6.44,-2.57 -12.72,-4.88 -18.35,-7 -69.23,-25.98 -157.33,-28.84 -229.49,-11.3 -38.17,9.28 -71.45,23.52 -105.64,41.7 -30.76,16.36 -60.4,39.51 -84.89,64.04 -24.19,24.23 -47.25,52.91 -64.5,82.85 -6.1,10.58 -11.16,20.63 -16.97,32.15 -19.29,38.28 -38.55,102.78 -38.55,159.49z"/>
 </g>
</svg>
