<?xml version="1.0" encoding="UTF-8"?>
<!DOCTYPE svg PUBLIC "-//W3C//DTD SVG 1.1//EN" "http://www.w3.org/Graphics/SVG/1.1/DTD/svg11.dtd">
<!-- Creator: CorelDRAW 2020 (64 Bit) -->
<svg xmlns="http://www.w3.org/2000/svg" xml:space="preserve" width="25.827mm" height="29.2952mm" version="1.1" style="shape-rendering:geometricPrecision; text-rendering:geometricPrecision; image-rendering:optimizeQuality; fill-rule:evenodd; clip-rule:evenodd"
viewBox="0 0 63.43 71.95"
 xmlns:xlink="http://www.w3.org/1999/xlink"
 xmlns:xodm="http://www.corel.com/coreldraw/odm/2003">
 <defs>
  <style type="text/css">
   <![CDATA[
    .fil2 {fill:#EBEBEB}
    .fil0 {fill:#ED4924}
    .fil1 {fill:#F16429}
    .fil3 {fill:white}
   ]]>
  </style>
 </defs>
 <g id="Camada_x0020_1">
  <metadata id="CorelCorpID_0Corel-Layer"/>
  <g id="_1346527161200">
   <path class="fil0" d="M5.76 64.75c0.16,0.08 3.31,0.92 3.63,1.01l2.42 0.67c1.21,0.36 2.43,0.65 3.65,1.01 1.07,0.32 2.17,0.59 3.25,0.9 0.54,0.16 1.07,0.29 1.62,0.45l2.01 0.56c0.14,0.04 0.27,0.08 0.41,0.11 0.28,0.07 0.54,0.15 0.81,0.22l6.48 1.8c0.15,0.04 1.52,0.45 1.63,0.45 0.09,0 1.49,-0.41 1.62,-0.44 0.78,-0.22 1.66,-0.48 2.44,-0.68l4.06 -1.13c0.95,-0.28 1.89,-0.51 2.84,-0.79 0.14,-0.04 0.27,-0.08 0.41,-0.11 0.55,-0.14 1.08,-0.3 1.63,-0.45 0.55,-0.16 1.07,-0.29 1.62,-0.45 0.28,-0.08 0.53,-0.14 0.81,-0.22 0.28,-0.08 0.54,-0.15 0.82,-0.23l5.67 -1.58c0.41,-0.12 3.88,-1.05 4.06,-1.14 0,-0.27 0.04,-0.5 0.06,-0.76 0,-0.06 0.01,-0.17 0.02,-0.25 0.01,-0.07 0.02,-0.19 0.03,-0.25l0.11 -1.27c0.01,-0.24 0.04,-0.52 0.07,-0.76l0.15 -1.77c0.02,-0.13 0.04,-0.35 0.05,-0.49 0.02,-0.41 0.09,-0.85 0.11,-1.27 0,-0.07 0.01,-0.18 0.02,-0.27l0.07 -0.75c0,-0.07 0.01,-0.18 0.02,-0.27 0.08,-0.64 0.11,-1.35 0.18,-2.01 0.03,-0.33 0.05,-0.67 0.09,-1.01 0.03,-0.33 0.05,-0.67 0.09,-1.02l0.27 -3.03c0.05,-0.66 0.14,-1.34 0.18,-2.01l0.11 -1.26c0.06,-0.43 0.05,-0.84 0.11,-1.26 0.01,-0.07 0.02,-0.19 0.02,-0.25 0.03,-0.42 0.09,-0.85 0.11,-1.27l0.09 -1.02c0,-0.08 0.01,-0.16 0.02,-0.25l0.14 -1.51c0.01,-0.1 0.02,-0.18 0.02,-0.27l0.65 -7.34c0.02,-0.24 0.06,-0.51 0.07,-0.76 0.01,-0.33 0.07,-0.68 0.09,-1 0.02,-0.34 0.07,-0.67 0.09,-1.02 0.02,-0.34 0.07,-0.67 0.09,-1.01 0.04,-0.66 0.13,-1.35 0.18,-2.01l0.45 -5.06c0.04,-0.34 0.06,-0.69 0.09,-1.01 0.07,-0.67 0.1,-1.37 0.18,-2.01 0.04,-0.34 0.05,-0.68 0.09,-1.01 0.04,-0.34 0.05,-0.68 0.09,-1.02l0.04 -0.5c0.01,-0.15 0.03,-0.37 0.05,-0.51 0.01,-0.08 0.02,-0.19 0.02,-0.25l0.16 -1.77c0.04,-0.26 0.04,-0.5 0.06,-0.75 0,-0.07 0.02,-0.19 0.03,-0.26l0.18 -2.01c0.02,-0.15 0.04,-0.36 0.05,-0.5l0.04 -0.52c0.01,-0.08 0.02,-0.19 0.02,-0.25l0.16 -1.78c0.01,-0.08 0.02,-0.19 0.02,-0.25 0.01,-0.08 0.02,-0.18 0.02,-0.25l0.04 -0.5c0.04,-0.33 0.05,-0.68 0.09,-1.01 0.04,-0.33 0.05,-0.68 0.09,-1.02 0.04,-0.33 0.05,-0.68 0.09,-1.01 0.04,-0.33 0.05,-0.68 0.09,-1.01 0.04,-0.33 0.05,-0.68 0.09,-1.02 0.04,-0.33 0.05,-0.68 0.09,-1.01 0.02,-0.14 0.04,-0.35 0.05,-0.5 0.01,-0.18 0.04,-0.34 0.04,-0.52l0 -0.01 -63.43 0 0 0.01c0,0.18 0.03,0.32 0.04,0.5 0.02,0.42 0.08,0.84 0.11,1.25 0.02,0.25 0.06,0.52 0.07,0.76 0.01,0.32 0.08,0.69 0.09,1.01l0.05 0.52c0.01,0.07 0.02,0.19 0.02,0.25 0.04,0.49 0.1,1.01 0.13,1.5l0.07 0.76c0.01,0.11 0.01,0.15 0.02,0.25 0.02,0.33 0.07,0.69 0.09,1.01l0.11 1.26c0.02,0.14 0.04,0.35 0.05,0.5 0.01,0.18 0.02,0.34 0.04,0.52 0.04,0.33 0.05,0.68 0.09,1.01 0.02,0.14 0.04,0.35 0.05,0.5 0.12,1.52 0.28,3.04 0.4,4.56 0.05,0.66 0.14,1.35 0.18,2.01 0.02,0.34 0.07,0.68 0.09,1.02 0,0.06 0.01,0.17 0.02,0.25l0.07 0.77c0.02,0.32 0.08,0.67 0.09,1 0.01,0.32 0.08,0.69 0.09,1.02 0.02,0.38 0.08,0.86 0.11,1.27l0.05 0.49c0.03,0.27 0.03,0.5 0.07,0.77 0.01,0.07 0.02,0.19 0.03,0.25l0.11 1.27c0.02,0.52 0.15,1.46 0.18,2.03 0.02,0.34 0.07,0.68 0.09,1.02l0.04 0.5c0.06,0.43 0.05,0.84 0.11,1.26 0.05,0.35 0.04,0.66 0.09,1.01 0.01,0.08 0.02,0.2 0.03,0.26 0.04,0.67 0.13,1.35 0.18,2.01l0.18 2.03c0.05,0.67 0.11,1.36 0.18,2.01 0.01,0.08 0.02,0.18 0.02,0.25l0.07 0.76c0.04,0.35 0.04,0.67 0.09,1.02l0.09 1c0.01,0.07 0.02,0.19 0.02,0.25l0.04 0.5c0.04,0.42 0.06,0.88 0.12,1.28l0.24 2.78c0.01,0.07 0.02,0.19 0.03,0.26 0.04,0.26 0.04,0.49 0.06,0.75l0.18 2.03c0,0.06 0.01,0.17 0.02,0.25l0.11 1.26c0.04,0.34 0.05,0.67 0.09,1.01l0.04 0.5c0.02,0.34 0.07,0.69 0.09,1.02l0.07 0.74c0.01,0.18 0.02,0.34 0.04,0.52 0.07,0.67 0.11,1.35 0.18,2.03l0.27 3.03c0.03,0.33 0.06,0.67 0.09,1.01l0.18 2.03c0.04,0.49 0.07,1.02 0.14,1.51 0.01,0.08 0.02,0.18 0.02,0.25 0.01,0.11 0.02,0.16 0.02,0.27z"/>
   <path class="fil1" d="M31.71 13.25l19.87 0 -0.71 7.94 -19.18 0 -11.2 0c-0,0.09 0,0.03 0.02,0.05 0.04,-0.06 0.24,-0.03 0.32,-0.03l8.08 0c0.47,0 2.52,-0.02 2.81,0.01l0 8.06c-0.17,0.05 -10.43,0.03 -10.51,0 0.03,0.05 -0.02,0.02 0.07,0.04l9.12 -0c0.42,0 0.88,0.02 1.3,-0l18.45 0 -2.17 24.38 -16.25 4.51 -0 8.23 20.97 -5.81c0.05,-0.04 0.17,-1.65 0.17,-1.7 0.06,-0.58 0.1,-1.16 0.15,-1.73 0.1,-1.15 0.21,-2.31 0.31,-3.46 0.4,-4.6 0.84,-9.22 1.23,-13.83 0.2,-2.3 0.41,-4.61 0.62,-6.92 0.63,-6.91 1.21,-13.83 1.85,-20.75l0.46 -5.19c0.05,-0.58 0.12,-1.17 0.15,-1.74l-25.93 0 -0 7.94z"/>
   <path class="fil2" d="M31.69 37.26l0 -7.94c-0.41,0.02 -0.88,0 -1.3,0l-9.12 0c-0.09,-0.02 -0.03,0.02 -0.07,-0.04 -0.05,-0.3 -0.06,-0.68 -0.09,-1l-0.27 -3.01c-0.04,-0.42 -0.37,-3.93 -0.35,-4.04 -0.01,-0.02 -0.02,0.03 -0.02,-0.05l11.2 -0 0.01 -7.94 -19.89 0 2.14 24 17.74 0.01z"/>
   <path class="fil3" d="M31.69 37.26l0.02 -0 9.75 0 -0.93 10.3 -8.82 2.38 -0.02 0.01c-0.03,0.16 -0.01,5.75 -0.01,6.2 0,0.51 -0.02,1.64 0,2.07l0.03 -0 16.25 -4.51 2.17 -24.38 -18.45 -0 0 7.94z"/>
   <path class="fil2" d="M31.69 58.21c-0.03,-0.43 -0,-1.56 -0,-2.07 0,-0.45 -0.02,-6.04 0.01,-6.2 -0.12,-0 -4.32,-1.16 -4.43,-1.19l-3.31 -0.89c-0.37,-0.1 -0.75,-0.22 -1.11,-0.3l-0.57 -6.33 -7.97 -0 1.11 12.46 16.28 4.52z"/>
   <polygon class="fil3" points="31.69,21.19 50.87,21.19 51.58,13.25 31.71,13.25 31.69,13.25 "/>
   <polygon class="fil1" points="31.72,49.94 40.54,47.56 41.47,37.26 31.71,37.26 "/>
   <path class="fil0" d="M20.5 21.24c-0.03,0.1 0.31,3.61 0.35,4.04l0.27 3.01c0.03,0.31 0.04,0.69 0.09,1 0.08,0.03 10.33,0.05 10.51,0l0 -8.06c-0.29,-0.03 -2.34,-0.01 -2.81,-0.01l-8.08 0c-0.08,0 -0.28,-0.03 -0.32,0.03z"/>
  </g>
 </g>
</svg>
