<?xml version="1.0" encoding="UTF-8"?>
<!DOCTYPE svg PUBLIC "-//W3C//DTD SVG 1.1//EN" "http://www.w3.org/Graphics/SVG/1.1/DTD/svg11.dtd">
<!-- Creator: CorelDRAW 2020 (64 Bit) -->
<svg xmlns="http://www.w3.org/2000/svg" xml:space="preserve" width="11.4432mm" height="11.4432mm" version="1.1" style="shape-rendering:geometricPrecision; text-rendering:geometricPrecision; image-rendering:optimizeQuality; fill-rule:evenodd; clip-rule:evenodd"
viewBox="0 0 5.93 5.93"
 xmlns:xlink="http://www.w3.org/1999/xlink"
 xmlns:xodm="http://www.corel.com/coreldraw/odm/2003">
 <defs>
  <style type="text/css">
   <![CDATA[
    .fil3 {fill:none}
    .fil4 {fill:#312E2C}
    .fil2 {fill:#969696;fill-opacity:0.450980}
    .fil1 {fill:white;fill-opacity:0.470588}
    .fil0 {fill:url(#id1)}
   ]]>
  </style>
   <clipPath id="id0">
    <path d="M2.96 0c1.64,0 2.96,1.33 2.96,2.96 0,1.64 -1.33,2.96 -2.96,2.96 -1.64,0 -2.96,-1.33 -2.96,-2.96 0,-1.64 1.33,-2.96 2.96,-2.96z"/>
   </clipPath>
  <linearGradient id="id1" gradientUnits="userSpaceOnUse" x1="0.46" y1="4.55" x2="5.46" y2="1.37">
   <stop offset="0" style="stop-opacity:1; stop-color:#D2D2D2"/>
   <stop offset="1" style="stop-opacity:1; stop-color:#FEFEFE"/>
  </linearGradient>
 </defs>
 <g id="Camada_x0020_1">
  <metadata id="CorelCorpID_0Corel-Layer"/>
  <path class="fil0" d="M2.96 0c1.64,0 2.96,1.33 2.96,2.96 0,1.64 -1.33,2.96 -2.96,2.96 -1.64,0 -2.96,-1.33 -2.96,-2.96 0,-1.64 1.33,-2.96 2.96,-2.96z"/>
  <g style="clip-path:url(#id0)">
   <g id="_2397853084096">
    <path id="1" class="fil1" d="M-0.45 2.39c2.86,-4.06 5.39,-1.87 8.26,0.95l0.99 -4.93 -10.07 0 0.81 3.98z"/>
    <path class="fil2" d="M-0.49 3.54c2.86,4.06 5.39,1.87 8.26,-0.95l0.99 4.93 -10.07 0 0.81 -3.98z"/>
   </g>
  </g>
  <path class="fil3" d="M2.96 0c1.64,0 2.96,1.33 2.96,2.96 0,1.64 -1.33,2.96 -2.96,2.96 -1.64,0 -2.96,-1.33 -2.96,-2.96 0,-1.64 1.33,-2.96 2.96,-2.96z"/>
  <path class="fil4" d="M1.48 2.12l0.59 0.43c0.25,-0.21 0.93,-0.95 1.29,-0.7 0.55,0.37 -0.97,1.01 -1.6,1.75l-0.01 0.2 0.74 0.23c0.59,-0.73 2.16,-1.58 1.98,-2.08 -0.55,-1.49 -2.35,-0.69 -2.99,0.18z"/>
  <path class="fil4" d="M3.35 4.53c0.33,-0.15 0.54,-0.41 0.47,-0.59 -0.07,-0.18 -0.4,-0.2 -0.74,-0.05 -0.33,0.15 -0.54,0.41 -0.47,0.59 0.07,0.18 0.4,0.2 0.74,0.05z"/>
 </g>
</svg>
