<?xml version="1.0" encoding="UTF-8"?>
<!DOCTYPE svg PUBLIC "-//W3C//DTD SVG 1.1//EN" "http://www.w3.org/Graphics/SVG/1.1/DTD/svg11.dtd">
<!-- Creator: CorelDRAW 2020 (64 Bit) -->
<svg xmlns="http://www.w3.org/2000/svg" xml:space="preserve" width="25.7931mm" height="29.2032mm" version="1.1" style="shape-rendering:geometricPrecision; text-rendering:geometricPrecision; image-rendering:optimizeQuality; fill-rule:evenodd; clip-rule:evenodd"
viewBox="0 0 66.27 75.03"
 xmlns:xlink="http://www.w3.org/1999/xlink"
 xmlns:xodm="http://www.corel.com/coreldraw/odm/2003">
 <defs>
  <style type="text/css">
   <![CDATA[
    .fil0 {fill:#FEFEFE}
    .fil1 {fill:#E4BC00}
    .fil2 {fill:#FDD800}
   ]]>
  </style>
 </defs>
 <g id="Camada_x0020_1">
  <metadata id="CorelCorpID_0Corel-Layer"/>
  <g id="_1346534344880">
   <polygon class="fil0" points="3.15,3.9 60.55,3.9 52.37,66.66 8.55,64.56 "/>
   <g>
    <path class="fil1" d="M11.34 47.41l9.57 2.57c0.99,0.25 2.27,0.76 3.32,0.79l-0.57 -36.96 7.07 0 0.71 46.48c-0.78,-0.07 -1.78,-0.4 -2.55,-0.63l-7.5 -2.03c-1.59,-0.43 -3.27,-0.89 -4.98,-1.38l-4.97 -1.39 -0.11 -7.47zm21.94 -41.62l26.47 0.06c-0.15,4.59 -0.62,9.64 -1.02,14.31 -0.41,4.73 -0.52,9.63 -1.04,14.37 -0.51,4.71 -0.58,9.62 -1.04,14.37 -0.25,2.61 -0.6,12.75 -1.16,14.32 -0.73,0.64 -8.89,2.64 -10.55,3.05 -2.11,0.52 -9.37,2.72 -10.7,2.87l-0.97 -63.34zm-26.48 61.59c1.1,0.25 2.23,0.63 3.37,0.93l24.12 6.72 26.26 -7.34c0.8,-0.18 1,0.33 1.13,-2.19 0.07,-1.24 0.09,-1.94 0.16,-3.15l2.68 -37.42c0.27,-2.04 0.17,-4.21 0.41,-6.22l0.88 -12.37c0.07,-1.99 0.49,-4.33 0.46,-6.35l-66.27 0c0.26,2.68 0.74,5.63 0.87,8.4 0.12,2.67 0.76,5.7 0.87,8.4l2.59 25.23c0.4,3.3 0.78,9.56 1.26,12.55l1.21 12.8z"/>
    <path class="fil2" d="M55.61 21.09l-12.29 0 0.2 12.88c0.53,-0.26 4.87,-0.82 5.91,-0.97l5.98 -0.9 -1.39 17.56c-0.09,1.4 -0.22,4.75 -0.48,5.96l-16.87 4.67 -0.11 -7.47c3.17,-0.74 6.31,-1.85 9.46,-2.61 1.99,-0.49 1.17,-0.22 1.68,-4.4 0.22,-1.78 0.24,-3.93 0.58,-5.49 -0.83,0.02 -1.96,0.29 -2.92,0.43 -0.85,0.13 -2.14,0.32 -3.05,0.48 -1.94,0.33 -4.1,0.54 -5.91,0.96l-0.44 -28.37 20.66 0 -0.46 5.62c-0.04,0.84 0.28,1.66 -0.55,1.66zm-21.36 48.04c1.33,-0.16 8.59,-2.35 10.7,-2.87 1.66,-0.41 9.81,-2.41 10.55,-3.05 0.56,-1.57 0.91,-11.71 1.16,-14.32 0.46,-4.75 0.52,-9.65 1.04,-14.37 0.52,-4.74 0.62,-9.64 1.04,-14.37 0.41,-4.67 0.87,-9.72 1.02,-14.31l-26.47 -0.06 0.97 63.34z"/>
   </g>
  </g>
 </g>
</svg>
