<?xml version="1.0" encoding="UTF-8"?>
<!DOCTYPE svg PUBLIC "-//W3C//DTD SVG 1.1//EN" "http://www.w3.org/Graphics/SVG/1.1/DTD/svg11.dtd">
<!-- Creator: CorelDRAW 2020 (64 Bit) -->
<svg xmlns="http://www.w3.org/2000/svg" xml:space="preserve" width="127.161mm" height="129.081mm" version="1.1" style="shape-rendering:geometricPrecision; text-rendering:geometricPrecision; image-rendering:optimizeQuality; fill-rule:evenodd; clip-rule:evenodd"
viewBox="0 0 736.96 748.09"
 xmlns:xlink="http://www.w3.org/1999/xlink"
 xmlns:xodm="http://www.corel.com/coreldraw/odm/2003">
 <defs>
  <style type="text/css">
   <![CDATA[
    .fil0 {fill:black;fill-opacity:0.200000}
    .fil1 {fill:url(#id0)}
   ]]>
  </style>
  <linearGradient id="id0" gradientUnits="userSpaceOnUse" x1="-0" y1="358.4" x2="717.26" y2="358.4">
   <stop offset="0" style="stop-opacity:1; stop-color:#0088C9"/>
   <stop offset="1" style="stop-opacity:1; stop-color:#0074BE"/>
  </linearGradient>
 </defs>
 <g id="Camada_x0020_1">
  <metadata id="CorelCorpID_0Corel-Layer"/>
  <path class="fil0" d="M205.54 308.99l76.37 0 0 253.4 -76.37 0 0 -253.4zm203.06 112.81l0 140.58 -74.63 0 0 -253.4 74.63 0 0 34.71 6.19 -7.69c41.94,-56.1 162.16,-48.85 162.16,63.23l0 163.15 -76.37 0 0 -133.64c0,-83.31 -91.99,-68.56 -91.99,-6.94zm-210.01 -189.18c0,-70.27 90.25,-58.76 90.25,-8.68l0 10.41c0,19.38 -20.54,39.92 -39.92,39.92l-10.41 0c-19.9,0 -39.92,-21.75 -39.92,-41.65zm177.03 515.47c56.12,0 109.9,-12.11 149.26,-31.24 17.95,-8.72 23.21,-10.07 41.99,-22.22 60.01,-38.84 100.33,-80.72 134.46,-148.44 47.5,-94.23 47.5,-218.76 0,-312.99 -29.77,-59.07 -85.75,-124.96 -147.53,-156.2l-28.92 -14.47c-39.36,-19.13 -93.14,-31.24 -149.26,-31.24 -107.93,0 -196.05,51.13 -250.36,105.44 -55.35,55.35 -104.02,150.66 -103.66,231.3 0.04,10.22 -1.74,11.97 -1.9,20.8l3.06 40.44c14.99,108.54 61.66,188.31 149.52,253.13 8.48,6.26 17.9,12.28 27.5,17.62l44.16 21.79c42.57,16.03 82.75,26.27 131.67,26.27z"/>
  <path class="fil1" d="M185.83 277.69l76.37 0 0 253.4 -76.37 0 0 -253.4zm203.06 112.81l0 140.58 -74.63 0 0 -253.4 74.63 0 0 34.71 6.19 -7.69c41.94,-56.1 162.16,-48.85 162.16,63.23l0 163.15 -76.37 0 0 -133.64c0,-83.31 -91.99,-68.56 -91.99,-6.94zm-210.01 -189.18c0,-70.27 90.25,-58.76 90.25,-8.68l0 10.41c0,19.38 -20.54,39.92 -39.92,39.92l-10.41 0c-19.9,0 -39.92,-21.75 -39.92,-41.65zm177.03 515.47c56.12,0 109.9,-12.11 149.26,-31.24 17.95,-8.72 23.21,-10.07 41.99,-22.22 60.01,-38.84 100.33,-80.72 134.46,-148.44 47.5,-94.23 47.5,-218.76 0,-312.99 -29.77,-59.07 -85.75,-124.96 -147.53,-156.2l-28.92 -14.47c-39.36,-19.13 -93.14,-31.24 -149.26,-31.24 -107.93,0 -196.05,51.13 -250.36,105.44 -55.35,55.35 -104.02,150.66 -103.66,231.3 0.04,10.22 -1.74,11.97 -1.9,20.8l3.06 40.44c14.99,108.54 61.66,188.31 149.52,253.13 8.48,6.26 17.9,12.28 27.5,17.62l44.16 21.79c42.57,16.03 82.75,26.27 131.67,26.27z"/>
 </g>
</svg>
