<?xml version="1.0" encoding="UTF-8"?>
<!DOCTYPE svg PUBLIC "-//W3C//DTD SVG 1.1//EN" "http://www.w3.org/Graphics/SVG/1.1/DTD/svg11.dtd">
<!-- Creator: CorelDRAW -->
<svg xmlns="http://www.w3.org/2000/svg" xml:space="preserve" width="34.9462mm" height="40.7016mm" version="1.1" style="shape-rendering:geometricPrecision; text-rendering:geometricPrecision; image-rendering:optimizeQuality; fill-rule:evenodd; clip-rule:evenodd"
viewBox="0 0 220.52 256.84"
 xmlns:xlink="http://www.w3.org/1999/xlink"
 xmlns:xodm="http://www.corel.com/coreldraw/odm/2003">
 <defs>
  <style type="text/css">
   <![CDATA[
    .fil1 {fill:#0074BE}
    .fil2 {fill:#0088C9}
    .fil3 {fill:#FEFEFE}
    .fil0 {fill:#373435;fill-opacity:0.619608}
   ]]>
  </style>
 </defs>
 <g id="Camada_x0020_1">
  <metadata id="CorelCorpID_0Corel-Layer"/>
  <path class="fil0" d="M115.41 256.8c0.99,0 3.22,-0.88 4.32,-1.19l38.68 -11.19c2.87,-0.89 5.74,-1.67 8.64,-2.51 5.74,-1.68 11.48,-3.35 17.29,-5.02l18.28 -5.28c0.94,-0.28 1.49,-0.1 1.51,-1.25 0.01,-0.66 0.06,-0.8 0.11,-1.27l0.85 -10.17c0.03,-0.73 0.19,-1.82 0.26,-2.5 0.11,-1.02 0.06,-1.69 0.2,-2.69 0.4,-3.08 0.56,-6.89 0.9,-10.11l0.43 -5.07c0.03,-0.79 0.1,-1.74 0.22,-2.54 0.37,-2.55 0.31,-5.21 0.65,-7.75 0.33,-2.51 0.47,-5.22 0.66,-7.74l0.93 -10.22c0.26,-2.52 0.28,-5.03 0.65,-7.61l3.77 -43.34c0.2,-2.53 0.33,-5.21 0.66,-7.74l0.87 -10.29c0.23,-4.18 0.9,-8.61 1.1,-12.81 0.12,-2.53 0.58,-5.12 0.68,-7.58 0.11,-2.5 0.49,-5.05 0.68,-7.59 0.19,-2.54 0.33,-5.2 0.66,-7.74 0.11,-0.88 0.11,-1.7 0.19,-2.57l1.93 -22.19 -22.47 -29.35c-64.2,-5.18 -128.91,-1.84 -191.74,2.56 0,1.7 0.36,2.94 0.42,5.17l0.67 7.59c0.1,0.97 0.1,1.77 0.17,2.73l1.7 20.61c0.25,1.68 0.19,3.38 0.43,5.07l0.61 7.79c0.03,0.64 0.16,1.94 0.24,2.52l0.44 5.21c0.26,3.49 0.67,6.92 0.83,10.33 0.17,3.4 0.75,7.02 0.83,10.33 0.04,1.64 0.37,3.44 0.42,5.1 0.06,2.33 0.78,10.01 1.08,12.83 0.1,0.97 0.1,1.77 0.17,2.73l3.16 38.58c0.12,2.48 0.49,5.3 0.68,7.73l0.42 5.23c0.09,3.55 0.72,6.93 0.83,10.47l1.25 15.42c0.19,2.52 0.56,5.23 0.68,7.73l0.42 5.1c0.08,1.71 0.37,3.52 0.42,5.23 0.01,0.63 0.1,1.88 0.2,2.56 0.51,3.47 0.42,6.88 0.87,10.29 0.11,0.85 0.13,1.73 0.18,2.58l0.67 7.74c0.13,0.91 0.5,0.72 1.73,1.02 0.84,0.21 1.45,0.41 2.26,0.64l82.9 23.3c0.76,0.22 1.48,0.43 2.14,0.61 0.51,0.14 1.91,0.58 2.32,0.58l-0.02 -0.03z"/>
  <path class="fil1" d="M109.1 247.97c0.99,0 3.22,-0.88 4.32,-1.19l38.68 -11.19c2.87,-0.89 5.74,-1.67 8.64,-2.51 5.74,-1.68 11.48,-3.35 17.29,-5.02l18.28 -5.28c0.94,-0.28 1.49,-0.1 1.51,-1.25 0.01,-0.66 0.06,-0.8 0.11,-1.27l0.85 -10.17c0.03,-0.73 0.19,-1.82 0.26,-2.5 0.11,-1.02 0.06,-1.69 0.2,-2.69 0.4,-3.08 0.56,-6.89 0.9,-10.11l0.43 -5.07c0.03,-0.79 0.1,-1.74 0.22,-2.54 0.37,-2.55 0.31,-5.21 0.65,-7.75 0.33,-2.51 0.47,-5.22 0.66,-7.74l0.93 -10.22c0.26,-2.52 0.28,-5.03 0.65,-7.61l3.77 -43.34c0.2,-2.53 0.33,-5.21 0.66,-7.74l0.87 -10.29c0.23,-4.18 0.9,-8.61 1.1,-12.81 0.12,-2.53 0.58,-5.12 0.68,-7.58 0.11,-2.5 0.49,-5.05 0.68,-7.59 0.19,-2.54 0.33,-5.2 0.66,-7.74 0.11,-0.88 0.11,-1.7 0.19,-2.57l1.93 -22.19 -22.47 -29.35c-64.2,-5.18 -128.91,-1.84 -191.74,2.56 0,1.7 0.36,2.94 0.42,5.17l0.67 7.59c0.1,0.97 0.1,1.77 0.17,2.73l1.7 20.61c0.25,1.68 0.19,3.38 0.43,5.07l0.61 7.79c0.03,0.64 0.16,1.94 0.24,2.52l0.44 5.21c0.26,3.49 0.67,6.92 0.83,10.33 0.17,3.4 0.75,7.02 0.83,10.33 0.04,1.64 0.37,3.44 0.42,5.1 0.06,2.33 0.78,10.01 1.08,12.83 0.1,0.97 0.1,1.77 0.17,2.73l3.16 38.58c0.12,2.48 0.49,5.3 0.68,7.73l0.42 5.23c0.09,3.55 0.72,6.93 0.83,10.47l1.25 15.42c0.19,2.52 0.56,5.23 0.68,7.73l0.42 5.1c0.08,1.71 0.37,3.52 0.42,5.23 0.01,0.63 0.1,1.88 0.2,2.56 0.51,3.47 0.42,6.88 0.87,10.29 0.11,0.85 0.13,1.73 0.18,2.58l0.67 7.74c0.13,0.91 0.5,0.72 1.73,1.02 0.84,0.21 1.45,0.41 2.26,0.64l82.9 23.3c0.76,0.22 1.48,0.43 2.14,0.61 0.51,0.14 1.91,0.58 2.32,0.58l-0.02 -0.03z"/>
  <polygon class="fil2" points="109.14,21.17 177.85,21.4 196.55,44.74 182.58,205.22 109.06,226.51 "/>
  <path class="fil3" d="M38.71 47.41c44.49,-5.71 80.44,-6.89 121.8,-0.95l15.81 27.24 -12.26 109.59 -55.19 17.46 -56.76 -15.3 -10.91 -112.54 -2.47 -25.5 -0.01 -0zm38.65 115.36l29.19 7.42 31.85 -6.16 9.06 -90.21c-25.79,-4.45 -52.56,-4.06 -80.16,0.46l10.06 88.49 0 0z"/>
 </g>
</svg>
