<?xml version="1.0" encoding="UTF-8"?>
<!DOCTYPE svg PUBLIC "-//W3C//DTD SVG 1.1//EN" "http://www.w3.org/Graphics/SVG/1.1/DTD/svg11.dtd">
<!-- Creator: CorelDRAW -->
<svg xmlns="http://www.w3.org/2000/svg" xml:space="preserve" width="30.3184mm" height="30.6184mm" version="1.1" style="shape-rendering:geometricPrecision; text-rendering:geometricPrecision; image-rendering:optimizeQuality; fill-rule:evenodd; clip-rule:evenodd"
viewBox="0 0 75.95 76.71"
 xmlns:xlink="http://www.w3.org/1999/xlink"
 xmlns:xodm="http://www.corel.com/coreldraw/odm/2003">
 <defs>
  <style type="text/css">
   <![CDATA[
    .fil4 {fill:none}
    .fil6 {fill:#583C2F}
    .fil9 {fill:white}
    .fil8 {fill:#110C09;fill-opacity:0.188235}
    .fil3 {fill:white;fill-opacity:0.188235}
    .fil0 {fill:#110C09;fill-opacity:0.400000}
    .fil5 {fill:#F69913;fill-opacity:0.450980}
    .fil7 {fill:#110C09;fill-opacity:0.549020}
    .fil1 {fill:#E94D1E;fill-opacity:0.600000}
    .fil2 {fill:url(#id20)}
   ]]>
  </style>
    <clipPath id="id0">
     <path d="M36.47 0.42c19.91,0 36.05,16.14 36.05,36.05 0,19.91 -16.14,36.05 -36.05,36.05 -19.91,0 -36.05,-16.14 -36.05,-36.05 0,-19.91 16.14,-36.05 36.05,-36.05z"/>
    </clipPath>
    <clipPath id="id1">
     <path d="M36.47 9.85c14.7,0 26.62,11.92 26.62,26.62 0,14.7 -11.92,26.62 -26.62,26.62 -14.7,0 -26.62,-11.92 -26.62,-26.62 0,-14.7 11.92,-26.62 26.62,-26.62z"/>
    </clipPath>
      <clipPath id="id2">
       <path d="M22.54 16.38c12.47,-0.88 24.98,0.05 37.53,3.86 -3.17,13.68 -4.25,27.35 -4.04,41 -12.54,0.81 -25.05,-0.62 -37.53,-3.86 2.93,-13.5 4.56,-27.14 4.04,-41z"/>
      </clipPath>
      <clipPath id="id3">
       <path d="M22.54 16.38c12.47,-0.88 24.98,0.05 37.53,3.86 -3.17,13.68 -4.25,27.35 -4.04,41 -12.54,0.81 -25.05,-0.62 -37.53,-3.86 2.93,-13.5 4.56,-27.14 4.04,-41z"/>
      </clipPath>
       <clipPath id="id4">
        <path d="M22.54 16.38c12.47,-0.88 24.98,0.05 37.53,3.86 -3.17,13.68 -4.25,27.35 -4.04,41 -12.54,0.81 -25.05,-0.62 -37.53,-3.86 2.93,-13.5 4.56,-27.14 4.04,-41z"/>
       </clipPath>
       <clipPath id="id5">
        <path d="M22.54 16.38c12.47,-0.88 24.98,0.05 37.53,3.86 -3.17,13.68 -4.25,27.35 -4.04,41 -12.54,0.81 -25.05,-0.62 -37.53,-3.86 2.93,-13.5 4.56,-27.14 4.04,-41z"/>
       </clipPath>
       <clipPath id="id6">
        <path d="M22.54 16.38c12.47,-0.88 24.98,0.05 37.53,3.86 -3.17,13.68 -4.25,27.35 -4.04,41 -12.54,0.81 -25.05,-0.62 -37.53,-3.86 2.93,-13.5 4.56,-27.14 4.04,-41z"/>
       </clipPath>
       <clipPath id="id7">
        <path d="M22.54 16.38c12.47,-0.88 24.98,0.05 37.53,3.86 -3.17,13.68 -4.25,27.35 -4.04,41 -12.54,0.81 -25.05,-0.62 -37.53,-3.86 2.93,-13.5 4.56,-27.14 4.04,-41z"/>
       </clipPath>
      <clipPath id="id8">
       <path d="M23.24 14.89c12.47,-0.88 24.98,0.05 37.53,3.86 -3.17,13.68 -4.25,27.35 -4.04,41 -12.54,0.81 -25.05,-0.62 -37.53,-3.86 2.93,-13.5 4.56,-27.14 4.04,-41z"/>
      </clipPath>
       <clipPath id="id9">
        <path d="M23.24 14.89c12.47,-0.88 24.98,0.05 37.53,3.86 -3.17,13.68 -4.25,27.35 -4.04,41 -12.54,0.81 -25.05,-0.62 -37.53,-3.86 2.93,-13.5 4.56,-27.14 4.04,-41z"/>
       </clipPath>
       <clipPath id="id10">
        <path d="M23.24 14.89c12.47,-0.88 24.98,0.05 37.53,3.86 -3.17,13.68 -4.25,27.35 -4.04,41 -12.54,0.81 -25.05,-0.62 -37.53,-3.86 2.93,-13.5 4.56,-27.14 4.04,-41z"/>
       </clipPath>
       <clipPath id="id11">
        <path d="M23.24 14.89c12.47,-0.88 24.98,0.05 37.53,3.86 -3.17,13.68 -4.25,27.35 -4.04,41 -12.54,0.81 -25.05,-0.62 -37.53,-3.86 2.93,-13.5 4.56,-27.14 4.04,-41z"/>
       </clipPath>
       <clipPath id="id12">
        <path d="M23.24 14.89c12.47,-0.88 24.98,0.05 37.53,3.86 -3.17,13.68 -4.25,27.35 -4.04,41 -12.54,0.81 -25.05,-0.62 -37.53,-3.86 2.93,-13.5 4.56,-27.14 4.04,-41z"/>
       </clipPath>
     <clipPath id="id13">
      <path d="M11.55 20.2c11.73,-4.59 23.97,-7.45 37.02,-7.56 0.63,14.07 3.26,27.5 7.13,40.53 -11.81,4.54 -24.18,6.92 -37.02,7.56 -0.81,-13.83 -2.91,-27.4 -7.13,-40.53z"/>
     </clipPath>
     <clipPath id="id14">
      <path d="M11.55 20.2c11.73,-4.59 23.97,-7.45 37.02,-7.56 0.63,14.07 3.26,27.5 7.13,40.53 -11.81,4.54 -24.18,6.92 -37.02,7.56 -0.81,-13.83 -2.91,-27.4 -7.13,-40.53z"/>
     </clipPath>
      <clipPath id="id15">
       <path d="M11.55 20.2c11.73,-4.59 23.97,-7.45 37.02,-7.56 0.63,14.07 3.26,27.5 7.13,40.53 -11.81,4.54 -24.18,6.92 -37.02,7.56 -0.81,-13.83 -2.91,-27.4 -7.13,-40.53z"/>
      </clipPath>
      <clipPath id="id16">
       <path d="M11.55 20.2c11.73,-4.59 23.97,-7.45 37.02,-7.56 0.63,14.07 3.26,27.5 7.13,40.53 -11.81,4.54 -24.18,6.92 -37.02,7.56 -0.81,-13.83 -2.91,-27.4 -7.13,-40.53z"/>
      </clipPath>
     <clipPath id="id17">
      <path d="M10.38 18.47c11.73,-4.59 23.97,-7.45 37.02,-7.56 0.63,14.07 3.26,27.5 7.13,40.53 -11.81,4.54 -24.18,6.92 -37.02,7.56 -0.81,-13.83 -2.91,-27.4 -7.13,-40.53z"/>
     </clipPath>
      <clipPath id="id18">
       <path d="M10.38 18.47c11.73,-4.59 23.97,-7.45 37.02,-7.56 0.63,14.07 3.26,27.5 7.13,40.53 -11.81,4.54 -24.18,6.92 -37.02,7.56 -0.81,-13.83 -2.91,-27.4 -7.13,-40.53z"/>
      </clipPath>
      <clipPath id="id19">
       <path d="M10.38 18.47c11.73,-4.59 23.97,-7.45 37.02,-7.56 0.63,14.07 3.26,27.5 7.13,40.53 -11.81,4.54 -24.18,6.92 -37.02,7.56 -0.81,-13.83 -2.91,-27.4 -7.13,-40.53z"/>
      </clipPath>
  <linearGradient id="id20" gradientUnits="userSpaceOnUse" x1="8.39" y1="13.88" x2="64.56" y2="59.07">
   <stop offset="0" style="stop-opacity:1; stop-color:#FFCC1F"/>
   <stop offset="1" style="stop-opacity:1; stop-color:#F16536"/>
  </linearGradient>
 </defs>
 <g id="Camada_x0020_1">
  <metadata id="CorelCorpID_0Corel-Layer"/>
  <g id="_1881789310800">
   <path class="fil0" d="M39.23 3.26c20.28,0 36.72,16.44 36.72,36.72 0,20.28 -16.44,36.72 -36.72,36.72 -20.28,0 -36.72,-16.44 -36.72,-36.72 0,-20.28 16.44,-36.72 36.72,-36.72z"/>
   <path class="fil1" d="M36.72 0c20.28,0 36.72,16.44 36.72,36.72 0,20.28 -16.44,36.72 -36.72,36.72 -20.28,0 -36.72,-16.44 -36.72,-36.72 0,-20.28 16.44,-36.72 36.72,-36.72z"/>
   <path class="fil2" d="M36.47 0.42c19.91,0 36.05,16.14 36.05,36.05 0,19.91 -16.14,36.05 -36.05,36.05 -19.91,0 -36.05,-16.14 -36.05,-36.05 0,-19.91 16.14,-36.05 36.05,-36.05z"/>
   <g style="clip-path:url(#id0)">
    <g>
     <path id="_1" class="fil3" d="M8.73 6.37c-4.73,3.65 -5.94,11.38 -4.18,13.66 1.76,2.28 4.38,-4.52 9.1,-8.17 4.73,-3.65 11.02,-5.13 9.26,-7.41 -1.76,-2.28 -9.45,-1.73 -14.18,1.92z"/>
    </g>
   </g>
   <path class="fil4" d="M36.47 0.42c19.91,0 36.05,16.14 36.05,36.05 0,19.91 -16.14,36.05 -36.05,36.05 -19.91,0 -36.05,-16.14 -36.05,-36.05 0,-19.91 16.14,-36.05 36.05,-36.05z"/>
   <path class="fil5" d="M36.47 7.12c16.21,0 29.35,13.14 29.35,29.35 0,16.21 -13.14,29.35 -29.35,29.35 -16.21,0 -29.35,-13.14 -29.35,-29.35 0,-16.21 13.14,-29.35 29.35,-29.35z"/>
   <path class="fil6" d="M36.47 9.85c14.7,0 26.62,11.92 26.62,26.62 0,14.7 -11.92,26.62 -26.62,26.62 -14.7,0 -26.62,-11.92 -26.62,-26.62 0,-14.7 11.92,-26.62 26.62,-26.62z"/>
   <g style="clip-path:url(#id1)">
    <g>
     <path id="_1_0" class="fil7" d="M3.12 -2.39l81.53 0 -13.81 31.52c-27.29,-25.2 -57.51,-12.67 -60.63,21.2l-7.09 -52.72z"/>
    </g>
   </g>
   <path class="fil4" d="M36.47 9.85c14.7,0 26.62,11.92 26.62,26.62 0,14.7 -11.92,26.62 -26.62,26.62 -14.7,0 -26.62,-11.92 -26.62,-26.62 0,-14.7 11.92,-26.62 26.62,-26.62z"/>
  </g>
  <g id="_1881789311040">
   <g>
    <g>
     <path class="fil8" d="M19.9 12.88c14.43,-1.02 28.9,0.06 43.42,4.47 -3.66,15.83 -4.92,31.64 -4.67,47.44 -14.51,0.94 -28.98,-0.71 -43.42,-4.47 3.39,-15.63 5.27,-31.41 4.67,-47.44z"/>
     <g style="clip-path:url(#id2)">
      <polygon class="fil8" points="18.5,16.07 60.06,16.07 60.06,61.47 18.5,61.47 "/>
     </g>
     <g style="clip-path:url(#id3)">
      <g>
      </g>
      <g style="clip-path:url(#id4)">
       <image transform="matrix(0.049904 0.00513186 -0.00537024 0.0545263 -3.61911 10.4538)" x="0" y="0" width="1658.86" height="874.95" xlink:href="modulo-project_Images\modulo-project_ImgID1.png"/>
      </g>
      <g style="clip-path:url(#id5)">
      </g>
      <g style="clip-path:url(#id6)">
       <image transform="matrix(0.0878381 0.0138398 -0.0130855 0.0929008 20.1704 6.88535)" x="0" y="0" width="525.85" height="606.28" xlink:href="modulo-project_Images\modulo-project_ImgID2.png"/>
      </g>
      <g style="clip-path:url(#id7)">
      </g>
     </g>
     <path class="fil4" d="M22.54 16.38c12.47,-0.88 24.98,0.05 37.53,3.86 -3.17,13.68 -4.25,27.35 -4.04,41 -12.54,0.81 -25.05,-0.62 -37.53,-3.86 2.93,-13.5 4.56,-27.14 4.04,-41z"/>
    </g>
    <g>
     <path class="fil9" d="M20.61 11.39c14.43,-1.02 28.9,0.06 43.42,4.47 -3.66,15.83 -4.92,31.64 -4.67,47.44 -14.51,0.94 -28.98,-0.71 -43.42,-4.47 3.39,-15.63 5.27,-31.41 4.67,-47.44z"/>
     <g>
     </g>
     <g style="clip-path:url(#id8)">
      <g>
      </g>
      <g style="clip-path:url(#id9)">
       <image transform="matrix(0.049904 0.00513186 -0.00537024 0.0545263 -2.91522 8.96541)" x="0" y="0" width="1658.86" height="874.95" xlink:href="modulo-project_Images\modulo-project_ImgID3.png"/>
      </g>
      <g style="clip-path:url(#id10)">
      </g>
      <g style="clip-path:url(#id11)">
       <image transform="matrix(0.0878381 0.0138398 -0.0130855 0.0929008 20.8743 5.39697)" x="0" y="0" width="525.85" height="606.28" xlink:href="modulo-project_Images\modulo-project_ImgID4.png"/>
      </g>
      <g style="clip-path:url(#id12)">
      </g>
     </g>
     <path class="fil4" d="M23.24 14.89c12.47,-0.88 24.98,0.05 37.53,3.86 -3.17,13.68 -4.25,27.35 -4.04,41 -12.54,0.81 -25.05,-0.62 -37.53,-3.86 2.93,-13.5 4.56,-27.14 4.04,-41z"/>
    </g>
   </g>
   <g>
    <path class="fil8" d="M8.09 17.63c13.57,-5.31 27.73,-8.62 42.84,-8.75 0.73,16.28 3.77,31.82 8.24,46.9 -13.66,5.26 -27.98,8.01 -42.84,8.75 -0.94,-16 -3.37,-31.7 -8.24,-46.9z"/>
    <g style="clip-path:url(#id13)">
     <polygon class="fil8" points="11.55,12.65 55.7,12.65 55.7,60.73 11.55,60.73 "/>
    </g>
    <g style="clip-path:url(#id14)">
     <g>
     </g>
     <g style="clip-path:url(#id15)">
      <image transform="matrix(0.0492304 -0.0100514 0.00947513 0.0538976 -15.1207 22.3664)" x="0" y="0" width="1658.86" height="874.95" xlink:href="modulo-project_Images\modulo-project_ImgID5.png"/>
     </g>
     <g style="clip-path:url(#id16)">
     </g>
    </g>
    <path class="fil4" d="M11.55 20.2c11.73,-4.59 23.97,-7.45 37.02,-7.56 0.63,14.07 3.26,27.5 7.13,40.53 -11.81,4.54 -24.18,6.92 -37.02,7.56 -0.81,-13.83 -2.91,-27.4 -7.13,-40.53z"/>
   </g>
   <g>
    <path class="fil9" d="M6.91 15.9c13.57,-5.31 27.73,-8.62 42.84,-8.75 0.73,16.28 3.77,31.82 8.24,46.9 -13.66,5.26 -27.98,8.01 -42.84,8.75 -0.94,-16 -3.37,-31.7 -8.24,-46.9z"/>
    <g>
    </g>
    <g style="clip-path:url(#id17)">
     <g>
     </g>
     <g style="clip-path:url(#id18)">
      <image transform="matrix(0.0492304 -0.0100514 0.00947513 0.0538976 -16.2935 20.6302)" x="0" y="0" width="1658.86" height="874.95" xlink:href="modulo-project_Images\modulo-project_ImgID6.png"/>
     </g>
     <g style="clip-path:url(#id19)">
     </g>
    </g>
    <path class="fil4" d="M10.38 18.47c11.73,-4.59 23.97,-7.45 37.02,-7.56 0.63,14.07 3.26,27.5 7.13,40.53 -11.81,4.54 -24.18,6.92 -37.02,7.56 -0.81,-13.83 -2.91,-27.4 -7.13,-40.53z"/>
   </g>
  </g>
 </g>
</svg>
