<?xml version="1.0" encoding="UTF-8"?>
<!DOCTYPE svg PUBLIC "-//W3C//DTD SVG 1.1//EN" "http://www.w3.org/Graphics/SVG/1.1/DTD/svg11.dtd">
<!-- Creator: CorelDRAW -->
<svg xmlns="http://www.w3.org/2000/svg" xml:space="preserve" width="31.0482mm" height="30.6184mm" version="1.1" style="shape-rendering:geometricPrecision; text-rendering:geometricPrecision; image-rendering:optimizeQuality; fill-rule:evenodd; clip-rule:evenodd"
viewBox="0 0 72.95 71.94"
 xmlns:xlink="http://www.w3.org/1999/xlink"
 xmlns:xodm="http://www.corel.com/coreldraw/odm/2003">
 <defs>
  <style type="text/css">
   <![CDATA[
    .fil4 {fill:none}
    .fil12 {fill:#00BB5F}
    .fil16 {fill:#110C09}
    .fil6 {fill:#583C2F}
    .fil15 {fill:#5ED0A1}
    .fil14 {fill:#A3A8A8}
    .fil9 {fill:#D4ABAF}
    .fil17 {fill:white}
    .fil10 {fill:#110C09;fill-opacity:0.050980}
    .fil3 {fill:white;fill-opacity:0.188235}
    .fil0 {fill:#110C09;fill-opacity:0.400000}
    .fil5 {fill:#F69913;fill-opacity:0.450980}
    .fil7 {fill:#110C09;fill-opacity:0.549020}
    .fil11 {fill:#006030;fill-opacity:0.568627}
    .fil1 {fill:#E94D1E;fill-opacity:0.600000}
    .fil13 {fill:#009746;fill-opacity:0.768627}
    .fil2 {fill:url(#id5)}
    .fil8 {fill:url(#id6)}
   ]]>
  </style>
   <clipPath id="id0">
    <path d="M35.92 0.4c18.67,0 33.81,15.14 33.81,33.81 0,18.67 -15.14,33.81 -33.81,33.81 -18.67,0 -33.81,-15.14 -33.81,-33.81 0,-18.67 15.14,-33.81 33.81,-33.81z"/>
   </clipPath>
   <clipPath id="id1">
    <path d="M35.92 9.24c13.79,0 24.97,11.18 24.97,24.97 0,13.79 -11.18,24.97 -24.97,24.97 -13.79,0 -24.97,-11.18 -24.97,-24.97 0,-13.79 11.18,-24.97 24.97,-24.97z"/>
   </clipPath>
     <clipPath id="id2">
      <path d="M18.58 57.4l45.66 -11.07c3.82,-0.93 5.86,-4.19 5.31,-7.7l-3.89 -24.66c-0.55,-3.51 -4.83,-5.47 -8.65,-4.53l-51.41 12.62c-3.82,0.94 -6.62,4.65 -5.24,7.94l9.64 23.11c1.38,3.3 4.76,5.22 8.59,4.29z"/>
     </clipPath>
      <clipPath id="id3">
       <path d="M66.37 18.48l-64.24 15.77 -1.77 -4.25c-1.38,-3.3 1.42,-7.01 5.24,-7.94l51.41 -12.62c3.82,-0.94 8.1,1.03 8.65,4.53l0.71 4.52z"/>
      </clipPath>
      <clipPath id="id4">
       <path d="M18.58 57.4l45.66 -11.07c3.82,-0.93 5.86,-4.19 5.31,-7.7l-3.89 -24.66c-0.55,-3.51 -4.83,-5.47 -8.65,-4.53l-51.41 12.62c-3.82,0.94 -6.62,4.65 -5.24,7.94l9.64 23.11c1.38,3.3 4.76,5.22 8.59,4.29z"/>
      </clipPath>
  <linearGradient id="id5" gradientUnits="userSpaceOnUse" x1="9.58" y1="13.02" x2="62.27" y2="55.4">
   <stop offset="0" style="stop-opacity:1; stop-color:#FFCC1F"/>
   <stop offset="1" style="stop-opacity:1; stop-color:#F16536"/>
  </linearGradient>
  <linearGradient id="id6" gradientUnits="userSpaceOnUse" x1="3.8" y1="42.74" x2="68.7" y2="24.99">
   <stop offset="0" style="stop-opacity:1; stop-color:#D0E8E7"/>
   <stop offset="1" style="stop-opacity:1; stop-color:#B9D7D7"/>
  </linearGradient>
 </defs>
 <g id="Camada_x0020_1">
  <metadata id="CorelCorpID_0Corel-Layer"/>
  <path class="fil0" d="M38.51 3.05c19.02,0 34.44,15.42 34.44,34.44 0,19.02 -15.42,34.44 -34.44,34.44 -19.02,0 -34.44,-15.42 -34.44,-34.44 0,-19.02 15.42,-34.44 34.44,-34.44z"/>
  <path class="fil1" d="M36.16 0c19.02,0 34.44,15.42 34.44,34.44 0,19.02 -15.42,34.44 -34.44,34.44 -19.02,0 -34.44,-15.42 -34.44,-34.44 0,-19.02 15.42,-34.44 34.44,-34.44z"/>
  <path class="fil2" d="M35.92 0.4c18.67,0 33.81,15.14 33.81,33.81 0,18.67 -15.14,33.81 -33.81,33.81 -18.67,0 -33.81,-15.14 -33.81,-33.81 0,-18.67 15.14,-33.81 33.81,-33.81z"/>
  <g style="clip-path:url(#id0)">
   <g id="_1881618176192">
    <path id="_1" class="fil3" d="M9.9 5.98c-4.43,3.42 -5.57,10.67 -3.92,12.81 1.65,2.14 4.11,-4.24 8.54,-7.66 4.43,-3.42 10.33,-4.81 8.68,-6.95 -1.65,-2.14 -8.86,-1.62 -13.3,1.8z"/>
   </g>
  </g>
  <path class="fil4" d="M35.92 0.4c18.67,0 33.81,15.14 33.81,33.81 0,18.67 -15.14,33.81 -33.81,33.81 -18.67,0 -33.81,-15.14 -33.81,-33.81 0,-18.67 15.14,-33.81 33.81,-33.81z"/>
  <path class="fil5" d="M35.92 6.68c15.2,0 27.53,12.33 27.53,27.53 0,15.2 -12.33,27.53 -27.53,27.53 -15.2,0 -27.53,-12.33 -27.53,-27.53 0,-15.2 12.33,-27.53 27.53,-27.53z"/>
  <path class="fil6" d="M35.92 9.24c13.79,0 24.97,11.18 24.97,24.97 0,13.79 -11.18,24.97 -24.97,24.97 -13.79,0 -24.97,-11.18 -24.97,-24.97 0,-13.79 11.18,-24.97 24.97,-24.97z"/>
  <g style="clip-path:url(#id1)">
   <g id="_1881618175520">
    <path id="_1_0" class="fil7" d="M4.64 -2.24l76.47 0 -12.96 29.57c-25.6,-23.64 -53.94,-11.89 -56.86,19.88l-6.65 -49.45z"/>
   </g>
  </g>
  <path class="fil4" d="M35.92 9.24c13.79,0 24.97,11.18 24.97,24.97 0,13.79 -11.18,24.97 -24.97,24.97 -13.79,0 -24.97,-11.18 -24.97,-24.97 0,-13.79 11.18,-24.97 24.97,-24.97z"/>
  <g id="_1881618174176">
   <path class="fil7" d="M20.8 58.99l45.66 -11.07c3.82,-0.93 5.86,-4.19 5.31,-7.7l-3.89 -24.66c-0.55,-3.51 -4.83,-5.47 -8.65,-4.53l-51.41 12.62c-3.82,0.94 -6.62,4.65 -5.24,7.94l9.64 23.11c1.38,3.3 4.76,5.22 8.59,4.29z"/>
   <g>
    <path class="fil8" d="M18.58 57.4l45.66 -11.07c3.82,-0.93 5.86,-4.19 5.31,-7.7l-3.89 -24.66c-0.55,-3.51 -4.83,-5.47 -8.65,-4.53l-51.41 12.62c-3.82,0.94 -6.62,4.65 -5.24,7.94l9.64 23.11c1.38,3.3 4.76,5.22 8.59,4.29z"/>
    <g style="clip-path:url(#id2)">
     <g>
      <rect class="fil9" transform="matrix(1.13948 -0.27977 0.493521 0.971084 30.6453 32.9726)" width="28.55" height="2.07" rx="0.23" ry="0.23"/>
      <polygon class="fil10" points="-16.95,16.36 0.98,10.27 24.68,56.27 6.76,62.37 "/>
      <polygon class="fil10" points="31.31,11.27 38.66,7.77 62.29,53.79 54.95,57.29 "/>
      <polygon class="fil10" points="50.15,-6.27 57.5,-9.77 81.13,36.25 73.79,39.75 "/>
      <polygon class="fil11" points="-23.4,22.71 76.95,-1.93 81.81,15.83 -18.54,40.47 "/>
      <polygon class="fil12" points="-17.15,20.03 83.2,-4.6 88.06,13.16 -12.29,37.8 "/>
     </g>
     <g style="clip-path:url(#id3)">
      <g>
       <polygon id="_1_1" class="fil13" points="-17.94,15.87 0.03,9.94 22.27,50.59 4.3,56.51 "/>
       <polygon class="fil13" points="46.62,-10.98 64.59,-16.9 86.83,23.75 68.86,29.67 "/>
       <polygon class="fil13" points="23.07,-2.94 30.46,-6.26 52.63,34.4 45.23,37.72 "/>
      </g>
     </g>
     <g style="clip-path:url(#id4)">
      <polygon class="fil4" points="-17.15,20.03 83.2,-4.6 88.06,13.16 -12.29,37.8 "/>
      <rect class="fil14" transform="matrix(1.13948 -0.27977 0.493521 0.971084 31.6322 36.58)" width="28.55" height="2.07" rx="0.23" ry="0.23"/>
      <rect class="fil14" transform="matrix(0.494361 -0.121377 0.612952 0.941761 32.5974 40.1928)" width="28.55" height="2.07" rx="0.23" ry="0.23"/>
      <rect class="fil14" transform="matrix(0.494361 -0.121377 0.612952 0.941761 50.8113 35.7208)" width="28.55" height="2.07" rx="0.23" ry="0.23"/>
     </g>
    </g>
    <path class="fil4" d="M18.58 57.4l45.66 -11.07c3.82,-0.93 5.86,-4.19 5.31,-7.7l-3.89 -24.66c-0.55,-3.51 -4.83,-5.47 -8.65,-4.53l-51.41 12.62c-3.82,0.94 -6.62,4.65 -5.24,7.94l9.64 23.11c1.38,3.3 4.76,5.22 8.59,4.29z"/>
    <rect class="fil15" transform="matrix(1.17853 -0.289358 0.37619 1.00697 7.53615 37.8003)" width="17.5" height="17.5" rx="5.07" ry="5.07"/>
    <g>
     <ellipse class="fil16" transform="matrix(1.33347 0.0136468 -0.0496039 1.20657 17.5157 45.8213)" rx="3.2" ry="1.46"/>
     <ellipse class="fil16" transform="matrix(-1.02371 0.797679 0.855926 0.905383 25.229 43.2557)" rx="3.2" ry="1.46"/>
     <ellipse class="fil17" transform="matrix(-0.451773 0.352022 0.377728 0.399553 24.7922 43.7244)" rx="3.2" ry="1.46"/>
     <ellipse class="fil17" transform="matrix(0.588471 0.00602247 -0.0218906 0.532472 18.2659 45.8952)" rx="3.2" ry="1.46"/>
    </g>
   </g>
  </g>
 </g>
</svg>
