<?xml version="1.0" encoding="UTF-8"?>
<!DOCTYPE svg PUBLIC "-//W3C//DTD SVG 1.1//EN" "http://www.w3.org/Graphics/SVG/1.1/DTD/svg11.dtd">
<!-- Creator: CorelDRAW -->
<svg xmlns="http://www.w3.org/2000/svg" xml:space="preserve" width="30.3184mm" height="30.6184mm" version="1.1" style="shape-rendering:geometricPrecision; text-rendering:geometricPrecision; image-rendering:optimizeQuality; fill-rule:evenodd; clip-rule:evenodd"
viewBox="0 0 69.64 70.33"
 xmlns:xlink="http://www.w3.org/1999/xlink"
 xmlns:xodm="http://www.corel.com/coreldraw/odm/2003">
 <defs>
  <style type="text/css">
   <![CDATA[
    .fil4 {fill:none}
    .fil6 {fill:#583C2F}
    .fil3 {fill:white;fill-opacity:0.188235}
    .fil0 {fill:#110C09;fill-opacity:0.400000}
    .fil5 {fill:#F69913;fill-opacity:0.450980}
    .fil7 {fill:#110C09;fill-opacity:0.549020}
    .fil1 {fill:#E94D1E;fill-opacity:0.600000}
    .fil2 {fill:url(#id2)}
   ]]>
  </style>
   <clipPath id="id0">
    <path d="M33.44 0.39c18.26,0 33.05,14.8 33.05,33.05 0,18.26 -14.8,33.05 -33.05,33.05 -18.26,0 -33.05,-14.8 -33.05,-33.05 0,-18.26 14.8,-33.05 33.05,-33.05z"/>
   </clipPath>
   <clipPath id="id1">
    <path d="M33.44 9.04c13.48,0 24.41,10.93 24.41,24.41 0,13.48 -10.93,24.41 -24.41,24.41 -13.48,0 -24.41,-10.93 -24.41,-24.41 0,-13.48 10.93,-24.41 24.41,-24.41z"/>
   </clipPath>
  <linearGradient id="id2" gradientUnits="userSpaceOnUse" x1="7.69" y1="12.72" x2="59.2" y2="54.16">
   <stop offset="0" style="stop-opacity:1; stop-color:#FFCC1F"/>
   <stop offset="1" style="stop-opacity:1; stop-color:#F16536"/>
  </linearGradient>
 </defs>
 <g id="Camada_x0020_1">
  <metadata id="CorelCorpID_0Corel-Layer"/>
  <path class="fil0" d="M35.97 2.99c18.6,0 33.67,15.08 33.67,33.67 0,18.6 -15.08,33.67 -33.67,33.67 -18.6,0 -33.67,-15.08 -33.67,-33.67 0,-18.6 15.08,-33.67 33.67,-33.67z"/>
  <path class="fil1" d="M33.67 0c18.6,0 33.67,15.08 33.67,33.67 0,18.6 -15.08,33.67 -33.67,33.67 -18.6,0 -33.67,-15.08 -33.67,-33.67 0,-18.6 15.08,-33.67 33.67,-33.67z"/>
  <path class="fil2" d="M33.44 0.39c18.26,0 33.05,14.8 33.05,33.05 0,18.26 -14.8,33.05 -33.05,33.05 -18.26,0 -33.05,-14.8 -33.05,-33.05 0,-18.26 14.8,-33.05 33.05,-33.05z"/>
  <g style="clip-path:url(#id0)">
   <g id="_1880291773024">
    <path id="_1" class="fil3" d="M8 5.84c-4.33,3.35 -5.45,10.43 -3.83,12.52 1.62,2.09 4.01,-4.14 8.35,-7.49 4.33,-3.35 10.1,-4.7 8.49,-6.79 -1.62,-2.09 -8.67,-1.58 -13,1.76z"/>
   </g>
  </g>
  <path class="fil4" d="M33.44 0.39c18.26,0 33.05,14.8 33.05,33.05 0,18.26 -14.8,33.05 -33.05,33.05 -18.26,0 -33.05,-14.8 -33.05,-33.05 0,-18.26 14.8,-33.05 33.05,-33.05z"/>
  <path class="fil5" d="M33.44 6.53c14.86,0 26.91,12.05 26.91,26.91 0,14.86 -12.05,26.91 -26.91,26.91 -14.86,0 -26.91,-12.05 -26.91,-26.91 0,-14.86 12.05,-26.91 26.91,-26.91z"/>
  <path class="fil6" d="M33.44 9.04c13.48,0 24.41,10.93 24.41,24.41 0,13.48 -10.93,24.41 -24.41,24.41 -13.48,0 -24.41,-10.93 -24.41,-24.41 0,-13.48 10.93,-24.41 24.41,-24.41z"/>
  <g style="clip-path:url(#id1)">
   <g id="_1880291707120">
    <path id="_1_0" class="fil7" d="M2.86 -2.19l74.75 0 -12.66 28.9c-25.02,-23.11 -52.73,-11.62 -55.59,19.44l-6.5 -48.34z"/>
   </g>
  </g>
  <path class="fil4" d="M33.44 9.04c13.48,0 24.41,10.93 24.41,24.41 0,13.48 -10.93,24.41 -24.41,24.41 -13.48,0 -24.41,-10.93 -24.41,-24.41 0,-13.48 10.93,-24.41 24.41,-24.41z"/>
 </g>
</svg>
