<?xml version="1.0" encoding="UTF-8"?>
<!DOCTYPE svg PUBLIC "-//W3C//DTD SVG 1.1//EN" "http://www.w3.org/Graphics/SVG/1.1/DTD/svg11.dtd">
<!-- Creator: CorelDRAW -->
<svg xmlns="http://www.w3.org/2000/svg" xml:space="preserve" width="30.7873mm" height="30.6184mm" version="1.1" style="shape-rendering:geometricPrecision; text-rendering:geometricPrecision; image-rendering:optimizeQuality; fill-rule:evenodd; clip-rule:evenodd"
viewBox="0 0 83.73 83.27"
 xmlns:xlink="http://www.w3.org/1999/xlink"
 xmlns:xodm="http://www.corel.com/coreldraw/odm/2003">
 <defs>
  <style type="text/css">
   <![CDATA[
    .fil4 {fill:none}
    .fil6 {fill:#583C2F}
    .fil9 {fill:#EFEFEF}
    .fil3 {fill:white;fill-opacity:0.188235}
    .fil10 {fill:#969696;fill-opacity:0.321569}
    .fil0 {fill:#110C09;fill-opacity:0.400000}
    .fil8 {fill:#110C09;fill-opacity:0.431373}
    .fil5 {fill:#F69913;fill-opacity:0.450980}
    .fil7 {fill:#110C09;fill-opacity:0.549020}
    .fil1 {fill:#E94D1E;fill-opacity:0.600000}
    .fil2 {fill:url(#id4)}
   ]]>
  </style>
    <clipPath id="id0">
     <path d="M40.87 0.46c21.61,0 39.14,17.52 39.14,39.14 0,21.61 -17.52,39.14 -39.14,39.14 -21.61,0 -39.14,-17.52 -39.14,-39.14 0,-21.61 17.52,-39.14 39.14,-39.14z"/>
    </clipPath>
    <clipPath id="id1">
     <path d="M40.87 10.7c15.96,0 28.9,12.94 28.9,28.9 0,15.96 -12.94,28.9 -28.9,28.9 -15.96,0 -28.9,-12.94 -28.9,-28.9 0,-15.96 12.94,-28.9 28.9,-28.9z"/>
    </clipPath>
   <clipPath id="id2">
    <path d="M81.75 41.18c0,2.72 -0.17,4.19 -1.19,6.68 -0.62,1.53 -1.13,2.32 -2.1,3.57l-1.13 1.3c-0.45,0.45 -1.19,1.25 -1.64,1.64 -0.96,0.79 -2.15,1.76 -3.29,2.38l-1.08 0.62c-0.45,0.28 -0.45,0.11 -0.45,0.62 0,1.93 0.62,3.85 1.42,5.1 0.62,1.02 0.91,1.19 1.59,2.04 0.23,0.23 0.57,0.51 0.57,0.96 0,0.68 -1.19,0.57 -1.7,0.57 -2.89,0 -7.25,-2.1 -9.63,-3.91 -0.23,-0.17 -0.4,-0.28 -0.62,-0.45l-1.08 -1.02c-0.79,-0.79 -0.79,-0.17 -3.57,-0.17l-2.04 0.06c-0.62,-0.11 -1.42,-0.06 -2.1,-0.06l-1.93 -0.17c-0.68,-0.11 -1.19,-0.17 -1.81,-0.28 -1.19,-0.23 -2.32,-0.51 -3.4,-0.79 -0.79,-0.23 -2.32,-0.74 -3.12,-1.08 -0.96,-0.45 -1.93,-0.85 -2.83,-1.36 -0.74,-0.4 -3,-1.87 -3.74,-2.55l-1.08 -1.02c-0.51,-0.45 -0.51,-0.51 -1.08,-1.08l-0.96 -1.13c-1.98,-2.49 -3.51,-5.89 -3.51,-9.12l0 -1.36c0,-3.91 1.98,-7.31 4.08,-9.86l0.68 -0.74c0.79,-0.79 1.36,-1.3 2.21,-1.98 1.47,-1.19 2.55,-1.87 4.25,-2.72 1.13,-0.57 1.64,-0.79 2.89,-1.3 2.66,-1.02 5.72,-1.76 8.61,-1.93 0.28,0 0.34,-0.06 0.68,-0.06 1.47,0 2.38,-0.06 3.17,-0.06l1.02 0c1.02,0 2.15,0.17 4.48,0.51 1.59,0.28 4.59,1.13 6.17,1.81l1.87 0.85c0.23,0.11 0.23,0.11 0.45,0.23l1.3 0.74c0.28,0.17 0.57,0.34 0.79,0.51 0.74,0.51 2.04,1.42 2.66,1.98 0.57,0.51 1.19,1.08 1.7,1.64l0.62 0.74c2.15,2.49 3.85,6.29 3.85,9.57l0 0.06z"/>
   </clipPath>
   <clipPath id="id3">
    <path d="M81.75 41.18c0,2.72 -0.17,4.19 -1.19,6.68 -0.62,1.53 -1.13,2.32 -2.1,3.57l-1.13 1.3c-0.45,0.45 -1.19,1.25 -1.64,1.64 -0.96,0.79 -2.15,1.76 -3.29,2.38l-1.08 0.62c-0.45,0.28 -0.45,0.11 -0.45,0.62 0,1.93 0.62,3.85 1.42,5.1 0.62,1.02 0.91,1.19 1.59,2.04 0.23,0.23 0.57,0.51 0.57,0.96 0,0.68 -1.19,0.57 -1.7,0.57 -2.89,0 -7.25,-2.1 -9.63,-3.91 -0.23,-0.17 -0.4,-0.28 -0.62,-0.45l-1.08 -1.02c-0.79,-0.79 -0.79,-0.17 -3.57,-0.17l-2.04 0.06c-0.62,-0.11 -1.42,-0.06 -2.1,-0.06l-1.93 -0.17c-0.68,-0.11 -1.19,-0.17 -1.81,-0.28 -1.19,-0.23 -2.32,-0.51 -3.4,-0.79 -0.79,-0.23 -2.32,-0.74 -3.12,-1.08 -0.96,-0.45 -1.93,-0.85 -2.83,-1.36 -0.74,-0.4 -3,-1.87 -3.74,-2.55l-1.08 -1.02c-0.51,-0.45 -0.51,-0.51 -1.08,-1.08l-0.96 -1.13c-1.98,-2.49 -3.51,-5.89 -3.51,-9.12l0 -1.36c0,-3.91 1.98,-7.31 4.08,-9.86l0.68 -0.74c0.79,-0.79 1.36,-1.3 2.21,-1.98 1.47,-1.19 2.55,-1.87 4.25,-2.72 1.13,-0.57 1.64,-0.79 2.89,-1.3 2.66,-1.02 5.72,-1.76 8.61,-1.93 0.28,0 0.34,-0.06 0.68,-0.06 1.47,0 2.38,-0.06 3.17,-0.06l1.02 0c1.02,0 2.15,0.17 4.48,0.51 1.59,0.28 4.59,1.13 6.17,1.81l1.87 0.85c0.23,0.11 0.23,0.11 0.45,0.23l1.3 0.74c0.28,0.17 0.57,0.34 0.79,0.51 0.74,0.51 2.04,1.42 2.66,1.98 0.57,0.51 1.19,1.08 1.7,1.64l0.62 0.74c2.15,2.49 3.85,6.29 3.85,9.57l0 0.06z"/>
   </clipPath>
  <linearGradient id="id4" gradientUnits="userSpaceOnUse" x1="10.38" y1="15.07" x2="71.37" y2="64.13">
   <stop offset="0" style="stop-opacity:1; stop-color:#FFCC1F"/>
   <stop offset="1" style="stop-opacity:1; stop-color:#F16536"/>
  </linearGradient>
 </defs>
 <g id="Camada_x0020_1">
  <metadata id="CorelCorpID_0Corel-Layer"/>
  <g id="_1880818299984">
   <path class="fil0" d="M43.86 3.54c22.02,0 39.87,17.85 39.87,39.87 0,22.02 -17.85,39.87 -39.87,39.87 -22.02,0 -39.87,-17.85 -39.87,-39.87 0,-22.02 17.85,-39.87 39.87,-39.87z"/>
   <path class="fil1" d="M41.14 0c22.02,0 39.87,17.85 39.87,39.87 0,22.02 -17.85,39.87 -39.87,39.87 -22.02,0 -39.87,-17.85 -39.87,-39.87 0,-22.02 17.85,-39.87 39.87,-39.87z"/>
   <path class="fil2" d="M40.87 0.46c21.61,0 39.14,17.52 39.14,39.14 0,21.61 -17.52,39.14 -39.14,39.14 -21.61,0 -39.14,-17.52 -39.14,-39.14 0,-21.61 17.52,-39.14 39.14,-39.14z"/>
   <g style="clip-path:url(#id0)">
    <g>
     <path id="_1" class="fil3" d="M10.75 6.92c-5.13,3.96 -6.45,12.35 -4.54,14.83 1.91,2.48 4.75,-4.91 9.88,-8.87 5.13,-3.96 11.96,-5.57 10.05,-8.04 -1.91,-2.48 -10.26,-1.88 -15.39,2.09z"/>
    </g>
   </g>
   <path class="fil4" d="M40.87 0.46c21.61,0 39.14,17.52 39.14,39.14 0,21.61 -17.52,39.14 -39.14,39.14 -21.61,0 -39.14,-17.52 -39.14,-39.14 0,-21.61 17.52,-39.14 39.14,-39.14z"/>
   <path class="fil5" d="M40.87 7.73c17.6,0 31.87,14.27 31.87,31.87 0,17.6 -14.27,31.87 -31.87,31.87 -17.6,0 -31.87,-14.27 -31.87,-31.87 0,-17.6 14.27,-31.87 31.87,-31.87z"/>
   <path class="fil6" d="M40.87 10.7c15.96,0 28.9,12.94 28.9,28.9 0,15.96 -12.94,28.9 -28.9,28.9 -15.96,0 -28.9,-12.94 -28.9,-28.9 0,-15.96 12.94,-28.9 28.9,-28.9z"/>
   <g style="clip-path:url(#id1)">
    <g>
     <path id="_1_0" class="fil7" d="M4.66 -2.6l88.51 0 -15 34.22c-29.63,-27.36 -62.44,-13.76 -65.82,23.01l-7.7 -57.24z"/>
    </g>
   </g>
   <path class="fil4" d="M40.87 10.7c15.96,0 28.9,12.94 28.9,28.9 0,15.96 -12.94,28.9 -28.9,28.9 -15.96,0 -28.9,-12.94 -28.9,-28.9 0,-15.96 12.94,-28.9 28.9,-28.9z"/>
  </g>
  <path class="fil8" d="M1.63 32.24c0,2.72 0.17,4.19 1.19,6.68 0.62,1.53 1.13,2.32 2.1,3.57l1.13 1.3c0.45,0.45 1.19,1.25 1.64,1.64 0.96,0.79 2.15,1.76 3.29,2.38l1.08 0.62c0.45,0.28 0.45,0.11 0.45,0.62 0,1.93 -0.62,3.85 -1.42,5.1 -0.62,1.02 -0.91,1.19 -1.59,2.04 -0.23,0.23 -0.57,0.51 -0.57,0.96 0,0.68 1.19,0.57 1.7,0.57 2.89,0 7.25,-2.1 9.63,-3.91 0.23,-0.17 0.4,-0.28 0.62,-0.45l1.08 -1.02c0.79,-0.79 0.79,-0.17 3.57,-0.17l2.04 0.06c0.62,-0.11 1.42,-0.06 2.1,-0.06l1.93 -0.17c0.68,-0.11 1.19,-0.17 1.81,-0.28 1.19,-0.23 2.32,-0.51 3.4,-0.79 0.79,-0.23 2.32,-0.74 3.12,-1.08 0.96,-0.45 1.93,-0.85 2.83,-1.36 0.74,-0.4 3,-1.87 3.74,-2.55l1.08 -1.02c0.51,-0.45 0.51,-0.51 1.08,-1.08l0.96 -1.13c1.98,-2.49 3.51,-5.89 3.51,-9.12l0 -1.36c0,-3.91 -1.98,-7.31 -4.08,-9.86l-0.68 -0.74c-0.79,-0.79 -1.36,-1.3 -2.21,-1.98 -1.47,-1.19 -2.55,-1.87 -4.25,-2.72 -1.13,-0.57 -1.64,-0.79 -2.89,-1.3 -2.66,-1.02 -5.72,-1.76 -8.61,-1.93 -0.28,0 -0.34,-0.06 -0.68,-0.06 -1.47,0 -2.38,-0.06 -3.17,-0.06l-1.02 0c-1.02,0 -2.15,0.17 -4.48,0.51 -1.59,0.28 -4.59,1.13 -6.17,1.81l-1.87 0.85c-0.23,0.11 -0.23,0.11 -0.45,0.23l-1.3 0.74c-0.28,0.17 -0.57,0.34 -0.79,0.51 -0.74,0.51 -2.04,1.42 -2.66,1.98 -0.57,0.51 -1.19,1.08 -1.7,1.64l-0.62 0.74c-2.15,2.49 -3.85,6.29 -3.85,9.57l0 0.06z"/>
  <path class="fil8" d="M82.83 43.9c0,2.72 -0.17,4.19 -1.19,6.68 -0.62,1.53 -1.13,2.32 -2.1,3.57l-1.13 1.3c-0.45,0.45 -1.19,1.25 -1.64,1.64 -0.96,0.79 -2.15,1.76 -3.29,2.38l-1.08 0.62c-0.45,0.28 -0.45,0.11 -0.45,0.62 0,1.93 0.62,3.85 1.42,5.1 0.62,1.02 0.91,1.19 1.59,2.04 0.23,0.23 0.57,0.51 0.57,0.96 0,0.68 -1.19,0.57 -1.7,0.57 -2.89,0 -7.25,-2.1 -9.63,-3.91 -0.23,-0.17 -0.4,-0.28 -0.62,-0.45l-1.08 -1.02c-0.79,-0.79 -0.79,-0.17 -3.57,-0.17l-2.04 0.06c-0.62,-0.11 -1.42,-0.06 -2.1,-0.06l-1.93 -0.17c-0.68,-0.11 -1.19,-0.17 -1.81,-0.28 -1.19,-0.23 -2.32,-0.51 -3.4,-0.79 -0.79,-0.23 -2.32,-0.74 -3.12,-1.08 -0.96,-0.45 -1.93,-0.85 -2.83,-1.36 -0.74,-0.4 -3,-1.87 -3.74,-2.55l-1.08 -1.02c-0.51,-0.45 -0.51,-0.51 -1.08,-1.08l-0.96 -1.13c-1.98,-2.49 -3.51,-5.89 -3.51,-9.12l0 -1.36c0,-3.91 1.98,-7.31 4.08,-9.86l0.68 -0.74c0.79,-0.79 1.36,-1.3 2.21,-1.98 1.47,-1.19 2.55,-1.87 4.25,-2.72 1.13,-0.57 1.64,-0.79 2.89,-1.3 2.66,-1.02 5.72,-1.76 8.61,-1.93 0.28,0 0.34,-0.06 0.68,-0.06 1.47,0 2.38,-0.06 3.17,-0.06l1.02 0c1.02,0 2.15,0.17 4.48,0.51 1.59,0.28 4.59,1.13 6.17,1.81l1.87 0.85c0.23,0.11 0.23,0.11 0.45,0.23l1.3 0.74c0.28,0.17 0.57,0.34 0.79,0.51 0.74,0.51 2.04,1.42 2.66,1.98 0.57,0.51 1.19,1.08 1.7,1.64l0.62 0.74c2.15,2.49 3.85,6.29 3.85,9.57l0 0.06z"/>
  <g>
  </g>
  <g style="clip-path:url(#id2)">
   <g id="_1880818304064">
    <polygon class="fil9" points="30.25,22.48 81.75,22.48 81.75,66.67 30.25,66.67 "/>
   </g>
  </g>
  <path class="fil4" d="M81.75 41.18c0,2.72 -0.17,4.19 -1.19,6.68 -0.62,1.53 -1.13,2.32 -2.1,3.57l-1.13 1.3c-0.45,0.45 -1.19,1.25 -1.64,1.64 -0.96,0.79 -2.15,1.76 -3.29,2.38l-1.08 0.62c-0.45,0.28 -0.45,0.11 -0.45,0.62 0,1.93 0.62,3.85 1.42,5.1 0.62,1.02 0.91,1.19 1.59,2.04 0.23,0.23 0.57,0.51 0.57,0.96 0,0.68 -1.19,0.57 -1.7,0.57 -2.89,0 -7.25,-2.1 -9.63,-3.91 -0.23,-0.17 -0.4,-0.28 -0.62,-0.45l-1.08 -1.02c-0.79,-0.79 -0.79,-0.17 -3.57,-0.17l-2.04 0.06c-0.62,-0.11 -1.42,-0.06 -2.1,-0.06l-1.93 -0.17c-0.68,-0.11 -1.19,-0.17 -1.81,-0.28 -1.19,-0.23 -2.32,-0.51 -3.4,-0.79 -0.79,-0.23 -2.32,-0.74 -3.12,-1.08 -0.96,-0.45 -1.93,-0.85 -2.83,-1.36 -0.74,-0.4 -3,-1.87 -3.74,-2.55l-1.08 -1.02c-0.51,-0.45 -0.51,-0.51 -1.08,-1.08l-0.96 -1.13c-1.98,-2.49 -3.51,-5.89 -3.51,-9.12l0 -1.36c0,-3.91 1.98,-7.31 4.08,-9.86l0.68 -0.74c0.79,-0.79 1.36,-1.3 2.21,-1.98 1.47,-1.19 2.55,-1.87 4.25,-2.72 1.13,-0.57 1.64,-0.79 2.89,-1.3 2.66,-1.02 5.72,-1.76 8.61,-1.93 0.28,0 0.34,-0.06 0.68,-0.06 1.47,0 2.38,-0.06 3.17,-0.06l1.02 0c1.02,0 2.15,0.17 4.48,0.51 1.59,0.28 4.59,1.13 6.17,1.81l1.87 0.85c0.23,0.11 0.23,0.11 0.45,0.23l1.3 0.74c0.28,0.17 0.57,0.34 0.79,0.51 0.74,0.51 2.04,1.42 2.66,1.98 0.57,0.51 1.19,1.08 1.7,1.64l0.62 0.74c2.15,2.49 3.85,6.29 3.85,9.57l0 0.06z"/>
  <g>
  </g>
  <g style="clip-path:url(#id3)">
   <g id="_1880818303008">
    <path id="_1_1" class="fil10" d="M38.69 18.29c8.21,0 14.9,8.89 14.9,19.88 0,10.99 -6.68,19.88 -14.9,19.88 -8.21,0 -14.9,-8.89 -14.9,-19.88 0,-10.99 6.68,-19.88 14.9,-19.88z"/>
   </g>
  </g>
  <path class="fil4" d="M81.75 41.18c0,2.72 -0.17,4.19 -1.19,6.68 -0.62,1.53 -1.13,2.32 -2.1,3.57l-1.13 1.3c-0.45,0.45 -1.19,1.25 -1.64,1.64 -0.96,0.79 -2.15,1.76 -3.29,2.38l-1.08 0.62c-0.45,0.28 -0.45,0.11 -0.45,0.62 0,1.93 0.62,3.85 1.42,5.1 0.62,1.02 0.91,1.19 1.59,2.04 0.23,0.23 0.57,0.51 0.57,0.96 0,0.68 -1.19,0.57 -1.7,0.57 -2.89,0 -7.25,-2.1 -9.63,-3.91 -0.23,-0.17 -0.4,-0.28 -0.62,-0.45l-1.08 -1.02c-0.79,-0.79 -0.79,-0.17 -3.57,-0.17l-2.04 0.06c-0.62,-0.11 -1.42,-0.06 -2.1,-0.06l-1.93 -0.17c-0.68,-0.11 -1.19,-0.17 -1.81,-0.28 -1.19,-0.23 -2.32,-0.51 -3.4,-0.79 -0.79,-0.23 -2.32,-0.74 -3.12,-1.08 -0.96,-0.45 -1.93,-0.85 -2.83,-1.36 -0.74,-0.4 -3,-1.87 -3.74,-2.55l-1.08 -1.02c-0.51,-0.45 -0.51,-0.51 -1.08,-1.08l-0.96 -1.13c-1.98,-2.49 -3.51,-5.89 -3.51,-9.12l0 -1.36c0,-3.91 1.98,-7.31 4.08,-9.86l0.68 -0.74c0.79,-0.79 1.36,-1.3 2.21,-1.98 1.47,-1.19 2.55,-1.87 4.25,-2.72 1.13,-0.57 1.64,-0.79 2.89,-1.3 2.66,-1.02 5.72,-1.76 8.61,-1.93 0.28,0 0.34,-0.06 0.68,-0.06 1.47,0 2.38,-0.06 3.17,-0.06l1.02 0c1.02,0 2.15,0.17 4.48,0.51 1.59,0.28 4.59,1.13 6.17,1.81l1.87 0.85c0.23,0.11 0.23,0.11 0.45,0.23l1.3 0.74c0.28,0.17 0.57,0.34 0.79,0.51 0.74,0.51 2.04,1.42 2.66,1.98 0.57,0.51 1.19,1.08 1.7,1.64l0.62 0.74c2.15,2.49 3.85,6.29 3.85,9.57l0 0.06z"/>
  <path class="fil4" d="M81.75 41.18c0,2.72 -0.17,4.19 -1.19,6.68 -0.62,1.53 -1.13,2.32 -2.1,3.57l-1.13 1.3c-0.45,0.45 -1.19,1.25 -1.64,1.64 -0.96,0.79 -2.15,1.76 -3.29,2.38l-1.08 0.62c-0.45,0.28 -0.45,0.11 -0.45,0.62 0,1.93 0.62,3.85 1.42,5.1 0.62,1.02 0.91,1.19 1.59,2.04 0.23,0.23 0.57,0.51 0.57,0.96 0,0.68 -1.19,0.57 -1.7,0.57 -2.89,0 -7.25,-2.1 -9.63,-3.91 -0.23,-0.17 -0.4,-0.28 -0.62,-0.45l-1.08 -1.02c-0.79,-0.79 -0.79,-0.17 -3.57,-0.17l-2.04 0.06c-0.62,-0.11 -1.42,-0.06 -2.1,-0.06l-1.93 -0.17c-0.68,-0.11 -1.19,-0.17 -1.81,-0.28 -1.19,-0.23 -2.32,-0.51 -3.4,-0.79 -0.79,-0.23 -2.32,-0.74 -3.12,-1.08 -0.96,-0.45 -1.93,-0.85 -2.83,-1.36 -0.74,-0.4 -3,-1.87 -3.74,-2.55l-1.08 -1.02c-0.51,-0.45 -0.51,-0.51 -1.08,-1.08l-0.96 -1.13c-1.98,-2.49 -3.51,-5.89 -3.51,-9.12l0 -1.36c0,-3.91 1.98,-7.31 4.08,-9.86l0.68 -0.74c0.79,-0.79 1.36,-1.3 2.21,-1.98 1.47,-1.19 2.55,-1.87 4.25,-2.72 1.13,-0.57 1.64,-0.79 2.89,-1.3 2.66,-1.02 5.72,-1.76 8.61,-1.93 0.28,0 0.34,-0.06 0.68,-0.06 1.47,0 2.38,-0.06 3.17,-0.06l1.02 0c1.02,0 2.15,0.17 4.48,0.51 1.59,0.28 4.59,1.13 6.17,1.81l1.87 0.85c0.23,0.11 0.23,0.11 0.45,0.23l1.3 0.74c0.28,0.17 0.57,0.34 0.79,0.51 0.74,0.51 2.04,1.42 2.66,1.98 0.57,0.51 1.19,1.08 1.7,1.64l0.62 0.74c2.15,2.49 3.85,6.29 3.85,9.57l0 0.06z"/>
  <path class="fil9" d="M-0 29.79c0,2.72 0.17,4.19 1.19,6.68 0.62,1.53 1.13,2.32 2.1,3.57l1.13 1.3c0.45,0.45 1.19,1.25 1.64,1.64 0.96,0.79 2.15,1.76 3.29,2.38l1.08 0.62c0.45,0.28 0.45,0.11 0.45,0.62 0,1.93 -0.62,3.85 -1.42,5.1 -0.62,1.02 -0.91,1.19 -1.59,2.04 -0.23,0.23 -0.57,0.51 -0.57,0.96 0,0.68 1.19,0.57 1.7,0.57 2.89,0 7.25,-2.1 9.63,-3.91 0.23,-0.17 0.4,-0.28 0.62,-0.45l1.08 -1.02c0.79,-0.79 0.79,-0.17 3.57,-0.17l2.04 0.06c0.62,-0.11 1.42,-0.06 2.1,-0.06l1.93 -0.17c0.68,-0.11 1.19,-0.17 1.81,-0.28 1.19,-0.23 2.32,-0.51 3.4,-0.79 0.79,-0.23 2.32,-0.74 3.12,-1.08 0.96,-0.45 1.93,-0.85 2.83,-1.36 0.74,-0.4 3,-1.87 3.74,-2.55l1.08 -1.02c0.51,-0.45 0.51,-0.51 1.08,-1.08l0.96 -1.13c1.98,-2.49 3.51,-5.89 3.51,-9.12l0 -1.36c0,-3.91 -1.98,-7.31 -4.08,-9.86l-0.68 -0.74c-0.79,-0.79 -1.36,-1.3 -2.21,-1.98 -1.47,-1.19 -2.55,-1.87 -4.25,-2.72 -1.13,-0.57 -1.64,-0.79 -2.89,-1.3 -2.66,-1.02 -5.72,-1.76 -8.61,-1.93 -0.28,0 -0.34,-0.06 -0.68,-0.06 -1.47,0 -2.38,-0.06 -3.17,-0.06l-1.02 0c-1.02,0 -2.15,0.17 -4.48,0.51 -1.59,0.28 -4.59,1.13 -6.17,1.81l-1.87 0.85c-0.23,0.11 -0.23,0.11 -0.45,0.23l-1.3 0.74c-0.28,0.17 -0.57,0.34 -0.79,0.51 -0.74,0.51 -2.04,1.42 -2.66,1.98 -0.57,0.51 -1.19,1.08 -1.7,1.64l-0.62 0.74c-2.15,2.49 -3.85,6.29 -3.85,9.57l0 0.06z"/>
 </g>
</svg>
