<?xml version="1.0" encoding="UTF-8"?>
<!DOCTYPE svg PUBLIC "-//W3C//DTD SVG 1.1//EN" "http://www.w3.org/Graphics/SVG/1.1/DTD/svg11.dtd">
<!-- Creator: CorelDRAW 2020 (64 Bit) -->
<svg xmlns="http://www.w3.org/2000/svg" xml:space="preserve" width="32.8133mm" height="29.203mm" version="1.1" style="shape-rendering:geometricPrecision; text-rendering:geometricPrecision; image-rendering:optimizeQuality; fill-rule:evenodd; clip-rule:evenodd"
viewBox="0 0 116.45 103.64"
 xmlns:xlink="http://www.w3.org/1999/xlink"
 xmlns:xodm="http://www.corel.com/coreldraw/odm/2003">
 <defs>
  <style type="text/css">
   <![CDATA[
    .fil0 {fill:#00D4FF}
    .fil1 {fill:#00D7FF}
   ]]>
  </style>
 </defs>
 <g id="Camada_x0020_1">
  <metadata id="CorelCorpID_0Corel-Layer"/>
  <g id="_1382920413888">
   <path class="fil0" d="M27.51 86.09c0,-1.42 0.04,-2.63 0.18,-3.98 0.13,-1.19 0.19,-2.04 0.39,-3.26 0.26,-1.61 0.52,-3.04 0.88,-4.59 0.12,-0.52 0.23,-1 0.35,-1.5 0.68,0.16 1.36,0.29 2.06,0.43 1.76,0.35 3.57,0.65 5.37,0.92 1.33,0.2 3.16,0.45 4.48,0.56l3.46 0.33c0.38,0.02 0.29,-0.01 0.69,0.56 0.09,0.13 0.17,0.24 0.27,0.37l2.97 3.95c0.1,0.13 0.18,0.23 0.28,0.36l2.97 3.62c0.06,0.07 0.08,0.11 0.15,0.18 0.07,0.07 0.08,0.1 0.14,0.17l2.53 2.84c0.13,0.13 0.19,0.18 0.3,0.34l-1.25 1.18c-0.09,0.09 -0.16,0.13 -0.26,0.23l-1.43 1.24c-0.39,0.36 -1.05,0.86 -1.49,1.22l-1.37 1.06c-3.28,2.41 -6.97,4.64 -10.94,5.73 -2.07,0.57 -5.17,0.98 -7.05,-0.44 -0.32,-0.24 -0.37,-0.29 -0.65,-0.57 -0.63,-0.62 -1.05,-1.43 -1.43,-2.21 -1.13,-2.27 -1.58,-6.03 -1.58,-8.74zm54.77 12.51c-1.13,0 -1.34,0.01 -2.51,-0.2 -0.54,-0.1 -1.04,-0.23 -1.54,-0.37 -1,-0.29 -1.93,-0.64 -2.81,-1.04l-0.98 -0.45c-0.85,-0.41 -2.01,-1.07 -2.8,-1.54 -0.22,-0.13 -0.39,-0.24 -0.6,-0.38 -0.21,-0.13 -0.39,-0.24 -0.6,-0.38 -0.74,-0.49 -1.54,-1.04 -2.25,-1.57l-0.81 -0.62c-0.75,-0.56 -1.68,-1.33 -2.4,-1.94l-1.53 -1.35c-0.1,-0.08 -0.15,-0.16 -0.25,-0.24l-1.14 -1.05c-0.06,-0.05 -0.07,-0.07 -0.13,-0.11l1.45 -1.65c0.07,-0.07 0.1,-0.1 0.16,-0.17l0.48 -0.55c0.07,-0.08 0.1,-0.12 0.17,-0.2l0.32 -0.38c0.11,-0.13 0.2,-0.23 0.31,-0.36l1.57 -1.92c0.11,-0.14 0.2,-0.25 0.31,-0.39 0.67,-0.82 1.45,-1.86 2.1,-2.73 0.65,-0.87 1.77,-2.37 2.33,-3.23l0.29 -0.41c0.07,-0.1 0.24,-0.3 0.27,-0.43 0.71,0 3.26,-0.34 4.13,-0.42 0.69,-0.06 1.34,-0.17 2.02,-0.25 3.06,-0.4 6.61,-1.05 9.63,-1.75 0,0.15 0.26,1.18 0.32,1.44 0.45,2.05 0.81,4.02 1.04,6.13 0.1,0.93 0.2,1.95 0.25,2.88 0.01,0.15 -0.01,0.3 0.01,0.45l0.05 1.74c0,2.95 -0.38,6.51 -1.54,9.21l-0.4 0.87c-0.33,0.57 -0.56,1.02 -1.01,1.54 -0.06,0.07 -0.09,0.09 -0.14,0.16 -0.33,0.43 -1.09,1 -1.66,1.23 -0.63,0.25 -1.39,0.44 -2.11,0.44zm-17.03 -23.2c-0.03,0.1 -0.13,0.2 -0.18,0.27l-4.71 5.94c-0.2,0.23 -1.39,1.64 -1.65,1.9 -0.11,0.11 -0.14,0.14 -0.22,0.27 -0.17,-0.12 -0.31,-0.32 -0.46,-0.48 -0.1,-0.1 -0.14,-0.16 -0.23,-0.26 -0.1,-0.1 -0.14,-0.14 -0.23,-0.25 -0.19,-0.25 -0.84,-0.91 -1.12,-1.25l-0.56 -0.65c-0.05,-0.06 -0.05,-0.07 -0.11,-0.13 -0.62,-0.67 -2.55,-3.05 -3.04,-3.7 -0.37,-0.49 -0.93,-1.15 -1.27,-1.65 0.26,0.06 0.55,0.01 0.85,0.03 0.27,0.02 0.54,0.03 0.85,0.03l1.7 0.06c0.55,0.03 1.2,0 1.76,-0 0.29,-0 0.53,0.03 0.85,0.03l3.49 -0.03c0.32,0 0.56,-0.03 0.85,-0.03 1.18,0.01 2.27,-0.09 3.43,-0.09zm0 0l0 0zm-30.85 -17.7c0.03,0.04 0.01,0.01 0.05,0.07 0.18,0.3 0.59,1.16 0.76,1.45l0.61 1.15c0.65,1.12 1.24,2.26 1.92,3.42l3.35 5.49c0.07,0.1 0.2,0.27 0.22,0.38 -0.2,0 -0.5,-0.06 -0.68,-0.08l-3.41 -0.45c-1.25,-0.18 -2.76,-0.41 -3.98,-0.66 -0.42,-0.08 -0.86,-0.17 -1.3,-0.25l-1.29 -0.26c0.01,-0.31 1.28,-3.9 1.52,-4.58l0.95 -2.54c0.09,-0.23 0.17,-0.4 0.25,-0.63l1.01 -2.51zm40.87 11.87c0.19,-0.36 1.07,-1.74 1.35,-2.2l1.33 -2.22c0.07,-0.13 0.14,-0.23 0.22,-0.36 0.08,-0.14 0.14,-0.25 0.22,-0.38l0.64 -1.12c0.3,-0.55 0.82,-1.39 1.07,-1.9l0.73 -1.34c0.04,-0.08 0.07,-0.11 0.11,-0.19l0.2 -0.37c0.18,-0.34 0.98,-1.82 1.01,-1.96 0.1,0.07 0.1,0.16 0.15,0.27 0.99,2.23 1.79,4.34 2.65,6.61l0.68 1.96c0.08,0.24 0.42,1.19 0.44,1.35 -1.7,0.4 -3.46,0.75 -5.27,1.05 -1.21,0.2 -2.91,0.49 -4.12,0.62 -0.47,0.05 -0.96,0.14 -1.43,0.18zm-49.46 -2.85c-0.29,-0.07 -0.57,-0.16 -0.85,-0.25l-1.71 -0.54c-1.31,-0.44 -2.82,-1.01 -4.08,-1.53 -1.06,-0.44 -2.06,-0.9 -3.06,-1.4l-0.74 -0.39c-0.13,-0.07 -0.24,-0.11 -0.36,-0.18 -0.13,-0.08 -0.24,-0.13 -0.37,-0.21l-1.76 -1.03c-0.97,-0.62 -2.75,-1.82 -3.57,-2.6 -0.1,-0.1 -0.18,-0.15 -0.29,-0.26l-0.3 -0.27c-0.2,-0.2 -0.38,-0.35 -0.58,-0.55 -0.19,-0.19 -0.34,-0.37 -0.53,-0.56 -0.39,-0.39 -1.21,-1.49 -1.46,-1.91 -0.36,-0.59 -0.49,-0.83 -0.76,-1.49 -0.89,-2.19 -0.07,-4.09 1.2,-5.78 0.55,-0.74 0.91,-1.11 1.57,-1.77 0.36,-0.36 0.79,-0.72 1.17,-1.05 0.83,-0.7 1.66,-1.26 2.57,-1.87 0.22,-0.15 0.44,-0.28 0.67,-0.43l0.7 -0.42c0.74,-0.4 1.36,-0.77 2.15,-1.16l1.5 -0.72c0.25,-0.12 0.51,-0.22 0.78,-0.34 0.51,-0.24 1.04,-0.45 1.56,-0.66l1.6 -0.62c0.75,-0.3 2.45,-0.85 3.31,-1.12l1.7 -0.51c0.15,0.64 1.33,4.1 1.59,4.78 0.06,0.16 0.11,0.32 0.17,0.47l0.88 2.34c0.46,1.15 0.99,2.51 1.49,3.64 0.13,0.3 0.25,0.59 0.38,0.89 0.26,0.59 0.72,1.68 0.98,2.21 0.29,0.57 0.16,0.33 -0.25,1.33 -0.03,0.08 -0.06,0.12 -0.1,0.21 -0.54,1.11 -1.37,3.18 -1.83,4.27 -0.77,1.83 -1.83,4.72 -2.44,6.55 -0.11,0.33 -0.21,0.62 -0.32,0.96l-0.63 1.95zm43.11 3.46c-0.21,0 -0.35,0.02 -0.58,0.03l-0.59 0.04c-0.3,0.05 -0.58,0.04 -0.86,0.05 -0.16,0 -0.17,0.02 -0.3,0.03 -0.1,0.01 -0.21,-0 -0.3,-0 -0.15,0 -0.14,0.02 -0.27,0.03 -0.1,0.01 -0.21,-0 -0.3,-0l-2.12 0.09c-0.25,-0 -0.36,0.03 -0.61,0.03 -0.46,-0 -0.81,0.03 -1.24,0.03 -0.85,0 -1.62,0.03 -2.49,0.03l-4.77 -0.03c-0.22,0 -0.34,-0.03 -0.52,-0.03 -0.34,-0.01 -0.72,0.03 -1.05,-0.02l-3.03 -0.13c-0.32,-0.04 -0.69,-0.01 -1.02,-0.04 -0.31,-0.03 -0.64,-0.03 -0.98,-0.06 -0.23,-0.01 -0.35,-0.29 -0.52,-0.54 -0.61,-0.92 -1.57,-2.28 -2.11,-3.2l-1.22 -1.94c-0.66,-1.03 -1.37,-2.24 -1.98,-3.3 -0.51,-0.9 -1.05,-1.78 -1.52,-2.7l-1.12 -2.07c-0.06,-0.11 -0.11,-0.22 -0.17,-0.34l-0.9 -1.74c-0.12,-0.25 -0.24,-0.47 -0.35,-0.71l-0.87 -1.77c-0.06,-0.14 0.01,-0.23 0.07,-0.36 0.69,-1.42 1.41,-2.82 2.13,-4.22l0.37 -0.69c0.28,-0.47 0.8,-1.49 1.12,-2.07l0.28 -0.51c0.04,-0.06 0.06,-0.09 0.1,-0.17l0.37 -0.66c1.05,-1.77 2.08,-3.55 3.18,-5.29l2.09 -3.22c0.28,-0.43 0.57,-0.85 0.85,-1.28l2.58 -0.15c0.15,-0 0.15,-0.03 0.3,-0.03 0.33,-0.01 0.66,0.01 0.99,-0.04 0.38,-0.05 0.88,-0.04 1.31,-0.05l0.64 -0.03c0.27,0 0.41,-0.03 0.67,-0.03 0.49,0 0.87,-0.03 1.34,-0.03 0.94,0 1.79,-0.03 2.73,-0.03 0.94,0 1.78,0.03 2.7,0.03 0.48,0 0.85,0.03 1.34,0.03l1.35 0.05c0.39,0.06 0.91,0.01 1.32,0.04 0.41,0.03 0.91,0.04 1.31,0.09l0.63 0.04c0.66,0.01 1.29,0.12 1.97,0.12 0.19,0.36 0.49,0.73 0.72,1.07 0.13,0.19 0.23,0.36 0.36,0.55l2.8 4.42c0.12,0.2 0.23,0.37 0.35,0.57 0.22,0.37 0.44,0.75 0.67,1.12l0.68 1.15c0.11,0.2 0.2,0.37 0.32,0.56 0.12,0.2 0.22,0.38 0.33,0.58 0.46,0.76 0.84,1.56 1.3,2.31 0.12,0.2 0.21,0.4 0.32,0.59l2.79 5.38c0,0.06 -1.07,2.23 -1.19,2.43 -0.22,0.38 -0.4,0.79 -0.62,1.18 -0.22,0.39 -0.4,0.81 -0.63,1.2 -0.05,0.09 -0.09,0.18 -0.14,0.28 -0.06,0.12 -0.11,0.18 -0.16,0.29 -0.25,0.5 -0.54,0.98 -0.8,1.48 -0.06,0.11 -0.1,0.18 -0.16,0.29 -1.29,2.32 -2.65,4.6 -4.04,6.86l-1.4 2.22c-0.46,0.75 -0.95,1.48 -1.44,2.2zm21.8 -32.97c0.2,0 3.09,0.95 3.34,1.04 1.24,0.41 3.1,1.13 4.36,1.69 0.14,0.06 0.25,0.11 0.38,0.17 0.11,0.05 0.26,0.11 0.38,0.17 0.13,0.06 0.24,0.11 0.37,0.17 1.39,0.7 2.24,1.07 3.64,1.89 1.52,0.89 2.84,1.77 4.2,2.91l0.58 0.51c0.49,0.43 0.95,0.89 1.38,1.38l0.25 0.3c0.09,0.11 0.16,0.19 0.24,0.3 0.17,0.23 0.32,0.42 0.47,0.65 1.81,2.71 1.43,4.78 -0.43,7.28 -0.33,0.44 -0.59,0.69 -0.87,1.05l-1.1 1.11c-0.07,0.06 -0.09,0.06 -0.15,0.12 -0.05,0.05 -0.08,0.09 -0.14,0.14l-1.04 0.87c-0.11,0.09 -0.19,0.15 -0.31,0.24 -1.94,1.45 -3.58,2.45 -5.81,3.57l-1.48 0.71c-0.12,0.06 -0.25,0.12 -0.38,0.17 -0.75,0.32 -1.97,0.87 -2.72,1.13 -0.65,0.23 -1.34,0.52 -2.02,0.74 -0.33,0.11 -2.7,0.93 -2.95,0.94 -0.04,-0.16 -0.1,-0.32 -0.16,-0.48l-0.47 -1.44c-0.11,-0.33 -0.21,-0.61 -0.33,-0.95 -0.32,-0.93 -0.71,-1.89 -1.03,-2.79 -0.12,-0.33 -0.24,-0.61 -0.36,-0.92 -0.45,-1.26 -1.34,-3.31 -1.88,-4.5l-0.79 -1.76c-0.07,-0.15 -0.14,-0.28 -0.2,-0.44l-0.41 -0.87c-0.07,-0.16 -0.12,-0.28 -0.2,-0.44 -0.06,-0.12 -0.07,-0.09 -0.03,-0.19 0.03,-0.09 0.07,-0.15 0.11,-0.23l0.5 -1.08c0.04,-0.08 0.06,-0.14 0.1,-0.23 0.28,-0.59 0.52,-1.18 0.78,-1.77 0.88,-2.01 2.3,-5.56 3.05,-7.79 0.06,-0.17 0.1,-0.31 0.16,-0.48 0.2,-0.51 0.6,-1.79 0.79,-2.39 0.03,-0.09 0.11,-0.48 0.19,-0.48zm-56.32 8.74l-0.99 -2.44c-0.33,-0.83 -0.64,-1.65 -0.95,-2.48 -0.48,-1.28 -0.89,-2.51 -1.32,-3.81l-0.41 -1.32c0.1,-0.01 0.19,-0.04 0.3,-0.06 2.44,-0.51 5,-1.03 7.47,-1.36 0.27,-0.04 2.51,-0.37 2.73,-0.37l-1.99 3.23c-0.08,0.13 -0.14,0.23 -0.22,0.36 -0.89,1.48 -1.73,2.93 -2.57,4.44l-2.02 3.75c-0.04,0.06 -0.01,0.02 -0.04,0.05zm40.87 -11.84c0.29,0 2.39,0.32 2.73,0.37 1.15,0.16 2.18,0.36 3.31,0.54 1.12,0.18 2.78,0.52 3.9,0.78 0.18,0.04 0.48,0.13 0.66,0.13 -0.05,0.21 -0.13,0.42 -0.2,0.65 -0.07,0.22 -0.14,0.41 -0.21,0.64 -0.85,2.54 -1.75,5.03 -2.79,7.51 -0.09,0.21 -0.16,0.39 -0.25,0.6l-0.25 0.63c-0.1,-0.08 -1.05,-1.92 -1.24,-2.25l-0.2 -0.37c-0.08,-0.15 -0.13,-0.25 -0.21,-0.39 -0.28,-0.51 -0.56,-0.99 -0.84,-1.5 -0.28,-0.51 -0.57,-0.97 -0.85,-1.49l-0.86 -1.47c-0.15,-0.24 -0.3,-0.48 -0.43,-0.72l-2.25 -3.64zm-23.83 -5.89l2.48 -3.16c0.54,-0.61 1.14,-1.39 1.71,-2.05l0.87 -1.01c0.22,-0.29 1.69,-1.85 1.79,-2l2.87 3.24c0.07,0.09 0.15,0.18 0.22,0.26l3.53 4.45c0.07,0.09 0.15,0.19 0.21,0.28l-1.37 -0.06c-0.39,0 -0.43,-0.02 -0.67,-0.03 -0.24,-0.01 -0.49,0.01 -0.73,0l-2.82 -0.06c-0.51,0 -3.64,-0.03 -3.99,0.02 -0.24,0.04 -1.67,0.04 -2.08,0.04 -0.2,0 -0.28,0.03 -0.67,0.03l-1.37 0.06zm10.38 -11.81l3.8 -3.4c0.8,-0.64 1.38,-1.13 2.24,-1.77 0.31,-0.23 0.6,-0.46 0.93,-0.68 1.02,-0.71 1.78,-1.25 2.89,-1.91l2.56 -1.42c0.19,-0.09 0.36,-0.19 0.55,-0.27 1.26,-0.54 2.05,-0.95 3.45,-1.34 0.77,-0.22 1.85,-0.5 2.66,-0.56 0.22,-0.02 0.53,-0.01 0.75,-0.04 0.54,-0.07 1.66,0.09 2.13,0.22 0.42,0.12 0.78,0.27 1.12,0.49 0.86,0.55 1.39,1.26 1.9,2.11 0.29,0.49 0.56,1.11 0.77,1.63 0.47,1.18 0.77,2.54 0.98,3.81 0.04,0.21 0.06,0.44 0.1,0.69 0.04,0.26 0.05,0.47 0.09,0.73 0.13,0.92 0.24,3.98 0.14,4.85 -0.01,0.12 -0,0.29 -0,0.42l-0.3 3.67c-0.12,1.44 -0.69,4.63 -1.03,6.05l-0.34 1.45c-0.13,-0.01 -0.36,-0.07 -0.5,-0.11 -0.19,-0.05 -0.33,-0.07 -0.52,-0.12 -0.35,-0.08 -0.7,-0.15 -1.02,-0.22l-6.39 -1.14c-1.65,-0.27 -3.83,-0.53 -5.54,-0.71 -0.22,-0.02 -1.52,-0.1 -1.64,-0.21l-4.01 -5.4c-0.73,-0.99 -1.73,-2.14 -2.52,-3.1l-0.58 -0.69c-0.1,-0.12 -0.21,-0.22 -0.3,-0.34 -0.19,-0.24 -0.38,-0.44 -0.58,-0.67 -0.06,-0.07 -0.07,-0.1 -0.14,-0.17 -0.29,-0.3 -0.76,-0.89 -1.05,-1.17l-0.6 -0.68zm-16.88 12.27l-1.53 0.14c-0.19,0.02 -0.34,0.02 -0.53,0.05 -0.65,0.08 -1.34,0.16 -2.01,0.24 -0.33,0.04 -0.66,0.08 -1,0.12 -1.92,0.23 -5,0.73 -6.78,1.09l-3.73 0.76c-0,-0.19 -0.13,-0.58 -0.17,-0.77l-0.51 -2.32c-0.4,-2.02 -0.76,-4.08 -0.93,-6.14l-0.11 -1.31c-0.05,-0.42 -0.05,-1.32 -0.06,-1.82 -0,-0.17 -0.03,-0.25 -0.03,-0.45 0.01,-1.9 0.06,-3.21 0.31,-4.98 0.35,-2.55 1.49,-6.82 4.26,-7.79 2.56,-0.9 5.76,-0.04 8.16,0.92 2.05,0.82 3.94,1.85 5.8,3.04 1.16,0.75 2.07,1.39 3.16,2.21l1.92 1.51c0.1,0.08 0.17,0.14 0.27,0.22l3.39 3.02c-0.11,0.17 -0.95,1.03 -1.14,1.26l-3.19 3.7c-0.65,0.83 -1.35,1.64 -2.01,2.52l-1.79 2.34c-0.44,0.58 -1.21,1.62 -1.61,2.22 -0.05,0.08 -0.12,0.14 -0.14,0.22zm13.36 -15.82c-0.12,-0.18 -0.65,-0.61 -0.86,-0.81 -0.1,-0.1 -0.19,-0.2 -0.29,-0.29 -0.42,-0.34 -0.78,-0.74 -1.21,-1.07 -0.38,-0.29 -0.82,-0.73 -1.23,-1.05l-1.25 -1.02c-0.42,-0.34 -0.84,-0.66 -1.27,-0.98l-1.31 -0.96c-0.79,-0.59 -1.9,-1.31 -2.74,-1.82 -0.25,-0.15 -0.45,-0.28 -0.7,-0.42 -1.08,-0.65 -2.19,-1.22 -3.32,-1.78 -0.64,-0.32 -1.32,-0.6 -1.99,-0.87 -2.21,-0.88 -4.94,-1.67 -7.4,-1.67 -1.69,0 -2.89,0.14 -4.38,0.69 -0.22,0.08 -0.42,0.16 -0.62,0.26 -0.69,0.34 -1.31,0.71 -1.91,1.19 -1.09,0.86 -1.94,1.97 -2.64,3.16 -0.11,0.19 -0.2,0.37 -0.31,0.57 -0.3,0.61 -0.56,1.2 -0.81,1.83 -0.35,0.9 -0.59,1.82 -0.8,2.75 -0.24,1.01 -0.36,2 -0.5,3.05 -0.06,0.45 -0.14,1.17 -0.14,1.62 -0,0.57 -0.06,1.12 -0.06,1.73l0 1.49c0,0.67 0.05,1.27 0.06,1.91 0.01,0.77 0.24,2.85 0.33,3.61 0.07,0.59 0.17,1.19 0.24,1.76 0.3,2.22 0.83,4.4 1.34,6.59 -0.97,0.23 -4.26,1.3 -5.17,1.66l-1.98 0.75c-0.34,0.14 -0.63,0.26 -0.97,0.39l-1.65 0.72c-0.09,0.04 -0.15,0.08 -0.24,0.12 -0.63,0.27 -1.23,0.59 -1.84,0.89l-3.89 2.27c-0.82,0.5 -1.99,1.43 -2.75,2.04 -0.08,0.07 -0.1,0.08 -0.18,0.15l-0.55 0.48c-0.15,0.11 -0.22,0.22 -0.35,0.32 -0.31,0.25 -0.79,0.73 -1.04,1.02 -0.86,0.98 -1.7,1.99 -2.36,3.14 -0.34,0.6 -0.63,1.21 -0.88,1.85 -0.13,0.33 -0.23,0.69 -0.33,1.04 -0.59,1.99 -0.36,4.16 0.33,6.07 0.35,0.97 0.85,1.89 1.42,2.74 0.54,0.82 1.13,1.61 1.82,2.31l1.02 1.05c0.06,0.06 0.1,0.1 0.17,0.17l0.36 0.33c0.08,0.08 0.12,0.1 0.2,0.17l1.11 0.95c0.77,0.63 1.58,1.21 2.4,1.76 1.12,0.74 2.23,1.42 3.45,2.07l0.44 0.23c1.24,0.61 2.46,1.26 3.74,1.79 0.17,0.07 0.32,0.13 0.49,0.21l2.48 0.98c1.19,0.43 2.41,0.88 3.63,1.22 0.22,0.06 0.89,0.24 1.07,0.33 -0.24,1.05 -0.51,2.12 -0.72,3.2 -0.22,1.09 -0.43,2.18 -0.59,3.32l-0.47 3.93c-0.08,0.8 -0.11,1.53 -0.12,2.33 -0,0.18 -0.03,0.25 -0.03,0.45l-0 2.22c-0,0.21 0.03,0.28 0.03,0.48 -0,0.19 0,0.34 0.02,0.49 0.02,0.16 0,0.32 0.03,0.49 0.08,0.54 0.09,1.24 0.18,1.89 0.17,1.25 0.36,2.33 0.65,3.44 0.57,2.14 1.42,4.07 2.58,5.62 0.58,0.78 1.25,1.49 2.03,2.07 0.1,0.08 0.18,0.13 0.28,0.21 0.11,0.08 0.19,0.14 0.3,0.21 0.43,0.27 0.86,0.53 1.33,0.73 1.32,0.57 2.58,0.88 4.23,0.9 0.18,0 0.25,0.03 0.45,0.03l1.46 -0.09c2.55,-0.21 4.94,-1.01 7.23,-2l2.09 -0.98c0.24,-0.12 0.44,-0.23 0.68,-0.35 0.24,-0.12 0.43,-0.25 0.67,-0.36 1.09,-0.56 2.73,-1.65 3.78,-2.35l3.53 -2.63c0.47,-0.37 0.92,-0.79 1.39,-1.16l1.91 -1.7c0.29,-0.23 0.83,-0.84 1.07,-1 0.21,0.14 1.47,1.38 1.9,1.74l1.94 1.7c0.11,0.1 0.21,0.16 0.32,0.26 1.14,1 2.9,2.32 4.16,3.16l1.01 0.69c3.76,2.46 8.34,4.74 12.97,5.09 0.46,0.04 1.06,0.09 1.52,0.03 0.15,-0.02 0.32,0.01 0.47,-0.01 0.85,-0.12 1.62,-0.17 2.45,-0.44 1.21,-0.4 2.14,-0.86 3.15,-1.61l0.53 -0.44c0.24,-0.24 0.5,-0.45 0.71,-0.71l0.66 -0.77c0.49,-0.64 0.95,-1.33 1.32,-2.05l0.47 -0.99c0.05,-0.12 0.09,-0.18 0.14,-0.32 0.97,-2.44 1.5,-4.75 1.72,-7.42l0.08 -0.87c0.04,-0.3 0.03,-0.62 0.04,-0.93l0.03 -0.94c0,-0.19 0.03,-0.25 0.03,-0.45l-0.05 -2.38c-0.02,-0.16 -0,-0.32 -0.01,-0.48 -0.02,-0.77 -0.17,-2.5 -0.26,-3.2 -0.16,-1.17 -0.28,-2.28 -0.48,-3.44 -0.18,-1.1 -0.42,-2.22 -0.65,-3.3 -0.12,-0.55 -0.25,-1.07 -0.37,-1.6 0.24,-0.12 0.77,-0.25 1.04,-0.33l1.04 -0.33c2.02,-0.67 4.01,-1.42 5.93,-2.27 0.17,-0.07 0.3,-0.14 0.46,-0.21 0.15,-0.06 0.33,-0.14 0.48,-0.22l0.93 -0.44c0.31,-0.13 0.61,-0.3 0.91,-0.45 1.23,-0.61 2.81,-1.51 3.91,-2.25l1.62 -1.11c0.15,-0.1 0.26,-0.19 0.4,-0.3l1.52 -1.21c0.08,-0.07 0.1,-0.08 0.18,-0.16l1.25 -1.15c0.51,-0.51 1.01,-1.04 1.46,-1.61l0.46 -0.58c0.6,-0.8 1.1,-1.65 1.55,-2.55l0.41 -0.96c0.12,-0.35 0.23,-0.66 0.33,-1.04 0.51,-2.07 0.4,-3.91 -0.34,-5.87 -0.12,-0.33 -0.25,-0.65 -0.41,-0.96 -0.16,-0.31 -0.3,-0.61 -0.47,-0.89 -0.08,-0.14 -0.16,-0.28 -0.25,-0.42 -0.42,-0.65 -0.93,-1.41 -1.46,-1.97l-0.65 -0.72c-0.07,-0.08 -0.08,-0.1 -0.15,-0.18 -0.06,-0.06 -0.1,-0.1 -0.17,-0.17l-0.52 -0.51c-0.24,-0.2 -0.47,-0.45 -0.72,-0.65l-2.1 -1.67c-0.52,-0.39 -1.07,-0.77 -1.62,-1.11 -0.58,-0.35 -1.1,-0.71 -1.7,-1.03 -0.95,-0.52 -1.69,-0.94 -2.67,-1.43l-2.31 -1.09 -2.43 -1c-0.66,-0.27 -1.33,-0.49 -1.99,-0.74 -1.01,-0.38 -2.06,-0.66 -3.09,-1.01 -0.16,-0.05 -0.34,-0.11 -0.51,-0.15 -0.13,-0.04 -0.42,-0.14 -0.55,-0.15 0.01,-0.12 0.06,-0.28 0.09,-0.39 0.03,-0.14 0.06,-0.27 0.1,-0.42 0.48,-1.92 0.85,-3.95 1.12,-5.92 0.08,-0.58 0.14,-1.17 0.23,-1.78 0.04,-0.31 0.07,-0.62 0.1,-0.9 0.1,-0.93 0.16,-1.88 0.19,-2.82l0.03 -0.97c-0,-0.21 0.03,-0.28 0.03,-0.48l-0 -1.03c0,-0.21 -0.03,-0.29 -0.03,-0.48 -0,-0.17 0,-0.35 0,-0.52 0,-0.4 -0.12,-2.09 -0.17,-2.44 -0.09,-0.61 -0.13,-1.22 -0.23,-1.83 -0.1,-0.59 -0.21,-1.17 -0.34,-1.76 -0.45,-2.09 -1.26,-4.19 -2.39,-5.96 -0.14,-0.22 -0.28,-0.4 -0.42,-0.61l-1.2 -1.38c-0.43,-0.44 -0.95,-0.81 -1.46,-1.15 -2.4,-1.6 -5.47,-1.85 -8.59,-1.29 -0.3,0.05 -0.58,0.1 -0.86,0.18 -0.27,0.07 -0.56,0.14 -0.83,0.21 -0.27,0.07 -0.54,0.14 -0.8,0.23 -1.28,0.43 -2.55,0.86 -3.75,1.47 -0.46,0.23 -0.94,0.42 -1.38,0.69 -0.12,0.07 -0.22,0.11 -0.34,0.17 -0.13,0.07 -0.2,0.12 -0.33,0.18 -0.13,0.06 -0.21,0.11 -0.33,0.18l-4.17 2.63c-1.01,0.72 -2.01,1.47 -2.98,2.24 -0.57,0.46 -1.15,0.98 -1.71,1.42 -0.12,0.09 -0.16,0.15 -0.28,0.24l-1.23 1.1c-0.07,0.06 -0.09,0.06 -0.15,0.12 -0.1,0.09 -0.16,0.17 -0.27,0.25l-1.09 1.01c-0.1,0.1 -0.17,0.19 -0.28,0.27z"/>
   <path class="fil1" d="M47.85 51.3c0,1.25 0,1.73 0.31,2.97 0.36,1.44 0.97,2.62 1.85,3.8l0.9 1.01c1.75,1.75 4.38,3.03 7.05,3.03 1.15,0 1.74,-0.03 2.82,-0.3 1.25,-0.31 2.51,-0.88 3.53,-1.63l0.9 -0.71 0.82 -0.82c0.1,-0.12 0.19,-0.23 0.29,-0.34 0.1,-0.12 0.18,-0.23 0.28,-0.36 0.1,-0.13 0.19,-0.25 0.28,-0.39 0.09,-0.14 0.16,-0.24 0.25,-0.39 0.08,-0.14 0.16,-0.26 0.24,-0.4 0.14,-0.27 0.32,-0.61 0.43,-0.87 0.44,-1.08 0.67,-1.88 0.82,-3.07 0.03,-0.21 0.04,-0.38 0.04,-0.6 -0,-0.24 0.05,-0.41 0.03,-0.63l-0.09 -1.19c-0.08,-0.66 -0.28,-1.49 -0.49,-2.09 -0.61,-1.83 -1.73,-3.33 -3.18,-4.59 -1.19,-1.04 -2.78,-1.77 -4.32,-2.15 -1.82,-0.44 -3.87,-0.33 -5.63,0.26 -0.64,0.21 -1.19,0.46 -1.77,0.78 -0.75,0.42 -1.57,1.02 -2.2,1.62l-0.9 1.01 -0.78 1.13 -0.45 0.83c-0.13,0.31 -0.27,0.57 -0.38,0.89 -0.34,0.95 -0.63,2.13 -0.63,3.22z"/>
  </g>
 </g>
</svg>
