<?xml version="1.0" encoding="UTF-8"?>
<!DOCTYPE svg PUBLIC "-//W3C//DTD SVG 1.1//EN" "http://www.w3.org/Graphics/SVG/1.1/DTD/svg11.dtd">
<!-- Creator: CorelDRAW 2020 (64 Bit) -->
<svg xmlns="http://www.w3.org/2000/svg" xml:space="preserve" width="32.813mm" height="19.7034mm" version="1.1" style="shape-rendering:geometricPrecision; text-rendering:geometricPrecision; image-rendering:optimizeQuality; fill-rule:evenodd; clip-rule:evenodd"
viewBox="0 0 106.67 64.05"
 xmlns:xlink="http://www.w3.org/1999/xlink"
 xmlns:xodm="http://www.corel.com/coreldraw/odm/2003">
 <defs>
  <style type="text/css">
   <![CDATA[
    .fil0 {fill:#07B6D5;fill-rule:nonzero}
   ]]>
  </style>
 </defs>
 <g id="Camada_x0020_1">
  <metadata id="CorelCorpID_0Corel-Layer"/>
  <g id="_1346534320784">
   <path class="fil0" d="M52.17 0.02c-18.77,0.6 -24.34,14 -25.62,21.26 1.67,-2.69 6.91,-8.6 14.64,-8.6 9.01,0 15.86,10.05 20.04,13.19 5.08,3.81 15.29,8.84 28.7,4.76 10.69,-3.25 15.65,-14.6 16.73,-19.99 -5.17,7.03 -13.01,11.25 -22.72,6.27 -6.68,-3.43 -11.68,-17.55 -31.78,-16.91z"/>
   <path class="fil0" d="M25.62 31.92c-18.77,0.6 -24.34,14 -25.62,21.26 1.67,-2.69 6.91,-8.6 14.64,-8.6 9.01,0 15.86,10.05 20.04,13.19 5.08,3.81 15.29,8.84 28.7,4.76 10.69,-3.25 15.65,-14.6 16.73,-19.99 -5.17,7.03 -13.01,11.25 -22.72,6.27 -6.68,-3.43 -11.68,-17.55 -31.78,-16.91z"/>
  </g>
 </g>
</svg>
